<svg xmlns="http://www.w3.org/2000/svg" xmlns:xlink="http://www.w3.org/1999/xlink" width="187.711" height="121.729" viewBox="0 0 187.711 121.729">
  <defs>
    <clipPath id="clip-path">
      <rect id="Rectángulo_462828" data-name="Rectángulo 462828" width="86.848" height="114.724" fill="none"/>
    </clipPath>
  </defs>
  <g id="Grupo_1213529" data-name="Grupo 1213529" transform="translate(-1122.711 -1880)">
    <g id="Grupo_1212264" data-name="Grupo 1212264" transform="translate(-0.066 -6214)">
      <g id="Grupo_1211972" data-name="Grupo 1211972" transform="translate(833.5 -774.039)">
        <g id="Grupo_1204518" data-name="Grupo 1204518" transform="translate(289.277 8868.039)">
          <rect id="Rectángulo_455283" data-name="Rectángulo 455283" width="187.711" height="121.729" rx="19" fill="#9ed1ff"/>
        </g>
      </g>
      <g id="Grupo_1213205" data-name="Grupo 1213205" transform="translate(1172.777 8098)">
        <g id="Grupo_1213204" data-name="Grupo 1213204" transform="translate(0 0)" clip-path="url(#clip-path)">
          <path id="Trazado_1279636" data-name="Trazado 1279636" d="M11.365,2.979A3.7,3.7,0,0,1,11.924.76,1.893,1.893,0,0,1,13.54,0a1.889,1.889,0,0,1,1.649.743,3.843,3.843,0,0,1,.533,2.237,3.748,3.748,0,0,1-.566,2.228,1.892,1.892,0,0,1-1.616.766,2.159,2.159,0,0,1-.968-.206,1.807,1.807,0,0,1-.677-.6,2.793,2.793,0,0,1-.4-.938,5.389,5.389,0,0,1-.131-1.245m1.18,0a3.908,3.908,0,0,0,.233,1.489.822.822,0,0,0,1.531.049,3.8,3.8,0,0,0,.233-1.538,6.27,6.27,0,0,0-.055-.84,2.363,2.363,0,0,0-.171-.637.927.927,0,0,0-.305-.4.832.832,0,0,0-1.233.374,3.8,3.8,0,0,0-.233,1.5" transform="translate(8.684 0)" fill="#f99b1d"/>
          <path id="Trazado_1279637" data-name="Trazado 1279637" d="M15.843,4.891h1.23V1.731l.139-.566-.422.5-.806.522-.464-.674,2.011-1.5h.649V4.891h1.207v.961H15.843Z" transform="translate(11.858 0.007)" fill="#f99b1d"/>
          <path id="Trazado_1279638" data-name="Trazado 1279638" d="M19.875,4.891H21.1V1.731l.145-.566-.429.5-.8.522-.464-.674,2.009-1.5h.647V4.891h1.2v.961H19.875Z" transform="translate(14.939 0.007)" fill="#f99b1d"/>
          <path id="Trazado_1279639" data-name="Trazado 1279639" d="M23.457,2.979A3.684,3.684,0,0,1,24.018.76,2.149,2.149,0,0,1,27.283.743a3.857,3.857,0,0,1,.533,2.237,3.709,3.709,0,0,1-.57,2.228,1.887,1.887,0,0,1-1.614.766,2.151,2.151,0,0,1-.967-.206,1.853,1.853,0,0,1-.679-.6,2.788,2.788,0,0,1-.393-.938,5.375,5.375,0,0,1-.136-1.245m1.18,0a4.014,4.014,0,0,0,.233,1.489.825.825,0,0,0,1.535.049,3.811,3.811,0,0,0,.229-1.538,6.008,6.008,0,0,0-.053-.84,2.433,2.433,0,0,0-.169-.637.917.917,0,0,0-.307-.4.834.834,0,0,0-1.235.374,3.9,3.9,0,0,0-.233,1.5" transform="translate(17.923 0)" fill="#f99b1d"/>
          <path id="Trazado_1279640" data-name="Trazado 1279640" d="M27.932,4.891h1.233V1.731l.139-.566-.423.5-.806.522-.459-.674,2.011-1.5h.642V4.891h1.21v.961H27.932Z" transform="translate(21.1 0.007)" fill="#f99b1d"/>
          <path id="Trazado_1279641" data-name="Trazado 1279641" d="M31.52,2.979A3.659,3.659,0,0,1,32.083.76,2.149,2.149,0,0,1,35.348.743a3.886,3.886,0,0,1,.529,2.237,3.722,3.722,0,0,1-.57,2.228,1.883,1.883,0,0,1-1.611.766,2.127,2.127,0,0,1-.968-.206,1.768,1.768,0,0,1-.677-.6,2.757,2.757,0,0,1-.4-.938,5.29,5.29,0,0,1-.132-1.245m1.182,0a3.878,3.878,0,0,0,.231,1.489.822.822,0,0,0,1.531.049A3.8,3.8,0,0,0,34.7,2.979a6.578,6.578,0,0,0-.055-.84,2.5,2.5,0,0,0-.171-.637.93.93,0,0,0-.307-.4A.77.77,0,0,0,33.7.961a.78.78,0,0,0-.764.515,3.771,3.771,0,0,0-.231,1.5" transform="translate(24.083 0)" fill="#f99b1d"/>
          <path id="Trazado_1279642" data-name="Trazado 1279642" d="M36,4.891H37.23V1.731l.138-.566-.427.5-.8.522-.466-.674,2.011-1.5h.646V4.891h1.207v.961H36Z" transform="translate(27.259 0.007)" fill="#f99b1d"/>
          <rect id="Rectángulo_462826" data-name="Rectángulo 462826" width="85.582" height="53.215" transform="translate(0.633 44.257)" fill="#d1edfb"/>
          <path id="Trazado_1279643" data-name="Trazado 1279643" d="M82.08,22.332H4.768C2.138,22.332,0,24.941,0,28.152V83.107c0,3.216,2.138,5.816,4.768,5.816H82.08c2.632,0,4.768-2.6,4.768-5.816V28.152c0-3.211-2.136-5.82-4.768-5.82m.7,58.076H4.068V27.194H82.78Z" transform="translate(0 17.063)" fill="#008389"/>
          <path id="Trazado_1279644" data-name="Trazado 1279644" d="M21.309,27.194H35.275l1.5-4.862H19.806Z" transform="translate(15.133 17.063)" fill="#124c60"/>
          <path id="Trazado_1279645" data-name="Trazado 1279645" d="M50.643,66.975H14.984l3.675-4.481h28.31Z" transform="translate(11.449 47.749)" fill="#008389"/>
          <rect id="Rectángulo_462827" data-name="Rectángulo 462827" width="6.091" height="4.938" transform="matrix(0.001, -1, 1, 0.001, 41.789, 112.075)" fill="#124c60"/>
          <path id="Trazado_1279646" data-name="Trazado 1279646" d="M49.186,58.15a1.057,1.057,0,0,1-1.06,1.058H45.164a1.058,1.058,0,1,1,0-2.117h2.962a1.056,1.056,0,0,1,1.06,1.058" transform="translate(33.697 43.621)" fill="#ff3912"/>
          <path id="Trazado_1279647" data-name="Trazado 1279647" d="M44.873,57.472a.388.388,0,1,0,0,.776h2.964a.388.388,0,1,0,0-.776Z" transform="translate(33.988 43.912)" fill="#fff"/>
          <path id="Trazado_1279648" data-name="Trazado 1279648" d="M9.715,8.872,29.532,24.929H42.477L62.291,8.872Z" transform="translate(7.423 6.778)" fill="#ffb851"/>
          <path id="Trazado_1279649" data-name="Trazado 1279649" d="M19.073,12.889,23.92,19.64h2.764l-1.96-6.751Z" transform="translate(14.573 9.847)" fill="#fff"/>
          <path id="Trazado_1279650" data-name="Trazado 1279650" d="M63.029,14.025V8.4a2.583,2.583,0,0,0-2.576-2.586H12A2.585,2.585,0,0,0,9.423,8.4v5.622A2.583,2.583,0,0,0,12,16.6l48.45,0a2.575,2.575,0,0,0,2.576-2.574" transform="translate(7.2 4.441)" fill="#ffd453"/>
          <path id="Trazado_1279651" data-name="Trazado 1279651" d="M20.949,17.974l3.96,12.819h5.017l3.966-12.819Z" transform="translate(16.007 13.733)" fill="#ffb851"/>
          <path id="Trazado_1279652" data-name="Trazado 1279652" d="M25.516,27.944l-.739-8.986H22.339l1.879,8.986Z" transform="translate(17.069 14.485)" fill="#fff"/>
          <path id="Trazado_1279653" data-name="Trazado 1279653" d="M28.544,8.454A1.507,1.507,0,0,1,27.037,9.96H12.514a1.5,1.5,0,1,1,0-3.009H27.037a1.5,1.5,0,0,1,1.507,1.5" transform="translate(8.412 5.311)" fill="#fff"/>
          <path id="Trazado_1279654" data-name="Trazado 1279654" d="M31.435,30.625H46.488a1.42,1.42,0,0,1,1.417,1.42V44.787H70.768A1.419,1.419,0,0,1,72.186,46.2V68.281a1.417,1.417,0,0,1-2.833,0V47.62H46.488A1.417,1.417,0,0,1,45.069,46.2V33.46H32.851v5.16a1.415,1.415,0,0,1-1.417,1.417H7.789V66.861H30.682a1.417,1.417,0,0,1,0,2.835H6.375a1.414,1.414,0,0,1-1.417-1.415V38.62A1.413,1.413,0,0,1,6.375,37.2H30.018V32.045a1.417,1.417,0,0,1,1.417-1.42" transform="translate(3.788 23.399)" fill="#124c60"/>
          <path id="Trazado_1279655" data-name="Trazado 1279655" d="M22.018,38.653a1.417,1.417,0,0,1,1.418,1.417V51.741a1.417,1.417,0,0,1-2.835,0V40.07a1.417,1.417,0,0,1,1.417-1.417" transform="translate(15.74 29.533)" fill="#124c60"/>
          <path id="Trazado_1279656" data-name="Trazado 1279656" d="M12.589,38.653a1.416,1.416,0,0,1,1.42,1.417V50.324H55.779V40.07a1.415,1.415,0,1,1,2.83,0V51.741A1.417,1.417,0,0,1,57.2,53.157H12.589a1.417,1.417,0,0,1-1.413-1.417V40.07a1.417,1.417,0,0,1,1.413-1.417" transform="translate(8.539 29.533)" fill="#124c60"/>
          <path id="Trazado_1279657" data-name="Trazado 1279657" d="M40.257,53.5a3.542,3.542,0,1,1,3.542,3.54,3.54,3.54,0,0,1-3.542-3.54" transform="translate(30.759 38.176)" fill="#124c60"/>
          <path id="Trazado_1279658" data-name="Trazado 1279658" d="M17.532,53.5a3.54,3.54,0,1,1,3.542,3.54,3.539,3.539,0,0,1-3.542-3.54" transform="translate(13.396 38.176)" fill="#124c60"/>
          <path id="Trazado_1279659" data-name="Trazado 1279659" d="M19.4,40.99a3.541,3.541,0,1,1,3.54,3.544A3.542,3.542,0,0,1,19.4,40.99" transform="translate(14.82 28.612)" fill="#124c60"/>
          <path id="Trazado_1279660" data-name="Trazado 1279660" d="M33.713,45.27a1.417,1.417,0,0,1,1.417,1.417V56.941a1.416,1.416,0,1,1-2.831,0V46.687a1.415,1.415,0,0,1,1.415-1.417" transform="translate(24.678 34.589)" fill="#124c60"/>
          <path id="Trazado_1279661" data-name="Trazado 1279661" d="M38.174,53.419a3.54,3.54,0,1,1-3.54-3.539,3.544,3.544,0,0,1,3.54,3.539" transform="translate(23.757 38.111)" fill="#124c60"/>
          <path id="Trazado_1279662" data-name="Trazado 1279662" d="M26.425,45.27a1.417,1.417,0,0,1,1.418,1.417V56.941a1.417,1.417,0,0,1-2.833,0V46.687a1.415,1.415,0,0,1,1.415-1.417" transform="translate(19.109 34.589)" fill="#124c60"/>
          <path id="Trazado_1279663" data-name="Trazado 1279663" d="M30.887,53.419a3.541,3.541,0,1,1-3.54-3.539,3.543,3.543,0,0,1,3.54,3.539" transform="translate(18.188 38.111)" fill="#124c60"/>
          <path id="Trazado_1279664" data-name="Trazado 1279664" d="M9.973,40.989a3.54,3.54,0,1,1,3.535,3.544,3.537,3.537,0,0,1-3.535-3.544" transform="translate(7.62 28.614)" fill="#124c60"/>
          <path id="Trazado_1279665" data-name="Trazado 1279665" d="M35.252,40.989a3.542,3.542,0,1,1,3.542,3.544,3.54,3.54,0,0,1-3.542-3.544" transform="translate(26.935 28.614)" fill="#124c60"/>
          <path id="Trazado_1279666" data-name="Trazado 1279666" d="M26.095,26.362l3.542,3.544H22.554Z" transform="translate(17.233 20.142)" fill="#124c60"/>
          <path id="Trazado_1279667" data-name="Trazado 1279667" d="M25.175,27.076a1.415,1.415,0,0,1,1.417,1.417v4.844a1.417,1.417,0,1,1-2.833,0V28.493a1.417,1.417,0,0,1,1.417-1.417" transform="translate(18.153 20.687)" fill="#124c60"/>
          <path id="Trazado_1279668" data-name="Trazado 1279668" d="M71.484,68.549l-.5-.219V48.946a.579.579,0,0,0-.579-.577H64.272l-.221-.506a2.7,2.7,0,0,0-4.948,0l-.221.506H46.7V34.786a.578.578,0,0,0-.577-.58h-6.37V28.55h.937l-1.515-1.515L37.658,28.55H38.6v5.656H31.071a.579.579,0,0,0-.577.58v6H6.011a.57.57,0,0,0-.577.577V71.022a.575.575,0,0,0,.577.577h21.61l.219.5a2.705,2.705,0,1,0,.005-2.163l-.221.5H6.586V41.94H31.071a.576.576,0,0,0,.577-.577v-6H45.542V48.946a.58.58,0,0,0,.582.577H58.883l.221.5a2.708,2.708,0,0,0,1.4,1.4l.5.219v8.4H34.186v-8.4l.5-.219a2.7,2.7,0,1,0-2.163,0l.5.219v8.4H17.557v-8.4l.5-.219A2.706,2.706,0,1,0,15.9,51.42l.5.224v8.974a.579.579,0,0,0,.577.577H40.805v6.982l-.5.222a2.7,2.7,0,1,0,2.157,0l-.5-.219V61.194h11.7V68.18l-.5.219a2.7,2.7,0,1,0,2.159,0l-.5-.219V61.194h6.765a.577.577,0,0,0,.577-.577V51.638l.5-.219a2.685,2.685,0,0,0,1.392-1.394l.221-.5h5.555V68.33l-.5.222a2.7,2.7,0,1,0,2.159,0" transform="translate(4.152 20.656)" fill="#ffb851"/>
        </g>
      </g>
    </g>
  </g>
</svg>
