<svg id="Grupo_1211863" data-name="Grupo 1211863" xmlns="http://www.w3.org/2000/svg" xmlns:xlink="http://www.w3.org/1999/xlink" width="128" height="128" viewBox="0 0 128 128">
  <defs>
    <clipPath id="clip-path">
      <rect id="Rectángulo_454829" data-name="Rectángulo 454829" width="128" height="128" fill="#1e535a"/>
    </clipPath>
    <clipPath id="clip-path-2">
      <rect id="Rectángulo_462816" data-name="Rectángulo 462816" width="50" height="48.036" fill="#1e535a"/>
    </clipPath>
  </defs>
  <g id="Grupo_1177591" data-name="Grupo 1177591">
    <g id="Grupo_1177589" data-name="Grupo 1177589" transform="translate(0 0)">
      <g id="Grupo_1177587" data-name="Grupo 1177587" clip-path="url(#clip-path)">
        <path id="Trazado_997422" data-name="Trazado 997422" d="M122.774,56.654a58.848,58.848,0,0,0-13.293-30.623,6.768,6.768,0,0,0-9.523-9.118A58.761,58.761,0,0,0,69.535,5.027a6.769,6.769,0,0,0-13.148.267A58.842,58.842,0,0,0,27.2,17.772a6.771,6.771,0,0,0-9.4,9.462A58.794,58.794,0,0,0,5.483,56.6a6.774,6.774,0,0,0-.162,13.266A58.776,58.776,0,0,0,17.252,99.82a6.771,6.771,0,0,0,9.2,9.56,58.838,58.838,0,0,0,29.883,13.07,6.771,6.771,0,0,0,13.266.267,58.788,58.788,0,0,0,30.646-12.107,6.769,6.769,0,0,0,9.476-9.165A58.863,58.863,0,0,0,122.933,69.8a6.771,6.771,0,0,0-.159-13.144m-19.12-27.288a6.733,6.733,0,0,0,3.75-1.135,55.884,55.884,0,0,1,12.333,28.407,6.781,6.781,0,0,0-4.327,3.135L98.1,53.283c.013-.189.027-.382.027-.578a6.772,6.772,0,0,0-2.868-5.533l7.57-17.86a7.335,7.335,0,0,0,.821.054M100,28.288,92.472,46.03a6.7,6.7,0,0,0-7.459,4.307L53.705,43.125a6.588,6.588,0,0,0-.142-1.348L97.992,26.305a6.793,6.793,0,0,0,2,1.983M63,13.553a6.777,6.777,0,0,0,6.651-5.5A55.792,55.792,0,0,1,97.857,19.09a6.739,6.739,0,0,0-.98,3.5,7.114,7.114,0,0,0,.064.9L52.29,39.031A6.8,6.8,0,0,0,51.064,37.8L62.775,13.543c.074,0,.145.01.22.01M56.4,8.324a6.778,6.778,0,0,0,3.409,4.435L48.331,36.538a6.8,6.8,0,0,0-1.4-.145,6.727,6.727,0,0,0-3.861,1.213L29.461,26.238A6.736,6.736,0,0,0,29.231,20,55.836,55.836,0,0,1,56.4,8.324M13.387,61.776l28.15-14.519a6.751,6.751,0,0,0,5.341,2.686l9.648,30.839a6.887,6.887,0,0,0-1.493,1.652L13.3,65.046a6.731,6.731,0,0,0,.25-1.8,6.81,6.81,0,0,0-.166-1.473m6.648-32.521a6.771,6.771,0,0,0,7.564-.645L41.037,39.831a6.758,6.758,0,0,0-.747,4.682l-28.2,14.539A6.774,6.774,0,0,0,8.506,56.7,55.812,55.812,0,0,1,20.036,29.254m2.8,67.623a6.756,6.756,0,0,0-3.365.9A55.762,55.762,0,0,1,8.351,69.832a6.783,6.783,0,0,0,3.517-2.121L54.013,85.27a7.266,7.266,0,0,0-.054.814,6.775,6.775,0,0,0,.405,2.29L28.876,100.587a6.775,6.775,0,0,0-6.037-3.709m33.626,22.556a55.892,55.892,0,0,1-27.883-12.2,6.705,6.705,0,0,0,1.034-3.581l0-.078L56,90.929a6.776,6.776,0,0,0,2.392,1.51l1.581,22.725a6.776,6.776,0,0,0-3.51,4.27m2.807-39.96L49.831,49.287a6.786,6.786,0,0,0,3.219-3.219l31.562,7.266a6.736,6.736,0,0,0,1.078,3.081L64.042,80.173a6.692,6.692,0,0,0-4.77-.7M69.592,119.7a6.774,6.774,0,0,0-6.6-5.25l-.051,0-1.5-21.623a6.764,6.764,0,0,0,4.142-2.01l31.555,13.918c0,.061-.01.115-.01.176a6.743,6.743,0,0,0,1,3.534A55.789,55.789,0,0,1,69.592,119.7M97.9,101.779,67.164,88.22a6.736,6.736,0,0,0-.888-6.027L87.858,58.5a6.736,6.736,0,0,0,3.5.98,7.46,7.46,0,0,0,.831-.054l8.067,39.781a6.761,6.761,0,0,0-2.355,2.571m9.722-2.534a6.735,6.735,0,0,0-4.5-1.064l-8.07-39.8a6.8,6.8,0,0,0,2.135-2.23l17.3,6.486a6.009,6.009,0,0,0-.03.608,6.774,6.774,0,0,0,5.445,6.641A55.835,55.835,0,0,1,107.62,99.246" transform="translate(0 0.001)" fill="#1e535a"/>
      </g>
    </g>
  </g>
  <g id="Elipse_13614" data-name="Elipse 13614" transform="translate(23.938 24.182)" fill="#fff" stroke="#1e535a" stroke-width="3">
    <ellipse cx="39.732" cy="39.733" rx="39.732" ry="39.733" stroke="none"/>
    <ellipse cx="39.732" cy="39.733" rx="38.232" ry="38.233" fill="none"/>
  </g>
  <g id="Grupo_1213196" data-name="Grupo 1213196" transform="translate(39.938 40.182)">
    <g id="Grupo_1213195" data-name="Grupo 1213195" clip-path="url(#clip-path-2)">
      <path id="Trazado_1279609" data-name="Trazado 1279609" d="M31.78,48.033l-13.488,0a.963.963,0,0,1-1.052-.916l-.006-6.5a.886.886,0,0,1,.894-.9l6,0-.006-1.661H8.659L8.651,39.72l6.012-.007a.924.924,0,0,1,.868.793l-.006,6.752c0,.422-.6.777-1.04.777H1.067c-.44,0-1.051-.312-1.052-.757L0,40.617a.9.9,0,0,1,.908-.9l6,0,0-2.446a.894.894,0,0,1,.962-.869l16.241,0,.009-1.652-14.848,0c-.319,0-.795-.367-.795-.677l0-9.25c0-.432.544-.766.924-.766h2.206V22.713l-2.2.018c-.391,0-.925-.333-.925-.775v-9.1a.835.835,0,0,1,.934-.8l2.18-.01.021-1.343-2.2.009c-.364,0-.934-.33-.935-.734L8.476.85A.855.855,0,0,1,9.331,0H40.668a.855.855,0,0,1,.854.85l0,9.128c0,.306-.508.721-.782.721l-2.335,0v1.341l2.187.024a.879.879,0,0,1,.933.783l0,9.112c0,.439-.534.777-.924.774l-2.2-.018v1.353h2.185a.9.9,0,0,1,.946.914l0,8.959a.847.847,0,0,1-.8.815H25.875l.008,1.65H42.268a.9.9,0,0,1,.822.852l0,2.457,6.148.005c.421,0,.765.529.764.89l-.017,6.668c0,.443-.611.755-1.05.755l-13.426,0c-.328,0-1.024-.329-1.025-.664L34.464,40.5a.925.925,0,0,1,.873-.79l6.011,0-.008-1.663H25.877l-.007,1.658,6.145.007c.432,0,.751.53.751.891l-.007,6.51a.943.943,0,0,1-.979.91M37.471,4.673a.892.892,0,0,0,.922-.844c.008-.269-.359-.818-.73-.818L24.947,3.006a.89.89,0,0,0-.805.955.968.968,0,0,0,.934.714Zm-22.956.674a1.562,1.562,0,0,0-3.122,0,1.562,1.562,0,0,0,3.122,0m4.709,0a1.565,1.565,0,0,0-3.128,0,1.565,1.565,0,0,0,3.128,0M37.736,7.694c.515-.283.741-.693.607-1.119a1.006,1.006,0,0,0-.941-.55l-12.614.016c-.419,0-.722.662-.645.942a1.014,1.014,0,0,0,.93.715Zm-1.075,2.988H13.339v1.384H36.662Zm.9,6.026a.85.85,0,0,0,.833-.9.879.879,0,0,0-.829-.751l-12.483,0a.846.846,0,0,0-.935.9.924.924,0,0,0,.936.756Zm-23.04.675a1.563,1.563,0,1,0-1.562,1.5,1.532,1.532,0,0,0,1.562-1.5m4.706,0a1.561,1.561,0,1,0-1.559,1.5,1.53,1.53,0,0,0,1.559-1.5m18.333,2.333a.872.872,0,0,0,.83-.87.885.885,0,0,0-.858-.782l-12.416,0a.89.89,0,0,0-.98.8.928.928,0,0,0,.787.85Zm-.9,3H13.334v1.357H36.662Zm.927,6.031a.885.885,0,0,0,.8-.941A.9.9,0,0,0,37.4,27.1l-12.48.008a.888.888,0,0,0-.789.828.925.925,0,0,0,.815.818Zm-23.07.669a1.563,1.563,0,1,0-1.562,1.5,1.532,1.532,0,0,0,1.562-1.5m4.706,0a1.564,1.564,0,1,0-1.562,1.5,1.532,1.532,0,0,0,1.562-1.5m18.434,2.342c.377,0,.726-.52.738-.786.014-.3-.26-.851-.677-.851l-12.642,0a.843.843,0,0,0-.94.861.905.905,0,0,0,.839.785ZM11.251,44.714a.9.9,0,0,0,.835-.957.95.95,0,0,0-.9-.708l-6.97.007a.858.858,0,0,0-.75.947,1.067,1.067,0,0,0,.913.721Zm17.223.012a1.023,1.023,0,0,0,.847-.852.9.9,0,0,0-.751-.822l-7.138,0a.854.854,0,0,0-.741.946,1.026,1.026,0,0,0,.906.717Zm17.215-.011a.836.836,0,1,0-.057-1.667l-6.815.005a.873.873,0,0,0-.909.83.955.955,0,0,0,.913.84Z" transform="translate(0)" fill="#1e535a"/>
    </g>
  </g>
</svg>
