<svg xmlns="http://www.w3.org/2000/svg" xmlns:xlink="http://www.w3.org/1999/xlink" width="69" height="69" viewBox="0 0 69 69">
  <defs>
    <clipPath id="clip-path">
      <rect id="Rectángulo_462833" data-name="Rectángulo 462833" width="43.996" height="44" fill="#fff"/>
    </clipPath>
  </defs>
  <g id="Grupo_1212959" data-name="Grupo 1212959" transform="translate(-616.566 -749.631)">
    <circle id="Elipse_13676" data-name="Elipse 13676" cx="34.5" cy="34.5" r="34.5" transform="translate(616.566 749.631)" fill="#1e535a"/>
    <g id="Grupo_1213211" data-name="Grupo 1213211" transform="translate(629.566 762.631)">
      <g id="Grupo_1213210" data-name="Grupo 1213210" clip-path="url(#clip-path)">
        <path id="Trazado_1279680" data-name="Trazado 1279680" d="M27.6,26.893,13.44,26.885V40.321H24.073v1.431H12.792a.751.751,0,0,1-.783-.8l0-14.071-2.862.01,0-1.437c0-.571.486-1.393,1.161-1.4l5.22-.025L16.957,21.2l-10-.016a1.414,1.414,0,0,1-1.323-1.424l0-12.877A1.348,1.348,0,0,1,6.828,5.6l23.108-.006a1.379,1.379,0,0,1,1.2,1.29l.008,5.084h9.994a.738.738,0,0,1,.657.772l0,11.3H40.36V13.4H31.14v6.62A1.5,1.5,0,0,1,29.689,21.2H19.821l1.4,2.821,5.334.058c.687.007,1.094.981,1.064,1.488ZM7.737,19.088h21.31V7.693H7.737Z" transform="translate(-4.903 -4.866)" fill="#fff"/>
        <path id="Trazado_1279681" data-name="Trazado 1279681" d="M216.78,216.753a21.134,21.134,0,0,1-8.968,0,21.186,21.186,0,0,1,0-8.968,21.845,21.845,0,0,1,8.953-.01,21.169,21.169,0,0,1,.017,8.981" transform="translate(-180.367 -180.352)" fill="#fff"/>
        <path id="Trazado_1279682" data-name="Trazado 1279682" d="M296.383,217.971c.047,2.318-2.519,3.637-4.637,4.33a23.012,23.012,0,0,0,.006-8.116c1.946.683,4.119,1.692,4.631,3.786" transform="translate(-253.804 -186.33)" fill="#fff"/>
        <path id="Trazado_1279683" data-name="Trazado 1279683" d="M168.4,222.339a8.744,8.744,0,0,1-3.692-2.053,2.6,2.6,0,0,1-.144-3.809,8.774,8.774,0,0,1,3.831-2.217,23.673,23.673,0,0,0,.006,8.079" transform="translate(-142.498 -186.395)" fill="#fff"/>
        <path id="Trazado_1279684" data-name="Trazado 1279684" d="M222.377,291.724c-.527,1.884-2,4.581-4.018,4.606-1.978.025-3.458-2.657-4.069-4.617a23.144,23.144,0,0,0,8.087.011" transform="translate(-186.421 -253.775)" fill="#fff"/>
        <path id="Trazado_1279685" data-name="Trazado 1279685" d="M222.424,168.327a23.958,23.958,0,0,0-8.08,0,8.749,8.749,0,0,1,2.22-3.832,2.6,2.6,0,0,1,3.809.143,8.716,8.716,0,0,1,2.051,3.689" transform="translate(-186.468 -142.44)" fill="#fff"/>
        <path id="Trazado_1279686" data-name="Trazado 1279686" d="M289.369,7.1a5.732,5.732,0,0,0-5.681-5.689L283.683,0a7.128,7.128,0,0,1,7.1,7.091Z" transform="translate(-246.79)" fill="#fff"/>
        <path id="Trazado_1279687" data-name="Trazado 1279687" d="M7.071,289.327l.035,1.428A7.18,7.18,0,0,1,0,283.644H1.414a5.747,5.747,0,0,0,5.657,5.684" transform="translate(0 -246.755)" fill="#fff"/>
        <path id="Trazado_1279688" data-name="Trazado 1279688" d="M280.3,175.175a14.682,14.682,0,0,0-4.242-1.9,15.993,15.993,0,0,0-1.958-4.3,10.4,10.4,0,0,1,6.2,6.2" transform="translate(-238.45 -147.001)" fill="#fff"/>
        <path id="Trazado_1279689" data-name="Trazado 1279689" d="M274.159,279.81a15.21,15.21,0,0,0,1.932-4.249,13.627,13.627,0,0,0,4.3-2.012,10.375,10.375,0,0,1-6.231,6.26" transform="translate(-238.504 -237.975)" fill="#fff"/>
        <path id="Trazado_1279690" data-name="Trazado 1279690" d="M173.358,275.941a14.269,14.269,0,0,0,1.964,4.277,10.432,10.432,0,0,1-6.24-6.218,15.319,15.319,0,0,0,4.276,1.941" transform="translate(-147.093 -238.366)" fill="#fff"/>
        <path id="Trazado_1279691" data-name="Trazado 1279691" d="M173.337,173.332a15.13,15.13,0,0,0-4.307,1.957,10.541,10.541,0,0,1,6.185-6.214,15.242,15.242,0,0,0-1.878,4.256" transform="translate(-147.047 -147.088)" fill="#fff"/>
        <path id="Trazado_1279692" data-name="Trazado 1279692" d="M287.225,21.387a3.521,3.521,0,0,0-3.537-3.545l0-1.42a4.953,4.953,0,0,1,4.947,4.949Z" transform="translate(-246.794 -14.286)" fill="#fff"/>
        <path id="Trazado_1279693" data-name="Trazado 1279693" d="M21.453,287.176l.015,1.407a4.95,4.95,0,0,1-4.951-4.944h1.416a3.535,3.535,0,0,0,3.521,3.537" transform="translate(-14.369 -246.751)" fill="#fff"/>
        <path id="Trazado_1279694" data-name="Trazado 1279694" d="M285.091,35.511a1.482,1.482,0,0,0-1.436-1.452l0-1.416a2.893,2.893,0,0,1,2.852,2.849Z" transform="translate(-246.764 -28.398)" fill="#fff"/>
        <path id="Trazado_1279695" data-name="Trazado 1279695" d="M35.547,285.033l.008,1.424a2.9,2.9,0,0,1-2.853-2.845h1.416a1.465,1.465,0,0,0,1.43,1.421" transform="translate(-28.448 -246.728)" fill="#fff"/>
      </g>
    </g>
  </g>
</svg>
