<svg xmlns="http://www.w3.org/2000/svg" xmlns:xlink="http://www.w3.org/1999/xlink" width="84" height="84" viewBox="0 0 84 84">
  <defs>
    <clipPath id="clip-path">
      <rect id="Rectángulo_462841" data-name="Rectángulo 462841" width="52.24" height="63.245" fill="#344866"/>
    </clipPath>
  </defs>
  <g id="Grupo_1212925" data-name="Grupo 1212925" transform="translate(0.289 -0.257)">
    <g id="Grupo_1119665" data-name="Grupo 1119665" transform="translate(-0.289 0.257)">
      <rect id="Rectángulo_402006" data-name="Rectángulo 402006" width="84" height="84" rx="5" fill="#69d7e5"/>
    </g>
    <g id="Grupo_1213219" data-name="Grupo 1213219" transform="translate(15.711 10.635)">
      <g id="Grupo_1213218" data-name="Grupo 1213218" clip-path="url(#clip-path)">
        <path id="Trazado_1279743" data-name="Trazado 1279743" d="M45.54,50.941l-.016-5.074a6.371,6.371,0,0,0-.281-1.517,13.731,13.731,0,0,1-4.906,1.338l-.007,10.486-.28,1.373,1.054.042c.532.021,1.292.447,1.281,1.11l-.044,2.71,2.539-.006a.927.927,0,0,0,.661-.694l-.017-5.487a1.1,1.1,0,0,1,.872-.97,1.006,1.006,0,0,1,1.013.988L47.4,60.722a2.556,2.556,0,0,1-2.56,2.523H2.5A2.485,2.485,0,0,1,0,60.84l0-14.63a9.11,9.11,0,0,1,7.029-8.838,3.448,3.448,0,0,1,3.4-3.47l5.441-.057a8.174,8.174,0,0,0,1.957-.712l.029-2.349a9.816,9.816,0,0,1-4.007-6.778,4.636,4.636,0,0,1-4.056-3.372A4.662,4.662,0,0,1,11.053,16.4a3.488,3.488,0,0,1-.957-2.252l.037-7.456A6.864,6.864,0,0,1,16.754.049L19.709,0a1.007,1.007,0,0,1,.925,1c-.117,1.227-1.632.729-3.824.886a5.168,5.168,0,0,0-4.856,5.022l-.031,7.045a1.693,1.693,0,0,0,1.6,1.687l11.057-.018a5.19,5.19,0,0,0,4.307-2.768,1.178,1.178,0,0,1,1.2-.569,1.312,1.312,0,0,1,.852,1.092,2.319,2.319,0,0,0,2.167,2.275.829.829,0,0,0,.855-.774l0-7.084A1.824,1.824,0,0,0,32,5.938,2.568,2.568,0,0,1,29.293,3.8a2.134,2.134,0,0,0-2.084-1.919l-3.015-.045c-.6-.009-1.056-.264-1.114-.845A.993.993,0,0,1,24.012,0l3.407.066a3.731,3.731,0,0,1,3.628,3.243.911.911,0,0,0,.921.762,3.729,3.729,0,0,1,3.868,3.892l-.085,7.923a5.184,5.184,0,0,1,1.879,4.171A12.9,12.9,0,0,1,46.895,43.3a11.713,11.713,0,0,1,.492,2.514l.022,5.133c0,.354-.536.834-.845.864a1.023,1.023,0,0,1-1.023-.873M26.767,30.094a12.865,12.865,0,0,1,4.847-7.607l-.031-5.308a4.475,4.475,0,0,1-2.1-2.018A7.206,7.206,0,0,1,24.03,17.51L15.642,17.5c.013,2.236-.077,4.277.092,6.4a7.482,7.482,0,0,0,3.732,5.664,7.841,7.841,0,0,0,7.3.522m6.723-8.8,2.2-.9a3.069,3.069,0,0,0-1.211-3.134l-1.027.3Zm-19.721.725.013-4.3a1.328,1.328,0,0,0-1-.283,2.45,2.45,0,0,0,.991,4.588M39.343,33.038l1.643.349,3.6-3.608a1.673,1.673,0,0,1,1.524-.37c1.72.587,1.639,4.914-.872,7.486A7.055,7.055,0,0,1,38.7,38.874l-3.932,4A11.036,11.036,0,1,0,29.3,37.421l4-3.98A7.124,7.124,0,0,1,35.216,27c2.762-2.731,7.1-2.471,7.624-1.069a1.83,1.83,0,0,1-.183,1.539L38.823,31.32Zm-2.075-.431c-.164-.622-.625-1.7-.11-2.228l3.449-3.546a5.121,5.121,0,0,0-5.585,5.145,5.189,5.189,0,1,0,10.367-.338l-3.214,3.211a1.81,1.81,0,0,1-1.237.484c-3.044-.744-3.1-.57-3.672-2.728M26.488,33.895,26.42,32.25A10.7,10.7,0,0,1,19.7,31.8l-.12,2.1ZM33.1,41.93,36.818,38.2a8.665,8.665,0,0,1-2.808-2.813l-3.747,3.753A12.386,12.386,0,0,0,33.1,41.93M37.312,57.6a1.658,1.658,0,0,0,1.173-1.63l-.017-10.287A12.822,12.822,0,0,1,26.788,35.75l-16.319,0A1.525,1.525,0,0,0,8.92,37.338l0,18.826c0,.609.532,1.433,1.2,1.433ZM5.108,61.4a6.349,6.349,0,0,1,.1-3.227c.316-.726,1.471-.618,2.121-.562a8.237,8.237,0,0,1-.26-1.628V39.309a7.353,7.353,0,0,0-5.235,7.267L1.843,60.7a.919.919,0,0,0,.763.719Zm34.67-.017c.852,0,.919-1.47.672-1.927l-33.624,0c-.17.729.039,1.931.791,1.931Z" transform="translate(0 0)" fill="#344866"/>
        <path id="Trazado_1279744" data-name="Trazado 1279744" d="M117.746,259.4l-3.166.063c-.343.007-.829-.512-.866-.823s.313-1.023.634-1.026l3.221-.028a1.2,1.2,0,0,1,.851.72c.085.308-.29,1.086-.673,1.094" transform="translate(-93.109 -210.916)" fill="#344866"/>
      </g>
    </g>
  </g>
</svg>
