<svg xmlns="http://www.w3.org/2000/svg" xmlns:xlink="http://www.w3.org/1999/xlink" width="69" height="69" viewBox="0 0 69 69">
  <defs>
    <clipPath id="clip-path">
      <rect id="Rectángulo_462835" data-name="Rectángulo 462835" width="42" height="42" fill="#fff"/>
    </clipPath>
  </defs>
  <g id="Grupo_1212960" data-name="Grupo 1212960" transform="translate(-1033 -4465.867)">
    <g id="Grupo_1212373" data-name="Grupo 1212373" transform="translate(415.433 3716.005)">
      <circle id="Elipse_13676" data-name="Elipse 13676" cx="34.5" cy="34.5" r="34.5" transform="translate(617.567 749.862)" fill="#1e535a"/>
    </g>
    <g id="Grupo_1213213" data-name="Grupo 1213213" transform="translate(1047 4479.867)">
      <g id="Grupo_1213212" data-name="Grupo 1213212" clip-path="url(#clip-path)">
        <path id="Trazado_1279696" data-name="Trazado 1279696" d="M116.363,110.343l-14.711-.013,0,25c-.3.207-1.318.089-1.318-.445l-.015-25.205a.691.691,0,0,1,.685-.729h16.012a.691.691,0,0,1,.685.729l-.011,25.209c-.061.53-.979.635-1.323.445Z" transform="translate(-88.007 -95.057)" fill="#fff"/>
        <path id="Trazado_1279697" data-name="Trazado 1279697" d="M122.016,261.58h12.057v6.994H122.016Zm4.69,3.486a1.336,1.336,0,1,0-1.335,1.388,1.362,1.362,0,0,0,1.335-1.388m5.347,0a1.336,1.336,0,1,0-1.335,1.387,1.362,1.362,0,0,0,1.335-1.387" transform="translate(-107.044 -228.228)" fill="#fff"/>
        <path id="Trazado_1279698" data-name="Trazado 1279698" d="M122.013,130.69h12.059v4.2H122.013Zm2.668,1.383h-1.333v1.412h1.333Zm2.686,0h-1.35v1.412h1.35Z" transform="translate(-107.042 -114.027)" fill="#fff"/>
        <path id="Trazado_1279699" data-name="Trazado 1279699" d="M134.073,222.16H122.016v-4.167h12.057Zm-9.389-2.777H123.35v1.389h1.333Zm1.333,1.389h1.353v-1.389h-1.353Z" transform="translate(-107.044 -190.198)" fill="#fff"/>
        <path id="Trazado_1279700" data-name="Trazado 1279700" d="M134.073,178.754H122.016v-4.184h12.057Zm-4-2.8h-1.35v1.4h1.35Zm2.67,0h-1.333v1.407h1.333Z" transform="translate(-107.044 -152.313)" fill="#fff"/>
        <path id="Trazado_1279701" data-name="Trazado 1279701" d="M142.442,47.75l-9.36.008a25.619,25.619,0,0,1,.52-4.189l8.287-.008a26.962,26.962,0,0,1,.553,4.189" transform="translate(-116.753 -38.007)" fill="#fff"/>
        <path id="Trazado_1279702" data-name="Trazado 1279702" d="M22.49,105.812v1.4l-3.3-.013a2.157,2.157,0,0,1-2.088-2.276V98.495l-1.517,1.523-.934-1,3.137-3.255,3.166,3.27-.937.991-1.55-1.535-.019,6.556a.791.791,0,0,0,.732.768Z" transform="translate(-12.852 -83.552)" fill="#fff"/>
        <path id="Trazado_1279703" data-name="Trazado 1279703" d="M263.721,107.181l-.007-1.391,3.312,0a.786.786,0,0,0,.732-.765l-.01-6.577-1.532,1.548-.961-.977,3.155-3.281,3.151,3.257-.951,1-1.5-1.528-.014,6.551a2.154,2.154,0,0,1-2.19,2.167Z" transform="translate(-231.356 -83.529)" fill="#fff"/>
        <path id="Trazado_1279704" data-name="Trazado 1279704" d="M268.434,251.2l-3.169-3.279.943-.986,1.551,1.56.007-6.587a.761.761,0,0,0-.732-.751l-3.309,0v-1.391l3.31,0a2.1,2.1,0,0,1,2.073,2.131l.015,6.561,1.5-1.525.947,1Z" transform="translate(-231.365 -209.196)" fill="#fff"/>
        <path id="Trazado_1279705" data-name="Trazado 1279705" d="M19.988,246.9l.967.957-3.162,3.29-3.144-3.259.951-1.005,1.5,1.528.013-6.565a2.081,2.081,0,0,1,1.96-2.113l3.423-.023v1.4l-3.309,0a.761.761,0,0,0-.731.748l.007,6.593Z" transform="translate(-12.852 -209.15)" fill="#fff"/>
        <path id="Trazado_1279706" data-name="Trazado 1279706" d="M148.282,4.157h-7.435A8.719,8.719,0,0,1,142.819.766a2.376,2.376,0,0,1,3.491,0,8.745,8.745,0,0,1,1.972,3.393" transform="translate(-123.565 0)" fill="#fff"/>
        <path id="Trazado_1279707" data-name="Trazado 1279707" d="M9.637,191l-7.063,0,1.488,1.6-.93.951L0,190.3l3.135-3.255.925.945-1.492,1.625,7.071.029Z" transform="translate(0 -163.198)" fill="#fff"/>
        <path id="Trazado_1279708" data-name="Trazado 1279708" d="M270.752,191.007,263.724,191l-.037-1.35,7.076-.025-1.488-1.633.923-.943,3.134,3.254-3.13,3.253-.932-.951Z" transform="translate(-231.332 -163.2)" fill="#fff"/>
        <path id="Trazado_1279709" data-name="Trazado 1279709" d="M220.564,47.735l-3.993,0a28.432,28.432,0,0,0-.512-4.176l3.374-.016a11.507,11.507,0,0,1,1.131,4.195" transform="translate(-189.548 -37.989)" fill="#fff"/>
        <path id="Trazado_1279710" data-name="Trazado 1279710" d="M93.525,47.76l-4,.024a11.427,11.427,0,0,1,1.127-4.2h3.377a26.681,26.681,0,0,0-.509,4.175" transform="translate(-78.545 -38.027)" fill="#fff"/>
        <rect id="Rectángulo_462834" data-name="Rectángulo 462834" width="9.326" height="1.394" transform="translate(16.336 11.145)" fill="#fff"/>
        <path id="Trazado_1279711" data-name="Trazado 1279711" d="M108.891,8.709l-2.882,0a9.785,9.785,0,0,1,4.5-3.483,13.766,13.766,0,0,0-1.622,3.479" transform="translate(-93.002 -4.563)" fill="#fff"/>
        <path id="Trazado_1279712" data-name="Trazado 1279712" d="M204.066,8.684l-2.849.036a14.518,14.518,0,0,0-1.634-3.492,9.77,9.77,0,0,1,4.484,3.455" transform="translate(-175.093 -4.562)" fill="#fff"/>
        <path id="Trazado_1279713" data-name="Trazado 1279713" d="M93.475,88.759l-2.367.017a1.9,1.9,0,0,0-1.339.8c-.166-.745-.293-1.439-.4-2.2l4.023-.006Z" transform="translate(-78.407 -76.227)" fill="#fff"/>
        <path id="Trazado_1279714" data-name="Trazado 1279714" d="M223.223,89.576a1.977,1.977,0,0,0-1.584-.8l-2.108.011.06-1.4h4.033a17.432,17.432,0,0,1-.4,2.184" transform="translate(-192.594 -76.248)" fill="#fff"/>
      </g>
    </g>
  </g>
</svg>
