<svg id="Grupo_1211863" data-name="Grupo 1211863" xmlns="http://www.w3.org/2000/svg" xmlns:xlink="http://www.w3.org/1999/xlink" width="128" height="128" viewBox="0 0 128 128">
  <defs>
    <clipPath id="clip-path">
      <rect id="Rectángulo_454829" data-name="Rectángulo 454829" width="128" height="128" fill="#1e535a"/>
    </clipPath>
    <clipPath id="clip-path-2">
      <rect id="Rectángulo_462988" data-name="Rectángulo 462988" width="48.729" height="48.718" fill="#1e535a"/>
    </clipPath>
  </defs>
  <g id="Grupo_1177591" data-name="Grupo 1177591">
    <g id="Grupo_1177589" data-name="Grupo 1177589" transform="translate(0 0)">
      <g id="Grupo_1177587" data-name="Grupo 1177587" clip-path="url(#clip-path)">
        <path id="Trazado_997422" data-name="Trazado 997422" d="M122.774,56.654a58.848,58.848,0,0,0-13.293-30.623,6.768,6.768,0,0,0-9.523-9.118A58.761,58.761,0,0,0,69.535,5.027a6.769,6.769,0,0,0-13.148.267A58.842,58.842,0,0,0,27.2,17.772a6.771,6.771,0,0,0-9.4,9.462A58.794,58.794,0,0,0,5.483,56.6a6.774,6.774,0,0,0-.162,13.266A58.776,58.776,0,0,0,17.252,99.82a6.771,6.771,0,0,0,9.2,9.56,58.838,58.838,0,0,0,29.883,13.07,6.771,6.771,0,0,0,13.266.267,58.788,58.788,0,0,0,30.646-12.107,6.769,6.769,0,0,0,9.476-9.165A58.863,58.863,0,0,0,122.933,69.8a6.771,6.771,0,0,0-.159-13.144m-19.12-27.288a6.733,6.733,0,0,0,3.75-1.135,55.884,55.884,0,0,1,12.333,28.407,6.781,6.781,0,0,0-4.327,3.135L98.1,53.283c.013-.189.027-.382.027-.578a6.772,6.772,0,0,0-2.868-5.533l7.57-17.86a7.335,7.335,0,0,0,.821.054M100,28.288,92.472,46.03a6.7,6.7,0,0,0-7.459,4.307L53.705,43.125a6.588,6.588,0,0,0-.142-1.348L97.992,26.305a6.793,6.793,0,0,0,2,1.983M63,13.553a6.777,6.777,0,0,0,6.651-5.5A55.792,55.792,0,0,1,97.857,19.09a6.739,6.739,0,0,0-.98,3.5,7.114,7.114,0,0,0,.064.9L52.29,39.031A6.8,6.8,0,0,0,51.064,37.8L62.775,13.543c.074,0,.145.01.22.01M56.4,8.324a6.778,6.778,0,0,0,3.409,4.435L48.331,36.538a6.8,6.8,0,0,0-1.4-.145,6.727,6.727,0,0,0-3.861,1.213L29.461,26.238A6.736,6.736,0,0,0,29.231,20,55.836,55.836,0,0,1,56.4,8.324M13.387,61.776l28.15-14.519a6.751,6.751,0,0,0,5.341,2.686l9.648,30.839a6.887,6.887,0,0,0-1.493,1.652L13.3,65.046a6.731,6.731,0,0,0,.25-1.8,6.81,6.81,0,0,0-.166-1.473m6.648-32.521a6.771,6.771,0,0,0,7.564-.645L41.037,39.831a6.758,6.758,0,0,0-.747,4.682l-28.2,14.539A6.774,6.774,0,0,0,8.506,56.7,55.812,55.812,0,0,1,20.036,29.254m2.8,67.623a6.756,6.756,0,0,0-3.365.9A55.762,55.762,0,0,1,8.351,69.832a6.783,6.783,0,0,0,3.517-2.121L54.013,85.27a7.266,7.266,0,0,0-.054.814,6.775,6.775,0,0,0,.405,2.29L28.876,100.587a6.775,6.775,0,0,0-6.037-3.709m33.626,22.556a55.892,55.892,0,0,1-27.883-12.2,6.705,6.705,0,0,0,1.034-3.581l0-.078L56,90.929a6.776,6.776,0,0,0,2.392,1.51l1.581,22.725a6.776,6.776,0,0,0-3.51,4.27m2.807-39.96L49.831,49.287a6.786,6.786,0,0,0,3.219-3.219l31.562,7.266a6.736,6.736,0,0,0,1.078,3.081L64.042,80.173a6.692,6.692,0,0,0-4.77-.7M69.592,119.7a6.774,6.774,0,0,0-6.6-5.25l-.051,0-1.5-21.623a6.764,6.764,0,0,0,4.142-2.01l31.555,13.918c0,.061-.01.115-.01.176a6.743,6.743,0,0,0,1,3.534A55.789,55.789,0,0,1,69.592,119.7M97.9,101.779,67.164,88.22a6.736,6.736,0,0,0-.888-6.027L87.858,58.5a6.736,6.736,0,0,0,3.5.98,7.46,7.46,0,0,0,.831-.054l8.067,39.781a6.761,6.761,0,0,0-2.355,2.571m9.722-2.534a6.735,6.735,0,0,0-4.5-1.064l-8.07-39.8a6.8,6.8,0,0,0,2.135-2.23l17.3,6.486a6.009,6.009,0,0,0-.03.608,6.774,6.774,0,0,0,5.445,6.641A55.835,55.835,0,0,1,107.62,99.246" transform="translate(0 0.001)" fill="#1e535a"/>
      </g>
    </g>
  </g>
  <g id="Elipse_13614" data-name="Elipse 13614" transform="translate(24.938 24.598)" fill="#fff" stroke="#1e535a" stroke-width="3">
    <ellipse cx="39.732" cy="39.733" rx="39.732" ry="39.733" stroke="none"/>
    <ellipse cx="39.732" cy="39.733" rx="38.232" ry="38.233" fill="none"/>
  </g>
  <g id="Grupo_1213454" data-name="Grupo 1213454" transform="translate(39.938 40.598)">
    <g id="Grupo_1213453" data-name="Grupo 1213453" clip-path="url(#clip-path-2)">
      <path id="Trazado_1279863" data-name="Trazado 1279863" d="M23.8,78.57l1.406,1.87-7.058.02.063-2.229,4.455-.047,0-5.16a2.454,2.454,0,0,1-1.051-1.076l-14.848,0A2.734,2.734,0,0,1,5.7,72.992l-.014,5.541,1.379,1.911-7.048.015L0,78.759c0-.314.388-.563.711-.563l3.83-.007L4.53,73.006a1.77,1.77,0,0,1-1.1-1.844,1.7,1.7,0,0,1,1.407-1.448,1.748,1.748,0,0,1,1.9,1.116l14.9,0a1.9,1.9,0,0,1,1.016-1.03l.012-6.3-7.284-.024a3.568,3.568,0,0,0,2.745-3.255l.037-12.57,7.887-.04,2.273,3.38h8.517a.733.733,0,0,1,.556.545l-.044,8.8a3.307,3.307,0,0,1-3.368,3.137l-10.2.019.008,6.275a2.045,2.045,0,0,1,1.008,1.06l14.923.007A1.765,1.765,0,0,1,41.494,69.7a1.7,1.7,0,0,1,1.522,1.334,1.805,1.805,0,0,1-1.093,2l-.009,5.516,1.415,1.9-7.064.011.06-2.223,4.481-.053-.017-5.2a1.791,1.791,0,0,1-1.03-1.031H24.837A1.915,1.915,0,0,1,23.8,72.991Z" transform="translate(0 -40.812)" fill="#1e535a"/>
      <path id="Trazado_1279864" data-name="Trazado 1279864" d="M114.428,5.686l-8.085.019c-.413,0-.847.608-.847,1.01l-.006,12.559a2.262,2.262,0,0,1-2.265,2.249l0-20.932a.6.6,0,0,1,.57-.59h18.114c.186,0,.571.277.571.443l-.006,8.61-5.1,0L115.4,6.079a1.345,1.345,0,0,0-.971-.393" transform="translate(-88.483)" fill="#1e535a"/>
      <rect id="Rectángulo_462985" data-name="Rectángulo 462985" width="12.451" height="7.937" transform="translate(0.005 40.781)" fill="#1e535a"/>
      <rect id="Rectángulo_462986" data-name="Rectángulo 462986" width="12.423" height="7.937" transform="translate(18.155 40.781)" fill="#1e535a"/>
      <rect id="Rectángulo_462987" data-name="Rectángulo 462987" width="12.451" height="7.937" transform="translate(36.278 40.781)" fill="#1e535a"/>
      <path id="Trazado_1279865" data-name="Trazado 1279865" d="M81.575,85.927a2.19,2.19,0,0,1-2.283-2.2l-.015-7.839a.7.7,0,0,1,.674-.687l1.625.019Z" transform="translate(-67.956 -64.458)" fill="#1e535a"/>
    </g>
  </g>
</svg>
