<svg id="Grupo_1212932" data-name="Grupo 1212932" xmlns="http://www.w3.org/2000/svg" xmlns:xlink="http://www.w3.org/1999/xlink" width="128" height="128" viewBox="0 0 128 128">
  <defs>
    <clipPath id="clip-path">
      <rect id="Rectángulo_454829" data-name="Rectángulo 454829" width="128" height="128" fill="#1e535a"/>
    </clipPath>
    <clipPath id="clip-path-2">
      <rect id="Rectángulo_462989" data-name="Rectángulo 462989" width="53.333" height="35.623" fill="#1e535a"/>
    </clipPath>
  </defs>
  <g id="Grupo_1177591" data-name="Grupo 1177591">
    <g id="Grupo_1177589" data-name="Grupo 1177589" transform="translate(0 0)">
      <g id="Grupo_1177587" data-name="Grupo 1177587" clip-path="url(#clip-path)">
        <path id="Trazado_997422" data-name="Trazado 997422" d="M122.774,56.654a58.848,58.848,0,0,0-13.293-30.623,6.768,6.768,0,0,0-9.523-9.118A58.761,58.761,0,0,0,69.535,5.027a6.769,6.769,0,0,0-13.148.267A58.842,58.842,0,0,0,27.2,17.772a6.771,6.771,0,0,0-9.4,9.462A58.794,58.794,0,0,0,5.483,56.6a6.774,6.774,0,0,0-.162,13.266A58.776,58.776,0,0,0,17.252,99.82a6.771,6.771,0,0,0,9.2,9.56,58.838,58.838,0,0,0,29.883,13.07,6.771,6.771,0,0,0,13.266.267,58.788,58.788,0,0,0,30.646-12.107,6.769,6.769,0,0,0,9.476-9.165A58.863,58.863,0,0,0,122.933,69.8a6.771,6.771,0,0,0-.159-13.144m-19.12-27.288a6.733,6.733,0,0,0,3.75-1.135,55.884,55.884,0,0,1,12.333,28.407,6.781,6.781,0,0,0-4.327,3.135L98.1,53.283c.013-.189.027-.382.027-.578a6.772,6.772,0,0,0-2.868-5.533l7.57-17.86a7.335,7.335,0,0,0,.821.054M100,28.288,92.472,46.03a6.7,6.7,0,0,0-7.459,4.307L53.705,43.125a6.588,6.588,0,0,0-.142-1.348L97.992,26.305a6.793,6.793,0,0,0,2,1.983M63,13.553a6.777,6.777,0,0,0,6.651-5.5A55.792,55.792,0,0,1,97.857,19.09a6.739,6.739,0,0,0-.98,3.5,7.114,7.114,0,0,0,.064.9L52.29,39.031A6.8,6.8,0,0,0,51.064,37.8L62.775,13.543c.074,0,.145.01.22.01M56.4,8.324a6.778,6.778,0,0,0,3.409,4.435L48.331,36.538a6.8,6.8,0,0,0-1.4-.145,6.727,6.727,0,0,0-3.861,1.213L29.461,26.238A6.736,6.736,0,0,0,29.231,20,55.836,55.836,0,0,1,56.4,8.324M13.387,61.776l28.15-14.519a6.751,6.751,0,0,0,5.341,2.686l9.648,30.839a6.887,6.887,0,0,0-1.493,1.652L13.3,65.046a6.731,6.731,0,0,0,.25-1.8,6.81,6.81,0,0,0-.166-1.473m6.648-32.521a6.771,6.771,0,0,0,7.564-.645L41.037,39.831a6.758,6.758,0,0,0-.747,4.682l-28.2,14.539A6.774,6.774,0,0,0,8.506,56.7,55.812,55.812,0,0,1,20.036,29.254m2.8,67.623a6.756,6.756,0,0,0-3.365.9A55.762,55.762,0,0,1,8.351,69.832a6.783,6.783,0,0,0,3.517-2.121L54.013,85.27a7.266,7.266,0,0,0-.054.814,6.775,6.775,0,0,0,.405,2.29L28.876,100.587a6.775,6.775,0,0,0-6.037-3.709m33.626,22.556a55.892,55.892,0,0,1-27.883-12.2,6.705,6.705,0,0,0,1.034-3.581l0-.078L56,90.929a6.776,6.776,0,0,0,2.392,1.51l1.581,22.725a6.776,6.776,0,0,0-3.51,4.27m2.807-39.96L49.831,49.287a6.786,6.786,0,0,0,3.219-3.219l31.562,7.266a6.736,6.736,0,0,0,1.078,3.081L64.042,80.173a6.692,6.692,0,0,0-4.77-.7M69.592,119.7a6.774,6.774,0,0,0-6.6-5.25l-.051,0-1.5-21.623a6.764,6.764,0,0,0,4.142-2.01l31.555,13.918c0,.061-.01.115-.01.176a6.743,6.743,0,0,0,1,3.534A55.789,55.789,0,0,1,69.592,119.7M97.9,101.779,67.164,88.22a6.736,6.736,0,0,0-.888-6.027L87.858,58.5a6.736,6.736,0,0,0,3.5.98,7.46,7.46,0,0,0,.831-.054l8.067,39.781a6.761,6.761,0,0,0-2.355,2.571m9.722-2.534a6.735,6.735,0,0,0-4.5-1.064l-8.07-39.8a6.8,6.8,0,0,0,2.135-2.23l17.3,6.486a6.009,6.009,0,0,0-.03.608,6.774,6.774,0,0,0,5.445,6.641A55.835,55.835,0,0,1,107.62,99.246" transform="translate(0 0.001)" fill="#1e535a"/>
      </g>
    </g>
  </g>
  <g id="Elipse_13614" data-name="Elipse 13614" transform="translate(24.938 24.598)" fill="#fff" stroke="#1e535a" stroke-width="3">
    <ellipse cx="39.732" cy="39.733" rx="39.732" ry="39.733" stroke="none"/>
    <ellipse cx="39.732" cy="39.733" rx="38.232" ry="38.233" fill="none"/>
  </g>
  <g id="Grupo_1213456" data-name="Grupo 1213456" transform="translate(37.938 46.598)">
    <g id="Grupo_1213455" data-name="Grupo 1213455" clip-path="url(#clip-path-2)">
      <path id="Trazado_1279866" data-name="Trazado 1279866" d="M22.194,72.114l-21.337,0A.956.956,0,0,1,0,71.139V44.3A1.046,1.046,0,0,1,.977,43.6l13.631.013,8.513,8.52,0,18.852a1.038,1.038,0,0,1-.93,1.126M19.986,51.562l-4.842-4.845-.043,4.9Zm-9.323.986a1.068,1.068,0,0,0,.908-.945l-.013-3.594a.941.941,0,0,0-.93-.82H5.354a.956.956,0,0,0-.94.82L4.4,51.6a1.023,1.023,0,0,0,.991.944Zm.056,11.515a1,1,0,0,0,.847-.961c-.034-.3-.444-.778-.767-.778l-5.446,0a.976.976,0,0,0-.941.784c-.05.314.393.953.779.953ZM14.29,67.61a.934.934,0,0,0,.828-.916c-.016-.3-.435-.852-.806-.852H5.266a.924.924,0,0,0-.844.991,1,1,0,0,0,.945.784Z" transform="translate(0 -36.492)" fill="#1e535a"/>
      <path id="Trazado_1279867" data-name="Trazado 1279867" d="M113.72,8.911H92.071A.931.931,0,0,1,91.17,8a.915.915,0,0,1,.909-.888l32.27,0V1.775H88.8l-.009,2.754a.894.894,0,0,1-1.783.129L86.991.9a.942.942,0,0,1,.9-.9h37.378a.876.876,0,0,1,.87.935V27.477a.935.935,0,0,1-1,1.005l-26.534,0a.9.9,0,1,1-.016-1.795l15.132,0Zm8.107,5.339c.359,0,.766-.585.77-.872s-.345-.9-.679-.894L117.8,12.5c-.3,0-.615.747-.536,1.029a1.211,1.211,0,0,0,.863.731Zm-.237,3.543a.94.94,0,0,0,1-.821c.039-.313-.275-.924-.661-.923l-3.979.009c-.483,0-.783.665-.662,1.081a1.047,1.047,0,0,0,.989.659Zm.425,3.513c.452-.006.676-.853.517-1.191a1.153,1.153,0,0,0-.945-.561l-3.43.013a.932.932,0,0,0-.895,1,.964.964,0,0,0,1.021.786Z" transform="translate(-72.803)" fill="#1e535a"/>
      <path id="Trazado_1279868" data-name="Trazado 1279868" d="M162.623,81.472c.59.292.849.759.586,1.285a.965.965,0,0,1-1.3.359c-1.795-.856-2.971-1.16-2.739-3.563.166-1.72-1.223-1.656-1.223-2.545s1.39-.827,1.223-2.545c-.232-2.383.97-2.832,3.114-3.68.33-.131.9.292.987.594a.988.988,0,0,1-.581,1.14l-1.745.875-.03,2.7c0,.263-.486.729-.676.89a1.957,1.957,0,0,1,.713,1.554l-.012,2.1Z" transform="translate(-132.187 -59.219)" fill="#1e535a"/>
      <path id="Trazado_1279869" data-name="Trazado 1279869" d="M208.47,83.293a.993.993,0,0,1-1.18-.277.886.886,0,0,1,.251-1.239l1.927-.969.059-2.705c.006-.282.481-.742.667-.924-.219-.232-.676-.724-.681-1.054l-.042-2.632-1.829-.877a.909.909,0,0,1-.415-1.192.954.954,0,0,1,1.318-.358c1.768.841,2.926,1.106,2.723,3.546-.143,1.713,1.22,1.676,1.22,2.55s-1.363.838-1.22,2.55c.2,2.413-.923,2.708-2.8,3.58" transform="translate(-173.355 -59.373)" fill="#1e535a"/>
      <path id="Trazado_1279870" data-name="Trazado 1279870" d="M116.172,22.7a.887.887,0,1,1-.887-.887.887.887,0,0,1,.887.887" transform="translate(-95.74 -18.255)" fill="#1e535a"/>
      <path id="Trazado_1279871" data-name="Trazado 1279871" d="M148.927,22.7a.885.885,0,1,1-.885-.885.885.885,0,0,1,.885.885" transform="translate(-123.156 -18.255)" fill="#1e535a"/>
      <path id="Trazado_1279872" data-name="Trazado 1279872" d="M181.692,22.7a.884.884,0,1,1-.884-.884.884.884,0,0,1,.884.884" transform="translate(-150.58 -18.259)" fill="#1e535a"/>
    </g>
  </g>
</svg>
