<svg id="Grupo_1212944" data-name="Grupo 1212944" xmlns="http://www.w3.org/2000/svg" xmlns:xlink="http://www.w3.org/1999/xlink" width="128" height="128" viewBox="0 0 128 128">
  <defs>
    <clipPath id="clip-path">
      <rect id="Rectángulo_454829" data-name="Rectángulo 454829" width="128" height="128" fill="#1e535a"/>
    </clipPath>
    <clipPath id="clip-path-2">
      <rect id="Rectángulo_463022" data-name="Rectángulo 463022" width="51.745" height="38.974" fill="#1e535a"/>
    </clipPath>
  </defs>
  <g id="Grupo_1177591" data-name="Grupo 1177591">
    <g id="Grupo_1177589" data-name="Grupo 1177589" transform="translate(0 0)">
      <g id="Grupo_1177587" data-name="Grupo 1177587" clip-path="url(#clip-path)">
        <path id="Trazado_997422" data-name="Trazado 997422" d="M122.774,56.654a58.848,58.848,0,0,0-13.293-30.623,6.768,6.768,0,0,0-9.523-9.118A58.761,58.761,0,0,0,69.535,5.027a6.769,6.769,0,0,0-13.148.267A58.842,58.842,0,0,0,27.2,17.772a6.771,6.771,0,0,0-9.4,9.462A58.794,58.794,0,0,0,5.483,56.6a6.774,6.774,0,0,0-.162,13.266A58.776,58.776,0,0,0,17.252,99.82a6.771,6.771,0,0,0,9.2,9.56,58.838,58.838,0,0,0,29.883,13.07,6.771,6.771,0,0,0,13.266.267,58.788,58.788,0,0,0,30.646-12.107,6.769,6.769,0,0,0,9.476-9.165A58.863,58.863,0,0,0,122.933,69.8a6.771,6.771,0,0,0-.159-13.144m-19.12-27.288a6.733,6.733,0,0,0,3.75-1.135,55.884,55.884,0,0,1,12.333,28.407,6.781,6.781,0,0,0-4.327,3.135L98.1,53.283c.013-.189.027-.382.027-.578a6.772,6.772,0,0,0-2.868-5.533l7.57-17.86a7.335,7.335,0,0,0,.821.054M100,28.288,92.472,46.03a6.7,6.7,0,0,0-7.459,4.307L53.705,43.125a6.588,6.588,0,0,0-.142-1.348L97.992,26.305a6.793,6.793,0,0,0,2,1.983M63,13.553a6.777,6.777,0,0,0,6.651-5.5A55.792,55.792,0,0,1,97.857,19.09a6.739,6.739,0,0,0-.98,3.5,7.114,7.114,0,0,0,.064.9L52.29,39.031A6.8,6.8,0,0,0,51.064,37.8L62.775,13.543c.074,0,.145.01.22.01M56.4,8.324a6.778,6.778,0,0,0,3.409,4.435L48.331,36.538a6.8,6.8,0,0,0-1.4-.145,6.727,6.727,0,0,0-3.861,1.213L29.461,26.238A6.736,6.736,0,0,0,29.231,20,55.836,55.836,0,0,1,56.4,8.324M13.387,61.776l28.15-14.519a6.751,6.751,0,0,0,5.341,2.686l9.648,30.839a6.887,6.887,0,0,0-1.493,1.652L13.3,65.046a6.731,6.731,0,0,0,.25-1.8,6.81,6.81,0,0,0-.166-1.473m6.648-32.521a6.771,6.771,0,0,0,7.564-.645L41.037,39.831a6.758,6.758,0,0,0-.747,4.682l-28.2,14.539A6.774,6.774,0,0,0,8.506,56.7,55.812,55.812,0,0,1,20.036,29.254m2.8,67.623a6.756,6.756,0,0,0-3.365.9A55.762,55.762,0,0,1,8.351,69.832a6.783,6.783,0,0,0,3.517-2.121L54.013,85.27a7.266,7.266,0,0,0-.054.814,6.775,6.775,0,0,0,.405,2.29L28.876,100.587a6.775,6.775,0,0,0-6.037-3.709m33.626,22.556a55.892,55.892,0,0,1-27.883-12.2,6.705,6.705,0,0,0,1.034-3.581l0-.078L56,90.929a6.776,6.776,0,0,0,2.392,1.51l1.581,22.725a6.776,6.776,0,0,0-3.51,4.27m2.807-39.96L49.831,49.287a6.786,6.786,0,0,0,3.219-3.219l31.562,7.266a6.736,6.736,0,0,0,1.078,3.081L64.042,80.173a6.692,6.692,0,0,0-4.77-.7M69.592,119.7a6.774,6.774,0,0,0-6.6-5.25l-.051,0-1.5-21.623a6.764,6.764,0,0,0,4.142-2.01l31.555,13.918c0,.061-.01.115-.01.176a6.743,6.743,0,0,0,1,3.534A55.789,55.789,0,0,1,69.592,119.7M97.9,101.779,67.164,88.22a6.736,6.736,0,0,0-.888-6.027L87.858,58.5a6.736,6.736,0,0,0,3.5.98,7.46,7.46,0,0,0,.831-.054l8.067,39.781a6.761,6.761,0,0,0-2.355,2.571m9.722-2.534a6.735,6.735,0,0,0-4.5-1.064l-8.07-39.8a6.8,6.8,0,0,0,2.135-2.23l17.3,6.486a6.009,6.009,0,0,0-.03.608,6.774,6.774,0,0,0,5.445,6.641A55.835,55.835,0,0,1,107.62,99.246" transform="translate(0 0.001)" fill="#1e535a"/>
      </g>
    </g>
  </g>
  <g id="Elipse_13614" data-name="Elipse 13614" transform="translate(24.626 24.697)" fill="#fff" stroke="#1e535a" stroke-width="3">
    <ellipse cx="39.732" cy="39.733" rx="39.732" ry="39.733" stroke="none"/>
    <ellipse cx="39.732" cy="39.733" rx="38.232" ry="38.233" fill="none"/>
  </g>
  <g id="Grupo_1213481" data-name="Grupo 1213481" transform="translate(-13.303 111.197)">
    <g id="Grupo_1213480" data-name="Grupo 1213480" transform="translate(51.929 -66.5)" clip-path="url(#clip-path-2)">
      <path id="Trazado_1280067" data-name="Trazado 1280067" d="M46.474,188.866l-40.648.05A5.681,5.681,0,0,1,0,182.957a5.485,5.485,0,0,1,5.233-5.484l41-.025a5.638,5.638,0,0,1,5.493,6.17,5.447,5.447,0,0,1-5.254,5.248m-20.367-2.333v-6.727l-20.665,0a3.358,3.358,0,0,0,.08,6.707Z" transform="translate(0 -149.942)" fill="#1e535a"/>
      <path id="Trazado_1280068" data-name="Trazado 1280068" d="M97.666,20.037c-.992-.025-1.87-.086-2.838-.194l-.076-1.529a14.363,14.363,0,0,1-3.35-1.5,10.082,10.082,0,0,1-1.232.964l-1.923-2.071.988-1.105a10.711,10.711,0,0,1-1.251-3.379l-1.421-.112.167-2.672,1.454-.13A11.714,11.714,0,0,1,89.8,4.85c-.371-.273-.872-.8-.861-1.242L90.893,1.79l1.082,1a8.672,8.672,0,0,1,3.351-1.28L95.426,0l2.642.278.117,1.466a8.017,8.017,0,0,1,3.3,1.491l1.423-.955,1.9,2.048L103.7,5.5a12.189,12.189,0,0,1,1.273,3.316l1.581.12a21.293,21.293,0,0,1-.116,2.778l-1.577.135a10.922,10.922,0,0,1-1.478,3.2l1.094,1.233-1.619,1.584c-.147.144-.643.241-.769.121l-.9-.856a13.53,13.53,0,0,1-3.443,1.3Zm3.408-9.978a4.632,4.632,0,1,0-4.632,4.632,4.632,4.632,0,0,0,4.632-4.632" transform="translate(-73.144)" fill="#1e535a"/>
      <path id="Trazado_1280069" data-name="Trazado 1280069" d="M219.28,62.633l-2.122.017-.1-1.166a6.88,6.88,0,0,1-2.405-1.07l-.966.651-1.353-1.36.639-.767a11.707,11.707,0,0,1-.974-2.62l-1.033-.1,0-2.065,1.12.015c.375-.861.782-1.688,1.2-2.455l-.667-.786,1.441-1.4.805.646,2.512-.892.094-.979,2.073-.021.091,1.135a8.956,8.956,0,0,1,2.32,1.088l.794-.663,1.444,1.453-.772.859a14.6,14.6,0,0,1,.862,2.454l1.132.085.006,2.072-1.137.1-1.013,2.349.838.66-1.445,1.477-.862-.818a9.207,9.207,0,0,1-2.5.967Zm2.276-7.145A3.416,3.416,0,1,0,218.14,58.9a3.416,3.416,0,0,0,3.416-3.416" transform="translate(-178.262 -40.792)" fill="#1e535a"/>
      <path id="Trazado_1280070" data-name="Trazado 1280070" d="M39.025,89.616l-.2.643c-.023.074-.377.09-.515.083l-.642-.033c-.156-.008-.159-.495-.191-.7l-1.628-.627c-.127.04-.47.376-.584.3a2.409,2.409,0,0,1-.431-.374l-.4-.5c-.1-.124.282-.437.428-.549l-.651-1.7-.595-.154c-.125-.032-.136-.43-.122-.568l.075-.743c.016-.155.52-.144.646-.206l.75-1.479-.4-.476,1.089-.9.36.653,1.564-.649c.117-.049.141-.452.2-.567.131-.277,1.224-.18,1.263-.073l.236.648,1.48.729.454-.624.842,1.053-.519.56.716,1.65c.224,0,.607-.007.622.118l.074.617c.017.141.011.569-.117.6l-.6.14-.682,1.455.5.622-.923.91-.628-.489Zm1.506-4a2.209,2.209,0,1,0-2.209,2.209,2.209,2.209,0,0,0,2.209-2.209" transform="translate(-28.299 -68.351)" fill="#1e535a"/>
      <path id="Trazado_1280071" data-name="Trazado 1280071" d="M142.573,54.949a1.78,1.78,0,1,1-1.78-1.78,1.78,1.78,0,0,1,1.78,1.78" transform="translate(-117.466 -44.927)" fill="#1e535a"/>
      <path id="Trazado_1280072" data-name="Trazado 1280072" d="M251.9,87.883a1.3,1.3,0,1,1-1.3-1.3,1.3,1.3,0,0,1,1.3,1.3" transform="translate(-210.66 -73.162)" fill="#1e535a"/>
      <path id="Trazado_1280073" data-name="Trazado 1280073" d="M60.8,106.483a.846.846,0,1,1-.846-.846.846.846,0,0,1,.846.846" transform="translate(-49.947 -89.263)" fill="#1e535a"/>
    </g>
  </g>
</svg>
