<svg id="Grupo_1212943" data-name="Grupo 1212943" xmlns="http://www.w3.org/2000/svg" xmlns:xlink="http://www.w3.org/1999/xlink" width="128" height="128" viewBox="0 0 128 128">
  <defs>
    <clipPath id="clip-path">
      <rect id="Rectángulo_454829" data-name="Rectángulo 454829" width="128" height="128" fill="#1e535a"/>
    </clipPath>
    <clipPath id="clip-path-2">
      <rect id="Rectángulo_463019" data-name="Rectángulo 463019" width="51.43" height="36.805" fill="#1e535a"/>
    </clipPath>
  </defs>
  <g id="Grupo_1177591" data-name="Grupo 1177591">
    <g id="Grupo_1177589" data-name="Grupo 1177589" transform="translate(0 0)">
      <g id="Grupo_1177587" data-name="Grupo 1177587" clip-path="url(#clip-path)">
        <path id="Trazado_997422" data-name="Trazado 997422" d="M122.774,56.654a58.848,58.848,0,0,0-13.293-30.623,6.768,6.768,0,0,0-9.523-9.118A58.761,58.761,0,0,0,69.535,5.027a6.769,6.769,0,0,0-13.148.267A58.842,58.842,0,0,0,27.2,17.772a6.771,6.771,0,0,0-9.4,9.462A58.794,58.794,0,0,0,5.483,56.6a6.774,6.774,0,0,0-.162,13.266A58.776,58.776,0,0,0,17.252,99.82a6.771,6.771,0,0,0,9.2,9.56,58.838,58.838,0,0,0,29.883,13.07,6.771,6.771,0,0,0,13.266.267,58.788,58.788,0,0,0,30.646-12.107,6.769,6.769,0,0,0,9.476-9.165A58.863,58.863,0,0,0,122.933,69.8a6.771,6.771,0,0,0-.159-13.144m-19.12-27.288a6.733,6.733,0,0,0,3.75-1.135,55.884,55.884,0,0,1,12.333,28.407,6.781,6.781,0,0,0-4.327,3.135L98.1,53.283c.013-.189.027-.382.027-.578a6.772,6.772,0,0,0-2.868-5.533l7.57-17.86a7.335,7.335,0,0,0,.821.054M100,28.288,92.472,46.03a6.7,6.7,0,0,0-7.459,4.307L53.705,43.125a6.588,6.588,0,0,0-.142-1.348L97.992,26.305a6.793,6.793,0,0,0,2,1.983M63,13.553a6.777,6.777,0,0,0,6.651-5.5A55.792,55.792,0,0,1,97.857,19.09a6.739,6.739,0,0,0-.98,3.5,7.114,7.114,0,0,0,.064.9L52.29,39.031A6.8,6.8,0,0,0,51.064,37.8L62.775,13.543c.074,0,.145.01.22.01M56.4,8.324a6.778,6.778,0,0,0,3.409,4.435L48.331,36.538a6.8,6.8,0,0,0-1.4-.145,6.727,6.727,0,0,0-3.861,1.213L29.461,26.238A6.736,6.736,0,0,0,29.231,20,55.836,55.836,0,0,1,56.4,8.324M13.387,61.776l28.15-14.519a6.751,6.751,0,0,0,5.341,2.686l9.648,30.839a6.887,6.887,0,0,0-1.493,1.652L13.3,65.046a6.731,6.731,0,0,0,.25-1.8,6.81,6.81,0,0,0-.166-1.473m6.648-32.521a6.771,6.771,0,0,0,7.564-.645L41.037,39.831a6.758,6.758,0,0,0-.747,4.682l-28.2,14.539A6.774,6.774,0,0,0,8.506,56.7,55.812,55.812,0,0,1,20.036,29.254m2.8,67.623a6.756,6.756,0,0,0-3.365.9A55.762,55.762,0,0,1,8.351,69.832a6.783,6.783,0,0,0,3.517-2.121L54.013,85.27a7.266,7.266,0,0,0-.054.814,6.775,6.775,0,0,0,.405,2.29L28.876,100.587a6.775,6.775,0,0,0-6.037-3.709m33.626,22.556a55.892,55.892,0,0,1-27.883-12.2,6.705,6.705,0,0,0,1.034-3.581l0-.078L56,90.929a6.776,6.776,0,0,0,2.392,1.51l1.581,22.725a6.776,6.776,0,0,0-3.51,4.27m2.807-39.96L49.831,49.287a6.786,6.786,0,0,0,3.219-3.219l31.562,7.266a6.736,6.736,0,0,0,1.078,3.081L64.042,80.173a6.692,6.692,0,0,0-4.77-.7M69.592,119.7a6.774,6.774,0,0,0-6.6-5.25l-.051,0-1.5-21.623a6.764,6.764,0,0,0,4.142-2.01l31.555,13.918c0,.061-.01.115-.01.176a6.743,6.743,0,0,0,1,3.534A55.789,55.789,0,0,1,69.592,119.7M97.9,101.779,67.164,88.22a6.736,6.736,0,0,0-.888-6.027L87.858,58.5a6.736,6.736,0,0,0,3.5.98,7.46,7.46,0,0,0,.831-.054l8.067,39.781a6.761,6.761,0,0,0-2.355,2.571m9.722-2.534a6.735,6.735,0,0,0-4.5-1.064l-8.07-39.8a6.8,6.8,0,0,0,2.135-2.23l17.3,6.486a6.009,6.009,0,0,0-.03.608,6.774,6.774,0,0,0,5.445,6.641A55.835,55.835,0,0,1,107.62,99.246" transform="translate(0 0.001)" fill="#1e535a"/>
      </g>
    </g>
  </g>
  <g id="Elipse_13614" data-name="Elipse 13614" transform="translate(24.938 24.697)" fill="#fff" stroke="#1e535a" stroke-width="3">
    <ellipse cx="39.732" cy="39.733" rx="39.732" ry="39.733" stroke="none"/>
    <ellipse cx="39.732" cy="39.733" rx="38.232" ry="38.233" fill="none"/>
  </g>
  <g id="Grupo_1213474" data-name="Grupo 1213474" transform="translate(24.508 129.44)">
    <g id="Grupo_1213473" data-name="Grupo 1213473" transform="translate(14.43 -83.743)" clip-path="url(#clip-path-2)">
      <path id="Trazado_1280046" data-name="Trazado 1280046" d="M51.43,76.007H0V45.993H51.43ZM26.477,60.734a11.8,11.8,0,1,0-11.8,11.8,11.8,11.8,0,0,0,11.8-11.8m21.48-7.054a.79.79,0,0,0,.672-.923.871.871,0,0,0-.845-.556l-18.444,0a.751.751,0,0,0-.834.785.832.832,0,0,0,.848.7Zm.029,3.905a.767.767,0,0,0-.078-1.526l-18.688,0a.765.765,0,0,0-.025,1.526Zm-.033,3.907c.524,0,.753-.636.68-.909a.851.851,0,0,0-.854-.59H29.342a.787.787,0,0,0-.838.81.819.819,0,0,0,.851.694Zm-.028,3.9a.757.757,0,1,0-.144-1.506H29.351a.761.761,0,0,0-.834.814.815.815,0,0,0,.824.693Zm-9.375,3.928a.766.766,0,0,0,.037-1.531l-9.318,0a.8.8,0,0,0-.763.842.877.877,0,0,0,.833.69Z" transform="translate(0 -39.202)" fill="#1e535a"/>
      <path id="Trazado_1280047" data-name="Trazado 1280047" d="M51.43,5.343H0V0H51.43ZM4.921,2.653a.748.748,0,1,0-.748.748.748.748,0,0,0,.748-.748m2.729,0a.759.759,0,1,0-.759.759.759.759,0,0,0,.759-.759m2.7,0A.747.747,0,1,0,9.6,3.4a.747.747,0,0,0,.747-.747m36.082.763a.81.81,0,0,0,.826-.662c.036-.236-.184-.818-.537-.818H13.272c-.409,0-.646.516-.609.807a.844.844,0,0,0,.752.674Z" transform="translate(0 -0.001)" fill="#1e535a"/>
      <path id="Trazado_1280048" data-name="Trazado 1280048" d="M83.341,122.247l-6.764,0,.255-3.216a35.471,35.471,0,0,0,6.234.014Z" transform="translate(-65.27 -101.457)" fill="#1e535a"/>
      <path id="Trazado_1280049" data-name="Trazado 1280049" d="M83.091,154.069c-2.14-.084-4.04-.082-6.244.014l-.251-3.148,6.752-.013Z" transform="translate(-65.286 -128.637)" fill="#1e535a"/>
      <path id="Trazado_1280050" data-name="Trazado 1280050" d="M35.235,116.586l-5.45,0A10.554,10.554,0,0,1,31,112.395c1.495.325,2.985.606,4.493.851-.121,1.06-.192,1.966-.257,3.34" transform="translate(-25.387 -95.799)" fill="#1e535a"/>
      <path id="Trazado_1280051" data-name="Trazado 1280051" d="M130.89,116.641l-.24-3.337c1.516-.248,2.945-.513,4.438-.855a10.164,10.164,0,0,1,1.236,4.181Z" transform="translate(-111.359 -95.844)" fill="#1e535a"/>
      <path id="Trazado_1280052" data-name="Trazado 1280052" d="M85.961,80.87a32.99,32.99,0,0,1-5.655,0c.344-1.8,1.481-4.863,2.787-4.9s2.47,2.945,2.868,4.9" transform="translate(-68.448 -64.753)" fill="#1e535a"/>
      <path id="Trazado_1280053" data-name="Trazado 1280053" d="M86,182.073c-.322,1.824-1.526,4.978-2.859,4.928-1.29-.049-2.475-3.165-2.778-4.916,1.983-.07,3.728-.072,5.636-.012" transform="translate(-68.497 -155.152)" fill="#1e535a"/>
      <path id="Trazado_1280054" data-name="Trazado 1280054" d="M35.513,154.278l-4.453.829a9.794,9.794,0,0,1-1.24-4.166l5.424.008Z" transform="translate(-25.418 -128.654)" fill="#1e535a"/>
      <path id="Trazado_1280055" data-name="Trazado 1280055" d="M135.081,155.106l-4.461-.822.238-3.318h5.435a10.2,10.2,0,0,1-1.212,4.141" transform="translate(-111.333 -128.674)" fill="#1e535a"/>
      <path id="Trazado_1280056" data-name="Trazado 1280056" d="M123.667,82.344a32.019,32.019,0,0,1-3.866.711,18.592,18.592,0,0,0-1.532-4.347,10.089,10.089,0,0,1,5.4,3.636" transform="translate(-100.806 -67.086)" fill="#1e535a"/>
      <path id="Trazado_1280057" data-name="Trazado 1280057" d="M48.05,82.988a22.16,22.16,0,0,1-3.893-.657A9.967,9.967,0,0,1,49.516,78.7a17.355,17.355,0,0,0-1.466,4.284" transform="translate(-37.637 -67.083)" fill="#1e535a"/>
      <path id="Trazado_1280058" data-name="Trazado 1280058" d="M123.62,184.1a10.231,10.231,0,0,1-5.411,3.7,17.853,17.853,0,0,0,1.532-4.39Z" transform="translate(-100.755 -156.323)" fill="#1e535a"/>
      <path id="Trazado_1280059" data-name="Trazado 1280059" d="M49.437,188a9.977,9.977,0,0,1-5.406-3.662c1.383-.28,2.626-.5,3.887-.666A17.347,17.347,0,0,0,49.437,188" transform="translate(-37.53 -156.555)" fill="#1e535a"/>
    </g>
  </g>
</svg>
