<svg id="Grupo_1212945" data-name="Grupo 1212945" xmlns="http://www.w3.org/2000/svg" xmlns:xlink="http://www.w3.org/1999/xlink" width="128" height="128" viewBox="0 0 128 128">
  <defs>
    <clipPath id="clip-path">
      <rect id="Rectángulo_454829" data-name="Rectángulo 454829" width="128" height="128" fill="#1e535a"/>
    </clipPath>
    <clipPath id="clip-path-2">
      <rect id="Rectángulo_463021" data-name="Rectángulo 463021" width="50" height="50" transform="translate(-0.333 -0.333)" fill="#1e535a"/>
    </clipPath>
  </defs>
  <g id="Grupo_1177591" data-name="Grupo 1177591">
    <g id="Grupo_1177589" data-name="Grupo 1177589" transform="translate(0 0)">
      <g id="Grupo_1177587" data-name="Grupo 1177587" clip-path="url(#clip-path)">
        <path id="Trazado_997422" data-name="Trazado 997422" d="M122.774,56.654a58.848,58.848,0,0,0-13.293-30.623,6.768,6.768,0,0,0-9.523-9.118A58.761,58.761,0,0,0,69.535,5.027a6.769,6.769,0,0,0-13.148.267A58.842,58.842,0,0,0,27.2,17.772a6.771,6.771,0,0,0-9.4,9.462A58.794,58.794,0,0,0,5.483,56.6a6.774,6.774,0,0,0-.162,13.266A58.776,58.776,0,0,0,17.252,99.82a6.771,6.771,0,0,0,9.2,9.56,58.838,58.838,0,0,0,29.883,13.07,6.771,6.771,0,0,0,13.266.267,58.788,58.788,0,0,0,30.646-12.107,6.769,6.769,0,0,0,9.476-9.165A58.863,58.863,0,0,0,122.933,69.8a6.771,6.771,0,0,0-.159-13.144m-19.12-27.288a6.733,6.733,0,0,0,3.75-1.135,55.884,55.884,0,0,1,12.333,28.407,6.781,6.781,0,0,0-4.327,3.135L98.1,53.283c.013-.189.027-.382.027-.578a6.772,6.772,0,0,0-2.868-5.533l7.57-17.86a7.335,7.335,0,0,0,.821.054M100,28.288,92.472,46.03a6.7,6.7,0,0,0-7.459,4.307L53.705,43.125a6.588,6.588,0,0,0-.142-1.348L97.992,26.305a6.793,6.793,0,0,0,2,1.983M63,13.553a6.777,6.777,0,0,0,6.651-5.5A55.792,55.792,0,0,1,97.857,19.09a6.739,6.739,0,0,0-.98,3.5,7.114,7.114,0,0,0,.064.9L52.29,39.031A6.8,6.8,0,0,0,51.064,37.8L62.775,13.543c.074,0,.145.01.22.01M56.4,8.324a6.778,6.778,0,0,0,3.409,4.435L48.331,36.538a6.8,6.8,0,0,0-1.4-.145,6.727,6.727,0,0,0-3.861,1.213L29.461,26.238A6.736,6.736,0,0,0,29.231,20,55.836,55.836,0,0,1,56.4,8.324M13.387,61.776l28.15-14.519a6.751,6.751,0,0,0,5.341,2.686l9.648,30.839a6.887,6.887,0,0,0-1.493,1.652L13.3,65.046a6.731,6.731,0,0,0,.25-1.8,6.81,6.81,0,0,0-.166-1.473m6.648-32.521a6.771,6.771,0,0,0,7.564-.645L41.037,39.831a6.758,6.758,0,0,0-.747,4.682l-28.2,14.539A6.774,6.774,0,0,0,8.506,56.7,55.812,55.812,0,0,1,20.036,29.254m2.8,67.623a6.756,6.756,0,0,0-3.365.9A55.762,55.762,0,0,1,8.351,69.832a6.783,6.783,0,0,0,3.517-2.121L54.013,85.27a7.266,7.266,0,0,0-.054.814,6.775,6.775,0,0,0,.405,2.29L28.876,100.587a6.775,6.775,0,0,0-6.037-3.709m33.626,22.556a55.892,55.892,0,0,1-27.883-12.2,6.705,6.705,0,0,0,1.034-3.581l0-.078L56,90.929a6.776,6.776,0,0,0,2.392,1.51l1.581,22.725a6.776,6.776,0,0,0-3.51,4.27m2.807-39.96L49.831,49.287a6.786,6.786,0,0,0,3.219-3.219l31.562,7.266a6.736,6.736,0,0,0,1.078,3.081L64.042,80.173a6.692,6.692,0,0,0-4.77-.7M69.592,119.7a6.774,6.774,0,0,0-6.6-5.25l-.051,0-1.5-21.623a6.764,6.764,0,0,0,4.142-2.01l31.555,13.918c0,.061-.01.115-.01.176a6.743,6.743,0,0,0,1,3.534A55.789,55.789,0,0,1,69.592,119.7M97.9,101.779,67.164,88.22a6.736,6.736,0,0,0-.888-6.027L87.858,58.5a6.736,6.736,0,0,0,3.5.98,7.46,7.46,0,0,0,.831-.054l8.067,39.781a6.761,6.761,0,0,0-2.355,2.571m9.722-2.534a6.735,6.735,0,0,0-4.5-1.064l-8.07-39.8a6.8,6.8,0,0,0,2.135-2.23l17.3,6.486a6.009,6.009,0,0,0-.03.608,6.774,6.774,0,0,0,5.445,6.641A55.835,55.835,0,0,1,107.62,99.246" transform="translate(0 0.001)" fill="#1e535a"/>
      </g>
    </g>
  </g>
  <g id="Elipse_13614" data-name="Elipse 13614" transform="translate(24.938 24.697)" fill="#fff" stroke="#1e535a" stroke-width="3">
    <ellipse cx="39.732" cy="39.733" rx="39.732" ry="39.733" stroke="none"/>
    <ellipse cx="39.732" cy="39.733" rx="38.232" ry="38.233" fill="none"/>
  </g>
  <g id="Grupo_1213479" data-name="Grupo 1213479" transform="translate(38.937 39.697)">
    <g id="Grupo_1213478" data-name="Grupo 1213478" transform="translate(0.333 0.333)" clip-path="url(#clip-path-2)">
      <path id="Trazado_1280062" data-name="Trazado 1280062" d="M50.2,25.1A25.1,25.1,0,1,1,25.1,0,25.1,25.1,0,0,1,50.2,25.1M30.828,37.9a2.144,2.144,0,0,0-1.759-2.367l-.432-1.377L38.7,34.135a2.3,2.3,0,0,0,2.227-2.274l0-18.7a2.35,2.35,0,0,0-2.4-2.412l-26.716,0a2.376,2.376,0,0,0-2.547,2.4l0,18.717a2.318,2.318,0,0,0,2.375,2.286l9.916.006-.43,1.38a2.15,2.15,0,0,0-1.749,2.465c.031.436-.048,1.228.466,1.446l10.606,0a2.505,2.505,0,0,0,.372-1.546" transform="translate(-0.433 -0.433)" fill="#1e535a"/>
      <path id="Trazado_1280063" data-name="Trazado 1280063" d="M103.436,105.444h-28.7V84.982h28.7ZM95.617,98.5a6.778,6.778,0,0,0-1.7-6.078l.7-.729a.8.8,0,0,0-.166-1,.888.888,0,0,0-1.1.208l-.621.576A6.682,6.682,0,0,0,82.562,98.53l-1.435.033a.762.762,0,0,0-.693.834.829.829,0,0,0,.83.671H96.9a.8.8,0,0,0,.837-.775.782.782,0,0,0-.694-.725Z" transform="translate(-64.417 -73.192)" fill="#1e535a"/>
      <path id="Trazado_1280064" data-name="Trazado 1280064" d="M153.419,258.579H145.1c-.116-.2.015-.913.231-.918h7.927c.263.043.38.828.162.92" transform="translate(-124.626 -221.034)" fill="#1e535a"/>
      <path id="Trazado_1280065" data-name="Trazado 1280065" d="M162.656,238.754l-4.8,0,.4-1.387,3.969-.011Z" transform="translate(-135.587 -203.652)" fill="#1e535a"/>
      <path id="Trazado_1280066" data-name="Trazado 1280066" d="M143.977,137.788l1.691-1.677c1.028.988.47,2.389,1.427,2.468a.727.727,0,0,0,.8-.781,4.34,4.34,0,0,0-1.155-2.734l.521-.574a5.137,5.137,0,0,1,1.231,5.067h-9.966a5.163,5.163,0,0,1,1.7-5.519,5.257,5.257,0,0,1,5.862-.488l-.541.622a4.291,4.291,0,0,0-4.235.078c-2.108,1.2-2.732,4.023-1.69,4.295,1.348.352.55-1.642,2.062-2.768a2.92,2.92,0,0,1,2.711-.485l-1.592,1.626c-.2.2-.075.764.173.958a.8.8,0,0,0,1-.087" transform="translate(-118.84 -114.203)" fill="#1e535a"/>
    </g>
  </g>
</svg>
