<svg xmlns="http://www.w3.org/2000/svg" xmlns:xlink="http://www.w3.org/1999/xlink" width="187.711" height="109.937" viewBox="0 0 187.711 109.937">
  <defs>
    <clipPath id="clip-path">
      <rect id="Rectángulo_463017" data-name="Rectángulo 463017" width="113.567" height="99.468" fill="none"/>
    </clipPath>
  </defs>
  <g id="Grupo_1213532" data-name="Grupo 1213532" transform="translate(-289.711 -5349)">
    <g id="Grupo_1211938" data-name="Grupo 1211938" transform="translate(0.434 -3519.039)">
      <g id="Grupo_1204518" data-name="Grupo 1204518" transform="translate(289.277 8868.039)">
        <rect id="Rectángulo_455283" data-name="Rectángulo 455283" width="187.711" height="109.937" rx="19" fill="#9ed1ff"/>
      </g>
    </g>
    <g id="Grupo_1213470" data-name="Grupo 1213470" transform="translate(326.711 5354)">
      <g id="Grupo_1213469" data-name="Grupo 1213469" clip-path="url(#clip-path)">
        <path id="Trazado_1279900" data-name="Trazado 1279900" d="M74.34,100.989a48.322,48.322,0,1,1,48.321-48.324A48.379,48.379,0,0,1,74.34,100.989m0-92.779a44.455,44.455,0,1,0,44.454,44.456A44.509,44.509,0,0,0,74.34,8.21" transform="translate(-17.556 -2.931)" fill="#b8c7d8"/>
        <path id="Trazado_1279901" data-name="Trazado 1279901" d="M130.539,10.571a44.268,44.268,0,0,1,28.526,0,4.727,4.727,0,0,0,.095-.942v-3.1a48.4,48.4,0,0,0-28.717,0V9.629a4.633,4.633,0,0,0,.1.942" transform="translate(-88.017 -2.931)" fill="#788d9b"/>
        <path id="Trazado_1279902" data-name="Trazado 1279902" d="M159.065,282.334a44.294,44.294,0,0,1-28.526,0,4.611,4.611,0,0,0-.1.942v3.1a48.379,48.379,0,0,0,28.717,0v-3.1a4.757,4.757,0,0,0-.095-.945" transform="translate(-88.017 -190.505)" fill="#788d9b"/>
        <path id="Trazado_1279903" data-name="Trazado 1279903" d="M238.74,243.951a4.627,4.627,0,0,0,1.752.347h5.042a48.643,48.643,0,0,0,13.695-14.618h-4.594a44.762,44.762,0,0,1-15.895,14.271" transform="translate(-161.09 -154.977)" fill="#788d9b"/>
        <path id="Trazado_1279904" data-name="Trazado 1279904" d="M67.925,243.951A44.758,44.758,0,0,1,52.031,229.68h-4.6A48.684,48.684,0,0,0,61.131,244.3h5.043a4.617,4.617,0,0,0,1.75-.347" transform="translate(-32.008 -154.977)" fill="#788d9b"/>
        <path id="Trazado_1279905" data-name="Trazado 1279905" d="M67.148,32.419a4.693,4.693,0,0,0-1.4-.238H60.3A48.716,48.716,0,0,0,46.875,46.8H51.44a44.793,44.793,0,0,1,15.708-14.38" transform="translate(-31.629 -21.714)" fill="#788d9b"/>
        <path id="Trazado_1279906" data-name="Trazado 1279906" d="M239.972,32.419A44.8,44.8,0,0,1,255.679,46.8h4.564a48.694,48.694,0,0,0-13.428-14.618h-5.439a4.681,4.681,0,0,0-1.4.238" transform="translate(-161.922 -21.714)" fill="#788d9b"/>
        <path id="Trazado_1279907" data-name="Trazado 1279907" d="M313.314,130.442H309.39a44.083,44.083,0,0,1,0,14.618h3.924a48.587,48.587,0,0,0,0-14.618" transform="translate(-208.762 -88.016)" fill="#788d9b"/>
        <path id="Trazado_1279908" data-name="Trazado 1279908" d="M29.882,137.75a44.59,44.59,0,0,1,.613-7.308H26.571a48.589,48.589,0,0,0,0,14.619H30.5a44.652,44.652,0,0,1-.613-7.311" transform="translate(-17.556 -88.016)" fill="#788d9b"/>
        <path id="Trazado_1279909" data-name="Trazado 1279909" d="M77.012,102.373a47.034,47.034,0,1,1,47.033-47.036,47.088,47.088,0,0,1-47.033,47.036m0-92.779a45.745,45.745,0,1,0,45.745,45.744A45.795,45.795,0,0,0,77.012,9.594" transform="translate(-20.228 -5.603)" fill="#f99b1d"/>
        <path id="Trazado_1279910" data-name="Trazado 1279910" d="M144.8,9.594a45.563,45.563,0,0,1,14.358,2.322v-1.36a46.906,46.906,0,0,0-28.717,0v1.36A45.447,45.447,0,0,1,144.8,9.594" transform="translate(-88.017 -5.603)" fill="#db881a"/>
        <path id="Trazado_1279911" data-name="Trazado 1279911" d="M144.8,288.744a45.53,45.53,0,0,1-14.358-2.322v1.36a46.905,46.905,0,0,0,28.717,0v-1.36a45.563,45.563,0,0,1-14.358,2.322" transform="translate(-88.017 -193.264)" fill="#db881a"/>
        <path id="Trazado_1279912" data-name="Trazado 1279912" d="M244.925,244.3h2.468a47.4,47.4,0,0,0,14.485-14.618h-1.531A46.121,46.121,0,0,1,244.925,244.3" transform="translate(-165.264 -154.977)" fill="#db881a"/>
        <path id="Trazado_1279913" data-name="Trazado 1279913" d="M53.662,229.68H52.134A47.279,47.279,0,0,0,66.614,244.3H69.08A46.063,46.063,0,0,1,53.662,229.68" transform="translate(-35.178 -154.977)" fill="#db881a"/>
        <path id="Trazado_1279914" data-name="Trazado 1279914" d="M68.1,32.181H65.689A47.4,47.4,0,0,0,51.5,46.8h1.531A46.079,46.079,0,0,1,68.1,32.181" transform="translate(-34.748 -21.714)" fill="#db881a"/>
        <path id="Trazado_1279915" data-name="Trazado 1279915" d="M261.7,46.8h1.529a47.406,47.406,0,0,0-14.191-14.618h-2.412A46.089,46.089,0,0,1,261.7,46.8" transform="translate(-166.411 -21.715)" fill="#db881a"/>
        <path id="Trazado_1279916" data-name="Trazado 1279916" d="M314.009,137.75a46.173,46.173,0,0,1-.592,7.311h1.3a46.8,46.8,0,0,0,0-14.619h-1.3a46.166,46.166,0,0,1,.592,7.308" transform="translate(-211.479 -88.016)" fill="#db881a"/>
        <path id="Trazado_1279917" data-name="Trazado 1279917" d="M31.266,137.75a45.3,45.3,0,0,1,.595-7.308H30.548a47.137,47.137,0,0,0,0,14.619h1.312a45.309,45.309,0,0,1-.595-7.311" transform="translate(-20.228 -88.016)" fill="#db881a"/>
        <path id="Trazado_1279918" data-name="Trazado 1279918" d="M161.137,0H141.82a1.482,1.482,0,0,0-1.479,1.482V6.7a1.482,1.482,0,0,0,1.479,1.481h19.317a1.482,1.482,0,0,0,1.48-1.481V1.482A1.482,1.482,0,0,0,161.137,0" transform="translate(-94.695)" fill="#f2d98c"/>
        <path id="Trazado_1279919" data-name="Trazado 1279919" d="M161.137,20.089H141.82a1.4,1.4,0,0,1-1.479-1.3v.586a1.482,1.482,0,0,0,1.479,1.481h19.317a1.482,1.482,0,0,0,1.48-1.481v-.586a1.4,1.4,0,0,1-1.48,1.3" transform="translate(-94.695 -12.679)" fill="#dba819"/>
        <path id="Trazado_1279920" data-name="Trazado 1279920" d="M149.054,10.531a.919.919,0,1,1,.918-.92.922.922,0,0,1-.918.92m0-1.333a.414.414,0,1,0,.412.412.416.416,0,0,0-.412-.412" transform="translate(-99.954 -5.866)" fill="#fff"/>
        <path id="Trazado_1279921" data-name="Trazado 1279921" d="M149.582,10.8a.666.666,0,1,1,.663-.666.667.667,0,0,1-.663.666" transform="translate(-100.481 -6.387)" fill="#14b0bf"/>
        <path id="Trazado_1279922" data-name="Trazado 1279922" d="M169.812,10.528a.918.918,0,1,1,.918-.918.917.917,0,0,1-.918.918m0-1.33a.412.412,0,1,0,.415.412.413.413,0,0,0-.415-.412" transform="translate(-113.962 -5.866)" fill="#fff"/>
        <path id="Trazado_1279923" data-name="Trazado 1279923" d="M170.333,10.8a.666.666,0,1,1,.666-.666.667.667,0,0,1-.666.666" transform="translate(-114.483 -6.387)" fill="#14b0bf"/>
        <path id="Trazado_1279924" data-name="Trazado 1279924" d="M159.429,10.532a.919.919,0,1,1,.918-.921.922.922,0,0,1-.918.921m0-1.336a.414.414,0,1,0,0,.827.414.414,0,0,0,0-.827" transform="translate(-106.954 -5.866)" fill="#fff"/>
        <path id="Trazado_1279925" data-name="Trazado 1279925" d="M159.957,10.8a.666.666,0,1,1,.666-.666.667.667,0,0,1-.666.666" transform="translate(-107.482 -6.387)" fill="#f99b1d"/>
        <path id="Trazado_1279926" data-name="Trazado 1279926" d="M180.18,10.528a.918.918,0,1,1,.918-.918.922.922,0,0,1-.918.918m0-1.33a.412.412,0,1,0,.415.412.413.413,0,0,0-.415-.412" transform="translate(-120.956 -5.866)" fill="#fff"/>
        <path id="Trazado_1279927" data-name="Trazado 1279927" d="M180.707,10.8a.666.666,0,1,1,.666-.666.667.667,0,0,1-.666.666" transform="translate(-121.483 -6.387)" fill="#f2d98c"/>
        <rect id="Rectángulo_462995" data-name="Rectángulo 462995" width="2.258" height="0.926" transform="translate(62.81 4.784)" fill="#dba819"/>
        <rect id="Rectángulo_462996" data-name="Rectángulo 462996" width="2.258" height="2.256" transform="translate(62.81 2.054)" fill="#b8c7d8"/>
        <path id="Trazado_1279928" data-name="Trazado 1279928" d="M161.137,280.687H141.82a1.481,1.481,0,0,0-1.479,1.481v5.218a1.479,1.479,0,0,0,1.479,1.476h19.317a1.479,1.479,0,0,0,1.48-1.476v-5.218a1.481,1.481,0,0,0-1.48-1.481" transform="translate(-94.695 -189.394)" fill="#f2d98c"/>
        <path id="Trazado_1279929" data-name="Trazado 1279929" d="M161.137,300.779H141.82a1.4,1.4,0,0,1-1.479-1.3v.586a1.478,1.478,0,0,0,1.479,1.476h19.317a1.478,1.478,0,0,0,1.48-1.476v-.586a1.4,1.4,0,0,1-1.48,1.3" transform="translate(-94.695 -202.076)" fill="#dba819"/>
        <path id="Trazado_1279930" data-name="Trazado 1279930" d="M149.054,291.21a.919.919,0,1,1,.918-.918.92.92,0,0,1-.918.918m0-1.33a.413.413,0,1,0,.412.412.414.414,0,0,0-.412-.412" transform="translate(-99.954 -195.254)" fill="#fff"/>
        <path id="Trazado_1279931" data-name="Trazado 1279931" d="M149.582,291.483a.665.665,0,1,1,.663-.664.664.664,0,0,1-.663.664" transform="translate(-100.481 -195.781)" fill="#14b0bf"/>
        <path id="Trazado_1279932" data-name="Trazado 1279932" d="M169.812,291.216a.918.918,0,1,1,.918-.918.917.917,0,0,1-.918.918m0-1.33a.413.413,0,0,0,0,.826.413.413,0,1,0,0-.826" transform="translate(-113.962 -195.26)" fill="#fff"/>
        <path id="Trazado_1279933" data-name="Trazado 1279933" d="M170.333,291.483a.665.665,0,1,1,.666-.664.664.664,0,0,1-.666.664" transform="translate(-114.483 -195.781)" fill="#14b0bf"/>
        <path id="Trazado_1279934" data-name="Trazado 1279934" d="M159.429,291.21a.919.919,0,1,1,.918-.918.92.92,0,0,1-.918.918m0-1.333a.414.414,0,1,0,.412.415.416.416,0,0,0-.412-.415" transform="translate(-106.954 -195.254)" fill="#fff"/>
        <path id="Trazado_1279935" data-name="Trazado 1279935" d="M159.957,291.483a.665.665,0,1,1,.666-.664.664.664,0,0,1-.666.664" transform="translate(-107.482 -195.781)" fill="#f99b1d"/>
        <path id="Trazado_1279936" data-name="Trazado 1279936" d="M180.18,291.216a.918.918,0,1,1,.918-.918.922.922,0,0,1-.918.918m0-1.33a.413.413,0,1,0,.415.412.411.411,0,0,0-.415-.412" transform="translate(-120.956 -195.26)" fill="#fff"/>
        <path id="Trazado_1279937" data-name="Trazado 1279937" d="M180.707,291.483a.665.665,0,1,1,.666-.664.665.665,0,0,1-.666.664" transform="translate(-121.483 -195.781)" fill="#f2d98c"/>
        <rect id="Rectángulo_462997" data-name="Rectángulo 462997" width="2.258" height="0.926" transform="translate(62.81 96.079)" fill="#dba819"/>
        <rect id="Rectángulo_462998" data-name="Rectángulo 462998" width="2.258" height="2.258" transform="translate(62.81 93.346)" fill="#b8c7d8"/>
        <path id="Trazado_1279938" data-name="Trazado 1279938" d="M260.366,239.583H241.052a1.484,1.484,0,0,0-1.482,1.481v5.215a1.481,1.481,0,0,0,1.482,1.479h19.314a1.479,1.479,0,0,0,1.482-1.479v-5.215a1.482,1.482,0,0,0-1.482-1.481" transform="translate(-161.65 -161.659)" fill="#f2d98c"/>
        <path id="Trazado_1279939" data-name="Trazado 1279939" d="M260.366,259.675H241.052a1.4,1.4,0,0,1-1.482-1.3v.583a1.481,1.481,0,0,0,1.482,1.479h19.314a1.479,1.479,0,0,0,1.482-1.479v-.583a1.4,1.4,0,0,1-1.482,1.3" transform="translate(-161.65 -174.341)" fill="#dba819"/>
        <path id="Trazado_1279940" data-name="Trazado 1279940" d="M248.292,250.1a.919.919,0,1,1,.918-.918.92.92,0,0,1-.918.918m0-1.33a.413.413,0,1,0,.412.412.415.415,0,0,0-.412-.412" transform="translate(-166.915 -167.519)" fill="#fff"/>
        <path id="Trazado_1279941" data-name="Trazado 1279941" d="M248.82,250.379a.665.665,0,1,1,.666-.663.664.664,0,0,1-.666.663" transform="translate(-167.442 -168.046)" fill="#14b0bf"/>
        <path id="Trazado_1279942" data-name="Trazado 1279942" d="M269.042,250.111a.918.918,0,1,1,.918-.918.92.92,0,0,1-.918.918m0-1.33a.413.413,0,1,0,.412.412.414.414,0,0,0-.412-.412" transform="translate(-180.916 -167.525)" fill="#fff"/>
        <path id="Trazado_1279943" data-name="Trazado 1279943" d="M269.57,250.379a.665.665,0,1,1,.666-.663.664.664,0,0,1-.666.663" transform="translate(-181.443 -168.046)" fill="#14b0bf"/>
        <path id="Trazado_1279944" data-name="Trazado 1279944" d="M258.667,250.1a.919.919,0,1,1,.918-.918.92.92,0,0,1-.918.918m0-1.333a.414.414,0,1,0,.412.415.417.417,0,0,0-.412-.415" transform="translate(-173.915 -167.519)" fill="#fff"/>
        <path id="Trazado_1279945" data-name="Trazado 1279945" d="M259.189,250.379a.665.665,0,1,1,.666-.663.665.665,0,0,1-.666.663" transform="translate(-174.437 -168.046)" fill="#f99b1d"/>
        <path id="Trazado_1279946" data-name="Trazado 1279946" d="M279.424,250.111a.918.918,0,1,1,.918-.918.918.918,0,0,1-.918.918m0-1.33a.413.413,0,1,0,.412.412.413.413,0,0,0-.412-.412" transform="translate(-187.922 -167.525)" fill="#fff"/>
        <path id="Trazado_1279947" data-name="Trazado 1279947" d="M279.943,250.379a.665.665,0,1,1,.666-.663.666.666,0,0,1-.666.663" transform="translate(-188.441 -168.046)" fill="#f2d98c"/>
        <rect id="Rectángulo_462999" data-name="Rectángulo 462999" width="2.258" height="0.929" transform="translate(95.087 82.707)" fill="#dba819"/>
        <rect id="Rectángulo_463000" data-name="Rectángulo 463000" width="2.258" height="2.257" transform="translate(95.087 79.978)" fill="#b8c7d8"/>
        <path id="Trazado_1279948" data-name="Trazado 1279948" d="M61.9,239.583H42.585a1.482,1.482,0,0,0-1.481,1.481v5.215a1.479,1.479,0,0,0,1.481,1.479H61.9a1.479,1.479,0,0,0,1.479-1.479v-5.215a1.482,1.482,0,0,0-1.479-1.481" transform="translate(-27.735 -161.659)" fill="#f2d98c"/>
        <path id="Trazado_1279949" data-name="Trazado 1279949" d="M61.9,259.675H42.585a1.4,1.4,0,0,1-1.481-1.3v.583a1.479,1.479,0,0,0,1.481,1.479H61.9a1.479,1.479,0,0,0,1.479-1.479v-.583a1.4,1.4,0,0,1-1.479,1.3" transform="translate(-27.735 -174.341)" fill="#dba819"/>
        <path id="Trazado_1279950" data-name="Trazado 1279950" d="M49.817,250.1a.919.919,0,1,1,.918-.918.923.923,0,0,1-.918.918m0-1.33a.413.413,0,1,0,.414.412.414.414,0,0,0-.414-.412" transform="translate(-32.993 -167.519)" fill="#fff"/>
        <path id="Trazado_1279951" data-name="Trazado 1279951" d="M50.345,250.379a.665.665,0,1,1,.664-.663.664.664,0,0,1-.664.663" transform="translate(-33.521 -168.046)" fill="#14b0bf"/>
        <path id="Trazado_1279952" data-name="Trazado 1279952" d="M70.574,250.111a.918.918,0,1,1,.915-.918.918.918,0,0,1-.915.918m0-1.33a.413.413,0,1,0,.412.412.411.411,0,0,0-.412-.412" transform="translate(-47.001 -167.525)" fill="#fff"/>
        <path id="Trazado_1279953" data-name="Trazado 1279953" d="M71.1,250.379a.665.665,0,1,1,.663-.663.665.665,0,0,1-.663.663" transform="translate(-47.522 -168.046)" fill="#14b0bf"/>
        <path id="Trazado_1279954" data-name="Trazado 1279954" d="M60.192,250.1a.919.919,0,1,1,.918-.918.92.92,0,0,1-.918.918m0-1.333a.414.414,0,1,0,.414.415.416.416,0,0,0-.414-.415" transform="translate(-39.994 -167.519)" fill="#fff"/>
        <path id="Trazado_1279955" data-name="Trazado 1279955" d="M60.719,250.379a.665.665,0,1,1,.664-.663.665.665,0,0,1-.664.663" transform="translate(-40.521 -168.046)" fill="#f99b1d"/>
        <path id="Trazado_1279956" data-name="Trazado 1279956" d="M80.95,250.111a.918.918,0,1,1,.918-.918.919.919,0,0,1-.918.918m0-1.33a.413.413,0,1,0,.412.412.413.413,0,0,0-.412-.412" transform="translate(-54.002 -167.525)" fill="#fff"/>
        <path id="Trazado_1279957" data-name="Trazado 1279957" d="M81.477,250.379a.665.665,0,1,1,.663-.663.662.662,0,0,1-.663.663" transform="translate(-54.529 -168.046)" fill="#f2d98c"/>
        <rect id="Rectángulo_463001" data-name="Rectángulo 463001" width="2.253" height="0.929" transform="translate(30.535 82.707)" fill="#dba819"/>
        <rect id="Rectángulo_463002" data-name="Rectángulo 463002" width="2.253" height="2.257" transform="translate(30.535 79.978)" fill="#b8c7d8"/>
        <path id="Trazado_1279958" data-name="Trazado 1279958" d="M61.746,42.089H42.432a1.481,1.481,0,0,0-1.482,1.479v5.216a1.48,1.48,0,0,0,1.482,1.479H61.746a1.483,1.483,0,0,0,1.483-1.479V43.568a1.484,1.484,0,0,0-1.483-1.479" transform="translate(-27.631 -28.4)" fill="#f2d98c"/>
        <path id="Trazado_1279959" data-name="Trazado 1279959" d="M61.746,62.173H42.432a1.4,1.4,0,0,1-1.482-1.294v.583a1.479,1.479,0,0,0,1.482,1.479H61.746a1.482,1.482,0,0,0,1.483-1.479v-.583a1.4,1.4,0,0,1-1.483,1.294" transform="translate(-27.631 -41.078)" fill="#dba819"/>
        <path id="Trazado_1279960" data-name="Trazado 1279960" d="M49.661,52.607a.919.919,0,1,1,.918-.92.92.92,0,0,1-.918.92m0-1.33a.413.413,0,1,0,.415.409.411.411,0,0,0-.415-.409" transform="translate(-32.889 -34.256)" fill="#fff"/>
        <path id="Trazado_1279961" data-name="Trazado 1279961" d="M50.188,52.881a.666.666,0,1,1,.666-.668.665.665,0,0,1-.666.668" transform="translate(-33.416 -34.783)" fill="#14b0bf"/>
        <path id="Trazado_1279962" data-name="Trazado 1279962" d="M70.42,52.607a.919.919,0,1,1,.918-.92.92.92,0,0,1-.918.92m0-1.33a.413.413,0,1,0,.412.409.412.412,0,0,0-.412-.409" transform="translate(-46.897 -34.256)" fill="#fff"/>
        <path id="Trazado_1279963" data-name="Trazado 1279963" d="M70.94,52.881a.666.666,0,1,1,.663-.668.666.666,0,0,1-.663.668" transform="translate(-47.418 -34.783)" fill="#14b0bf"/>
        <path id="Trazado_1279964" data-name="Trazado 1279964" d="M60.044,52.606a.919.919,0,1,1,.918-.92.92.92,0,0,1-.918.92m0-1.333a.414.414,0,1,0,.412.412.411.411,0,0,0-.412-.412" transform="translate(-39.895 -34.256)" fill="#fff"/>
        <path id="Trazado_1279965" data-name="Trazado 1279965" d="M60.565,52.881a.666.666,0,1,1,.663-.668.666.666,0,0,1-.663.668" transform="translate(-40.417 -34.783)" fill="#f99b1d"/>
        <path id="Trazado_1279966" data-name="Trazado 1279966" d="M80.789,52.607a.919.919,0,1,1,.918-.92.923.923,0,0,1-.918.92m0-1.33a.413.413,0,1,0,.412.409.41.41,0,0,0-.412-.409" transform="translate(-53.891 -34.256)" fill="#fff"/>
        <path id="Trazado_1279967" data-name="Trazado 1279967" d="M81.314,52.881a.666.666,0,1,1,.666-.668.666.666,0,0,1-.666.668" transform="translate(-54.416 -34.783)" fill="#f2d98c"/>
        <rect id="Rectángulo_463003" data-name="Rectángulo 463003" width="2.255" height="0.929" transform="translate(30.483 18.471)" fill="#dba819"/>
        <rect id="Rectángulo_463004" data-name="Rectángulo 463004" width="2.255" height="2.257" transform="translate(30.483 15.741)" fill="#b8c7d8"/>
        <path id="Trazado_1279968" data-name="Trazado 1279968" d="M260.529,42.089H241.214a1.481,1.481,0,0,0-1.481,1.479v5.216a1.479,1.479,0,0,0,1.481,1.479h19.316a1.479,1.479,0,0,0,1.481-1.479V43.568a1.481,1.481,0,0,0-1.481-1.479" transform="translate(-161.76 -28.4)" fill="#f2d98c"/>
        <path id="Trazado_1279969" data-name="Trazado 1279969" d="M260.529,62.173H241.214a1.4,1.4,0,0,1-1.481-1.294v.583a1.479,1.479,0,0,0,1.481,1.479h19.316a1.479,1.479,0,0,0,1.481-1.479v-.583a1.4,1.4,0,0,1-1.481,1.294" transform="translate(-161.76 -41.078)" fill="#dba819"/>
        <path id="Trazado_1279970" data-name="Trazado 1279970" d="M248.444,52.607a.919.919,0,1,1,.92-.92.921.921,0,0,1-.92.92m0-1.33a.413.413,0,1,0,.412.409.411.411,0,0,0-.412-.409" transform="translate(-167.019 -34.256)" fill="#fff"/>
        <path id="Trazado_1279971" data-name="Trazado 1279971" d="M248.971,52.881a.666.666,0,1,1,.666-.668.663.663,0,0,1-.666.668" transform="translate(-167.546 -34.783)" fill="#14b0bf"/>
        <path id="Trazado_1279972" data-name="Trazado 1279972" d="M269.2,52.607a.919.919,0,1,1,.918-.92.92.92,0,0,1-.918.92m0-1.33a.413.413,0,1,0,.412.409.412.412,0,0,0-.412-.409" transform="translate(-181.02 -34.256)" fill="#fff"/>
        <path id="Trazado_1279973" data-name="Trazado 1279973" d="M269.719,52.881a.666.666,0,1,1,.666-.668.668.668,0,0,1-.666.668" transform="translate(-181.542 -34.783)" fill="#14b0bf"/>
        <path id="Trazado_1279974" data-name="Trazado 1279974" d="M258.819,52.606a.919.919,0,1,1,.92-.92.92.92,0,0,1-.92.92m0-1.333a.414.414,0,1,0,.412.412.413.413,0,0,0-.412-.412" transform="translate(-174.019 -34.256)" fill="#fff"/>
        <path id="Trazado_1279975" data-name="Trazado 1279975" d="M259.346,52.881a.666.666,0,1,1,.669-.668.663.663,0,0,1-.669.668" transform="translate(-174.547 -34.783)" fill="#f99b1d"/>
        <path id="Trazado_1279976" data-name="Trazado 1279976" d="M279.572,52.607a.919.919,0,1,1,.918-.92.92.92,0,0,1-.918.92m0-1.33a.413.413,0,0,0,0,.826.413.413,0,1,0,0-.826" transform="translate(-188.021 -34.256)" fill="#fff"/>
        <path id="Trazado_1279977" data-name="Trazado 1279977" d="M280.1,52.881a.666.666,0,1,1,.666-.668.665.665,0,0,1-.666.668" transform="translate(-188.549 -34.783)" fill="#f2d98c"/>
        <rect id="Rectángulo_463005" data-name="Rectángulo 463005" width="2.257" height="0.929" transform="translate(95.134 18.471)" fill="#dba819"/>
        <rect id="Rectángulo_463006" data-name="Rectángulo 463006" width="2.257" height="2.257" transform="translate(95.134 15.741)" fill="#b8c7d8"/>
        <path id="Trazado_1279978" data-name="Trazado 1279978" d="M301.479,140.35H282.162a1.479,1.479,0,0,0-1.479,1.479v5.215a1.479,1.479,0,0,0,1.479,1.479h19.317a1.479,1.479,0,0,0,1.479-1.479v-5.215a1.479,1.479,0,0,0-1.479-1.479" transform="translate(-189.391 -94.701)" fill="#f2d98c"/>
        <path id="Trazado_1279979" data-name="Trazado 1279979" d="M301.479,160.429H282.162a1.4,1.4,0,0,1-1.479-1.3v.586a1.479,1.479,0,0,0,1.479,1.479h19.317a1.479,1.479,0,0,0,1.479-1.479v-.586a1.4,1.4,0,0,1-1.479,1.3" transform="translate(-189.391 -107.375)" fill="#dba819"/>
        <path id="Trazado_1279980" data-name="Trazado 1279980" d="M289.4,150.872a.919.919,0,1,1,.918-.92.921.921,0,0,1-.918.92m0-1.334a.414.414,0,1,0,.412.414.412.412,0,0,0-.412-.414" transform="translate(-194.656 -100.561)" fill="#fff"/>
        <path id="Trazado_1279981" data-name="Trazado 1279981" d="M289.924,151.137a.667.667,0,1,1,.664-.666.667.667,0,0,1-.664.666" transform="translate(-195.177 -101.08)" fill="#14b0bf"/>
        <path id="Trazado_1279982" data-name="Trazado 1279982" d="M310.153,150.869a.918.918,0,1,1,.918-.918.92.92,0,0,1-.918.918m0-1.331a.413.413,0,1,0,.412.414.412.412,0,0,0-.412-.414" transform="translate(-208.657 -100.561)" fill="#fff"/>
        <path id="Trazado_1279983" data-name="Trazado 1279983" d="M310.674,151.137a.667.667,0,1,1,.666-.666.667.667,0,0,1-.666.666" transform="translate(-209.179 -101.08)" fill="#14b0bf"/>
        <path id="Trazado_1279984" data-name="Trazado 1279984" d="M299.771,150.872a.919.919,0,1,1,.918-.92.921.921,0,0,1-.918.92m0-1.334a.413.413,0,1,0,.412.414.413.413,0,0,0-.412-.414" transform="translate(-201.65 -100.561)" fill="#fff"/>
        <path id="Trazado_1279985" data-name="Trazado 1279985" d="M300.3,151.137a.667.667,0,1,1,.663-.666.667.667,0,0,1-.663.666" transform="translate(-202.178 -101.08)" fill="#f99b1d"/>
        <path id="Trazado_1279986" data-name="Trazado 1279986" d="M320.519,150.869a.918.918,0,1,1,.918-.918.924.924,0,0,1-.918.918m0-1.331a.413.413,0,1,0,.415.414.414.414,0,0,0-.415-.414" transform="translate(-215.649 -100.561)" fill="#fff"/>
        <path id="Trazado_1279987" data-name="Trazado 1279987" d="M321.053,151.137a.667.667,0,1,1,.666-.666.665.665,0,0,1-.666.666" transform="translate(-216.182 -101.08)" fill="#f2d98c"/>
        <rect id="Rectángulo_463007" data-name="Rectángulo 463007" width="2.255" height="0.929" transform="translate(108.456 50.431)" fill="#dba819"/>
        <rect id="Rectángulo_463008" data-name="Rectángulo 463008" width="2.255" height="2.256" transform="translate(108.456 47.702)" fill="#b8c7d8"/>
        <path id="Trazado_1279988" data-name="Trazado 1279988" d="M20.793,140.35H1.481A1.479,1.479,0,0,0,0,141.829v5.215a1.479,1.479,0,0,0,1.481,1.479H20.793a1.48,1.48,0,0,0,1.483-1.479v-5.215a1.48,1.48,0,0,0-1.483-1.479" transform="translate(0 -94.701)" fill="#f2d98c"/>
        <path id="Trazado_1279989" data-name="Trazado 1279989" d="M20.793,160.429H1.481A1.4,1.4,0,0,1,0,159.132v.586A1.479,1.479,0,0,0,1.481,161.2H20.793a1.48,1.48,0,0,0,1.483-1.479v-.586a1.4,1.4,0,0,1-1.483,1.3" transform="translate(0 -107.375)" fill="#dba819"/>
        <path id="Trazado_1279990" data-name="Trazado 1279990" d="M8.71,150.872a.919.919,0,1,1,.918-.92.922.922,0,0,1-.918.92m0-1.334a.414.414,0,1,0,.413.414.413.413,0,0,0-.413-.414" transform="translate(-5.258 -100.561)" fill="#fff"/>
        <path id="Trazado_1279991" data-name="Trazado 1279991" d="M9.231,151.137a.667.667,0,1,1,.666-.666.667.667,0,0,1-.666.666" transform="translate(-5.779 -101.08)" fill="#14b0bf"/>
        <path id="Trazado_1279992" data-name="Trazado 1279992" d="M29.462,150.869a.918.918,0,1,1,.92-.918.92.92,0,0,1-.92.918m0-1.331a.413.413,0,1,0,.415.414.413.413,0,0,0-.415-.414" transform="translate(-19.26 -100.561)" fill="#fff"/>
        <path id="Trazado_1279993" data-name="Trazado 1279993" d="M29.983,151.137a.667.667,0,1,1,.669-.666.668.668,0,0,1-.669.666" transform="translate(-19.782 -101.08)" fill="#14b0bf"/>
        <path id="Trazado_1279994" data-name="Trazado 1279994" d="M19.086,150.872a.919.919,0,1,1,.92-.92.921.921,0,0,1-.92.92m0-1.334a.413.413,0,0,0,0,.826.413.413,0,0,0,0-.826" transform="translate(-12.259 -100.561)" fill="#fff"/>
        <path id="Trazado_1279995" data-name="Trazado 1279995" d="M19.607,151.137a.667.667,0,1,1,.666-.666.667.667,0,0,1-.666.666" transform="translate(-12.78 -101.08)" fill="#f99b1d"/>
        <path id="Trazado_1279996" data-name="Trazado 1279996" d="M39.839,150.869a.918.918,0,1,1,.918-.918.923.923,0,0,1-.918.918m0-1.331a.413.413,0,1,0,.412.414.414.414,0,0,0-.412-.414" transform="translate(-26.261 -100.561)" fill="#fff"/>
        <path id="Trazado_1279997" data-name="Trazado 1279997" d="M40.367,151.137a.667.667,0,1,1,.666-.666.667.667,0,0,1-.666.666" transform="translate(-26.788 -101.08)" fill="#f2d98c"/>
        <rect id="Rectángulo_463009" data-name="Rectángulo 463009" width="2.256" height="0.929" transform="translate(17.163 50.431)" fill="#dba819"/>
        <rect id="Rectángulo_463010" data-name="Rectángulo 463010" width="2.256" height="2.256" transform="translate(17.163 47.702)" fill="#b8c7d8"/>
        <path id="Trazado_1279998" data-name="Trazado 1279998" d="M110.116,211.6v2.522a.912.912,0,0,0,.909.912h1.594a.911.911,0,0,0,.91-.912V211.6Z" transform="translate(-74.301 -142.781)" fill="#dba819"/>
        <path id="Trazado_1279999" data-name="Trazado 1279999" d="M228.568,211.6v2.522a.911.911,0,0,0,.909.912h1.592a.911.911,0,0,0,.909-.912V211.6Z" transform="translate(-154.227 -142.781)" fill="#dba819"/>
        <path id="Trazado_1280000" data-name="Trazado 1280000" d="M110.116,165.666v2.523a.909.909,0,0,0,.909.908h1.594a.909.909,0,0,0,.91-.908v-2.523Z" transform="translate(-74.301 -111.783)" fill="#dba819"/>
        <path id="Trazado_1280001" data-name="Trazado 1280001" d="M228.568,165.666v2.523a.908.908,0,0,0,.909.908h1.592a.908.908,0,0,0,.909-.908v-2.523Z" transform="translate(-154.227 -111.783)" fill="#dba819"/>
        <path id="Trazado_1280002" data-name="Trazado 1280002" d="M110.116,121.2v2.523a.91.91,0,0,0,.909.909h1.594a.91.91,0,0,0,.91-.909V121.2Z" transform="translate(-74.301 -81.778)" fill="#dba819"/>
        <path id="Trazado_1280003" data-name="Trazado 1280003" d="M228.568,121.2v2.523a.909.909,0,0,0,.909.909h1.592a.909.909,0,0,0,.909-.909V121.2Z" transform="translate(-154.227 -81.778)" fill="#dba819"/>
        <path id="Trazado_1280004" data-name="Trazado 1280004" d="M145.748,172.611H104.333a3.177,3.177,0,0,0-3.175,3.175V182.7a3.172,3.172,0,0,0,3.175,3.172h41.415a3.174,3.174,0,0,0,3.175-3.172v-6.918a3.179,3.179,0,0,0-3.175-3.175" transform="translate(-68.257 -116.47)" fill="#f2d98c"/>
        <path id="Trazado_1280005" data-name="Trazado 1280005" d="M145.748,202.575H104.333a3,3,0,0,1-3.175-2.78v1.252a3.172,3.172,0,0,0,3.175,3.172h41.415a3.174,3.174,0,0,0,3.175-3.172V199.8a3,3,0,0,1-3.175,2.78" transform="translate(-68.257 -134.812)" fill="#dba819"/>
        <path id="Trazado_1280006" data-name="Trazado 1280006" d="M120.178,191.727a1.194,1.194,0,1,1,1.19-1.2,1.2,1.2,0,0,1-1.19,1.2m0-1.732a.537.537,0,1,0,.539.536.537.537,0,0,0-.539-.536" transform="translate(-80.286 -127.757)" fill="#fff"/>
        <path id="Trazado_1280007" data-name="Trazado 1280007" d="M136.858,191.727a1.194,1.194,0,1,1,1.2-1.2,1.2,1.2,0,0,1-1.2,1.2m0-1.732a.537.537,0,0,0,0,1.074.537.537,0,1,0,0-1.074" transform="translate(-91.541 -127.757)" fill="#fff"/>
        <path id="Trazado_1280008" data-name="Trazado 1280008" d="M153.544,191.727a1.194,1.194,0,1,1,1.191-1.2,1.2,1.2,0,0,1-1.191,1.2m0-1.732a.537.537,0,1,0,.538.536.536.536,0,0,0-.538-.536" transform="translate(-102.798 -127.757)" fill="#fff"/>
        <path id="Trazado_1280009" data-name="Trazado 1280009" d="M170.236,191.727a1.194,1.194,0,1,1,1.189-1.2,1.2,1.2,0,0,1-1.189,1.2m0-1.732a.537.537,0,1,0,.531.536.539.539,0,0,0-.531-.536" transform="translate(-114.06 -127.757)" fill="#fff"/>
        <path id="Trazado_1280010" data-name="Trazado 1280010" d="M186.921,191.727a1.194,1.194,0,1,1,1.192-1.2,1.2,1.2,0,0,1-1.192,1.2m0-1.732a.537.537,0,1,0,.534.536.537.537,0,0,0-.534-.536" transform="translate(-125.32 -127.757)" fill="#fff"/>
        <path id="Trazado_1280011" data-name="Trazado 1280011" d="M120.86,192.078a.866.866,0,1,1,.865-.867.863.863,0,0,1-.865.867" transform="translate(-80.968 -128.436)" fill="#14b0bf"/>
        <path id="Trazado_1280012" data-name="Trazado 1280012" d="M137.54,192.078a.866.866,0,1,1,.867-.867.867.867,0,0,1-.867.867" transform="translate(-92.223 -128.436)" fill="#14b0bf"/>
        <path id="Trazado_1280013" data-name="Trazado 1280013" d="M154.22,192.078a.866.866,0,1,1,.867-.867.87.87,0,0,1-.867.867" transform="translate(-103.475 -128.436)" fill="#14b0bf"/>
        <path id="Trazado_1280014" data-name="Trazado 1280014" d="M170.918,192.078a.866.866,0,1,1,.86-.867.867.867,0,0,1-.86.867" transform="translate(-114.742 -128.436)" fill="#f99b1d"/>
        <path id="Trazado_1280015" data-name="Trazado 1280015" d="M187.6,192.078a.866.866,0,1,1,.863-.867.87.87,0,0,1-.863.867" transform="translate(-125.996 -128.436)" fill="#f2d98c"/>
        <rect id="Rectángulo_463011" data-name="Rectángulo 463011" width="4.839" height="1.99" transform="translate(69.7 64.706)" fill="#dba819"/>
        <rect id="Rectángulo_463012" data-name="Rectángulo 463012" width="4.839" height="4.839" transform="translate(69.7 58.853)" fill="#b8c7d8"/>
        <path id="Trazado_1280016" data-name="Trazado 1280016" d="M145.748,128.138H104.333a3.176,3.176,0,0,0-3.175,3.173v6.919a3.175,3.175,0,0,0,3.175,3.175h41.415a3.177,3.177,0,0,0,3.175-3.175v-6.919a3.178,3.178,0,0,0-3.175-3.173" transform="translate(-68.257 -86.461)" fill="#f2d98c"/>
        <path id="Trazado_1280017" data-name="Trazado 1280017" d="M145.748,158.094H104.333a3,3,0,0,1-3.175-2.777v1.252a3.175,3.175,0,0,0,3.175,3.175h41.415a3.177,3.177,0,0,0,3.175-3.175v-1.252a3,3,0,0,1-3.175,2.777" transform="translate(-68.257 -104.8)" fill="#dba819"/>
        <path id="Trazado_1280018" data-name="Trazado 1280018" d="M120.178,147.251a1.194,1.194,0,1,1,1.19-1.2,1.2,1.2,0,0,1-1.19,1.2m0-1.73a.536.536,0,1,0,.539.534.537.537,0,0,0-.539-.534" transform="translate(-80.286 -97.747)" fill="#fff"/>
        <path id="Trazado_1280019" data-name="Trazado 1280019" d="M136.858,147.251a1.194,1.194,0,1,1,1.2-1.2,1.195,1.195,0,0,1-1.2,1.2m0-1.73a.536.536,0,1,0,.541.534.535.535,0,0,0-.541-.534" transform="translate(-91.541 -97.747)" fill="#fff"/>
        <path id="Trazado_1280020" data-name="Trazado 1280020" d="M153.544,147.251a1.194,1.194,0,1,1,1.191-1.2,1.2,1.2,0,0,1-1.191,1.2m0-1.73a.536.536,0,1,0,.538.534.536.536,0,0,0-.538-.534" transform="translate(-102.798 -97.747)" fill="#fff"/>
        <path id="Trazado_1280021" data-name="Trazado 1280021" d="M170.236,147.251a1.194,1.194,0,1,1,1.189-1.2,1.2,1.2,0,0,1-1.189,1.2m0-1.73a.536.536,0,1,0,.531.534.539.539,0,0,0-.531-.534" transform="translate(-114.06 -97.747)" fill="#fff"/>
        <path id="Trazado_1280022" data-name="Trazado 1280022" d="M186.921,147.251a1.194,1.194,0,1,1,1.192-1.2,1.194,1.194,0,0,1-1.192,1.2m0-1.73a.536.536,0,1,0,.534.534.538.538,0,0,0-.534-.534" transform="translate(-125.32 -97.747)" fill="#fff"/>
        <path id="Trazado_1280023" data-name="Trazado 1280023" d="M120.86,147.6a.865.865,0,1,1,.865-.867.863.863,0,0,1-.865.867" transform="translate(-80.968 -98.429)" fill="#14b0bf"/>
        <path id="Trazado_1280024" data-name="Trazado 1280024" d="M137.54,147.6a.865.865,0,1,1,.867-.867.867.867,0,0,1-.867.867" transform="translate(-92.223 -98.429)" fill="#14b0bf"/>
        <path id="Trazado_1280025" data-name="Trazado 1280025" d="M154.22,147.6a.865.865,0,1,1,.867-.867.87.87,0,0,1-.867.867" transform="translate(-103.475 -98.429)" fill="#14b0bf"/>
        <path id="Trazado_1280026" data-name="Trazado 1280026" d="M170.918,147.6a.865.865,0,1,1,.86-.867.867.867,0,0,1-.86.867" transform="translate(-114.742 -98.429)" fill="#f99b1d"/>
        <path id="Trazado_1280027" data-name="Trazado 1280027" d="M187.6,147.6a.865.865,0,1,1,.863-.867.87.87,0,0,1-.863.867" transform="translate(-125.996 -98.429)" fill="#f2d98c"/>
        <rect id="Rectángulo_463013" data-name="Rectángulo 463013" width="4.839" height="1.99" transform="translate(69.7 50.242)" fill="#dba819"/>
        <rect id="Rectángulo_463014" data-name="Rectángulo 463014" width="4.839" height="4.839" transform="translate(69.7 44.386)" fill="#b8c7d8"/>
        <path id="Trazado_1280028" data-name="Trazado 1280028" d="M145.748,83.669H104.333a3.174,3.174,0,0,0-3.175,3.173v6.92a3.172,3.172,0,0,0,3.175,3.171h41.415a3.174,3.174,0,0,0,3.175-3.171v-6.92a3.176,3.176,0,0,0-3.175-3.173" transform="translate(-68.257 -56.456)" fill="#f2d98c"/>
        <path id="Trazado_1280029" data-name="Trazado 1280029" d="M145.748,113.62H104.333a3,3,0,0,1-3.175-2.78V112.1a3.172,3.172,0,0,0,3.175,3.171h41.415a3.174,3.174,0,0,0,3.175-3.171V110.84a3,3,0,0,1-3.175,2.78" transform="translate(-68.257 -74.79)" fill="#dba819"/>
        <path id="Trazado_1280030" data-name="Trazado 1280030" d="M120.178,102.779a1.193,1.193,0,1,1,1.19-1.193,1.195,1.195,0,0,1-1.19,1.193m0-1.73a.538.538,0,1,0,.539.537.538.538,0,0,0-.539-.537" transform="translate(-80.286 -67.741)" fill="#fff"/>
        <path id="Trazado_1280031" data-name="Trazado 1280031" d="M136.858,102.779a1.193,1.193,0,1,1,1.2-1.193,1.194,1.194,0,0,1-1.2,1.193m0-1.73a.538.538,0,0,0,0,1.076.538.538,0,1,0,0-1.076" transform="translate(-91.541 -67.741)" fill="#fff"/>
        <path id="Trazado_1280032" data-name="Trazado 1280032" d="M153.544,102.779a1.193,1.193,0,1,1,1.191-1.193,1.2,1.2,0,0,1-1.191,1.193m0-1.73a.538.538,0,1,0,.538.537.537.537,0,0,0-.538-.537" transform="translate(-102.798 -67.741)" fill="#fff"/>
        <path id="Trazado_1280033" data-name="Trazado 1280033" d="M170.236,102.779a1.193,1.193,0,1,1,1.189-1.193,1.2,1.2,0,0,1-1.189,1.193m0-1.73a.538.538,0,1,0,.531.537.54.54,0,0,0-.531-.537" transform="translate(-114.06 -67.741)" fill="#fff"/>
        <path id="Trazado_1280034" data-name="Trazado 1280034" d="M186.921,102.779a1.193,1.193,0,1,1,1.192-1.193,1.193,1.193,0,0,1-1.192,1.193m0-1.73a.538.538,0,1,0,.534.537.538.538,0,0,0-.534-.537" transform="translate(-125.32 -67.741)" fill="#fff"/>
        <path id="Trazado_1280035" data-name="Trazado 1280035" d="M120.86,103.126a.865.865,0,1,1,.865-.865.86.86,0,0,1-.865.865" transform="translate(-80.968 -68.417)" fill="#14b0bf"/>
        <path id="Trazado_1280036" data-name="Trazado 1280036" d="M137.54,103.126a.865.865,0,1,1,.867-.865.864.864,0,0,1-.867.865" transform="translate(-92.223 -68.417)" fill="#14b0bf"/>
        <path id="Trazado_1280037" data-name="Trazado 1280037" d="M154.22,103.126a.865.865,0,1,1,.867-.865.868.868,0,0,1-.867.865" transform="translate(-103.475 -68.417)" fill="#14b0bf"/>
        <path id="Trazado_1280038" data-name="Trazado 1280038" d="M170.918,103.126a.865.865,0,1,1,.86-.865.864.864,0,0,1-.86.865" transform="translate(-114.742 -68.417)" fill="#f99b1d"/>
        <path id="Trazado_1280039" data-name="Trazado 1280039" d="M187.6,103.126a.865.865,0,1,1,.863-.865.868.868,0,0,1-.863.865" transform="translate(-125.996 -68.417)" fill="#f2d98c"/>
        <rect id="Rectángulo_463015" data-name="Rectángulo 463015" width="4.839" height="1.99" transform="translate(69.7 35.776)" fill="#dba819"/>
        <rect id="Rectángulo_463016" data-name="Rectángulo 463016" width="4.839" height="4.841" transform="translate(69.7 29.922)" fill="#b8c7d8"/>
      </g>
    </g>
  </g>
</svg>
