<svg xmlns="http://www.w3.org/2000/svg" xmlns:xlink="http://www.w3.org/1999/xlink" width="96" height="96" viewBox="0 0 96 96">
  <defs>
    <clipPath id="clip-path">
      <rect id="Rectángulo_454829" data-name="Rectángulo 454829" width="96" height="96" fill="#1e535a"/>
    </clipPath>
    <clipPath id="clip-path-2">
      <rect id="Rectángulo_462629" data-name="Rectángulo 462629" width="35" height="35.342" fill="#1e535a"/>
    </clipPath>
  </defs>
  <g id="Grupo_1210229" data-name="Grupo 1210229" transform="translate(-1481 -8562.5)">
    <g id="Grupo_1177591" data-name="Grupo 1177591" transform="translate(1481 8562.5)">
      <g id="Grupo_1177589" data-name="Grupo 1177589" transform="translate(0 0)">
        <g id="Grupo_1177587" data-name="Grupo 1177587" clip-path="url(#clip-path)">
          <path id="Trazado_997422" data-name="Trazado 997422" d="M92.081,42.491a44.136,44.136,0,0,0-9.97-22.967,5.076,5.076,0,0,0-7.142-6.838A44.071,44.071,0,0,0,52.151,3.77a5.077,5.077,0,0,0-9.861.2A44.132,44.132,0,0,0,20.4,13.329a5.079,5.079,0,0,0-7.048,7.1A44.1,44.1,0,0,0,4.112,42.448,5.08,5.08,0,0,0,3.99,52.4a44.082,44.082,0,0,0,8.949,22.468,5.078,5.078,0,0,0,6.9,7.17,44.128,44.128,0,0,0,22.412,9.8,5.078,5.078,0,0,0,9.949.2,44.091,44.091,0,0,0,22.985-9.08,5.077,5.077,0,0,0,7.107-6.874A44.147,44.147,0,0,0,92.2,52.349a5.078,5.078,0,0,0-.119-9.858M77.74,22.024a5.05,5.05,0,0,0,2.812-.851,41.913,41.913,0,0,1,9.25,21.3,5.086,5.086,0,0,0-3.246,2.351l-12.98-4.867c.01-.142.02-.286.02-.433a5.079,5.079,0,0,0-2.151-4.15l5.678-13.4a5.5,5.5,0,0,0,.616.041M75,21.216,69.354,34.523a5.026,5.026,0,0,0-5.594,3.23L40.279,32.344a4.941,4.941,0,0,0-.106-1.011l33.322-11.6A5.1,5.1,0,0,0,75,21.216M47.246,10.165a5.083,5.083,0,0,0,4.989-4.122,41.844,41.844,0,0,1,21.158,8.275,5.054,5.054,0,0,0-.735,2.625,5.335,5.335,0,0,0,.048.671L39.217,29.273a5.1,5.1,0,0,0-.92-.92l8.784-18.2c.056,0,.109.008.165.008M42.3,6.243A5.083,5.083,0,0,0,44.86,9.569L36.248,27.4a5.1,5.1,0,0,0-1.049-.109,5.045,5.045,0,0,0-2.9.91L22.1,19.678A5.052,5.052,0,0,0,21.923,15,41.877,41.877,0,0,1,42.3,6.243M10.041,46.332,31.153,35.442a5.064,5.064,0,0,0,4.006,2.014l7.236,23.129a5.166,5.166,0,0,0-1.12,1.239l-31.3-13.04a5.048,5.048,0,0,0,.187-1.348,5.107,5.107,0,0,0-.124-1.1m4.986-24.391a5.079,5.079,0,0,0,5.673-.484l10.079,8.417a5.068,5.068,0,0,0-.56,3.512L9.07,44.29A5.081,5.081,0,0,0,6.38,42.526a41.859,41.859,0,0,1,8.647-20.585m2.1,50.717a5.067,5.067,0,0,0-2.523.674A41.822,41.822,0,0,1,6.263,52.374,5.087,5.087,0,0,0,8.9,50.783l31.609,13.17a5.45,5.45,0,0,0-.041.611,5.081,5.081,0,0,0,.3,1.718L21.657,75.44a5.081,5.081,0,0,0-4.528-2.782M42.349,89.575a41.919,41.919,0,0,1-20.912-9.149,5.029,5.029,0,0,0,.775-2.686l0-.058L42,68.2A5.082,5.082,0,0,0,43.8,69.329l1.186,17.043a5.082,5.082,0,0,0-2.632,3.2m2.105-29.97-7.081-22.64a5.089,5.089,0,0,0,2.415-2.415L63.459,40a5.052,5.052,0,0,0,.808,2.311L48.032,60.13a5.019,5.019,0,0,0-3.577-.524m7.74,30.167a5.081,5.081,0,0,0-4.948-3.937l-.038,0L46.081,69.62a5.073,5.073,0,0,0,3.106-1.507L72.853,78.551c0,.046-.008.086-.008.132a5.057,5.057,0,0,0,.752,2.65,41.841,41.841,0,0,1-21.4,8.439M73.423,76.334,50.373,66.165a5.052,5.052,0,0,0-.666-4.52L65.893,43.877a5.052,5.052,0,0,0,2.622.735,5.594,5.594,0,0,0,.623-.041l6.05,29.836a5.071,5.071,0,0,0-1.766,1.928m7.292-1.9a5.051,5.051,0,0,0-3.377-.8L71.285,43.788a5.1,5.1,0,0,0,1.6-1.672L85.858,46.98a4.506,4.506,0,0,0-.023.456,5.08,5.08,0,0,0,4.084,4.981,41.876,41.876,0,0,1-9.2,22.017" transform="translate(0 0.001)" fill="#1e535a"/>
        </g>
      </g>
    </g>
    <g id="Elipse_13614" data-name="Elipse 13614" transform="translate(1497.965 8578.949)" fill="#d5f4f8" stroke="#1e535a" stroke-width="3">
      <ellipse cx="31.232" cy="31.233" rx="31.232" ry="31.233" stroke="none"/>
      <ellipse cx="31.232" cy="31.233" rx="29.732" ry="29.733" fill="none"/>
    </g>
    <g id="Grupo_1213067" data-name="Grupo 1213067" transform="translate(1511.965 8591.949)">
      <g id="Grupo_1213066" data-name="Grupo 1213066" clip-path="url(#clip-path-2)">
        <path id="Trazado_1279060" data-name="Trazado 1279060" d="M19.146,17.211a1.674,1.674,0,0,1-1.514,1.278,1.61,1.61,0,0,1-1.689-1.275l-6.637,0a.694.694,0,0,0-.636.63v1.227h5.6a2.21,2.21,0,0,1,2.3,2.316l-.01,7.705H.042l0-7.8a2.19,2.19,0,0,1,2.28-2.218H7.938l.011-1.246a1.313,1.313,0,0,1,1.233-1.315L15.92,16.5a1.627,1.627,0,0,1,1.233-1.23l0-1.618-6.208-.025A1.713,1.713,0,0,1,9.42,11.979l0-10.289A1.777,1.777,0,0,1,11.285,0l10.95.006a1.781,1.781,0,0,1,1.783,1.787V11.867a1.75,1.75,0,0,1-1.656,1.77l-4.439.014v1.609a1.647,1.647,0,0,1,1.228,1.24l6.519,0a1.343,1.343,0,0,1,1.453,1.351l.012,1.22h5.617a2.192,2.192,0,0,1,2.28,2.218v7.805H18.51l.008-7.915a2.178,2.178,0,0,1,2.274-2.106h5.613l0-1.227a.694.694,0,0,0-.635-.628Zm.439-5.016a1.529,1.529,0,0,0,1.54-1.536,1.428,1.428,0,0,0,1.391-1.382l.016-6.159a1.45,1.45,0,0,0-1.318-1.612l-9.021,0a1.371,1.371,0,0,0-1.279,1.278V9.325a1.494,1.494,0,0,0,1.414,1.361,1.446,1.446,0,0,0,1.308,1.488ZM8.319,27.257l1.618-1.6a.538.538,0,0,0,.034-.492.466.466,0,0,0-.494-.068l-.805.762-.01-3.841c0-.158-.258-.414-.4-.39a.563.563,0,0,0-.321.4L7.93,25.847l-.771-.715a.466.466,0,0,0-.53.034.514.514,0,0,0,.037.5Zm18.473,0,1.618-1.6a.481.481,0,0,0-.026-.553.523.523,0,0,0-.532.071l-.711.672-.01-3.83c0-.158-.251-.416-.393-.392a.568.568,0,0,0-.329.428L26.4,25.853l-.754-.709a.459.459,0,0,0-.542.022.523.523,0,0,0,.027.5Z" transform="translate(-0.036 -0.001)" fill="#1e535a"/>
        <path id="Trazado_1279061" data-name="Trazado 1279061" d="M14.389,272.161l-12.3,0a2.2,2.2,0,0,1-2.037-2.707H16.5a2.22,2.22,0,0,1-2.107,2.711M9.6,270.986c.125,0,.327-.3.3-.4s-.21-.3-.332-.3l-2.532-.013c-.189,0-.425.275-.388.414a.589.589,0,0,0,.406.326Z" transform="translate(0 -239.634)" fill="#1e535a"/>
        <path id="Trazado_1279062" data-name="Trazado 1279062" d="M181.278,272.164l-12.3,0a2.218,2.218,0,0,1-2.062-2.707h16.446a2.2,2.2,0,0,1-2.081,2.711M176.436,271c.128,0,.364-.309.332-.425a.559.559,0,0,0-.408-.3l-2.458,0a.558.558,0,0,0-.388.308c-.027.12.19.41.324.411Z" transform="translate(-148.408 -239.637)" fill="#1e535a"/>
        <path id="Trazado_1279063" data-name="Trazado 1279063" d="M37.006,302.6h-9.94l-.318-.3c-.073-.069.128-.393.241-.394L29.6,301.9l.027-1.386h4.826l.007,1.383,2.55.005c.118,0,.334.211.324.314a.666.666,0,0,1-.328.386" transform="translate(-23.774 -267.258)" fill="#1e535a"/>
        <path id="Trazado_1279064" data-name="Trazado 1279064" d="M204.071,302.6l-9.983,0c-.133,0-.347-.284-.325-.408a.523.523,0,0,1,.4-.3l2.475.011.006-1.392h4.831l.008,1.382,2.569.008c.1,0,.283.193.306.291s-.179.4-.285.4" transform="translate(-172.321 -267.261)" fill="#1e535a"/>
        <path id="Trazado_1279065" data-name="Trazado 1279065" d="M217,13.891a3.4,3.4,0,0,0,.632-1.651V1.983a2.612,2.612,0,0,0-.719-1.667,1.724,1.724,0,0,1,1.615,1.655l.007,10.38A1.74,1.74,0,0,1,217,13.891" transform="translate(-192.905 -0.281)" fill="#1e535a"/>
        <path id="Trazado_1279066" data-name="Trazado 1279066" d="M111.92,21.488l-.009-1.55,1.02.007.008,1.534a.513.513,0,0,0,.355.378.5.5,0,0,0,.366-.379l.022-1.491c.366-.172,1.185-.055,1.187.437l.022,6.6c0,.751-1.144.512-1.33.722-.2.23.132,1.416-.769,1.417l-5.861.006a.765.765,0,0,1-.769-.939.857.857,0,0,0-.1-.489c-.227-.232-1.338.1-1.337-.831l0-6.3c0-.221.179-.583.36-.614a6.419,6.419,0,0,1,.87-.059l.009,1.538a.549.549,0,0,0,.367.385c.128.013.361-.222.362-.362l0-1.56h1.021l.007,1.542a.534.534,0,0,0,.256.376c.123.042.451-.165.453-.306l.027-1.6,1.009-.014-.018,1.491a.544.544,0,0,0,.3.426c.137.027.428-.188.428-.326l0-1.585,1.011.008L111.2,21.5a.564.564,0,0,0,.332.364c.134.026.394-.2.393-.373" transform="translate(-93.135 -17.71)" fill="#1e535a"/>
      </g>
    </g>
  </g>
</svg>
