<svg xmlns="http://www.w3.org/2000/svg" xmlns:xlink="http://www.w3.org/1999/xlink" width="96" height="96" viewBox="0 0 96 96">
  <defs>
    <clipPath id="clip-path">
      <rect id="Rectángulo_454829" data-name="Rectángulo 454829" width="96" height="96" fill="#1e535a"/>
    </clipPath>
    <clipPath id="clip-path-2">
      <rect id="Rectángulo_462644" data-name="Rectángulo 462644" width="35" height="34.721" fill="#1e535a"/>
    </clipPath>
  </defs>
  <g id="Grupo_1210233" data-name="Grupo 1210233" transform="translate(-1480.965 -8563)">
    <g id="Grupo_1177591" data-name="Grupo 1177591" transform="translate(1480.965 8563)">
      <g id="Grupo_1177589" data-name="Grupo 1177589" transform="translate(0 0)">
        <g id="Grupo_1177587" data-name="Grupo 1177587" clip-path="url(#clip-path)">
          <path id="Trazado_997422" data-name="Trazado 997422" d="M92.081,42.491a44.136,44.136,0,0,0-9.97-22.967,5.076,5.076,0,0,0-7.142-6.838A44.071,44.071,0,0,0,52.151,3.77a5.077,5.077,0,0,0-9.861.2A44.132,44.132,0,0,0,20.4,13.329a5.079,5.079,0,0,0-7.048,7.1A44.1,44.1,0,0,0,4.112,42.448,5.08,5.08,0,0,0,3.99,52.4a44.082,44.082,0,0,0,8.949,22.468,5.078,5.078,0,0,0,6.9,7.17,44.128,44.128,0,0,0,22.412,9.8,5.078,5.078,0,0,0,9.949.2,44.091,44.091,0,0,0,22.985-9.08,5.077,5.077,0,0,0,7.107-6.874A44.147,44.147,0,0,0,92.2,52.349a5.078,5.078,0,0,0-.119-9.858M77.74,22.024a5.05,5.05,0,0,0,2.812-.851,41.913,41.913,0,0,1,9.25,21.3,5.086,5.086,0,0,0-3.246,2.351l-12.98-4.867c.01-.142.02-.286.02-.433a5.079,5.079,0,0,0-2.151-4.15l5.678-13.4a5.5,5.5,0,0,0,.616.041M75,21.216,69.354,34.523a5.026,5.026,0,0,0-5.594,3.23L40.279,32.344a4.941,4.941,0,0,0-.106-1.011l33.322-11.6A5.1,5.1,0,0,0,75,21.216M47.246,10.165a5.083,5.083,0,0,0,4.989-4.122,41.844,41.844,0,0,1,21.158,8.275,5.054,5.054,0,0,0-.735,2.625,5.335,5.335,0,0,0,.048.671L39.217,29.273a5.1,5.1,0,0,0-.92-.92l8.784-18.2c.056,0,.109.008.165.008M42.3,6.243A5.083,5.083,0,0,0,44.86,9.569L36.248,27.4a5.1,5.1,0,0,0-1.049-.109,5.045,5.045,0,0,0-2.9.91L22.1,19.678A5.052,5.052,0,0,0,21.923,15,41.877,41.877,0,0,1,42.3,6.243M10.041,46.332,31.153,35.442a5.064,5.064,0,0,0,4.006,2.014l7.236,23.129a5.166,5.166,0,0,0-1.12,1.239l-31.3-13.04a5.048,5.048,0,0,0,.187-1.348,5.107,5.107,0,0,0-.124-1.1m4.986-24.391a5.079,5.079,0,0,0,5.673-.484l10.079,8.417a5.068,5.068,0,0,0-.56,3.512L9.07,44.29A5.081,5.081,0,0,0,6.38,42.526a41.859,41.859,0,0,1,8.647-20.585m2.1,50.717a5.067,5.067,0,0,0-2.523.674A41.822,41.822,0,0,1,6.263,52.374,5.087,5.087,0,0,0,8.9,50.783l31.609,13.17a5.45,5.45,0,0,0-.041.611,5.081,5.081,0,0,0,.3,1.718L21.657,75.44a5.081,5.081,0,0,0-4.528-2.782M42.349,89.575a41.919,41.919,0,0,1-20.912-9.149,5.029,5.029,0,0,0,.775-2.686l0-.058L42,68.2A5.082,5.082,0,0,0,43.8,69.329l1.186,17.043a5.082,5.082,0,0,0-2.632,3.2m2.105-29.97-7.081-22.64a5.089,5.089,0,0,0,2.415-2.415L63.459,40a5.052,5.052,0,0,0,.808,2.311L48.032,60.13a5.019,5.019,0,0,0-3.577-.524m7.74,30.167a5.081,5.081,0,0,0-4.948-3.937l-.038,0L46.081,69.62a5.073,5.073,0,0,0,3.106-1.507L72.853,78.551c0,.046-.008.086-.008.132a5.057,5.057,0,0,0,.752,2.65,41.841,41.841,0,0,1-21.4,8.439M73.423,76.334,50.373,66.165a5.052,5.052,0,0,0-.666-4.52L65.893,43.877a5.052,5.052,0,0,0,2.622.735,5.594,5.594,0,0,0,.623-.041l6.05,29.836a5.071,5.071,0,0,0-1.766,1.928m7.292-1.9a5.051,5.051,0,0,0-3.377-.8L71.285,43.788a5.1,5.1,0,0,0,1.6-1.672L85.858,46.98a4.506,4.506,0,0,0-.023.456,5.08,5.08,0,0,0,4.084,4.981,41.876,41.876,0,0,1-9.2,22.017" transform="translate(0 0.001)" fill="#1e535a"/>
        </g>
      </g>
    </g>
    <g id="Elipse_13614" data-name="Elipse 13614" transform="translate(1497.457 8579.025)" fill="#d5f4f8" stroke="#1e535a" stroke-width="3">
      <ellipse cx="31.232" cy="31.233" rx="31.232" ry="31.233" stroke="none"/>
      <ellipse cx="31.232" cy="31.233" rx="29.732" ry="29.733" fill="none"/>
    </g>
    <g id="Grupo_1213075" data-name="Grupo 1213075" transform="translate(1511.457 8593.025)">
      <g id="Grupo_1213074" data-name="Grupo 1213074" clip-path="url(#clip-path-2)">
        <path id="Trazado_1279111" data-name="Trazado 1279111" d="M218.32,148.347H207.073v-20H218.32Zm-6.864-15.006a.7.7,0,0,0,.632-.606l0-2.529a.765.765,0,0,0-.513-.595l-2.694.008a.6.6,0,0,0-.55.581v2.553a.666.666,0,0,0,.555.581Zm5.119-.005c.255,0,.5-.358.5-.579l0-2.563a.587.587,0,0,0-.575-.583l-2.564.006a.61.61,0,0,0-.6.577l0,2.563a.641.641,0,0,0,.595.584Zm-5.076,5.017a.691.691,0,0,0,.594-.675l0-2.428a.678.678,0,0,0-.655-.666l-2.524.006a.674.674,0,0,0-.581.646v2.448a.683.683,0,0,0,.678.682Zm5.05.014a.789.789,0,0,0,.528-.677l0-2.445a.661.661,0,0,0-.7-.663h-2.315a.681.681,0,0,0-.722.663l0,2.441a.667.667,0,0,0,.614.67Zm-2.577,8.733a.609.609,0,0,0,.6-.71l-.436-1.784,1.112-.005a.652.652,0,0,0,.58-.608l0-3.819a.6.6,0,0,0-.6-.554h-5.057a.587.587,0,0,0-.568.56l0,3.8a.644.644,0,0,0,.543.61l1.131.013-.424,1.781a.593.593,0,0,0,.573.707Z" transform="translate(-183.32 -113.627)" fill="#1e535a"/>
        <path id="Trazado_1279112" data-name="Trazado 1279112" d="M15.013,206.558,0,206.56l0-9.58L7.5,194.1l7.513,2.889Zm-1.836-1.248a.735.735,0,0,0,.583-.588l.012-1.753a1.478,1.478,0,0,0-.59-1.2,3.2,3.2,0,0,0-1.4-.221,2.593,2.593,0,0,0,1.943-2.828,2.5,2.5,0,0,0-4.971.1,2.6,2.6,0,0,0,1.977,2.727,2.767,2.767,0,0,0-1.472.257,1.447,1.447,0,0,0-.533,1.047l.005,1.876a.711.711,0,0,0,.663.584Zm-7.527,0a.6.6,0,0,0,.578-.71L5.8,202.82l1.12-.006a.633.633,0,0,0,.562-.61l0-3.811a.6.6,0,0,0-.581-.559H1.84a.608.608,0,0,0-.587.558l0,3.812a.638.638,0,0,0,.566.61l1.12.005L2.508,204.6a.6.6,0,0,0,.585.706Z" transform="translate(-0.003 -171.839)" fill="#1e535a"/>
        <path id="Trazado_1279113" data-name="Trazado 1279113" d="M7.5,163.8.021,166.671,0,164.266l7.5-2.883,7.512,2.888v2.409Z" transform="translate(0 -142.872)" fill="#1e535a"/>
        <path id="Trazado_1279114" data-name="Trazado 1279114" d="M167.15,226.577l0,8.73H163.4l0-8.73Zm-2.5,2.512H165.9v-1.267H164.65Zm1.248,1.228h-1.245v1.245H165.9Zm0,2.492h-1.245v1.25H165.9Z" transform="translate(-144.66 -200.587)" fill="#1e535a"/>
        <path id="Trazado_1279115" data-name="Trazado 1279115" d="M227.636,48.328a.7.7,0,0,1-.839.013l-1.922-1.921.888-.892.824.794,0-4.1h-3.137V40.971l3.82.01c.447,0,.568.5.568.85v4.429l.821-.713.87.883Z" transform="translate(-197.822 -36.271)" fill="#1e535a"/>
        <path id="Trazado_1279116" data-name="Trazado 1279116" d="M61.231,42.243V52.278H59.984l0-10.646a.624.624,0,0,1,.591-.641h1.9l.013,1.241Z" transform="translate(-53.102 -36.29)" fill="#1e535a"/>
        <path id="Trazado_1279117" data-name="Trazado 1279117" d="M105.45,38.073l-1.817,0a5.488,5.488,0,0,1-.007-2.515l1.826-.009a13.14,13.14,0,0,0,0,2.521" transform="translate(-91.614 -31.474)" fill="#1e535a"/>
        <path id="Trazado_1279118" data-name="Trazado 1279118" d="M186.311,38.056l-1.85,0a12.513,12.513,0,0,0,0-2.525l1.856.022a7.03,7.03,0,0,1-.008,2.5" transform="translate(-163.302 -31.457)" fill="#1e535a"/>
        <path id="Trazado_1279119" data-name="Trazado 1279119" d="M132.808,38.082l-1.75-.007a8.62,8.62,0,0,1-.022-2.5l1.769-.024Z" transform="translate(-115.935 -31.478)" fill="#1e535a"/>
        <path id="Trazado_1279120" data-name="Trazado 1279120" d="M159.85,38.083l-1.787.039V35.593l1.757,0a10.361,10.361,0,0,1,.031,2.493" transform="translate(-139.931 -31.508)" fill="#1e535a"/>
        <path id="Trazado_1279121" data-name="Trazado 1279121" d="M110.416,2.835l-1.761.012a5.492,5.492,0,0,1,3.3-2.82,15.579,15.579,0,0,0-1.537,2.808" transform="translate(-96.192 -0.024)" fill="#1e535a"/>
        <path id="Trazado_1279122" data-name="Trazado 1279122" d="M171.015,2.8l-1.742.018A16.474,16.474,0,0,0,167.725,0a5.487,5.487,0,0,1,3.29,2.8" transform="translate(-148.486)" fill="#1e535a"/>
        <path id="Trazado_1279123" data-name="Trazado 1279123" d="M170.879,68.459a5.47,5.47,0,0,1-3.28,2.8,17.143,17.143,0,0,0,1.566-2.825Z" transform="translate(-148.374 -60.585)" fill="#1e535a"/>
        <path id="Trazado_1279124" data-name="Trazado 1279124" d="M110.56,68.357a18.14,18.14,0,0,0,1.578,2.829,5.514,5.514,0,0,1-3.291-2.8Z" transform="translate(-96.362 -60.516)" fill="#1e535a"/>
        <path id="Trazado_1279125" data-name="Trazado 1279125" d="M159.305,8.347l-1.331.006.034-2.111a17.5,17.5,0,0,1,1.3,2.1" transform="translate(-139.853 -5.526)" fill="#1e535a"/>
        <path id="Trazado_1279126" data-name="Trazado 1279126" d="M136.919,8.443l-1.336,0a16.219,16.219,0,0,1,1.289-2.094Z" transform="translate(-120.031 -5.623)" fill="#1e535a"/>
        <path id="Trazado_1279127" data-name="Trazado 1279127" d="M159.262,68.392A15.192,15.192,0,0,1,158,70.438l-.039-2.083Z" transform="translate(-139.841 -60.514)" fill="#1e535a"/>
        <path id="Trazado_1279128" data-name="Trazado 1279128" d="M137.07,68.373l-.035,2.109A19.544,19.544,0,0,1,135.76,68.4Z" transform="translate(-120.188 -60.53)" fill="#1e535a"/>
        <rect id="Rectángulo_462637" data-name="Rectángulo 462637" width="3.737" height="2.52" transform="translate(27.522 27.236)" fill="#1e535a"/>
        <path id="Trazado_1279129" data-name="Trazado 1279129" d="M253.171,271.257l-.9-.01.305-1.211.28-.02Z" transform="translate(-223.334 -239.044)" fill="#1e535a"/>
        <rect id="Rectángulo_462638" data-name="Rectángulo 462638" width="1.246" height="1.27" transform="translate(26.276 22.204)" fill="#1e535a"/>
        <rect id="Rectángulo_462639" data-name="Rectángulo 462639" width="1.247" height="1.27" transform="translate(31.259 22.204)" fill="#1e535a"/>
        <rect id="Rectángulo_462640" data-name="Rectángulo 462640" width="1.25" height="1.256" transform="translate(26.272 17.211) rotate(-0.178)" fill="#1e535a"/>
        <rect id="Rectángulo_462641" data-name="Rectángulo 462641" width="1.247" height="1.255" transform="translate(31.259 17.209)" fill="#1e535a"/>
        <path id="Trazado_1279130" data-name="Trazado 1279130" d="M89.636,227.715a1.252,1.252,0,1,1-1.252-1.252,1.252,1.252,0,0,1,1.252,1.252" transform="translate(-77.138 -200.486)" fill="#1e535a"/>
        <rect id="Rectángulo_462642" data-name="Rectángulo 462642" width="2.528" height="1.249" transform="translate(9.986 30.975)" fill="#1e535a"/>
        <rect id="Rectángulo_462643" data-name="Rectángulo 462643" width="3.737" height="2.522" transform="translate(2.496 27.234)" fill="#1e535a"/>
        <path id="Trazado_1279131" data-name="Trazado 1279131" d="M35.049,271.157l-.888-.009.322-1.245h.256Z" transform="translate(-30.242 -238.943)" fill="#1e535a"/>
      </g>
    </g>
  </g>
</svg>
