<svg xmlns="http://www.w3.org/2000/svg" xmlns:xlink="http://www.w3.org/1999/xlink" width="499.529" height="316.435" viewBox="0 0 499.529 316.435">
  <defs>
    <clipPath id="clip-path">
      <rect id="Rectángulo_462804" data-name="Rectángulo 462804" width="484.289" height="299.071" fill="none"/>
    </clipPath>
    <clipPath id="clip-path-3">
      <rect id="Rectángulo_462711" data-name="Rectángulo 462711" width="28.901" height="5.468" fill="none"/>
    </clipPath>
    <clipPath id="clip-path-4">
      <rect id="Rectángulo_462714" data-name="Rectángulo 462714" width="182.752" height="100.17" fill="none"/>
    </clipPath>
    <clipPath id="clip-path-5">
      <rect id="Rectángulo_462716" data-name="Rectángulo 462716" width="159.125" height="99.362" fill="none"/>
    </clipPath>
    <clipPath id="clip-path-6">
      <rect id="Rectángulo_462776" data-name="Rectángulo 462776" width="35.988" height="66.37" fill="none"/>
    </clipPath>
    <clipPath id="clip-path-7">
      <rect id="Rectángulo_462777" data-name="Rectángulo 462777" width="80.492" height="55.759" fill="none"/>
    </clipPath>
    <clipPath id="clip-path-8">
      <rect id="Rectángulo_462779" data-name="Rectángulo 462779" width="20.421" height="16.865" fill="none"/>
    </clipPath>
    <clipPath id="clip-path-9">
      <rect id="Rectángulo_462789" data-name="Rectángulo 462789" width="20.008" height="16.524" fill="none"/>
    </clipPath>
    <clipPath id="clip-path-10">
      <rect id="Rectángulo_462798" data-name="Rectángulo 462798" width="71.51" height="44.601" fill="none"/>
    </clipPath>
    <clipPath id="clip-path-11">
      <rect id="Rectángulo_462799" data-name="Rectángulo 462799" width="43.494" height="10.176" fill="none"/>
    </clipPath>
    <clipPath id="clip-path-12">
      <rect id="Rectángulo_462800" data-name="Rectángulo 462800" width="29.325" height="26.99" fill="none"/>
    </clipPath>
    <clipPath id="clip-path-13">
      <rect id="Rectángulo_462802" data-name="Rectángulo 462802" width="10.399" height="13.797" fill="none"/>
    </clipPath>
  </defs>
  <g id="Grupo_1212253" data-name="Grupo 1212253" transform="translate(-914.951 -4078.348)">
    <g id="Grupo_1209444" data-name="Grupo 1209444" transform="translate(914 4075.564)">
      <g id="Grupo_1208498" data-name="Grupo 1208498" transform="translate(0.951 2.784)">
        <g id="Grupo_1206741" data-name="Grupo 1206741">
          <g id="Grupo_1204235" data-name="Grupo 1204235">
            <rect id="Rectángulo_402012" data-name="Rectángulo 402012" width="499.529" height="316.435" fill="#fff7df"/>
          </g>
        </g>
      </g>
      <g id="Grupo_1213178" data-name="Grupo 1213178" transform="translate(7.951 11.783)">
        <g id="Grupo_1213177" data-name="Grupo 1213177" clip-path="url(#clip-path)">
          <g id="Grupo_1213176" data-name="Grupo 1213176">
            <g id="Grupo_1213175" data-name="Grupo 1213175" clip-path="url(#clip-path)">
              <path id="Trazado_1279472" data-name="Trazado 1279472" d="M484.29,183.932V186.1a20.742,20.742,0,0,1-5.506,13.994,20.556,20.556,0,0,1,3.946,12.075v23.9H245.263c-7.536,0-13.645,5.674-13.645,12.672s6.109,12.672,13.645,12.672H482.729v15.93c0,12-10.475,21.726-23.4,21.726H23.4c-10.446,0-19.291-6.357-22.3-15.133H98.866a11.33,11.33,0,1,0,0-22.658H0v-36.8c0-9.281,6.269-17.2,15.089-20.309A21.343,21.343,0,0,1,4.679,186.1v-2.172A20.436,20.436,0,0,1,7.822,173.07H166.888a5.083,5.083,0,1,0,0-10.139H11.386a20.87,20.87,0,0,1-6.707-15.205V107.9c0-12,10.475-21.725,23.4-21.725h2.52c-8.77-3.135-15-11.027-15-20.276V63c0-12,10.474-21.725,23.4-21.725H79.838a20.31,20.31,0,0,1-1.073-6.517V26.792c0-12,10.475-21.725,23.4-21.725H294.586A24.4,24.4,0,0,1,309.6,0h68.625c12.921,0,23.4,9.726,23.4,21.724v3.859A20.948,20.948,0,0,1,394.4,41.275h57.92C465.235,41.275,475.71,51,475.71,63v2.9a21.489,21.489,0,0,1-11.737,18.829H333.388a6.9,6.9,0,1,0,0,13.758H481.2a20.339,20.339,0,0,1,2.309,9.414v39.828a21.3,21.3,0,0,1-10.088,17.863,21.394,21.394,0,0,1,10.869,18.343" fill="#ffe79e"/>
              <path id="Trazado_1279473" data-name="Trazado 1279473" d="M150.794,231.1v22.581h9.087v-8.52a5.4,5.4,0,0,1,10.793,0v8.52h9.088V231.1Z" transform="translate(-38.09 -58.375)" fill="#2d4c7f"/>
              <rect id="Rectángulo_462709" data-name="Rectángulo 462709" width="88.33" height="5.964" transform="translate(83.023 193.888)" fill="#4e73a8"/>
              <g id="Grupo_1213144" data-name="Grupo 1213144" transform="translate(112.704 172.726)" opacity="0.2" style="mix-blend-mode: multiply;isolation: isolate">
                <g id="Grupo_1213143" data-name="Grupo 1213143">
                  <g id="Grupo_1213142" data-name="Grupo 1213142" clip-path="url(#clip-path-3)">
                    <rect id="Rectángulo_462710" data-name="Rectángulo 462710" width="28.901" height="5.468" fill="#2d4c7f"/>
                  </g>
                </g>
              </g>
              <rect id="Rectángulo_462712" data-name="Rectángulo 462712" width="207.241" height="108.939" transform="translate(23.567 48.543)" fill="#4e73a8"/>
              <rect id="Rectángulo_462713" data-name="Rectángulo 462713" width="194.207" height="100.17" transform="translate(30.085 52.616)" fill="#b8d0ff"/>
              <g id="Grupo_1213147" data-name="Grupo 1213147" transform="translate(30.085 52.616)" opacity="0.5" style="mix-blend-mode: multiply;isolation: isolate">
                <g id="Grupo_1213146" data-name="Grupo 1213146">
                  <g id="Grupo_1213145" data-name="Grupo 1213145" clip-path="url(#clip-path-4)">
                    <path id="Trazado_1279474" data-name="Trazado 1279474" d="M220.38,169.978a119.986,119.986,0,0,1-22.2-8.171c-7.189-3.331-14.408-6.674-21.489-10.232-37.976-19.087-71.73-47.533-97.857-81.176H40.252v100.17H223c-.876-.186-1.753-.381-2.624-.59" transform="translate(-40.252 -70.398)" fill="#b8d0ff"/>
                  </g>
                </g>
              </g>
              <rect id="Rectángulo_462715" data-name="Rectángulo 462715" width="194.462" height="1.83" transform="translate(29.957 152.787)" fill="#2d4c7f"/>
              <path id="Trazado_1279475" data-name="Trazado 1279475" d="M31.513,210.642v7.987a9.074,9.074,0,0,0,9.028,9.121h189.21a9.075,9.075,0,0,0,9.032-9.121v-7.987Z" transform="translate(-7.96 -53.207)" fill="#2d4c7f"/>
              <path id="Trazado_1279476" data-name="Trazado 1279476" d="M172.246,220.251a3.132,3.132,0,1,1-3.131-3.132,3.131,3.131,0,0,1,3.131,3.132" transform="translate(-41.926 -54.843)" fill="#4e73a8"/>
              <line id="Línea_3431" data-name="Línea 3431" x2="1.121" transform="translate(225.995 107.492)" fill="none" stroke="#2e6adb" stroke-miterlimit="10" stroke-width="1"/>
              <path id="Trazado_1279477" data-name="Trazado 1279477" d="M306.85,143.82H458.4a25.959,25.959,0,0,1,25.959,25.96v82.568" transform="translate(-77.509 -36.328)" fill="none" stroke="#2e6adb" stroke-miterlimit="10" stroke-width="1" stroke-dasharray="2.978 2.978"/>
              <line id="Línea_3432" data-name="Línea 3432" y2="1.121" transform="translate(406.847 217.133)" fill="none" stroke="#2e6adb" stroke-miterlimit="10" stroke-width="1"/>
              <line id="Línea_3433" data-name="Línea 3433" x2="1.121" transform="translate(223.752 146.728)" fill="none" stroke="#2e6adb" stroke-miterlimit="10" stroke-width="1"/>
              <path id="Trazado_1279478" data-name="Trazado 1279478" d="M303.882,196.317H415.026c10.6,0,19.192,5.535,19.192,12.362v38.136" transform="translate(-76.759 -49.589)" fill="none" stroke="#2e6adb" stroke-miterlimit="10" stroke-width="1" stroke-dasharray="3.01 3.01"/>
              <line id="Línea_3434" data-name="Línea 3434" y2="1.121" transform="translate(357.459 198.351)" fill="none" stroke="#2e6adb" stroke-miterlimit="10" stroke-width="1"/>
              <path id="Trazado_1279479" data-name="Trazado 1279479" d="M560.595,335.347V238.136a9.425,9.425,0,0,0-9.426-9.422H392.608a9.423,9.423,0,0,0-9.427,9.422v97.211Z" transform="translate(-96.789 -57.772)" fill="#4e73a8"/>
              <path id="Trazado_1279480" data-name="Trazado 1279480" d="M555.823,337.126V245.751a8.658,8.658,0,0,0-8.659-8.659H401.48a8.66,8.66,0,0,0-8.66,8.659v91.374Z" transform="translate(-99.224 -59.888)" fill="#b8d0ff"/>
              <g id="Grupo_1213150" data-name="Grupo 1213150" transform="translate(297.473 177.204)" opacity="0.5" style="mix-blend-mode: multiply;isolation: isolate">
                <g id="Grupo_1213149" data-name="Grupo 1213149">
                  <g id="Grupo_1213148" data-name="Grupo 1213148" clip-path="url(#clip-path-5)">
                    <path id="Trazado_1279481" data-name="Trazado 1279481" d="M548.474,237.092H402.791a8.6,8.6,0,0,0-4.782,1.443l159.124,97.918v-90.7a8.658,8.658,0,0,0-8.659-8.659" transform="translate(-398.008 -237.092)" fill="#b8d0ff"/>
                  </g>
                </g>
              </g>
              <path id="Trazado_1279482" data-name="Trazado 1279482" d="M361.8,368.991v7.987a9.12,9.12,0,0,0,9.121,9.12H562.049a9.12,9.12,0,0,0,9.124-9.12v-7.987Z" transform="translate(-91.389 -93.205)" fill="#4e73a8"/>
              <path id="Trazado_1279483" data-name="Trazado 1279483" d="M568.447,368.991v1.99a8.828,8.828,0,0,1-8.83,8.827H374.651a8.827,8.827,0,0,1-8.828-8.827v-1.99H362.45v7.987a9.12,9.12,0,0,0,9.121,9.12H562.7a9.12,9.12,0,0,0,9.124-9.12v-7.987Z" transform="translate(-91.553 -93.205)" fill="#2d4c7f"/>
              <line id="Línea_3435" data-name="Línea 3435" x2="59.653" transform="translate(231.324 227.656)" fill="none" stroke="#2e6adb" stroke-miterlimit="10" stroke-width="1" stroke-dasharray="3 3"/>
              <rect id="Rectángulo_462717" data-name="Rectángulo 462717" width="78.89" height="48.847" transform="translate(136.482 75.984)" fill="#cae0ff"/>
              <path id="Trazado_1279484" data-name="Trazado 1279484" d="M182.607,150.51,221.5,101.663H182.607Z" transform="translate(-46.125 -25.68)" fill="#e1edff"/>
              <path id="Trazado_1279485" data-name="Trazado 1279485" d="M274.641,150.51V101.663h-40Z" transform="translate(-59.27 -25.68)" fill="#e1edff"/>
              <path id="Trazado_1279486" data-name="Trazado 1279486" d="M182.607,101.663l39.445,29.785L261.5,101.663Z" transform="translate(-46.125 -25.679)" fill="#fff"/>
              <line id="Línea_3436" data-name="Línea 3436" y1="29.515" x2="24.015" transform="translate(136.481 95.315)" fill="none" stroke="#26395e" stroke-miterlimit="10" stroke-width="0.5"/>
              <line id="Línea_3437" data-name="Línea 3437" x2="24.312" y2="29.132" transform="translate(191.059 95.698)" fill="none" stroke="#26395e" stroke-miterlimit="10" stroke-width="0.5"/>
              <path id="Trazado_1279487" data-name="Trazado 1279487" d="M460.491,331.4c0,2.124-1.131,3.049-3.136,3.049H374.192c-2,0-3.93-.925-3.93-3.049V274.68a3.944,3.944,0,0,1,3.93-3.783h83.163c2.005,0,3.136,1.66,3.136,3.783Z" transform="translate(-93.526 -68.427)" fill="#9ec0ff"/>
              <rect id="Rectángulo_462718" data-name="Rectángulo 462718" width="14.515" height="14.122" transform="translate(280.071 214.435)" fill="#fff"/>
              <rect id="Rectángulo_462719" data-name="Rectángulo 462719" width="14.514" height="14.122" transform="translate(297.332 214.435)" fill="#2e6adb"/>
              <rect id="Rectángulo_462720" data-name="Rectángulo 462720" width="14.516" height="14.122" transform="translate(314.2 214.435)" fill="#fff"/>
              <rect id="Rectángulo_462721" data-name="Rectángulo 462721" width="14.516" height="14.122" transform="translate(331.461 214.435)" fill="#fff"/>
              <rect id="Rectángulo_462722" data-name="Rectángulo 462722" width="14.513" height="14.122" transform="translate(348.725 214.435)" fill="#9ec0ff"/>
              <rect id="Rectángulo_462723" data-name="Rectángulo 462723" width="14.515" height="14.122" transform="translate(280.071 230.913)" fill="#fff"/>
              <rect id="Rectángulo_462724" data-name="Rectángulo 462724" width="14.516" height="14.122" transform="translate(314.2 230.913)" fill="#fff"/>
              <rect id="Rectángulo_462725" data-name="Rectángulo 462725" width="14.515" height="14.122" transform="translate(296.941 230.913)" fill="#fff"/>
              <rect id="Rectángulo_462726" data-name="Rectángulo 462726" width="14.516" height="14.122" transform="translate(331.461 230.913)" fill="#fff"/>
              <rect id="Rectángulo_462727" data-name="Rectángulo 462727" width="14.513" height="14.122" transform="translate(348.725 230.913)" fill="#fff"/>
              <rect id="Rectángulo_462728" data-name="Rectángulo 462728" width="14.515" height="14.123" transform="translate(280.071 247.781)" fill="#5d81ec"/>
              <rect id="Rectángulo_462729" data-name="Rectángulo 462729" width="14.515" height="14.123" transform="translate(314.594 247.781)" fill="#fff"/>
              <rect id="Rectángulo_462730" data-name="Rectángulo 462730" width="14.514" height="14.123" transform="translate(297.332 247.781)" fill="#fff"/>
              <rect id="Rectángulo_462731" data-name="Rectángulo 462731" width="14.516" height="14.123" transform="translate(331.461 247.781)" fill="#ffbf00"/>
              <rect id="Rectángulo_462732" data-name="Rectángulo 462732" width="14.513" height="14.123" transform="translate(348.725 247.781)" fill="#fff"/>
              <path id="Trazado_1279488" data-name="Trazado 1279488" d="M460.491,278.606v-4.033a5.8,5.8,0,0,0-6.059-5.774H376.4a5.865,5.865,0,0,0-6.138,5.774v4.033Z" transform="translate(-93.526 -67.897)" fill="#ffbf00"/>
              <rect id="Rectángulo_462733" data-name="Rectángulo 462733" width="6.513" height="13.63" transform="translate(245.292 50.661)" fill="#c1d7f8"/>
              <rect id="Rectángulo_462734" data-name="Rectángulo 462734" width="6.717" height="20.643" transform="translate(255.06 43.648)" fill="#c1d7f8"/>
              <rect id="Rectángulo_462735" data-name="Rectángulo 462735" width="7.328" height="25.54" transform="translate(266.458 38.751)" fill="#c1d7f8"/>
              <rect id="Rectángulo_462736" data-name="Rectángulo 462736" width="8.955" height="29.51" transform="translate(278.669 34.781)" fill="#c1d7f8"/>
              <rect id="Rectángulo_462737" data-name="Rectángulo 462737" width="50.889" height="2.761" transform="translate(240.484 62.442)" fill="#c1d7f8"/>
              <path id="Trazado_1279489" data-name="Trazado 1279489" d="M481.816,151.126V161.3l9.9-4.7Z" transform="translate(-121.704 -38.173)" fill="#5d81ec"/>
              <path id="Trazado_1279490" data-name="Trazado 1279490" d="M496.161,151.126V161.3l9.9-4.7Z" transform="translate(-125.327 -38.173)" fill="#5d81ec"/>
              <path id="Trazado_1279491" data-name="Trazado 1279491" d="M216.652,342.077H226.83l-4.7-12.527Z" transform="translate(-54.725 -83.242)" fill="#5d81ec"/>
              <path id="Trazado_1279492" data-name="Trazado 1279492" d="M216.652,323.92H226.83l-4.7-12.527Z" transform="translate(-54.725 -78.656)" fill="#5d81ec"/>
              <path id="Trazado_1279493" data-name="Trazado 1279493" d="M598.965,179.3v-3.943a1.655,1.655,0,0,0-1.656-1.657h-1.229a1.822,1.822,0,0,1-1.729-1.229,15.188,15.188,0,0,0-.679-1.636,1.834,1.834,0,0,1,.355-2.1l.865-.868a1.651,1.651,0,0,0,0-2.341l-2.782-2.788a1.658,1.658,0,0,0-2.343,0l-.87.868a1.831,1.831,0,0,1-2.1.357,14.567,14.567,0,0,0-1.636-.682,1.831,1.831,0,0,1-1.223-1.729v-1.225a1.656,1.656,0,0,0-1.657-1.656h-3.94a1.657,1.657,0,0,0-1.657,1.656v1.225a1.827,1.827,0,0,1-1.232,1.729,15.253,15.253,0,0,0-1.629.682,1.839,1.839,0,0,1-2.1-.357l-.863-.868a1.653,1.653,0,0,0-2.339,0l-2.79,2.788a1.656,1.656,0,0,0,0,2.341l.869.868a1.834,1.834,0,0,1,.356,2.1,14.2,14.2,0,0,0-.679,1.636,1.832,1.832,0,0,1-1.733,1.229h-1.227a1.655,1.655,0,0,0-1.653,1.657V179.3a1.651,1.651,0,0,0,1.653,1.65h1.227a1.834,1.834,0,0,1,1.733,1.23,14.561,14.561,0,0,0,.679,1.634,1.837,1.837,0,0,1-.356,2.1l-.869.864a1.656,1.656,0,0,0,0,2.341l2.79,2.792a1.659,1.659,0,0,0,2.339,0l.863-.868a1.855,1.855,0,0,1,2.1-.358,14.1,14.1,0,0,0,1.629.682,1.834,1.834,0,0,1,1.232,1.729v1.228a1.657,1.657,0,0,0,1.657,1.655h3.94a1.657,1.657,0,0,0,1.657-1.655V193.09a1.838,1.838,0,0,1,1.223-1.729,13.523,13.523,0,0,0,1.636-.682,1.846,1.846,0,0,1,2.1.358l.87.868a1.663,1.663,0,0,0,2.343,0l2.782-2.792a1.651,1.651,0,0,0,0-2.341l-.865-.864a1.837,1.837,0,0,1-.355-2.1,15.606,15.606,0,0,0,.679-1.634,1.824,1.824,0,0,1,1.729-1.23h1.229a1.652,1.652,0,0,0,1.656-1.65m-17.926,6.978a8.981,8.981,0,1,1,8.224-8.226,8.98,8.98,0,0,1-8.224,8.226" transform="translate(-141.873 -40.079)" fill="#ffbf00"/>
              <path id="Trazado_1279494" data-name="Trazado 1279494" d="M554.929,39.3c1.154-1.405,1.052-4.43.587-6.061-1.553-5.469-4.425-7.914-10.78-8.275-.532-9.276-13.411-16.7-29.23-16.7-15.937,0-28.889,7.537-29.24,16.91-.335-.028-.669-.055-1.01-.055-6.878,0-12.453,5.32-12.453,11.886a11.447,11.447,0,0,0,.306,2.614c-.1,0-.2-.007-.306-.007-.32,0-.635.011-.948.029h-.694a4.564,4.564,0,0,0-1.579.288,15.315,15.315,0,0,0-12.536,14.834c0,8.368,5.3,14.955,18.285,14.956h80.126c6.98,0,11.592-8.917,11.592-15.267,0-7.814-5.293-14.249-12.118-15.151" transform="translate(-115.447 -2.088)" fill="#5d81ec"/>
              <path id="Trazado_1279495" data-name="Trazado 1279495" d="M517.214,49.257a9.923,9.923,0,0,0,4.566,8.35l-2.769,2.1a13.23,13.23,0,0,1-.453-20.533l2.956,1.909a9.926,9.926,0,0,0-4.3,8.173" transform="translate(-129.806 -9.895)" fill="#fff"/>
              <path id="Trazado_1279496" data-name="Trazado 1279496" d="M496.868,46.877A25.893,25.893,0,0,0,504.4,65.141l2.674-2.028a22.593,22.593,0,0,1-.907-31.548l-2.818-1.823a25.856,25.856,0,0,0-6.478,17.135" transform="translate(-125.506 -7.513)" fill="#fff"/>
              <path id="Trazado_1279497" data-name="Trazado 1279497" d="M511.754,62.406l2.7-2.043a16.186,16.186,0,0,1-.6-24.043L511,34.476a19.5,19.5,0,0,0,.759,27.93" transform="translate(-127.68 -8.708)" fill="#fff"/>
              <path id="Trazado_1279498" data-name="Trazado 1279498" d="M537.09,41.084l2.955-1.91a13.23,13.23,0,0,1-.452,20.534l-2.77-2.1a9.917,9.917,0,0,0,.267-16.522" transform="translate(-135.598 -9.895)" fill="#fff"/>
              <path id="Trazado_1279499" data-name="Trazado 1279499" d="M554.476,29.742l-2.82,1.823a22.593,22.593,0,0,1-.908,31.547l2.676,2.028a25.913,25.913,0,0,0,1.052-35.4" transform="translate(-139.116 -7.513)" fill="#fff"/>
              <path id="Trazado_1279500" data-name="Trazado 1279500" d="M552.761,48.07a19.456,19.456,0,0,0-5.524-13.593l-2.854,1.843a16.18,16.18,0,0,1-.6,24.043l2.7,2.044a19.486,19.486,0,0,0,6.28-14.337" transform="translate(-137.357 -8.709)" fill="#fff"/>
              <path id="Trazado_1279501" data-name="Trazado 1279501" d="M523.151,51.815a4.758,4.758,0,1,0,4.756-4.758,4.758,4.758,0,0,0-4.756,4.758" transform="translate(-132.145 -11.886)" fill="#fff"/>
              <line id="Línea_3438" data-name="Línea 3438" x1="1.121" transform="translate(197.472 267.969)" fill="none" stroke="#2e6adb" stroke-miterlimit="10" stroke-width="1"/>
              <path id="Trazado_1279502" data-name="Trazado 1279502" d="M207.063,325.419H70.269a23.487,23.487,0,0,1-23.487-23.488v-74.49" transform="translate(-11.817 -57.45)" fill="none" stroke="#2e6adb" stroke-miterlimit="10" stroke-width="1" stroke-dasharray="2.978 2.978"/>
              <line id="Línea_3439" data-name="Línea 3439" y1="1.121" transform="translate(34.965 167.756)" fill="none" stroke="#2e6adb" stroke-miterlimit="10" stroke-width="1"/>
              <rect id="Rectángulo_462738" data-name="Rectángulo 462738" width="52.188" height="82.893" transform="translate(177.016 208.299)" fill="#4e73a8"/>
              <rect id="Rectángulo_462739" data-name="Rectángulo 462739" width="52.188" height="7.31" transform="translate(177.016 285.581)" fill="#2d4c7f"/>
              <path id="Trazado_1279503" data-name="Trazado 1279503" d="M286.3,367.743a5.992,5.992,0,0,1-5.993,5.993H248.345a5.993,5.993,0,1,1,0-11.987H280.31a5.992,5.992,0,0,1,5.993,5.993" transform="translate(-61.216 -91.376)" fill="#2d4c7f"/>
              <rect id="Rectángulo_462740" data-name="Rectángulo 462740" width="36.657" height="7.638" transform="translate(184.963 272.548)" fill="#5d81ec"/>
              <rect id="Rectángulo_462741" data-name="Rectángulo 462741" width="2.195" height="2.197" transform="translate(204.061 274.17)" fill="#fff"/>
              <rect id="Rectángulo_462742" data-name="Rectángulo 462742" width="2.193" height="2.197" transform="translate(207.342 274.17)" fill="#ffbf00"/>
              <rect id="Rectángulo_462743" data-name="Rectángulo 462743" width="2.195" height="2.197" transform="translate(210.739 274.17)" fill="#fff"/>
              <rect id="Rectángulo_462744" data-name="Rectángulo 462744" width="2.195" height="2.197" transform="translate(217.065 274.17)" fill="#ffbf00"/>
              <path id="Trazado_1279504" data-name="Trazado 1279504" d="M286.3,347.85a5.993,5.993,0,0,1-5.993,5.995H248.345a5.993,5.993,0,1,1,0-11.987H280.31a5.992,5.992,0,0,1,5.993,5.992" transform="translate(-61.216 -86.351)" fill="#2d4c7f"/>
              <rect id="Rectángulo_462745" data-name="Rectángulo 462745" width="36.657" height="7.639" transform="translate(184.963 257.681)" fill="#5d81ec"/>
              <rect id="Rectángulo_462746" data-name="Rectángulo 462746" width="2.195" height="2.194" transform="translate(204.061 259.304)" fill="#ffbf00"/>
              <rect id="Rectángulo_462747" data-name="Rectángulo 462747" width="2.197" height="2.194" transform="translate(200.714 259.304)" fill="#ffbf00"/>
              <rect id="Rectángulo_462748" data-name="Rectángulo 462748" width="2.196" height="2.194" transform="translate(213.975 259.304)" fill="#fff"/>
              <rect id="Rectángulo_462749" data-name="Rectángulo 462749" width="2.195" height="2.194" transform="translate(210.739 259.304)" fill="#ffbf00"/>
              <rect id="Rectángulo_462750" data-name="Rectángulo 462750" width="2.195" height="2.194" transform="translate(217.065 259.304)" fill="#ffbf00"/>
              <path id="Trazado_1279505" data-name="Trazado 1279505" d="M286.3,327.959a5.991,5.991,0,0,1-5.993,5.993H248.345a5.993,5.993,0,1,1,0-11.986H280.31a5.993,5.993,0,0,1,5.993,5.993" transform="translate(-61.216 -81.327)" fill="#2d4c7f"/>
              <rect id="Rectángulo_462751" data-name="Rectángulo 462751" width="36.657" height="7.638" transform="translate(184.963 242.815)" fill="#5d81ec"/>
              <rect id="Rectángulo_462752" data-name="Rectángulo 462752" width="2.196" height="2.197" transform="translate(213.975 244.436)" fill="#ffbf00"/>
              <rect id="Rectángulo_462753" data-name="Rectángulo 462753" width="2.193" height="2.197" transform="translate(207.342 244.436)" fill="#ffbf00"/>
              <rect id="Rectángulo_462754" data-name="Rectángulo 462754" width="2.195" height="2.197" transform="translate(210.739 244.436)" fill="#fff"/>
              <rect id="Rectángulo_462755" data-name="Rectángulo 462755" width="2.195" height="2.197" transform="translate(217.065 244.436)" fill="#ffbf00"/>
              <path id="Trazado_1279506" data-name="Trazado 1279506" d="M286.3,308.069a5.991,5.991,0,0,1-5.993,5.993H248.345a5.993,5.993,0,1,1,0-11.987H280.31a5.993,5.993,0,0,1,5.993,5.994" transform="translate(-61.216 -76.302)" fill="#2d4c7f"/>
              <rect id="Rectángulo_462756" data-name="Rectángulo 462756" width="36.657" height="7.638" transform="translate(184.963 227.949)" fill="#5d81ec"/>
              <rect id="Rectángulo_462757" data-name="Rectángulo 462757" width="2.195" height="2.196" transform="translate(204.061 229.57)" fill="#fff"/>
              <rect id="Rectángulo_462758" data-name="Rectángulo 462758" width="2.194" height="2.195" transform="translate(198.061 229.572)" fill="#ffbf00"/>
              <rect id="Rectángulo_462759" data-name="Rectángulo 462759" width="2.193" height="2.196" transform="translate(207.342 229.57)" fill="#ffbf00"/>
              <rect id="Rectángulo_462760" data-name="Rectángulo 462760" width="2.196" height="2.196" transform="translate(213.975 229.57)" fill="#fff"/>
              <rect id="Rectángulo_462761" data-name="Rectángulo 462761" width="2.195" height="2.196" transform="translate(210.739 229.57)" fill="#ffbf00"/>
              <rect id="Rectángulo_462762" data-name="Rectángulo 462762" width="2.195" height="2.196" transform="translate(217.065 229.57)" fill="#ffbf00"/>
              <path id="Trazado_1279507" data-name="Trazado 1279507" d="M286.3,288.177a5.993,5.993,0,0,1-5.993,5.994H248.345a5.995,5.995,0,1,1,0-11.989H280.31a5.994,5.994,0,0,1,5.993,5.995" transform="translate(-61.216 -71.278)" fill="#2d4c7f"/>
              <rect id="Rectángulo_462763" data-name="Rectángulo 462763" width="36.657" height="7.638" transform="translate(184.963 213.082)" fill="#5d81ec"/>
              <rect id="Rectángulo_462764" data-name="Rectángulo 462764" width="2.195" height="2.197" transform="translate(204.061 214.703)" fill="#ffbf00"/>
              <rect id="Rectángulo_462765" data-name="Rectángulo 462765" width="2.193" height="2.197" transform="translate(207.342 214.703)" fill="#fff"/>
              <rect id="Rectángulo_462766" data-name="Rectángulo 462766" width="2.195" height="2.197" transform="translate(210.739 214.703)" fill="#ffbf00"/>
              <rect id="Rectángulo_462767" data-name="Rectángulo 462767" width="2.196" height="2.197" transform="translate(213.975 214.703)" fill="#ffbf00"/>
              <rect id="Rectángulo_462768" data-name="Rectángulo 462768" width="2.195" height="2.197" transform="translate(217.065 214.703)" fill="#ffbf00"/>
              <line id="Línea_3440" data-name="Línea 3440" y2="68.505" transform="translate(179.721 211.626)" fill="none" stroke="#2d4c7f" stroke-miterlimit="10" stroke-width="0.5"/>
              <line id="Línea_3441" data-name="Línea 3441" y2="68.505" transform="translate(226.5 211.626)" fill="none" stroke="#2d4c7f" stroke-miterlimit="10" stroke-width="0.5"/>
              <path id="Rectángulo_462769" data-name="Rectángulo 462769" d="M3.824,0h7.5a3.825,3.825,0,0,1,3.825,3.825v.639a3.825,3.825,0,0,1-3.825,3.825h-7.5A3.825,3.825,0,0,1,0,4.464v-.64A3.824,3.824,0,0,1,3.824,0Z" transform="translate(246.777 137.511)" fill="#2d4c7f"/>
              <path id="Rectángulo_462770" data-name="Rectángulo 462770" d="M3.824,0h7.5a3.825,3.825,0,0,1,3.825,3.825v.639a3.825,3.825,0,0,1-3.825,3.825h-7.5A3.825,3.825,0,0,1,0,4.464v-.64A3.824,3.824,0,0,1,3.824,0Z" transform="translate(246.777 146.8)" fill="#2d4c7f"/>
              <path id="Trazado_1279508" data-name="Trazado 1279508" d="M295.7,223.506V164.4a5.315,5.315,0,0,1,5.309-5.31h29.03a5.315,5.315,0,0,1,5.308,5.31v59.1a5.313,5.313,0,0,1-5.308,5.308h-29.03a5.313,5.313,0,0,1-5.309-5.308m5.309-62.374a3.275,3.275,0,0,0-3.271,3.271v59.1a3.275,3.275,0,0,0,3.271,3.271h29.03a3.275,3.275,0,0,0,3.271-3.271V164.4a3.275,3.275,0,0,0-3.271-3.271Z" transform="translate(-74.692 -40.186)" fill="#2d4c7f"/>
              <path id="Trazado_1279509" data-name="Trazado 1279509" d="M298.278,223.286a4.165,4.165,0,0,0,4.1,4.224h27.778a4.165,4.165,0,0,0,4.1-4.224V165.115a4.165,4.165,0,0,0-4.1-4.223H302.383a4.165,4.165,0,0,0-4.1,4.223Z" transform="translate(-75.343 -40.64)" fill="#b8d0ff"/>
              <rect id="Rectángulo_462771" data-name="Rectángulo 462771" width="27.106" height="2.78" transform="translate(227.375 126.317)" fill="#e1edff"/>
              <rect id="Rectángulo_462772" data-name="Rectángulo 462772" width="17.376" height="2.78" transform="translate(227.376 130.951)" fill="#e1edff"/>
              <rect id="Rectángulo_462773" data-name="Rectángulo 462773" width="25.021" height="2.78" transform="translate(227.375 169.642)" fill="#e1edff"/>
              <rect id="Rectángulo_462774" data-name="Rectángulo 462774" width="25.021" height="2.78" transform="translate(227.375 174.275)" fill="#e1edff"/>
              <rect id="Rectángulo_462775" data-name="Rectángulo 462775" width="20.155" height="2.78" transform="translate(227.375 179.14)" fill="#e1edff"/>
              <g id="Grupo_1213153" data-name="Grupo 1213153" transform="translate(222.935 120.5)" opacity="0.3" style="mix-blend-mode: multiply;isolation: isolate">
                <g id="Grupo_1213152" data-name="Grupo 1213152">
                  <g id="Grupo_1213151" data-name="Grupo 1213151" clip-path="url(#clip-path-6)">
                    <path id="Trazado_1279510" data-name="Trazado 1279510" d="M333.524,222.724a56.712,56.712,0,0,1-8.357-6.523c-5.338-4.9-9.565-11.364-12.849-17.779a93.182,93.182,0,0,1-7.538-21.062c-.916-3.849-1.723-7.721-2.6-11.579-.34-1.5-.863-3.022-1.172-4.558a4.212,4.212,0,0,0-2.728,3.974v58.171a4.166,4.166,0,0,0,4.1,4.225h27.778a4.165,4.165,0,0,0,4.1-4.225v-.216c-.253-.14-.5-.28-.742-.429" transform="translate(-298.278 -161.224)" fill="#b8d0ff"/>
                  </g>
                </g>
              </g>
              <path id="Trazado_1279511" data-name="Trazado 1279511" d="M224.528,8.268h-69.4a7.462,7.462,0,0,0-7.462,7.461V39.856a7.463,7.463,0,0,0,7.462,7.462h45.673c2.979,2.481,7.187,6.506,7.932,9.982,1.174,5.481.391,6.851.391,6.851s9.76-10.517,8.318-16.833h7.082a7.463,7.463,0,0,0,7.462-7.462V15.729a7.462,7.462,0,0,0-7.462-7.461" transform="translate(-37.301 -2.088)" fill="#5d81ec"/>
              <g id="Grupo_1213156" data-name="Grupo 1213156" transform="translate(110.369 6.304)" opacity="0.4" style="mix-blend-mode: multiply;isolation: isolate">
                <g id="Grupo_1213155" data-name="Grupo 1213155">
                  <g id="Grupo_1213154" data-name="Grupo 1213154" clip-path="url(#clip-path-7)">
                    <path id="Trazado_1279512" data-name="Trazado 1279512" d="M228.162,46.413a24.25,24.25,0,0,0-9.517-7.914c-11.057-4.961-23.929-.907-35.518-3.485C170.1,32.117,154.121,23.035,153.8,8.435a7.462,7.462,0,0,0-6.129,7.337V39.9a7.463,7.463,0,0,0,7.462,7.463H200.8c2.98,2.481,7.187,6.506,7.932,9.982,1.174,5.48.392,6.851.392,6.851s9.76-10.516,8.317-16.832h7.082a7.413,7.413,0,0,0,3.634-.948" transform="translate(-147.67 -8.435)" fill="#5d81ec"/>
                  </g>
                </g>
              </g>
              <path id="Trazado_1279513" data-name="Trazado 1279513" d="M183.617,27.2a5.089,5.089,0,1,1-5.089-5.089,5.089,5.089,0,0,1,5.089,5.089" transform="translate(-43.81 -5.584)" fill="#fff"/>
              <path id="Trazado_1279514" data-name="Trazado 1279514" d="M207.448,27.2a5.089,5.089,0,1,1-5.089-5.089,5.089,5.089,0,0,1,5.089,5.089" transform="translate(-49.829 -5.584)" fill="#fff"/>
              <path id="Trazado_1279515" data-name="Trazado 1279515" d="M231.278,27.2a5.089,5.089,0,1,1-5.089-5.089,5.089,5.089,0,0,1,5.089,5.089" transform="translate(-55.849 -5.584)" fill="#fff"/>
              <path id="Trazado_1279516" data-name="Trazado 1279516" d="M590.661,339.128c0,3.031-1.613,4.349-4.478,4.349h-118.7c-2.862,0-5.608-1.318-5.608-4.349V258.166a5.628,5.628,0,0,1,5.608-5.4h118.7c2.866,0,4.478,2.369,4.478,5.4Z" transform="translate(-116.666 -63.847)" fill="#cfe3ff"/>
              <path id="Trazado_1279517" data-name="Trazado 1279517" d="M590.661,263.768v-5.757c0-4.806-3.842-8.241-8.648-8.241H470.634c-4.8,0-8.761,3.435-8.761,8.241v5.757Z" transform="translate(-116.666 -63.09)" fill="#5d81ec"/>
              <rect id="Rectángulo_462778" data-name="Rectángulo 462778" width="111.875" height="35.16" transform="translate(352.859 203.146)" fill="#2e6adb"/>
              <path id="Trazado_1279518" data-name="Trazado 1279518" d="M492.314,285.293a4.927,4.927,0,0,0,3.088-4.745c.005-2.742-1.929-4.968-4.322-4.973s-4.335,2.215-4.341,4.956a4.929,4.929,0,0,0,3.07,4.759,10.181,10.181,0,0,0-8.976,10.068l-.013,6.775,20.417.038.013-6.774a10.182,10.182,0,0,0-8.937-10.1" transform="translate(-121.453 -69.608)" fill="#9ec0ff"/>
              <g id="Grupo_1213159" data-name="Grupo 1213159" transform="translate(359.368 215.697)" opacity="0.3" style="mix-blend-mode: multiply;isolation: isolate">
                <g id="Grupo_1213158" data-name="Grupo 1213158">
                  <g id="Grupo_1213157" data-name="Grupo 1213157" clip-path="url(#clip-path-8)">
                    <path id="Trazado_1279519" data-name="Trazado 1279519" d="M489.707,288.594a10.179,10.179,0,0,0-8.875,10.051l-.013,6.776,20.418.037,0-2.31c-6.883-1.543-10.295-7.776-11.534-14.554" transform="translate(-480.821 -288.594)" fill="#2e6adb"/>
                  </g>
                </g>
              </g>
              <rect id="Rectángulo_462780" data-name="Rectángulo 462780" width="109.476" height="1.998" transform="translate(354.858 242.701)" fill="#7fabef"/>
              <rect id="Rectángulo_462781" data-name="Rectángulo 462781" width="25.571" height="12.785" transform="translate(354.858 248.296)" fill="#7fabef"/>
              <rect id="Rectángulo_462782" data-name="Rectángulo 462782" width="69.921" height="1.997" transform="translate(393.215 250.293)" fill="#7fabef"/>
              <rect id="Rectángulo_462783" data-name="Rectángulo 462783" width="68.722" height="3.197" transform="translate(394.414 256.286)" fill="#7fabef"/>
              <rect id="Rectángulo_462784" data-name="Rectángulo 462784" width="108.677" height="3.196" transform="translate(354.859 265.875)" fill="#7fabef"/>
              <rect id="Rectángulo_462785" data-name="Rectángulo 462785" width="7.591" height="1.998" transform="translate(356.056 193.024)" fill="#fff"/>
              <rect id="Rectángulo_462786" data-name="Rectángulo 462786" width="7.592" height="1.998" transform="translate(367.443 193.024)" fill="#fff"/>
              <rect id="Rectángulo_462787" data-name="Rectángulo 462787" width="7.591" height="1.998" transform="translate(378.831 193.024)" fill="#fff"/>
              <line id="Línea_3442" data-name="Línea 3442" x2="102.818" transform="translate(355.744 272.336)" fill="none" stroke="#26395e" stroke-miterlimit="10" stroke-width="0.5"/>
              <line id="Línea_3443" data-name="Línea 3443" x2="69.255" transform="translate(394.634 262.213)" fill="none" stroke="#26395e" stroke-miterlimit="10" stroke-width="0.5"/>
              <line id="Línea_3444" data-name="Línea 3444" x2="66.591" transform="translate(394.101 248.362)" fill="none" stroke="#26395e" stroke-miterlimit="10" stroke-width="0.5"/>
              <path id="Trazado_1279520" data-name="Trazado 1279520" d="M131.562,168.292c0,2.969-1.581,4.262-4.387,4.262H10.878c-2.805,0-5.495-1.292-5.495-4.262V88.969a5.513,5.513,0,0,1,5.495-5.289h116.3c2.807,0,4.387,2.319,4.387,5.289Z" transform="translate(-1.36 -21.137)" fill="#cfe3ff"/>
              <path id="Trazado_1279521" data-name="Trazado 1279521" d="M131.562,94.458v-5.64c0-4.709-3.764-8.075-8.474-8.075H13.967c-4.707,0-8.584,3.366-8.584,8.075v5.64Z" transform="translate(-1.36 -20.395)" fill="#5d81ec"/>
              <rect id="Rectángulo_462788" data-name="Rectángulo 462788" width="41.494" height="34.449" transform="translate(78.852 83.201)" fill="#fff"/>
              <path id="Trazado_1279522" data-name="Trazado 1279522" d="M130.53,126.023a4.83,4.83,0,0,0,3.025-4.65c.005-2.685-1.89-4.867-4.234-4.871s-4.247,2.168-4.253,4.855a4.83,4.83,0,0,0,3.008,4.662,9.974,9.974,0,0,0-8.794,9.864l-.012,6.638,20,.037.013-6.638a9.974,9.974,0,0,0-8.757-9.9" transform="translate(-30.127 -29.428)" fill="#9ec0ff"/>
              <g id="Grupo_1213162" data-name="Grupo 1213162" transform="translate(89.143 96.607)" opacity="0.3" style="mix-blend-mode: multiply;isolation: isolate">
                <g id="Grupo_1213161" data-name="Grupo 1213161">
                  <g id="Grupo_1213160" data-name="Grupo 1213160" clip-path="url(#clip-path-9)">
                    <path id="Trazado_1279523" data-name="Trazado 1279523" d="M127.977,129.256a9.972,9.972,0,0,0-8.695,9.849l-.012,6.638,20,.037,0-2.264c-6.745-1.511-10.088-7.618-11.3-14.26" transform="translate(-119.27 -129.256)" fill="#2e6adb"/>
                  </g>
                </g>
              </g>
              <rect id="Rectángulo_462790" data-name="Rectángulo 462790" width="7.437" height="1.957" transform="translate(14.654 66.565)" fill="#fff"/>
              <rect id="Rectángulo_462791" data-name="Rectángulo 462791" width="7.438" height="1.957" transform="translate(25.809 66.565)" fill="#fff"/>
              <rect id="Rectángulo_462792" data-name="Rectángulo 462792" width="7.437" height="1.957" transform="translate(36.967 66.565)" fill="#fff"/>
              <rect id="Rectángulo_462793" data-name="Rectángulo 462793" width="28.968" height="57.153" transform="translate(13.043 83.201)" fill="#7fabef"/>
              <rect id="Rectángulo_462794" data-name="Rectángulo 462794" width="28.968" height="57.153" transform="translate(45.143 83.201)" fill="#9ec0ff"/>
              <rect id="Rectángulo_462795" data-name="Rectángulo 462795" width="41.885" height="3.86" transform="translate(78.808 121.172)" fill="#7fabef"/>
              <rect id="Rectángulo_462796" data-name="Rectángulo 462796" width="32.864" height="4.135" transform="translate(78.808 128.892)" fill="#7fabef"/>
              <rect id="Rectángulo_462797" data-name="Rectángulo 462797" width="39.953" height="3.032" transform="translate(78.807 137.712)" fill="#7fabef"/>
              <line id="Línea_3445" data-name="Línea 3445" y2="50.106" transform="translate(16.958 85.55)" fill="none" stroke="#26395e" stroke-miterlimit="10" stroke-width="0.5"/>
              <line id="Línea_3446" data-name="Línea 3446" y2="48.54" transform="translate(48.274 85.941)" fill="none" stroke="#26395e" stroke-miterlimit="10" stroke-width="0.5"/>
              <line id="Línea_3447" data-name="Línea 3447" x2="101.386" transform="translate(16.175 144.269)" fill="none" stroke="#26395e" stroke-miterlimit="10" stroke-width="0.5"/>
              <line id="Línea_3448" data-name="Línea 3448" x2="105.693" transform="translate(13.043 78.895)" fill="none" stroke="#26395e" stroke-miterlimit="10" stroke-width="0.5"/>
              <path id="Trazado_1279524" data-name="Trazado 1279524" d="M188.525,141.9c-2.131-3.727-6.62-6.3-11.828-6.3H145.129v57.046h70.15V141.9Z" transform="translate(-36.659 -34.252)" fill="#5d81ec"/>
              <path id="Trazado_1279525" data-name="Trazado 1279525" d="M215.728,197.263V161.058a8.4,8.4,0,0,0-8.4-8.4H152.614a8.4,8.4,0,0,0-8.4,8.4v36.206Z" transform="translate(-36.429 -38.562)" fill="#ffc800"/>
              <g id="Grupo_1213165" data-name="Grupo 1213165" transform="translate(107.789 114.101)" opacity="0.2">
                <g id="Grupo_1213164" data-name="Grupo 1213164">
                  <g id="Grupo_1213163" data-name="Grupo 1213163" clip-path="url(#clip-path-10)">
                    <path id="Trazado_1279526" data-name="Trazado 1279526" d="M215.728,186.168c-5.527-3.65-12.953-4.174-19.84-4.33-7.034-.162-14.384,0-21.161-2.185a31.641,31.641,0,0,1-11.7-6.947c-5.3-4.824-11.394-12.519-10.083-20.043h-.329a8.4,8.4,0,0,0-8.4,8.395v36.207h71.51Z" transform="translate(-144.218 -152.663)" fill="#ffa607"/>
                  </g>
                </g>
              </g>
              <path id="Trazado_1279527" data-name="Trazado 1279527" d="M357.578,139.475a3.012,3.012,0,0,0,.022,6.025l45.265-.183a3.013,3.013,0,0,0-.022-6.026Z" transform="translate(-89.564 -35.184)" fill="#5d81ec"/>
              <path id="Trazado_1279528" data-name="Trazado 1279528" d="M394.161,146.97l-38.03.152a5.444,5.444,0,1,1-.04-10.887l38.027-.155Z" transform="translate(-88.576 -34.373)" fill="#2e6adb"/>
              <g id="Grupo_1213168" data-name="Grupo 1213168" transform="translate(262.091 102.573)" opacity="0.3" style="mix-blend-mode: multiply;isolation: isolate">
                <g id="Grupo_1213167" data-name="Grupo 1213167">
                  <g id="Grupo_1213166" data-name="Grupo 1213166" clip-path="url(#clip-path-11)">
                    <path id="Trazado_1279529" data-name="Trazado 1279529" d="M353.42,137.357a5.441,5.441,0,0,0,5.466,5.422l35.257-.141.019,4.625-38.029.152a5.441,5.441,0,0,1-2.706-10.176c0,.04-.007.078-.006.118" transform="translate(-350.667 -137.239)" fill="#0093cc"/>
                  </g>
                </g>
              </g>
              <path id="Trazado_1279530" data-name="Trazado 1279530" d="M438.822,113.97a20.618,20.618,0,1,0,19.855,21.351,20.617,20.617,0,0,0-19.855-21.351" transform="translate(-105.447 -28.785)" fill="#ffbf00"/>
              <path id="Trazado_1279531" data-name="Trazado 1279531" d="M440.514,120.916a15.386,15.386,0,1,0,14.818,15.934,15.386,15.386,0,0,0-14.818-15.934" transform="translate(-107.244 -30.54)" fill="#b8d0ff"/>
              <g id="Grupo_1213171" data-name="Grupo 1213171" transform="translate(317.154 94.225)" opacity="0.4">
                <g id="Grupo_1213170" data-name="Grupo 1213170">
                  <g id="Grupo_1213169" data-name="Grupo 1213169" clip-path="url(#clip-path-12)">
                    <path id="Trazado_1279532" data-name="Trazado 1279532" d="M450.04,144.587a23.558,23.558,0,0,0,3.625-.146A15.461,15.461,0,1,1,429.5,126.069c.418,9.947,9.319,18.109,20.539,18.518" transform="translate(-424.34 -126.069)" fill="#7fabef"/>
                  </g>
                </g>
              </g>
              <path id="Trazado_1279533" data-name="Trazado 1279533" d="M431.014,135.147a13.3,13.3,0,0,0,12.015,14.489" transform="translate(-108.857 -34.137)" fill="none" stroke="#26395e" stroke-miterlimit="10" stroke-width="0.5"/>
              <rect id="Rectángulo_462801" data-name="Rectángulo 462801" width="53.238" height="38.905" transform="translate(69.574 246.826)" fill="#ffbf00"/>
              <path id="Trazado_1279534" data-name="Trazado 1279534" d="M114.56,341.9v21.486L140.4,353.206Z" transform="translate(-28.937 -86.361)" fill="#fff"/>
              <path id="Trazado_1279535" data-name="Trazado 1279535" d="M111.156,347.985V367.95l29.359-11.744" transform="translate(-28.077 -87.899)" fill="none" stroke="#26395e" stroke-miterlimit="10" stroke-width="0.5"/>
              <path id="Trazado_1279536" data-name="Trazado 1279536" d="M39.318,261.131c-6.7,4.44-14.855,6.774-23.977,7.689,2.735,19.792,11.416,32.576,23.977,40.786C51.88,301.4,60.56,288.612,63.3,268.82c-9.118-.915-17.271-3.249-23.978-7.689" transform="translate(-3.875 -65.96)" fill="#2e6adb"/>
              <path id="Trazado_1279537" data-name="Trazado 1279537" d="M40.715,266.722c-5.549,3.674-12.295,5.6-19.844,6.364,2.262,16.378,9.448,26.957,19.844,33.752,10.4-6.795,17.581-17.374,19.844-33.752-7.547-.759-14.293-2.69-19.844-6.364" transform="translate(-5.272 -67.372)" fill="#7fabef"/>
              <path id="Trazado_1279538" data-name="Trazado 1279538" d="M40.715,266.723c-5.549,3.673-12.295,5.6-19.844,6.363,2.262,16.378,9.448,26.957,19.844,33.752Z" transform="translate(-5.272 -67.373)" fill="#5d81ec"/>
              <path id="Trazado_1279539" data-name="Trazado 1279539" d="M33.507,286.335l3.142-3.2,7.026,7.074,9.787-9.555,3.449,2.911S43.835,297.11,43.752,296.928s-10.245-10.593-10.245-10.593" transform="translate(-8.464 -70.891)" fill="#fff"/>
              <g id="Grupo_1213174" data-name="Grupo 1213174" transform="translate(25.044 212.242)" opacity="0.5">
                <g id="Grupo_1213173" data-name="Grupo 1213173">
                  <g id="Grupo_1213172" data-name="Grupo 1213172" clip-path="url(#clip-path-13)">
                    <path id="Trazado_1279540" data-name="Trazado 1279540" d="M43.906,290.816l-.232.229-7.026-7.074-3.142,3.2s10.162,10.408,10.245,10.593c0,.01.06-.031.154-.115Z" transform="translate(-33.507 -283.971)" fill="#bed1fa"/>
                  </g>
                </g>
              </g>
            </g>
          </g>
        </g>
      </g>
    </g>
  </g>
</svg>
