<svg xmlns="http://www.w3.org/2000/svg" xmlns:xlink="http://www.w3.org/1999/xlink" width="96" height="96" viewBox="0 0 96 96">
  <defs>
    <clipPath id="clip-path">
      <rect id="Rectángulo_454829" data-name="Rectángulo 454829" width="96" height="96" fill="#1e535a"/>
    </clipPath>
    <clipPath id="clip-path-2">
      <rect id="Rectángulo_462808" data-name="Rectángulo 462808" width="34.211" height="33.762" fill="#1e535a"/>
    </clipPath>
  </defs>
  <g id="Grupo_1212259" data-name="Grupo 1212259" transform="translate(-1481 -8562.5)">
    <g id="Grupo_1177591" data-name="Grupo 1177591" transform="translate(1481 8562.5)">
      <g id="Grupo_1177589" data-name="Grupo 1177589" transform="translate(0 0)">
        <g id="Grupo_1177587" data-name="Grupo 1177587" clip-path="url(#clip-path)">
          <path id="Trazado_997422" data-name="Trazado 997422" d="M92.081,42.491a44.136,44.136,0,0,0-9.97-22.967,5.076,5.076,0,0,0-7.142-6.838A44.071,44.071,0,0,0,52.151,3.77a5.077,5.077,0,0,0-9.861.2A44.132,44.132,0,0,0,20.4,13.329a5.079,5.079,0,0,0-7.048,7.1A44.1,44.1,0,0,0,4.112,42.448,5.08,5.08,0,0,0,3.99,52.4a44.082,44.082,0,0,0,8.949,22.468,5.078,5.078,0,0,0,6.9,7.17,44.128,44.128,0,0,0,22.412,9.8,5.078,5.078,0,0,0,9.949.2,44.091,44.091,0,0,0,22.985-9.08,5.077,5.077,0,0,0,7.107-6.874A44.147,44.147,0,0,0,92.2,52.349a5.078,5.078,0,0,0-.119-9.858M77.74,22.024a5.05,5.05,0,0,0,2.812-.851,41.913,41.913,0,0,1,9.25,21.3,5.086,5.086,0,0,0-3.246,2.351l-12.98-4.867c.01-.142.02-.286.02-.433a5.079,5.079,0,0,0-2.151-4.15l5.678-13.4a5.5,5.5,0,0,0,.616.041M75,21.216,69.354,34.523a5.026,5.026,0,0,0-5.594,3.23L40.279,32.344a4.941,4.941,0,0,0-.106-1.011l33.322-11.6A5.1,5.1,0,0,0,75,21.216M47.246,10.165a5.083,5.083,0,0,0,4.989-4.122,41.844,41.844,0,0,1,21.158,8.275,5.054,5.054,0,0,0-.735,2.625,5.335,5.335,0,0,0,.048.671L39.217,29.273a5.1,5.1,0,0,0-.92-.92l8.784-18.2c.056,0,.109.008.165.008M42.3,6.243A5.083,5.083,0,0,0,44.86,9.569L36.248,27.4a5.1,5.1,0,0,0-1.049-.109,5.045,5.045,0,0,0-2.9.91L22.1,19.678A5.052,5.052,0,0,0,21.923,15,41.877,41.877,0,0,1,42.3,6.243M10.041,46.332,31.153,35.442a5.064,5.064,0,0,0,4.006,2.014l7.236,23.129a5.166,5.166,0,0,0-1.12,1.239l-31.3-13.04a5.048,5.048,0,0,0,.187-1.348,5.107,5.107,0,0,0-.124-1.1m4.986-24.391a5.079,5.079,0,0,0,5.673-.484l10.079,8.417a5.068,5.068,0,0,0-.56,3.512L9.07,44.29A5.081,5.081,0,0,0,6.38,42.526a41.859,41.859,0,0,1,8.647-20.585m2.1,50.717a5.067,5.067,0,0,0-2.523.674A41.822,41.822,0,0,1,6.263,52.374,5.087,5.087,0,0,0,8.9,50.783l31.609,13.17a5.45,5.45,0,0,0-.041.611,5.081,5.081,0,0,0,.3,1.718L21.657,75.44a5.081,5.081,0,0,0-4.528-2.782M42.349,89.575a41.919,41.919,0,0,1-20.912-9.149,5.029,5.029,0,0,0,.775-2.686l0-.058L42,68.2A5.082,5.082,0,0,0,43.8,69.329l1.186,17.043a5.082,5.082,0,0,0-2.632,3.2m2.105-29.97-7.081-22.64a5.089,5.089,0,0,0,2.415-2.415L63.459,40a5.052,5.052,0,0,0,.808,2.311L48.032,60.13a5.019,5.019,0,0,0-3.577-.524m7.74,30.167a5.081,5.081,0,0,0-4.948-3.937l-.038,0L46.081,69.62a5.073,5.073,0,0,0,3.106-1.507L72.853,78.551c0,.046-.008.086-.008.132a5.057,5.057,0,0,0,.752,2.65,41.841,41.841,0,0,1-21.4,8.439M73.423,76.334,50.373,66.165a5.052,5.052,0,0,0-.666-4.52L65.893,43.877a5.052,5.052,0,0,0,2.622.735,5.594,5.594,0,0,0,.623-.041l6.05,29.836a5.071,5.071,0,0,0-1.766,1.928m7.292-1.9a5.051,5.051,0,0,0-3.377-.8L71.285,43.788a5.1,5.1,0,0,0,1.6-1.672L85.858,46.98a4.506,4.506,0,0,0-.023.456,5.08,5.08,0,0,0,4.084,4.981,41.876,41.876,0,0,1-9.2,22.017" transform="translate(0 0.001)" fill="#1e535a"/>
        </g>
      </g>
    </g>
    <g id="Elipse_13614" data-name="Elipse 13614" transform="translate(1498 8579.5)" fill="#d5f4f8" stroke="#1e535a" stroke-width="3">
      <ellipse cx="31.232" cy="31.233" rx="31.232" ry="31.233" stroke="none"/>
      <ellipse cx="31.232" cy="31.233" rx="29.732" ry="29.733" fill="none"/>
    </g>
    <g id="Grupo_1213186" data-name="Grupo 1213186" transform="translate(1512 8593.5)">
      <g id="Grupo_1213185" data-name="Grupo 1213185" clip-path="url(#clip-path-2)">
        <path id="Trazado_1279565" data-name="Trazado 1279565" d="M25.632,5.874a9.037,9.037,0,0,0-7.242.187l-17.212,0A1.183,1.183,0,0,1,.006,4.811L.014,1.143A1.113,1.113,0,0,1,1.178,0H24.971a1.137,1.137,0,0,1,1.188,1.139l0,3.775a1.287,1.287,0,0,1-.531.961M16.247,3.013A1.485,1.485,0,1,0,14.763,4.5a1.485,1.485,0,0,0,1.485-1.485m4.184,0A1.486,1.486,0,1,0,18.945,4.5a1.486,1.486,0,0,0,1.486-1.486m4.172,0A1.486,1.486,0,1,0,23.117,4.5,1.486,1.486,0,0,0,24.6,3.012M9.321,3.489a.548.548,0,0,0,.551-.413c.037-.17-.154-.537-.377-.537l-6.027,0a.517.517,0,0,0-.439.541.586.586,0,0,0,.524.411Z" transform="translate(-0.005)" fill="#1e535a"/>
        <path id="Trazado_1279566" data-name="Trazado 1279566" d="M26.187,218.71a1.138,1.138,0,0,1-1.106,1.152l-24.045,0a1.124,1.124,0,0,1-.994-1.1l-.005-3.894a1.131,1.131,0,0,1,1.056-1.042l16.921,0a9.164,9.164,0,0,0,7.092.595l1.084,1.842Zm-9.915-1.877a1.486,1.486,0,1,0-1.486,1.486,1.486,1.486,0,0,0,1.486-1.486m4.181,0a1.486,1.486,0,1,0-1.486,1.486,1.486,1.486,0,0,0,1.486-1.486m4.173,0a1.485,1.485,0,1,0-1.485,1.485,1.486,1.486,0,0,0,1.485-1.485m-15.174.482a.556.556,0,0,0,.454-.5.528.528,0,0,0-.471-.451l-5.844,0a.482.482,0,1,0-.008.958Z" transform="translate(-0.032 -191.475)" fill="#1e535a"/>
        <path id="Trazado_1279567" data-name="Trazado 1279567" d="M1.223,112.839A1.19,1.19,0,0,1,0,111.591l.014-3.768a1.143,1.143,0,0,1,1.251-1.058H13.694a9.178,9.178,0,0,0-.088,6.067Zm8.2-2.576a.553.553,0,0,0,.454-.5c0-.149-.214-.439-.382-.439l-5.935-.006a.517.517,0,0,0-.537.451.543.543,0,0,0,.423.489Z" transform="translate(0 -95.607)" fill="#1e535a"/>
        <path id="Trazado_1279568" data-name="Trazado 1279568" d="M151.148,67.147a8.133,8.133,0,1,1-8.132-8.132,8.132,8.132,0,0,1,8.132,8.132m-1.591,0a6.544,6.544,0,1,0-6.544,6.544,6.544,6.544,0,0,0,6.544-6.544" transform="translate(-120.787 -52.847)" fill="#1e535a"/>
        <path id="Trazado_1279569" data-name="Trazado 1279569" d="M41.112,70.2l-10.97.005V66.992l13.619,0a9.1,9.1,0,0,0-2.65,3.211" transform="translate(-26.992 -59.991)" fill="#1e535a"/>
        <path id="Trazado_1279570" data-name="Trazado 1279570" d="M43.467,177.16l-13.328.006v-3.192H40.995a9.643,9.643,0,0,0,2.473,3.186" transform="translate(-26.989 -155.792)" fill="#1e535a"/>
        <path id="Trazado_1279571" data-name="Trazado 1279571" d="M266.991,238.823a1.674,1.674,0,0,1-2.836,1.746l-3.973-7.636a2.765,2.765,0,0,1,2.178-1.251Z" transform="translate(-232.991 -207.47)" fill="#1e535a"/>
        <path id="Trazado_1279572" data-name="Trazado 1279572" d="M249.671,210.26l-.934-1.633,1.547-.9.931,1.627a9.761,9.761,0,0,0-1.543.9" transform="translate(-222.742 -186.021)" fill="#1e535a"/>
        <path id="Trazado_1279573" data-name="Trazado 1279573" d="M168.695,111.618a1.2,1.2,0,0,1-1.29,1.187h-7.4a5.554,5.554,0,0,1,.126-6.067l7.277-.009a1.2,1.2,0,0,1,1.283,1.278Zm-5.738-1.854a1.486,1.486,0,1,0-1.486,1.486,1.486,1.486,0,0,0,1.486-1.486m4.173,0a1.486,1.486,0,1,0-1.486,1.486,1.486,1.486,0,0,0,1.486-1.486" transform="translate(-142.534 -95.576)" fill="#1e535a"/>
        <path id="Trazado_1279574" data-name="Trazado 1279574" d="M179.3,173.942l.021,1.638a5.436,5.436,0,0,1-4.778-1.629Z" transform="translate(-156.302 -155.764)" fill="#1e535a"/>
        <path id="Trazado_1279575" data-name="Trazado 1279575" d="M181.242,84.929l-4.549-.006a5.44,5.44,0,0,1,4.536-1.445Z" transform="translate(-158.227 -74.717)" fill="#1e535a"/>
      </g>
    </g>
  </g>
</svg>
