<svg xmlns="http://www.w3.org/2000/svg" xmlns:xlink="http://www.w3.org/1999/xlink" width="96" height="96" viewBox="0 0 96 96">
  <defs>
    <clipPath id="clip-path">
      <rect id="Rectángulo_454829" data-name="Rectángulo 454829" width="96" height="96" fill="#1e535a"/>
    </clipPath>
    <clipPath id="clip-path-2">
      <rect id="Rectángulo_462806" data-name="Rectángulo 462806" width="36" height="36.002" fill="#1e535a"/>
    </clipPath>
  </defs>
  <g id="Grupo_1212262" data-name="Grupo 1212262" transform="translate(-1481 -8562.5)">
    <g id="Grupo_1177591" data-name="Grupo 1177591" transform="translate(1481 8562.5)">
      <g id="Grupo_1177589" data-name="Grupo 1177589" transform="translate(0 0)">
        <g id="Grupo_1177587" data-name="Grupo 1177587" clip-path="url(#clip-path)">
          <path id="Trazado_997422" data-name="Trazado 997422" d="M92.081,42.491a44.136,44.136,0,0,0-9.97-22.967,5.076,5.076,0,0,0-7.142-6.838A44.071,44.071,0,0,0,52.151,3.77a5.077,5.077,0,0,0-9.861.2A44.132,44.132,0,0,0,20.4,13.329a5.079,5.079,0,0,0-7.048,7.1A44.1,44.1,0,0,0,4.112,42.448,5.08,5.08,0,0,0,3.99,52.4a44.082,44.082,0,0,0,8.949,22.468,5.078,5.078,0,0,0,6.9,7.17,44.128,44.128,0,0,0,22.412,9.8,5.078,5.078,0,0,0,9.949.2,44.091,44.091,0,0,0,22.985-9.08,5.077,5.077,0,0,0,7.107-6.874A44.147,44.147,0,0,0,92.2,52.349a5.078,5.078,0,0,0-.119-9.858M77.74,22.024a5.05,5.05,0,0,0,2.812-.851,41.913,41.913,0,0,1,9.25,21.3,5.086,5.086,0,0,0-3.246,2.351l-12.98-4.867c.01-.142.02-.286.02-.433a5.079,5.079,0,0,0-2.151-4.15l5.678-13.4a5.5,5.5,0,0,0,.616.041M75,21.216,69.354,34.523a5.026,5.026,0,0,0-5.594,3.23L40.279,32.344a4.941,4.941,0,0,0-.106-1.011l33.322-11.6A5.1,5.1,0,0,0,75,21.216M47.246,10.165a5.083,5.083,0,0,0,4.989-4.122,41.844,41.844,0,0,1,21.158,8.275,5.054,5.054,0,0,0-.735,2.625,5.335,5.335,0,0,0,.048.671L39.217,29.273a5.1,5.1,0,0,0-.92-.92l8.784-18.2c.056,0,.109.008.165.008M42.3,6.243A5.083,5.083,0,0,0,44.86,9.569L36.248,27.4a5.1,5.1,0,0,0-1.049-.109,5.045,5.045,0,0,0-2.9.91L22.1,19.678A5.052,5.052,0,0,0,21.923,15,41.877,41.877,0,0,1,42.3,6.243M10.041,46.332,31.153,35.442a5.064,5.064,0,0,0,4.006,2.014l7.236,23.129a5.166,5.166,0,0,0-1.12,1.239l-31.3-13.04a5.048,5.048,0,0,0,.187-1.348,5.107,5.107,0,0,0-.124-1.1m4.986-24.391a5.079,5.079,0,0,0,5.673-.484l10.079,8.417a5.068,5.068,0,0,0-.56,3.512L9.07,44.29A5.081,5.081,0,0,0,6.38,42.526a41.859,41.859,0,0,1,8.647-20.585m2.1,50.717a5.067,5.067,0,0,0-2.523.674A41.822,41.822,0,0,1,6.263,52.374,5.087,5.087,0,0,0,8.9,50.783l31.609,13.17a5.45,5.45,0,0,0-.041.611,5.081,5.081,0,0,0,.3,1.718L21.657,75.44a5.081,5.081,0,0,0-4.528-2.782M42.349,89.575a41.919,41.919,0,0,1-20.912-9.149,5.029,5.029,0,0,0,.775-2.686l0-.058L42,68.2A5.082,5.082,0,0,0,43.8,69.329l1.186,17.043a5.082,5.082,0,0,0-2.632,3.2m2.105-29.97-7.081-22.64a5.089,5.089,0,0,0,2.415-2.415L63.459,40a5.052,5.052,0,0,0,.808,2.311L48.032,60.13a5.019,5.019,0,0,0-3.577-.524m7.74,30.167a5.081,5.081,0,0,0-4.948-3.937l-.038,0L46.081,69.62a5.073,5.073,0,0,0,3.106-1.507L72.853,78.551c0,.046-.008.086-.008.132a5.057,5.057,0,0,0,.752,2.65,41.841,41.841,0,0,1-21.4,8.439M73.423,76.334,50.373,66.165a5.052,5.052,0,0,0-.666-4.52L65.893,43.877a5.052,5.052,0,0,0,2.622.735,5.594,5.594,0,0,0,.623-.041l6.05,29.836a5.071,5.071,0,0,0-1.766,1.928m7.292-1.9a5.051,5.051,0,0,0-3.377-.8L71.285,43.788a5.1,5.1,0,0,0,1.6-1.672L85.858,46.98a4.506,4.506,0,0,0-.023.456,5.08,5.08,0,0,0,4.084,4.981,41.876,41.876,0,0,1-9.2,22.017" transform="translate(0 0.001)" fill="#1e535a"/>
        </g>
      </g>
    </g>
    <g id="Elipse_13614" data-name="Elipse 13614" transform="translate(1498 8579.5)" fill="#d5f4f8" stroke="#1e535a" stroke-width="3">
      <ellipse cx="31.232" cy="31.233" rx="31.232" ry="31.233" stroke="none"/>
      <ellipse cx="31.232" cy="31.233" rx="29.732" ry="29.733" fill="none"/>
    </g>
    <g id="Grupo_1213182" data-name="Grupo 1213182" transform="translate(1511 8592.5)">
      <g id="Grupo_1213181" data-name="Grupo 1213181" clip-path="url(#clip-path-2)">
        <path id="Trazado_1279557" data-name="Trazado 1279557" d="M52.956,13.22l-3.128,0,0,4.361a.918.918,0,0,1-.276.588l-2.222,1.128a1.9,1.9,0,0,1-1.17,1.962,1.87,1.87,0,1,1,.565-3.1l1.843-.891.011-4.033L46.7,13.221l0,1.98a.69.69,0,0,1-.6.572l-1.984-.012a1.914,1.914,0,0,1-2.166,1.226,1.878,1.878,0,0,1,.017-3.687A1.906,1.906,0,0,1,44.1,14.514l1.344.008-.009-1.342a3.594,3.594,0,0,1-1.188-6.806,3.5,3.5,0,0,1,3.537.253,3.634,3.634,0,0,1,1.592,2.985.839.839,0,0,0,.723.79.794.794,0,0,0,.894-.756,5.226,5.226,0,0,0-4.254-5.17,6.6,6.6,0,0,1,12.209-.705,4.791,4.791,0,0,1,2.784,9.165l-.021.948,1.345.006A1.9,1.9,0,0,1,65.1,12.652a1.879,1.879,0,0,1,.2,3.687,1.866,1.866,0,0,1-2.216-1.17l-2.012-.02a.694.694,0,0,1-.614-.667l.011-1.27-1.884.019,0,4,1.83.934A1.923,1.923,0,0,1,62.85,18a1.895,1.895,0,0,1-1.7,3.327,1.857,1.857,0,0,1-1.3-2.01l-2.5-1.305-.023-4.794-3.118-.01.007,4.549a1.836,1.836,0,0,1,1.2,2.131,1.869,1.869,0,0,1-3.648.1,1.842,1.842,0,0,1,1.175-2.227Zm12.488,1.293a.614.614,0,1,0-.614.614.614.614,0,0,0,.614-.614m-22.495.627a.616.616,0,1,0-.616.616.616.616,0,0,0,.616-.616m3.124,4.378a.618.618,0,1,0-.618.618.618.618,0,0,0,.618-.618m8.122-.009a.612.612,0,1,0-.612.612.612.612,0,0,0,.612-.612m8.132.007a.618.618,0,1,0-.618.618.618.618,0,0,0,.618-.618" transform="translate(-35.581 0)" fill="#1e535a"/>
        <path id="Trazado_1279558" data-name="Trazado 1279558" d="M64.162,195.079,74.5,190.934a3.01,3.01,0,0,1,3.813,1.771,3.047,3.047,0,0,1-1.569,3.922L62.818,202.5a5.306,5.306,0,0,1-3.566.3l-10.925-3.362v-9.674l12.35,2.469a2.45,2.45,0,0,1-1.319,4.717l-6.334-1.4c-.492-.109-.941.448-.964.818a.932.932,0,0,0,.792.973l5.87,1.333a4.293,4.293,0,0,0,5.439-3.6" transform="translate(-42.525 -166.98)" fill="#1e535a"/>
        <path id="Trazado_1279559" data-name="Trazado 1279559" d="M.949,199.408A.912.912,0,0,1,0,198.452v-7.809a.894.894,0,0,1,.918-.908l3.085,0V199.4Z" transform="translate(0 -166.951)" fill="#1e535a"/>
      </g>
    </g>
  </g>
</svg>
