<svg xmlns="http://www.w3.org/2000/svg" xmlns:xlink="http://www.w3.org/1999/xlink" width="187.711" height="121.729" viewBox="0 0 187.711 121.729">
  <defs>
    <clipPath id="clip-path">
      <rect id="Rectángulo_461585" data-name="Rectángulo 461585" width="147.333" height="107.836" fill="none"/>
    </clipPath>
    <clipPath id="clip-path-3">
      <rect id="Rectángulo_461576" data-name="Rectángulo 461576" width="93.561" height="58.974" fill="none"/>
    </clipPath>
  </defs>
  <g id="Grupo_1213533" data-name="Grupo 1213533" transform="translate(-289.711 -864.42)">
    <g id="Grupo_1212962" data-name="Grupo 1212962" transform="translate(0.434 -8003.619)">
      <g id="Grupo_1204518" data-name="Grupo 1204518" transform="translate(289.277 8868.039)">
        <rect id="Rectángulo_455283" data-name="Rectángulo 455283" width="187.711" height="121.729" rx="19" fill="#9ed1ff"/>
      </g>
    </g>
    <g id="Grupo_1212963" data-name="Grupo 1212963" transform="translate(310.08 871.42)">
      <g id="Grupo_1212050" data-name="Grupo 1212050" clip-path="url(#clip-path)">
        <g id="Grupo_1212049" data-name="Grupo 1212049" transform="translate(0 0)">
          <g id="Grupo_1212048" data-name="Grupo 1212048" clip-path="url(#clip-path)">
            <path id="Trazado_1276394" data-name="Trazado 1276394" d="M125.437,16.372V80.084a2.327,2.327,0,0,1-2.319,2.315H24.39a2.325,2.325,0,0,1-2.319-2.315V16.372a2.326,2.326,0,0,1,2.319-2.317h98.729a2.327,2.327,0,0,1,2.319,2.317" transform="translate(21.896 13.944)" fill="#1a222b"/>
            <path id="Trazado_1276395" data-name="Trazado 1276395" d="M123.246,16.372V80.084a2.327,2.327,0,0,1-2.319,2.315H22.2a2.324,2.324,0,0,1-2.319-2.315V16.372A2.324,2.324,0,0,1,22.2,14.055h98.727a2.327,2.327,0,0,1,2.319,2.317" transform="translate(19.724 13.944)" fill="#727997"/>
            <path id="Rectángulo_461575" data-name="Rectángulo 461575" d="M1.148,0H94.7A1.148,1.148,0,0,1,95.85,1.148V60.113A1.149,1.149,0,0,1,94.7,61.262H1.149A1.149,1.149,0,0,1,0,60.113V1.148A1.148,1.148,0,0,1,1.148,0Z" transform="translate(43.363 31.54)" fill="#e4e8ed"/>
            <g id="Grupo_1212047" data-name="Grupo 1212047" transform="translate(43.362 31.541)" opacity="0.3" style="mix-blend-mode: screen;isolation: isolate">
              <g id="Grupo_1212046" data-name="Grupo 1212046">
                <g id="Grupo_1212045" data-name="Grupo 1212045" clip-path="url(#clip-path-3)">
                  <path id="Trazado_1276396" data-name="Trazado 1276396" d="M21.768,74.806V18.12a2.291,2.291,0,0,1,2.287-2.287h91.274Z" transform="translate(-21.767 -15.833)" fill="#fff"/>
                </g>
              </g>
            </g>
            <path id="Trazado_1276397" data-name="Trazado 1276397" d="M74.281,48.363H.5V49.7A10.159,10.159,0,0,0,10.653,59.857H136.685A10.16,10.16,0,0,0,146.842,49.7V48.363Z" transform="translate(0.491 47.98)" fill="#1a222b"/>
            <path id="Trazado_1276398" data-name="Trazado 1276398" d="M36.929,48.363H0V49.7A10.158,10.158,0,0,0,10.156,59.857H99.33A10.16,10.16,0,0,0,109.49,49.7V48.363Z" transform="translate(0 47.98)" fill="#1a222b"/>
            <path id="Trazado_1276399" data-name="Trazado 1276399" d="M68.564,0H25.639V87.748h85.85V0Z" transform="translate(25.435 0)" fill="#c5d5e6"/>
            <path id="Trazado_1276400" data-name="Trazado 1276400" d="M68.564,0H25.639V7.49h85.85V0Z" transform="translate(25.435 0)" fill="#15202e"/>
            <path id="Trazado_1276401" data-name="Trazado 1276401" d="M67.2,0H24.278V87.748h85.85V0Z" transform="translate(24.086 0)" fill="#fff"/>
            <path id="Trazado_1276402" data-name="Trazado 1276402" d="M64.294,5.664H27.21V36.276h74.171V5.664Z" transform="translate(26.994 5.619)" fill="#1e535a"/>
            <rect id="Rectángulo_461578" data-name="Rectángulo 461578" width="15.255" height="13.679" transform="translate(54.204 46.652)" fill="#16405e"/>
            <rect id="Rectángulo_461579" data-name="Rectángulo 461579" width="55.547" height="3.592" transform="translate(72.828 46.652)" fill="#2d4375"/>
            <path id="Trazado_1276404" data-name="Trazado 1276404" d="M81.056,27.28v2.265H36.56V25.951h44.5Z" transform="translate(36.269 25.746)" fill="#2d4375"/>
            <path id="Trazado_1276405" data-name="Trazado 1276405" d="M87.989,29.817v2.261H36.56v-3.6H87.989Z" transform="translate(36.27 28.255)" fill="#2d4375"/>
            <rect id="Rectángulo_461580" data-name="Rectángulo 461580" width="55.547" height="3.594" transform="translate(72.828 67.722)" fill="#2d4375"/>
            <path id="Trazado_1276406" data-name="Trazado 1276406" d="M81.056,37.858v2.265H36.56V36.529h44.5Z" transform="translate(36.269 36.24)" fill="#2d4375"/>
            <path id="Trazado_1276407" data-name="Trazado 1276407" d="M87.989,40.393v2.263H36.56v-3.6H87.989Z" transform="translate(36.27 38.749)" fill="#2d4375"/>
            <rect id="Rectángulo_461581" data-name="Rectángulo 461581" width="15.255" height="13.681" transform="translate(54.204 67.722)" fill="#16405e"/>
            <path id="Trazado_1276408" data-name="Trazado 1276408" d="M67.2,0H24.278V7.49h85.85V0Z" transform="translate(24.086 0)" fill="#1e535a"/>
            <rect id="Rectángulo_461582" data-name="Rectángulo 461582" width="3.813" height="3.817" transform="translate(120.558 1.833)" fill="#fff"/>
            <rect id="Rectángulo_461583" data-name="Rectángulo 461583" width="3.813" height="3.817" transform="translate(126.753 1.833)" fill="#fff"/>
          </g>
        </g>
      </g>
    </g>
  </g>
</svg>
