<svg xmlns="http://www.w3.org/2000/svg" xmlns:xlink="http://www.w3.org/1999/xlink" width="98" height="98" viewBox="0 0 98 98">
  <defs>
    <clipPath id="clip-path">
      <rect id="Rectángulo_454829" data-name="Rectángulo 454829" width="98" height="98" fill="#1e535a"/>
    </clipPath>
    <clipPath id="clip-path-2">
      <rect id="Rectángulo_463072" data-name="Rectángulo 463072" width="41.31" height="41.333" fill="#fff"/>
    </clipPath>
  </defs>
  <g id="Grupo_1212968" data-name="Grupo 1212968" transform="translate(-186 -4323.629)">
    <g id="Grupo_1177591" data-name="Grupo 1177591" transform="translate(186 4323.629)">
      <g id="Grupo_1177589" data-name="Grupo 1177589" transform="translate(0 0)">
        <g id="Grupo_1177587" data-name="Grupo 1177587" clip-path="url(#clip-path)">
          <path id="Trazado_997422" data-name="Trazado 997422" d="M93.682,43.23A44.9,44.9,0,0,0,83.539,19.863a5.164,5.164,0,0,0-7.266-6.957A44.838,44.838,0,0,0,53.059,3.836a5.165,5.165,0,0,0-10.032.2,44.9,44.9,0,0,0-22.274,9.522,5.167,5.167,0,0,0-7.171,7.22,44.862,44.862,0,0,0-9.4,22.4A5.169,5.169,0,0,0,4.06,53.308a44.849,44.849,0,0,0,9.1,22.859,5.166,5.166,0,0,0,7.019,7.295,44.9,44.9,0,0,0,22.8,9.973,5.167,5.167,0,0,0,10.122.2A44.858,44.858,0,0,0,76.492,84.4a5.165,5.165,0,0,0,7.23-6.993A44.915,44.915,0,0,0,93.8,53.259a5.167,5.167,0,0,0-.121-10.03M79.093,22.408a5.137,5.137,0,0,0,2.861-.866,42.642,42.642,0,0,1,9.411,21.675,5.174,5.174,0,0,0-3.3,2.392L74.858,40.657c.01-.144.021-.291.021-.441a5.167,5.167,0,0,0-2.188-4.222l5.777-13.628a5.6,5.6,0,0,0,.626.041M76.3,21.585l-5.74,13.538a5.114,5.114,0,0,0-5.691,3.287l-23.89-5.5a5.027,5.027,0,0,0-.108-1.028l33.9-11.806A5.183,5.183,0,0,0,76.3,21.585M48.068,10.342a5.171,5.171,0,0,0,5.075-4.194A42.572,42.572,0,0,1,74.67,14.566a5.142,5.142,0,0,0-.748,2.67,5.429,5.429,0,0,0,.049.683L39.9,29.782a5.186,5.186,0,0,0-.936-.936L47.9,10.334c.057,0,.111.008.168.008m-5.029-3.99a5.172,5.172,0,0,0,2.6,3.384L36.879,27.88a5.185,5.185,0,0,0-1.067-.111,5.133,5.133,0,0,0-2.946.925L22.48,20.021a5.14,5.14,0,0,0-.175-4.758A42.606,42.606,0,0,1,43.039,6.351M10.215,47.138l21.48-11.079a5.152,5.152,0,0,0,4.075,2.049l7.362,23.531a5.256,5.256,0,0,0-1.139,1.26L10.151,49.633a5.136,5.136,0,0,0,.191-1.371,5.2,5.2,0,0,0-.126-1.124m5.073-24.815a5.167,5.167,0,0,0,5.771-.492l10.254,8.563a5.156,5.156,0,0,0-.57,3.573L9.228,45.06a5.169,5.169,0,0,0-2.737-1.794,42.587,42.587,0,0,1,8.8-20.943m2.139,51.6a5.155,5.155,0,0,0-2.567.686A42.549,42.549,0,0,1,6.372,53.285a5.175,5.175,0,0,0,2.683-1.619l32.159,13.4a5.543,5.543,0,0,0-.041.621,5.169,5.169,0,0,0,.309,1.748L22.034,76.752a5.17,5.17,0,0,0-4.606-2.83M43.086,91.133A42.648,42.648,0,0,1,21.81,81.825a5.117,5.117,0,0,0,.789-2.732l0-.059,20.137-9.651a5.17,5.17,0,0,0,1.825,1.152l1.206,17.34a5.171,5.171,0,0,0-2.678,3.258m2.142-30.491-7.2-23.034a5.178,5.178,0,0,0,2.457-2.457L64.563,40.7a5.14,5.14,0,0,0,.822,2.351L48.867,61.175a5.107,5.107,0,0,0-3.64-.534M53.1,91.334a5.169,5.169,0,0,0-5.034-4.006l-.039,0-1.147-16.5a5.162,5.162,0,0,0,3.16-1.534l24.078,10.62c0,.046-.008.088-.008.134a5.145,5.145,0,0,0,.766,2.7A42.569,42.569,0,0,1,53.1,91.334M74.7,77.662,51.249,67.315a5.14,5.14,0,0,0-.678-4.6L67.04,44.64a5.14,5.14,0,0,0,2.668.748,5.691,5.691,0,0,0,.634-.041L76.5,75.7a5.159,5.159,0,0,0-1.8,1.962m7.419-1.933a5.139,5.139,0,0,0-3.436-.812L72.525,44.55a5.191,5.191,0,0,0,1.629-1.7l13.2,4.949a4.584,4.584,0,0,0-.023.464,5.169,5.169,0,0,0,4.155,5.068,42.6,42.6,0,0,1-9.365,22.4" transform="translate(0 0.331)" fill="#1e535a"/>
        </g>
      </g>
    </g>
    <g id="Trazado_1030180" data-name="Trazado 1030180" transform="translate(201.422 4338.7)" fill="#1e535a">
      <path d="M 33.68505859375 65.87094116210938 C 29.33944892883301 65.87094116210938 25.12461853027344 65.02017211914062 21.15764808654785 63.34226226806641 C 17.32525825500488 61.72127914428711 13.88309860229492 59.4003791809082 10.92678833007812 56.44404220581055 C 7.970488548278809 53.48770141601562 5.649618625640869 50.04550170898438 4.028648376464844 46.21305084228516 C 2.35075855255127 42.24602890014648 1.499998569488525 38.0311393737793 1.499998569488525 33.68547058105469 C 1.499998569488525 29.33979988098145 2.35075855255127 25.12491035461426 4.028648376464844 21.15789031982422 C 5.649618625640869 17.32544136047363 7.970488548278809 13.88324069976807 10.92678833007812 10.92690086364746 C 13.88309860229492 7.970560550689697 17.32525825500488 5.649660587310791 21.15764808654785 4.028680801391602 C 25.12461853027344 2.350770473480225 29.33944892883301 1.500000596046448 33.68505859375 1.500000596046448 C 38.03067779541016 1.500000596046448 42.24551010131836 2.350770473480225 46.21246719360352 4.028680801391602 C 50.04486846923828 5.649660587310791 53.48703002929688 7.970560550689697 56.44332885742188 10.92690086364746 C 59.39962768554688 13.88324069976807 61.72050857543945 17.32544136047363 63.34146881103516 21.15789031982422 C 65.01935577392578 25.12491035461426 65.8701171875 29.33979988098145 65.8701171875 33.68547058105469 C 65.8701171875 38.0311393737793 65.01935577392578 42.24602890014648 63.34146881103516 46.21305084228516 C 61.72050857543945 50.04550170898438 59.39962768554688 53.48770141601562 56.44332885742188 56.44404220581055 C 53.48703002929688 59.4003791809082 50.04486846923828 61.72127914428711 46.21246719360352 63.34226226806641 C 42.24551010131836 65.02017211914062 38.03067779541016 65.87094116210938 33.68505859375 65.87094116210938 Z" stroke="none"/>
      <path d="M 33.68505859375 3.000007629394531 C 29.54128265380859 3.000007629394531 25.52304840087891 3.810905456542969 21.74198150634766 5.410182952880859 C 18.08838272094727 6.955535888671875 14.80649185180664 9.168491363525391 11.98745727539062 11.987548828125 C 9.168426513671875 14.80661392211914 6.955501556396484 18.08855819702148 5.410160064697266 21.74220275878906 C 3.810890197753906 25.52333831787109 3 29.5416259765625 3 33.68547058105469 C 3 37.82931518554688 3.810890197753906 41.84760284423828 5.410160064697266 45.62873840332031 C 6.955501556396484 49.28237915039062 9.168426513671875 52.56432723999023 11.98745727539062 55.38339233398438 C 14.80649185180664 58.20244598388672 18.08838272094727 60.4154052734375 21.74198150634766 61.96075820922852 C 25.52304840087891 63.56003570556641 29.54128265380859 64.37094116210938 33.68505859375 64.37094116210938 C 37.82883453369141 64.37094116210938 41.84706878662109 63.56003570556641 45.62813568115234 61.96075820922852 C 49.28173828125 60.4154052734375 52.56362533569336 58.20244598388672 55.38265991210938 55.38339233398438 C 58.20169067382812 52.56432723999023 60.41461563110352 49.28237915039062 61.95995712280273 45.62873840332031 C 63.55922698974609 41.84760284423828 64.3701171875 37.82931518554688 64.3701171875 33.68547058105469 C 64.3701171875 29.5416259765625 63.55922698974609 25.52333831787109 61.95995712280273 21.74220275878906 C 60.41461563110352 18.08855819702148 58.20169067382812 14.80661392211914 55.38265991210938 11.987548828125 C 52.56362533569336 9.168491363525391 49.28173828125 6.955535888671875 45.62813568115234 5.410182952880859 C 41.84706878662109 3.810905456542969 37.82883453369141 3.000007629394531 33.68505859375 3.000007629394531 M 33.68505859375 7.62939453125e-06 C 52.28880310058594 7.62939453125e-06 67.3701171875 15.08149337768555 67.3701171875 33.68547058105469 C 67.3701171875 52.28944778442383 52.28880310058594 67.37093353271484 33.68505859375 67.37093353271484 C 15.08131408691406 67.37093353271484 0 52.28944778442383 0 33.68547058105469 C 0 15.08149337768555 15.08131408691406 7.62939453125e-06 33.68505859375 7.62939453125e-06 Z" stroke="none" fill="#1e535a"/>
    </g>
    <g id="Grupo_1213508" data-name="Grupo 1213508" transform="translate(214.422 4351.701)">
      <g id="Grupo_1213507" data-name="Grupo 1213507" clip-path="url(#clip-path-2)">
        <path id="Trazado_1280335" data-name="Trazado 1280335" d="M4.975,25.02c-.071.055-.4.114-.436.046l-.164-.29.007-4.168a.753.753,0,0,0-.666-.655l-2.339-.007C.9,19.943,0,19.488,0,18.83V1.2C0,.434.871,0,1.54,0H25.021a1.473,1.473,0,0,1,1.553,1.456l.006,16.879a1.512,1.512,0,0,1-1.345,1.6l-13.695.011ZM4.39,4.313A.789.789,0,0,1,5.049,3.7l1.668-.028a.82.82,0,0,0,.645-.761A.8.8,0,0,0,6.629,2.2L5.06,2.215A2.156,2.156,0,0,0,2.958,4.1L2.912,5.912a.759.759,0,0,0,.723.728.726.726,0,0,0,.739-.73Zm17.732,1.58a.75.75,0,0,0,.811.748.788.788,0,0,0,.7-.739l-.025-1.548a2.19,2.19,0,0,0-2.123-2.135L19.949,2.2a.76.76,0,0,0-.768.814.776.776,0,0,0,.76.683l1.572,0a.814.814,0,0,1,.6.625ZM14,14.711V4.495a.725.725,0,0,0-.842-.781.756.756,0,0,0-.652.828l.007,10.294a.813.813,0,0,0,.762.691A.78.78,0,0,0,14,14.711M8.1,12.553,8.089,6.559c0-.355-.5-.661-.776-.645a.774.774,0,0,0-.717.734L6.6,12.624a.823.823,0,0,0,.827.684.811.811,0,0,0,.669-.755m11.808-.023V6.672a.744.744,0,0,0-.779-.754.756.756,0,0,0-.7.855l.009,5.852a.737.737,0,0,0,1.47-.1m-8.84-.718v-4.4a.758.758,0,1,0-1.516,0l.008,4.44a.793.793,0,0,0,.8.713.848.848,0,0,0,.708-.749m5.884-.137L16.945,7.4a.776.776,0,0,0-.737-.757.751.751,0,0,0-.718.755v4.342c0,.5.274.818.711.814.477,0,.75-.3.75-.879M5.14,10.321,5.121,8.794a.712.712,0,0,0-.867-.652.754.754,0,0,0-.6.775l0,1.451a.806.806,0,0,0,.729.725.825.825,0,0,0,.752-.771m17.738-.013L22.86,8.79a.739.739,0,1,0-1.469.16l0,1.372a.753.753,0,0,0,.778.773.8.8,0,0,0,.7-.786M6.744,15.535l-1.559,0a.836.836,0,0,1-.805-.788V13.371a.736.736,0,0,0-.754-.811.765.765,0,0,0-.717.807l.025,1.562a2.093,2.093,0,0,0,1.766,2c1.407.139,2.657.211,2.659-.684,0-.276-.324-.714-.616-.713m13,1.423a13.467,13.467,0,0,0,1.994-.015,2.232,2.232,0,0,0,1.891-2.269l-.015-1.416a.788.788,0,0,0-.8-.693.827.827,0,0,0-.679.683l-.02,1.549a.768.768,0,0,1-.749.738l-1.443-.01a.794.794,0,0,0-.731.6c-.061.307.15.813.556.831" transform="translate(0)" fill="#fff"/>
        <path id="Trazado_1280336" data-name="Trazado 1280336" d="M115.876,146.644V133.172l2.211,0,.02,1.453a2.217,2.217,0,0,0,2.052,2.23,2.132,2.132,0,0,0,2.349-1.952l.051-1.728h2.946v2.893a.732.732,0,0,0,.62.786c.271.041.819-.194.821-.538l.021-3.265a2.917,2.917,0,0,0,2.224-2.972l.014-2.07,11.726,0c.635,0,1.523.418,1.523,1.2l.006,17.513a1.387,1.387,0,0,1-1.286,1.215l-2.435.022a.712.712,0,0,0-.664.669l-.006,4.139c0,.08-.09.313-.168.308l-.379-.022-6.614-5.1-13.23.01a1.623,1.623,0,0,1-1.8-1.311m18.456-11.791.019-3.262a2.2,2.2,0,0,0-4.4,0l.025,3.316a2.189,2.189,0,0,0,4.356-.057m5.958-.25-.031-3.116a2.171,2.171,0,0,0-2.3-2.016,2.208,2.208,0,0,0-2.1,2.253l.035,3.175a2.132,2.132,0,0,0,2.3,1.955,2.2,2.2,0,0,0,2.1-2.25m-17.746,8.9-.009-3.01a2.211,2.211,0,0,0-4.421.04l-.008,2.99a2.219,2.219,0,1,0,4.438-.019m5.912-.008.008-2.867a2.219,2.219,0,0,0-2.215-2.277,2.186,2.186,0,0,0-2.223,2.139l.033,3.3a2.159,2.159,0,0,0,2.31,1.938,2.23,2.23,0,0,0,2.087-2.234M132.9,145l0-5.9a.744.744,0,0,0-.8-.753.793.793,0,0,0-.713.75l.01,5.953a.811.811,0,0,0,.821.682A.793.793,0,0,0,132.9,145m5.893.017,0-5.929a.759.759,0,0,0-.731-.744.772.772,0,0,0-.742.743l0,5.864a.77.77,0,0,0,.747.783.786.786,0,0,0,.724-.717" transform="translate(-101.153 -111.739)" fill="#fff"/>
        <path id="Trazado_1280337" data-name="Trazado 1280337" d="M146.545,170.1a.826.826,0,0,1-.67.783.74.74,0,0,1-.807-.735l-.006-1.492,1.472.008Z" transform="translate(-126.63 -147.224)" fill="#fff"/>
        <path id="Trazado_1280338" data-name="Trazado 1280338" d="M286.32,154.926a.8.8,0,0,1-.632.768c-.29.051-.811-.234-.812-.585l-.006-3.221a.727.727,0,0,1,1.446.135Z" transform="translate(-248.676 -132.045)" fill="#fff"/>
        <path id="Trazado_1280339" data-name="Trazado 1280339" d="M193.1,224.846a.724.724,0,0,1-.79.61.775.775,0,0,1-.659-.817v-2.822a.724.724,0,0,1,.743-.79.757.757,0,0,1,.721.784Z" transform="translate(-167.299 -192.944)" fill="#fff"/>
        <path id="Trazado_1280340" data-name="Trazado 1280340" d="M146.528,224.626a.787.787,0,0,1-.7.828.772.772,0,0,1-.786-.817l0-2.825a.777.777,0,0,1,.69-.784.747.747,0,0,1,.789.8Z" transform="translate(-126.615 -192.943)" fill="#fff"/>
        <path id="Trazado_1280341" data-name="Trazado 1280341" d="M239.538,154.926a.792.792,0,0,1-.7.791.779.779,0,0,1-.807-.739l0-2.934a.788.788,0,0,1,.691-.762.762.762,0,0,1,.811.769Z" transform="translate(-207.788 -132.06)" fill="#fff"/>
      </g>
    </g>
  </g>
</svg>
