<svg xmlns="http://www.w3.org/2000/svg" xmlns:xlink="http://www.w3.org/1999/xlink" width="303" height="370.636" viewBox="0 0 303 370.636">
  <defs>
    <clipPath id="clip-path">
      <rect id="Rectángulo_463122" data-name="Rectángulo 463122" width="303" height="350" transform="translate(1121.947 1761.674)" fill="#fff" stroke="#707070" stroke-width="1"/>
    </clipPath>
    <clipPath id="clip-path-2">
      <rect id="Rectángulo_463121" data-name="Rectángulo 463121" width="373.788" height="368.909" fill="none"/>
    </clipPath>
    <clipPath id="clip-path-3">
      <rect id="Rectángulo_463113" data-name="Rectángulo 463113" width="335.203" height="335.203" fill="none"/>
    </clipPath>
    <clipPath id="clip-path-4">
      <rect id="Rectángulo_463079" data-name="Rectángulo 463079" width="59.961" height="19.819" fill="none"/>
    </clipPath>
  </defs>
  <g id="Grupo_1212157" data-name="Grupo 1212157" transform="translate(-1110.422 -1728.105)">
    <g id="Grupo_1210264" data-name="Grupo 1210264" transform="translate(1121.711 1724)">
      <path id="Trazado_1272217" data-name="Trazado 1272217" d="M140.8-5.416C21.8-80.877,0,85.572,0,178.266S11.039,344.286,145.711,346.1s145.711-75.144,145.711-167.838S259.8,70.045,140.8-5.416Z" transform="translate(0 28.605)" fill="#ffe79e"/>
    </g>
    <g id="Enmascarar_grupo_1180327" data-name="Enmascarar grupo 1180327" transform="translate(-11.525 -13.355)" clip-path="url(#clip-path)">
      <g id="Grupo_1213522" data-name="Grupo 1213522" transform="translate(1121.787 1778.759)">
        <g id="Grupo_1213521" data-name="Grupo 1213521" clip-path="url(#clip-path-2)">
          <rect id="Rectángulo_463077" data-name="Rectángulo 463077" width="335.464" height="32.707" transform="translate(0 302.757)" fill="#d2dfee"/>
          <g id="Grupo_1213518" data-name="Grupo 1213518" transform="translate(0.216 0.767)">
            <g id="Grupo_1213517" data-name="Grupo 1213517" clip-path="url(#clip-path-3)">
              <path id="Trazado_1280355" data-name="Trazado 1280355" d="M54.019,418.274C61.9,400.621,52,387.012,62.467,373.568A99.089,99.089,0,0,0,77.2,347.539s14.2,14.724,2.415,31.1-10.946,32.986-21.834,41.805Z" transform="translate(-17.993 -115.133)" fill="#8ec098"/>
              <path id="Trazado_1280356" data-name="Trazado 1280356" d="M78.111,347.54c2.813,13.009-.562,21.43-8.611,30.206s-2.426,17.087-6.152,27.144-6.564,14.456-6.564,14.456" transform="translate(-18.903 -115.133)" fill="none" stroke="#b8d8bd" stroke-miterlimit="10" stroke-width="1"/>
              <path id="Trazado_1280357" data-name="Trazado 1280357" d="M48.238,408.745c3.586-22.237-11.64-34.594-3.879-52.867a115.427,115.427,0,0,0,8.793-33.721s20.394,12.325,12.037,34.3-2.445,40.42-12.062,53.611Z" transform="translate(-14.078 -106.78)" fill="#76a87e"/>
              <path id="Trazado_1280358" data-name="Trazado 1280358" d="M57.082,322.156c7.064,13.8,5.786,24.3-.647,36.59s2.386,19.966,1.2,32.406S54.577,409.4,54.577,409.4" transform="translate(-18.007 -106.78)" fill="none" stroke="#b8d8bd" stroke-miterlimit="10" stroke-width="1"/>
              <path id="Trazado_1280359" data-name="Trazado 1280359" d="M37.029,409.292c-2.338-22.4-20.259-30.361-17.532-50.026a115.459,115.459,0,0,0-.306-34.847S42.094,331,39.756,354.39s8.181,39.659,2.338,54.9Z" transform="translate(-6.532 -107.525)" fill="#8ec098"/>
              <path id="Trazado_1280360" data-name="Trazado 1280360" d="M19.191,324.419c10.42,11.485,11.922,21.947,8.918,35.493s7.511,18.653,9.614,30.971,1.8,18.41,1.8,18.41" transform="translate(-6.532 -107.525)" fill="none" stroke="#b8d8bd" stroke-miterlimit="10" stroke-width="1"/>
              <rect id="Rectángulo_463078" data-name="Rectángulo 463078" width="22.537" height="41.341" transform="translate(26.497 299.383)" fill="#aebfce"/>
              <path id="Trazado_1280361" data-name="Trazado 1280361" d="M217.291,384.269s-12.581-1.841-15.342-3.068-7.058-.614-10.74,1.227-11.967,3.682-10.432,6.75,36.514,1.841,36.514,1.841Z" transform="translate(-59.644 -126)" fill="#f9d5bf"/>
              <path id="Trazado_1280362" data-name="Trazado 1280362" d="M395.933,432.059H276.24l2.481-51.712s13.218-101.12,18.96-106.868,43.673-12.066,68.374-6.318a38.887,38.887,0,0,1,7.432,2.476c17.168,7.83,16.832,25.9,17.851,45.787,1.152,22.41,4.6,116.636,4.6,116.636" transform="translate(-91.12 -87.936)" fill="#6b8bd1"/>
              <path id="Trazado_1280363" data-name="Trazado 1280363" d="M437.429,434.386H405.847c-.639-.215-.988-.335-.988-.335s-10.1-128.7,10.122-162.087c17.168,7.83,16.832,25.9,17.851,45.787,1.152,22.41,4.6,116.636,4.6,116.636" transform="translate(-132.615 -90.263)" fill="#5074b5"/>
              <path id="Trazado_1280364" data-name="Trazado 1280364" d="M326.064,474.753c-17.813-1.154-70.1-10.346-70.1-10.346l14.365-44.241,48.763-2.65,25.354-1.375,2.3-.57a136.745,136.745,0,0,1,5.26,19.819,95.238,95.238,0,0,1,1.63,14.083c.577,16.659-9.769,26.428-27.575,25.281" transform="translate(-84.448 -137.52)" fill="#f7c272"/>
              <g id="Grupo_1213516" data-name="Grupo 1213516" transform="translate(207.6 278.05)" opacity="0.25" style="mix-blend-mode: multiply;isolation: isolate">
                <g id="Grupo_1213515" data-name="Grupo 1213515">
                  <g id="Grupo_1213514" data-name="Grupo 1213514" clip-path="url(#clip-path-4)">
                    <path id="Trazado_1280365" data-name="Trazado 1280365" d="M369.706,435.389c-12.56-2.281-37.626-7.172-59.961-13.533l27.045-4.341,25.354-1.375,2.3-.57a136.749,136.749,0,0,1,5.26,19.819" transform="translate(-309.745 -415.57)" fill="#c4832c"/>
                  </g>
                </g>
              </g>
              <path id="Trazado_1280366" data-name="Trazado 1280366" d="M352.763,361.257c-1.159,2.456-6.413,3.355-13.205,3.38-.139,4.855-.26,8.369-.341,9.73-.437,7.426-55.929,2.184-55.929,2.184s-.874-5.621-1.981-13.319c-18.6-.278-51.959-1.393-51.959-1.393l1.228-12.579,37.419-4.608S270.462,333,272,325.94s8.28-28.537,12.579-34.367a31.654,31.654,0,0,1,8.134-7.3,47.047,47.047,0,0,1,29.461-6.039,38.334,38.334,0,0,1,11.243,2.931c7.006,3.657,13.946,10.1,18.472,24.157,3.659,11.363,4.368,48.5.874,55.935" transform="translate(-75.688 -92.217)" fill="#ffb851"/>
              <path id="Trazado_1280367" data-name="Trazado 1280367" d="M300.234,349.28c14.893,3.733,46.2-1.381,46.2-1.381s1.4,6.169,2.623,9.784,4.246,7.457.967,8.008-28,1.385-28,1.385l.38,2.652L303.131,362.2Z" transform="translate(-99.015 -115.251)" fill="#a17029"/>
              <path id="Trazado_1280368" data-name="Trazado 1280368" d="M333.118,280.568s-2.8,8.01-.774,14.278l7.158-6.107,5.153,8.679s12.783-10.545,15.15-19.015c0,0-8.488-5.523-26.687,2.165" transform="translate(-109.34 -91.75)" fill="#fff"/>
              <line id="Línea_3455" data-name="Línea 3455" x1="1.502" y1="8.103" transform="translate(204.116 262.912)" fill="none" stroke="#588760" stroke-miterlimit="10" stroke-width="1"/>
              <path id="Trazado_1280369" data-name="Trazado 1280369" d="M363.616,170.471a11.487,11.487,0,0,1,4.647-1.95,18.843,18.843,0,0,1,17.92,6.579,20.837,20.837,0,0,1,3.54,18.943c-.968,3.172-2.647,6.071-4.032,9.085s-2.5,6.279-2.22,9.584,2.246,6.644,5.394,7.692A10.1,10.1,0,0,1,378.3,217.52a9.214,9.214,0,0,0,.829,3.986,10.972,10.972,0,0,1-6.383-6.8c-1.752-5.522,1.095-11.582-.04-17.264a12.69,12.69,0,0,0-5.921-8.332c-3.317-1.954-7.75-2.922-7.73-7.423.018-3.963,1.26-8.73,4.558-11.211" transform="translate(-118.373 -56.112)" fill="#5a2402"/>
              <path id="Trazado_1280370" data-name="Trazado 1280370" d="M302.065,211.567a16.53,16.53,0,0,1,.156-4.968c.872-4.2,4.007-7.576,7.392-10.218,7.463-5.822,17.436-9.207,26.544-6.627a22.857,22.857,0,0,1,16.3,25.831,30.712,30.712,0,0,1-1.833,6.215,46.538,46.538,0,0,1-7.6,12.664,8.391,8.391,0,0,1-8.605,3.624,43.564,43.564,0,0,1-23.343-8.815c-5.42-4.151-8.357-11.007-9.016-17.707" transform="translate(-99.581 -62.922)" fill="#5a2402"/>
              <path id="Trazado_1280371" data-name="Trazado 1280371" d="M355.082,272.448s-5.038,5.16-11.569,5.753a2.934,2.934,0,0,1-3.2-3.072,22.885,22.885,0,0,0-.182-4.164,34.744,34.744,0,0,0-.858-4.4l12.829-11.18.631,3.6v.007Z" transform="translate(-111.862 -84.807)" fill="#f9d5bf"/>
              <path id="Trazado_1280372" data-name="Trazado 1280372" d="M352.733,258.981v.007c-1.415,2.637-5.741,9.711-12.6,11.977a34.714,34.714,0,0,0-.858-4.4L352.1,255.382Z" transform="translate(-111.862 -84.807)" fill="#fca695"/>
              <path id="Trazado_1280373" data-name="Trazado 1280373" d="M307.31,220.879c-.487,5.088-.988,23.285,9.944,30.853,8.521,5.9,22.369-4.2,25.695-12.652,4.229-10.738,3.852-28.944-7.985-32.358-14.392-4.15-26.305.069-27.653,14.157" transform="translate(-101.277 -68.294)" fill="#f9d5bf"/>
              <path id="Trazado_1280374" data-name="Trazado 1280374" d="M318.37,238.038c0,1.114-.678,2.018-1.514,2.018s-1.514-.9-1.514-2.018.678-2.018,1.514-2.018,1.514.9,1.514,2.018" transform="translate(-103.987 -78.435)" fill="#5a2402"/>
              <path id="Trazado_1280375" data-name="Trazado 1280375" d="M306.218,217.483c-1.677-5.556.756-11.859,5.188-15.6s10.521-5.141,16.308-4.711a14.268,14.268,0,0,1,5.695,1.429c2.674,1.428,10.338,4.425,11.649,7.157,4.2,8.747,3.394,21.215-6.32,27.709-2.229-1.533-2.683-4.62-2.586-7.323s.511-5.563-.68-7.991a42.541,42.541,0,0,1-4.73-.033,14.162,14.162,0,0,1-4.6-1.787,14.4,14.4,0,0,1-6.02-7.418c-1.365,5.663-8.46,9.285-13.907,8.572" transform="translate(-100.809 -65.625)" fill="#5a2402"/>
              <path id="Trazado_1280376" data-name="Trazado 1280376" d="M338.487,238.79c0,1.114-.678,2.018-1.514,2.018s-1.514-.9-1.514-2.018.678-2.018,1.514-2.018,1.514.9,1.514,2.018" transform="translate(-110.607 -78.683)" fill="#5a2402"/>
              <path id="Trazado_1280377" data-name="Trazado 1280377" d="M355.632,241.722s2.144-4.036,5.424-2.649c2.87,1.214,2.4,4.162,1.514,6.433s-3.532,4.541-5.424,4.415-3.784-2.523-1.514-8.2" transform="translate(-116.904 -79.344)" fill="#f9d5bf"/>
              <path id="Trazado_1280378" data-name="Trazado 1280378" d="M357.079,247.461s3.153,1.387,3.91-3.027c.5-2.4-1.514-2.4-1.514-2.4a6.763,6.763,0,0,0-2.4,5.424" transform="translate(-117.72 -80.415)" fill="#fca695"/>
              <path id="Trazado_1280379" data-name="Trazado 1280379" d="M318.077,225.033c-2.335-.519-4.373.252-4.709,1.261s.673,1.934,1.934,1.514,2.523.757,3.532.337,1.514-2.607-.757-3.112" transform="translate(-103.316 -74.765)" fill="#5a2402"/>
              <path id="Trazado_1280380" data-name="Trazado 1280380" d="M335.468,226.036c2.335-.519,4.373.252,4.709,1.261s-.673,1.934-1.934,1.514-2.523.757-3.532.337-1.514-2.607.757-3.112" transform="translate(-110.08 -75.095)" fill="#5a2402"/>
              <path id="Trazado_1280381" data-name="Trazado 1280381" d="M357.57,248.224c-1.22-1.135-.26-5.137,1.892-6.307,1.934-1.051,2.775,1.64,2.775,1.64" transform="translate(-117.707 -80.296)" fill="none" stroke="#db7665" stroke-linecap="round" stroke-miterlimit="10" stroke-width="1"/>
              <path id="Trazado_1280382" data-name="Trazado 1280382" d="M358.021,244.977s2.187-.252,2.439,1.766" transform="translate(-118.031 -81.379)" fill="none" stroke="#db7665" stroke-linecap="round" stroke-miterlimit="10" stroke-width="1"/>
              <path id="Trazado_1280383" data-name="Trazado 1280383" d="M321.31,237.979a12.832,12.832,0,0,1-1.422,9.115,1,1,0,0,0-.2.577c.03.306.334.5.615.627a5.266,5.266,0,0,0,4.758-.3" transform="translate(-105.417 -79.08)" fill="none" stroke="#db7665" stroke-linecap="round" stroke-miterlimit="10" stroke-width="1"/>
              <path id="Trazado_1280384" data-name="Trazado 1280384" d="M323.932,258.578a11.136,11.136,0,0,0,9.408-4.171" transform="translate(-106.814 -84.486)" fill="none" stroke="#db7665" stroke-linecap="round" stroke-miterlimit="10" stroke-width="1"/>
              <path id="Trazado_1280385" data-name="Trazado 1280385" d="M360.156,190.834c-1.063-.707-2.433-1.432-3.537-.789a.892.892,0,0,0-.5.94,1.147,1.147,0,0,0,.36.48,46.412,46.412,0,0,0,7.173,5.455,1.492,1.492,0,0,0,.722.283,1.011,1.011,0,0,0,.922-.933,2.439,2.439,0,0,0-.354-1.373,9.285,9.285,0,0,0-5.186-4.47" transform="translate(-117.397 -63.224)" fill="#7f3f98"/>
              <path id="Trazado_1280386" data-name="Trazado 1280386" d="M315.041,376.206l-7.13-3.265s-10.4-5.77-13.462-5.333-7.865,4.369-10.487,6.554-8.739,9.613-4.807,10.924,8.3,3.059,12.235,1.31a23.516,23.516,0,0,1,14.856-1.748,39.269,39.269,0,0,0,9.328,1.173Z" transform="translate(-91.657 -121.73)" fill="#f9d5bf"/>
              <path id="Trazado_1280387" data-name="Trazado 1280387" d="M333.741,367l-1.035-16.554s17.8-.307,22.4-.613a32.364,32.364,0,0,0,7.364-1.228s-14.729-34.366-1.841-51.242" transform="translate(-109.701 -98.622)" fill="none" stroke="#bc5648" stroke-linecap="round" stroke-miterlimit="10" stroke-width="1"/>
              <path id="Trazado_1280388" data-name="Trazado 1280388" d="M377.067,373.738a27.174,27.174,0,0,1,11.1,5.645" transform="translate(-124.299 -123.754)" fill="none" stroke="#bc5648" stroke-linecap="round" stroke-miterlimit="10" stroke-width="1"/>
              <path id="Trazado_1280389" data-name="Trazado 1280389" d="M314.656,292.789s-6.444,14.115-7.978,19.025-6.444,15.035-6.444,19.33S303,342.191,303,342.191" transform="translate(-99.015 -97.116)" fill="none" stroke="#bc5648" stroke-linecap="round" stroke-miterlimit="10" stroke-width="1"/>
              <path id="Trazado_1280390" data-name="Trazado 1280390" d="M340,270.367c7.2-2.033,12.087-9.949,12.087-9.949" transform="translate(-112.103 -86.464)" fill="none" stroke="#db7665" stroke-linecap="round" stroke-miterlimit="10" stroke-width="1"/>
              <path id="Trazado_1280391" data-name="Trazado 1280391" d="M339.645,427.053c11.134,43.324,4.886,53.462-77.6,34.071" transform="translate(-86.449 -141.299)" fill="none" stroke="#a36b28" stroke-linecap="round" stroke-miterlimit="10" stroke-width="1"/>
              <rect id="Rectángulo_463080" data-name="Rectángulo 463080" width="3.833" height="1.789" transform="translate(162.112 263.865)" fill="#6489b5"/>
              <rect id="Rectángulo_463081" data-name="Rectángulo 463081" width="3.832" height="1.789" transform="translate(166.939 263.865)" fill="#6489b5"/>
              <rect id="Rectángulo_463082" data-name="Rectángulo 463082" width="3.832" height="1.789" transform="translate(171.766 263.865)" fill="#6489b5"/>
              <rect id="Rectángulo_463083" data-name="Rectángulo 463083" width="3.832" height="1.789" transform="translate(176.592 263.865)" fill="#6489b5"/>
              <rect id="Rectángulo_463084" data-name="Rectángulo 463084" width="3.832" height="1.789" transform="translate(181.418 263.865)" fill="#6489b5"/>
              <rect id="Rectángulo_463085" data-name="Rectángulo 463085" width="3.832" height="1.789" transform="translate(186.244 263.865)" fill="#6489b5"/>
              <rect id="Rectángulo_463086" data-name="Rectángulo 463086" width="3.832" height="1.789" transform="translate(191.07 263.865)" fill="#6489b5"/>
              <rect id="Rectángulo_463087" data-name="Rectángulo 463087" width="3.832" height="1.789" transform="translate(195.897 263.865)" fill="#6489b5"/>
              <rect id="Rectángulo_463088" data-name="Rectángulo 463088" width="3.832" height="1.789" transform="translate(200.723 263.865)" fill="#6489b5"/>
              <rect id="Rectángulo_463089" data-name="Rectángulo 463089" width="3.833" height="1.789" transform="translate(205.549 263.865)" fill="#6489b5"/>
              <rect id="Rectángulo_463090" data-name="Rectángulo 463090" width="3.832" height="1.789" transform="translate(210.376 263.865)" fill="#6489b5"/>
              <rect id="Rectángulo_463091" data-name="Rectángulo 463091" width="202.941" height="5.637" transform="translate(59.089 268.327)" fill="#d98c1b"/>
              <rect id="Rectángulo_463092" data-name="Rectángulo 463092" width="142.262" height="5.637" transform="translate(59.089 268.327)" fill="#ffb851"/>
              <rect id="Rectángulo_463093" data-name="Rectángulo 463093" width="182.443" height="69.826" transform="translate(69.338 273.964)" fill="#ffb851"/>
              <rect id="Rectángulo_463094" data-name="Rectángulo 463094" width="134.778" height="69.826" transform="translate(69.339 273.964)" fill="#d49234"/>
              <rect id="Rectángulo_463095" data-name="Rectángulo 463095" width="68.057" height="13.774" transform="translate(97.532 295.103)" fill="#f9d5bf"/>
              <rect id="Rectángulo_463096" data-name="Rectángulo 463096" width="182.443" height="3.807" transform="translate(69.338 273.964)" fill="#a4742f"/>
              <path id="Trazado_1280392" data-name="Trazado 1280392" d="M217.238,338.393H142.259a8.828,8.828,0,0,1-8.827-8.827V278.151a8.828,8.828,0,0,1,8.827-8.827h74.978a8.828,8.828,0,0,1,8.827,8.827v51.414a8.828,8.828,0,0,1-8.827,8.827" transform="translate(-44.125 -89.395)" fill="#90aed1"/>
              <path id="Trazado_1280393" data-name="Trazado 1280393" d="M206.944,338.393H131.965a8.828,8.828,0,0,1-8.827-8.827V278.151a8.828,8.828,0,0,1,8.827-8.827h74.978a8.828,8.828,0,0,1,8.827,8.827v51.414a8.828,8.828,0,0,1-8.827,8.827" transform="translate(-40.738 -89.395)" fill="#aac2e5"/>
              <path id="Trazado_1280394" data-name="Trazado 1280394" d="M153.416,377.167s9.345-45.1,12.595-46.723,13.776-1.815,15.808-.191,4.507,46.913,4.507,46.913Z" transform="translate(-50.701 -109.074)" fill="#90aed1"/>
              <path id="Trazado_1280395" data-name="Trazado 1280395" d="M176.147,338.121c-1.785.206-3.377,7.215-3.07,9.058s4.759,2,5.987.768,1.074-10.286-2.917-9.825" transform="translate(-57.159 -112.028)" fill="#aac2e5"/>
              <path id="Trazado_1280396" data-name="Trazado 1280396" d="M202,399.032H143.929a2.606,2.606,0,0,1-2.606-2.605v-.305a2.606,2.606,0,0,1,2.606-2.605H202a2.605,2.605,0,0,1,2.605,2.605v.305A2.605,2.605,0,0,1,202,399.032" transform="translate(-46.722 -130.263)" fill="#6489b5"/>
              <rect id="Rectángulo_463097" data-name="Rectángulo 463097" width="55.25" height="3.453" transform="translate(160.535 264.926)" fill="#6489b5"/>
              <line id="Línea_3456" data-name="Línea 3456" x2="175.629" transform="translate(69.338 273.964)" fill="none" stroke="#91443c" stroke-miterlimit="10" stroke-width="1"/>
              <line id="Línea_3457" data-name="Línea 3457" y2="50.448" transform="translate(175.033 189.722)" fill="none" stroke="#465c72" stroke-miterlimit="10" stroke-width="1"/>
              <line id="Línea_3458" data-name="Línea 3458" x2="3.616" y2="36.494" transform="translate(131.561 224.046)" fill="none" stroke="#465c72" stroke-miterlimit="10" stroke-width="1"/>
              <path id="Trazado_1280397" data-name="Trazado 1280397" d="M218.42,192.053a10.367,10.367,0,0,1-10.37,10.37H155.486a10.37,10.37,0,1,1,0-20.74h1.131a10.005,10.005,0,0,1,14.562-9.959,19.218,19.218,0,0,1,36.777,7.812,18.864,18.864,0,0,1-.119,2.147h.214a10.369,10.369,0,0,1,10.37,10.37" transform="translate(-47.97 -53.524)" fill="#69d7e5"/>
              <rect id="Rectángulo_463098" data-name="Rectángulo 463098" width="55.329" height="9.562" transform="translate(40.448 31.042)" fill="#e2eaf2"/>
              <path id="Trazado_1280398" data-name="Trazado 1280398" d="M128.022,55.515a1.921,1.921,0,1,1,1.92-1.92,1.92,1.92,0,0,1-1.92,1.92" transform="translate(-41.713 -17.772)" fill="#fff"/>
              <path id="Trazado_1280399" data-name="Trazado 1280399" d="M117.92,55.515a1.921,1.921,0,1,1,1.92-1.92,1.92,1.92,0,0,1-1.92,1.92" transform="translate(-38.389 -17.772)" fill="#fff"/>
              <path id="Trazado_1280400" data-name="Trazado 1280400" d="M107.819,55.515a1.921,1.921,0,1,1,1.92-1.92,1.92,1.92,0,0,1-1.92,1.92" transform="translate(-35.065 -17.772)" fill="#fff"/>
              <rect id="Rectángulo_463099" data-name="Rectángulo 463099" width="1.58" height="6.32" transform="translate(48.81 32.663)" fill="#fff"/>
              <rect id="Rectángulo_463100" data-name="Rectángulo 463100" width="1.58" height="6.32" transform="translate(46.309 32.663)" fill="#fff"/>
              <rect id="Rectángulo_463101" data-name="Rectángulo 463101" width="1.58" height="6.32" transform="translate(43.807 32.663)" fill="#fff"/>
              <rect id="Rectángulo_463102" data-name="Rectángulo 463102" width="55.329" height="9.562" transform="translate(40.448 43.814)" fill="#e2eaf2"/>
              <path id="Trazado_1280401" data-name="Trazado 1280401" d="M128.022,74.551a1.921,1.921,0,1,1,1.92-1.92,1.92,1.92,0,0,1-1.92,1.92" transform="translate(-41.713 -24.036)" fill="#fff"/>
              <path id="Trazado_1280402" data-name="Trazado 1280402" d="M117.92,74.551a1.921,1.921,0,1,1,1.92-1.92,1.92,1.92,0,0,1-1.92,1.92" transform="translate(-38.389 -24.036)" fill="#fff"/>
              <path id="Trazado_1280403" data-name="Trazado 1280403" d="M107.819,74.551a1.921,1.921,0,1,1,1.92-1.92,1.92,1.92,0,0,1-1.92,1.92" transform="translate(-35.065 -24.036)" fill="#fff"/>
              <rect id="Rectángulo_463103" data-name="Rectángulo 463103" width="1.58" height="6.32" transform="translate(48.81 45.435)" fill="#fff"/>
              <rect id="Rectángulo_463104" data-name="Rectángulo 463104" width="1.58" height="6.32" transform="translate(46.309 45.435)" fill="#fff"/>
              <rect id="Rectángulo_463105" data-name="Rectángulo 463105" width="1.58" height="6.32" transform="translate(43.807 45.435)" fill="#fff"/>
              <rect id="Rectángulo_463106" data-name="Rectángulo 463106" width="55.329" height="9.562" transform="translate(40.448 56.585)" fill="#e2eaf2"/>
              <path id="Trazado_1280404" data-name="Trazado 1280404" d="M128.022,93.587a1.921,1.921,0,1,1,1.92-1.92,1.92,1.92,0,0,1-1.92,1.92" transform="translate(-41.713 -30.3)" fill="#fff"/>
              <path id="Trazado_1280405" data-name="Trazado 1280405" d="M117.92,93.587a1.921,1.921,0,1,1,1.92-1.92,1.92,1.92,0,0,1-1.92,1.92" transform="translate(-38.389 -30.3)" fill="#fff"/>
              <path id="Trazado_1280406" data-name="Trazado 1280406" d="M107.819,93.587a1.921,1.921,0,1,1,1.92-1.92,1.92,1.92,0,0,1-1.92,1.92" transform="translate(-35.065 -30.3)" fill="#fff"/>
              <rect id="Rectángulo_463107" data-name="Rectángulo 463107" width="1.58" height="6.32" transform="translate(48.81 58.206)" fill="#fff"/>
              <rect id="Rectángulo_463108" data-name="Rectángulo 463108" width="1.58" height="6.32" transform="translate(46.309 58.206)" fill="#fff"/>
              <rect id="Rectángulo_463109" data-name="Rectángulo 463109" width="1.58" height="6.32" transform="translate(43.807 58.206)" fill="#fff"/>
              <rect id="Rectángulo_463110" data-name="Rectángulo 463110" width="35.106" height="1.316" transform="translate(50.559 73.365)" fill="#e2eaf2"/>
              <rect id="Rectángulo_463111" data-name="Rectángulo 463111" width="1.212" height="9.136" transform="translate(67.506 64.887)" fill="#e2eaf2"/>
              <path id="Trazado_1280407" data-name="Trazado 1280407" d="M103.136,110.227a2.54,2.54,0,1,1-2.54-2.54,2.54,2.54,0,0,1,2.54,2.54" transform="translate(-32.484 -36.204)" fill="#e2eaf2"/>
              <path id="Trazado_1280408" data-name="Trazado 1280408" d="M102.6,110.747a1.48,1.48,0,1,1-1.481-1.481,1.481,1.481,0,0,1,1.481,1.481" transform="translate(-33.004 -36.724)" fill="#fff"/>
              <line id="Línea_3459" data-name="Línea 3459" x2="55.329" transform="translate(40.447 66.147)" fill="none" stroke="#8496a5" stroke-linecap="round" stroke-miterlimit="10" stroke-width="1"/>
              <line id="Línea_3460" data-name="Línea 3460" x2="55.329" transform="translate(40.447 53.376)" fill="none" stroke="#8496a5" stroke-linecap="round" stroke-miterlimit="10" stroke-width="1"/>
              <line id="Línea_3461" data-name="Línea 3461" x2="55.329" transform="translate(40.447 40.604)" fill="none" stroke="#8496a5" stroke-linecap="round" stroke-miterlimit="10" stroke-width="1"/>
              <path id="Trazado_1280409" data-name="Trazado 1280409" d="M369.614,85.309H321.888a2.261,2.261,0,0,1-2.261-2.261V52.738a2.261,2.261,0,0,1,2.261-2.261h47.726a2.261,2.261,0,0,1,2.261,2.261v30.31a2.261,2.261,0,0,1-2.261,2.261" transform="translate(-105.397 -17.378)" fill="#d5f4f8"/>
              <path id="Trazado_1280410" data-name="Trazado 1280410" d="M369.614,97.925H321.888a2.261,2.261,0,0,1-2.261-2.261V91.076a2.261,2.261,0,0,1,2.261-2.261h47.726a2.261,2.261,0,0,1,2.261,2.261v4.588a2.261,2.261,0,0,1-2.261,2.261" transform="translate(-105.397 -29.994)" fill="#e2eaf2"/>
              <rect id="Rectángulo_463112" data-name="Rectángulo 463112" width="52.248" height="9.11" rx="3.37" transform="translate(214.23 58.821)" fill="none" stroke="#8496a5" stroke-miterlimit="10" stroke-width="1"/>
              <path id="Trazado_1280411" data-name="Trazado 1280411" d="M327.3,55.685a2.169,2.169,0,1,1-2.169-2.169,2.169,2.169,0,0,1,2.169,2.169" transform="translate(-106.495 -18.378)" fill="#fff"/>
              <path id="Trazado_1280412" data-name="Trazado 1280412" d="M339.91,72.634a5,5,0,0,0,2.529.713c1.442,0,2.286-.761,2.286-1.865,0-1.02-.584-1.6-2.059-2.172-1.783-.632-2.886-1.557-2.886-3.1,0-1.7,1.41-2.966,3.534-2.966a4.972,4.972,0,0,1,2.415.534l-.389,1.151a4.351,4.351,0,0,0-2.075-.519c-1.492,0-2.058.892-2.058,1.638,0,1.02.664,1.524,2.171,2.107,1.848.714,2.789,1.606,2.789,3.21,0,1.686-1.249,3.145-3.826,3.145a5.642,5.642,0,0,1-2.788-.7Z" transform="translate(-111.954 -21.581)" fill="#bcccdd"/>
              <path id="Trazado_1280413" data-name="Trazado 1280413" d="M351.829,72.634a5,5,0,0,0,2.529.713c1.443,0,2.286-.761,2.286-1.865,0-1.02-.584-1.6-2.059-2.172-1.783-.632-2.886-1.557-2.886-3.1,0-1.7,1.41-2.966,3.534-2.966a4.972,4.972,0,0,1,2.415.534l-.389,1.151a4.351,4.351,0,0,0-2.075-.519c-1.491,0-2.058.892-2.058,1.638,0,1.02.664,1.524,2.171,2.107,1.848.714,2.79,1.606,2.79,3.21,0,1.686-1.249,3.145-3.827,3.145a5.642,5.642,0,0,1-2.788-.7Z" transform="translate(-115.877 -21.581)" fill="#bcccdd"/>
              <path id="Trazado_1280414" data-name="Trazado 1280414" d="M364.212,63.62a20.137,20.137,0,0,1,3-.227,6.256,6.256,0,0,1,4.426,1.362,5.033,5.033,0,0,1,1.54,3.923,5.782,5.782,0,0,1-1.572,4.248,6.732,6.732,0,0,1-4.831,1.572,22.749,22.749,0,0,1-2.562-.129Zm1.411,9.661a8.952,8.952,0,0,0,1.427.081c3.014,0,4.651-1.686,4.651-4.637.017-2.577-1.443-4.214-4.425-4.214a8,8,0,0,0-1.654.146Z" transform="translate(-120.069 -21.628)" fill="#bcccdd"/>
              <line id="Línea_3462" data-name="Línea 3462" y1="31.03" transform="translate(132.169 148.899)" fill="none" stroke="#a8c5e2" stroke-miterlimit="10" stroke-width="1"/>
              <path id="Trazado_1280415" data-name="Trazado 1280415" d="M174.588,147.3V131.655H102.106V120.744" transform="translate(-33.817 -40.501)" fill="none" stroke="#a8c5e2" stroke-miterlimit="10" stroke-width="1"/>
              <path id="Trazado_1280416" data-name="Trazado 1280416" d="M210.138,126.692H310.661V105.663" transform="translate(-69.367 -35.538)" fill="none" stroke="#a8c5e2" stroke-miterlimit="10" stroke-width="1"/>
              <path id="Trazado_1280417" data-name="Trazado 1280417" d="M98.195,122.732v-1.988h4.894v1.988a2.447,2.447,0,0,1-4.894,0" transform="translate(-32.53 -40.501)" fill="#2c4c7c"/>
              <path id="Trazado_1280418" data-name="Trazado 1280418" d="M356.4,107.463v-1.988H361.3v1.988a2.447,2.447,0,0,1-4.894,0" transform="translate(-117.499 -35.476)" fill="#2c4c7c"/>
              <path id="Trazado_1280419" data-name="Trazado 1280419" d="M211.385,155.825v1.988h-4.894v-1.988a2.447,2.447,0,1,1,4.894,0" transform="translate(-68.167 -51.24)" fill="#2c4c7c"/>
              <path id="Trazado_1280420" data-name="Trazado 1280420" d="M198.564,266.137v1.988H193.67v-1.988a2.447,2.447,0,1,1,4.894,0" transform="translate(-63.948 -87.541)" fill="#2c4c7c"/>
            </g>
          </g>
          <text id="HOST" transform="translate(119.161 133.814)" fill="#fff" font-size="8" font-family="Montserrat-Bold, Montserrat" font-weight="700"><tspan x="0" y="0">HO</tspan><tspan y="0" letter-spacing="-0.009em">S</tspan><tspan y="0">T</tspan></text>
          <g id="Grupo_1213520" data-name="Grupo 1213520" transform="translate(0.216 0.767)">
            <g id="Grupo_1213519" data-name="Grupo 1213519" clip-path="url(#clip-path-3)">
              <rect id="Rectángulo_463114" data-name="Rectángulo 463114" width="50.771" height="49.948" transform="translate(22.412 121.035)" fill="#6cb9ff"/>
              <rect id="Rectángulo_463115" data-name="Rectángulo 463115" width="29.172" height="3.52" transform="translate(37.284 130.852)" fill="#fff"/>
              <rect id="Rectángulo_463116" data-name="Rectángulo 463116" width="29.172" height="3.52" transform="translate(37.284 139.783)" fill="#fff"/>
              <rect id="Rectángulo_463117" data-name="Rectángulo 463117" width="29.172" height="3.52" transform="translate(37.284 148.713)" fill="#fff"/>
              <rect id="Rectángulo_463118" data-name="Rectángulo 463118" width="29.172" height="3.52" transform="translate(37.284 157.644)" fill="#fff"/>
              <path id="Trazado_1280421" data-name="Trazado 1280421" d="M47.275,197.937a1.76,1.76,0,1,1-1.761-1.761,1.761,1.761,0,0,1,1.761,1.761" transform="translate(-14.615 -65.324)" fill="#b6cadd"/>
              <path id="Trazado_1280422" data-name="Trazado 1280422" d="M47.275,211.247a1.76,1.76,0,1,1-1.761-1.761,1.761,1.761,0,0,1,1.761,1.761" transform="translate(-14.615 -69.704)" fill="#b6cadd"/>
              <path id="Trazado_1280423" data-name="Trazado 1280423" d="M47.275,224.558a1.76,1.76,0,1,1-1.761-1.76,1.761,1.761,0,0,1,1.761,1.76" transform="translate(-14.615 -74.084)" fill="#b6cadd"/>
              <path id="Trazado_1280424" data-name="Trazado 1280424" d="M47.275,237.868a1.76,1.76,0,1,1-1.761-1.761,1.761,1.761,0,0,1,1.761,1.761" transform="translate(-14.615 -78.464)" fill="#b6cadd"/>
              <path id="Trazado_1280425" data-name="Trazado 1280425" d="M273.469,115.263s-2.148,18.881-16.115,26.227c-13.967-7.346-16.116-26.227-16.116-26.227s10.711-1.869,16.116-7.577c5.4,5.709,16.115,7.577,16.115,7.577" transform="translate(-79.601 -36.204)" fill="#76a87e"/>
              <path id="Trazado_1280426" data-name="Trazado 1280426" d="M270.733,121.134s-1.432,12.589-10.745,17.487c-9.312-4.9-10.745-17.487-10.745-17.487s7.141-1.246,10.745-5.052c3.6,3.806,10.745,5.052,10.745,5.052" transform="translate(-82.236 -38.967)" fill="#97ba9b"/>
              <path id="Trazado_1280427" data-name="Trazado 1280427" d="M257.728,129.326l3.94,3.918,7.376-7.029" transform="translate(-85.028 -42.301)" fill="none" stroke="#fff" stroke-miterlimit="10" stroke-width="2"/>
              <rect id="Rectángulo_463119" data-name="Rectángulo 463119" width="38.891" height="23.486" transform="translate(142.191 32.07)" fill="#e2eaf2"/>
              <path id="Trazado_1280428" data-name="Trazado 1280428" d="M212.255,48.944,231.7,60.687l19.445-11.743" transform="translate(-70.064 -16.874)" fill="none" stroke="#8496a5" stroke-linecap="round" stroke-miterlimit="10" stroke-width="1"/>
              <line id="Línea_3463" data-name="Línea 3463" x1="15.892" y2="13.89" transform="translate(142.192 41.667)" fill="none" stroke="#8496a5" stroke-linecap="round" stroke-miterlimit="10" stroke-width="1"/>
              <line id="Línea_3464" data-name="Línea 3464" x2="15.371" y2="13.89" transform="translate(165.711 41.667)" fill="none" stroke="#8496a5" stroke-linecap="round" stroke-miterlimit="10" stroke-width="1"/>
              <path id="Trazado_1280429" data-name="Trazado 1280429" d="M176.646,115.19V70.71h22.471" transform="translate(-58.346 -24.036)" fill="none" stroke="#a8c5e2" stroke-miterlimit="10" stroke-width="1"/>
              <path id="Trazado_1280430" data-name="Trazado 1280430" d="M208.093,67.063h1.988v4.894h-1.988a2.447,2.447,0,1,1,0-4.894" transform="translate(-67.889 -22.836)" fill="#2c4c7c"/>
              <path id="Trazado_1280431" data-name="Trazado 1280431" d="M416.34,120.363a10.222,10.222,0,1,0,10.224,10.223,10.223,10.223,0,0,0-10.224-10.223m0,15.292a5.07,5.07,0,1,1,5.072-5.069,5.069,5.069,0,0,1-5.072,5.069" transform="translate(-133.86 -40.376)" fill="#e2eaf2"/>
              <path id="Trazado_1280432" data-name="Trazado 1280432" d="M422.953,134.061a3.135,3.135,0,1,1-3.136-3.136,3.135,3.135,0,0,1,3.136,3.136" transform="translate(-137.336 -43.851)" fill="#e2eaf2"/>
              <path id="Trazado_1280433" data-name="Trazado 1280433" d="M422.6,119.774h-4.909v-3.487a2.424,2.424,0,0,1,2.424-2.423h.061a2.423,2.423,0,0,1,2.424,2.423Z" transform="translate(-137.668 -38.237)" fill="#e2eaf2"/>
              <path id="Trazado_1280434" data-name="Trazado 1280434" d="M413.535,121.12l-3.971,2.886-2.05-2.821a2.424,2.424,0,0,1,.537-3.386l.049-.036a2.424,2.424,0,0,1,3.386.536Z" transform="translate(-134.166 -39.368)" fill="#e2eaf2"/>
              <path id="Trazado_1280435" data-name="Trazado 1280435" d="M407,127.542l-1.517,4.669-3.316-1.078a2.423,2.423,0,0,1-1.556-3.054l.019-.058a2.424,2.424,0,0,1,3.054-1.557Z" transform="translate(-132.008 -42.344)" fill="#e2eaf2"/>
              <path id="Trazado_1280436" data-name="Trazado 1280436" d="M405.487,136.117,407,140.785l-3.316,1.078a2.423,2.423,0,0,1-3.054-1.556l-.019-.058a2.424,2.424,0,0,1,1.557-3.054Z" transform="translate(-132.009 -45.56)" fill="#e2eaf2"/>
              <path id="Trazado_1280437" data-name="Trazado 1280437" d="M409.571,143.906l3.971,2.886-2.049,2.821a2.424,2.424,0,0,1-3.386.536l-.05-.036a2.424,2.424,0,0,1-.536-3.385Z" transform="translate(-134.168 -48.123)" fill="#e2eaf2"/>
              <path id="Trazado_1280438" data-name="Trazado 1280438" d="M417.7,148.522h4.909v3.487a2.424,2.424,0,0,1-2.424,2.423h-.062a2.423,2.423,0,0,1-2.423-2.423Z" transform="translate(-137.671 -49.642)" fill="#e2eaf2"/>
              <path id="Trazado_1280439" data-name="Trazado 1280439" d="M426,146.786l3.971-2.886,2.05,2.821a2.423,2.423,0,0,1-.537,3.385l-.05.036a2.424,2.424,0,0,1-3.386-.536Z" transform="translate(-140.401 -48.121)" fill="#e2eaf2"/>
              <path id="Trazado_1280440" data-name="Trazado 1280440" d="M432.518,140.776l1.517-4.668,3.316,1.077a2.423,2.423,0,0,1,1.556,3.054l-.019.058a2.424,2.424,0,0,1-3.054,1.557Z" transform="translate(-142.546 -45.557)" fill="#e2eaf2"/>
              <path id="Trazado_1280441" data-name="Trazado 1280441" d="M434.032,132.2l-1.517-4.668,3.316-1.077a2.423,2.423,0,0,1,3.054,1.556l.02.058a2.424,2.424,0,0,1-1.557,3.054Z" transform="translate(-142.545 -42.341)" fill="#e2eaf2"/>
              <path id="Trazado_1280442" data-name="Trazado 1280442" d="M429.96,124l-3.971-2.885,2.049-2.821a2.424,2.424,0,0,1,3.385-.536l.05.036a2.424,2.424,0,0,1,.536,3.385Z" transform="translate(-140.398 -39.366)" fill="#e2eaf2"/>
              <path id="Trazado_1280443" data-name="Trazado 1280443" d="M443.221,179.084A13.609,13.609,0,1,0,456.833,192.7a13.611,13.611,0,0,0-13.612-13.611m0,20.36a6.751,6.751,0,1,1,6.753-6.749,6.75,6.75,0,0,1-6.753,6.749" transform="translate(-141.59 -59.699)" fill="#e2eaf2"/>
              <path id="Trazado_1280444" data-name="Trazado 1280444" d="M452.024,197.322a4.174,4.174,0,1,1-4.175-4.175,4.174,4.174,0,0,1,4.175,4.175" transform="translate(-146.218 -64.327)" fill="#e2eaf2"/>
              <path id="Trazado_1280445" data-name="Trazado 1280445" d="M451.556,178.3H445.02v-5.445a2.424,2.424,0,0,1,2.424-2.424h1.688a2.424,2.424,0,0,1,2.424,2.424Z" transform="translate(-146.66 -56.852)" fill="#e2eaf2"/>
              <path id="Trazado_1280446" data-name="Trazado 1280446" d="M439.328,179.937l-5.288,3.842-3.2-4.405a2.424,2.424,0,0,1,.536-3.386l1.366-.992a2.424,2.424,0,0,1,3.386.536Z" transform="translate(-141.842 -58.201)" fill="#e2eaf2"/>
              <path id="Trazado_1280447" data-name="Trazado 1280447" d="M430.683,188.541l-2.019,6.216-5.179-1.683a2.424,2.424,0,0,1-1.557-3.054l.522-1.606a2.423,2.423,0,0,1,3.054-1.556Z" transform="translate(-139.022 -62.218)" fill="#e2eaf2"/>
              <path id="Trazado_1280448" data-name="Trazado 1280448" d="M428.667,200.06l2.02,6.216-5.179,1.683a2.424,2.424,0,0,1-3.054-1.557l-.521-1.606a2.424,2.424,0,0,1,1.556-3.054Z" transform="translate(-139.024 -66.602)" fill="#e2eaf2"/>
              <path id="Trazado_1280449" data-name="Trazado 1280449" d="M434.051,210.431l5.288,3.842-3.2,4.405a2.424,2.424,0,0,1-3.385.536l-1.366-.992a2.424,2.424,0,0,1-.537-3.385Z" transform="translate(-141.845 -70.014)" fill="#e2eaf2"/>
              <path id="Trazado_1280450" data-name="Trazado 1280450" d="M445.034,216.577h6.536v5.445a2.424,2.424,0,0,1-2.423,2.424h-1.689a2.423,2.423,0,0,1-2.423-2.424Z" transform="translate(-146.665 -72.037)" fill="#e2eaf2"/>
              <path id="Trazado_1280451" data-name="Trazado 1280451" d="M456.077,214.265l5.288-3.842,3.2,4.405a2.424,2.424,0,0,1-.536,3.385l-1.366.992a2.424,2.424,0,0,1-3.385-.536Z" transform="translate(-150.299 -70.012)" fill="#e2eaf2"/>
              <path id="Trazado_1280452" data-name="Trazado 1280452" d="M464.76,206.263l2.019-6.216,5.179,1.683a2.424,2.424,0,0,1,1.557,3.054l-.522,1.606a2.424,2.424,0,0,1-3.054,1.556Z" transform="translate(-153.156 -66.597)" fill="#e2eaf2"/>
              <path id="Trazado_1280453" data-name="Trazado 1280453" d="M466.777,194.744l-2.02-6.216,5.179-1.683a2.424,2.424,0,0,1,3.054,1.557l.521,1.606a2.423,2.423,0,0,1-1.556,3.054Z" transform="translate(-153.155 -62.214)" fill="#e2eaf2"/>
              <path id="Trazado_1280454" data-name="Trazado 1280454" d="M461.355,183.771l-5.288-3.842,3.2-4.405a2.424,2.424,0,0,1,3.385-.536l1.366.992a2.424,2.424,0,0,1,.537,3.386Z" transform="translate(-150.296 -58.199)" fill="#e2eaf2"/>
            </g>
          </g>
        </g>
      </g>
    </g>
  </g>
</svg>
