<svg xmlns="http://www.w3.org/2000/svg" xmlns:xlink="http://www.w3.org/1999/xlink" width="84" height="84" viewBox="0 0 84 84">
  <defs>
    <clipPath id="clip-path">
      <rect id="Rectángulo_463068" data-name="Rectángulo 463068" width="71.722" height="67.272" fill="#344866"/>
    </clipPath>
  </defs>
  <g id="Grupo_1212972" data-name="Grupo 1212972" transform="translate(0.578 -0.754)">
    <g id="Grupo_1119665" data-name="Grupo 1119665" transform="translate(-0.578 0.754)">
      <rect id="Rectángulo_402006" data-name="Rectángulo 402006" width="84" height="84" rx="5" fill="#a4e7f0"/>
    </g>
    <g id="Grupo_1213504" data-name="Grupo 1213504" transform="translate(5.422 8.754)">
      <g id="Grupo_1213504-2" data-name="Grupo 1213504" clip-path="url(#clip-path)">
        <path id="Trazado_1280326" data-name="Trazado 1280326" d="M58.642,49.507A14.315,14.315,0,0,1,71.3,60.161a14.066,14.066,0,0,1-6.456,15.711C56.4,80.69,44.9,78.646,36.085,75A65.7,65.7,0,0,1,9.336,54.543C3.542,47.075-1.074,37.247.219,27.767A14.479,14.479,0,0,1,5.8,18.151,15.581,15.581,0,0,1,21.39,15.84a15.791,15.791,0,0,1,9.463,11.375l.77,3.622A10.316,10.316,0,0,1,26.8,41.632a2.314,2.314,0,0,0-.967,1.5,2.412,2.412,0,0,0,.808,1.888L38.5,56.106c.479.447,1.387,1.02,1.9.248a16.516,16.516,0,0,1,18.24-6.847m1.137,2.631-3.735-.622a13.521,13.521,0,0,0-13.3,5.846,3.778,3.778,0,0,1-2.869,1.791,4,4,0,0,1-3.115-1.318L25.015,46.873a4.594,4.594,0,0,1-1.584-4.159A4.827,4.827,0,0,1,25.683,39.4a8.065,8.065,0,0,0,3.51-8.331c-.3-1.535-.647-3-1.047-4.489a12.99,12.99,0,0,0-8.467-8.769A13.136,13.136,0,0,0,6.89,20.376a12.2,12.2,0,0,0-4.219,7.845C1.5,36.193,5.333,44.878,10.033,51.386A63.558,63.558,0,0,0,36.341,72.512c8.181,3.533,19.26,5.716,27.161,1.356a11.768,11.768,0,0,0-3.724-21.731" transform="translate(0 -11.429)" fill="#344866"/>
        <path id="Trazado_1280327" data-name="Trazado 1280327" d="M221.187,26.277A23.884,23.884,0,0,0,197.569,2.438a1.2,1.2,0,0,1-1.335-1.291A1.25,1.25,0,0,1,197.561,0a26.3,26.3,0,0,1,26.062,26.285,1.269,1.269,0,0,1-1.166,1.245,1.284,1.284,0,0,1-1.269-1.254" transform="translate(-152.473 0)" fill="#344866"/>
        <path id="Trazado_1280328" data-name="Trazado 1280328" d="M214.115,50.978a16.857,16.857,0,0,0-16.979-17.065c-.6,0-1.064-.931-.976-1.368a1.33,1.33,0,0,1,1.364-1.054,19.271,19.271,0,0,1,19.007,19,1.47,1.47,0,0,1-.9,1.454c-.453.171-1.524-.147-1.52-.97" transform="translate(-152.406 -24.468)" fill="#344866"/>
        <path id="Trazado_1280329" data-name="Trazado 1280329" d="M188.473,99.589a5.194,5.194,0,1,1-5.194-5.194,5.194,5.194,0,0,1,5.194,5.194m-2.428.016a2.773,2.773,0,1,0-2.773,2.773,2.773,2.773,0,0,0,2.773-2.773" transform="translate(-138.37 -73.344)" fill="#344866"/>
        <path id="Trazado_1280330" data-name="Trazado 1280330" d="M207.188,75.742a9.788,9.788,0,0,0-9.323-9.926c-.526-.019-1.081-.032-1.3-.3a1.757,1.757,0,0,1-.222-1.432,1.641,1.641,0,0,1,1.52-.62A12.255,12.255,0,0,1,209.6,75.526a1.322,1.322,0,0,1-1,1.3,1.277,1.277,0,0,1-1.416-1.081" transform="translate(-152.5 -49.305)" fill="#344866"/>
      </g>
    </g>
  </g>
</svg>
