<svg xmlns="http://www.w3.org/2000/svg" xmlns:xlink="http://www.w3.org/1999/xlink" width="96" height="96" viewBox="0 0 96 96">
  <defs>
    <clipPath id="clip-path">
      <rect id="Rectángulo_454829" data-name="Rectángulo 454829" width="96" height="96" fill="#1e535a"/>
    </clipPath>
    <clipPath id="clip-path-2">
      <rect id="Rectángulo_463124" data-name="Rectángulo 463124" width="35" height="35.046" transform="translate(0 0)" fill="#1e535a"/>
    </clipPath>
  </defs>
  <g id="Grupo_1213000" data-name="Grupo 1213000" transform="translate(-1481 -8562.5)">
    <g id="Grupo_1177591" data-name="Grupo 1177591" transform="translate(1481 8562.5)">
      <g id="Grupo_1177589" data-name="Grupo 1177589" transform="translate(0 0)">
        <g id="Grupo_1177587" data-name="Grupo 1177587" clip-path="url(#clip-path)">
          <path id="Trazado_997422" data-name="Trazado 997422" d="M92.081,42.491a44.136,44.136,0,0,0-9.97-22.967,5.076,5.076,0,0,0-7.142-6.838A44.071,44.071,0,0,0,52.151,3.77a5.077,5.077,0,0,0-9.861.2A44.132,44.132,0,0,0,20.4,13.329a5.079,5.079,0,0,0-7.048,7.1A44.1,44.1,0,0,0,4.112,42.448,5.08,5.08,0,0,0,3.99,52.4a44.082,44.082,0,0,0,8.949,22.468,5.078,5.078,0,0,0,6.9,7.17,44.128,44.128,0,0,0,22.412,9.8,5.078,5.078,0,0,0,9.949.2,44.091,44.091,0,0,0,22.985-9.08,5.077,5.077,0,0,0,7.107-6.874A44.147,44.147,0,0,0,92.2,52.349a5.078,5.078,0,0,0-.119-9.858M77.74,22.024a5.05,5.05,0,0,0,2.812-.851,41.913,41.913,0,0,1,9.25,21.3,5.086,5.086,0,0,0-3.246,2.351l-12.98-4.867c.01-.142.02-.286.02-.433a5.079,5.079,0,0,0-2.151-4.15l5.678-13.4a5.5,5.5,0,0,0,.616.041M75,21.216,69.354,34.523a5.026,5.026,0,0,0-5.594,3.23L40.279,32.344a4.941,4.941,0,0,0-.106-1.011l33.322-11.6A5.1,5.1,0,0,0,75,21.216M47.246,10.165a5.083,5.083,0,0,0,4.989-4.122,41.844,41.844,0,0,1,21.158,8.275,5.054,5.054,0,0,0-.735,2.625,5.335,5.335,0,0,0,.048.671L39.217,29.273a5.1,5.1,0,0,0-.92-.92l8.784-18.2c.056,0,.109.008.165.008M42.3,6.243A5.083,5.083,0,0,0,44.86,9.569L36.248,27.4a5.1,5.1,0,0,0-1.049-.109,5.045,5.045,0,0,0-2.9.91L22.1,19.678A5.052,5.052,0,0,0,21.923,15,41.877,41.877,0,0,1,42.3,6.243M10.041,46.332,31.153,35.442a5.064,5.064,0,0,0,4.006,2.014l7.236,23.129a5.166,5.166,0,0,0-1.12,1.239l-31.3-13.04a5.048,5.048,0,0,0,.187-1.348,5.107,5.107,0,0,0-.124-1.1m4.986-24.391a5.079,5.079,0,0,0,5.673-.484l10.079,8.417a5.068,5.068,0,0,0-.56,3.512L9.07,44.29A5.081,5.081,0,0,0,6.38,42.526a41.859,41.859,0,0,1,8.647-20.585m2.1,50.717a5.067,5.067,0,0,0-2.523.674A41.822,41.822,0,0,1,6.263,52.374,5.087,5.087,0,0,0,8.9,50.783l31.609,13.17a5.45,5.45,0,0,0-.041.611,5.081,5.081,0,0,0,.3,1.718L21.657,75.44a5.081,5.081,0,0,0-4.528-2.782M42.349,89.575a41.919,41.919,0,0,1-20.912-9.149,5.029,5.029,0,0,0,.775-2.686l0-.058L42,68.2A5.082,5.082,0,0,0,43.8,69.329l1.186,17.043a5.082,5.082,0,0,0-2.632,3.2m2.105-29.97-7.081-22.64a5.089,5.089,0,0,0,2.415-2.415L63.459,40a5.052,5.052,0,0,0,.808,2.311L48.032,60.13a5.019,5.019,0,0,0-3.577-.524m7.74,30.167a5.081,5.081,0,0,0-4.948-3.937l-.038,0L46.081,69.62a5.073,5.073,0,0,0,3.106-1.507L72.853,78.551c0,.046-.008.086-.008.132a5.057,5.057,0,0,0,.752,2.65,41.841,41.841,0,0,1-21.4,8.439M73.423,76.334,50.373,66.165a5.052,5.052,0,0,0-.666-4.52L65.893,43.877a5.052,5.052,0,0,0,2.622.735,5.594,5.594,0,0,0,.623-.041l6.05,29.836a5.071,5.071,0,0,0-1.766,1.928m7.292-1.9a5.051,5.051,0,0,0-3.377-.8L71.285,43.788a5.1,5.1,0,0,0,1.6-1.672L85.858,46.98a4.506,4.506,0,0,0-.023.456,5.08,5.08,0,0,0,4.084,4.981,41.876,41.876,0,0,1-9.2,22.017" transform="translate(0 0.001)" fill="#1e535a"/>
        </g>
      </g>
    </g>
    <g id="Elipse_13614" data-name="Elipse 13614" transform="translate(1497.676 8578.449)" fill="#d5f4f8" stroke="#1e535a" stroke-width="3">
      <ellipse cx="31.232" cy="31.233" rx="31.232" ry="31.233" stroke="none"/>
      <ellipse cx="31.232" cy="31.233" rx="29.732" ry="29.733" fill="none"/>
    </g>
    <g id="Grupo_1213526" data-name="Grupo 1213526" transform="translate(1511.676 8592.448)">
      <g id="Grupo_1213525" data-name="Grupo 1213525" transform="translate(0 0.001)" clip-path="url(#clip-path-2)">
        <path id="Trazado_1280463" data-name="Trazado 1280463" d="M72.965,55.367l1.972-3.178a1.579,1.579,0,0,0-.032-1.823,1.514,1.514,0,0,0-1.835-.473l-3.441,2.116a8.7,8.7,0,0,0-4.054-1.042V43.725l16.9,0a7.849,7.849,0,0,0,3.6,14.445v8.48L69.94,66.647a8.446,8.446,0,0,0,3.025-11.28m-.174-10.428H66.779v1.218h6.013Zm0,2.413H66.779v1.226h6.013ZM84.869,59.429H75.215v1.22h9.654Zm0,2.407H75.215v1.2h9.654Zm-9.657,3.611h1.22V64.241h-1.22Zm2.435,0h7.222V64.241H77.647Z" transform="translate(-58.315 -38.884)" fill="#1e535a"/>
        <path id="Trazado_1280464" data-name="Trazado 1280464" d="M11.917,123.129a7.232,7.232,0,1,1-.61-11.5l3.843-2.391c.087-.054.35-.115.4-.028a1.847,1.847,0,0,1,.127.428l-2.442,3.9a7.215,7.215,0,0,1-1.316,9.6m-1.154-5.8a1.8,1.8,0,0,0-2.646.7c-.293.47-.85,0-1.091-.242-1.169-1.189.682-1.071.809-2.434a1.88,1.88,0,0,0-.621-1.653,16.055,16.055,0,0,0-1.176-1.106c-1.109-.838-2.27-.278-3.113.594-.8.834-1.441,1.824-.966,3.03a12.226,12.226,0,0,0,6.222,6.474,2.488,2.488,0,0,0,3.04-.353l.923-.931a1.99,1.99,0,0,0-.017-2.764,12.03,12.03,0,0,0-1.364-1.317" transform="translate(0 -97.078)" fill="#1e535a"/>
        <path id="Trazado_1280465" data-name="Trazado 1280465" d="M84.414,267.827H67.277a1.8,1.8,0,0,1-1.689-1.646l-.017-4.423h20.5l-.016,4.422a1.816,1.816,0,0,1-1.641,1.646M69.271,265.98a.707.707,0,0,0,.517-.545v-1.271a.665.665,0,0,0-.568-.591l-1.2-.008a.665.665,0,0,0-.661.61l-.012,1.135a.678.678,0,0,0,.648.674Zm8.393,0a.589.589,0,0,0,.563-.555l0-1.277a.682.682,0,0,0-.521-.581H73.932a.681.681,0,0,0-.52.58l0,1.279a.594.594,0,0,0,.566.551Zm6,.006a.709.709,0,0,0,.624-.562l0-1.255a.675.675,0,0,0-.663-.607l-1.2.006a.664.664,0,0,0-.568.591v1.271a.7.7,0,0,0,.516.543Z" transform="translate(-58.312 -232.781)" fill="#1e535a"/>
        <path id="Trazado_1280466" data-name="Trazado 1280466" d="M73.354,3.624l-7.786.005.019-2.007A1.757,1.757,0,0,1,67.259,0l5.527,0L72.78,1.747a4.339,4.339,0,0,0,.574,1.878" transform="translate(-58.309 -0.001)" fill="#1e535a"/>
        <path id="Trazado_1280467" data-name="Trazado 1280467" d="M187.952,3.627h-7.813a3.932,3.932,0,0,0,.6-1.879l0-1.748,5.519,0a1.81,1.81,0,0,1,1.7,1.617Zm-1.2-1.81a.6.6,0,1,0-.6.6.6.6,0,0,0,.6-.6" transform="translate(-160.197 -0.001)" fill="#1e535a"/>
        <path id="Trazado_1280468" data-name="Trazado 1280468" d="M239.583,79.021l-4.81,0a17.29,17.29,0,0,1,.244-2.419l4.285,0Z" transform="translate(-208.782 -68.119)" fill="#1e535a"/>
        <path id="Trazado_1280469" data-name="Trazado 1280469" d="M239.176,111.505l-4.265.007a19.086,19.086,0,0,1-.273-2.412h4.809Z" transform="translate(-208.661 -97.022)" fill="#1e535a"/>
        <path id="Trazado_1280470" data-name="Trazado 1280470" d="M145.228,1.908a1.8,1.8,0,0,1-3.6.044L141.593.01h3.669Zm-1.2-.088a.6.6,0,1,0-.6.6.6.6,0,0,0,.6-.6" transform="translate(-125.918 -0.009)" fill="#1e535a"/>
        <path id="Trazado_1280471" data-name="Trazado 1280471" d="M199.612,111.44l-2.542.027a9.625,9.625,0,0,1-.693-2.407l3.011-.012Z" transform="translate(-174.637 -96.977)" fill="#1e535a"/>
        <path id="Trazado_1280472" data-name="Trazado 1280472" d="M199.459,78.981l-3.014-.01a8.513,8.513,0,0,1,.687-2.4l2.548,0Z" transform="translate(-174.697 -68.09)" fill="#1e535a"/>
        <path id="Trazado_1280473" data-name="Trazado 1280473" d="M290.058,79.005,287.064,79l-.251-2.419h2.538a7.009,7.009,0,0,1,.706,2.424" transform="translate(-255.061 -68.103)" fill="#1e535a"/>
        <path id="Trazado_1280474" data-name="Trazado 1280474" d="M289.35,111.507h-2.565l.241-2.4,3.011-.006a8.534,8.534,0,0,1-.686,2.405" transform="translate(-255.036 -97.024)" fill="#1e535a"/>
        <path id="Trazado_1280475" data-name="Trazado 1280475" d="M243.413,46.1l-3.655.007c.342-1.034,1.034-2.464,1.821-2.438a1.766,1.766,0,0,1,.783.375,6.482,6.482,0,0,1,1.051,2.056" transform="translate(-213.215 -38.83)" fill="#1e535a"/>
        <path id="Trazado_1280476" data-name="Trazado 1280476" d="M243.455,141.673c-.312,1.074-1.054,2.458-1.835,2.44-.809-.018-1.434-1.354-1.811-2.421Z" transform="translate(-213.261 -125.989)" fill="#1e535a"/>
        <path id="Trazado_1280477" data-name="Trazado 1280477" d="M279.719,49.406l-2,.035a21.464,21.464,0,0,0-.838-2.034,6.6,6.6,0,0,1,2.837,2" transform="translate(-246.229 -42.16)" fill="#1e535a"/>
        <path id="Trazado_1280478" data-name="Trazado 1280478" d="M279.678,141.795a6.732,6.732,0,0,1-2.845,2.006,17.265,17.265,0,0,0,.822-2.011Z" transform="translate(-246.186 -126.092)" fill="#1e535a"/>
        <path id="Trazado_1280479" data-name="Trazado 1280479" d="M212.338,49.455l-1.983,0a6.2,6.2,0,0,1,2.792-2.009c-.31.692-.515,1.2-.809,2.013" transform="translate(-187.067 -42.19)" fill="#1e535a"/>
        <path id="Trazado_1280480" data-name="Trazado 1280480" d="M212.229,141.727l.815,2.016a6.68,6.68,0,0,1-2.8-2.007Z" transform="translate(-186.968 -126.037)" fill="#1e535a"/>
        <path id="Trazado_1280481" data-name="Trazado 1280481" d="M34.231,152.265l1.21,1.162a.852.852,0,0,1-.045,1.234l-.954.914c-.469.449-1.082.222-1.579-.012a11.09,11.09,0,0,1-5.43-5.424,1.363,1.363,0,0,1,.046-1.518l1.1-1.109a.935.935,0,0,1,.929.009l1.074,1.034a1.018,1.018,0,0,1,.278.586c-.011.537-1.212.59-1.222,1.992a2.787,2.787,0,0,0,2.236,2.279,1.615,1.615,0,0,0,1.515-.774c.112-.207.535-.668.843-.372" transform="translate(-24.211 -131.075)" fill="#1e535a"/>
      </g>
    </g>
  </g>
</svg>
