<svg xmlns="http://www.w3.org/2000/svg" xmlns:xlink="http://www.w3.org/1999/xlink" width="151.457" height="151.466" viewBox="0 0 151.457 151.466">
  <defs>
    <radialGradient id="radial-gradient" cx="0.5" cy="0.5" r="0.5" gradientUnits="objectBoundingBox">
      <stop offset="0" stop-color="#fff"/>
      <stop offset="0.866" stop-color="#fff" stop-opacity="0.078"/>
      <stop offset="1" stop-color="#fff" stop-opacity="0"/>
    </radialGradient>
    <clipPath id="clip-path">
      <rect id="Rectángulo_454829" data-name="Rectángulo 454829" width="96.667" height="96.667" fill="none"/>
    </clipPath>
    <clipPath id="clip-path-2">
      <rect id="Rectángulo_454808" data-name="Rectángulo 454808" width="151.457" height="151.466" fill="none"/>
    </clipPath>
    <clipPath id="clip-path-3">
      <rect id="Rectángulo_461877" data-name="Rectángulo 461877" width="32.204" height="35.035" fill="#6cb9ff"/>
    </clipPath>
  </defs>
  <g id="Grupo_1212239" data-name="Grupo 1212239" transform="translate(13073 12011)">
    <circle id="Elipse_13694" data-name="Elipse 13694" cx="71" cy="71" r="71" transform="translate(-13068 -12006)" fill="url(#radial-gradient)"/>
    <g id="Grupo_1184530" data-name="Grupo 1184530" transform="translate(-14255.376 -12499.983)">
      <g id="Grupo_1177593" data-name="Grupo 1177593" transform="translate(297.438 346.529)">
        <g id="Grupo_1177591" data-name="Grupo 1177591">
          <g id="Grupo_1177589" data-name="Grupo 1177589" transform="translate(912.333 169.854)">
            <g id="Grupo_1177587" data-name="Grupo 1177587" transform="translate(0 0)" clip-path="url(#clip-path)">
              <path id="Trazado_997422" data-name="Trazado 997422" d="M92.72,42.786A44.443,44.443,0,0,0,82.681,19.659a5.111,5.111,0,0,0-7.192-6.886A44.377,44.377,0,0,0,52.514,3.8a5.112,5.112,0,0,0-9.929.2A44.438,44.438,0,0,0,20.54,13.422a5.114,5.114,0,0,0-7.1,7.146,44.4,44.4,0,0,0-9.3,22.175,5.116,5.116,0,0,0-.122,10.019,44.388,44.388,0,0,0,9.011,22.624,5.113,5.113,0,0,0,6.947,7.22,44.435,44.435,0,0,0,22.568,9.871,5.114,5.114,0,0,0,10.019.2,44.4,44.4,0,0,0,23.144-9.143,5.112,5.112,0,0,0,7.156-6.921,44.454,44.454,0,0,0,9.978-23.9,5.114,5.114,0,0,0-.12-9.927M78.281,22.177a5.085,5.085,0,0,0,2.832-.857,42.2,42.2,0,0,1,9.314,21.453,5.121,5.121,0,0,0-3.268,2.367l-13.07-4.9c.01-.143.02-.288.02-.436a5.114,5.114,0,0,0-2.166-4.179l5.717-13.488a5.54,5.54,0,0,0,.62.041m-2.763-.814-5.681,13.4A5.061,5.061,0,0,0,64.2,38.015L40.559,32.568a4.975,4.975,0,0,0-.107-1.018L74,19.866a5.13,5.13,0,0,0,1.513,1.5M47.575,10.235A5.118,5.118,0,0,0,52.6,6.085a42.135,42.135,0,0,1,21.3,8.332,5.089,5.089,0,0,0-.74,2.643,5.372,5.372,0,0,0,.048.676L39.49,29.476a5.133,5.133,0,0,0-.926-.926l8.845-18.323c.056,0,.11.008.166.008M42.6,6.286a5.119,5.119,0,0,0,2.574,3.35L36.5,27.594a5.132,5.132,0,0,0-1.056-.11,5.08,5.08,0,0,0-2.916.916L22.249,19.815a5.087,5.087,0,0,0-.173-4.709A42.168,42.168,0,0,1,42.6,6.286M10.11,46.654,31.369,35.689A5.1,5.1,0,0,0,35.4,37.717l7.286,23.29a5.2,5.2,0,0,0-1.128,1.248L10.047,49.123a5.083,5.083,0,0,0,.189-1.357,5.143,5.143,0,0,0-.125-1.112m5.021-24.56a5.114,5.114,0,0,0,5.712-.487l10.149,8.475a5.1,5.1,0,0,0-.564,3.536L9.133,44.6a5.116,5.116,0,0,0-2.709-1.776,42.149,42.149,0,0,1,8.707-20.728m2.117,51.07a5.1,5.1,0,0,0-2.541.679,42.112,42.112,0,0,1-8.4-21.1,5.122,5.122,0,0,0,2.656-1.6L40.791,64.4a5.487,5.487,0,0,0-.041.615,5.117,5.117,0,0,0,.306,1.73L21.808,75.964a5.117,5.117,0,0,0-4.559-2.8M42.643,90.2a42.21,42.21,0,0,1-21.057-9.212,5.064,5.064,0,0,0,.781-2.7l0-.059,19.93-9.552a5.118,5.118,0,0,0,1.806,1.14l1.194,17.162A5.117,5.117,0,0,0,42.643,90.2m2.12-30.178-7.131-22.8a5.125,5.125,0,0,0,2.431-2.431L63.9,40.278a5.087,5.087,0,0,0,.814,2.327L48.365,60.547a5.054,5.054,0,0,0-3.6-.528M52.557,90.4a5.116,5.116,0,0,0-4.982-3.965l-.038,0L46.4,70.1a5.108,5.108,0,0,0,3.128-1.518L73.359,79.1c0,.046-.008.087-.008.133a5.092,5.092,0,0,0,.758,2.669,42.132,42.132,0,0,1-21.552,8.5M73.933,76.865,50.723,66.624a5.087,5.087,0,0,0-.671-4.551l16.3-17.891a5.087,5.087,0,0,0,2.64.74,5.635,5.635,0,0,0,.628-.041l6.092,30.043a5.106,5.106,0,0,0-1.778,1.941m7.342-1.913a5.087,5.087,0,0,0-3.4-.8L71.78,44.092a5.138,5.138,0,0,0,1.612-1.684l13.062,4.9a4.535,4.535,0,0,0-.023.459,5.116,5.116,0,0,0,4.113,5.016,42.167,42.167,0,0,1-9.268,22.17" transform="translate(0 0.001)" fill="#fff"/>
            </g>
          </g>
        </g>
      </g>
      <circle id="Elipse_13615" data-name="Elipse 13615" cx="28" cy="28" r="28" transform="translate(1229.833 537)" fill="#fff"/>
      <g id="Grupo_1212238" data-name="Grupo 1212238" transform="translate(1242.922 548.483)">
        <g id="Grupo_1212237" data-name="Grupo 1212237" transform="translate(-0.919 -1)" clip-path="url(#clip-path-3)">
          <path id="Trazado_1277460" data-name="Trazado 1277460" d="M31.885,15.854a5.439,5.439,0,0,1-5.312,3.527,10.469,10.469,0,1,0-20.936-.1A6.709,6.709,0,0,1,.192,14.3,6.919,6.919,0,0,1,5.775,5.879a6.954,6.954,0,0,1,12.512-3,6.611,6.611,0,0,1,8.842,2.062,9.029,9.029,0,0,1,1.388,3.791,5.632,5.632,0,0,1,3.368,7.116" transform="translate(0 0)" fill="#6cb9ff"/>
          <path id="Trazado_1277461" data-name="Trazado 1277461" d="M68.824,279.127a2.463,2.463,0,0,1-2.238,1.823,2.376,2.376,0,0,1-2.385-1.819l-7.984-.005V278.04l7.982,0a2.349,2.349,0,0,1,1.741-1.743l.01-1.971,1.087-.012.02,1.982a2.358,2.358,0,0,1,1.737,1.746h7.959l.025,1.09Z" transform="translate(-50.397 -245.917)" fill="#6cb9ff"/>
          <path id="Trazado_1277462" data-name="Trazado 1277462" d="M196.265,125a23.641,23.641,0,0,0-.714-5,19.422,19.422,0,0,0,2.217-1.323,9.315,9.315,0,0,1,2.989,6.32Z" transform="translate(-175.31 -106.396)" fill="#6cb9ff"/>
          <path id="Trazado_1277463" data-name="Trazado 1277463" d="M69.784,125.065h-4.5a9.244,9.244,0,0,1,2.995-6.314,15.939,15.939,0,0,0,2.2,1.29,25.2,25.2,0,0,0-.7,5.022" transform="translate(-58.529 -106.46)" fill="#6cb9ff"/>
          <path id="Trazado_1277464" data-name="Trazado 1277464" d="M197.557,196.683a12.379,12.379,0,0,0-2.216-1.315,22,22,0,0,0,.729-5l4.489,0a9.242,9.242,0,0,1-3,6.323" transform="translate(-175.122 -170.657)" fill="#6cb9ff"/>
          <path id="Trazado_1277465" data-name="Trazado 1277465" d="M70.469,195.36a16.827,16.827,0,0,0-2.2,1.32,9.233,9.233,0,0,1-3.01-6.3l4.494,0a22.448,22.448,0,0,0,.72,4.988" transform="translate(-58.501 -170.667)" fill="#6cb9ff"/>
          <path id="Trazado_1277466" data-name="Trazado 1277466" d="M122.56,139.531l-3.2.008a19,19,0,0,1,.663-4.645,13.194,13.194,0,0,0,2.532.464Z" transform="translate(-107.009 -120.932)" fill="#6cb9ff"/>
          <path id="Trazado_1277467" data-name="Trazado 1277467" d="M160.852,139.555l-.005-4.17a14.3,14.3,0,0,0,2.533-.473,20.306,20.306,0,0,1,.671,4.638Z" transform="translate(-144.198 -120.948)" fill="#6cb9ff"/>
          <path id="Trazado_1277468" data-name="Trazado 1277468" d="M122.489,194.52a18.346,18.346,0,0,0-2.548.471,21.664,21.664,0,0,1-.658-4.626l3.2-.006Z" transform="translate(-106.936 -170.656)" fill="#6cb9ff"/>
          <path id="Trazado_1277469" data-name="Trazado 1277469" d="M163.407,194.986a15.718,15.718,0,0,0-2.553-.441v-4.178l3.2,0a21.514,21.514,0,0,1-.643,4.62" transform="translate(-144.204 -170.662)" fill="#6cb9ff"/>
          <path id="Trazado_1277470" data-name="Trazado 1277470" d="M163.061,98.5a13.664,13.664,0,0,1-2.217.418l.008-3.469a4.7,4.7,0,0,1,1.617,1.737Z" transform="translate(-144.196 -85.566)" fill="#6cb9ff"/>
          <path id="Trazado_1277471" data-name="Trazado 1277471" d="M131.061,244.686c-1.065-.459-1.724-1.811-2.2-3a13.862,13.862,0,0,1,2.217-.391Z" transform="translate(-115.519 -216.315)" fill="#6cb9ff"/>
          <path id="Trazado_1277472" data-name="Trazado 1277472" d="M163.051,241.646a5.491,5.491,0,0,1-2.208,3.035l-.009-3.429a13.8,13.8,0,0,1,2.217.394" transform="translate(-144.187 -216.281)" fill="#6cb9ff"/>
          <path id="Trazado_1277473" data-name="Trazado 1277473" d="M128.819,98.42a14.013,14.013,0,0,1,1.112-2.138,11.314,11.314,0,0,1,1.1-.923l.013,3.48a15.674,15.674,0,0,1-2.22-.419" transform="translate(-115.485 -85.489)" fill="#6cb9ff"/>
          <path id="Trazado_1277474" data-name="Trazado 1277474" d="M183.178,249.718a7.99,7.99,0,0,1-2.924,1.44,16.806,16.806,0,0,0,1.254-2.411Z" transform="translate(-161.597 -223)" fill="#6cb9ff"/>
          <path id="Trazado_1277475" data-name="Trazado 1277475" d="M105.551,251.279a8.293,8.293,0,0,1-2.95-1.456l1.646-.962a20.909,20.909,0,0,0,1.3,2.418" transform="translate(-91.981 -223.102)" fill="#6cb9ff"/>
          <path id="Trazado_1277476" data-name="Trazado 1277476" d="M104.053,100.363a11.4,11.4,0,0,1-1.71-.959,9.408,9.408,0,0,1,2.929-1.418,21.969,21.969,0,0,0-1.219,2.377" transform="translate(-91.75 -87.844)" fill="#6cb9ff"/>
          <path id="Trazado_1277477" data-name="Trazado 1277477" d="M183.392,99.481a17.21,17.21,0,0,1-1.709.957,23,23,0,0,0-1.228-2.381,9.463,9.463,0,0,1,2.936,1.424" transform="translate(-161.778 -87.907)" fill="#6cb9ff"/>
        </g>
      </g>
    </g>
  </g>
</svg>
