<svg xmlns="http://www.w3.org/2000/svg" xmlns:xlink="http://www.w3.org/1999/xlink" width="151.457" height="151.466" viewBox="0 0 151.457 151.466">
  <defs>
    <radialGradient id="radial-gradient" cx="0.5" cy="0.5" r="0.5" gradientUnits="objectBoundingBox">
      <stop offset="0" stop-color="#fff"/>
      <stop offset="0.866" stop-color="#fff" stop-opacity="0.078"/>
      <stop offset="1" stop-color="#fff" stop-opacity="0"/>
    </radialGradient>
    <clipPath id="clip-path">
      <rect id="Rectángulo_454829" data-name="Rectángulo 454829" width="96.667" height="96.667" fill="none"/>
    </clipPath>
    <clipPath id="clip-path-2">
      <rect id="Rectángulo_454808" data-name="Rectángulo 454808" width="151.457" height="151.466" fill="none"/>
    </clipPath>
    <clipPath id="clip-path-3">
      <rect id="Rectángulo_461876" data-name="Rectángulo 461876" width="27.722" height="38.205" fill="#6cb9ff"/>
    </clipPath>
  </defs>
  <g id="Grupo_1212240" data-name="Grupo 1212240" transform="translate(13073 12011)">
    <circle id="Elipse_13694" data-name="Elipse 13694" cx="71" cy="71" r="71" transform="translate(-13068 -12006)" fill="url(#radial-gradient)"/>
    <g id="Grupo_1184530" data-name="Grupo 1184530" transform="translate(-14255.376 -12499.983)">
      <g id="Grupo_1177593" data-name="Grupo 1177593" transform="translate(297.438 346.529)">
        <g id="Grupo_1177591" data-name="Grupo 1177591">
          <g id="Grupo_1177589" data-name="Grupo 1177589" transform="translate(912.333 169.854)">
            <g id="Grupo_1177587" data-name="Grupo 1177587" transform="translate(0 0)" clip-path="url(#clip-path)">
              <path id="Trazado_997422" data-name="Trazado 997422" d="M92.72,42.786A44.443,44.443,0,0,0,82.681,19.659a5.111,5.111,0,0,0-7.192-6.886A44.377,44.377,0,0,0,52.514,3.8a5.112,5.112,0,0,0-9.929.2A44.438,44.438,0,0,0,20.54,13.422a5.114,5.114,0,0,0-7.1,7.146,44.4,44.4,0,0,0-9.3,22.175,5.116,5.116,0,0,0-.122,10.019,44.388,44.388,0,0,0,9.011,22.624,5.113,5.113,0,0,0,6.947,7.22,44.435,44.435,0,0,0,22.568,9.871,5.114,5.114,0,0,0,10.019.2,44.4,44.4,0,0,0,23.144-9.143,5.112,5.112,0,0,0,7.156-6.921,44.454,44.454,0,0,0,9.978-23.9,5.114,5.114,0,0,0-.12-9.927M78.281,22.177a5.085,5.085,0,0,0,2.832-.857,42.2,42.2,0,0,1,9.314,21.453,5.121,5.121,0,0,0-3.268,2.367l-13.07-4.9c.01-.143.02-.288.02-.436a5.114,5.114,0,0,0-2.166-4.179l5.717-13.488a5.54,5.54,0,0,0,.62.041m-2.763-.814-5.681,13.4A5.061,5.061,0,0,0,64.2,38.015L40.559,32.568a4.975,4.975,0,0,0-.107-1.018L74,19.866a5.13,5.13,0,0,0,1.513,1.5M47.575,10.235A5.118,5.118,0,0,0,52.6,6.085a42.135,42.135,0,0,1,21.3,8.332,5.089,5.089,0,0,0-.74,2.643,5.372,5.372,0,0,0,.048.676L39.49,29.476a5.133,5.133,0,0,0-.926-.926l8.845-18.323c.056,0,.11.008.166.008M42.6,6.286a5.119,5.119,0,0,0,2.574,3.35L36.5,27.594a5.132,5.132,0,0,0-1.056-.11,5.08,5.08,0,0,0-2.916.916L22.249,19.815a5.087,5.087,0,0,0-.173-4.709A42.168,42.168,0,0,1,42.6,6.286M10.11,46.654,31.369,35.689A5.1,5.1,0,0,0,35.4,37.717l7.286,23.29a5.2,5.2,0,0,0-1.128,1.248L10.047,49.123a5.083,5.083,0,0,0,.189-1.357,5.143,5.143,0,0,0-.125-1.112m5.021-24.56a5.114,5.114,0,0,0,5.712-.487l10.149,8.475a5.1,5.1,0,0,0-.564,3.536L9.133,44.6a5.116,5.116,0,0,0-2.709-1.776,42.149,42.149,0,0,1,8.707-20.728m2.117,51.07a5.1,5.1,0,0,0-2.541.679,42.112,42.112,0,0,1-8.4-21.1,5.122,5.122,0,0,0,2.656-1.6L40.791,64.4a5.487,5.487,0,0,0-.041.615,5.117,5.117,0,0,0,.306,1.73L21.808,75.964a5.117,5.117,0,0,0-4.559-2.8M42.643,90.2a42.21,42.21,0,0,1-21.057-9.212,5.064,5.064,0,0,0,.781-2.7l0-.059,19.93-9.552a5.118,5.118,0,0,0,1.806,1.14l1.194,17.162A5.117,5.117,0,0,0,42.643,90.2m2.12-30.178-7.131-22.8a5.125,5.125,0,0,0,2.431-2.431L63.9,40.278a5.087,5.087,0,0,0,.814,2.327L48.365,60.547a5.054,5.054,0,0,0-3.6-.528M52.557,90.4a5.116,5.116,0,0,0-4.982-3.965l-.038,0L46.4,70.1a5.108,5.108,0,0,0,3.128-1.518L73.359,79.1c0,.046-.008.087-.008.133a5.092,5.092,0,0,0,.758,2.669,42.132,42.132,0,0,1-21.552,8.5M73.933,76.865,50.723,66.624a5.087,5.087,0,0,0-.671-4.551l16.3-17.891a5.087,5.087,0,0,0,2.64.74,5.635,5.635,0,0,0,.628-.041l6.092,30.043a5.106,5.106,0,0,0-1.778,1.941m7.342-1.913a5.087,5.087,0,0,0-3.4-.8L71.78,44.092a5.138,5.138,0,0,0,1.612-1.684l13.062,4.9a4.535,4.535,0,0,0-.023.459,5.116,5.116,0,0,0,4.113,5.016,42.167,42.167,0,0,1-9.268,22.17" transform="translate(0 0.001)" fill="#fff"/>
            </g>
          </g>
        </g>
      </g>
      <circle id="Elipse_13615" data-name="Elipse 13615" cx="28" cy="28" r="28" transform="translate(1229.651 536.983)" fill="#fff"/>
      <g id="Grupo_1212236" data-name="Grupo 1212236" transform="translate(1243.651 545.984)">
        <g id="Grupo_1212235" data-name="Grupo 1212235" clip-path="url(#clip-path-3)">
          <path id="Trazado_1277452" data-name="Trazado 1277452" d="M25.249,38.205,2.525,38.2A2.59,2.59,0,0,1,0,35.78V2.4A2.554,2.554,0,0,1,2.419,0H25.292a2.56,2.56,0,0,1,2.43,2.508l-.007,33.266a2.613,2.613,0,0,1-2.465,2.431m-.366-1.323a1.738,1.738,0,0,0,1.49-1.773V3.066a1.675,1.675,0,0,0-1.636-1.761H2.98A1.677,1.677,0,0,0,1.335,3.064V35.112a1.7,1.7,0,0,0,1.751,1.77Z" fill="#6cb9ff"/>
          <path id="Trazado_1277453" data-name="Trazado 1277453" d="M42.135,159.419l-21.323,0a1,1,0,0,1-.9-.965l-.013-2.309a1.049,1.049,0,0,1,1.039-.944l21.19,0a1.012,1.012,0,0,1,1.13.946l0,2.294a1.027,1.027,0,0,1-1.126.985m-14.162-2.263c.21,0,.409-.382.356-.519a.656.656,0,0,0-.514-.325l-5.825,0a.5.5,0,0,0-.539.427.532.532,0,0,0,.426.425Zm8.832-.751a1.2,1.2,0,0,0-.912.03c-.111.086-.146.5-.032.585a.838.838,0,0,0,1.1-.1.487.487,0,0,0-.155-.516m1.583-.02a1.019,1.019,0,0,0-.927.089.478.478,0,0,0-.023.508.808.808,0,0,0,1.093-.038.557.557,0,0,0-.143-.559m1.532-.007a1.541,1.541,0,0,0-.808,0,.553.553,0,0,0-.139.567.773.773,0,0,0,1.135-.037.478.478,0,0,0-.189-.532m1.547-.026a1.691,1.691,0,0,0-.8.06c-.142.076-.193.5-.065.586a1.668,1.668,0,0,0,.591.186.627.627,0,0,0,.521-.333c.031-.129-.112-.478-.243-.5" transform="translate(-17.723 -138.199)" fill="#6cb9ff"/>
          <path id="Trazado_1277454" data-name="Trazado 1277454" d="M42.312,114.4H20.862a1.061,1.061,0,0,1-.925-1.084v-2.2a1.031,1.031,0,0,1,.922-.941l21.4,0a1.008,1.008,0,0,1,1.038,1.05l0,2.091a1.041,1.041,0,0,1-.987,1.085m-14.36-2.269a.488.488,0,0,0,.409-.5.573.573,0,0,0-.447-.359l-5.984,0a.476.476,0,0,0-.448.458.531.531,0,0,0,.427.4Zm8.9-.76a1.13,1.13,0,0,0-.881-.01.576.576,0,0,0-.118.557.821.821,0,0,0,1.131-.008.527.527,0,0,0-.132-.539m1.513-.049a1.137,1.137,0,0,0-.84.073.494.494,0,0,0-.053.569c.332.3,1.038.207,1.121-.125a.6.6,0,0,0-.228-.518m1.776.263a.683.683,0,0,0-.686-.327.53.53,0,0,0-.494.471.488.488,0,0,0,.571.417l.507-.12c.1-.024.154-.332.1-.442m.994.559a.765.765,0,0,0,.565-.235c.057-.117.043-.438-.062-.514a1.231,1.231,0,0,0-.539-.133.514.514,0,0,0-.557.465.528.528,0,0,0,.594.417" transform="translate(-17.754 -98.105)" fill="#6cb9ff"/>
          <path id="Trazado_1277455" data-name="Trazado 1277455" d="M42.336,69.388H20.93a1.043,1.043,0,0,1-.915-.982v-2.3a.977.977,0,0,1,.914-.944h21.5a1,1,0,0,1,.938,1.044l0,2.1a1.041,1.041,0,0,1-1.033,1.075M28.07,67.12a.55.55,0,0,0,.36-.494A.556.556,0,0,0,28,66.262H22a.459.459,0,0,0-.455.452.526.526,0,0,0,.431.4Zm8.821-.8a1.038,1.038,0,0,0-.907.077c-.1.091-.121.5-.005.571.432.279,1.034.144,1.1-.16a.61.61,0,0,0-.192-.488m1.589.011a1.29,1.29,0,0,0-.846,0,.529.529,0,0,0-.137.547.78.78,0,0,0,1.121.022c.1-.1,0-.521-.138-.57m1.478-.03-.632-.024c-.16-.006-.337.4-.285.55a.661.661,0,0,0,.585.306.68.68,0,0,0,.606-.328c.056-.135-.13-.5-.274-.5m1.689.037a2.2,2.2,0,0,0-.7-.077c-.174.008-.385.384-.33.545a.7.7,0,0,0,.515.325,1.019,1.019,0,0,0,.639-.229c.087-.1.013-.518-.121-.564" transform="translate(-17.823 -58.029)" fill="#6cb9ff"/>
          <path id="Trazado_1277456" data-name="Trazado 1277456" d="M42.391,24.137h-21.4a1.083,1.083,0,0,1-1.032-1.076l.007-2.185a1.009,1.009,0,0,1,1.111-.983l21.32,0a1.022,1.022,0,0,1,.925,1.065l0,2.1a1.079,1.079,0,0,1-.925,1.073M27.857,21.85a.482.482,0,0,0,.516-.393.5.5,0,0,0-.423-.465H21.943a.494.494,0,0,0-.453.477.5.5,0,0,0,.437.384Zm9.02-.758a1.274,1.274,0,0,0-.857-.03.542.542,0,0,0-.145.587.8.8,0,0,0,1.115,0,.545.545,0,0,0-.114-.56m1.491-.05a1.356,1.356,0,0,0-.792.038.546.546,0,0,0-.128.559.8.8,0,0,0,.587.233.752.752,0,0,0,.56-.3.545.545,0,0,0-.227-.533M40,21.076A1.914,1.914,0,0,0,39.346,21a.492.492,0,0,0-.344.574.7.7,0,0,0,.55.3.866.866,0,0,0,.589-.241c.086-.116,0-.515-.142-.56m1.562-.015a1,1,0,0,0-.922.1c-.1.1-.1.485.01.555.439.27,1.017.156,1.1-.148a.613.613,0,0,0-.187-.507" transform="translate(-17.769 -17.715)" fill="#6cb9ff"/>
          <path id="Trazado_1277457" data-name="Trazado 1277457" d="M42.405,204.813l-21.58,0a1.022,1.022,0,0,1-.91-1.072l.007-2.106a1.034,1.034,0,0,1,.791-1H42.257a.934.934,0,0,1,1.014.9l.014,2.191a1.06,1.06,0,0,1-.88,1.09m-14.421-2.252c.208,0,.412-.4.356-.534a.671.671,0,0,0-.514-.322H22a.488.488,0,0,0-.538.429.5.5,0,0,0,.421.435Zm8.835-.762a1.1,1.1,0,0,0-.911.034c-.11.09-.148.493-.037.58a.822.822,0,0,0,1.1-.1.492.492,0,0,0-.153-.514m1.583-.018a1.029,1.029,0,0,0-.926.08.475.475,0,0,0-.032.52.8.8,0,0,0,1.1-.044.566.566,0,0,0-.141-.555m1.582.033a1.232,1.232,0,0,0-.859-.04.555.555,0,0,0-.141.565.876.876,0,0,0,.567.247.921.921,0,0,0,.569-.28.466.466,0,0,0-.135-.493m1.57-.017a1.006,1.006,0,0,0-.922.059c-.1.087-.139.456-.029.528.461.3.962.211,1.088-.056a.564.564,0,0,0-.137-.532" transform="translate(-17.735 -178.662)" fill="#6cb9ff"/>
          <path id="Trazado_1277458" data-name="Trazado 1277458" d="M42.4,249.869l-21.58,0a1.019,1.019,0,0,1-.907-1.073l0-2.025c0-.356.268-1.073.8-1.073l21.755,0c.5,0,.811.6.811.976l0,2.111a1.047,1.047,0,0,1-.877,1.09M28.03,247.636a.726.726,0,0,0,.308-.539c-.025-.12-.269-.288-.406-.319l-6.147,0a.494.494,0,0,0-.293.578.617.617,0,0,0,.513.28Zm8.792-.779a1.9,1.9,0,0,0-.794-.048c-.148.036-.277.437-.209.572a.751.751,0,0,0,1.121.061c.1-.11.03-.538-.119-.585m1.609.015a1.113,1.113,0,0,0-.906.006.5.5,0,0,0-.092.548.774.774,0,0,0,1.076.029c.106-.083.049-.521-.078-.583m1.486-.05a1.247,1.247,0,0,0-.855.063.538.538,0,0,0,.012.632.738.738,0,0,0,1.053-.177.483.483,0,0,0-.21-.518m1.639.033a1.025,1.025,0,0,0-.923.06.5.5,0,0,0,0,.585.757.757,0,0,0,1.065-.118.615.615,0,0,0-.146-.527" transform="translate(-17.734 -218.787)" fill="#6cb9ff"/>
          <path id="Trazado_1277459" data-name="Trazado 1277459" d="M42.407,294.881l-21.582,0a1.018,1.018,0,0,1-.907-1.076v-2.011a1.028,1.028,0,0,1,.907-1.086l21.645,0c.556,0,.82.688.819,1.076l-.006,2.006a1.039,1.039,0,0,1-.875,1.09m-14.484-2.214a.585.585,0,0,0,.422-.386.619.619,0,0,0-.307-.475H21.788a.6.6,0,0,0-.33.492.555.555,0,0,0,.45.368Zm8.9-.79a1.294,1.294,0,0,0-.842,0c-.141.064-.233.489-.124.594a.787.787,0,0,0,1.093-.013c.1-.11.024-.523-.127-.579m1.51-.046a2.2,2.2,0,0,0-.747.025c-.161.042-.265.474-.159.6a.947.947,0,0,0,.588.241.717.717,0,0,0,.54-.3c.067-.138-.069-.539-.222-.564m1.656.057a1.425,1.425,0,0,0-.857-.031c-.155.052-.218.5-.114.616a.738.738,0,0,0,1.078-.037c.093-.106.039-.487-.107-.548m1.551-.021a1.693,1.693,0,0,0-.779-.022.551.551,0,0,0-.222.545.769.769,0,0,0,1.134.084c.109-.105.018-.562-.133-.607" transform="translate(-17.736 -258.87)" fill="#6cb9ff"/>
        </g>
      </g>
    </g>
  </g>
</svg>
