<svg xmlns="http://www.w3.org/2000/svg" xmlns:xlink="http://www.w3.org/1999/xlink" width="84" height="84" viewBox="0 0 84 84">
  <defs>
    <clipPath id="clip-path">
      <rect id="Rectángulo_463076" data-name="Rectángulo 463076" width="76.385" height="56.083" fill="#344866"/>
    </clipPath>
  </defs>
  <g id="Grupo_1213534" data-name="Grupo 1213534" transform="translate(-185.711 -1578)">
    <g id="Grupo_1212966" data-name="Grupo 1212966" transform="translate(186.578 1578.134)">
      <g id="Grupo_1119665" data-name="Grupo 1119665" transform="translate(-0.867 -0.134)">
        <rect id="Rectángulo_402006" data-name="Rectángulo 402006" width="84" height="84" rx="5" fill="#a4e7f0"/>
      </g>
      <g id="Grupo_1213513" data-name="Grupo 1213513" transform="translate(3.133 13.866)">
        <g id="Grupo_1213513-2" data-name="Grupo 1213513" clip-path="url(#clip-path)">
          <path id="Trazado_1280350" data-name="Trazado 1280350" d="M.016,89.894C.1,88.47.393,87.076,1.96,87.055l4.922-.065,0-3.185A1.3,1.3,0,0,1,7.828,82.7a1.184,1.184,0,0,1,1.288.981L9.21,87.01l58.042,0,.006-31.263c0-.568.693-.974,1.108-.981.373-.007,1.142.4,1.142.932l0,31.286,4.625.027a2.449,2.449,0,0,1,1.71.737,3.469,3.469,0,0,1,.5,2.024c.416,4.7-2.91,9.105-7.921,9.105l-60.455,0c-4.937,0-8.235-4.248-7.959-8.983m69.2,6.719a6.119,6.119,0,0,0,4.838-7.367H2.375A6.048,6.048,0,0,0,7.29,96.613Z" transform="translate(0 -42.796)" fill="#344866"/>
          <path id="Trazado_1280351" data-name="Trazado 1280351" d="M110.737,32.921c.611,0,.882.986.764,1.4a1.289,1.289,0,0,1-1.3.78l-9.16.047,11.892,9.805L120.2,39a14.468,14.468,0,0,1-1.139-3.883l-3.685-.021a1.486,1.486,0,0,1-1.048-1c-.053-.368.478-1.159.851-1.163l3.962-.038a10.47,10.47,0,1,1,10.078,11.788l-.051,9.4a1.168,1.168,0,0,1-1.072.992H97.956a1.179,1.179,0,0,1-1.222-1.1V33.909a1.188,1.188,0,0,1,.974-1Zm27.027,1.258a8.236,8.236,0,1,0-8.236,8.236,8.236,8.236,0,0,0,8.236-8.236m-29.49,9.8-9.3-7.6V51.605Zm18.6,7.581.054-7.206a11.183,11.183,0,0,1-5.507-3.484l-3.8,3.116Zm-11-6.142L113.736,47.2A1.335,1.335,0,0,1,112,47.071L110,45.428,101.1,52.789l23.682-.006Z" transform="translate(-75.589 -18.52)" fill="#344866"/>
          <path id="Trazado_1280352" data-name="Trazado 1280352" d="M89.027,2.3l-52.068.012a3.444,3.444,0,0,0-3.176,3.558l0,30.066a1.191,1.191,0,0,1-1.107,1.132,1.169,1.169,0,0,1-1.148-1.091l.027-30.3c0-3.5,2.993-5.678,6.271-5.675L88.7.053A5.642,5.642,0,0,1,94.1,5.39l.047,2.673a1.142,1.142,0,1,1-2.27-.239l-.069-2.609c-.039-1.475-1.249-2.464-2.786-2.919" transform="translate(-24.634 0)" fill="#344866"/>
          <path id="Trazado_1280353" data-name="Trazado 1280353" d="M162.157,226.551l-7.212.017c-.459,0-1.007-.778-.981-1.17a1.279,1.279,0,0,1,1.113-1.056h6.869a1.45,1.45,0,0,1,1.093.861c.119.375-.348,1.347-.881,1.348" transform="translate(-120.308 -175.302)" fill="#344866"/>
          <path id="Trazado_1280354" data-name="Trazado 1280354" d="M241.452,56.493a1.187,1.187,0,0,1-1.179,1.151,1.254,1.254,0,0,1-1.078-1.271l-.014-7.414a1.8,1.8,0,0,1-1.759-.692c-.286-.428.136-1.482.745-1.5l2.266-.05c.558-.012,1.033.748,1.032,1.3Z" transform="translate(-185.452 -36.509)" fill="#344866"/>
        </g>
      </g>
    </g>
  </g>
</svg>
