<svg xmlns="http://www.w3.org/2000/svg" xmlns:xlink="http://www.w3.org/1999/xlink" width="500" height="280" viewBox="0 0 500 280">
  <defs>
    <clipPath id="clip-path">
      <rect id="Rectángulo_461782" data-name="Rectángulo 461782" width="500" height="280" transform="translate(913.711 2151)" fill="#fff" stroke="#707070" stroke-width="1"/>
    </clipPath>
    <clipPath id="clip-path-2">
      <rect id="Rectángulo_462703" data-name="Rectángulo 462703" width="500" height="376" fill="none"/>
    </clipPath>
    <clipPath id="clip-path-4">
      <path id="Trazado_1279328" data-name="Trazado 1279328" d="M98.615,60.956c-17.05,32.881-19.232,130.559,92.672,188.631,110.8,57.5,244.083,11.909,280.686-39.117C508.039,160.194,462.648,85.542,365.3,89.637S247.54,37.062,222.486,22.863c-15.544-8.809-30.4-12.422-44.132-12.423-38.6,0-68.345,28.545-79.738,50.516" transform="translate(-89.953 -10.44)" fill="none"/>
    </clipPath>
    <clipPath id="clip-path-6">
      <rect id="Rectángulo_462681" data-name="Rectángulo 462681" width="64.266" height="3.703" fill="none"/>
    </clipPath>
    <clipPath id="clip-path-7">
      <rect id="Rectángulo_462682" data-name="Rectángulo 462682" width="75.657" height="3.703" fill="none"/>
    </clipPath>
    <clipPath id="clip-path-9">
      <rect id="Rectángulo_462684" data-name="Rectángulo 462684" width="64.826" height="1.354" fill="none"/>
    </clipPath>
    <clipPath id="clip-path-12">
      <rect id="Rectángulo_462693" data-name="Rectángulo 462693" width="22.906" height="3.703" fill="none"/>
    </clipPath>
    <clipPath id="clip-path-13">
      <rect id="Rectángulo_462701" data-name="Rectángulo 462701" width="1.073" height="1.566" fill="none"/>
    </clipPath>
  </defs>
  <g id="Enmascarar_grupo_1180312" data-name="Enmascarar grupo 1180312" transform="translate(-913.711 -2151)" clip-path="url(#clip-path)">
    <g id="Grupo_1213133" data-name="Grupo 1213133" transform="translate(896 2151)">
      <g id="Grupo_1213132" data-name="Grupo 1213132" transform="translate(13)" clip-path="url(#clip-path-2)">
        <g id="Grupo_1213103" data-name="Grupo 1213103">
          <g id="Grupo_1213102" data-name="Grupo 1213102" clip-path="url(#clip-path-2)">
            <path id="Trazado_1279326" data-name="Trazado 1279326" d="M194.622,249.5c113.771,57.507,250.606,11.909,288.193-39.115,37.031-50.277-9.578-124.927-109.53-120.83s-120.9-52.572-146.631-66.776C184.716-.369,147.667,12.365,123.515,32.27c-.79.651-1.563,1.315-2.332,1.985A100.219,100.219,0,0,0,101.516,57.3c-.538.888-1.049,1.766-1.529,2.643-.177.306-.351.62-.516.931C81.978,93.76,79.742,191.439,194.622,249.5" transform="translate(-77.295 -2.578)" fill="#fff7df"/>
          </g>
        </g>
        <g id="Grupo_1213105" data-name="Grupo 1213105" transform="translate(13.292 7.843)">
          <g id="Grupo_1213104" data-name="Grupo 1213104" clip-path="url(#clip-path-4)">
            <rect id="Rectángulo_462675" data-name="Rectángulo 462675" width="500" height="148.851" transform="translate(-13.292 219.306)" fill="#ffe79e"/>
            <path id="Trazado_1279327" data-name="Trazado 1279327" d="M266.964,324.984c0,5.4-21.853,9.774-48.812,9.774s-48.811-4.376-48.811-9.774,21.853-9.774,48.811-9.774,48.812,4.376,48.812,9.774" transform="translate(-49.343 -86.265)" fill="#bacee0"/>
          </g>
        </g>
        <g id="Grupo_1213131" data-name="Grupo 1213131">
          <g id="Grupo_1213130" data-name="Grupo 1213130" clip-path="url(#clip-path-2)">
            <path id="Trazado_1279329" data-name="Trazado 1279329" d="M396.175,39.964c-3.635,10.31-28.111,29.648-55.059,23.057-25.376-6.206-36.788-32.5-29.709-45.245,6.293-11.335,21.873-13.4,35.651-2.9S373.449,20.806,381.768,20c8.764-.849,18.361,8.748,14.406,19.963" transform="translate(-65.857 -1.999)" fill="#fff7df"/>
            <path id="Trazado_1279330" data-name="Trazado 1279330" d="M526.444,85.728,541,81.228l.459-11.333a34.293,34.293,0,0,0,8.659-9.226l11.422-.582,3.339-14.839-9.8-6.592a32.921,32.921,0,0,0-3.921-11.868L555.6,16.278,543.872,5.964l-9.952,5.672a36,36,0,0,0-12.584-2.659L514.166,0,499.608,4.5l-.459,11.334a34.279,34.279,0,0,0-8.658,9.225l-11.475.819-3.37,14.981,9.888,6.213a33.049,33.049,0,0,0,1.388,6.111,33.473,33.473,0,0,0,2.533,5.757l-5.121,9.912L496.3,79.381l10.388-5.288a36,36,0,0,0,12.585,2.659ZM500.6,48.955a19.884,19.884,0,0,1,13.407-25.149c10.881-3.364,22.522,2.442,26,12.968A19.885,19.885,0,0,1,526.6,61.923c-10.882,3.364-22.522-2.442-26-12.968" transform="translate(-93.773)" fill="#6cb9ff"/>
            <path id="Trazado_1279331" data-name="Trazado 1279331" d="M577.99,163.9l9.978-3.234.315-8.145a24.2,24.2,0,0,0,5.935-6.629l7.828-.418,2.289-10.664-6.719-4.736a24.463,24.463,0,0,0-2.687-8.528l3.045-7.552-8.038-7.411-6.821,4.075a23.708,23.708,0,0,0-8.626-1.911l-4.913-6.45-9.979,3.234-.314,8.145a24.209,24.209,0,0,0-5.935,6.629l-7.865.588-2.31,10.766,6.777,4.465a24.481,24.481,0,0,0,2.688,8.528l-3.51,7.123,8.2,7.565,7.12-3.8a23.707,23.707,0,0,0,8.626,1.911Zm-17.712-26.425a14.419,14.419,0,0,1,9.189-18.072,14.139,14.139,0,0,1,17.82,9.319A14.419,14.419,0,0,1,578.1,146.79a14.139,14.139,0,0,1-17.82-9.319" transform="translate(-104.335 -25.45)" fill="#6cb9ff"/>
            <path id="Trazado_1279332" data-name="Trazado 1279332" d="M194.71,153.916l4.574,9.685,8.516-.611a25.487,25.487,0,0,0,7.619,5.224l1.383,7.84,11.378,1.091,4.117-7.309a26.448,26.448,0,0,0,4.456-1.459,26,26,0,0,0,4.1-2.221l8.229,2.208,6.742-8.943-5.067-6.408a23.262,23.262,0,0,0,.945-8.908l6.12-5.686-4.574-9.685-8.517.611a25.486,25.486,0,0,0-7.619-5.224l-1.564-7.857-11.486-1.1-3.828,7.336a26.515,26.515,0,0,0-4.456,1.459,25.994,25.994,0,0,0-4.1,2.221l-7.84-2.725-6.882,9.127,4.817,6.741a23.264,23.264,0,0,0-.945,8.909Zm25.364-20.856c7.585-3.263,16.506-.04,19.925,7.2a14.12,14.12,0,0,1-7.544,19.015c-7.585,3.263-16.506.04-19.925-7.2a14.12,14.12,0,0,1,7.544-19.016" transform="translate(-41.452 -28.652)" fill="#ceddef"/>
            <path id="Trazado_1279333" data-name="Trazado 1279333" d="M365.915,91.571a10.2,10.2,0,0,0-10.415,9.94v35.111c1.069.986,2.157,1.953,3.239,2.927V101.511a7.026,7.026,0,0,1,7.176-6.849h20.418v-3.09Z" transform="translate(-75.684 -22.782)" fill="#f89d13"/>
            <path id="Trazado_1279334" data-name="Trazado 1279334" d="M158.232,201.139a10.2,10.2,0,0,0-10.415,9.94V246.19c1.069.986,2.157,1.953,3.239,2.927V211.079a7.026,7.026,0,0,1,7.176-6.849H178.65v-3.09Z" transform="translate(-31.469 -50.042)" fill="#f89d13"/>
            <path id="Trazado_1279335" data-name="Trazado 1279335" d="M264.627,95.267V92.035h-28.27a10.2,10.2,0,0,0-10.414,9.94v98.2c-2.169.149-3.742.587-3.742,1.105,0,.64,2.4,1.159,5.36,1.159s5.361-.519,5.361-1.159c0-.518-1.573-.956-3.741-1.1v-98.2a7.026,7.026,0,0,1,7.176-6.849h20.419v.141Z" transform="translate(-47.305 -22.898)" fill="#f89d13"/>
            <path id="Trazado_1279336" data-name="Trazado 1279336" d="M329.691,200.171v-98.2a10.2,10.2,0,0,0-10.414-9.939H246.021v3.232H311.4v-.142h7.881a7.026,7.026,0,0,1,7.176,6.849v98.2c-2.169.149-3.741.587-3.741,1.105,0,.64,2.4,1.159,5.36,1.159s5.36-.519,5.36-1.159c0-.518-1.572-.956-3.741-1.105" transform="translate(-52.376 -22.898)" fill="#f89d13"/>
            <path id="Trazado_1279337" data-name="Trazado 1279337" d="M486.73,129.481H389.306a1.714,1.714,0,0,1-1.753-1.673V59.274a1.714,1.714,0,0,1,1.753-1.673H486.73a1.714,1.714,0,0,1,1.753,1.673v68.534a1.714,1.714,0,0,1-1.753,1.673" transform="translate(-82.507 -14.331)" fill="#297eec"/>
            <path id="Trazado_1279338" data-name="Trazado 1279338" d="M485.4,130.706H391.687a1.622,1.622,0,0,1-1.658-1.583V70.775a1.622,1.622,0,0,1,1.658-1.584H485.4a1.623,1.623,0,0,1,1.659,1.584v58.348a1.622,1.622,0,0,1-1.659,1.583" transform="translate(-83.035 -17.214)" fill="#dfe9f7"/>
            <path id="Trazado_1279339" data-name="Trazado 1279339" d="M440.612,105.234H395.043a1.876,1.876,0,0,1-1.918-1.831V74.928a1.876,1.876,0,0,1,1.918-1.831h45.569a1.876,1.876,0,0,1,1.918,1.831V103.4a1.876,1.876,0,0,1-1.918,1.831" transform="translate(-83.694 -18.186)" fill="#fff"/>
            <path id="Trazado_1279340" data-name="Trazado 1279340" d="M500.18,130.629H458.907a.12.12,0,0,1-.123-.118v-57.3a.12.12,0,0,1,.123-.118H500.18a.121.121,0,0,1,.124.118v57.3a.121.121,0,0,1-.124.118" transform="translate(-97.672 -18.186)" fill="#fff"/>
            <path id="Trazado_1279341" data-name="Trazado 1279341" d="M442.406,142.32H393.248a.121.121,0,0,1-.124-.118v-22a.121.121,0,0,1,.124-.118h49.159a.121.121,0,0,1,.124.118v22a.121.121,0,0,1-.124.118" transform="translate(-83.694 -29.878)" fill="#fff"/>
            <path id="Trazado_1279342" data-name="Trazado 1279342" d="M397.837,62.1a1.225,1.225,0,1,1-1.223-1.167,1.2,1.2,0,0,1,1.223,1.167" transform="translate(-84.176 -15.16)" fill="#fff"/>
            <path id="Trazado_1279343" data-name="Trazado 1279343" d="M403.7,62.1a1.225,1.225,0,1,1-1.223-1.167A1.2,1.2,0,0,1,403.7,62.1" transform="translate(-85.424 -15.16)" fill="#fff"/>
            <path id="Trazado_1279344" data-name="Trazado 1279344" d="M409.563,62.1a1.224,1.224,0,1,1-1.223-1.167,1.2,1.2,0,0,1,1.223,1.167" transform="translate(-86.673 -15.16)" fill="#fff"/>
            <path id="Trazado_1279345" data-name="Trazado 1279345" d="M536.932,194.88s22.618,12.363,15.815,28.607c-.338.534-.335,4.784,1.547,7.508a13.369,13.369,0,0,1,2.494,7.437,22.6,22.6,0,0,1-4.038,13.523c.037.006-11.091-9.669-10.972-16.363s4.073-12.9-3.851-19.095-8.457-18.462-6.878-20.929,5.884-.688,5.884-.688" transform="translate(-112.905 -48.331)" fill="#448c8c"/>
            <path id="Trazado_1279346" data-name="Trazado 1279346" d="M530.813,194.525a.984.984,0,0,1,.144-.366,1.082,1.082,0,0,1,1.449-.324c8.4,4.974,14.018,11.642,16.7,19.821a36.243,36.243,0,0,1,1.37,16.132,5.538,5.538,0,0,0,.808,3.691c3.684,6.072,2.656,17.919,2.61,18.42a1.038,1.038,0,0,1-1.139.913,1.019,1.019,0,0,1-.957-1.087c.01-.116,1.015-11.717-2.335-17.241a7.451,7.451,0,0,1-1.07-4.971c.956-6.6,1.2-23.133-17.1-33.971a.989.989,0,0,1-.483-1.017" transform="translate(-113.004 -48.188)" fill="#307175"/>
            <path id="Trazado_1279347" data-name="Trazado 1279347" d="M577.741,220.7s-5.413-4.043-5.587-7.042-4.643-12.507-10.76-12.478c-.431-.178-6.509.3-8.033-4.9s-17-6.416-20.9-5.159c-.224-.035,19.38,21.318,19.38,21.318s5.969,1.49,9.2.128,5.526,4.721,5.526,4.721,3.114,4.672,11.173,3.409" transform="translate(-113.356 -47.436)" fill="#307175"/>
            <path id="Trazado_1279348" data-name="Trazado 1279348" d="M582.011,184.767A23.278,23.278,0,0,1,558.68,192.1c-8.481-2.085-12.078-1.835-13.6-1.246a16.818,16.818,0,0,1-6.783,1.206c-3.4-.147-7.666-.777-10.805-2.741-6.1-3.821,6.6-12.388,13.585-11s7.118,4.189,13.173,2.067,8.453.016,13.048,2.793,14.717,1.582,14.717,1.582" transform="translate(-111.955 -44.329)" fill="#448c8c"/>
            <path id="Trazado_1279349" data-name="Trazado 1279349" d="M524.421,187.174a.951.951,0,0,1,.1-.282,1.076,1.076,0,0,1,1.41-.454c6.8,3.216,15.58.355,16.432.062.835-.43,6.365-2.894,16.7,1.1,10.07,3.893,22.036-1.881,22.156-1.94a1.077,1.077,0,0,1,1.417.433.982.982,0,0,1-.453,1.352c-.523.258-12.933,6.26-23.91,2.017-9.94-3.842-14.886-1.21-14.934-1.183a1.21,1.21,0,0,1-.163.074c-.415.15-10.246,3.634-18.181-.116a.994.994,0,0,1-.572-1.063" transform="translate(-111.643 -46.115)" fill="#307175"/>
            <path id="Trazado_1279350" data-name="Trazado 1279350" d="M560.509,147.174s-.99,11.964-11.388,13.41c-7,.974-9.011,4.929-9.575,7.408a12.157,12.157,0,0,1-4.5,7.066,13.146,13.146,0,0,1-10.564,2.4s4.615-8.651,2.875-12.373,4.038-14.919,14.065-14.222,15.967.137,19.087-3.687" transform="translate(-111.659 -36.616)" fill="#307175"/>
            <path id="Trazado_1279351" data-name="Trazado 1279351" d="M527.664,188.48s7.661,6.194.54,12.7c-.249.548-5.869,6.707-.2,13.322-.865.326-9.171-2.429-10.6-10.243a12.408,12.408,0,0,1,2.6-9.932c1.716-2.164,3.75-5.192,2.819-7.348.547-.5,4.848,1.5,4.848,1.5" transform="translate(-110.111 -46.5)" fill="#448c8c"/>
            <path id="Trazado_1279352" data-name="Trazado 1279352" d="M523.747,187.04a.98.98,0,0,1,.231-.48,1.085,1.085,0,0,1,1.477-.128c.07.056,6.966,5.693.463,14.156-4.154,5.406,3.641,12.982,3.72,13.057a.973.973,0,0,1,0,1.421,1.088,1.088,0,0,1-1.488,0c-.375-.359-9.136-8.883-3.927-15.663,5.311-6.911.109-11.247-.116-11.428a.983.983,0,0,1-.359-.933" transform="translate(-111.252 -46.326)" fill="#307175"/>
            <path id="Trazado_1279353" data-name="Trazado 1279353" d="M169.968,227.024s-18.376-14.489-30.749-3.7c-.369.449-4.181,1.815-7.23,1.157a13.814,13.814,0,0,0-7.472.361,22.383,22.383,0,0,0-10.824,7.656c-.018-.029,12.244,5.942,18.209,3.688s10.251-7.483,18.362-3.009,19.281.956,20.983-1.128-1.28-5.028-1.28-5.028" transform="translate(-24.204 -54.569)" fill="#448c8c"/>
            <path id="Trazado_1279354" data-name="Trazado 1279354" d="M171.9,233.317a.94.94,0,0,0,.281-.236.89.89,0,0,0-.176-1.288,35.211,35.211,0,0,0-23.155-7.253,37.6,37.6,0,0,0-14.907,4.081,5.748,5.748,0,0,1-3.57.53c-6.632-1.052-16.924,3.607-17.358,3.8a.9.9,0,0,0-.453,1.224.984.984,0,0,0,1.284.432c.1-.046,10.179-4.606,16.212-3.65a7.729,7.729,0,0,0,4.8-.727c5.613-2.909,20.355-8.44,35.972,3.015a1,1,0,0,0,1.067.067" transform="translate(-23.944 -55.852)" fill="#307175"/>
            <path id="Trazado_1279355" data-name="Trazado 1279355" d="M123.483,187.269s6.943,4.032,10.492,2.966,16.435-.31,18.951,6.161c.386.381,2.37,7,9.024,6.443s14.521,15.274,14.692,19.923c.135.222-32.792-11.581-32.792-11.581s-4.214-5.684-3.983-9.666-7.777-3.869-7.777-3.869-6.714-1.341-8.609-10.378" transform="translate(-26.289 -46.592)" fill="#307175"/>
            <path id="Trazado_1279356" data-name="Trazado 1279356" d="M167.818,161.091s-9.13,13.628,1.219,27.693c5.951,8.087,7.16,11.99,7.114,13.847a17.484,17.484,0,0,0,1.428,7.666c1.589,3.531,4.1,7.772,7.681,10.267,6.975,4.854,11.611-12.13,7.086-18.927s-7.824-5.77-7.886-13.049-3.541-8.921-8.675-12.615-7.967-14.882-7.967-14.882" transform="translate(-34.935 -40.079)" fill="#448c8c"/>
            <path id="Trazado_1279357" data-name="Trazado 1279357" d="M191.59,221.441a1.273,1.273,0,0,0,.288-.219,1.15,1.15,0,0,0-.061-1.678c-6.563-5.844-6.9-16.3-6.92-17.327.15-1.061.7-7.927-8.236-17.177-8.71-9.011-7-24.054-6.984-24.2a1.2,1.2,0,0,0-1.092-1.316,1.232,1.232,0,0,0-1.379,1.041c-.081.66-1.868,16.266,7.626,26.089,8.6,8.9,7.606,15.215,7.595,15.278a1.253,1.253,0,0,0-.019.2c0,.5.057,12.334,7.712,19.15a1.291,1.291,0,0,0,1.47.161" transform="translate(-35.558 -39.686)" fill="#307175"/>
            <path id="Trazado_1279358" data-name="Trazado 1279358" d="M217.99,174.324s-13.459,6.031-10.8,17.614c1.789,7.8-1.96,11.569-4.6,13.2a14.6,14.6,0,0,0-6.317,7.7,13.762,13.762,0,0,0,1.624,12.154s8.1-8.478,13.146-8.192,15.613-10.481,10.626-20.779-6.812-16.8-3.679-21.693" transform="translate(-41.628 -43.371)" fill="#307175"/>
            <path id="Trazado_1279359" data-name="Trazado 1279359" d="M186.152,235.259s-10.374-5.509-14.954,4.724c-.531.491-5.329,8.993-15.362,5.761-.017,1.049,6.638,8.671,16.295,6.929a15.932,15.932,0,0,0,10.432-6.88c1.794-2.713,4.457-6.123,7.345-6.038.353-.787-3.755-4.5-3.755-4.5" transform="translate(-33.176 -58.163)" fill="#448c8c"/>
            <path id="Trazado_1279360" data-name="Trazado 1279360" d="M200.221,235.108s5.874.124,9.13-3.054,9.788-.254,9.788-.254-5.021-14.12-14.59-6.828-4.328,10.136-4.328,10.136" transform="translate(-42.321 -55.452)" fill="#448c8c"/>
            <path id="Trazado_1279361" data-name="Trazado 1279361" d="M189.412,241.076a1.213,1.213,0,0,0,.46-.445,1.157,1.157,0,0,0-.468-1.613c-.094-.051-9.5-4.984-16.6,5.411-4.536,6.64-16.568,1.565-16.689,1.512a1.269,1.269,0,0,0-1.645.595,1.166,1.166,0,0,0,.623,1.57c.573.246,14.106,5.946,19.795-2.381,5.8-8.488,12.994-4.8,13.3-4.64a1.3,1.3,0,0,0,1.231-.01" transform="translate(-32.861 -59.164)" fill="#307175"/>
            <path id="Trazado_1279362" data-name="Trazado 1279362" d="M219.564,233.952a1.316,1.316,0,0,0,.138-.088,1.151,1.151,0,0,0,.227-1.665c-3.9-4.842-9.525-6.155-14.332-3.358a70.809,70.809,0,0,0-7.319,5.665,1.15,1.15,0,0,0-.079,1.677,1.285,1.285,0,0,0,1.758.075,70.314,70.314,0,0,1,6.938-5.391c.06-.035.121-.07.182-.1,3.606-1.987,7.855-.87,10.881,2.882a1.284,1.284,0,0,0,1.606.3" transform="translate(-42.126 -56.573)" fill="#307175"/>
            <path id="Trazado_1279363" data-name="Trazado 1279363" d="M308.794,76.316a2.551,2.551,0,0,0-1.218-1.631c-.937-.524-2.125-.373-3.155-.7a3.281,3.281,0,0,1-.991-5.524c.95-.707,2.3-.93,3-1.866.947-1.266.173-3.008-.613-4.371l-1.966-3.4c-.893-1.547-2.269-3.333-4.092-3.034-1.031.169-1.8.985-2.762,1.381-2.253.929-5.145-1.282-4.687-3.582.25-1.253,1.267-2.4,1.02-3.652-.235-1.188-1.493-1.895-2.64-2.406q-2.136-.952-4.353-1.725c-1.958-.683-4.625-1.042-5.709.659a15.774,15.774,0,0,0-.781,2.2,3.567,3.567,0,0,1-5.634.708,19.341,19.341,0,0,1-1.457-3.025,2.768,2.768,0,0,0-3.584-1.152c-1.748.647-3.633.787-5.4,1.369-1.982.653-3.939,2.334-3.613,4.311.129.783.6,1.479.771,2.254.463,2.126-2.032,4.273-4.2,3.614-1.388-.421-2.487-1.716-3.943-1.672-1.431.043-2.412,1.345-3.16,2.51l-2.156,3.357c-1.011,1.575-1.991,3.715-.724,5.111.656.723,1.721.96,2.524,1.532a3.269,3.269,0,0,1,1.283,3.372,3.445,3.445,0,0,1-2.733,2.464,16.168,16.168,0,0,0-2.168.243c-2.007.632-2.2,3.248-1.89,5.243q.353,2.252.92,4.467c.3,1.155.769,2.45,1.925,2.894,1.225.47,2.583-.255,3.9-.249,2.339.012,4.058,2.878,2.886,4.809-.638,1.051-1.894,1.753-2.216,2.928-.625,2.281,2.605,4.328,5.359,6.611,1.244,1.031,2.88,2.132,4.4,1.517,1.127-.457,1.657-1.686,2.6-2.433,1.87-1.484,5.259-.208,5.566,2.094.149,1.122-.306,2.327.182,3.357.669,1.414,2.631,1.65,4.257,1.685l3.948.086c1.914.042,4.312-.214,4.956-1.934.348-.93.01-1.964.144-2.943.306-2.239,3.573-3.5,5.423-2.091,1.11.845,1.684,2.365,3.037,2.774,1.3.394,2.627-.445,3.71-1.238l3.145-2.3a9.07,9.07,0,0,0,2.318-2.153,2.884,2.884,0,0,0,.3-2.947,13.591,13.591,0,0,0-1.539-1.68,3.241,3.241,0,0,1-.343-3.528,3.561,3.561,0,0,1,3.211-1.779c1.189.049,2.363.68,3.517.4,1.6-.387,2.206-2.22,2.535-3.767l.793-3.721a7.654,7.654,0,0,0,.1-3.438M275.856,64.94a10.939,10.939,0,0,1,4.964.94,10.074,10.074,0,0,1,3.157,2,10.183,10.183,0,0,1,3.415,7.218,10.352,10.352,0,0,1-3.684,8.339,10.512,10.512,0,0,1-3.288,1.928,10.688,10.688,0,0,1-3.669.777,11.006,11.006,0,0,1-11.319-8.54,8.1,8.1,0,0,1-.218-1.652,9.294,9.294,0,0,1,.137-2.019,10.906,10.906,0,0,1,10.505-8.99" transform="translate(-51.871 -11.184)" fill="#ffb851"/>
            <path id="Trazado_1279364" data-name="Trazado 1279364" d="M281.15,64.288c-9.42-.156-17.189,7.006-17.352,16s7.341,16.4,16.762,16.56,17.189-7.007,17.352-16-7.342-16.4-16.762-16.56" transform="translate(-56.16 -15.994)" fill="#e0850b"/>
            <rect id="Rectángulo_462676" data-name="Rectángulo 462676" width="66.604" height="3.086" transform="translate(134.134 225.903)" fill="#93bbe5"/>
            <rect id="Rectángulo_462677" data-name="Rectángulo 462677" width="75.657" height="73.235" transform="translate(130.497 139.4)" fill="#93bbe5"/>
            <path id="Trazado_1279365" data-name="Trazado 1279365" d="M240.926,157.773h-74.61a.512.512,0,0,0-.523.5v20.381H241.45V158.273a.512.512,0,0,0-.523-.5" transform="translate(-35.296 -39.253)" fill="#93bbe5"/>
            <rect id="Rectángulo_462678" data-name="Rectángulo 462678" width="98.29" height="27.155" transform="translate(119.18 129.937)" fill="#a9cbf7"/>
            <rect id="Rectángulo_462679" data-name="Rectángulo 462679" width="69.191" height="10.285" transform="translate(133.892 138.371)" fill="#93bbe5"/>
            <rect id="Rectángulo_462680" data-name="Rectángulo 462680" width="64.266" height="7.406" transform="translate(136.191 139.811)" fill="#71a3d1"/>
            <g id="Grupo_1213108" data-name="Grupo 1213108" transform="translate(136.191 139.811)" style="mix-blend-mode: multiply;isolation: isolate">
              <g id="Grupo_1213107" data-name="Grupo 1213107">
                <g id="Grupo_1213106" data-name="Grupo 1213106" clip-path="url(#clip-path-6)">
                  <path id="Trazado_1279366" data-name="Trazado 1279366" d="M237.295,189.819l-64.266-3.7h64.266Z" transform="translate(-173.028 -186.116)" fill="#e6e7e8"/>
                </g>
              </g>
            </g>
            <g id="Grupo_1213111" data-name="Grupo 1213111" transform="translate(130.497 157.091)" style="mix-blend-mode: multiply;isolation: isolate">
              <g id="Grupo_1213110" data-name="Grupo 1213110">
                <g id="Grupo_1213109" data-name="Grupo 1213109" clip-path="url(#clip-path-7)">
                  <path id="Trazado_1279367" data-name="Trazado 1279367" d="M241.45,212.822l-75.657-3.7H241.45Z" transform="translate(-165.793 -209.119)" fill="#e6e7e8"/>
                </g>
              </g>
            </g>
            <g id="Grupo_1213114" data-name="Grupo 1213114" transform="translate(130.497 192.375)" style="mix-blend-mode: multiply;isolation: isolate">
              <g id="Grupo_1213113" data-name="Grupo 1213113">
                <g id="Grupo_1213112" data-name="Grupo 1213112" clip-path="url(#clip-path-7)">
                  <path id="Trazado_1279368" data-name="Trazado 1279368" d="M241.45,259.792l-75.657-3.7H241.45Z" transform="translate(-165.793 -256.089)" fill="#e6e7e8"/>
                </g>
              </g>
            </g>
            <g id="Grupo_1213117" data-name="Grupo 1213117" transform="translate(135.912 226.624)" style="mix-blend-mode: multiply;isolation: isolate">
              <g id="Grupo_1213116" data-name="Grupo 1213116">
                <g id="Grupo_1213115" data-name="Grupo 1213115" clip-path="url(#clip-path-9)">
                  <path id="Trazado_1279369" data-name="Trazado 1279369" d="M237.5,303.034l-64.826-1.354H237.5Z" transform="translate(-172.673 -301.68)" fill="#e6e7e8"/>
                </g>
              </g>
            </g>
            <path id="Trazado_1279370" data-name="Trazado 1279370" d="M162.632,190.278a2.428,2.428,0,1,1-2.425-2.314,2.372,2.372,0,0,1,2.425,2.314" transform="translate(-33.591 -46.764)" fill="#93bbe5"/>
            <path id="Trazado_1279371" data-name="Trazado 1279371" d="M269.638,190.278a2.428,2.428,0,1,1-2.425-2.314,2.372,2.372,0,0,1,2.425,2.314" transform="translate(-56.372 -46.764)" fill="#93bbe5"/>
            <rect id="Rectángulo_462685" data-name="Rectángulo 462685" width="98.29" height="27.155" transform="translate(119.18 199.469)" fill="#a9cbf7"/>
            <rect id="Rectángulo_462686" data-name="Rectángulo 462686" width="69.191" height="10.286" transform="translate(133.892 207.904)" fill="#93bbe5"/>
            <rect id="Rectángulo_462687" data-name="Rectángulo 462687" width="64.266" height="7.406" transform="translate(136.191 209.343)" fill="#71a3d1"/>
            <path id="Trazado_1279372" data-name="Trazado 1279372" d="M162.632,282.839a2.428,2.428,0,1,1-2.425-2.314,2.372,2.372,0,0,1,2.425,2.314" transform="translate(-33.591 -69.793)" fill="#93bbe5"/>
            <path id="Trazado_1279373" data-name="Trazado 1279373" d="M269.638,282.839a2.428,2.428,0,1,1-2.425-2.314,2.372,2.372,0,0,1,2.425,2.314" transform="translate(-56.372 -69.793)" fill="#93bbe5"/>
            <rect id="Rectángulo_462688" data-name="Rectángulo 462688" width="98.29" height="27.155" transform="translate(119.18 165.114)" fill="#a9cbf7"/>
            <rect id="Rectángulo_462689" data-name="Rectángulo 462689" width="69.191" height="10.285" transform="translate(133.892 173.549)" fill="#93bbe5"/>
            <rect id="Rectángulo_462690" data-name="Rectángulo 462690" width="64.266" height="7.406" transform="translate(136.191 174.988)" fill="#71a3d1"/>
            <path id="Trazado_1279374" data-name="Trazado 1279374" d="M162.632,237.106a2.428,2.428,0,1,1-2.425-2.314,2.372,2.372,0,0,1,2.425,2.314" transform="translate(-33.591 -58.415)" fill="#93bbe5"/>
            <path id="Trazado_1279375" data-name="Trazado 1279375" d="M269.638,237.106a2.428,2.428,0,1,1-2.425-2.314,2.372,2.372,0,0,1,2.425,2.314" transform="translate(-56.372 -58.415)" fill="#93bbe5"/>
            <path id="Trazado_1279376" data-name="Trazado 1279376" d="M223.5,167.788h22.2a.344.344,0,0,0,.352-.336v-4.868a.344.344,0,0,0-.352-.336H223.5a.344.344,0,0,0-.352.336v4.868a.344.344,0,0,0,.352.336" transform="translate(-47.508 -40.367)" fill="#71a3d1"/>
            <path id="Trazado_1279377" data-name="Trazado 1279377" d="M178.9,163.893a1.725,1.725,0,1,1-1.723-1.644,1.685,1.685,0,0,1,1.723,1.644" transform="translate(-37.352 -40.367)" fill="#71a3d1"/>
            <path id="Trazado_1279378" data-name="Trazado 1279378" d="M185,163.893a1.725,1.725,0,1,1-1.723-1.644A1.685,1.685,0,0,1,185,163.893" transform="translate(-38.651 -40.367)" fill="#71a3d1"/>
            <g id="Grupo_1213120" data-name="Grupo 1213120" transform="translate(136.191 209.343)" style="mix-blend-mode: multiply;isolation: isolate">
              <g id="Grupo_1213119" data-name="Grupo 1213119">
                <g id="Grupo_1213118" data-name="Grupo 1213118" clip-path="url(#clip-path-6)">
                  <path id="Trazado_1279379" data-name="Trazado 1279379" d="M237.295,282.379l-64.266-3.7h64.266Z" transform="translate(-173.028 -278.676)" fill="#e6e7e8"/>
                </g>
              </g>
            </g>
            <g id="Grupo_1213123" data-name="Grupo 1213123" transform="translate(136.191 174.995)" style="mix-blend-mode: multiply;isolation: isolate">
              <g id="Grupo_1213122" data-name="Grupo 1213122">
                <g id="Grupo_1213121" data-name="Grupo 1213121" clip-path="url(#clip-path-6)">
                  <path id="Trazado_1279380" data-name="Trazado 1279380" d="M237.295,236.655l-64.266-3.7h64.266Z" transform="translate(-173.028 -232.952)" fill="#e6e7e8"/>
                </g>
              </g>
            </g>
            <g id="Grupo_1213126" data-name="Grupo 1213126" transform="translate(175.645 121.882)" style="mix-blend-mode: multiply;isolation: isolate">
              <g id="Grupo_1213125" data-name="Grupo 1213125">
                <g id="Grupo_1213124" data-name="Grupo 1213124" clip-path="url(#clip-path-12)">
                  <path id="Trazado_1279381" data-name="Trazado 1279381" d="M246.059,165.952l-22.906-3.7h22.492a.406.406,0,0,1,.415.4Z" transform="translate(-223.153 -162.249)" fill="#e6e7e8"/>
                </g>
              </g>
            </g>
            <path id="Trazado_1279382" data-name="Trazado 1279382" d="M485.115,129.086H329.323a4.9,4.9,0,0,0-5.011,4.784v95.7H490.127v-95.7a4.9,4.9,0,0,0-5.012-4.784" transform="translate(-69.044 -32.116)" fill="#184785"/>
            <path id="Trazado_1279383" data-name="Trazado 1279383" d="M329.088,230.757v-95.7a1.227,1.227,0,0,1,1.253-1.2H486.132a1.227,1.227,0,0,1,1.253,1.2v95.7Z" transform="translate(-70.061 -33.304)" fill="#4095f2"/>
            <rect id="Rectángulo_462694" data-name="Rectángulo 462694" width="152.032" height="87.431" transform="translate(262.159 103.91)" fill="#ceddef"/>
            <path id="Trazado_1279384" data-name="Trazado 1279384" d="M397.292,304.529h51.234L450.753,303H395.064Z" transform="translate(-84.107 -75.385)" fill="#113e70"/>
            <path id="Trazado_1279385" data-name="Trazado 1279385" d="M403.592,295.885s-.313,2.725-3.933,3.19l-4.594.664h55.689l-4.594-.664c-3.62-.465-3.933-3.19-3.933-3.19l-.583-5.228-37.382-.768Z" transform="translate(-84.107 -72.123)" fill="#184785"/>
            <path id="Trazado_1279386" data-name="Trazado 1279386" d="M406.748,288.443l37.381.768-.573-5.137h-36.32Z" transform="translate(-86.594 -70.676)" fill="#113e70"/>
            <path id="Trazado_1279387" data-name="Trazado 1279387" d="M324.312,262.848v11.161a4.9,4.9,0,0,0,5.012,4.784h155.79a4.9,4.9,0,0,0,5.012-4.784V262.848Z" transform="translate(-69.044 -65.395)" fill="#184785"/>
            <path id="Trazado_1279388" data-name="Trazado 1279388" d="M436.534,273.089a1.771,1.771,0,0,1-1.81,1.728H421.637a1.729,1.729,0,1,1,0-3.455h13.087a1.77,1.77,0,0,1,1.81,1.727" transform="translate(-89.378 -67.513)" fill="#4095f2"/>
            <rect id="Rectángulo_462695" data-name="Rectángulo 462695" width="141.382" height="13.412" transform="translate(268.111 109.535)" fill="#ffb851"/>
            <rect id="Rectángulo_462696" data-name="Rectángulo 462696" width="45.991" height="6.958" transform="translate(363.501 128.284)" fill="#ffb851"/>
            <rect id="Rectángulo_462697" data-name="Rectángulo 462697" width="45.991" height="50.535" transform="translate(363.501 135.242)" fill="#fff"/>
            <rect id="Rectángulo_462698" data-name="Rectángulo 462698" width="49.894" height="7.549" transform="translate(309.117 146.997)" fill="#ffb851"/>
            <rect id="Rectángulo_462699" data-name="Rectángulo 462699" width="49.894" height="31.231" transform="translate(309.117 154.546)" fill="#fff"/>
            <rect id="Rectángulo_462700" data-name="Rectángulo 462700" width="90.9" height="6.958" transform="translate(268.111 128.284)" fill="#ffb851"/>
            <path id="Trazado_1279389" data-name="Trazado 1279389" d="M431.528,180.034v9.649H379.742v40.886H340.629V180.034Z" transform="translate(-72.518 -44.792)" fill="#fff"/>
            <path id="Trazado_1279390" data-name="Trazado 1279390" d="M68.173,298.64c.068.086.145.182.233.283l.007.008a5.319,5.319,0,0,0,3.191,1.9c2.768.391,5.307-2.059,6.483-3.886A6.925,6.925,0,0,0,79.1,294.5v-.008c.242-1.176.213-2.305.6-3.73.068-.246.146-.5.244-.768a12.057,12.057,0,0,1,.932-1.966c.061-.105.122-.207.181-.3.12-.195.237-.376.355-.544a6.934,6.934,0,0,1,1.689-1.812h0a3.838,3.838,0,0,1,.437-.267,2.976,2.976,0,0,1,.88-.309c.785-.144,1.228.073,2.261-.071a6.754,6.754,0,0,0,3.344-1.538c-.875-.855-10.5-11.705-11.787-12.061l-5.964,16.309q-2.05,5.6-4.1,11.214" transform="translate(-14.514 -67.452)" fill="#0f335b"/>
            <path id="Trazado_1279391" data-name="Trazado 1279391" d="M180.479,324.156H217.46a8.2,8.2,0,0,0-2.6-3.993,9.99,9.99,0,0,0-4.755-1.895c-4.541-.935-6.323.239-9.607-.966a11.129,11.129,0,0,1-3.392-2,4.141,4.141,0,0,0-.113-2.59,4.365,4.365,0,0,0-1.545-1.982q-5.795,1.231-11.592,2.463-.37.624-.717,1.3a24.952,24.952,0,0,0-2.657,9.66" transform="translate(-38.423 -77.309)" fill="#0f335b"/>
            <path id="Trazado_1279392" data-name="Trazado 1279392" d="M169.835,163.98q5.465,15.977,10.427,33.366a650.88,650.88,0,0,1,16.721,76.126,22.971,22.971,0,0,1-11.655,6,23.732,23.732,0,0,1-14.115-1.719,302.19,302.19,0,0,0-7.372-51.6,304.47,304.47,0,0,0-11.082-36.913q.848-14.765,1.7-29.528Z" transform="translate(-32.521 -39.735)" fill="#184785"/>
            <path id="Trazado_1279393" data-name="Trazado 1279393" d="M122.722,161.813l-20.806,60.543L78.62,242a17.606,17.606,0,0,0,4.75,11.873A19.36,19.36,0,0,0,95.132,259.7a145.025,145.025,0,0,0,12.892-9.93c6.229-5.382,10.407-9.16,14.511-14.7,3.479-4.7,5.7-10.79,9.992-22.789,2.782-7.772,3.963-11.885,5.969-18.077,2.287-7.06,5.776-17.22,10.733-29.59l-26.506-2.8" transform="translate(-16.738 -40.258)" fill="#184785"/>
            <path id="Trazado_1279394" data-name="Trazado 1279394" d="M136.687,164.3l-28.469,58.057,20.806-60.543Z" transform="translate(-23.039 -40.258)" fill="#0f335b"/>
            <path id="Trazado_1279395" data-name="Trazado 1279395" d="M155.387,89.316s-3.851-2.644-8.158,1.1c-2.574,2.237-1.94,5.458-2.976,10.649-.249,1.247-3.034,1.608-4.144,3.779-.535,1.048-.024,3.96-.63,4.7-2.652,3.231-1.149,6.719,1.292,7.939,8.523,4.259,10.578-.774,12.742-3.476s5.937-18.664,1.873-24.688" transform="translate(-29.396 -21.996)" fill="#f89d13"/>
            <path id="Trazado_1279396" data-name="Trazado 1279396" d="M120.982,149.826a7.227,7.227,0,0,0,3.559.864,7.943,7.943,0,0,0,1.067-.079l3.575-.5-.623,3.6-2.32,13.409s12.807,1.594,15.353-6.985l1.591-7.441h15.91s-1.113,8.58,8.432,11.768l-2.7-18.9,1.4-7.3,5.1,4.238a13.3,13.3,0,0,0,5.3,2.717c3.159.78,7.411.556,9.927-4.813,4.376-9.338,6.841-21.638,6.841-21.638l-5.807-5.693L176.2,128.935l-9.881-13a2.877,2.877,0,0,0-1.643-1.052l-13.055-3.018h-9.393L128.8,115.318a2.824,2.824,0,0,0-1.851,1.488c-1.855,3.822-7.685,16.152-8.82,22.453,0,0-2.338,7.7,2.856,10.566" transform="translate(-25.037 -27.831)" fill="#297eec"/>
            <path id="Trazado_1279397" data-name="Trazado 1279397" d="M167.291,130.4c-.5-5.458-6.47-15.083-9.016-18.541h-9.393s4.832,25.373.96,40.836h15.91s1.9-18.345,1.538-22.3" transform="translate(-31.696 -27.83)" fill="#a9cbf7"/>
            <path id="Trazado_1279398" data-name="Trazado 1279398" d="M167.356,145.7a79.319,79.319,0,0,1-15.774,2.676,59.02,59.02,0,0,1-1.48,12.743h15.91s.9-8.709,1.344-15.418" transform="translate(-31.956 -36.248)" fill="#a9cbf7"/>
            <path id="Trazado_1279399" data-name="Trazado 1279399" d="M133.771,141.25a63.145,63.145,0,0,0,2.215-7.733l-.256,7.609Z" transform="translate(-28.479 -33.218)" fill="#184785"/>
            <path id="Trazado_1279400" data-name="Trazado 1279400" d="M154.508,141.791a12.4,12.4,0,0,0,3.454-2.16,16.326,16.326,0,0,1,3.692-2.474l-.272,2.245s8.79-2.618,9.9-2.2-1.034,1.67-1.034,1.67,2.069-.711,2.148-.3a3.049,3.049,0,0,1-1.074,1.817s.557-.152.6.38-2.863,2.771-5.25,3.644c0,0,3.715-.99,3.421,0,0,0-3.9,1.86-5.329,2.278s-9.8,1.327-9.8,1.327Z" transform="translate(-32.894 -34.124)" fill="#cc724a"/>
            <path id="Trazado_1279401" data-name="Trazado 1279401" d="M154.508,143.326l.452,6.228,1.5-.169Z" transform="translate(-32.894 -35.659)" fill="#cc724a"/>
            <path id="Trazado_1279402" data-name="Trazado 1279402" d="M207,109.837l4.469-5.671a14.553,14.553,0,0,1,4.176-2.96,63.914,63.914,0,0,0,6.881-3.872s1.313.8,0,1.974l-3.54,3.265,2.2,1.56a1.408,1.408,0,0,1,.052,2.38c-.046.029-.094.057-.146.084a1.616,1.616,0,0,1-.955,2.012,1.518,1.518,0,0,1-.994,1.4,5,5,0,0,1-2.8-.228s-.382,2.031-3.485,2.6l-1.368,1.856Z" transform="translate(-44.068 -24.216)" fill="#cc724a"/>
            <path id="Trazado_1279403" data-name="Trazado 1279403" d="M216.71,105.381l6.364-.569a1.5,1.5,0,0,1-1.034,2.05,33.117,33.117,0,0,0-3.3.987,2.852,2.852,0,0,1-2.235,3.036Z" transform="translate(-46.092 -26.077)" fill="#cc724a"/>
            <path id="Trazado_1279404" data-name="Trazado 1279404" d="M206.995,113.978l5.548,3.042-1.056,1.363Z" transform="translate(-44.068 -28.357)" fill="#cc724a"/>
            <path id="Trazado_1279405" data-name="Trazado 1279405" d="M132.148,160.005l-.623,3.6c4.975-1.366,15.782-8.087,15.782-8.087l.558-3.9L132.5,155.068Z" transform="translate(-28.001 -37.721)" fill="#184785"/>
            <path id="Trazado_1279406" data-name="Trazado 1279406" d="M123.826,148.925s1.114-4.631,7.637-5.391,13.682-.228,16.466-1.062l.561,7.743s-11.744,7.061-17.982,7.516Z" transform="translate(-26.362 -35.446)" fill="#297eec"/>
            <path id="Trazado_1279407" data-name="Trazado 1279407" d="M158.245,103.316a5.364,5.364,0,0,0,3.508-3.348c1.11-2.825.421-7.435-.32-8.07s-3.189,11.418-3.189,11.418" transform="translate(-33.689 -22.858)" fill="#f89d13"/>
            <path id="Trazado_1279408" data-name="Trazado 1279408" d="M151.082,104.2l-.985-2.163.674.389a13.717,13.717,0,0,1,.444,1.395c.124.547-.133.379-.133.379" transform="translate(-31.955 -25.387)" fill="#f89d13"/>
            <path id="Trazado_1279409" data-name="Trazado 1279409" d="M151.292,101.617v9.7a4.008,4.008,0,0,0,2.761,1.274,4.45,4.45,0,0,0,2.877-1.274v-6.106Z" transform="translate(-32.209 -25.282)" fill="#cc724a"/>
            <path id="Trazado_1279410" data-name="Trazado 1279410" d="M155.332,104.6c-2.621.042-4.356-2.359-4.4-4.731l-.067-3.762a4.313,4.313,0,0,1,8.625-.14l-.039,3.752c.042,2.372-1.5,4.839-4.121,4.881" transform="translate(-32.119 -22.823)" fill="#cc724a"/>
            <path id="Trazado_1279411" data-name="Trazado 1279411" d="M149.184,100.808a1.3,1.3,0,0,0,1.582.774c.99-.457.593-1.2.251-1.868a1,1,0,0,0-1.487-.57,1.2,1.2,0,0,0-.346,1.665" transform="translate(-31.722 -24.63)" fill="#cc724a"/>
            <g id="Grupo_1213129" data-name="Grupo 1213129" transform="translate(117.702 74.922)" style="mix-blend-mode: multiply;isolation: isolate">
              <g id="Grupo_1213128" data-name="Grupo 1213128">
                <g id="Grupo_1213127" data-name="Grupo 1213127" clip-path="url(#clip-path-13)">
                  <path id="Trazado_1279412" data-name="Trazado 1279412" d="M149.539,100.3a.62.62,0,0,1,.241-.519.3.3,0,0,1,.444.14c.009.035-.05.057-.064.022a.184.184,0,0,0-.215-.1.311.311,0,0,0-.2.181.81.81,0,0,0-.024.561.9.9,0,0,0,.326.473.535.535,0,0,0,.256.1.393.393,0,0,0,.248-.055c.027-.019.076,0,.06.038a.257.257,0,0,1-.178.156.546.546,0,0,1-.282-.025.889.889,0,0,1-.455-.391,1.046,1.046,0,0,1-.154-.578" transform="translate(-149.538 -99.736)" fill="#deac93"/>
                </g>
              </g>
            </g>
            <path id="Trazado_1279413" data-name="Trazado 1279413" d="M158.629,89.321s1.924-1.059,3.33,2.684a5.172,5.172,0,0,1-.823,4.944,8.885,8.885,0,0,0-.471-3.523c-.305-.609-1.333-.715-1.333-.715Z" transform="translate(-33.771 -22.188)" fill="#f89d13"/>
            <path id="Trazado_1279414" data-name="Trazado 1279414" d="M156.808,93.114s-2.082-.953-2.97.53-1.8,3.391-4.912,3.921-2.679-2.757.208-4.664,8.123-3.665,7.674.213" transform="translate(-31.248 -22.591)" fill="#f89d13"/>
            <path id="Trazado_1279415" data-name="Trazado 1279415" d="M158.439,100.622l.018,0c.162-.022.974-.152,1.021-.57a5.336,5.336,0,0,0-.713-1.689.129.129,0,0,0-.171-.047.116.116,0,0,0-.049.162,5.36,5.36,0,0,1,.683,1.547c-.02.174-.493.317-.807.359a.12.12,0,0,0-.106.135.124.124,0,0,0,.124.1" transform="translate(-33.704 -24.456)" fill="#b75f3d"/>
            <path id="Trazado_1279416" data-name="Trazado 1279416" d="M160.79,98.5a.358.358,0,0,1-.322.4.365.365,0,0,1-.381-.343.359.359,0,0,1,.322-.4.365.365,0,0,1,.381.344" transform="translate(-34.081 -24.421)" fill="#363435"/>
            <path id="Trazado_1279417" data-name="Trazado 1279417" d="M155.361,97.192a.124.124,0,0,0,.083-.03,1.212,1.212,0,0,1,1.248-.124.128.128,0,0,0,.169-.051.118.118,0,0,0-.054-.162,1.456,1.456,0,0,0-1.531.159.116.116,0,0,0-.01.169.128.128,0,0,0,.094.039" transform="translate(-33.049 -24.052)"/>
            <path id="Trazado_1279418" data-name="Trazado 1279418" d="M159.759,96.825a.128.128,0,0,0,.077-.026.783.783,0,0,1,.874-.038.129.129,0,0,0,.175-.029.116.116,0,0,0-.03-.167,1.036,1.036,0,0,0-1.174.045.115.115,0,0,0-.02.168.127.127,0,0,0,.1.046" transform="translate(-33.985 -23.984)"/>
            <path id="Trazado_1279419" data-name="Trazado 1279419" d="M156.9,102.324a4.725,4.725,0,0,0,2.472-.016,1.037,1.037,0,0,1-.9,1.152,1.3,1.3,0,0,1-1.569-1.137" transform="translate(-33.403 -25.454)" fill="#b75f3d"/>
            <path id="Trazado_1279420" data-name="Trazado 1279420" d="M159.314,102.335s-.037.192-.052.231-.179.155-.881.22a4.529,4.529,0,0,1-1.394-.131,1.392,1.392,0,0,1-.085-.325c.1.018.2.033.294.047a4.851,4.851,0,0,0,2.117-.042Z" transform="translate(-33.403 -25.459)" fill="#fff"/>
            <path id="Trazado_1279421" data-name="Trazado 1279421" d="M157.054,98.93a.369.369,0,0,1-.331.407.376.376,0,0,1-.393-.354.37.37,0,0,1,.331-.407.375.375,0,0,1,.393.354" transform="translate(-33.281 -24.525)" fill="#363435"/>
            <path id="Trazado_1279422" data-name="Trazado 1279422" d="M143.125,87.679a5.054,5.054,0,1,0,5.048-4.817,4.936,4.936,0,0,0-5.048,4.817" transform="translate(-30.47 -20.616)" fill="#f89d13"/>
          </g>
        </g>
      </g>
    </g>
  </g>
</svg>
