<svg xmlns="http://www.w3.org/2000/svg" xmlns:xlink="http://www.w3.org/1999/xlink" width="84" height="84" viewBox="0 0 84 84">
  <defs>
    <clipPath id="clip-path">
      <rect id="Rectángulo_463036" data-name="Rectángulo 463036" width="77.643" height="61.609" fill="#1e535a"/>
    </clipPath>
  </defs>
  <g id="Grupo_1213535" data-name="Grupo 1213535" transform="translate(-289.711 -3017)">
    <g id="Grupo_1212967" data-name="Grupo 1212967" transform="translate(290.289 3016.654)">
      <g id="Grupo_1119665" data-name="Grupo 1119665" transform="translate(-0.578 0.346)">
        <rect id="Rectángulo_402006" data-name="Rectángulo 402006" width="84" height="84" rx="5" fill="#a4e7f0"/>
      </g>
      <g id="Grupo_1213494" data-name="Grupo 1213494" transform="translate(2.422 11.346)">
        <g id="Grupo_1213493" data-name="Grupo 1213493" clip-path="url(#clip-path)">
          <path id="Trazado_1280106" data-name="Trazado 1280106" d="M127.311,125.707a18.937,18.937,0,1,1-18.937-18.937,18.937,18.937,0,0,1,18.937,18.937M114.1,115.668a12.76,12.76,0,0,0-3.27-5.575,3.44,3.44,0,0,0-5.034.108,13.017,13.017,0,0,0-3.151,5.469,30.273,30.273,0,0,0,11.455,0m-13.277-.391a19.065,19.065,0,0,1,3.287-6.1,16.542,16.542,0,0,0-7.9,4.488,32.506,32.506,0,0,0,4.615,1.607m19.712-1.613a16.49,16.49,0,0,0-7.9-4.483,19.2,19.2,0,0,1,3.3,6.109,33.652,33.652,0,0,0,4.6-1.626M99.282,124.812a40.909,40.909,0,0,1,1-7.762,40.148,40.148,0,0,1-5.328-1.95,17.286,17.286,0,0,0-3.7,9.712Zm18.259.021,7.938-.007a16.966,16.966,0,0,0-3.7-9.718,40.153,40.153,0,0,1-5.3,1.944,55.4,55.4,0,0,1,1.067,7.781m-1.913-.005a31.633,31.633,0,0,0-.994-7.4,32.846,32.846,0,0,1-12.554.013,34.616,34.616,0,0,0-.95,7.382Zm-15.34,9.513a38.384,38.384,0,0,1-.993-7.725l-8.042.04a16.742,16.742,0,0,0,3.754,9.647c1.848-.8,3.484-1.378,5.281-1.962m14.394-.35a36.659,36.659,0,0,0,.945-7.365h-14.5a32.056,32.056,0,0,0,1,7.4,31.526,31.526,0,0,1,12.555-.036m7.17,2.288a17.322,17.322,0,0,0,3.62-9.651l-8.012,0a40.763,40.763,0,0,1-.985,7.725Zm-10.875,4.91a13.408,13.408,0,0,0,3.129-5.43,31.763,31.763,0,0,0-11.46-.013,13.578,13.578,0,0,0,3.075,5.393,3.473,3.473,0,0,0,5.256.051m-6.912,1.029a19.256,19.256,0,0,1-3.218-6.093,36.58,36.58,0,0,0-4.628,1.629,16.391,16.391,0,0,0,7.847,4.464m16.46-4.484a35.78,35.78,0,0,0-4.621-1.6,18.2,18.2,0,0,1-3.281,6.126,16.425,16.425,0,0,0,7.9-4.525" transform="translate(-69.555 -83.035)" fill="#1e535a"/>
          <path id="Trazado_1280107" data-name="Trazado 1280107" d="M51.1,17.293A52.236,52.236,0,0,0,27.162,17.1a4.626,4.626,0,0,0-3.817,4.048l-.506,3.7a6.446,6.446,0,0,1-5.764,5.757l-9.247.765a6.564,6.564,0,0,1-6.607-3.888C.515,26.042-.3,24.443.109,22.728A42.8,42.8,0,0,1,4.13,12.144,10.7,10.7,0,0,1,7.794,8.22,46.142,46.142,0,0,1,22.1,2.057a69.057,69.057,0,0,1,33.261-.048A46.513,46.513,0,0,1,69.716,8.124a10.892,10.892,0,0,1,3.8,4.02,42.8,42.8,0,0,1,4.021,10.583c.407,1.716-.4,3.315-1.111,4.757a6.57,6.57,0,0,1-6.609,3.884l-9.425-.793a6.382,6.382,0,0,1-5.579-5.719l-.564-3.933a4.314,4.314,0,0,0-3.145-3.63m-.087-1.933a6.359,6.359,0,0,1,5.106,6.053A109.563,109.563,0,0,1,75.69,22.722C74.425,18.484,72.944,13.584,70,10.511A43.563,43.563,0,0,0,55.435,3.943a68.058,68.058,0,0,0-33.226,0,43.616,43.616,0,0,0-14.57,6.563,18.212,18.212,0,0,0-2.364,3.244,54.7,54.7,0,0,0-3.327,8.97,109.351,109.351,0,0,1,19.577-1.308A6.378,6.378,0,0,1,26.9,15.3a55.618,55.618,0,0,1,24.107.056M16.946,28.8c2.66-.216,4.2-2.645,4.255-5.553A101.74,101.74,0,0,0,1.963,24.591l.919,2.121a4.592,4.592,0,0,0,4.7,2.844Zm53.244.757c3.086.246,4.585-2.269,5.474-4.973a103.5,103.5,0,0,0-19.189-1.342c-.055,2.748,1.552,5.344,4.141,5.551Z" transform="translate(0 0)" fill="#1e535a"/>
        </g>
      </g>
    </g>
  </g>
</svg>
