<svg id="Grupo_1211866" data-name="Grupo 1211866" xmlns="http://www.w3.org/2000/svg" xmlns:xlink="http://www.w3.org/1999/xlink" width="128" height="128" viewBox="0 0 128 128">
  <defs>
    <clipPath id="clip-path">
      <rect id="Rectángulo_454829" data-name="Rectángulo 454829" width="128" height="128" fill="#1e535a"/>
    </clipPath>
    <clipPath id="clip-path-2">
      <rect id="Rectángulo_462825" data-name="Rectángulo 462825" width="50" height="48.359" fill="#1e535a"/>
    </clipPath>
  </defs>
  <g id="Grupo_1177591" data-name="Grupo 1177591">
    <g id="Grupo_1177589" data-name="Grupo 1177589" transform="translate(0 0)">
      <g id="Grupo_1177587" data-name="Grupo 1177587" clip-path="url(#clip-path)">
        <path id="Trazado_997422" data-name="Trazado 997422" d="M122.774,56.654a58.848,58.848,0,0,0-13.293-30.623,6.768,6.768,0,0,0-9.523-9.118A58.761,58.761,0,0,0,69.535,5.027a6.769,6.769,0,0,0-13.148.267A58.842,58.842,0,0,0,27.2,17.772a6.771,6.771,0,0,0-9.4,9.462A58.794,58.794,0,0,0,5.483,56.6a6.774,6.774,0,0,0-.162,13.266A58.776,58.776,0,0,0,17.252,99.82a6.771,6.771,0,0,0,9.2,9.56,58.838,58.838,0,0,0,29.883,13.07,6.771,6.771,0,0,0,13.266.267,58.788,58.788,0,0,0,30.646-12.107,6.769,6.769,0,0,0,9.476-9.165A58.863,58.863,0,0,0,122.933,69.8a6.771,6.771,0,0,0-.159-13.144m-19.12-27.288a6.733,6.733,0,0,0,3.75-1.135,55.884,55.884,0,0,1,12.333,28.407,6.781,6.781,0,0,0-4.327,3.135L98.1,53.283c.013-.189.027-.382.027-.578a6.772,6.772,0,0,0-2.868-5.533l7.57-17.86a7.335,7.335,0,0,0,.821.054M100,28.288,92.472,46.03a6.7,6.7,0,0,0-7.459,4.307L53.705,43.125a6.588,6.588,0,0,0-.142-1.348L97.992,26.305a6.793,6.793,0,0,0,2,1.983M63,13.553a6.777,6.777,0,0,0,6.651-5.5A55.792,55.792,0,0,1,97.857,19.09a6.739,6.739,0,0,0-.98,3.5,7.114,7.114,0,0,0,.064.9L52.29,39.031A6.8,6.8,0,0,0,51.064,37.8L62.775,13.543c.074,0,.145.01.22.01M56.4,8.324a6.778,6.778,0,0,0,3.409,4.435L48.331,36.538a6.8,6.8,0,0,0-1.4-.145,6.727,6.727,0,0,0-3.861,1.213L29.461,26.238A6.736,6.736,0,0,0,29.231,20,55.836,55.836,0,0,1,56.4,8.324M13.387,61.776l28.15-14.519a6.751,6.751,0,0,0,5.341,2.686l9.648,30.839a6.887,6.887,0,0,0-1.493,1.652L13.3,65.046a6.731,6.731,0,0,0,.25-1.8,6.81,6.81,0,0,0-.166-1.473m6.648-32.521a6.771,6.771,0,0,0,7.564-.645L41.037,39.831a6.758,6.758,0,0,0-.747,4.682l-28.2,14.539A6.774,6.774,0,0,0,8.506,56.7,55.812,55.812,0,0,1,20.036,29.254m2.8,67.623a6.756,6.756,0,0,0-3.365.9A55.762,55.762,0,0,1,8.351,69.832a6.783,6.783,0,0,0,3.517-2.121L54.013,85.27a7.266,7.266,0,0,0-.054.814,6.775,6.775,0,0,0,.405,2.29L28.876,100.587a6.775,6.775,0,0,0-6.037-3.709m33.626,22.556a55.892,55.892,0,0,1-27.883-12.2,6.705,6.705,0,0,0,1.034-3.581l0-.078L56,90.929a6.776,6.776,0,0,0,2.392,1.51l1.581,22.725a6.776,6.776,0,0,0-3.51,4.27m2.807-39.96L49.831,49.287a6.786,6.786,0,0,0,3.219-3.219l31.562,7.266a6.736,6.736,0,0,0,1.078,3.081L64.042,80.173a6.692,6.692,0,0,0-4.77-.7M69.592,119.7a6.774,6.774,0,0,0-6.6-5.25l-.051,0-1.5-21.623a6.764,6.764,0,0,0,4.142-2.01l31.555,13.918c0,.061-.01.115-.01.176a6.743,6.743,0,0,0,1,3.534A55.789,55.789,0,0,1,69.592,119.7M97.9,101.779,67.164,88.22a6.736,6.736,0,0,0-.888-6.027L87.858,58.5a6.736,6.736,0,0,0,3.5.98,7.46,7.46,0,0,0,.831-.054l8.067,39.781a6.761,6.761,0,0,0-2.355,2.571m9.722-2.534a6.735,6.735,0,0,0-4.5-1.064l-8.07-39.8a6.8,6.8,0,0,0,2.135-2.23l17.3,6.486a6.009,6.009,0,0,0-.03.608,6.774,6.774,0,0,0,5.445,6.641A55.835,55.835,0,0,1,107.62,99.246" transform="translate(0 0.001)" fill="#1e535a"/>
      </g>
    </g>
  </g>
  <g id="Elipse_13614" data-name="Elipse 13614" transform="translate(24.167 24.788)" fill="#fff" stroke="#1e535a" stroke-width="3">
    <ellipse cx="39.732" cy="39.733" rx="39.732" ry="39.733" stroke="none"/>
    <ellipse cx="39.732" cy="39.733" rx="38.232" ry="38.233" fill="none"/>
  </g>
  <g id="Grupo_1213203" data-name="Grupo 1213203" transform="translate(39.167 40.788)">
    <g id="Grupo_1213202" data-name="Grupo 1213202" clip-path="url(#clip-path-2)">
      <path id="Trazado_1279620" data-name="Trazado 1279620" d="M51.677,70.73l-4.823.017-.012-1.631,2.411-.017.023-1.6,6.439.007,0,1.6,2.414,0-.008,1.623-4.816.008-.02,4.883a2.414,2.414,0,0,1-2.561,2.361L37.9,77.977a3.447,3.447,0,0,1-2.339,2.308l.01,1.766-1.627-.021,0-1.78a3.326,3.326,0,0,1-2.325-2.266l-13.109-.015a2.337,2.337,0,0,1-2.257-2.195l-.033-5.034-4.794-.006-.037-1.625h2.407l.007-1.6h6.435l.016,1.6,2.419.01-.006,1.636-4.821-.022-.013,4.766c0,.334.261.875.7.876l13.116.006a3.227,3.227,0,0,1,2.294-2.324V70.728l-4.822.019,0-1.628,2.383-.013.019-1.6,6.443-.007.017,1.608,2.4,0,.015,1.638-4.826-.015,0,3.319a3.209,3.209,0,0,1,2.293,2.322H50.852a.841.841,0,0,0,.832-.883Z" transform="translate(-9.756 -57.836)" fill="#1e535a"/>
      <path id="Trazado_1279621" data-name="Trazado 1279621" d="M39.511,315.175H45.95l.008,1.616H50l-.041,1.609H.048L0,316.8l4.034-.011.012-1.612,6.431,0,.049,1.62,11.235,0,.015-1.617,6.439,0,.02,1.617,11.262,0Z" transform="translate(0 -270.043)" fill="#1e535a"/>
      <path id="Trazado_1279622" data-name="Trazado 1279622" d="M22.6,252.47l-11.279,0,0-4.038a.818.818,0,0,1,.733-.8h9.68a.809.809,0,0,1,.871.8Z" transform="translate(-9.699 -212.174)" fill="#1e535a"/>
      <path id="Trazado_1279623" data-name="Trazado 1279623" d="M146.456,252.478l-11.272,0,0-4.038a.811.811,0,0,1,.73-.8h9.806a.842.842,0,0,1,.743.8Z" transform="translate(-115.824 -212.183)" fill="#1e535a"/>
      <path id="Trazado_1279624" data-name="Trazado 1279624" d="M270.309,252.458l-11.279.007v-4.035a.8.8,0,0,1,.879-.8l9.679,0a.828.828,0,0,1,.726.8Z" transform="translate(-221.938 -212.164)" fill="#1e535a"/>
      <path id="Trazado_1279625" data-name="Trazado 1279625" d="M22.582,4.833l-11.278,0L11.3.9a.816.816,0,0,1,.976-.877l9.452,0a.806.806,0,0,1,.858.874Z" transform="translate(-9.68 -0.008)" fill="#1e535a"/>
      <path id="Trazado_1279626" data-name="Trazado 1279626" d="M146.472,4.822,135.2,4.829V.749a.778.778,0,0,1,.84-.738l9.458,0a.814.814,0,0,1,.975.872Z" transform="translate(-115.837 0)" fill="#1e535a"/>
      <path id="Trazado_1279627" data-name="Trazado 1279627" d="M270.3,4.827H259.025l0-4.081a.8.8,0,0,1,.862-.736l9.463,0a.8.8,0,0,1,.952.759Z" transform="translate(-221.934 0.001)" fill="#1e535a"/>
      <path id="Trazado_1279628" data-name="Trazado 1279628" d="M46.754,187.965l-.005,4.938H45.13l.011-4.88a2.408,2.408,0,0,1,2.429-2.376l6.428.005-.008,1.6-6.446,0a.885.885,0,0,0-.789.714" transform="translate(-38.668 -159.062)" fill="#1e535a"/>
      <path id="Trazado_1279629" data-name="Trazado 1279629" d="M249.408,192.918V188.04a.86.86,0,0,0-.8-.782l-6.444,0-.008-1.6,6.426,0a2.406,2.406,0,0,1,2.429,2.375l.013,4.876Z" transform="translate(-207.485 -159.068)" fill="#1e535a"/>
      <rect id="Rectángulo_462821" data-name="Rectángulo 462821" width="6.457" height="3.246" transform="translate(21.774 25.77)" fill="#1e535a"/>
      <path id="Trazado_1279630" data-name="Trazado 1279630" d="M145.693,294.307h-9.608c-.221-.018-.785-.264-.8-.481l-.066-1.153,11.262,0,.01.828a.918.918,0,0,1-.8.808" transform="translate(-115.859 -250.761)" fill="#1e535a"/>
      <path id="Trazado_1279631" data-name="Trazado 1279631" d="M21.622,294.288l-9.729-.016c-.7,0-.871-.921-.676-1.613l11.217-.01.014.839a.9.9,0,0,1-.826.8" transform="translate(-9.547 -250.743)" fill="#1e535a"/>
      <path id="Trazado_1279632" data-name="Trazado 1279632" d="M269.719,294.263l-9.725.041c-.292,0-.835-.3-.844-.568l-.037-1.072,11.2.005c.2.465.1,1.591-.6,1.594" transform="translate(-222.01 -250.756)" fill="#1e535a"/>
      <path id="Trazado_1279633" data-name="Trazado 1279633" d="M270.111,46.062c0,.26-.488.611-.8.61l-9.836-.031c-.636,0-.773-1.074-.557-1.565l11.21-.009Z" transform="translate(-221.758 -38.614)" fill="#1e535a"/>
      <path id="Trazado_1279634" data-name="Trazado 1279634" d="M22.195,46.639,12.3,46.7c-.241,0-.763-.278-.783-.491a7.459,7.459,0,0,1-.009-1.109l11.156,0c.209.25.172,1.537-.469,1.541" transform="translate(-9.846 -38.638)" fill="#1e535a"/>
      <path id="Trazado_1279635" data-name="Trazado 1279635" d="M145.782,46.641l-10.244.02c-.563-.249-.617-1.147-.415-1.568l11.14.006c.158.41.115,1.541-.481,1.543" transform="translate(-115.682 -38.635)" fill="#1e535a"/>
      <rect id="Rectángulo_462822" data-name="Rectángulo 462822" width="3.209" height="3.247" transform="translate(16.951 25.769)" fill="#1e535a"/>
      <rect id="Rectángulo_462823" data-name="Rectángulo 462823" width="3.21" height="3.247" transform="translate(29.846 25.769)" fill="#1e535a"/>
      <rect id="Rectángulo_462824" data-name="Rectángulo 462824" width="1.627" height="3.242" transform="translate(24.189 30.609)" fill="#1e535a"/>
    </g>
  </g>
</svg>
