<svg xmlns="http://www.w3.org/2000/svg" xmlns:xlink="http://www.w3.org/1999/xlink" width="98" height="98" viewBox="0 0 98 98">
  <defs>
    <clipPath id="clip-path">
      <rect id="Rectángulo_454829" data-name="Rectángulo 454829" width="98" height="98" fill="#1e535a"/>
    </clipPath>
    <clipPath id="clip-path-2">
      <rect id="Rectángulo_462705" data-name="Rectángulo 462705" width="39.042" height="40" fill="#fff"/>
    </clipPath>
  </defs>
  <g id="Grupo_1212255" data-name="Grupo 1212255" transform="translate(-186 -4323.629)">
    <g id="Grupo_1177591" data-name="Grupo 1177591" transform="translate(186 4323.629)">
      <g id="Grupo_1177589" data-name="Grupo 1177589" transform="translate(0 0)">
        <g id="Grupo_1177587" data-name="Grupo 1177587" clip-path="url(#clip-path)">
          <path id="Trazado_997422" data-name="Trazado 997422" d="M93.682,43.23A44.9,44.9,0,0,0,83.539,19.863a5.164,5.164,0,0,0-7.266-6.957A44.838,44.838,0,0,0,53.059,3.836a5.165,5.165,0,0,0-10.032.2,44.9,44.9,0,0,0-22.274,9.522,5.167,5.167,0,0,0-7.171,7.22,44.862,44.862,0,0,0-9.4,22.4A5.169,5.169,0,0,0,4.06,53.308a44.849,44.849,0,0,0,9.1,22.859,5.166,5.166,0,0,0,7.019,7.295,44.9,44.9,0,0,0,22.8,9.973,5.167,5.167,0,0,0,10.122.2A44.858,44.858,0,0,0,76.492,84.4a5.165,5.165,0,0,0,7.23-6.993A44.915,44.915,0,0,0,93.8,53.259a5.167,5.167,0,0,0-.121-10.03M79.093,22.408a5.137,5.137,0,0,0,2.861-.866,42.642,42.642,0,0,1,9.411,21.675,5.174,5.174,0,0,0-3.3,2.392L74.858,40.657c.01-.144.021-.291.021-.441a5.167,5.167,0,0,0-2.188-4.222l5.777-13.628a5.6,5.6,0,0,0,.626.041M76.3,21.585l-5.74,13.538a5.114,5.114,0,0,0-5.691,3.287l-23.89-5.5a5.027,5.027,0,0,0-.108-1.028l33.9-11.806A5.183,5.183,0,0,0,76.3,21.585M48.068,10.342a5.171,5.171,0,0,0,5.075-4.194A42.572,42.572,0,0,1,74.67,14.566a5.142,5.142,0,0,0-.748,2.67,5.429,5.429,0,0,0,.049.683L39.9,29.782a5.186,5.186,0,0,0-.936-.936L47.9,10.334c.057,0,.111.008.168.008m-5.029-3.99a5.172,5.172,0,0,0,2.6,3.384L36.879,27.88a5.185,5.185,0,0,0-1.067-.111,5.133,5.133,0,0,0-2.946.925L22.48,20.021a5.14,5.14,0,0,0-.175-4.758A42.606,42.606,0,0,1,43.039,6.351M10.215,47.138l21.48-11.079a5.152,5.152,0,0,0,4.075,2.049l7.362,23.531a5.256,5.256,0,0,0-1.139,1.26L10.151,49.633a5.136,5.136,0,0,0,.191-1.371,5.2,5.2,0,0,0-.126-1.124m5.073-24.815a5.167,5.167,0,0,0,5.771-.492l10.254,8.563a5.156,5.156,0,0,0-.57,3.573L9.228,45.06a5.169,5.169,0,0,0-2.737-1.794,42.587,42.587,0,0,1,8.8-20.943m2.139,51.6a5.155,5.155,0,0,0-2.567.686A42.549,42.549,0,0,1,6.372,53.285a5.175,5.175,0,0,0,2.683-1.619l32.159,13.4a5.543,5.543,0,0,0-.041.621,5.169,5.169,0,0,0,.309,1.748L22.034,76.752a5.17,5.17,0,0,0-4.606-2.83M43.086,91.133A42.648,42.648,0,0,1,21.81,81.825a5.117,5.117,0,0,0,.789-2.732l0-.059,20.137-9.651a5.17,5.17,0,0,0,1.825,1.152l1.206,17.34a5.171,5.171,0,0,0-2.678,3.258m2.142-30.491-7.2-23.034a5.178,5.178,0,0,0,2.457-2.457L64.563,40.7a5.14,5.14,0,0,0,.822,2.351L48.867,61.175a5.107,5.107,0,0,0-3.64-.534M53.1,91.334a5.169,5.169,0,0,0-5.034-4.006l-.039,0-1.147-16.5a5.162,5.162,0,0,0,3.16-1.534l24.078,10.62c0,.046-.008.088-.008.134a5.145,5.145,0,0,0,.766,2.7A42.569,42.569,0,0,1,53.1,91.334M74.7,77.662,51.249,67.315a5.14,5.14,0,0,0-.678-4.6L67.04,44.64a5.14,5.14,0,0,0,2.668.748,5.691,5.691,0,0,0,.634-.041L76.5,75.7a5.159,5.159,0,0,0-1.8,1.962m7.419-1.933a5.139,5.139,0,0,0-3.436-.812L72.525,44.55a5.191,5.191,0,0,0,1.629-1.7l13.2,4.949a4.584,4.584,0,0,0-.023.464,5.169,5.169,0,0,0,4.155,5.068,42.6,42.6,0,0,1-9.365,22.4" transform="translate(0 0.331)" fill="#1e535a"/>
        </g>
      </g>
    </g>
    <g id="Trazado_1030180" data-name="Trazado 1030180" transform="translate(201.566 4338.696)" fill="#1e535a">
      <path d="M 33.68505859375 65.87094116210938 C 29.33944892883301 65.87094116210938 25.12461853027344 65.02017211914062 21.15764808654785 63.34226226806641 C 17.32525825500488 61.72127914428711 13.88309860229492 59.4003791809082 10.92678833007812 56.44404220581055 C 7.970488548278809 53.48770141601562 5.649618625640869 50.04550170898438 4.028648376464844 46.21305084228516 C 2.35075855255127 42.24602890014648 1.499998569488525 38.0311393737793 1.499998569488525 33.68547058105469 C 1.499998569488525 29.33979988098145 2.35075855255127 25.12491035461426 4.028648376464844 21.15789031982422 C 5.649618625640869 17.32544136047363 7.970488548278809 13.88324069976807 10.92678833007812 10.92690086364746 C 13.88309860229492 7.970560550689697 17.32525825500488 5.649660587310791 21.15764808654785 4.028680801391602 C 25.12461853027344 2.350770473480225 29.33944892883301 1.500000596046448 33.68505859375 1.500000596046448 C 38.03067779541016 1.500000596046448 42.24551010131836 2.350770473480225 46.21246719360352 4.028680801391602 C 50.04486846923828 5.649660587310791 53.48703002929688 7.970560550689697 56.44332885742188 10.92690086364746 C 59.39962768554688 13.88324069976807 61.72050857543945 17.32544136047363 63.34146881103516 21.15789031982422 C 65.01935577392578 25.12491035461426 65.8701171875 29.33979988098145 65.8701171875 33.68547058105469 C 65.8701171875 38.0311393737793 65.01935577392578 42.24602890014648 63.34146881103516 46.21305084228516 C 61.72050857543945 50.04550170898438 59.39962768554688 53.48770141601562 56.44332885742188 56.44404220581055 C 53.48703002929688 59.4003791809082 50.04486846923828 61.72127914428711 46.21246719360352 63.34226226806641 C 42.24551010131836 65.02017211914062 38.03067779541016 65.87094116210938 33.68505859375 65.87094116210938 Z" stroke="none"/>
      <path d="M 33.68505859375 3.000007629394531 C 29.54128265380859 3.000007629394531 25.52304840087891 3.810905456542969 21.74198150634766 5.410182952880859 C 18.08838272094727 6.955535888671875 14.80649185180664 9.168491363525391 11.98745727539062 11.987548828125 C 9.168426513671875 14.80661392211914 6.955501556396484 18.08855819702148 5.410160064697266 21.74220275878906 C 3.810890197753906 25.52333831787109 3 29.5416259765625 3 33.68547058105469 C 3 37.82931518554688 3.810890197753906 41.84760284423828 5.410160064697266 45.62873840332031 C 6.955501556396484 49.28237915039062 9.168426513671875 52.56432723999023 11.98745727539062 55.38339233398438 C 14.80649185180664 58.20244598388672 18.08838272094727 60.4154052734375 21.74198150634766 61.96075820922852 C 25.52304840087891 63.56003570556641 29.54128265380859 64.37094116210938 33.68505859375 64.37094116210938 C 37.82883453369141 64.37094116210938 41.84706878662109 63.56003570556641 45.62813568115234 61.96075820922852 C 49.28173828125 60.4154052734375 52.56362533569336 58.20244598388672 55.38265991210938 55.38339233398438 C 58.20169067382812 52.56432723999023 60.41461563110352 49.28237915039062 61.95995712280273 45.62873840332031 C 63.55922698974609 41.84760284423828 64.3701171875 37.82931518554688 64.3701171875 33.68547058105469 C 64.3701171875 29.5416259765625 63.55922698974609 25.52333831787109 61.95995712280273 21.74220275878906 C 60.41461563110352 18.08855819702148 58.20169067382812 14.80661392211914 55.38265991210938 11.987548828125 C 52.56362533569336 9.168491363525391 49.28173828125 6.955535888671875 45.62813568115234 5.410182952880859 C 41.84706878662109 3.810905456542969 37.82883453369141 3.000007629394531 33.68505859375 3.000007629394531 M 33.68505859375 7.62939453125e-06 C 52.28880310058594 7.62939453125e-06 67.3701171875 15.08149337768555 67.3701171875 33.68547058105469 C 67.3701171875 52.28944778442383 52.28880310058594 67.37093353271484 33.68505859375 67.37093353271484 C 15.08131408691406 67.37093353271484 0 52.28944778442383 0 33.68547058105469 C 0 15.08149337768555 15.08131408691406 7.62939453125e-06 33.68505859375 7.62939453125e-06 Z" stroke="none" fill="#1e535a"/>
    </g>
    <g id="Grupo_1213137" data-name="Grupo 1213137" transform="translate(215.566 4352.696)">
      <g id="Grupo_1213136" data-name="Grupo 1213136" clip-path="url(#clip-path-2)">
        <path id="Trazado_1279427" data-name="Trazado 1279427" d="M33.8,13.327a2.186,2.186,0,0,0-2.011-2.058H7.25a2.207,2.207,0,0,0-2.02,2.121L5.219,26.1a8.572,8.572,0,0,1,2-16.352A9.638,9.638,0,0,1,24.633,3.941a5.24,5.24,0,0,1,6.057.167,5.172,5.172,0,0,1,1.786,5.771,8.582,8.582,0,0,1,3.749,14.7,10.016,10.016,0,0,0-2.4-.5Z" transform="translate(0 0)" fill="#fff"/>
        <path id="Trazado_1279428" data-name="Trazado 1279428" d="M58.277,124.8a1.165,1.165,0,0,0-1.268,1.165l0,3.577a1.133,1.133,0,0,0,.97,1.1l19.69,0c.791,0,1.208-.768,1.09-1.7a12.278,12.278,0,0,0,2.132.839l-.021,2.477c0,.475-.584.835-1.073.835l-23.938,0a1.034,1.034,0,0,1-.978-.856l0-25.608a.942.942,0,0,1,.974-.99l23.946,0a.972.972,0,0,1,1.087.871v10.816a10.684,10.684,0,0,0-2.169.828c.207-.767-.172-1.73-1.046-1.73l-19.452-.006a1.163,1.163,0,0,0-1.209,1.114l.008,3.68a1.112,1.112,0,0,0,1.087,1.066H75.916a7.585,7.585,0,0,0,0,2.525ZM77.72,113.884a1.166,1.166,0,0,0,1.039-1.215l0-3.564a1.137,1.137,0,0,0-1.1-1.071H58.108a1.14,1.14,0,0,0-1.1,1.176l0,3.466a1.15,1.15,0,0,0,1.1,1.2Z" transform="translate(-48.361 -93.093)" fill="#fff"/>
        <path id="Trazado_1279429" data-name="Trazado 1279429" d="M252.189,219.014a5.044,5.044,0,1,1-5.044-5.044,5.044,5.044,0,0,1,5.044,5.044m-6.138,2.174a.888.888,0,0,0,.689.052l3.387-3.4a.668.668,0,0,0,.053-.895c-.149-.2-.613-.336-.822-.127l-2.948,2.946-1.342-1.329a.67.67,0,0,0-.942.009.708.708,0,0,0,.025.915Z" transform="translate(-213.358 -188.566)" fill="#fff"/>
        <path id="Trazado_1279430" data-name="Trazado 1279430" d="M179.653,217.006,173.275,217c-.258,0-.525-.413-.526-.619a.679.679,0,0,1,.609-.657l6.308,0a.645.645,0,1,1-.013,1.288" transform="translate(-152.239 -190.107)" fill="#fff"/>
        <path id="Trazado_1279431" data-name="Trazado 1279431" d="M179.718,287.529h-6.193a.648.648,0,1,1-.071-1.293l6.335,0a.759.759,0,0,1,.605.615.714.714,0,0,1-.676.677" transform="translate(-152.291 -252.251)" fill="#fff"/>
        <path id="Trazado_1279432" data-name="Trazado 1279432" d="M91.358,286.444a.713.713,0,1,1-.713-.712.713.713,0,0,1,.713.712" transform="translate(-79.256 -251.808)" fill="#fff"/>
        <path id="Trazado_1279433" data-name="Trazado 1279433" d="M112.3,286.444a.712.712,0,1,1-.712-.712.712.712,0,0,1,.712.712" transform="translate(-97.708 -251.808)" fill="#fff"/>
        <path id="Trazado_1279434" data-name="Trazado 1279434" d="M133.275,286.451a.711.711,0,1,1-.711-.711.711.711,0,0,1,.711.711" transform="translate(-116.199 -251.815)" fill="#fff"/>
        <path id="Trazado_1279435" data-name="Trazado 1279435" d="M91.353,215.836a.71.71,0,1,1-.71-.71.71.71,0,0,1,.71.71" transform="translate(-79.256 -189.585)" fill="#fff"/>
        <path id="Trazado_1279436" data-name="Trazado 1279436" d="M112.306,215.826a.709.709,0,1,1-.709-.709.709.709,0,0,1,.709.709" transform="translate(-97.724 -189.577)" fill="#fff"/>
        <path id="Trazado_1279437" data-name="Trazado 1279437" d="M133.279,215.863a.706.706,0,1,1-.706-.706.706.706,0,0,1,.706.706" transform="translate(-116.21 -189.612)" fill="#fff"/>
        <path id="Trazado_1279438" data-name="Trazado 1279438" d="M179.863,146.207l-6.488.008a.681.681,0,0,1-.6-.657.718.718,0,0,1,.607-.642l6.3,0a.79.79,0,0,1,.681.545c.052.217-.175.75-.5.75" transform="translate(-152.261 -127.707)" fill="#fff"/>
        <path id="Trazado_1279439" data-name="Trazado 1279439" d="M91.344,145.25a.711.711,0,1,1-.711-.711.711.711,0,0,1,.711.711" transform="translate(-79.246 -127.378)" fill="#fff"/>
        <path id="Trazado_1279440" data-name="Trazado 1279440" d="M112.323,145.25a.709.709,0,1,1-.709-.709.709.709,0,0,1,.709.709" transform="translate(-97.738 -127.38)" fill="#fff"/>
        <path id="Trazado_1279441" data-name="Trazado 1279441" d="M133.3,145.282a.7.7,0,1,1-.7-.7.7.7,0,0,1,.7.7" transform="translate(-116.23 -127.412)" fill="#fff"/>
      </g>
    </g>
  </g>
</svg>
