<svg xmlns="http://www.w3.org/2000/svg" xmlns:xlink="http://www.w3.org/1999/xlink" width="396" height="277.8" viewBox="0 0 396 277.8">
  <defs>
    <clipPath id="clip-path">
      <rect id="Rectángulo_462667" data-name="Rectángulo 462667" width="337.732" height="277.8" fill="none"/>
    </clipPath>
    <clipPath id="clip-path-3">
      <rect id="Rectángulo_462661" data-name="Rectángulo 462661" width="42.824" height="49.782" fill="none"/>
    </clipPath>
    <clipPath id="clip-path-4">
      <rect id="Rectángulo_462662" data-name="Rectángulo 462662" width="9.791" height="9.558" fill="none"/>
    </clipPath>
    <clipPath id="clip-path-6">
      <rect id="Rectángulo_462664" data-name="Rectángulo 462664" width="26.648" height="13.918" fill="none"/>
    </clipPath>
    <clipPath id="clip-path-7">
      <rect id="Rectángulo_462665" data-name="Rectángulo 462665" width="24.557" height="68.223" fill="none"/>
    </clipPath>
  </defs>
  <g id="Grupo_1213097" data-name="Grupo 1213097" transform="translate(-1017.711 -625.394)">
    <path id="Trazado_1271930" data-name="Trazado 1271930" d="M260.668,189.173a44.273,44.273,0,0,0,6.871,13.849c16.767,22.85,54.2,26.517,86.186,28l138.492,6.4c19.327.894,39.419,1.7,57.366-3.635,21.528-6.4,36.871-20.861,46.756-36.279s15.273-32.151,23.268-48.149c9.058-18.125,21.48-35.338,28.958-53.846s9.61-39.176-1.759-56.586C632.322,16.747,598.369,4.233,565.013,1.752S498.316,5.16,465.75,11C420.7,19.09,373.8,27.86,338.779,50.163c-27.922,17.783-45.618,42.591-60,67.578-11.972,20.794-24.992,47.917-18.107,71.432" transform="translate(758.956 644.224)" fill="#fff7df"/>
    <g id="Grupo_1213096" data-name="Grupo 1213096" transform="translate(1046.711 625.394)">
      <g id="Grupo_1213095" data-name="Grupo 1213095" clip-path="url(#clip-path)">
        <g id="Grupo_1213094" data-name="Grupo 1213094">
          <g id="Grupo_1213093" data-name="Grupo 1213093" clip-path="url(#clip-path)">
            <path id="Trazado_1279134" data-name="Trazado 1279134" d="M128,115.457c0,32.3-26.82,58.477-59.9,58.477S8.189,147.753,8.189,115.457,35.01,56.98,68.094,56.98,128,83.161,128,115.457" transform="translate(-2.017 -15.059)" fill="#ffe79e"/>
            <path id="Trazado_1279135" data-name="Trazado 1279135" d="M404.226,115.457c0,32.3-26.82,58.477-59.9,58.477s-59.905-26.181-59.905-58.477S311.237,56.98,344.321,56.98s59.9,26.181,59.9,58.477" transform="translate(-70.061 -15.059)" fill="#ffe79e"/>
            <path id="Trazado_1279136" data-name="Trazado 1279136" d="M265.745,274.591c0,32.3-26.82,58.477-59.9,58.477s-59.905-26.181-59.905-58.477,26.821-58.477,59.905-58.477,59.9,26.181,59.9,58.477" transform="translate(-35.949 -57.117)" fill="#ffe79e"/>
            <path id="Trazado_1279137" data-name="Trazado 1279137" d="M123.585,285.224l-3.562,1.422a2.264,2.264,0,0,0-.333.17,18.247,18.247,0,0,0-4.552-4.45,2.194,2.194,0,0,0,.18-.33l1.471-3.471a2.105,2.105,0,0,0-1.176-2.769l-3.556-1.436a2.194,2.194,0,0,0-2.837,1.149l-1.47,3.47a2.068,2.068,0,0,0-.112.358,18.9,18.9,0,0,0-6.271-.018,2.035,2.035,0,0,0-.11-.352L99.8,275.491a2.192,2.192,0,0,0-2.832-1.159l-3.562,1.423a2.1,2.1,0,0,0-1.187,2.765L93.677,282a2.117,2.117,0,0,0,.174.326,18.248,18.248,0,0,0-4.559,4.443,2.249,2.249,0,0,0-.338-.176L85.4,285.154a2.207,2.207,0,0,0-1.653,0l-.01,0a2.134,2.134,0,0,0-1.174,1.148l-1.471,3.471a2.1,2.1,0,0,0,1.176,2.768l3.556,1.436a2.234,2.234,0,0,0,.366.107,17.577,17.577,0,0,0-.018,6.122,2.215,2.215,0,0,0-.36.107l-3.561,1.423a2.1,2.1,0,0,0-1.187,2.765l1.458,3.476a2.192,2.192,0,0,0,2.832,1.159l3.561-1.423a2.134,2.134,0,0,0,.333-.17A18.246,18.246,0,0,0,93.8,312a2.036,2.036,0,0,0-.182.33l-1.47,3.471a2.053,2.053,0,0,0,0,1.622,2.129,2.129,0,0,0,1.176,1.146L96.881,320a2.209,2.209,0,0,0,1.651,0,2.138,2.138,0,0,0,1.185-1.151l1.471-3.471a2.1,2.1,0,0,0,.11-.358,18.9,18.9,0,0,0,6.271.018,2.029,2.029,0,0,0,.11.351l1.458,3.476a2.193,2.193,0,0,0,2.832,1.16l3.561-1.423a2.105,2.105,0,0,0,1.187-2.765l-1.458-3.476a2.022,2.022,0,0,0-.174-.326,18.24,18.24,0,0,0,4.559-4.444,2.216,2.216,0,0,0,.338.176l3.556,1.436a2.211,2.211,0,0,0,1.652,0,2.14,2.14,0,0,0,1.184-1.151l1.471-3.471a2.1,2.1,0,0,0-1.176-2.769l-3.556-1.435a2.191,2.191,0,0,0-.366-.109,17.591,17.591,0,0,0,.018-6.121,2.209,2.209,0,0,0,.36-.107l3.561-1.423a2.1,2.1,0,0,0,1.187-2.765l-1.458-3.476a2.191,2.191,0,0,0-2.832-1.159m-15.253,21.17a10.3,10.3,0,0,1-13.3-5.443,9.887,9.887,0,0,1,5.576-12.985,10.3,10.3,0,0,1,13.3,5.444,9.886,9.886,0,0,1-5.576,12.984" transform="translate(-19.929 -72.461)" fill="#6cb9ff"/>
            <path id="Trazado_1279138" data-name="Trazado 1279138" d="M116.018,299.28a6.973,6.973,0,0,1-2.5,9.691,7.339,7.339,0,0,1-9.928-2.439,6.973,6.973,0,0,1,2.5-9.692,7.339,7.339,0,0,1,9.928,2.439" transform="translate(-25.265 -78.187)" fill="#6cb9ff"/>
            <path id="Trazado_1279139" data-name="Trazado 1279139" d="M425.05,203.8l-4.106-1.2a2.466,2.466,0,0,0-.412-.082,19.636,19.636,0,0,0-.748-6.969,2.484,2.484,0,0,0,.393-.163l3.766-2a2.336,2.336,0,0,0,.969-3.2l-2.05-3.676a2.453,2.453,0,0,0-3.281-.946l-3.766,2a2.379,2.379,0,0,0-.353.233,20.474,20.474,0,0,0-5.42-4.305,2.393,2.393,0,0,0,.157-.38l1.233-4.009a2.355,2.355,0,0,0-1.621-2.941l-4.106-1.2a2.433,2.433,0,0,0-3.014,1.583l-1.233,4.008a2.3,2.3,0,0,0-.084.4,21.043,21.043,0,0,0-7.139.731,2.274,2.274,0,0,0-.167-.384l-2.049-3.676a2.391,2.391,0,0,0-1.429-1.134l-.011,0a2.457,2.457,0,0,0-1.842.191l-3.766,2a2.336,2.336,0,0,0-.968,3.2l2.049,3.676a2.346,2.346,0,0,0,.24.344,20.169,20.169,0,0,0-4.411,5.29,2.444,2.444,0,0,0-.389-.153l-4.107-1.2a2.433,2.433,0,0,0-3.013,1.583l-1.234,4.008a2.357,2.357,0,0,0,1.622,2.942l4.106,1.2a2.449,2.449,0,0,0,.411.082,19.608,19.608,0,0,0,.748,6.97,2.413,2.413,0,0,0-.394.162l-3.766,2a2.358,2.358,0,0,0-1.164,1.406,2.3,2.3,0,0,0,.2,1.8l2.049,3.677h0a2.4,2.4,0,0,0,1.43,1.132,2.464,2.464,0,0,0,1.852-.186l3.766-2a2.319,2.319,0,0,0,.352-.235,20.47,20.47,0,0,0,5.42,4.307,2.365,2.365,0,0,0-.158.38l-1.233,4.008A2.355,2.355,0,0,0,390,226.007l4.106,1.2a2.432,2.432,0,0,0,3.014-1.583l1.233-4.008a2.312,2.312,0,0,0,.084-.4,21.048,21.048,0,0,0,7.14-.731,2.362,2.362,0,0,0,.166.385l2.049,3.676a2.4,2.4,0,0,0,1.43,1.132,2.463,2.463,0,0,0,1.852-.187l3.767-2a2.335,2.335,0,0,0,.969-3.2l-2.049-3.676a2.355,2.355,0,0,0-.239-.345,20.164,20.164,0,0,0,4.41-5.29,2.52,2.52,0,0,0,.389.154l4.107,1.2a2.432,2.432,0,0,0,3.013-1.583l1.234-4.009a2.356,2.356,0,0,0-1.622-2.941m-28.413,7.9a11.064,11.064,0,0,1-7.614-13.815,11.425,11.425,0,0,1,14.152-7.434,11.064,11.064,0,0,1,7.614,13.816,11.425,11.425,0,0,1-14.152,7.433" transform="translate(-91.891 -46.212)" fill="#6cb9ff"/>
            <path id="Trazado_1279140" data-name="Trazado 1279140" d="M414.036,208.784a8.037,8.037,0,0,1-9.122,6.686,7.908,7.908,0,0,1-6.849-8.906,8.037,8.037,0,0,1,9.122-6.685,7.907,7.907,0,0,1,6.849,8.905" transform="translate(-98.036 -52.805)" fill="#6cb9ff"/>
            <path id="Trazado_1279141" data-name="Trazado 1279141" d="M81.152,254.044l-2.987.256a1.76,1.76,0,0,0-.289.052,13.929,13.929,0,0,0-2.335-4.339,1.729,1.729,0,0,0,.213-.205l1.916-2.251a1.627,1.627,0,0,0-.221-2.326l-2.306-1.87a1.723,1.723,0,0,0-2.383.216l-1.916,2.251a1.694,1.694,0,0,0-.167.241,14.616,14.616,0,0,0-4.662-1.427,1.577,1.577,0,0,0,0-.286l-.262-2.916a1.683,1.683,0,0,0-1.834-1.5l-2.988.256a1.666,1.666,0,0,0-1.537,1.79l.262,2.916a1.65,1.65,0,0,0,.053.282,14.482,14.482,0,0,0-4.444,2.279,1.726,1.726,0,0,0-.21-.207l-2.307-1.87a1.707,1.707,0,0,0-1.228-.375h-.008a1.694,1.694,0,0,0-1.146.59L48.45,247.85a1.627,1.627,0,0,0,.22,2.326l2.307,1.87a1.717,1.717,0,0,0,.247.163,13.779,13.779,0,0,0-1.462,4.552,1.773,1.773,0,0,0-.293,0l-2.988.256a1.666,1.666,0,0,0-1.537,1.79l.262,2.916a1.683,1.683,0,0,0,1.834,1.5l2.987-.256a1.751,1.751,0,0,0,.289-.051,13.936,13.936,0,0,0,2.336,4.339,1.661,1.661,0,0,0-.213.2l-1.916,2.251a1.625,1.625,0,0,0,.22,2.326l2.307,1.87a1.724,1.724,0,0,0,2.383-.216l1.916-2.251a1.644,1.644,0,0,0,.166-.241,14.642,14.642,0,0,0,4.664,1.427,1.648,1.648,0,0,0,0,.286l.262,2.916a1.682,1.682,0,0,0,1.834,1.5l2.987-.256a1.664,1.664,0,0,0,1.537-1.789l-.262-2.916a1.58,1.58,0,0,0-.052-.282,14.492,14.492,0,0,0,4.444-2.28,1.675,1.675,0,0,0,.21.208l2.307,1.87a1.714,1.714,0,0,0,1.229.374,1.7,1.7,0,0,0,1.154-.589l1.916-2.251a1.627,1.627,0,0,0-.221-2.326l-2.306-1.87a1.74,1.74,0,0,0-.247-.163,13.785,13.785,0,0,0,1.461-4.551,1.789,1.789,0,0,0,.294,0l2.987-.256a1.666,1.666,0,0,0,1.537-1.79l-.262-2.916a1.682,1.682,0,0,0-1.834-1.5M64.791,266.362a7.9,7.9,0,0,1-8.611-7.05,7.822,7.822,0,0,1,7.222-8.406,7.9,7.9,0,0,1,8.611,7.05,7.823,7.823,0,0,1-7.222,8.406" transform="translate(-11.07 -63.411)" fill="#09136e"/>
            <path id="Trazado_1279142" data-name="Trazado 1279142" d="M74,262.075a5.5,5.5,0,0,1-4.152,6.649,5.65,5.65,0,0,1-6.812-4.053,5.5,5.5,0,0,1,4.153-6.65A5.65,5.65,0,0,1,74,262.075" transform="translate(-15.487 -68.151)" fill="#09136e"/>
            <rect id="Rectángulo_462646" data-name="Rectángulo 462646" width="6.794" height="7.171" transform="translate(243.031 270.458)" fill="#69d7e5"/>
            <rect id="Rectángulo_462647" data-name="Rectángulo 462647" width="6.794" height="17.62" transform="translate(251.202 260.009)" fill="#69d7e5"/>
            <rect id="Rectángulo_462648" data-name="Rectángulo 462648" width="6.794" height="35.678" transform="translate(268.116 241.951)" fill="#69d7e5"/>
            <rect id="Rectángulo_462649" data-name="Rectángulo 462649" width="6.794" height="28.224" transform="translate(259.735 249.404)" fill="#69d7e5"/>
            <path id="Trazado_1279143" data-name="Trazado 1279143" d="M372.417,377.146h-3.673a.624.624,0,0,1,0-1.247h3.673a.624.624,0,0,1,0,1.247" transform="translate(-90.684 -99.346)" fill="#b19cfe"/>
            <path id="Trazado_1279144" data-name="Trazado 1279144" d="M372.417,365.055h-3.673a.624.624,0,0,1,0-1.247h3.673a.624.624,0,0,1,0,1.247" transform="translate(-90.684 -96.151)" fill="#b19cfe"/>
            <path id="Trazado_1279145" data-name="Trazado 1279145" d="M372.417,352.964h-3.673a.624.624,0,0,1,0-1.247h3.673a.624.624,0,0,1,0,1.247" transform="translate(-90.684 -92.955)" fill="#b19cfe"/>
            <path id="Trazado_1279146" data-name="Trazado 1279146" d="M372.417,340.873h-3.673a.623.623,0,0,1,0-1.246h3.673a.623.623,0,0,1,0,1.246" transform="translate(-90.684 -89.76)" fill="#b19cfe"/>
            <path id="Trazado_1279147" data-name="Trazado 1279147" d="M372.417,328.781h-3.673a.624.624,0,0,1,0-1.247h3.673a.624.624,0,0,1,0,1.247" transform="translate(-90.684 -86.564)" fill="#b19cfe"/>
            <path id="Trazado_1279148" data-name="Trazado 1279148" d="M418.416,24.267a14.228,14.228,0,0,0-14.363-13.419,14.42,14.42,0,0,0-12.765,7.576,11.6,11.6,0,0,0-6.338-1.87,11.322,11.322,0,0,0-11.456,11.184,10.96,10.96,0,0,0,.228,2.227,6.624,6.624,0,0,0-1.082-.1,6.4,6.4,0,0,0-6.472,6.318,6.164,6.164,0,0,0,.637,2.734H427.3a10.9,10.9,0,0,0,.634-3.642,11.26,11.26,0,0,0-9.515-11.011" transform="translate(-90.199 -2.867)" fill="#69d7e5"/>
            <path id="Trazado_1279149" data-name="Trazado 1279149" d="M435.532,51.369h-2.556v-8.9h-8.813v8.9h-2.555l6.958,6.34Z" transform="translate(-103.856 -11.225)" fill="#ffc655"/>
            <path id="Trazado_1279150" data-name="Trazado 1279150" d="M414.679,336.029a3.585,3.585,0,0,0-3.554,2.94l-4.973-3.273a3.445,3.445,0,0,0,.173-4.744l5.2-3.42a3.623,3.623,0,0,0,3.156,1.821,3.521,3.521,0,1,0-3.606-3.52,3.4,3.4,0,0,0,.034.458l-5.829,3.836a3.657,3.657,0,0,0-1.7-.415,3.521,3.521,0,1,0,0,7.041,3.665,3.665,0,0,0,1.43-.29l6.211,4.086a3.592,3.592,0,1,0,3.456-4.519m0-12.461a2.264,2.264,0,1,1-2.319,2.264,2.295,2.295,0,0,1,2.319-2.264m-13.416,9.663a2.32,2.32,0,1,1,2.319,2.264,2.294,2.294,0,0,1-2.319-2.264m13.416,8.581A2.264,2.264,0,1,1,417,339.55a2.294,2.294,0,0,1-2.319,2.263" transform="translate(-98.527 -85.184)" fill="#69d7e5"/>
            <path id="Trazado_1279151" data-name="Trazado 1279151" d="M28.084,12.392A8.072,8.072,0,0,0,25.24,1.173,8.5,8.5,0,0,0,13.747,3.949a8.055,8.055,0,0,0,2.219,10.807l-4.777,7.731a.724.724,0,0,0,.255,1.009.763.763,0,0,0,1.033-.25l4.778-7.73a8.492,8.492,0,0,0,10.829-3.124M17.368,13.909a6.62,6.62,0,0,1-2.333-9.2,6.97,6.97,0,0,1,9.426-2.277,6.62,6.62,0,0,1,2.333,9.2,6.97,6.97,0,0,1-9.426,2.276" transform="translate(-2.729 0)" fill="#6cb9ff"/>
            <path id="Trazado_1279152" data-name="Trazado 1279152" d="M408.688,110.233h23.488V95.475H408.688Zm22.536-1.278-8.036-6.753,8.036-5.379ZM409.64,96.823l8.036,5.379-8.036,6.753Zm10.792,6.1L410.7,96.4h19.462Zm-2.034-.1a.457.457,0,0,0,.072-.09l1.693,1.134a.321.321,0,0,0,.036.017.382.382,0,0,0,.04.018.47.47,0,0,0,.193.046h0a.47.47,0,0,0,.193-.046.394.394,0,0,0,.04-.018.321.321,0,0,0,.036-.017l1.693-1.134a.455.455,0,0,0,.072.09l7.712,6.481H410.685Z" transform="translate(-100.673 -25.233)" fill="#6cb9ff"/>
            <path id="Trazado_1279153" data-name="Trazado 1279153" d="M234.65,53.4a.331.331,0,0,0,0-.1,13.228,13.228,0,0,0-3.691-8.555l-.051-.063-.023-.013a13.934,13.934,0,0,0-19.9.007.31.31,0,0,0-.063.065,13.234,13.234,0,0,0-3.694,8.536.31.31,0,0,0-.005.124c-.006.163-.01.327-.01.491a13.175,13.175,0,0,0,3.658,9.1l.033.057a.338.338,0,0,0,.144.127,13.938,13.938,0,0,0,19.783,0,.332.332,0,0,0,.142-.126l.021-.043a13.176,13.176,0,0,0,3.67-9.111c0-.165,0-.33-.01-.493M221.272,54.55v-6.8a21.151,21.151,0,0,0,5.4-.772,21.109,21.109,0,0,1,1.1,6.905c0,.094,0,.188,0,.282a59.605,59.605,0,0,1-6.506.38m7.184-.462c0-.066,0-.132,0-.2a21.715,21.715,0,0,0-1.139-7.1,17.031,17.031,0,0,0,3.293-1.434,12.585,12.585,0,0,1,3.346,7.743,52.952,52.952,0,0,1-5.5.991m-7.184-6.994V41.168c2.036.191,3.944,2.1,5.172,5.192a20.434,20.434,0,0,1-5.172.733m5.814-.927a10.363,10.363,0,0,0-3.337-4.716,13.174,13.174,0,0,1,6.381,3.411,16.462,16.462,0,0,1-3.044,1.3m-.009,15.468a16.481,16.481,0,0,1,3.036,1.3,13.176,13.176,0,0,1-6.365,3.4,10.342,10.342,0,0,0,3.329-4.693m-5.8-1.585V55.211a60.027,60.027,0,0,0,6.488-.374,20.715,20.715,0,0,1-1.093,5.981,21.141,21.141,0,0,0-5.4-.769m5.162,1.391c-1.227,3.075-3.132,4.979-5.162,5.169v-5.9a20.46,20.46,0,0,1,5.162.731m.876-.428a21.359,21.359,0,0,0,1.132-6.256,54.009,54.009,0,0,0,5.54-.986c0,.039,0,.078,0,.118a12.518,12.518,0,0,1-3.388,8.552,17.078,17.078,0,0,0-3.285-1.428m-6.715-.3v5.9c-2.03-.19-3.935-2.094-5.162-5.169a20.455,20.455,0,0,1,5.162-.731m-5.805.924a10.348,10.348,0,0,0,3.33,4.693,13.186,13.186,0,0,1-6.365-3.395,16.453,16.453,0,0,1,3.036-1.3m.783-6.66c1.65.146,3.338.224,5.022.236v4.839a21.147,21.147,0,0,0-5.4.769,20.711,20.711,0,0,1-1.093-5.989q.7.078,1.467.146m-1.485-1.086a21.13,21.13,0,0,1,1.1-6.905,21.157,21.157,0,0,0,5.4.772v6.794c-1.666-.011-3.332-.089-4.957-.232q-.807-.071-1.549-.156c0-.09,0-.181,0-.272m.693-7.722a16.489,16.489,0,0,1-3.044-1.3,13.177,13.177,0,0,1,6.382-3.411,10.37,10.37,0,0,0-3.338,4.716m-.231.622a21.7,21.7,0,0,0-1.14,7.1c0,.064,0,.127,0,.191a48.919,48.919,0,0,1-5.5-.978,12.584,12.584,0,0,1,3.346-7.747,17.056,17.056,0,0,0,3.293,1.434m-6.664,6.989a50.727,50.727,0,0,0,5.54.97,21.37,21.37,0,0,0,1.132,6.265,17.106,17.106,0,0,0-3.286,1.428,12.521,12.521,0,0,1-3.387-8.552c0-.037,0-.074,0-.111m7.538-7.417c1.228-3.089,3.135-5,5.172-5.192v5.925a20.434,20.434,0,0,1-5.172-.733" transform="translate(-51.042 -10.701)" fill="#6cb9ff"/>
            <path id="Trazado_1279154" data-name="Trazado 1279154" d="M227.737,197.769a3.445,3.445,0,1,1-3.443-3.361,3.4,3.4,0,0,1,3.443,3.361" transform="translate(-54.403 -51.38)" fill="#6cb9ff"/>
            <path id="Trazado_1279155" data-name="Trazado 1279155" d="M230.045,192.57a.8.8,0,0,1-.691-.394,7.621,7.621,0,0,0-13.128,0,.8.8,0,0,1-1.078.295.764.764,0,0,1-.3-1.054,9.224,9.224,0,0,1,15.89,0,.764.764,0,0,1-.3,1.054.812.812,0,0,1-.388.1" transform="translate(-52.898 -49.39)" fill="#6cb9ff"/>
            <path id="Trazado_1279156" data-name="Trazado 1279156" d="M210.43,188.394a.812.812,0,0,1-.388-.1.764.764,0,0,1-.3-1.054,13.691,13.691,0,0,1,23.583,0,.764.764,0,0,1-.3,1.054.8.8,0,0,1-1.079-.3,12.088,12.088,0,0,0-20.822,0,.8.8,0,0,1-.691.394" transform="translate(-51.641 -47.706)" fill="#6cb9ff"/>
            <path id="Trazado_1279157" data-name="Trazado 1279157" d="M234.494,183.518a.8.8,0,0,1-.692-.394,15.3,15.3,0,0,0-26.346,0,.8.8,0,0,1-1.08.3.765.765,0,0,1-.3-1.053,16.9,16.9,0,0,1,29.109,0,.761.761,0,0,1-.3,1.053.8.8,0,0,1-.387.1" transform="translate(-50.738 -46.001)" fill="#6cb9ff"/>
            <path id="Trazado_1279158" data-name="Trazado 1279158" d="M236.2,178.692a.8.8,0,0,1-.691-.394,18.232,18.232,0,0,0-31.4,0,.8.8,0,0,1-1.079.3.764.764,0,0,1-.3-1.054,19.835,19.835,0,0,1,34.165,0,.764.764,0,0,1-.3,1.054.807.807,0,0,1-.387.1" transform="translate(-49.911 -44.344)" fill="#6cb9ff"/>
            <path id="Trazado_1279159" data-name="Trazado 1279159" d="M169.95,349.748H164.8a.628.628,0,1,1,0-1.257h5.149a.628.628,0,1,1,0,1.257m-10.3,0H154.5a.628.628,0,1,1,0-1.257h5.15a.628.628,0,1,1,0,1.257m-10.3,0H144.2a.628.628,0,1,1,0-1.257h5.15a.628.628,0,1,1,0,1.257m-10.3,0H133.9a.628.628,0,1,1,0-1.257h5.15a.628.628,0,1,1,0,1.257m-10.3,0H123.6a.628.628,0,1,1,0-1.257h5.15a.628.628,0,1,1,0,1.257m-10.3,0H113.3a.628.628,0,1,1,0-1.257h5.15a.628.628,0,1,1,0,1.257m-10.3,0H103a.628.628,0,1,1,0-1.257h5.15a.628.628,0,1,1,0,1.257m-10.3,0H92.7a.628.628,0,1,1,0-1.257h5.15a.628.628,0,1,1,0,1.257m-10.3,0H82.4a.628.628,0,1,1,0-1.257h5.15a.628.628,0,1,1,0,1.257m-10.3,0h-5.15a.628.628,0,1,1,0-1.257h5.15a.628.628,0,1,1,0,1.257m-10.3,0h-5.15a.628.628,0,1,1,0-1.257h5.15a.628.628,0,1,1,0,1.257m-10.3,0h-5.15a.628.628,0,1,1,0-1.257h5.15a.628.628,0,1,1,0,1.257m-10.3,0h-.938a15.832,15.832,0,0,1-4.334-.6.626.626,0,0,1-.439-.778.647.647,0,0,1,.8-.427,14.573,14.573,0,0,0,3.974.55h.938a.628.628,0,1,1,0,1.257m128.659-.759a.642.642,0,0,1-.61-.427.625.625,0,0,1,.4-.8,14.231,14.231,0,0,0,4.3-2.293.656.656,0,0,1,.9.1.62.62,0,0,1-.1.884,15.541,15.541,0,0,1-4.691,2.5.652.652,0,0,1-.206.034M36.666,346.965a.651.651,0,0,1-.379-.121,15.326,15.326,0,0,1-3.71-3.754.619.619,0,0,1,.173-.873.653.653,0,0,1,.894.168,14.022,14.022,0,0,0,3.4,3.444.62.62,0,0,1,.14.878.649.649,0,0,1-.521.258m146.242-4.116a.653.653,0,0,1-.337-.093.619.619,0,0,1-.21-.864,13.581,13.581,0,0,0,1.81-4.445.644.644,0,0,1,.76-.488.629.629,0,0,1,.5.742,14.812,14.812,0,0,1-1.975,4.851.646.646,0,0,1-.549.3M31.015,338.8a.641.641,0,0,1-.623-.475,14.856,14.856,0,0,1-.468-3.7v-1.439a.644.644,0,0,1,1.287,0v1.439a13.65,13.65,0,0,0,.429,3.4.627.627,0,0,1-.467.762.65.65,0,0,1-.158.019M185.108,333.2a.636.636,0,0,1-.644-.628V327.54a.644.644,0,0,1,1.287,0v5.027a.636.636,0,0,1-.644.628m-154.54-4.411a.636.636,0,0,1-.644-.628V323.13a.644.644,0,0,1,1.287,0v5.027a.636.636,0,0,1-.644.628m0-10.054a.636.636,0,0,1-.644-.628v-5.027a.644.644,0,0,1,1.287,0V318.1a.636.636,0,0,1-.644.628m0-10.053a.636.636,0,0,1-.644-.629v-5.026a.644.644,0,0,1,1.287,0v5.026a.636.636,0,0,1-.644.629m0-10.054a.636.636,0,0,1-.644-.628v-5.027a.644.644,0,0,1,1.287,0v5.027a.636.636,0,0,1-.644.628m0-10.054a.636.636,0,0,1-.644-.628v-5.027a.644.644,0,0,1,1.287,0v5.027a.636.636,0,0,1-.644.628m0-10.054a.636.636,0,0,1-.644-.628v-5.027a.644.644,0,0,1,1.287,0v5.027a.636.636,0,0,1-.644.628" transform="translate(-7.371 -71.948)" fill="#69d7e5"/>
            <path id="Trazado_1279160" data-name="Trazado 1279160" d="M276.957,229.909h-5.15a.628.628,0,1,1,0-1.257h5.15a.628.628,0,1,1,0,1.257m-10.3,0h-5.15a.628.628,0,1,1,0-1.257h5.15a.628.628,0,1,1,0,1.257m-10.3,0h-5.15a.628.628,0,1,1,0-1.257h5.15a.628.628,0,1,1,0,1.257m-10.3,0h-5.15a.628.628,0,1,1,0-1.257h5.15a.628.628,0,1,1,0,1.257m-10.3,0h-5.15a.628.628,0,1,1,0-1.257h5.15a.628.628,0,1,1,0,1.257m-10.3,0h-5.15a.628.628,0,1,1,0-1.257h5.15a.628.628,0,1,1,0,1.257m-10.3,0h-5.15a.628.628,0,1,1,0-1.257h5.15a.628.628,0,1,1,0,1.257m-10.3,0h-5.15a.628.628,0,1,1,0-1.257h5.15a.628.628,0,1,1,0,1.257m-10.3,0h-5.15a.628.628,0,1,1,0-1.257h5.15a.628.628,0,1,1,0,1.257m-10.3,0h-5.15a.628.628,0,1,1,0-1.257h5.15a.628.628,0,1,1,0,1.257m-10.3,0h-5.15a.628.628,0,1,1,0-1.257h5.15a.628.628,0,1,1,0,1.257m-10.3,0h-5.15a.628.628,0,1,1,0-1.257h5.15a.628.628,0,1,1,0,1.257m-10.3,0h-5.15a.628.628,0,1,1,0-1.257h5.15a.628.628,0,1,1,0,1.257m-10.3,0h-5.15a.628.628,0,1,1,0-1.257h5.15a.628.628,0,1,1,0,1.257m-10.3,0h-5.15a.628.628,0,1,1,0-1.257h5.15a.628.628,0,1,1,0,1.257m-10.3,0h-5.15a.628.628,0,1,1,0-1.257h5.15a.628.628,0,1,1,0,1.257m-10.3,0h-5.15a.628.628,0,1,1,0-1.257h5.15a.628.628,0,1,1,0,1.257m-10.3,0H97.228c-.179,0-.356,0-.532-.008a.635.635,0,0,1-.625-.647.649.649,0,0,1,.662-.61c.165.005.33.007.5.008h4.634a.628.628,0,1,1,0,1.257m180.207-.422a.641.641,0,0,1-.627-.487.629.629,0,0,1,.483-.754,15.926,15.926,0,0,0,4.57-1.8.653.653,0,0,1,.884.216.621.621,0,0,1-.221.862,17.251,17.251,0,0,1-4.945,1.944.653.653,0,0,1-.145.016M91.671,229a.645.645,0,0,1-.213-.035,16.917,16.917,0,0,1-4.694-2.469.618.618,0,0,1-.118-.881.653.653,0,0,1,.9-.116,15.62,15.62,0,0,0,4.334,2.279.625.625,0,0,1,.4.8.643.643,0,0,1-.607.421m199.067-4.619a.653.653,0,0,1-.415-.148.618.618,0,0,1-.077-.885,13.471,13.471,0,0,0,2.455-4.132.646.646,0,0,1,.824-.377.624.624,0,0,1,.387.8,14.715,14.715,0,0,1-2.682,4.516.649.649,0,0,1-.492.223M83.667,222.963a.647.647,0,0,1-.54-.285,14.3,14.3,0,0,1-2.083-4.812.629.629,0,0,1,.49-.75.645.645,0,0,1,.768.478,13.059,13.059,0,0,0,1.9,4.4.619.619,0,0,1-.186.869.651.651,0,0,1-.352.1m210.472-7.84a.636.636,0,0,1-.644-.628v-5.027a.644.644,0,0,1,1.288,0V214.5a.636.636,0,0,1-.644.628M81.345,213.357a.636.636,0,0,1-.644-.628V207.7a.644.644,0,0,1,1.287,0v5.027a.636.636,0,0,1-.644.628m212.794-8.288a.636.636,0,0,1-.644-.628v-5.027a.644.644,0,0,1,1.288,0v5.027a.636.636,0,0,1-.644.628M81.345,203.3a.636.636,0,0,1-.644-.628v-5.027a.644.644,0,0,1,1.287,0v5.027a.636.636,0,0,1-.644.628" transform="translate(-19.879 -52.07)" fill="#69d7e5"/>
            <path id="Trazado_1279161" data-name="Trazado 1279161" d="M143.033,124.808a.636.636,0,0,1-.644-.628v-5.027a.644.644,0,0,1,1.288,0v5.027a.636.636,0,0,1-.644.628m123.413-5a.636.636,0,0,1-.644-.628v-5.027a.644.644,0,0,1,1.288,0v5.027a.636.636,0,0,1-.644.628m-123.413-5.053a.636.636,0,0,1-.644-.628V109.1a.644.644,0,0,1,1.288,0v5.027a.636.636,0,0,1-.644.628m123.413-5a.636.636,0,0,1-.644-.628v-2.081a12.771,12.771,0,0,0-.308-2.788.629.629,0,0,1,.492-.748.644.644,0,0,1,.766.48,14.013,14.013,0,0,1,.338,3.056v2.081a.636.636,0,0,1-.644.628m-123.084-5.028a.643.643,0,0,1-.139-.015.629.629,0,0,1-.491-.749,14.3,14.3,0,0,1,2.084-4.812.655.655,0,0,1,.892-.182.62.62,0,0,1,.185.87,13.036,13.036,0,0,0-1.9,4.4.642.642,0,0,1-.629.493m120.777-4.582a.649.649,0,0,1-.54-.285,14.377,14.377,0,0,0-3.339-3.512.619.619,0,0,1-.118-.881.653.653,0,0,1,.9-.114,15.609,15.609,0,0,1,3.632,3.822.619.619,0,0,1-.188.87.653.653,0,0,1-.35.1M148.846,96.461a.647.647,0,0,1-.51-.246.618.618,0,0,1,.118-.881,16.924,16.924,0,0,1,4.693-2.469.647.647,0,0,1,.82.386.624.624,0,0,1-.395.8,15.605,15.605,0,0,0-4.334,2.279.656.656,0,0,1-.393.13m107.3-2.367a.655.655,0,0,1-.213-.036,16.486,16.486,0,0,0-4.85-.876.628.628,0,1,1,.02-1.257h.02a17.8,17.8,0,0,1,5.236.947.624.624,0,0,1,.394.8.644.644,0,0,1-.607.421M158.4,93.182a.628.628,0,1,1-.018-1.257q.266-.008.531-.007h4.637a.628.628,0,1,1,0,1.257h-4.637c-.164,0-.33,0-.494.007Zm87.546-.007H240.8a.628.628,0,1,1,0-1.257h5.149a.628.628,0,1,1,0,1.257m-10.3,0H230.5a.628.628,0,1,1,0-1.257h5.151a.628.628,0,1,1,0,1.257m-10.3,0H220.2a.628.628,0,1,1,0-1.257h5.15a.628.628,0,1,1,0,1.257m-10.3,0H209.9a.628.628,0,1,1,0-1.257h5.149a.628.628,0,1,1,0,1.257m-10.3,0H199.6a.628.628,0,1,1,0-1.257h5.151a.628.628,0,1,1,0,1.257m-10.3,0H189.3a.628.628,0,1,1,0-1.257h5.151a.628.628,0,1,1,0,1.257m-10.3,0H179a.628.628,0,1,1,0-1.257h5.151a.628.628,0,1,1,0,1.257m-10.3,0H168.7a.628.628,0,1,1,0-1.257h5.151a.628.628,0,1,1,0,1.257" transform="translate(-35.075 -24.293)" fill="#69d7e5"/>
            <path id="Trazado_1279162" data-name="Trazado 1279162" d="M24.879,96.1a.636.636,0,0,1-.644-.628V90.444a.644.644,0,0,1,1.287,0v5.027a.636.636,0,0,1-.644.628m0-10.053a.636.636,0,0,1-.644-.629V80.391a.644.644,0,0,1,1.287,0v5.026a.636.636,0,0,1-.644.629m0-10.054a.636.636,0,0,1-.644-.628V70.336a.644.644,0,0,1,1.287,0v5.027a.636.636,0,0,1-.644.628m0-10.054a.636.636,0,0,1-.644-.628V60.282a.644.644,0,0,1,1.287,0v5.027a.636.636,0,0,1-.644.628m56.649-2.571a.636.636,0,0,1-.644-.628V57.712a.644.644,0,0,1,1.287,0v5.027a.636.636,0,0,1-.644.628M24.879,55.883a.636.636,0,0,1-.644-.628V50.228a.644.644,0,0,1,1.287,0v5.027a.636.636,0,0,1-.644.628m56.649-2.571a.636.636,0,0,1-.644-.628V49.3a8.219,8.219,0,0,0-.142-1.521.631.631,0,0,1,.518-.731.641.641,0,0,1,.749.505,9.53,9.53,0,0,1,.162,1.747v3.384a.636.636,0,0,1-.644.628M25.811,45.969a.65.65,0,0,1-.28-.063.622.622,0,0,1-.3-.839,10.639,10.639,0,0,1,3.528-4.013.655.655,0,0,1,.9.153.62.62,0,0,1-.156.875,9.362,9.362,0,0,0-3.109,3.531.646.646,0,0,1-.58.355m53.333-2.135a.652.652,0,0,1-.485-.214,10.139,10.139,0,0,0-3.932-2.679.625.625,0,0,1-.365-.814.648.648,0,0,1,.834-.355,11.438,11.438,0,0,1,4.433,3.021.618.618,0,0,1-.062.887.649.649,0,0,1-.424.155M33.869,40.35a.64.64,0,0,1-.636-.533.632.632,0,0,1,.54-.717,12.745,12.745,0,0,1,1.868-.138h3.371a.628.628,0,1,1,0,1.257H35.641a11.429,11.429,0,0,0-1.674.124.742.742,0,0,1-.1.007m36.042-.131h-5.15a.628.628,0,1,1,0-1.257h5.15a.628.628,0,1,1,0,1.257m-10.3,0h-5.15a.628.628,0,1,1,0-1.257h5.15a.628.628,0,1,1,0,1.257m-10.3,0h-5.15a.628.628,0,1,1,0-1.257h5.15a.628.628,0,1,1,0,1.257" transform="translate(-5.97 -10.297)" fill="#69d7e5"/>
            <rect id="Rectángulo_462650" data-name="Rectángulo 462650" width="5.116" height="38.94" transform="translate(252.447 176.974)" fill="#2e3d44"/>
            <rect id="Rectángulo_462651" data-name="Rectángulo 462651" width="5.116" height="38.94" transform="translate(290.58 176.974)" fill="#2e3d44"/>
            <path id="Trazado_1279163" data-name="Trazado 1279163" d="M379.69,227.3H330.252a1.814,1.814,0,0,0-1.835,1.791v13.467a1.814,1.814,0,0,0,1.835,1.791H379.69a1.814,1.814,0,0,0,1.835-1.791V229.091a1.814,1.814,0,0,0-1.835-1.791" transform="translate(-80.9 -60.073)" fill="#9ed1ff"/>
            <path id="Trazado_1279164" data-name="Trazado 1279164" d="M386.1,237.781H362.028a1.691,1.691,0,0,1-1.711-1.67v-4.365a1.691,1.691,0,0,1,1.711-1.67H386.1a1.691,1.691,0,0,1,1.711,1.67v4.365a1.691,1.691,0,0,1-1.711,1.67" transform="translate(-88.758 -60.807)" fill="#fff"/>
            <path id="Trazado_1279165" data-name="Trazado 1279165" d="M349.873,237.781H332.889a1.69,1.69,0,0,1-1.711-1.67v-4.365a1.691,1.691,0,0,1,1.711-1.67h16.985a1.691,1.691,0,0,1,1.711,1.67v4.365a1.691,1.691,0,0,1-1.711,1.67" transform="translate(-81.58 -60.807)" fill="#fff"/>
            <path id="Trazado_1279166" data-name="Trazado 1279166" d="M373.281,244.018h-9.195a.92.92,0,1,0,0,1.839h9.195a.92.92,0,1,0,0-1.839" transform="translate(-89.454 -64.491)" fill="#09136e"/>
            <path id="Trazado_1279167" data-name="Trazado 1279167" d="M392,244.018h-9.2a.92.92,0,1,0,0,1.839H392a.92.92,0,1,0,0-1.839" transform="translate(-94.066 -64.491)" fill="#09136e"/>
            <rect id="Rectángulo_462652" data-name="Rectángulo 462652" width="2.3" height="2.245" transform="translate(284.179 171.999)" fill="#09136e"/>
            <rect id="Rectángulo_462653" data-name="Rectángulo 462653" width="2.3" height="2.245" transform="translate(289.138 171.999)" fill="#d42190"/>
            <rect id="Rectángulo_462654" data-name="Rectángulo 462654" width="2.3" height="2.245" transform="translate(294.099 171.999)" fill="#ffc655"/>
            <path id="Trazado_1279168" data-name="Trazado 1279168" d="M379.69,253.764H330.252a1.814,1.814,0,0,0-1.835,1.791v13.467a1.814,1.814,0,0,0,1.835,1.791H379.69a1.814,1.814,0,0,0,1.835-1.791V255.555a1.814,1.814,0,0,0-1.835-1.791" transform="translate(-80.9 -67.067)" fill="#9ed1ff"/>
            <path id="Trazado_1279169" data-name="Trazado 1279169" d="M386.1,264.245H362.028a1.691,1.691,0,0,1-1.711-1.67V258.21a1.691,1.691,0,0,1,1.711-1.67H386.1a1.691,1.691,0,0,1,1.711,1.67v4.365a1.691,1.691,0,0,1-1.711,1.67" transform="translate(-88.758 -67.801)" fill="#fff"/>
            <path id="Trazado_1279170" data-name="Trazado 1279170" d="M349.873,264.245H332.889a1.69,1.69,0,0,1-1.711-1.67V258.21a1.69,1.69,0,0,1,1.711-1.67h16.985a1.691,1.691,0,0,1,1.711,1.67v4.365a1.691,1.691,0,0,1-1.711,1.67" transform="translate(-81.58 -67.801)" fill="#fff"/>
            <path id="Trazado_1279171" data-name="Trazado 1279171" d="M373.281,270.483h-9.195a.92.92,0,1,0,0,1.839h9.195a.92.92,0,1,0,0-1.839" transform="translate(-89.454 -71.486)" fill="#09136e"/>
            <path id="Trazado_1279172" data-name="Trazado 1279172" d="M392,270.483h-9.2a.92.92,0,1,0,0,1.839H392a.92.92,0,1,0,0-1.839" transform="translate(-94.066 -71.486)" fill="#09136e"/>
            <rect id="Rectángulo_462655" data-name="Rectángulo 462655" width="2.3" height="2.245" transform="translate(284.179 191.469)" fill="#09136e"/>
            <rect id="Rectángulo_462656" data-name="Rectángulo 462656" width="2.3" height="2.245" transform="translate(289.138 191.469)" fill="#d42190"/>
            <rect id="Rectángulo_462657" data-name="Rectángulo 462657" width="2.3" height="2.245" transform="translate(294.099 191.469)" fill="#ffc655"/>
            <path id="Trazado_1279173" data-name="Trazado 1279173" d="M379.69,280.229H330.252a1.814,1.814,0,0,0-1.835,1.791v13.467a1.814,1.814,0,0,0,1.835,1.791H379.69a1.814,1.814,0,0,0,1.835-1.791V282.02a1.814,1.814,0,0,0-1.835-1.791" transform="translate(-80.9 -74.062)" fill="#9ed1ff"/>
            <path id="Trazado_1279174" data-name="Trazado 1279174" d="M386.1,290.71H362.028a1.691,1.691,0,0,1-1.711-1.67v-4.365a1.691,1.691,0,0,1,1.711-1.67H386.1a1.691,1.691,0,0,1,1.711,1.67v4.365a1.691,1.691,0,0,1-1.711,1.67" transform="translate(-88.758 -74.795)" fill="#fff"/>
            <path id="Trazado_1279175" data-name="Trazado 1279175" d="M349.873,290.71H332.889a1.691,1.691,0,0,1-1.711-1.67v-4.365a1.69,1.69,0,0,1,1.711-1.67h16.985a1.691,1.691,0,0,1,1.711,1.67v4.365a1.691,1.691,0,0,1-1.711,1.67" transform="translate(-81.58 -74.795)" fill="#fff"/>
            <path id="Trazado_1279176" data-name="Trazado 1279176" d="M373.281,296.947h-9.195a.92.92,0,1,0,0,1.839h9.195a.92.92,0,1,0,0-1.839" transform="translate(-89.454 -78.48)" fill="#09136e"/>
            <path id="Trazado_1279177" data-name="Trazado 1279177" d="M392,296.947h-9.2a.92.92,0,1,0,0,1.839H392a.92.92,0,1,0,0-1.839" transform="translate(-94.066 -78.48)" fill="#09136e"/>
            <rect id="Rectángulo_462658" data-name="Rectángulo 462658" width="2.3" height="2.245" transform="translate(284.179 210.939)" fill="#09136e"/>
            <rect id="Rectángulo_462659" data-name="Rectángulo 462659" width="2.3" height="2.245" transform="translate(289.138 210.939)" fill="#d42190"/>
            <rect id="Rectángulo_462660" data-name="Rectángulo 462660" width="2.3" height="2.245" transform="translate(294.099 210.939)" fill="#ffc655"/>
            <path id="Trazado_1279178" data-name="Trazado 1279178" d="M37.912,77.5a7.552,7.552,0,0,0-2.368-5.48c-2.379-2.586-8.905-4.444-16.588-4.444S4.747,69.43,2.368,72.016A7.549,7.549,0,0,0,0,77.5V94.809a7.479,7.479,0,0,0,.984,3.712c1.28,2.752,4.565,5.763,12.313,12.428a11.31,11.31,0,0,0,3.785,2.125,6.962,6.962,0,0,0,3.746,0,11.31,11.31,0,0,0,3.785-2.125c7.748-6.665,11.033-9.676,12.313-12.428a7.479,7.479,0,0,0,.984-3.712Z" transform="translate(0 -17.859)" fill="#69d7e5"/>
            <path id="Trazado_1279179" data-name="Trazado 1279179" d="M19.685,111.072h-.178a5.825,5.825,0,0,1-1.637-.238,10.144,10.144,0,0,1-3.439-1.931C7.5,102.945,4.646,100.427,3.5,97.972a6.86,6.86,0,0,1-.892-3.381V79.312a6.881,6.881,0,0,1,2.168-5.018C6.972,71.91,12.932,70.3,19.6,70.3s12.628,1.61,14.832,4.006a6.871,6.871,0,0,1,2.156,5.006v15.28a6.893,6.893,0,0,1-.9,3.4c-1.134,2.437-3.991,4.955-10.922,10.916a10.149,10.149,0,0,1-3.436,1.928,5.829,5.829,0,0,1-1.644.238m-.09-.507a5.288,5.288,0,0,0,1.582-.216,9.788,9.788,0,0,0,3.241-1.82c6.875-5.913,9.707-8.405,10.806-10.766a6.421,6.421,0,0,0,.846-3.171V79.312a6.384,6.384,0,0,0-2.012-4.656c-2.125-2.307-7.93-3.85-14.458-3.85S7.265,72.349,5.153,74.644A6.4,6.4,0,0,0,3.13,79.312v15.28a6.391,6.391,0,0,0,.836,3.153c1.108,2.379,3.94,4.871,10.812,10.781a9.79,9.79,0,0,0,3.245,1.823,5.2,5.2,0,0,0,1.573.216" transform="translate(-0.643 -18.58)" fill="#09136e"/>
            <path id="Trazado_1279180" data-name="Trazado 1279180" d="M29.927,82.939a6.917,6.917,0,0,0-3.155-5.883l-.012-.008q-.276-.181-.568-.338c-.02-.01-.042-.019-.063-.03-.18-.093-.363-.182-.552-.26-.04-.016-.081-.029-.121-.046-.172-.068-.345-.132-.524-.187-.062-.019-.127-.034-.19-.051-.159-.045-.318-.088-.482-.121-.086-.018-.176-.029-.262-.043-.145-.024-.288-.05-.435-.065-.109-.012-.222-.015-.332-.021s-.217-.02-.328-.021l-.06,0-.059,0c-.11,0-.216.011-.325.016s-.226.007-.337.016c-.145.013-.287.036-.43.058-.09.013-.18.023-.269.04-.162.031-.32.071-.479.113-.066.018-.132.031-.2.049-.178.052-.351.114-.523.179-.041.015-.084.028-.125.045-.19.075-.374.16-.554.25l-.066.031c-.2.1-.386.21-.571.327l-.016.01a6.924,6.924,0,0,0-3.248,5.834c0,.021.005.039.006.059L15.6,85.9c0,.035-.055,3.515-.05,3.664a1.179,1.179,0,0,0,1.171,1.122h.062A1.176,1.176,0,0,0,17.935,89.5c0-.233.046-3.294.05-3.565l.051-3.183a4.65,4.65,0,0,1,2.971-4.229l.016-.006q.2-.079.414-.141l.077-.019c.121-.033.245-.063.37-.087.047-.01.1-.014.145-.022.1-.016.21-.032.317-.042.069-.007.14-.007.211-.011.088,0,.176-.01.266-.009s.176.007.265.013c.071,0,.142.007.213.013.106.012.21.029.314.047.05.009.1.015.148.024.124.026.245.057.366.092.026.008.054.013.079.021.14.043.277.092.412.147l.016.006a4.649,4.649,0,0,1,2.9,4.274v3.183c0,.271,0,3.333-.008,3.565a1.175,1.175,0,0,0,1.13,1.2h.062a1.179,1.179,0,0,0,1.189-1.1c.008-.148.01-3.629.01-3.664V83c0-.02.007-.039.007-.059" transform="translate(-3.831 -20.05)" fill="#09136e"/>
            <path id="Trazado_1279181" data-name="Trazado 1279181" d="M27.875,89.342H16.437A3.4,3.4,0,0,0,12.992,92.7v9.231a3.4,3.4,0,0,0,3.445,3.362H27.875a3.4,3.4,0,0,0,3.445-3.362V92.7a3.4,3.4,0,0,0-3.445-3.363" transform="translate(-3.2 -23.612)" fill="#fff"/>
            <path id="Trazado_1279182" data-name="Trazado 1279182" d="M26.633,97.439a2.2,2.2,0,0,0-4.4,0,2.134,2.134,0,0,0,1.061,1.835v2.837a1.139,1.139,0,0,0,2.277,0V99.273a2.133,2.133,0,0,0,1.062-1.835" transform="translate(-5.477 -25.184)" fill="#09136e"/>
            <path id="Trazado_1279183" data-name="Trazado 1279183" d="M276.707,230.352a46.8,46.8,0,0,0,2.544,9.959,23.044,23.044,0,0,0,2.341,4.429,21.824,21.824,0,0,0,3.219,3.626c2.085,1.929,4.476,3.7,6.007,6.112a8.724,8.724,0,0,1,1.36,3.941,15.878,15.878,0,0,1-.78,5.488c-1.06,3.857-2.578,8.257-.317,12,.185.306.673.029.488-.278-2.073-3.435-.767-7.531.234-11.077a19.472,19.472,0,0,0,.971-5.491,9.17,9.17,0,0,0-.962-3.973c-1.227-2.462-3.438-4.288-5.473-6.1a30.234,30.234,0,0,1-3.335-3.3,20.392,20.392,0,0,1-2.685-4.326,42.556,42.556,0,0,1-3.067-11.161c-.058-.35-.6-.2-.545.146" transform="translate(-68.161 -60.788)" fill="#11112b"/>
            <path id="Trazado_1279184" data-name="Trazado 1279184" d="M270.187,239.7c2.14,5.979,5.338,9.28,9.18,14.121,2.978,3.752,4.107,8.654,4.059,13.4s-1.18,9.412-2.318,14.026c.212-1.032-24.472-11.409-26.994-12.914a81.152,81.152,0,0,0-7.825-4.516c-5.539-2.529-7.153-2.938-6.7-9.184.3-4.11.623-8.219,1.063-12.317.393-3.67.352-8.255,1.914-11.663,1.119-2.442,3.874-1.771,6.165-2.075,2.009-.266,4-.366,5.989-.774a41.057,41.057,0,0,1,5.857-1.008,15.848,15.848,0,0,1,6.093.979c1.846.656,2.368,2.189,2.572,4.121.164,1.554.035,3.127.208,4.68a13.782,13.782,0,0,0,.739,3.122" transform="translate(-59 -59.935)" fill="#11112b"/>
            <path id="Trazado_1279185" data-name="Trazado 1279185" d="M230.625,314.867c1.633-4.675,2.754-9.483,2.338-14.31-.425-4.93.236-10.293.94-15.181.343-2.387.5-4.794.653-7.2a27.458,27.458,0,0,1,.265-3.611c.213-1.042.69-2.057.935-3.1-2.768,2.013-6.285,2.242-8.371,5.21a20.537,20.537,0,0,0-2.174,4.481c-2.44,6.3-4.826,12.622-6.994,19.017-2.9,8.566-4.374,17.511-6.21,26.354,1.827.369,4.246-.007,6.151.052,2.345.072,4.691.138,7.035.249a1,1,0,0,0,.454-.049.954.954,0,0,0,.421-.564c1.479-3.645,3.2-7.45,4.557-11.346" transform="translate(-52.224 -71.745)" fill="#ffb851"/>
            <path id="Trazado_1279186" data-name="Trazado 1279186" d="M273.321,267.662c-5.255,3.278-10.9,7.367-14.725,12.169-3.4,4.279-6.568,8.78-10.522,12.588a2.444,2.444,0,0,1-1.005-1.78,91.621,91.621,0,0,1-1.77-11.986c-.114-1.315-.6-2.473-.784-3.756a20.679,20.679,0,0,1,.435-5.4,4.434,4.434,0,0,1,.564-1.923c.583-.884,1.7-1.276,2.433-2.035a3.723,3.723,0,0,0,.858-1.479,9.861,9.861,0,0,0,.308-3.147c-.027-1.381-.047-2.768-.074-4.148,0-.131-.007-.255-.014-.373-.06-.995-.207-1.571.959-1.839a6.694,6.694,0,0,1,1.146-.151c1.307-.065,2.674.151,3.948.118a11.74,11.74,0,0,0,3.686-.386,38.271,38.271,0,0,1,3.874-.87,19.244,19.244,0,0,1-.081,5.149,10.479,10.479,0,0,0,.215,3.592,3.526,3.526,0,0,0,.61,1.321,4.088,4.088,0,0,0,1.112.87c1.615.968,3.431,1.321,5.074,2.153.7.36,2.929,1.831,3.753,1.315" transform="translate(-60.214 -66.934)" fill="#ffc19d"/>
            <path id="Trazado_1279187" data-name="Trazado 1279187" d="M274.727,274.417a4.765,4.765,0,0,0-.336-.482c-2.972-3.76-8.854-4.339-13.158-6.018a.551.551,0,0,0-.292-.056.543.543,0,0,0-.3.23c-2.575,3.2-4.8,6.7-7.075,10.1a114.514,114.514,0,0,0-6.574,11.164c-2.464-6.489-2.48-13.609-1.92-20.506-3.636,2.472-7.586,5.919-8.671,10.319-.58,2.351-.989,4.737-1.357,7.126-.939,6.079-1.607,12.194-2.268,18.308q-.565,5.23-1.122,10.46c-.375,3.512-1.136,7.222-1.092,10.74a69.26,69.26,0,0,1,7.248.9c2.9.713,5.888.1,8.841.091,2.137-.008,24.814-.01,24.876.854-.049-.68-.095-1.361-.142-2.042.332,0,.663-.008,1-.009a1.384,1.384,0,0,1,.325.039c.017-1.059.054-2.12.1-3.18.061-1.327.139-2.654.216-3.977q.072-1.232.145-2.462l1.318-22.383.659-11.192c.179-2.6,1-5.7-.416-8.029" transform="translate(-56.794 -70.792)" fill="#ffb851"/>
            <path id="Trazado_1279188" data-name="Trazado 1279188" d="M263.983,258.411a29.89,29.89,0,0,1-3.774,4.22,11.37,11.37,0,0,1-3.673,2.61,6.454,6.454,0,0,1-6.307-1.185,9.856,9.856,0,0,0,.308-3.147c-.027-1.38-.047-2.768-.074-4.148,0-.131-.007-.255-.014-.373a10.688,10.688,0,0,1,2.105-1.989c1.307-.065,2.674.15,3.948.118a11.762,11.762,0,0,0,3.686-.386,38.267,38.267,0,0,1,3.874-.87,19.244,19.244,0,0,1-.081,5.149" transform="translate(-61.64 -66.934)" fill="#e89c77"/>
            <path id="Trazado_1279189" data-name="Trazado 1279189" d="M279.287,281.957c-.08-2.261.157-4.817,1.733-6.605,2.029-2.3,4.477-2.053,6.071.531,5.744,9.312,8.48,20.049,11.141,30.6,1.394,5.53,3.419,12.315-.815,17.2a8.921,8.921,0,0,1-8.276,2.81,1.52,1.52,0,0,1-.774-.324,1.615,1.615,0,0,1-.375-1c-.146-1.141-.289-2.283-.5-3.415a7.638,7.638,0,0,0-.353-1.641,10.537,10.537,0,0,0-.67-1.042,21.891,21.891,0,0,1-2.329-5.794q-.189-.731-.344-1.468a30.525,30.525,0,0,1-.872-5.313,34.459,34.459,0,0,0-.791-4.962q-.958-5.393-1.644-10.827c-.292-2.309-1.1-5.623-1.208-8.754" transform="translate(-68.794 -72.355)" fill="#ffb851"/>
            <path id="Trazado_1279190" data-name="Trazado 1279190" d="M263.145,221.575a18,18,0,0,0-7.847-2.905,12.854,12.854,0,0,0-6.444.394c-6.9,2.629-5.054,10.7-4.726,16.321.16,2.739-.139,5.448.619,8.132a15.737,15.737,0,0,0,6.517,8.742,5.67,5.67,0,0,0,6.939-.979c1.492-1.446,3.116-2.774,4.466-4.352a10.882,10.882,0,0,0,2.029-5.171c.808-4.035.639-8.17.882-12.255.056-.926.113-1.853.191-2.778a12.8,12.8,0,0,0,.274-1.838c-.1-1.307-1.9-2.6-2.9-3.311" transform="translate(-60.021 -57.733)" fill="#ffc19d"/>
            <path id="Trazado_1279191" data-name="Trazado 1279191" d="M268.131,222.794c-.022-.049-.043-.1-.064-.146-1.32-2.986-5.013-7.378-8.872-6.486a4.19,4.19,0,0,0-3.369-1.75c-3.938-.425-9.324,1.379-11.126,5.075-.969,1.99-1.036,4.239-1.978,6.187-1.123,2.324-1.011,4.673-.874,7.161a9.377,9.377,0,0,0,.106,2.3,18.1,18.1,0,0,0,1.651,3.46c.091-1.79-.421-3.762.591-5.259a7.38,7.38,0,0,1,2.244-1.833,5.843,5.843,0,0,0,2.514-2.732c.326-.934.248-2.033.874-2.809a2.689,2.689,0,0,1,2.663-.8c1.411.152,2.073-.447,3.1-1.24.464-.358,1.056-.6,1.545-.936.752,2.03,2.524,3.53,3.244,5.444.592,1.573.243,3.64,1.839,4.725a12.966,12.966,0,0,0,6.4,1.991.62.62,0,0,0,.393-.051.572.572,0,0,0,.2-.3,9.829,9.829,0,0,0,.421-3.395,22.1,22.1,0,0,0-1.5-8.6" transform="translate(-59.555 -56.65)" fill="#11112b"/>
            <path id="Trazado_1279192" data-name="Trazado 1279192" d="M255.591,247.839a3.71,3.71,0,0,0,.74-.2,3.093,3.093,0,0,1-2.054-2.131,7.211,7.211,0,0,1,.447-3.386q-.728,1.125-1.364,2.3c-.341.63-.977,1.423-.869,2.173a1.607,1.607,0,0,0,1.248,1.2,4.727,4.727,0,0,0,1.852.041" transform="translate(-62.194 -63.991)" fill="#e89c77"/>
            <path id="Trazado_1279193" data-name="Trazado 1279193" d="M257.833,235.628c-.58-.966,1.012-1.24,1.625-1.225a11,11,0,0,1,2.483.351,4.879,4.879,0,0,1,1.908.645.729.729,0,0,1,.35.525.2.2,0,0,1-.08.182.265.265,0,0,1-.14.023c-1.718-.035-3.442-.013-5.146-.211-.266-.031-.753-.018-.945-.219a.426.426,0,0,1-.054-.071" transform="translate(-63.482 -61.95)" fill="#0a0a16"/>
            <path id="Trazado_1279194" data-name="Trazado 1279194" d="M250.757,235.628c.58-.966-1.012-1.24-1.625-1.225a11,11,0,0,0-2.483.351,4.88,4.88,0,0,0-1.908.645.729.729,0,0,0-.35.525.2.2,0,0,0,.08.182.266.266,0,0,0,.14.023c1.718-.035,3.442-.013,5.146-.211.266-.031.753-.018.945-.219a.426.426,0,0,0,.054-.071" transform="translate(-60.202 -61.95)" fill="#0a0a16"/>
            <path id="Trazado_1279195" data-name="Trazado 1279195" d="M259.815,239.358a1.536,1.536,0,0,1,2.165-.469,1.6,1.6,0,0,1,.6.853,2.607,2.607,0,0,1-.387,2.348,1.5,1.5,0,0,1-1.189.7,1.442,1.442,0,0,1-1.055-.632,2.612,2.612,0,0,1-.13-2.794" transform="translate(-63.917 -63.067)" fill="#0a0a16"/>
            <path id="Trazado_1279196" data-name="Trazado 1279196" d="M249.419,239.243a1.535,1.535,0,0,0-2.153-.515,1.606,1.606,0,0,0-.615.839,2.61,2.61,0,0,0,.334,2.357,1.5,1.5,0,0,0,1.173.721,1.447,1.447,0,0,0,1.069-.609,2.614,2.614,0,0,0,.193-2.792" transform="translate(-60.723 -63.03)" fill="#0a0a16"/>
            <path id="Trazado_1279197" data-name="Trazado 1279197" d="M275.34,238.617c.031.049.061.1.089.151a5.1,5.1,0,0,1,.211,3.865,9.482,9.482,0,0,1-1.988,3.321c-.958,1.105-2.636,1.719-2.816-.208a14.84,14.84,0,0,1,.34-3.932c.33-1.8,1.119-3.666,2.9-3.8a1.341,1.341,0,0,1,.917.214,1.429,1.429,0,0,1,.346.391" transform="translate(-66.708 -62.903)" fill="#ffc19d"/>
            <path id="Trazado_1279198" data-name="Trazado 1279198" d="M273.957,241.482c.208-.025.286.389.317.533a2.036,2.036,0,0,1-.04.9,5.5,5.5,0,0,1-.973,1.793.384.384,0,0,0,.142.528.411.411,0,0,0,.542-.139,5.351,5.351,0,0,0,1.128-2.4,2.468,2.468,0,0,0-.138-1.229c-.158-.391-.488-.825-.977-.767a.4.4,0,0,0-.4.386.393.393,0,0,0,.4.386" transform="translate(-67.299 -63.615)" fill="#e89c77"/>
            <path id="Trazado_1279199" data-name="Trazado 1279199" d="M274.717,243.663a1.083,1.083,0,0,0-.393-.34,1.3,1.3,0,0,0-.53-.129,1.55,1.55,0,0,0-.94.324.432.432,0,0,0-.182.231.386.386,0,0,0,.04.3.4.4,0,0,0,.237.177.389.389,0,0,0,.3-.039,1.588,1.588,0,0,1,.327-.191l-.094.039a1.17,1.17,0,0,1,.278-.075l-.1.014a.978.978,0,0,1,.222,0l-.106-.014a.915.915,0,0,1,.207.054l-.095-.039a.957.957,0,0,1,.143.078c.038.024-.066-.057-.035-.026l.028.026c.025.023.084.1.008,0a.43.43,0,0,0,.237.177.412.412,0,0,0,.305-.039.393.393,0,0,0,.182-.23.369.369,0,0,0-.04-.3" transform="translate(-67.165 -64.273)" fill="#e89c77"/>
            <path id="Trazado_1279200" data-name="Trazado 1279200" d="M221.783,343.159c0,1.867,4.269,1.332,9.534,1.332s9.534.534,9.534-1.332-4.269-5.427-9.534-5.427-9.534,3.56-9.534,5.427" transform="translate(-54.632 -89.259)" fill="#542fd0"/>
            <path id="Trazado_1279201" data-name="Trazado 1279201" d="M218,341.965c-.316.74.626.985,1.33.976a20.626,20.626,0,0,0,6.131-1.577,11.681,11.681,0,0,1,6.528-.758c1.738.436,2.933,1.825,4.667,2.126a30.474,30.474,0,0,0,6.27.4,1.7,1.7,0,0,0,1.4-.513,1.3,1.3,0,0,0,.06-1.12c-.721-2.273-.853-4.65-1.724-6.909a.906.906,0,0,0-.359-.512.962.962,0,0,0-.5-.069c-2.674.1-5.308.4-8,.3a17.964,17.964,0,0,0-4.148.1c-2.123.418-4.131,1.958-5.907,3.133q-1.507,1-2.947,2.084a12.854,12.854,0,0,0-2.676,2.106,1.34,1.34,0,0,0-.132.234" transform="translate(-53.684 -88.274)" fill="#ffc19d"/>
            <path id="Trazado_1279202" data-name="Trazado 1279202" d="M249.169,331.636c1.309-.236,2.759-.3,4-.482q2.765-.416,5.527-.849c3.682-.574,7.364-1.154,11.052-1.692,3.417-.5,6.837-.962,10.265-1.348a2.912,2.912,0,0,1,1.444.082,2.478,2.478,0,0,1,1.12,1.3c1.584,3.119,3.55,6.131,4.714,9.407a2.24,2.24,0,0,1,.171,1.325c-.271.983-1.605,1.3-2.71,1.433q-5.367.643-10.762,1.059-8.428.649-16.892.741-2.114.022-4.228.01a16.86,16.86,0,0,1-2.9,0c-.367-3.654-.718-7.309-.8-10.98" transform="translate(-61.378 -86.479)" fill="#ffb851"/>
            <path id="Trazado_1279203" data-name="Trazado 1279203" d="M243.6,221.62c0-1.112.925-2.173,1.559-3.02a14,14,0,0,1,1.132-1.33c.262-.272,1.046-1.453,1.4-1.5-2.81.391-4.776,2.468-6.6,4.4a21.668,21.668,0,0,0-4.484,7.141,13.755,13.755,0,0,0-.611,6.117c.19,2.513,1.433,4.8.978,7.382-.4,2.251-1.932,4.12-3.065,6.118-1.862,3.284-2.632,7.479-.745,10.75.99,1.714,2.658,3.11,3.075,5.035.5,2.291-.938,4.578-.9,6.92a5.882,5.882,0,0,0,4.681,5.457c-.015,0,1.237-2.031,1.41-2.223a10.525,10.525,0,0,1,2.069-1.741c1.507-.975,3.323-1.589,4.931-2.457a2.355,2.355,0,0,0,.878-.672,2.067,2.067,0,0,0,.217-1.371,11.346,11.346,0,0,0-1.525-4.672,39.549,39.549,0,0,1-2.246-3.584c-.849-1.868-.856-3.978-1.02-6.016-.415-5.132-4.288-9.087-4.1-14.473.056-1.555.684-2.908.788-4.461a39.285,39.285,0,0,1,2.165-11.8" transform="translate(-57.168 -57.025)" fill="#11112b"/>
            <path id="Trazado_1279204" data-name="Trazado 1279204" d="M254.352,256.683c-.055-.021-.11-.043-.164-.068-1.2-.537-2.641-2.2-2.443-3.583.056-.388.3-.171.692-.166.454.005.91-.015,1.363-.033a33.983,33.983,0,0,0,5.482-.669.5.5,0,0,1,.373.02c.158.1.142.328.1.508a5.158,5.158,0,0,1-1.808,3.336,3.854,3.854,0,0,1-3.595.656" transform="translate(-62.008 -66.637)" fill="#e89c77"/>
            <path id="Trazado_1279205" data-name="Trazado 1279205" d="M278.074,283.842c-1.64,9.092-.112,18.332,2.205,27.176.672,2.565,1.412,5.112,2.172,7.652.1.341.647.2.545-.146-2.6-8.717-5.071-17.659-5.056-26.806a43.947,43.947,0,0,1,.678-7.729c.063-.347-.482-.5-.545-.146" transform="translate(-68.33 -74.964)" fill="#09136e"/>
            <path id="Trazado_1279206" data-name="Trazado 1279206" d="M249.244,333.491a203.137,203.137,0,0,1,23.955-2.646,29.664,29.664,0,0,1,6.745.2c.356.064.508-.468.151-.532a26.723,26.723,0,0,0-5.888-.265c-2.034.087-4.066.215-6.1.369q-6.092.461-12.148,1.288-3.444.469-6.868,1.056c-.358.061-.207.593.15.532" transform="translate(-61.31 -87.268)" fill="#09136e"/>
            <path id="Trazado_1279207" data-name="Trazado 1279207" d="M249.46,283.927q.925,3.124,1.851,6.248a.287.287,0,0,0,.545,0,60.583,60.583,0,0,1,10.25-17.7q1.819-2.208,3.821-4.261a.279.279,0,0,0-.4-.39,64.864,64.864,0,0,0-11.97,16.883,56.949,56.949,0,0,0-2.247,5.319h.545L250,283.78c-.1-.341-.647-.2-.544.146" transform="translate(-61.447 -70.761)" fill="#09136e"/>
            <path id="Trazado_1279208" data-name="Trazado 1279208" d="M282.039,275.892q.1-.143.2-.284c.035-.046.069-.093.1-.138.017-.023.035-.046.053-.069-.006.007-.036.045,0,.005l.034-.043q.223-.274.47-.528t.5-.48c.088-.077.177-.152.268-.224.045-.037.091-.073.137-.108l.035-.026c-.008.005-.046.035,0,0l.079-.058q.323-.235.668-.438a.276.276,0,0,0,.1-.377.291.291,0,0,0-.387-.1,8.516,8.516,0,0,0-2.23,1.9q-.276.333-.519.69a.275.275,0,0,0,.1.378.293.293,0,0,0,.387-.1" transform="translate(-69.346 -72.148)" fill="#09136e"/>
            <path id="Trazado_1279209" data-name="Trazado 1279209" d="M154.441,315.1H219.11a1.559,1.559,0,0,0,1.577-1.541l-6.368-44.642a1.56,1.56,0,0,0-1.578-1.541H148.072a1.56,1.56,0,0,0-1.578,1.541l6.368,44.642a1.56,1.56,0,0,0,1.578,1.541" transform="translate(-36.086 -70.664)" fill="#6cb9ff"/>
            <path id="Trazado_1279210" data-name="Trazado 1279210" d="M150.851,315.1h64.668a1.559,1.559,0,0,0,1.578-1.541l-6.368-44.642a1.56,1.56,0,0,0-1.578-1.541H144.482a1.56,1.56,0,0,0-1.578,1.541l6.368,44.642a1.56,1.56,0,0,0,1.578,1.541" transform="translate(-35.202 -70.664)" fill="#9ed1ff"/>
            <path id="Trazado_1279211" data-name="Trazado 1279211" d="M183.2,320.7h11.909v19.24H177.223Z" transform="translate(-43.656 -84.758)" fill="#6cb9ff"/>
            <path id="Trazado_1279212" data-name="Trazado 1279212" d="M175.625,346.832h19.759a1.07,1.07,0,0,0,1.082-1.056v-.088a1.07,1.07,0,0,0-1.082-1.056H175.625a1.07,1.07,0,0,0-1.082,1.056v.088a1.07,1.07,0,0,0,1.082,1.056" transform="translate(-42.996 -91.082)" fill="#cfe8ff"/>
            <path id="Trazado_1279213" data-name="Trazado 1279213" d="M275.682,348.251H125.371a.982.982,0,1,1,0-1.963H275.682a.982.982,0,1,1,0,1.963" transform="translate(-30.635 -91.52)" fill="#09136e"/>
            <g id="Grupo_1213080" data-name="Grupo 1213080" transform="translate(178.833 159.676)" opacity="0.15">
              <g id="Grupo_1213079" data-name="Grupo 1213079">
                <g id="Grupo_1213078" data-name="Grupo 1213078" clip-path="url(#clip-path-3)">
                  <path id="Trazado_1279214" data-name="Trazado 1279214" d="M279.008,250.281c.468,3.031,2.406,5.544,4.417,7.794,2.205,2.468,4.513,4.841,5.666,7.982a15.02,15.02,0,0,1,.915,5.365.283.283,0,0,0,.565,0,15.538,15.538,0,0,0-2.7-8.942c-1.828-2.674-4.351-4.808-6.2-7.463a11.725,11.725,0,0,1-2.111-4.883c-.054-.35-.6-.2-.545.146" transform="translate(-247.561 -225.731)" fill="#fff"/>
                  <path id="Trazado_1279215" data-name="Trazado 1279215" d="M274.43,256.437A23.265,23.265,0,0,0,278.2,264.4a24,24,0,0,0,1.611,1.966c.242.266.641-.126.4-.391a22.623,22.623,0,0,1-5.238-9.686.283.283,0,0,0-.545.146" transform="translate(-246.432 -227.359)" fill="#fff"/>
                  <path id="Trazado_1279216" data-name="Trazado 1279216" d="M241.744,230c-2.85,3.608-2.28,8.429-1.989,12.674a20.227,20.227,0,0,1-.605,7.578c-.7,2.237-1.725,4.368-2.016,6.713a13.581,13.581,0,0,0,1.219,7.434c.152.322.638.043.488-.278a13.079,13.079,0,0,1-1.192-6.677c.2-2.356,1.21-4.5,1.943-6.724a18.9,18.9,0,0,0,.794-6.977c-.115-2.279-.413-4.555-.307-6.841a11.317,11.317,0,0,1,2.153-6.624c.222-.281-.269-.556-.488-.279" transform="translate(-237.223 -220.434)" fill="#fff"/>
                  <path id="Trazado_1279217" data-name="Trazado 1279217" d="M247.672,278.795a15.4,15.4,0,0,1-3.017-11.96,14.913,14.913,0,0,1,1.016-3.417c.141-.327-.405-.469-.545-.146a15.849,15.849,0,0,0,.124,12.576,15.168,15.168,0,0,0,1.933,3.227c.218.278.709,0,.488-.279" transform="translate(-238.91 -229.208)" fill="#fff"/>
                  <path id="Trazado_1279218" data-name="Trazado 1279218" d="M242.856,237.683c-.057-1.614-.118-3.409.8-4.831a13.087,13.087,0,0,1,1.833-1.876,6.678,6.678,0,0,0,1.29-2.053,15.885,15.885,0,0,1,1.063-2.268,4.737,4.737,0,0,1,1.855-1.671,12.352,12.352,0,0,1,2.694-.761,6.5,6.5,0,0,0,2.279-1.024,5.883,5.883,0,0,0,.983-.885c.266-.3.478-.65.767-.936a2.538,2.538,0,0,1,2.039-.569c.364.015.363-.537,0-.552a3.549,3.549,0,0,0-1.9.316c-.653.368-.988,1.036-1.492,1.555a5.578,5.578,0,0,1-2.377,1.442c-.935.284-1.923.374-2.834.739a6.063,6.063,0,0,0-3.268,3.629,8.718,8.718,0,0,1-1.3,2.44c-.58.668-1.338,1.168-1.882,1.869-1.2,1.541-1.171,3.6-1.106,5.438.012.354.578.356.565,0" transform="translate(-238.511 -217.885)" fill="#fff"/>
                  <path id="Trazado_1279219" data-name="Trazado 1279219" d="M273.179,232.928a12.59,12.59,0,0,1-5.138-6.394,12.242,12.242,0,0,1-.573-2.306.285.285,0,0,0-.347-.193.282.282,0,0,0-.2.339,12.982,12.982,0,0,0,4,7.521,13.132,13.132,0,0,0,1.969,1.509.278.278,0,0,0,.286-.477" transform="translate(-244.584 -218.884)" fill="#fff"/>
                  <path id="Trazado_1279220" data-name="Trazado 1279220" d="M267.778,219.318a10.27,10.27,0,0,1,1.592,1.935c.424.88.7,1.825,1.06,2.727a32.469,32.469,0,0,0,2.455,4.907,21.766,21.766,0,0,0,1.8,2.523c.228.276.626-.116.4-.39a24.269,24.269,0,0,1-2.969-4.681c-.418-.839-.82-1.689-1.165-2.558s-.638-1.788-1.027-2.657a10.2,10.2,0,0,0-1.749-2.2c-.228-.276-.626.116-.4.39" transform="translate(-244.779 -217.512)" fill="#fff"/>
                  <path id="Trazado_1279221" data-name="Trazado 1279221" d="M243.457,223.953c1.745-2.683,4.654-4.321,7.573-5.549.914-.385,1.843-.736,2.771-1.087.336-.127.19-.661-.15-.532-3.19,1.21-6.483,2.472-8.975,4.845a11.517,11.517,0,0,0-1.706,2.044c-.2.3.294.578.488.279" transform="translate(-238.673 -216.965)" fill="#fff"/>
                </g>
              </g>
            </g>
            <path id="Trazado_1279222" data-name="Trazado 1279222" d="M250.319,261.187c1.4,1.491,3.084,2.817,5.255,2.813,2.25,0,4.013-1.471,5.607-2.859a27.37,27.37,0,0,0,2.677-2.687c.234-.269-.164-.661-.4-.391a26.5,26.5,0,0,1-4.537,4.166,5.854,5.854,0,0,1-2.784,1.188,4.98,4.98,0,0,1-2.792-.5,9.86,9.86,0,0,1-2.626-2.126c-.246-.263-.644.128-.4.39" transform="translate(-61.643 -68.179)" fill="#d67f5c"/>
            <path id="Trazado_1279223" data-name="Trazado 1279223" d="M335.617,164.491c1.727-4.944,2.911-10.028,2.472-15.131-.449-5.213.249-10.885.993-16.054.363-2.523.525-5.069.692-7.611a28.9,28.9,0,0,1,.28-3.818c.225-1.1.731-2.175.989-3.283-2.927,2.128-6.646,2.371-8.852,5.51a21.725,21.725,0,0,0-2.3,4.739c-2.581,6.662-5.1,13.347-7.4,20.108-3.07,9.059-4.625,18.516-6.567,27.868,1.932.391,4.49-.007,6.5.055,2.48.077,4.96.146,7.438.263a1.061,1.061,0,0,0,.482-.052,1.011,1.011,0,0,0,.445-.6c1.565-3.855,3.379-7.878,4.818-12" transform="translate(-77.824 -31.343)" fill="#09136e"/>
            <path id="Trazado_1279224" data-name="Trazado 1279224" d="M374.429,118.7a20.831,20.831,0,0,0,2.176-1.958c.421-.338,1.416-.72,1.115-1.228a1.057,1.057,0,0,0-.366-.329c-.466-.288-.717-.2-1.051-.714-.444-.686-.641-1.413-1.412-1.836-.566-.31-1.251-.342-1.833-.622-1.434-.691-1.484-3.045-1.56-4.394q-.275-4.88-.549-9.761c-.57.485-.852.887-1.63.91a4.235,4.235,0,0,0-2.11.261,8.494,8.494,0,0,1-1.265.881,13.242,13.242,0,0,1-4.042.368,58.9,58.9,0,0,0-7.042.356.75.75,0,0,0-.425.158c-.4.388-.2,1.553-.112,2.038a9.849,9.849,0,0,1,.16,2.117c-.047,2.446.359,5.194-.715,7.526-.477,1.035-1.474,1.675-1.633,2.812a14.107,14.107,0,0,0,.048,4.879,6,6,0,0,0,3.714,4.557c2.329.749,4.5-.372,6.6-1.192,4.009-1.565,8.236-2.6,11.934-4.83" transform="translate(-86.696 -25.864)" fill="#e89c77"/>
            <path id="Trazado_1279225" data-name="Trazado 1279225" d="M383.907,119.529a1.2,1.2,0,0,0-.258-1.193,2.807,2.807,0,0,0-1.1-.6c-1.865-.682-3.763-1.278-5.673-1.829-.974-.282-1.952-.551-2.932-.815a6.094,6.094,0,0,1-2.3-.8c-.28-.232-.3-.7-.536-.987a15.533,15.533,0,0,0-1.252-1.212c-.274-.266-2.52-2.1-2.443-2.363-.515,1.75-2.278,3.336-3.669,4.472-.963.786-1.979,1.507-2.939,2.3a16.83,16.83,0,0,1-2.66,1.737c-.291.163-3.914,2.318-4.089,2.064-1.648-2.389-4.265-5.653-3.674-8.687-1.372,1.516-3.1,2.658-4.567,4.073-.492.473-.369.989-.68,1.529-.361.63-.864,1.17-1.191,1.821-.486.968-.587,2.033-1.154,2.957a12.252,12.252,0,0,0-1.073,3.417c-.613,2.485-1.045,5.009-1.436,7.535-.994,6.429-1.7,12.895-2.4,19.36q-.6,5.53-1.187,11.061c-.4,3.714-1.2,7.636-1.154,11.356,2.62.369,5.05.31,7.664.953,3.07.755,6.226.11,9.348.1,2.26-.008,26.24-.01,26.305.9q-.077-1.078-.15-2.159c.35,0,.7-.01,1.051-.01a1.487,1.487,0,0,1,.344.042c.019-1.121.057-2.242.108-3.364.065-1.4.147-2.806.23-4.205q.076-1.3.153-2.6L382,140.706l.7-11.835c.115-1.655.2-3.31.343-4.963.072-.844.155-1.686.251-2.527.063-.554.473-1.221.62-1.852" transform="translate(-82.657 -29)" fill="#09136e"/>
            <path id="Trazado_1279226" data-name="Trazado 1279226" d="M389.411,129.58c-.136-3.855.725-7.448,4.6-8.8a3.958,3.958,0,0,1,3.741.934c2.6,2.235,4.091,5.486,5.356,8.564,1.353,3.291,2.4,6.793,3.528,10.19a96.541,96.541,0,0,1,4.059,17.742c.671,5.122,1.62,11.185-2.116,15.491a9.436,9.436,0,0,1-8.752,2.972,1.616,1.616,0,0,1-.818-.343,1.706,1.706,0,0,1-.4-1.054c-.155-1.207-.306-2.415-.525-3.612a7.985,7.985,0,0,0-.373-1.736,11.039,11.039,0,0,0-.708-1.1,23.142,23.142,0,0,1-2.463-6.128q-.2-.771-.364-1.552a32.346,32.346,0,0,1-.922-5.618,36.3,36.3,0,0,0-.836-5.247q-1.013-5.7-1.738-11.448c-.308-2.443-1.161-5.947-1.277-9.257" transform="translate(-95.921 -31.879)" fill="#09136e"/>
            <path id="Trazado_1279227" data-name="Trazado 1279227" d="M326.269,194.407c0,1.974,4.514,1.409,10.082,1.409s10.081.565,10.081-1.409-4.514-5.738-10.081-5.738-10.082,3.764-10.082,5.738" transform="translate(-80.371 -49.863)" fill="#542fd0"/>
            <path id="Trazado_1279228" data-name="Trazado 1279228" d="M322.265,193.145c-.335.782.662,1.042,1.407,1.031,2.2-.031,4.432-.964,6.483-1.667,2.219-.761,4.624-1.372,6.9-.8,1.838.461,3.1,1.93,4.936,2.248a32.21,32.21,0,0,0,6.63.422,1.792,1.792,0,0,0,1.479-.542,1.376,1.376,0,0,0,.064-1.184c-.762-2.4-.9-4.917-1.822-7.306a.958.958,0,0,0-.381-.542,1.022,1.022,0,0,0-.524-.073c-2.828.105-5.613.427-8.458.318a18.946,18.946,0,0,0-4.386.1c-2.245.441-4.368,2.07-6.246,3.313q-1.593,1.055-3.116,2.2A13.627,13.627,0,0,0,322.4,192.9a1.447,1.447,0,0,0-.139.247" transform="translate(-79.368 -48.822)" fill="#ffc19d"/>
            <path id="Trazado_1279229" data-name="Trazado 1279229" d="M355.228,182.222c1.384-.25,2.918-.313,4.228-.51q2.925-.439,5.845-.9c3.894-.606,7.787-1.221,11.688-1.79,3.613-.527,7.23-1.016,10.854-1.424a3.068,3.068,0,0,1,1.527.086,2.625,2.625,0,0,1,1.185,1.37c1.675,3.3,3.753,6.484,4.984,9.948a2.367,2.367,0,0,1,.182,1.4c-.286,1.04-1.7,1.376-2.866,1.516q-5.675.681-11.38,1.12-8.912.686-17.862.784-2.236.024-4.471.011a17.756,17.756,0,0,1-3.07,0c-.388-3.863-.759-7.728-.843-11.61" transform="translate(-87.504 -46.924)" fill="#09136e"/>
            <path id="Trazado_1279230" data-name="Trazado 1279230" d="M359.072,124.54c-1.357,11.227-2.349,22.5-2.777,33.8q-.183,4.831-.225,9.668a.283.283,0,0,0,.565,0c.1-11.31.8-22.608,1.935-33.863q.484-4.807,1.067-9.6c.042-.352-.523-.349-.565,0" transform="translate(-87.712 -32.845)" fill="#11112b"/>
            <path id="Trazado_1279231" data-name="Trazado 1279231" d="M360.337,122.863a5.292,5.292,0,0,1,2.731,1.768,10.285,10.285,0,0,1,1.816,2.572c.109.221.184.571.506.507a.908.908,0,0,0,.274-.154c.369-.241.726-.5,1.085-.757a80.717,80.717,0,0,0,6.442-4.978c1.786-1.566,3.786-3.244,4.821-5.407.153-.319-.334-.6-.488-.278a16.439,16.439,0,0,1-4.132,4.762c-1.2,1.083-2.457,2.162-3.749,3.117q-1.379,1.02-2.776,2.019c-.418.3-.837.6-1.261.892a3.058,3.058,0,0,0-.337.225c-.051.048-.055.03-.054.037l.024-.01q.379.113.194-.127a1.586,1.586,0,0,0-.223-.436,10.839,10.839,0,0,0-1.941-2.573,5.509,5.509,0,0,0-2.782-1.71c-.356-.059-.509.472-.15.532" transform="translate(-88.712 -30.656)" fill="#11112b"/>
            <path id="Trazado_1279232" data-name="Trazado 1279232" d="M348.6,120.145a24.647,24.647,0,0,0,4.96,6.785.29.29,0,0,0,.444-.055,9.446,9.446,0,0,1,3.451-3.278c.316-.175.032-.653-.286-.476a10.029,10.029,0,0,0-3.654,3.475l.444-.056a24.181,24.181,0,0,1-4.871-6.674c-.158-.319-.646-.04-.488.279" transform="translate(-85.864 -31.642)" fill="#11112b"/>
            <path id="Trazado_1279233" data-name="Trazado 1279233" d="M389.925,126.232a46.017,46.017,0,0,0,.145,14.663c.7,4.994,1.554,9.979,2.42,14.948.483,2.775,1.023,5.541,1.694,8.28.084.346.629.2.545-.146-1.181-4.818-1.945-9.718-2.745-14.607a132.764,132.764,0,0,1-1.975-14.674,36.125,36.125,0,0,1,.461-8.317c.063-.347-.481-.5-.545-.146" transform="translate(-95.921 -33.309)" fill="#11112b"/>
            <path id="Trazado_1279234" data-name="Trazado 1279234" d="M342.876,122.889a85.284,85.284,0,0,0-5.485,17.856,171.062,171.062,0,0,0-2.53,18.737c-.309,3.528-.555,7.06-.792,10.593-.023.354.542.353.565,0,.417-6.213.863-12.428,1.624-18.611a120.736,120.736,0,0,1,3.566-18.425,75.477,75.477,0,0,1,3.54-9.87c.142-.323-.344-.6-.488-.279" transform="translate(-82.292 -32.44)" fill="#11112b"/>
            <path id="Trazado_1279235" data-name="Trazado 1279235" d="M390.143,177.352a41.018,41.018,0,0,0-7.021.477q-3.394.425-6.785.862-6.815.881-13.621,1.836-3.831.542-7.655,1.121a.276.276,0,0,0-.208.266l.017.875a.283.283,0,0,0,.565,0l-.017-.875-.207.266c9.018-1.369,18.062-2.563,27.113-3.7a45.714,45.714,0,0,1,7.819-.576c.363.017.362-.535,0-.552" transform="translate(-87.412 -46.866)" fill="#11112b"/>
            <path id="Trazado_1279236" data-name="Trazado 1279236" d="M367.9,155.209q-.158-6.692.231-13.38l-.283.276a62.223,62.223,0,0,1,9.884-.386q.584.024,1.167.059c.206.012.412.022.617.04.275.024.274.019.286.3.035.794.053,1.589.075,2.383q.068,2.451.1,4.9.035,2.758.023,5.516l.207-.266a48.04,48.04,0,0,1-12.466.255c-.361-.04-.358.511,0,.552a48.618,48.618,0,0,0,12.616-.274.278.278,0,0,0,.207-.266q.02-5.176-.121-10.351c-.023-.86-.022-1.727-.081-2.587a.674.674,0,0,0-.3-.606,2.734,2.734,0,0,0-1.094-.141q-2.608-.16-5.224-.1-2.956.07-5.9.422a.288.288,0,0,0-.283.276q-.389,6.682-.231,13.38c.008.355.574.356.565,0" transform="translate(-90.476 -37.295)" fill="#11112b"/>
            <path id="Trazado_1279237" data-name="Trazado 1279237" d="M368.293,145.842c3.916-.148,7.837-.182,11.755-.293a.276.276,0,0,0,0-.552c-3.918.11-7.839.145-11.755.293a.276.276,0,0,0,0,.552" transform="translate(-90.655 -38.321)" fill="#11112b"/>
            <path id="Trazado_1279238" data-name="Trazado 1279238" d="M261.085,166.686h64.668a1.559,1.559,0,0,0,1.578-1.541L320.963,120.5a1.56,1.56,0,0,0-1.578-1.541H254.716a1.56,1.56,0,0,0-1.578,1.541l6.368,44.642a1.56,1.56,0,0,0,1.578,1.541" transform="translate(-62.356 -31.441)" fill="#6cb9ff"/>
            <path id="Trazado_1279239" data-name="Trazado 1279239" d="M257.495,166.686h64.668a1.559,1.559,0,0,0,1.578-1.541L317.373,120.5a1.56,1.56,0,0,0-1.578-1.541H251.126a1.56,1.56,0,0,0-1.578,1.541l6.368,44.642a1.56,1.56,0,0,0,1.578,1.541" transform="translate(-61.472 -31.441)" fill="#9ed1ff"/>
            <path id="Trazado_1279240" data-name="Trazado 1279240" d="M289.841,172.292h11.909v19.24H283.867Z" transform="translate(-69.926 -45.535)" fill="#6cb9ff"/>
            <path id="Trazado_1279241" data-name="Trazado 1279241" d="M282.269,198.423h19.759a1.07,1.07,0,0,0,1.082-1.056v-.088a1.07,1.07,0,0,0-1.082-1.056H282.269a1.07,1.07,0,0,0-1.083,1.056v.088a1.07,1.07,0,0,0,1.083,1.056" transform="translate(-69.265 -51.859)" fill="#cfe8ff"/>
            <path id="Trazado_1279242" data-name="Trazado 1279242" d="M393.012,199.842H275.4a.982.982,0,1,1,0-1.963H393.012a.982.982,0,1,1,0,1.963" transform="translate(-67.592 -52.297)" fill="#09136e"/>
            <path id="Trazado_1279243" data-name="Trazado 1279243" d="M376.095,82.7a9.68,9.68,0,0,1-.5,5.118c-.987,2.782-3.691,5.116-6.027,6.926-.756.586-1.633,1.448-2.63,1.462a9.7,9.7,0,0,1-3.48-.935,20.4,20.4,0,0,1-4.107-2.134c-2.455-1.725-4.281-3.888-3.425-6.98a17.8,17.8,0,0,1,1.871-3.924,23.236,23.236,0,0,1,2.637-4.074,9.648,9.648,0,0,1,6.16-3.2,8.516,8.516,0,0,1,6.573,2.131,10.042,10.042,0,0,1,2.538,4.134,10.222,10.222,0,0,1,.39,1.478" transform="translate(-87.623 -19.798)" fill="#11112b"/>
            <path id="Trazado_1279244" data-name="Trazado 1279244" d="M367.592,65.259a18.928,18.928,0,0,0-8.437-2.71,13.457,13.457,0,0,0-6.786.742,9.207,9.207,0,0,0-4.357,4.107c-1.54,2.9-1.22,6.155-1.192,9.3a22.6,22.6,0,0,0,.506,3.7c.023.127.045.254.067.381a73.332,73.332,0,0,0,2.155,10.053,12,12,0,0,0,3.941,5.428c2.569,2.118,5.772,3.726,9.061,2.039a13.259,13.259,0,0,0,3.652-3.079q1.567-1.741,2.967-3.615a7.253,7.253,0,0,0,1.547-2.724,21.179,21.179,0,0,0,.519-3.444c.177-2.214.147-4.5.428-6.672.362-2.791-.378-5.535-.292-8.319.068-2.178-2.015-4.039-3.781-5.191" transform="translate(-85.422 -16.5)" fill="#ffc19d"/>
            <path id="Trazado_1279245" data-name="Trazado 1279245" d="M373.158,64.721a10.809,10.809,0,0,0-2.392-3.522,15.922,15.922,0,0,0-3.19-2.607,56.661,56.661,0,0,0-5.359-2.622,5.387,5.387,0,0,0-3.042-.6,2.78,2.78,0,0,0-2.214,2.746,17.624,17.624,0,0,0-3.382-2.489,6.058,6.058,0,0,0-4.1-.663,5.009,5.009,0,0,0-3.673,3.779,2.852,2.852,0,0,0,.568,2.3,5.157,5.157,0,0,0-4.382.451c-1.465.974-2.418,4.119-1.207,5.6.9,1.1,2.673,1.633,3.97,2.124,4.038,1.529,8.44,1.472,12.668.885l5.515-.767a2.3,2.3,0,0,1,2.638.984,7.048,7.048,0,0,1,1.131,3.184c.192,1.451.139,2.929.405,4.369a2.938,2.938,0,0,0,.243.8,4.574,4.574,0,0,0,.6.8,14.847,14.847,0,0,1,1.972,3.509c-.19-.424.344-1.478.347-1.964,0-.515-.132-.987-.1-1.513a6.031,6.031,0,0,1,1.209-3.615c.766-.8,1.569-.219,2.324.365-.064-.049.488-1.833.529-2.036a15.321,15.321,0,0,0,.3-2.2,19.141,19.141,0,0,0-.454-4.007,15.273,15.273,0,0,0-.928-3.286" transform="translate(-83.811 -14.492)" fill="#11112b"/>
            <path id="Trazado_1279246" data-name="Trazado 1279246" d="M361.027,93.458a3.978,3.978,0,0,0,.772-.246,3.28,3.28,0,0,1-2.278-2.151c-.362-1.118.08-2.49.3-3.6q-.711,1.223-1.323,2.5c-.327.681-.959,1.55-.806,2.337a1.7,1.7,0,0,0,1.378,1.206,5.009,5.009,0,0,0,1.959-.046" transform="translate(-88.105 -23.116)" fill="#e89c77"/>
            <path id="Trazado_1279247" data-name="Trazado 1279247" d="M362.75,81.032c-.184-.195-.1-.484.09-.757a2.271,2.271,0,0,1,1.18-.8,4.636,4.636,0,0,1,4.714.95c.151.178.253.458.081.617a.521.521,0,0,1-.3.109,4.449,4.449,0,0,1-1.106-.094,10,10,0,0,0-3.5.095,1.814,1.814,0,0,1-.833.051.672.672,0,0,1-.323-.171" transform="translate(-89.332 -20.938)" fill="#0a0a16"/>
            <path id="Trazado_1279248" data-name="Trazado 1279248" d="M364.988,83.6a1.621,1.621,0,0,1,2.262-.6,1.693,1.693,0,0,1,.673.871,2.758,2.758,0,0,1-.288,2.5,1.584,1.584,0,0,1-1.219.792,1.53,1.53,0,0,1-1.147-.616,2.764,2.764,0,0,1-.28-2.946" transform="translate(-89.835 -21.874)" fill="#0a0a16"/>
            <path id="Trazado_1279249" data-name="Trazado 1279249" d="M355.093,81.308c.169-.207.06-.49-.145-.749a2.285,2.285,0,0,0-1.237-.714c-1.54-.4-3.671-.021-4.631,1.282-.139.188-.219.474-.035.621a.516.516,0,0,0,.312.087,4.428,4.428,0,0,0,1.1-.171,9.994,9.994,0,0,1,3.5-.154,1.818,1.818,0,0,0,.835-.007.675.675,0,0,0,.309-.194" transform="translate(-85.955 -21.062)" fill="#0a0a16"/>
            <path id="Trazado_1279250" data-name="Trazado 1279250" d="M354,84a1.624,1.624,0,0,0-2.3-.439,1.687,1.687,0,0,0-.607.916,2.762,2.762,0,0,0,.473,2.472,1.588,1.588,0,0,0,1.275.7,1.519,1.519,0,0,0,1.1-.7A2.761,2.761,0,0,0,354,84" transform="translate(-86.458 -22.006)" fill="#0a0a16"/>
            <path id="Trazado_1279251" data-name="Trazado 1279251" d="M356.99,101.072c.818,1.268,2.5,1.425,3.889,1.23a7.43,7.43,0,0,0,4.453-2.523c.333-.374-.225-.923-.559-.547a6.779,6.779,0,0,1-3.828,2.281c-1.077.193-2.614.188-3.272-.831-.271-.419-.956-.032-.684.39" transform="translate(-87.923 -26.193)" fill="#e89c77"/>
            <path id="Trazado_1279252" data-name="Trazado 1279252" d="M382.988,82.62c.035.05.069.1.1.155a5.392,5.392,0,0,1,.421,4.072,10.009,10.009,0,0,1-1.929,3.6c-.956,1.214-2.7,1.945-2.986-.082a15.694,15.694,0,0,1,.158-4.169c.257-1.92.994-3.927,2.871-4.158a1.425,1.425,0,0,1,.98.181,1.543,1.543,0,0,1,.385.4" transform="translate(-93.239 -21.679)" fill="#ffc19d"/>
            <path id="Trazado_1279253" data-name="Trazado 1279253" d="M381.718,85.731c-.067.011-.011,0,.039.046a.553.553,0,0,1,.123.167,1.6,1.6,0,0,1,.146.411,2.2,2.2,0,0,1-.008.936,5.868,5.868,0,0,1-.926,1.915c-.274.422.411.809.683.39a5.663,5.663,0,0,0,1.078-2.606c.058-.781-.274-2.182-1.345-2a.387.387,0,0,0-.277.475.407.407,0,0,0,.487.27" transform="translate(-93.86 -22.457)" fill="#e89c77"/>
            <path id="Trazado_1279254" data-name="Trazado 1279254" d="M382.414,87.975a1.176,1.176,0,0,0-.938-.377,1.745,1.745,0,0,0-1.017.436.382.382,0,0,0,0,.547.415.415,0,0,0,.56,0l.035-.029c.032-.025.023-.018-.026.019a.625.625,0,0,0,.075-.052,1.635,1.635,0,0,1,.149-.085l.031-.015c.038-.016.028-.013-.032.013a.753.753,0,0,0,.087-.03,1.127,1.127,0,0,1,.178-.038l-.1.014a.988.988,0,0,1,.228,0l-.1-.014a.987.987,0,0,1,.131.027.263.263,0,0,1,.068.023l-.057-.024.037.018c.017.01.035.019.053.03l.034.022-.048-.037a.4.4,0,0,1,.1.1.4.4,0,0,0,.28.113.406.406,0,0,0,.28-.113.384.384,0,0,0,.116-.273.435.435,0,0,0-.116-.273" transform="translate(-93.691 -23.151)" fill="#e89c77"/>
            <path id="Trazado_1279255" data-name="Trazado 1279255" d="M347.2,72.271c-.38-.423-2.085.042-2.548.107a.5.5,0,0,0-.273.1.44.44,0,0,0-.109.26,12.577,12.577,0,0,0,.048,1.861c-.01.682-.056,1.361-.041,2.044a25.062,25.062,0,0,0,1.495,8q.348.962.776,1.9a7.749,7.749,0,0,1,.855,1.69c-.586-5.17-1.167-10.433-.155-15.54a.477.477,0,0,0-.046-.415" transform="translate(-84.796 -19.054)" fill="#11112b"/>
            <g id="Grupo_1213083" data-name="Grupo 1213083" transform="translate(259.791 59.599)" opacity="0.2">
              <g id="Grupo_1213082" data-name="Grupo 1213082">
                <g id="Grupo_1213081" data-name="Grupo 1213081" clip-path="url(#clip-path-4)">
                  <path id="Trazado_1279256" data-name="Trazado 1279256" d="M354.491,85.642a4.9,4.9,0,1,1-5.043-4.631,4.829,4.829,0,0,1,5.043,4.631" transform="translate(-344.702 -81.009)" fill="#fff"/>
                </g>
              </g>
            </g>
            <path id="Trazado_1279257" data-name="Trazado 1279257" d="M349.672,90.72a5.026,5.026,0,1,1,4.987-5.175,5.1,5.1,0,0,1-4.987,5.175m-.3-9.552a4.535,4.535,0,1,0,4.783,4.392,4.587,4.587,0,0,0-4.783-4.392" transform="translate(-84.829 -21.321)"/>
            <g id="Grupo_1213086" data-name="Grupo 1213086" transform="translate(271.943 59.236)" opacity="0.2">
              <g id="Grupo_1213085" data-name="Grupo 1213085">
                <g id="Grupo_1213084" data-name="Grupo 1213084" clip-path="url(#clip-path-4)">
                  <path id="Trazado_1279258" data-name="Trazado 1279258" d="M370.616,85.149a4.9,4.9,0,1,1-5.043-4.631,4.829,4.829,0,0,1,5.043,4.631" transform="translate(-360.827 -80.516)" fill="#fff"/>
                </g>
              </g>
            </g>
            <path id="Trazado_1279259" data-name="Trazado 1279259" d="M365.8,90.228a5.026,5.026,0,1,1,4.987-5.175,5.1,5.1,0,0,1-4.987,5.175m-.3-9.552a4.535,4.535,0,1,0,4.784,4.392,4.587,4.587,0,0,0-4.784-4.392" transform="translate(-88.801 -21.191)"/>
            <line id="Línea_3430" data-name="Línea 3430" y1="2.273" x2="6.718" transform="translate(281.699 60.537)" fill="#fff"/>
            <path id="Trazado_1279260" data-name="Trazado 1279260" d="M373.7,84.714a.252.252,0,0,1-.245-.165.244.244,0,0,1,.155-.313l6.718-2.272a.254.254,0,0,1,.32.152.244.244,0,0,1-.155.313L373.771,84.7a.267.267,0,0,1-.075.013" transform="translate(-91.99 -21.659)"/>
            <path id="Trazado_1279261" data-name="Trazado 1279261" d="M357.588,86.521a.254.254,0,0,1-.209-.1.241.241,0,0,1,.05-.344,2.775,2.775,0,0,1,2.516-.362.243.243,0,0,1,.148.314.253.253,0,0,1-.323.146,2.249,2.249,0,0,0-2.04.294.254.254,0,0,1-.143.049" transform="translate(-88.022 -22.614)"/>
            <g id="Grupo_1213089" data-name="Grupo 1213089" transform="translate(261.1 44.246)" opacity="0.15">
              <g id="Grupo_1213088" data-name="Grupo 1213088">
                <g id="Grupo_1213087" data-name="Grupo 1213087" clip-path="url(#clip-path-6)">
                  <path id="Trazado_1279262" data-name="Trazado 1279262" d="M346.27,69.054c6.147,3.541,13.647,3.015,20.1.6.336-.126.191-.66-.15-.532-6.316,2.368-13.643,2.93-19.665-.541a.278.278,0,0,0-.286.477" transform="translate(-346.364 -62.359)" fill="#fff"/>
                  <path id="Trazado_1279263" data-name="Trazado 1279263" d="M351.009,60.33a17.087,17.087,0,0,0,11.459,4.286,16.647,16.647,0,0,0,3.544-.412c.354-.079.2-.612-.151-.532a16.6,16.6,0,0,1-11.7-1.752,15.565,15.565,0,0,1-2.755-1.98c-.267-.241-.668.149-.4.39" transform="translate(-347.543 -60.067)" fill="#fff"/>
                  <path id="Trazado_1279264" data-name="Trazado 1279264" d="M371.488,60.586a12.778,12.778,0,0,1,7.223,9.573,12.329,12.329,0,0,1-.023,3.8c-.056.347.489.5.546.146a13.113,13.113,0,0,0-4.426-12.03,13.685,13.685,0,0,0-3.034-1.961c-.326-.154-.613.322-.286.477" transform="translate(-352.574 -60.124)" fill="#fff"/>
                </g>
              </g>
            </g>
            <path id="Trazado_1279265" data-name="Trazado 1279265" d="M63.6,85.339a9.712,9.712,0,0,0,1.558,2.875,13.925,13.925,0,0,0,5.405,4.171,4.969,4.969,0,0,0,1.7.489,3.89,3.89,0,0,0,1.206-.178A16.188,16.188,0,0,0,77.8,90.5a22.9,22.9,0,0,0,5.657-4.692,19.6,19.6,0,0,0,2.49-4.391,10.958,10.958,0,0,0,1.131-4.14,8.91,8.91,0,0,0-1.111-4.115c-.693-1.375-1.431-1.106-2.878-1.38a24.323,24.323,0,0,1-4.054-1.023,26.6,26.6,0,0,1-2.6-1.418,30.55,30.55,0,0,1-6.26-4.873,1.026,1.026,0,0,0-.431-.274,1.011,1.011,0,0,0-.781.282A13.028,13.028,0,0,0,64.4,70.754a26.84,26.84,0,0,0-1.79,8.325,12.654,12.654,0,0,0,.27,3.747c.222.875.439,1.712.726,2.514" transform="translate(-15.415 -16.962)" fill="#11112b"/>
            <path id="Trazado_1279266" data-name="Trazado 1279266" d="M105.569,164.371c-1.727-4.944-2.911-10.028-2.472-15.131.449-5.213-.249-10.885-.993-16.054-.363-2.523-.525-5.069-.692-7.611a28.9,28.9,0,0,0-.28-3.818,8.082,8.082,0,0,0-1.852-3.615c.2.232,1,.38,1.3.5q.72.3,1.424.631,1.37.647,2.673,1.422c1.608.957,3.214,1.714,4.318,3.286a21.724,21.724,0,0,1,2.3,4.739c2.581,6.662,5.1,13.347,7.4,20.108,3.07,9.059,4.625,18.516,6.567,27.868-1.932.391-4.49-.007-6.5.055-2.48.077-4.961.146-7.439.263a1.061,1.061,0,0,1-.482-.052,1.011,1.011,0,0,1-.445-.6c-1.565-3.855-3.379-7.878-4.818-12" transform="translate(-24.456 -31.224)" fill="#644602"/>
            <path id="Trazado_1279267" data-name="Trazado 1279267" d="M90.959,115.6a13.264,13.264,0,0,0-.869-1.1,15.963,15.963,0,0,1-1.325-2.08,8.034,8.034,0,0,1-.7-2.643c-.317-2.6.328-5.341-.244-7.879-.3-1.34-.867-1.168-2.237-1.238-1.433-.073-2.869-.068-4.3-.1a13.248,13.248,0,0,1-4.043-.367,8.57,8.57,0,0,1-1.265-.881,4.146,4.146,0,0,0-1.96-.4c-1.068-.005-.8.776-.793,1.686,0,1.83.22,3.66.078,5.491a9.454,9.454,0,0,1-.917,3.491c-.478.955-1.291,1.7-1.713,2.684-.378.88-.566,1.833-.937,2.721A19.578,19.578,0,0,1,67.8,118.2a5.091,5.091,0,0,0,.953.779c3.7,2.231,7.926,3.265,11.934,4.83,2.1.82,4.267,1.942,6.6,1.192a6,6,0,0,0,3.714-4.556c.307-1.411.648-3.29.05-4.672a1.7,1.7,0,0,0-.087-.174" transform="translate(-16.701 -26.143)" fill="#e89c77"/>
            <path id="Trazado_1279268" data-name="Trazado 1279268" d="M51.108,119.668a1.2,1.2,0,0,1,.259-1.193,2.807,2.807,0,0,1,1.1-.6c1.865-.682,3.763-1.278,5.673-1.829.974-.282,1.952-.551,2.932-.816,2.872-.774,7.037-1.149,7.093-4.976-.006.4,4.314,1.523,4.808,1.656a26.044,26.044,0,0,0,5.221.9c1.93.116,4.279.123,5.94-.98a10.251,10.251,0,0,0,.574,2.345,2.747,2.747,0,0,0,.681,1.147c.36.312.766.41,1.1.8a29.12,29.12,0,0,1,2.972,4.826,44.217,44.217,0,0,1,4.6,12.339c.63,3.011,1.372,6.046,1.956,9.053.639,3.287.753,6.777,1.113,10.109q.6,5.53,1.188,11.061c.395,3.714,1.2,7.636,1.153,11.356-2.619.369-5.049.31-7.664.953-3.07.755-6.226.11-9.348.1-3.23-.014-6.462.011-9.693.046-4.4.047-10.118-.706-14.277.879a169.3,169.3,0,0,0-.458-19.869c-.326-5.221-.675-10.529-2.278-15.552-.747-2.34-2.4-4.447-3.089-6.705-.512-1.683-.213-3.924-.335-5.7-.115-1.655-.2-3.311-.343-4.963q-.109-1.266-.251-2.527c-.063-.554-.473-1.221-.62-1.852" transform="translate(-12.577 -29.138)" fill="#fff"/>
            <path id="Trazado_1279269" data-name="Trazado 1279269" d="M95.088,82.073A25.8,25.8,0,0,1,93.653,89.5a20.771,20.771,0,0,1-5.744,7.654c-2.187,1.848-5.561,3.475-8.237,1.568C77.533,97.194,75,95.232,73.748,92.9c-1.323-2.468-1.011-5.972-1.324-8.687a40.108,40.108,0,0,1-.063-7.516c.158-2.228.457-4.431.724-6.648a4.839,4.839,0,0,1,.3-1.886,6.507,6.507,0,0,1,2.1-1.712,18.929,18.929,0,0,1,8.455-2.653,13.458,13.458,0,0,1,6.781.787,9.2,9.2,0,0,1,4.328,4.138c1.658,3.179,1.269,6.73.533,10.07a30.537,30.537,0,0,0-.494,3.283" transform="translate(-17.789 -16.833)" fill="#ffc19d"/>
            <path id="Trazado_1279270" data-name="Trazado 1279270" d="M66.586,66.768a10.656,10.656,0,0,1,4.958-5.348,14.771,14.771,0,0,1,6.013-1.836c5.831-.388,12.027,1.187,15.3,6.318a15.614,15.614,0,0,1,2.393,7.23,23.022,23.022,0,0,1-2.154,9.6,27.521,27.521,0,0,0,.285-3.167,8.064,8.064,0,0,0-.234-2.57c-.324-1.089-1.033-2.042-1.334-3.138a4.48,4.48,0,0,1-.045-2.192c.117-.5.2-1.222-.311-1.35a.993.993,0,0,0-.806.33,6.152,6.152,0,0,1-2.078,1.209c-1.339.405-2.168-.123-3.383-.476a5.744,5.744,0,0,0-3.571.156c-1.44.671-2.03,2.339-3.118,3.478a5.161,5.161,0,0,1-2.4,1.412,17.7,17.7,0,0,0-2.163.5c-1.144.463-1.451,1.61-1.706,2.678a36.532,36.532,0,0,1-1.147,4c-.716,1.97-1.777-.852-1.831-1.688a6.616,6.616,0,0,0-1.985-4.158c-.478-.461-.88-.227-1.439-.452-.473-.191-.393-.441-.442-.926-.056-.558-.094-1.116-.11-1.677a22.552,22.552,0,0,1,.357-4.652,15.287,15.287,0,0,1,.952-3.28" transform="translate(-16.078 -15.733)" fill="#11112b"/>
            <path id="Trazado_1279271" data-name="Trazado 1279271" d="M87.833,94.409a3.937,3.937,0,0,1-.737-.332,3.307,3.307,0,0,0,2.52-1.878c.493-1.068.218-2.481.134-3.606q.56,1.3,1.015,2.631c.243.714.766,1.649.521,2.414a1.714,1.714,0,0,1-1.514,1.04,4.991,4.991,0,0,1-1.939-.269" transform="translate(-21.455 -23.414)" fill="#e89c77"/>
            <path id="Trazado_1279272" data-name="Trazado 1279272" d="M88.192,81.077c.216-.162.179-.461.044-.761a2.249,2.249,0,0,0-1.024-.984,4.649,4.649,0,0,0-4.811.155c-.181.15-.329.408-.187.6a.519.519,0,0,0,.281.157,4.44,4.44,0,0,0,1.106.09A9.956,9.956,0,0,1,87.033,81a1.808,1.808,0,0,0,.812.189.681.681,0,0,0,.347-.116" transform="translate(-20.238 -20.81)" fill="#0a0a16"/>
            <path id="Trazado_1279273" data-name="Trazado 1279273" d="M86.227,83.966A1.612,1.612,0,0,0,84.1,83a1.712,1.712,0,0,0-.815.747,2.753,2.753,0,0,0-.151,2.51,1.564,1.564,0,0,0,1.064.983,1.542,1.542,0,0,0,1.238-.417,2.775,2.775,0,0,0,.788-2.856" transform="translate(-20.422 -21.906)" fill="#0a0a16"/>
            <path id="Trazado_1279274" data-name="Trazado 1279274" d="M94.934,82.508c-.13-.232.026-.493.274-.714a2.3,2.3,0,0,1,1.343-.5c1.588-.137,3.621.587,4.341,2.03.1.208.133.5-.074.618a.522.522,0,0,1-.323.034,4.4,4.4,0,0,1-1.05-.351,9.979,9.979,0,0,0-3.419-.731,1.8,1.8,0,0,1-.822-.146.664.664,0,0,1-.271-.242" transform="translate(-23.374 -21.481)" fill="#0a0a16"/>
            <path id="Trazado_1279275" data-name="Trazado 1279275" d="M96.2,86.106a1.627,1.627,0,0,1,2.343-.052,1.663,1.663,0,0,1,.439,1,2.777,2.777,0,0,1-.9,2.358,1.6,1.6,0,0,1-1.379.482,1.5,1.5,0,0,1-.961-.867,2.766,2.766,0,0,1,.454-2.924" transform="translate(-23.528 -22.618)" fill="#0a0a16"/>
            <path id="Trazado_1279276" data-name="Trazado 1279276" d="M90.255,100.636c-.644,1.029-2.174,1.059-3.257.881a6.782,6.782,0,0,1-3.861-2.227c-.34-.372-.9.177-.559.546a7.457,7.457,0,0,0,4.5,2.468c1.384.18,3.067-.006,3.863-1.277.266-.425-.418-.814-.684-.39" transform="translate(-20.316 -26.208)" fill="#e89c77"/>
            <path id="Trazado_1279277" data-name="Trazado 1279277" d="M68.815,84.189c-.038.049-.075.1-.11.149a5.4,5.4,0,0,0-.65,4.043,9.97,9.97,0,0,0,1.723,3.7c.886,1.263,2.583,2.087,2.986.078a15.7,15.7,0,0,0,.078-4.171c-.148-1.931-.771-3.975-2.631-4.306a1.427,1.427,0,0,0-.989.128,1.543,1.543,0,0,0-.407.375" transform="translate(-16.733 -22.109)" fill="#ffc19d"/>
            <path id="Trazado_1279278" data-name="Trazado 1279278" d="M71.271,86.674c-1.057-.236-1.45,1.195-1.436,1.956a5.667,5.667,0,0,0,.941,2.657.394.394,0,0,0,.683-.39,5.594,5.594,0,0,1-.811-1.964A2.276,2.276,0,0,1,70.7,88a1.53,1.53,0,0,1,.174-.4c.029-.045.121-.193.183-.18.5.111.708-.633.21-.745" transform="translate(-17.203 -22.9)" fill="#e89c77"/>
            <path id="Trazado_1279279" data-name="Trazado 1279279" d="M70.673,90.169a.581.581,0,0,1,.043-.043c.028-.025.071-.04-.017.01.035-.02.069-.042.1-.06.062-.032-.09.029-.019.007l.059-.018a.822.822,0,0,1,.121-.024l-.106.014a.975.975,0,0,1,.227,0l-.106-.013a1.026,1.026,0,0,1,.176.04l.044.015c.051.018-.02-.012-.032-.013a.368.368,0,0,1,.093.044c.054.029.1.064.155.1s-.063-.051-.026-.019l.036.029c.026.022.051.045.077.068a.408.408,0,0,0,.559,0,.385.385,0,0,0,0-.546,1.719,1.719,0,0,0-1-.475,1.176,1.176,0,0,0-.952.341.385.385,0,0,0,0,.546.409.409,0,0,0,.559,0" transform="translate(-17.243 -23.595)" fill="#e89c77"/>
            <path id="Trazado_1279280" data-name="Trazado 1279280" d="M53.278,141.435c-.381-1.122-.8-2.228-1.164-3.372a29.61,29.61,0,0,1-.7-5.852c-.31-3-1.306-6.27-1.118-9.271.043-.689-.295-2.434-.047-2.933.451-.91,3.037-1.5,3.961-1.83a42.588,42.588,0,0,1,9.238-2.21.49.49,0,0,1,.33.037.468.468,0,0,1,.161.3c1.284,5.226,3.566,9.9,5.376,14.911.942,2.605,1.56,4.931,3.113,7.26a62.438,62.438,0,0,0,6.019,7.655,10.723,10.723,0,0,1,1.879,2.44,9.143,9.143,0,0,1,.717,3.181c.8,8.3.387,16.656-.022,24.98a.644.644,0,0,1-.159.478.681.681,0,0,1-.442.109c-2.936.035-5.763.4-8.743.351-2.156-.038-4.312-.09-6.469-.12-2.014-.025-4.039.041-6.049.162-.4.024-4.5.5-4.476.38,1.568-6.974,1.172-14.207.768-21.336a79.385,79.385,0,0,0-1.408-12.67,24.915,24.915,0,0,0-.763-2.649" transform="translate(-12.354 -30.646)" fill="#644602"/>
            <path id="Trazado_1279281" data-name="Trazado 1279281" d="M104.8,152.877c-.754,2.575-1.655,5.131-2.234,7.7-1.184,5.266-1.877,10.726-.983,16.09a1.97,1.97,0,0,1-.1,1.391c-.327.513-5.9-.335-6.9-.366l-9.768-.3a.744.744,0,0,1-.39-.085.7.7,0,0,1-.225-.561,133.513,133.513,0,0,1-.194-15.582,41.64,41.64,0,0,1,.783-5.557c.3-1.769.164-3.576.443-5.346s1.381-2.659,2.42-4.093a35.089,35.089,0,0,0,4.607-8.744,35.6,35.6,0,0,0,2.09-11.136,28.625,28.625,0,0,0-1.341-10.154c.965.876,2.484,1,3.3,2.051a20.834,20.834,0,0,1,2.073,4.414,73.961,73.961,0,0,1,3.3,9.294c.494,1.757.922,3.531,1.438,5.282q.6,2.035,1.358,4.023c.489,1.282,1.47,2.732,1.712,4.065.413,2.28-.752,5.423-1.392,7.608" transform="translate(-20.66 -30.695)" fill="#644602"/>
            <path id="Trazado_1279282" data-name="Trazado 1279282" d="M54.983,129.1c.136-3.855-.725-7.448-4.6-8.8a6.527,6.527,0,0,0-2.494-.275c-1.412.153-2.455,1.332-3.232,2.492a39.385,39.385,0,0,0-3.371,7.281c-1.353,3.291-2.4,6.793-3.528,10.19a96.531,96.531,0,0,0-4.059,17.742c-.671,5.122-1.62,11.185,2.116,15.491a9.437,9.437,0,0,0,8.752,2.972,1.616,1.616,0,0,0,.818-.343,1.707,1.707,0,0,0,.4-1.055c.154-1.206.306-2.414.525-3.611a7.977,7.977,0,0,1,.373-1.736,10.981,10.981,0,0,1,.708-1.1,23.162,23.162,0,0,0,2.463-6.127q.2-.771.364-1.552a32.347,32.347,0,0,0,.922-5.618,36.322,36.322,0,0,1,.836-5.248q1.013-5.7,1.738-11.448c.308-2.443,1.161-5.947,1.277-9.257" transform="translate(-8.146 -31.715)" fill="#644602"/>
            <path id="Trazado_1279283" data-name="Trazado 1279283" d="M117.98,194.407c0,1.974-4.514,1.409-10.082,1.409s-10.081.565-10.081-1.409,4.514-5.738,10.081-5.738,10.082,3.764,10.082,5.738" transform="translate(-24.096 -49.863)" fill="#542fd0"/>
            <path id="Trazado_1279284" data-name="Trazado 1279284" d="M119.4,193.145c.335.782-.662,1.042-1.407,1.031-2.2-.031-4.432-.964-6.483-1.667-2.219-.761-4.624-1.372-6.9-.8-1.838.461-3.1,1.93-4.936,2.248a32.21,32.21,0,0,1-6.63.422,1.792,1.792,0,0,1-1.479-.542,1.376,1.376,0,0,1-.064-1.184c.762-2.4.9-4.917,1.822-7.306a.962.962,0,0,1,.381-.542,1.021,1.021,0,0,1,.523-.073c2.829.105,5.613.427,8.459.318a18.946,18.946,0,0,1,4.386.1c2.245.441,4.368,2.07,6.246,3.313q1.593,1.055,3.116,2.2a13.627,13.627,0,0,1,2.829,2.227,1.444,1.444,0,0,1,.139.247" transform="translate(-22.514 -48.822)" fill="#ffc19d"/>
            <path id="Trazado_1279285" data-name="Trazado 1279285" d="M82.564,183.071c-2.34-.263-4.732-.32-7.091-.644-2.887-.4-5.765-.85-8.654-1.235l-17.466-2.323a3.57,3.57,0,0,0-1.179-.025c-1.626.332-2.479,3.3-3.138,4.594a46.775,46.775,0,0,0-2.265,5.58,2.366,2.366,0,0,0-.181,1.4c.286,1.04,1.7,1.376,2.866,1.516q5.674.68,11.38,1.119c3.958.305,7.79.1,11.758.093q3.483,0,6.961-.212c1.4-.085,6.378.144,7.041-.99.321-.55.427-8.832.828-8.767q-.427-.058-.858-.107" transform="translate(-10.479 -47.255)" fill="#644602"/>
            <path id="Trazado_1279286" data-name="Trazado 1279286" d="M165.5,166.686H100.836a1.559,1.559,0,0,1-1.578-1.541l6.368-44.642a1.56,1.56,0,0,1,1.578-1.541h64.668a1.56,1.56,0,0,1,1.578,1.541l-6.368,44.642a1.56,1.56,0,0,1-1.578,1.541" transform="translate(-24.451 -31.441)" fill="#6cb9ff"/>
            <path id="Trazado_1279287" data-name="Trazado 1279287" d="M169.094,166.686H104.425a1.559,1.559,0,0,1-1.578-1.541l6.368-44.642a1.56,1.56,0,0,1,1.578-1.541h64.668a1.56,1.56,0,0,1,1.578,1.541l-6.368,44.642a1.56,1.56,0,0,1-1.578,1.541" transform="translate(-25.335 -31.441)" fill="#9ed1ff"/>
            <path id="Trazado_1279288" data-name="Trazado 1279288" d="M155.152,172.292H143.243v19.24h17.884Z" transform="translate(-35.285 -45.535)" fill="#6cb9ff"/>
            <path id="Trazado_1279289" data-name="Trazado 1279289" d="M161.4,198.423H141.645a1.07,1.07,0,0,1-1.082-1.056v-.088a1.07,1.07,0,0,1,1.082-1.056H161.4a1.07,1.07,0,0,1,1.082,1.056v.088a1.07,1.07,0,0,1-1.082,1.056" transform="translate(-34.625 -51.859)" fill="#cfe8ff"/>
            <path id="Trazado_1279290" data-name="Trazado 1279290" d="M75.479,112.72a41.518,41.518,0,0,1-2.346-4.082,31.139,31.139,0,0,1-1.571-5.006c-.54-2.419-3.306-4.178-5.479-5.159-.69,2.4-2.511,3.954-3.769,6.156a14.8,14.8,0,0,0-2.247,8.292c.227,3.2,1.865,6.186,2.009,9.386.179,3.943-1.923,7.853-1.13,11.723.664,3.244,3.31,5.835,6.34,7.317a33.162,33.162,0,0,0,9.786,2.523c-1.621-1.9-1.78-4.633-1.268-7.053s1.6-4.688,2.223-7.083c1.433-5.5.142-12.043-2.548-17.016" transform="translate(-14.79 -26.026)" fill="#11112b"/>
            <path id="Trazado_1279291" data-name="Trazado 1279291" d="M54.879,170.619a133.613,133.613,0,0,0,3.459-19.085q.324-2.762.6-5.53c.036-.353-.529-.351-.565,0a178.884,178.884,0,0,1-2.761,19.149q-.569,2.675-1.277,5.319a.283.283,0,0,0,.545.146" transform="translate(-13.382 -38.518)" fill="#09136e"/>
            <path id="Trazado_1279292" data-name="Trazado 1279292" d="M47.993,179.014c2.4.139,4.791.447,7.185.7s4.791.4,7.183.634c4.668.46,9.338,1.04,13.975,1.734,2.6.388,5.187.85,7.742,1.458.353.084.5-.448.151-.533a128.689,128.689,0,0,0-13.794-2.273c-2.352-.3-4.7-.593-7.064-.837-2.42-.25-4.848-.413-7.27-.644-2.7-.258-5.395-.631-8.107-.788-.363-.021-.362.531,0,.552" transform="translate(-11.755 -47.165)" fill="#09136e"/>
            <path id="Trazado_1279293" data-name="Trazado 1279293" d="M81.983,114.7a14.759,14.759,0,0,1,.479,4.756.283.283,0,0,0,.565,0,15.24,15.24,0,0,0-.5-4.9.283.283,0,0,0-.545.146" transform="translate(-20.192 -30.223)" fill="#ddd"/>
            <path id="Trazado_1279294" data-name="Trazado 1279294" d="M87.027,115.274q.257,2.27.569,4.534a.283.283,0,0,0,.546-.147q-.3-2.189-.549-4.387a.287.287,0,0,0-.283-.276.281.281,0,0,0-.283.276" transform="translate(-21.437 -30.393)" fill="#ddd"/>
            <path id="Trazado_1279295" data-name="Trazado 1279295" d="M91.546,114.883a2.479,2.479,0,0,1,.191.88q.051.529.1,1.057.1,1.067.2,2.135a.287.287,0,0,0,.283.276.282.282,0,0,0,.283-.276q-.106-1.109-.212-2.218c-.035-.362-.067-.725-.1-1.087a2.976,2.976,0,0,0-.257-1.046.289.289,0,0,0-.387-.1.277.277,0,0,0-.1.377" transform="translate(-22.542 -30.253)" fill="#ddd"/>
            <path id="Trazado_1279296" data-name="Trazado 1279296" d="M82.517,121.3a15.814,15.814,0,0,0,3.044.374,9.482,9.482,0,0,0,2.582-.127,13.052,13.052,0,0,0,4.794-1.837c.285-.213,0-.693-.285-.476A12.5,12.5,0,0,1,88.07,121a9.068,9.068,0,0,1-2.509.127,15.024,15.024,0,0,1-2.894-.355c-.353-.08-.5.452-.15.532" transform="translate(-20.277 -31.499)" fill="#ddd"/>
            <path id="Trazado_1279297" data-name="Trazado 1279297" d="M56.607,169.766c.34,2.434.48,4.89.623,7.342.02.353.586.355.565,0-.145-2.5-.3-5-.643-7.488a.282.282,0,0,0-.545.146" transform="translate(-13.943 -44.776)" fill="#09136e"/>
            <g id="Grupo_1213092" data-name="Grupo 1213092" transform="translate(48.866 45.982)" opacity="0.15">
              <g id="Grupo_1213091" data-name="Grupo 1213091">
                <g id="Grupo_1213090" data-name="Grupo 1213090" clip-path="url(#clip-path-7)">
                  <path id="Trazado_1279298" data-name="Trazado 1279298" d="M77.153,141.172c-1.769-2.065-1.072-4.931-.412-7.272a41.04,41.04,0,0,0,1.519-7.6,20.606,20.606,0,0,0-.649-7.594,45.8,45.8,0,0,0-3.06-6.828c-1.274-2.636-2.34-5.581-1.715-8.525.074-.347-.471-.5-.545-.147-1.143,5.381,2.734,9.9,4.459,14.686,1.891,5.248.862,10.818-.6,16.03-.708,2.519-1.272,5.455.6,7.643.234.273.632-.119.4-.39" transform="translate(-66.623 -73.205)" fill="#fff"/>
                  <path id="Trazado_1279299" data-name="Trazado 1279299" d="M67.177,105.571a9.326,9.326,0,0,0-2.1,6.076c.061,2.4,1.25,4.537,1.759,6.846.576,2.608-.42,4.977-1.033,7.477a15.231,15.231,0,0,0-.256,6.148,11.419,11.419,0,0,0,3.01,6.112.28.28,0,0,0,.4-.391c-2.923-3-3.569-7.5-2.68-11.423.517-2.284,1.531-4.523,1.292-6.909-.224-2.228-1.328-4.24-1.764-6.421a8.7,8.7,0,0,1,1.774-7.125c.223-.276-.174-.669-.4-.39" transform="translate(-64.895 -73.858)" fill="#fff"/>
                  <path id="Trazado_1279300" data-name="Trazado 1279300" d="M73.338,138.87a13.344,13.344,0,0,1,.338-5.29,31.569,31.569,0,0,0,.8-4.912,40.083,40.083,0,0,0-1.274-10.35c-.074-.347-.619-.2-.545.146a38.117,38.117,0,0,1,1.232,10.558c-.236,3.346-1.739,6.612-1.093,9.994.066.349.611.2.545-.146" transform="translate(-66.758 -77.2)" fill="#fff"/>
                  <path id="Trazado_1279301" data-name="Trazado 1279301" d="M74.053,76.537c.191-1.23,1.429-1.893,2.568-2.154,1.37-.315,2.832-.262,4.1-.921a10.33,10.33,0,0,0,2.608-2.309,6.11,6.11,0,0,1,3.277-2.015,13.221,13.221,0,0,1,4.827.223c.356.062.509-.469.15-.532a15.937,15.937,0,0,0-4.423-.33,6.1,6.1,0,0,0-3.552,1.585,20.413,20.413,0,0,1-2.9,2.745c-1.335.814-2.951.676-4.421,1.064a3.474,3.474,0,0,0-2.786,2.5c-.054.347.491.5.545.146" transform="translate(-66.972 -64.072)" fill="#fff"/>
                  <path id="Trazado_1279302" data-name="Trazado 1279302" d="M65.152,78.209a14.576,14.576,0,0,1,1.76-5.516,9.076,9.076,0,0,1,4.045-4.2c1.574-.653,3.553-.608,4.93-1.671a9.339,9.339,0,0,0,1.323-1.493,6.553,6.553,0,0,1,1.88-1.5,8.64,8.64,0,0,1,5.471-.923c.356.06.508-.472.15-.533a9.309,9.309,0,0,0-4.989.55,8.057,8.057,0,0,0-2.176,1.285,16.09,16.09,0,0,0-1.561,1.751c-1.238,1.379-3.419,1.314-5.062,1.949A9.073,9.073,0,0,0,66.7,71.944a15.253,15.253,0,0,0-2.111,6.265c-.038.352.527.35.565,0" transform="translate(-64.775 -62.436)" fill="#fff"/>
                </g>
              </g>
            </g>
            <path id="Trazado_1279303" data-name="Trazado 1279303" d="M65.292,97.936a67.041,67.041,0,0,0-5.356,7.281c-1.549,2.505-3.116,5.279-3.013,8.3.1,2.98,2.1,5.523,2.136,8.512a40.952,40.952,0,0,1-.522,4.748,14.453,14.453,0,0,0,.2,4.5,10.172,10.172,0,0,0,5.178,7.072c.323.163.608-.313.285-.477a9.5,9.5,0,0,1-4.762-6.092,13.373,13.373,0,0,1-.389-4.409c.106-1.53.464-3.031.555-4.562a10.351,10.351,0,0,0-.638-4.093,30.108,30.108,0,0,1-1.338-3.991c-.6-3.01.8-5.83,2.284-8.373a62.3,62.3,0,0,1,5.779-8.019c.226-.274-.171-.667-.4-.39" transform="translate(-14.021 -25.859)" fill="#11112b"/>
            <path id="Trazado_1279304" data-name="Trazado 1279304" d="M64.2,74.159c-3.283,4.631-3.875,10.925-.591,15.713a12.2,12.2,0,0,0,3.179,3.174c.3.2.581-.274.285-.477a11.841,11.841,0,0,1-4.5-6.037,12.879,12.879,0,0,1,.021-7.929,14.992,14.992,0,0,1,2.092-4.166c.207-.293-.283-.569-.488-.279" transform="translate(-15.129 -19.567)" fill="#11112b"/>
            <path id="Trazado_1279305" data-name="Trazado 1279305" d="M150.334,199.842H18.727a.982.982,0,1,1,0-1.963H150.334a.982.982,0,1,1,0,1.963" transform="translate(-4.366 -52.297)" fill="#09136e"/>
            <path id="Trazado_1279306" data-name="Trazado 1279306" d="M73.3,102.161a11.11,11.11,0,0,0,4.508,5.485,17.085,17.085,0,0,0,3.247,1.937A4.895,4.895,0,0,0,85,109.438a17.209,17.209,0,0,0,4.113-2.585c.278-.23-.123-.618-.4-.39a18.3,18.3,0,0,1-3.321,2.18,4.8,4.8,0,0,1-3.908.518,14.294,14.294,0,0,1-3.061-1.76,16.413,16.413,0,0,1-2.616-2.185,8.164,8.164,0,0,1-1.963-3.2c-.1-.34-.65-.195-.545.146" transform="translate(-18.053 -26.91)" fill="#d67f5c"/>
            <path id="Trazado_1279307" data-name="Trazado 1279307" d="M52.247,232.6A14.228,14.228,0,0,0,37.884,219.18a14.42,14.42,0,0,0-12.765,7.576,11.6,11.6,0,0,0-6.338-1.87A11.322,11.322,0,0,0,7.325,236.07a10.948,10.948,0,0,0,.228,2.226,6.711,6.711,0,0,0-1.082-.095A6.4,6.4,0,0,0,0,244.519a6.165,6.165,0,0,0,.637,2.734H61.128a10.9,10.9,0,0,0,.634-3.643A11.26,11.26,0,0,0,52.247,232.6" transform="translate(0 -57.927)" fill="#69d7e5"/>
            <path id="Trazado_1279308" data-name="Trazado 1279308" d="M35.66,250.312H33.1v8.9H24.292v-8.9H21.736l6.959-6.34Z" transform="translate(-5.354 -64.479)" fill="#ffc655"/>
          </g>
        </g>
      </g>
    </g>
  </g>
</svg>
