<svg xmlns="http://www.w3.org/2000/svg" xmlns:xlink="http://www.w3.org/1999/xlink" width="84" height="84" viewBox="0 0 84 84">
  <defs>
    <clipPath id="clip-path">
      <rect id="Rectángulo_462628" data-name="Rectángulo 462628" width="65.501" height="65.495" fill="#344866"/>
    </clipPath>
  </defs>
  <g id="Grupo_1212242" data-name="Grupo 1212242" transform="translate(0.289 -0.257)">
    <g id="Grupo_1119665" data-name="Grupo 1119665" transform="translate(-0.289 0.257)">
      <rect id="Rectángulo_402006" data-name="Rectángulo 402006" width="84" height="84" rx="5" fill="#69d7e5"/>
    </g>
    <g id="Grupo_1213065" data-name="Grupo 1213065" transform="translate(8.711 9.257)">
      <g id="Grupo_1213064" data-name="Grupo 1213064" clip-path="url(#clip-path)">
        <path id="Trazado_1279059" data-name="Trazado 1279059" d="M63.339,65.492l-15.277,0a2.26,2.26,0,0,1-2.228-2.435l.018-1.877a2.232,2.232,0,0,1,2.185-2.272l.005-7.708c0-.855.754-2.007,1.684-2.015l4.844-.046V37.157a3.219,3.219,0,0,0-3.189-3.3L46.9,33.836A14.229,14.229,0,0,1,33.89,46.873l-.055,2.266,4.687.024a2.049,2.049,0,0,1,1.821,1.691l.041,8.046a2.274,2.274,0,0,1,2.189,2.263v2.1a2.188,2.188,0,0,1-2.055,2.225H24.984a2.149,2.149,0,0,1-2.036-2.056l0-2.445A2.24,2.24,0,0,1,25.122,58.9l.037-8.063a2.082,2.082,0,0,1,1.649-1.656l4.838-.046.011-2.249A14.244,14.244,0,0,1,18.615,33.865l-4.328-.033a3.261,3.261,0,0,0-3.353,3.329l0,11.983,4.657.03a2.119,2.119,0,0,1,1.88,2.217l-.009,7.518a2.235,2.235,0,0,1,2.19,2.274l0,2.052a2.216,2.216,0,0,1-2.21,2.261L2.086,65.49A2.113,2.113,0,0,1,.029,63.442L.006,61.154A2.269,2.269,0,0,1,2.2,58.9l-.009-7.513c0-.946.666-2.187,1.762-2.2l4.76-.049L8.743,36.9a5.587,5.587,0,0,1,2.175-4.161,5.549,5.549,0,0,1-2.182-4.3l-.019-12.08-6.466.01A2.156,2.156,0,0,1,.014,14.254L0,12.189A2.248,2.248,0,0,1,2.2,9.81V2.232A2.124,2.124,0,0,1,4.16.02L15.4.009a2.126,2.126,0,0,1,2.058,2.044l.013,7.737a2.233,2.233,0,0,1,2.179,2.233l0,2.223a2.148,2.148,0,0,1-2.19,2.112H10.936v11.97a3.221,3.221,0,0,0,3.19,3.3l4.481.017A14.211,14.211,0,0,1,31.613,18.627l.054-2.274-6.527.009a2.121,2.121,0,0,1-2.2-2.119l.01-2.414a2.236,2.236,0,0,1,2.171-2.052l.03-7.917A2.084,2.084,0,0,1,27.209.011H38.294a2.1,2.1,0,0,1,2.068,2.042l.018,7.726c1.052.146,2.146.774,2.152,1.892l.014,2.733a2.056,2.056,0,0,1-2.18,1.957l-6.514-.007v2.257A14.223,14.223,0,0,1,46.9,31.635h4.487a3.225,3.225,0,0,0,3.19-3.3V16.359H48.043a2.16,2.16,0,0,1-2.2-2.116l.034-2.384a2.209,2.209,0,0,1,2.157-2.077l.016-7.717A2.134,2.134,0,0,1,50.289,0L61.353.024A2.107,2.107,0,0,1,63.3,2.038l.019,7.773A2.2,2.2,0,0,1,65.489,12l.012,2.269a2.152,2.152,0,0,1-2.055,2.082l-6.656.007L56.77,28.436a5.612,5.612,0,0,1-2.191,4.313,5.556,5.556,0,0,1,2.2,4.457l.011,11.934,4.76.051c1.1.012,1.768,1.253,1.766,2.2L63.3,58.906a2.243,2.243,0,0,1,2.191,2.26l0,2.1a2.192,2.192,0,0,1-2.159,2.23M15.3,9.821l-.024-6.88-1.767,1.4a1.232,1.232,0,0,1-1.484-.719c-.141-.443.134-.928.6-1.42L4.363,2.181l0,6.4L9.038,4.7a1.129,1.129,0,0,1,1.578,0,1.108,1.108,0,0,1-.131,1.627L6.41,9.794ZM38.23,9.813l-.02-6.873-1.7,1.325A1.206,1.206,0,0,1,35,3.765c-.236-.5,0-1.034.529-1.567l-8.253-.009.035,6.378,4.628-3.853a1.132,1.132,0,0,1,1.679.077,1.152,1.152,0,0,1-.33,1.641L29.311,9.792Zm22.928,0L61.145,2.95,59.539,4.186a1.141,1.141,0,0,1-1.633-.452c-.209-.439.039-1,.519-1.54l-8.213-.005.028,6.353,4.61-3.815a1.114,1.114,0,0,1,1.573-.047,1.083,1.083,0,0,1-.139,1.675L52.216,9.8ZM2.2,11.993l0,2.243,15.271.012,0-2.243Zm38.172,0H25.136v2.244H40.371Zm22.938,0L48.037,12l0,2.234,15.271-.011ZM31.67,26.2l-.04-5.2a9.015,9.015,0,0,0-3.375,5.21Zm5.579-.034c-.752-2.283-1.53-3.879-3.377-5.168l-.03,5.22Zm-11.323,0a33.17,33.17,0,0,1,1.735-4.261,11.277,11.277,0,0,0-4.951,4.337Zm16.875.05a11.389,11.389,0,0,0-4.951-4.3,45.077,45.077,0,0,1,1.78,4.3ZM25.092,31.637l.365-3.265-3.89,0a19.815,19.815,0,0,0-.792,3.278Zm6.576,0-.034-3.268-3.987.015-.323,3.271Zm6.53-.008-.347-3.252-4,.006V31.65Zm6.551.01a26.027,26.027,0,0,0-.805-3.266h-3.9l.372,3.271ZM25.643,38.231l-.576-4.391-4.3.01a15.059,15.059,0,0,0,1.287,4.372Zm6.018,0-.008-4.386H27.332a29.377,29.377,0,0,0,.6,4.405Zm5.946.02a40.768,40.768,0,0,0,.573-4.407H33.851v4.38Zm5.874-.027a16,16,0,0,0,1.243-4.38l-4.284,0-.575,4.388Zm-17.245,2.14-2.681.055a10.3,10.3,0,0,0,4.072,3.11Zm5.421,0-3.036.04a7.013,7.013,0,0,0,3.026,3.985Zm5.19.015-3.005.009.03,4.044a7.041,7.041,0,0,0,2.975-4.053m5.067.049-2.638-.065-1.4,3.171a9.882,9.882,0,0,0,4.036-3.106M15.3,58.9l-.027-6.81L13.7,53.308a1.107,1.107,0,0,1-1.6-.409,1.414,1.414,0,0,1,.506-1.617l-8.264,0,.033,6.4,4.83-4.014a1.2,1.2,0,0,1,1.522.274,1.193,1.193,0,0,1-.163,1.44L6.347,58.915Zm22.93.027-.018-6.848-1.393,1.055a1.1,1.1,0,0,1-1.729-.116c-.387-.55-.12-1.174.464-1.738l-8.273,0,.023,6.4,4.817-4.007a1.188,1.188,0,0,1,1.5.248,1.132,1.132,0,0,1-.256,1.557L29.328,58.9Zm22.933,0-.026-6.865L59.4,53.42a1.179,1.179,0,0,1-1.473-.539c-.242-.484-.028-.976.541-1.594l-8.247-.01.016,6.4L54.93,53.77a1.187,1.187,0,0,1,1.526.034,1.112,1.112,0,0,1-.09,1.6l-4.138,3.5ZM17.468,61.141H2.2V63.3h15.27Zm22.9,0H25.136V63.3H40.371Zm22.938,0H48.039V63.3h15.27Z" transform="translate(0 0)" fill="#344866"/>
      </g>
    </g>
  </g>
</svg>
