<svg xmlns="http://www.w3.org/2000/svg" xmlns:xlink="http://www.w3.org/1999/xlink" width="292" height="287" viewBox="0 0 292 287">
  <defs>
    <clipPath id="clip-path">
      <rect id="Rectángulo_462607" data-name="Rectángulo 462607" width="292" height="287" transform="translate(288.63 412)" fill="#fff" stroke="#707070" stroke-width="1"/>
    </clipPath>
    <clipPath id="clip-path-2">
      <rect id="Rectángulo_459900" data-name="Rectángulo 459900" width="292" height="286.667" fill="#d5f4f8"/>
    </clipPath>
    <clipPath id="clip-path-3">
      <rect id="Rectángulo_462583" data-name="Rectángulo 462583" width="292" height="280.642" fill="none"/>
    </clipPath>
    <clipPath id="clip-path-4">
      <rect id="Rectángulo_462584" data-name="Rectángulo 462584" width="95.714" height="95.893" fill="none"/>
    </clipPath>
  </defs>
  <g id="Enmascarar_grupo_1180326" data-name="Enmascarar grupo 1180326" transform="translate(-288.63 -412)" clip-path="url(#clip-path)">
    <g id="Grupo_1213005" data-name="Grupo 1213005" transform="translate(289 412)">
      <g id="Grupo_1208887" data-name="Grupo 1208887" transform="translate(0 0)">
        <g id="Grupo_1208886" data-name="Grupo 1208886" clip-path="url(#clip-path-2)">
          <path id="Trazado_1271624" data-name="Trazado 1271624" d="M12.1,233.219c13.591,39.441,42.04,51.92,75.623,51.92,58.65,0,53.13-15.719,81.015-23.28,41.787-10.841,100.964-6.623,120.392-75.885C301.887,129.95,269.655,68.156,240.842,36.81,149.208-57.154-51.07,36.121,12.1,233.219" transform="translate(0 -0.001)" fill="#fff7df"/>
        </g>
      </g>
    </g>
    <g id="Grupo_1213014" data-name="Grupo 1213014" transform="translate(289 429.485)">
      <g id="Grupo_1213007" data-name="Grupo 1213007" transform="translate(0 0)">
        <g id="Grupo_1213006" data-name="Grupo 1213006" clip-path="url(#clip-path-3)">
          <path id="Trazado_1278641" data-name="Trazado 1278641" d="M371.17,367.642c22.08-36.4-7.921-69.349-33.89-66.675-19.3,1.987-32.127-6.934-38.952-14.984-16.3-19.229-3.929-50.177-52.537-59.18-19.115-3.541-42.648,4.057-54.186,15.826V367.642Z" transform="translate(-191.606 -102.402)" fill="#69d7e5" fill-rule="evenodd"/>
          <path id="Trazado_1278642" data-name="Trazado 1278642" d="M325.247,234.872c-14.44-15.849-37.165,4.059-23.1,20.4,10.171,11.814,35.211-.4,23.1-20.4" transform="translate(-199.264 -103.826)" fill="#ffd453" fill-rule="evenodd"/>
          <path id="Trazado_1278643" data-name="Trazado 1278643" d="M312.876,241.332v-.985a.84.84,0,0,0-.839-.839H309.7a.841.841,0,0,0-.839.839v5l-3.085,3.124a.839.839,0,0,0,.593,1.432h1.675v7.129a.84.84,0,0,0,.839.839h5.221a.84.84,0,0,0,.838-.839v-6.313H317.9v6.313a.84.84,0,0,0,.839.839h5.221a.84.84,0,0,0,.838-.839V249.9h1.675a.839.839,0,0,0,.593-1.432l-10.049-10.049a.84.84,0,0,0-1.186,0Z" transform="translate(-202.363 -107.952)" fill="#fff" fill-rule="evenodd"/>
          <path id="Trazado_1278644" data-name="Trazado 1278644" d="M98.475,262.45c8.484-5.134,10.443-13.523,5.227-21.873-10.14-16.229-33.766-3.545-27.5,13.553,3,8.193,11.475,11.807,19.545,9.325Z" transform="translate(144.326 -105.641)" fill="#ffd453" fill-rule="evenodd"/>
          <path id="Trazado_1278645" data-name="Trazado 1278645" d="M100.168,241.35a4.582,4.582,0,0,0-4.582,4.582c0,2.53.911,5.252,4.582,8.923,3.364-3.364,4.582-6.393,4.582-8.923a4.582,4.582,0,0,0-4.582-4.582m0,2.653a1.929,1.929,0,1,1-1.929,1.929A1.929,1.929,0,0,1,100.168,244" transform="translate(134.989 -109.392)" fill="#fff" fill-rule="evenodd"/>
          <path id="Trazado_1278646" data-name="Trazado 1278646" d="M100.079,260.538l2.253,2.861H86.278l2.253-2.861Zm5.628,3.315-4.086-5.187a1.185,1.185,0,0,0-.968-.5H87.958v0a1.181,1.181,0,0,0-.931.453l-4.086,5.186a1.187,1.187,0,0,0,.9,1.966h20.94v0a1.184,1.184,0,0,0,.932-1.917" transform="translate(140.851 -117.013)" fill="#fff" fill-rule="evenodd"/>
          <path id="Trazado_1278647" data-name="Trazado 1278647" d="M203.529,320.739c8.411-5.222,10.494-13.656,5.285-22.053-10.068-16.226-33.629-3.3-27.448,13.885,3.645,10.138,12.949,11.7,22.163,8.167" transform="translate(-18.256 -132.008)" fill="#ffd453" fill-rule="evenodd"/>
          <path id="Trazado_1278648" data-name="Trazado 1278648" d="M204.619,322.781l6.215,5.5a1.181,1.181,0,0,0,1.57,0l6.288-5.56a1.181,1.181,0,0,0-.782-2.067v0h-2.3V315.2a1.187,1.187,0,0,0-1.186-1.186h-5.617a1.187,1.187,0,0,0-1.186,1.186v5.442h-2.3a1.186,1.186,0,0,0-.706,2.139m7,3.033-3.167-2.8h.358A1.187,1.187,0,0,0,210,321.828v-5.442h3.244v5.442a1.187,1.187,0,0,0,1.186,1.186h.358Z" transform="translate(-38.704 -142.327)" fill="#fff" fill-rule="evenodd"/>
          <path id="Trazado_1278649" data-name="Trazado 1278649" d="M192.455,304.653l3.167-2.8,3.166,2.8h-.358a1.187,1.187,0,0,0-1.187,1.186v5.367H194v-5.367a1.187,1.187,0,0,0-1.186-1.186Zm2.383-5.262-6.215,5.5a1.186,1.186,0,0,0,.706,2.139h2.3v5.367a1.186,1.186,0,0,0,1.186,1.186h5.616a1.186,1.186,0,0,0,1.186-1.186v-5.367h2.3v0a1.181,1.181,0,0,0,.782-2.067l-6.288-5.56a1.183,1.183,0,0,0-1.57,0" transform="translate(-13.963 -135.565)" fill="#fff" fill-rule="evenodd"/>
          <path id="Trazado_1278650" data-name="Trazado 1278650" d="M166.443,75.266A53.353,53.353,0,1,0,219.8,128.619a53.354,53.354,0,0,0-53.352-53.353" transform="translate(10.372 -34.114)" fill="#9da6d2" fill-rule="evenodd"/>
          <path id="Trazado_1278651" data-name="Trazado 1278651" d="M166.577,75.266a53.358,53.358,0,0,0-53.19,49.172,53.355,53.355,0,0,0,106.381,0,53.358,53.358,0,0,0-53.19-49.172" transform="translate(10.238 -34.114)" fill="#9ed1ff" fill-rule="evenodd"/>
          <path id="Trazado_1278652" data-name="Trazado 1278652" d="M131.6,87.992a53.3,53.3,0,0,0-18.513,31.832,1.15,1.15,0,0,0,.849.4c1.809.134,5.542-.669,4.062,2.676s-1.96,4.445-.239,7.264,4.253,1.815,6.5,3.058-.4,3.205-.047,5.257.574,5.639,2.757,4.523,3.307-5.9,3.985-7.932,1.669-3.664,2.607-2.123,2.311,1.517,3.891,3.475-.385,5.019,1.811,5.342,2.458-3.679,3.372-7.321,1.6-3.993,3.349-4.054,2.265-1.038,5.573-1.072-.346,2.566.085,4.813,2.819,2.245,7.232,1.982,3.328,1.745.269,3.226-2.341,2.915-.956,6.69,1.572,3.33,2,8.663,2.779,3.332,4.117,7.728,0,7.837,4.8,8.383,3.249-2.243,5.224-8.919-.806-4.815-.173-7.775,2.664-2.059,2.521-6.407,1.29-1.816,2.779-3.555,5.678,1.166,7.829-.062,2.219-3.089,3.654-8.737-3.417-8.29-4.887-10.744,1.04-3.9.852-6.43-4.782-.721-4.107-3-.61-2.566-2.95-4.382a21.768,21.768,0,0,0-5.389-2.71c-.05-.168.191-.617,1.646-1.808,2.477-2.026,3.823-2.771.063-6.629S162.2,93.794,163.494,96.47s-1.643,3.251-3.637,1.9-3.893-1.913-8.071-2.19-7.072.144-7.216-3.2-8.482-3.225-10.632-3.895a15.268,15.268,0,0,1-2.335-1.1m-15.5,60.922a1.433,1.433,0,0,1,1.2.815,9.779,9.779,0,0,0,.5,2.023c.172.267.043.528-.078.82q-.881-1.792-1.629-3.658m3.7,7.466a.447.447,0,0,1,.25.419c-.085-.139-.166-.28-.25-.419m1.81,2.827a2.58,2.58,0,0,0,1.2-1.176c.741-1.506.043-1.992,1.171-2.127s2.127,1.768,3.035,1.768a3.16,3.16,0,0,1,2.747,1.338,8.433,8.433,0,0,0,3.919,3.656c2.055.812,1.379,2.519.8,4.39-.542,1.75.991,4.8-1.27,4.382a53.669,53.669,0,0,1-11.6-12.231m73.6,14.281a57.441,57.441,0,0,1-4.758-6.834c-3.56-5.638-6.276-6.177-5.992-8.745s5.677-3.151,8.042-7.366,4.121-7.242,10.089-8.132,7.629-.317,10.924-5.236,2.1-7.058-1.543-7.509-4.488,1.289-6.745-2.615-.05-3.013-3.437-5.324-4.673-4.016-3.6-5.253.795-1.247-1.749-3.059-1.177-4.539,2.359-5.973,4.119.338,5.331,3.325,3.344.416,6.217-1.89,2.437-4.114-.476-5.917c-2.9-1.793-4.293-3.943-.693-4.732a53.111,53.111,0,0,1,9.817,30.848,53.692,53.692,0,0,1-.828,9.416l-.237.114c-5.416,2.58-6.611,3.357-8.874,6.045s1.682,6.2.055,10.108-1.452,4.716-2.522,6.635a9.785,9.785,0,0,0-1.68,3.8,53.638,53.638,0,0,1-9.694,8.295m2.913-86.734c-2.76.268-4.155,3.16-6.789,3.9-2.705.758.023,4.2-1.527,5.851s-4.147,4.487-5.72,3.944-.719-2.929-.719-2.929c.149-1.8.625-2.606-3.338-5.428s-4.721-3.194-4.954-5.453,1.534-3.779,1.079-5.693c-.254-1.069-2.161-3.191-2.836-4.67a53.1,53.1,0,0,1,24.8,10.478m-68.013,60.019c.483.315-.257.817-.711,1.08s-.836,1.839-1.8,2.553-.633,2.679-1.979,2.924-1.259-1.081-1.091-1.706,1.107-1.153,1.259-1.808,1.366-1.178,2.139-2.307a2.079,2.079,0,0,1,2.188-.737m-11.283-1.2c.443.236.472.7,1.24,1.174s.708,1.151,1.424,1.385,1.481.3,1.5,1.239a2.458,2.458,0,0,1-.848,1.84c-.432.549-2.174.37-2.735.453s-.967-1.3-1.081-1.948-.4-.753.005-1.66c.346-.774-.77-1.044-.916-1.429-.125-.325,1.06-1.239,1.406-1.056" transform="translate(11.174 -34.572)" fill="#69d7e5" fill-rule="evenodd"/>
          <path id="Trazado_1278653" data-name="Trazado 1278653" d="M210.886,5.587c-6.252-6.6-14.226-7.481-21.55-1.957-16.808,12.676,4.092,36.646,19.681,22.986,6.928-6.071,6.378-13.726,1.868-21.029" transform="translate(-22.375 0)" fill="#ffd453" fill-rule="evenodd"/>
          <path id="Trazado_1278654" data-name="Trazado 1278654" d="M200.188,14.933a4.338,4.338,0,0,0-7.536,2.588,3.908,3.908,0,0,0,.641,7.762h16.684a3.908,3.908,0,0,0,.635-7.763c.013-.149.02-.3.02-.451a5.44,5.44,0,0,0-10.443-2.136" transform="translate(-25.431 -5.271)" fill="#fff" fill-rule="evenodd"/>
          <path id="Trazado_1278655" data-name="Trazado 1278655" d="M356.264,129.574c-14.965-16.3-37.292,5-22.738,20.347,10.652,11.234,34.74-.925,22.738-20.347" transform="translate(-247.306 -56.075)" fill="#ffd453" fill-rule="evenodd"/>
          <path id="Trazado_1278656" data-name="Trazado 1278656" d="M342.3,151.257a1.773,1.773,0,0,0,3.5-.556,10.266,10.266,0,0,1,.443-5.013,10.244,10.244,0,0,1,6.589-6.365,10.274,10.274,0,0,1,4.428-.365,1.774,1.774,0,1,0,.472-3.517A13.748,13.748,0,0,0,342.3,151.257" transform="translate(-254.333 -61.331)" fill="#fff" fill-rule="evenodd"/>
          <path id="Trazado_1278657" data-name="Trazado 1278657" d="M342.445,155.4a1.772,1.772,0,1,0,3.419-.932,5.476,5.476,0,0,1,.022-2.967,5.459,5.459,0,0,1,3.835-3.736,5.481,5.481,0,0,1,2.612-.036,1.775,1.775,0,1,0,.792-3.461A8.983,8.983,0,0,0,342.445,155.4" transform="translate(-249.562 -65.284)" fill="#fff" fill-rule="evenodd"/>
          <path id="Trazado_1278658" data-name="Trazado 1278658" d="M343.228,159.812a1.776,1.776,0,1,0,2.627-2.391.659.659,0,0,1,.044-.937.658.658,0,0,1,.44-.177.666.666,0,0,1,.449.167,1.772,1.772,0,0,0,2.363-2.642,4.214,4.214,0,0,0-5.923,5.979" transform="translate(-244.802 -69.239)" fill="#fff" fill-rule="evenodd"/>
          <path id="Trazado_1278659" data-name="Trazado 1278659" d="M67.759,170.39c7.577-6.139,8.241-14.652,2.067-22.042-12.9-15.436-36.4,3.548-23.723,19.261,6.046,7.493,13.859,6.916,21.657,2.781" transform="translate(194.784 -64.645)" fill="#ffd453" fill-rule="evenodd"/>
          <path id="Trazado_1278660" data-name="Trazado 1278660" d="M54.549,152.843a11.4,11.4,0,0,0-2.473,2.779,2.629,2.629,0,0,1-1.719,4.939,11.409,11.409,0,0,0,.214,3.714,2.629,2.629,0,0,1,2.277,4.708,11.41,11.41,0,0,0,2.78,2.473,2.629,2.629,0,0,1,4.939,1.719,11.405,11.405,0,0,0,3.714-.214,2.629,2.629,0,0,1,4.708-2.277,11.416,11.416,0,0,0,2.473-2.779,2.629,2.629,0,0,1,1.719-4.939,11.429,11.429,0,0,0-.214-3.715,2.629,2.629,0,0,1-2.278-4.707,11.386,11.386,0,0,0-2.779-2.473,2.629,2.629,0,0,1-4.939-1.719,11.406,11.406,0,0,0-3.714.214,2.629,2.629,0,0,1-4.708,2.277m5.072,4.48a4.933,4.933,0,1,1-2.293,6.588,4.932,4.932,0,0,1,2.293-6.588" transform="translate(191.258 -68.118)" fill="#fff" fill-rule="evenodd"/>
          <path id="Trazado_1278661" data-name="Trazado 1278661" d="M102.948,193.417a.3.3,0,1,0-.223.549c6.6,2.691,15.439,4.908,25.748,6.435a229.207,229.207,0,0,0,33.189,2.3,229.2,229.2,0,0,0,33.188-2.3c10.308-1.527,19.146-3.745,25.748-6.435a.3.3,0,0,0-.223-.549c-6.56,2.674-15.35,4.878-25.611,6.4a228.619,228.619,0,0,1-33.1,2.295,228.616,228.616,0,0,1-33.1-2.295c-10.261-1.52-19.052-3.724-25.611-6.4" transform="translate(15.154 -87.656)" fill="#fff" fill-rule="evenodd"/>
          <path id="Trazado_1278662" data-name="Trazado 1278662" d="M220.374,144.565a.3.3,0,1,0,.223-.549c-6.6-2.691-15.44-4.908-25.748-6.435a240.407,240.407,0,0,0-66.376,0c-10.308,1.528-19.146,3.744-25.748,6.435a.3.3,0,1,0,.223.549c6.56-2.674,15.35-4.878,25.611-6.4a239.85,239.85,0,0,1,66.2,0c10.261,1.52,19.051,3.724,25.611,6.4" transform="translate(15.155 -61.315)" fill="#fff" fill-rule="evenodd"/>
          <path id="Trazado_1278663" data-name="Trazado 1278663" d="M218.672,99.38a.3.3,0,1,0,.313-.5,82.982,82.982,0,0,0-22.794-9.6,106.941,106.941,0,0,0-52.994,0,82.986,82.986,0,0,0-22.793,9.6.3.3,0,1,0,.313.5,82.381,82.381,0,0,1,22.629-9.534,106.411,106.411,0,0,1,52.7,0,82.388,82.388,0,0,1,22.629,9.534" transform="translate(7.122 -38.952)" fill="#fff" fill-rule="evenodd"/>
          <path id="Trazado_1278664" data-name="Trazado 1278664" d="M120.717,235.137a.3.3,0,0,0-.313.5,82.948,82.948,0,0,0,22.793,9.6,106.943,106.943,0,0,0,52.995,0,82.938,82.938,0,0,0,22.793-9.6.3.3,0,1,0-.312-.5,82.386,82.386,0,0,1-22.629,9.535,106.409,106.409,0,0,1-52.7,0,82.374,82.374,0,0,1-22.629-9.535" transform="translate(7.121 -106.556)" fill="#fff" fill-rule="evenodd"/>
          <path id="Trazado_1278665" data-name="Trazado 1278665" d="M173.124,182.552a.3.3,0,0,0,.549.222c2.69-6.6,4.907-15.439,6.435-25.748a229.116,229.116,0,0,0,2.3-33.188,229.116,229.116,0,0,0-2.3-33.188C178.58,80.342,176.363,71.5,173.673,64.9a.3.3,0,0,0-.549.223c2.673,6.559,4.878,15.349,6.4,25.611a228.614,228.614,0,0,1,2.295,33.1,228.6,228.6,0,0,1-2.295,33.1c-1.52,10.262-3.725,19.051-6.4,25.612" transform="translate(14.947 -29.333)" fill="#fff" fill-rule="evenodd"/>
          <path id="Trazado_1278666" data-name="Trazado 1278666" d="M240.5,65.124a.3.3,0,1,0-.549-.223c-2.691,6.6-4.908,15.439-6.436,25.748a229.2,229.2,0,0,0-2.3,33.188,229.2,229.2,0,0,0,2.3,33.188c1.528,10.308,3.745,19.145,6.436,25.748a.3.3,0,0,0,.549-.223c-2.674-6.56-4.878-15.35-6.4-25.611a228.536,228.536,0,0,1-2.295-33.1,228.537,228.537,0,0,1,2.295-33.1c1.52-10.261,3.724-19.051,6.4-25.611" transform="translate(-74.944 -29.333)" fill="#fff" fill-rule="evenodd"/>
          <path id="Trazado_1278667" data-name="Trazado 1278667" d="M286.357,82.893a.3.3,0,0,0-.5-.313,82.958,82.958,0,0,0-9.6,22.793,106.909,106.909,0,0,0,0,52.995,82.944,82.944,0,0,0,9.6,22.793.3.3,0,1,0,.5-.313,82.356,82.356,0,0,1-9.534-22.629,106.391,106.391,0,0,1,0-52.7,82.367,82.367,0,0,1,9.534-22.629" transform="translate(-143.619 -37.366)" fill="#fff" fill-rule="evenodd"/>
          <path id="Trazado_1278668" data-name="Trazado 1278668" d="M123.807,180.849a.3.3,0,0,0,.5.313,82.945,82.945,0,0,0,9.6-22.793,106.944,106.944,0,0,0,0-52.995,82.96,82.96,0,0,0-9.6-22.793.3.3,0,0,0-.5.313,82.349,82.349,0,0,1,9.534,22.629,106.4,106.4,0,0,1,0,52.7,82.341,82.341,0,0,1-9.534,22.629" transform="translate(87.084 -37.366)" fill="#fff" fill-rule="evenodd"/>
          <path id="Trazado_1278669" data-name="Trazado 1278669" d="M160.61,62.4a60.388,60.388,0,1,0,42.7,17.687A60.2,60.2,0,0,0,160.61,62.4M118.537,80.714a59.5,59.5,0,1,1-17.427,42.072,59.315,59.315,0,0,1,17.427-42.072" transform="translate(16.206 -28.282)" fill="#fff" fill-rule="evenodd"/>
          <path id="Trazado_1278670" data-name="Trazado 1278670" d="M110.971,38.307c-6.26-6.557-14.276-7.4-21.66-2.055-17.281,12.516,3.94,36.492,19.649,23.019,6.975-5.983,6.545-13.662,2.011-20.965" transform="translate(132.393 -14.843)" fill="#ffd453" fill-rule="evenodd"/>
          <path id="Trazado_1278671" data-name="Trazado 1278671" d="M104.233,54.163l.033-.068c-.068-.787-.078-1.641-.078-2.507a.626.626,0,0,0-.008-.115.507.507,0,0,0-.189-.3.81.81,0,0,0-.5-.148,1.243,1.243,0,0,0-.235.021,2.383,2.383,0,0,0-1.412.844,2.349,2.349,0,0,0-.464,1.568,2.241,2.241,0,0,0,.581,1.578,1.184,1.184,0,0,0,.585.313,1.155,1.155,0,0,0,.646-.06,2.028,2.028,0,0,0,1.04-1.123m1.167,3.246a4.436,4.436,0,0,1-1.136.648,4.1,4.1,0,0,1-2.3.2,4.146,4.146,0,0,1-2.052-1.081,5.142,5.142,0,0,1-1.5-3.628,5.245,5.245,0,0,1,1.092-3.5A5.4,5.4,0,0,1,102.7,48.12a4.182,4.182,0,0,1,.793-.08,3.766,3.766,0,0,1,2.327.788,3.465,3.465,0,0,1,1.283,2.084,3.516,3.516,0,0,1,.067.675,16.626,16.626,0,0,0,.192,3.16c.068.314.017.507.058.512l.067.008c.319,0,.629-.288.889-.68a4.655,4.655,0,0,0,.689-1.938c.014-.119.021-.205.022-.258,0-.088,0-.177,0-.263a5.96,5.96,0,0,0-1.238-3.62,5.376,5.376,0,0,0-4.273-1.834c-.13,0-.261,0-.391,0A6.183,6.183,0,0,0,98.8,48.452a6.661,6.661,0,0,0-1.757,4.574,8.071,8.071,0,0,0,.253,2.335,5.5,5.5,0,0,0,2.073,3.1,6.751,6.751,0,0,0,3.8,1.2,10.52,10.52,0,0,0,3.026-.381,1.488,1.488,0,0,1,.768,2.876,13.432,13.432,0,0,1-3.875.473,9.705,9.705,0,0,1-5.467-1.758,8.439,8.439,0,0,1-3.2-4.74,11.016,11.016,0,0,1-.346-3.185,9.578,9.578,0,0,1,2.6-6.565,9.134,9.134,0,0,1,6.472-2.674c.17,0,.336,0,.5,0a8.238,8.238,0,0,1,6.52,2.928,8.967,8.967,0,0,1,1.9,5.448c0,.126,0,.249,0,.369,0,.2-.016.379-.034.537a7.774,7.774,0,0,1-1.166,3.242,4,4,0,0,1-3.412,2.007h-.028c-.134,0-.246-.01-.334-.02a2.628,2.628,0,0,1-1.681-.808" transform="translate(128.512 -19.809)" fill="#fff" fill-rule="evenodd"/>
          <path id="Trazado_1278672" data-name="Trazado 1278672" d="M301.444,33.54C283.792,28.164,273.669,48.571,286.3,59.6c11.458,10,29.626-2.785,23.985-17.15-1.782-4.539-4.742-6.677-8.842-8.909" transform="translate(-172.797 -14.801)" fill="#ffd453" fill-rule="evenodd"/>
          <path id="Trazado_1278673" data-name="Trazado 1278673" d="M299.964,38.622a11.324,11.324,0,1,0,8.006,3.317,11.287,11.287,0,0,0-8.006-3.317m-6.679,4.645a9.446,9.446,0,1,1-2.765,6.678,9.416,9.416,0,0,1,2.765-6.678" transform="translate(-177.1 -17.505)" fill="#fff" fill-rule="evenodd"/>
          <path id="Trazado_1278674" data-name="Trazado 1278674" d="M303.786,38.619c-1.958,0-3.687,1.346-4.9,3.523a16.369,16.369,0,0,0-1.811,7.8,16.367,16.367,0,0,0,1.811,7.8c1.212,2.177,2.94,3.523,4.9,3.523s3.687-1.347,4.9-3.523a16.36,16.36,0,0,0,1.812-7.8,16.363,16.363,0,0,0-1.812-7.8c-1.212-2.177-2.94-3.523-4.9-3.523m-3.273,4.442c.879-1.581,2.04-2.559,3.273-2.559s2.394.978,3.273,2.559a14.449,14.449,0,0,1,1.573,6.882,14.452,14.452,0,0,1-1.573,6.882c-.88,1.581-2.04,2.559-3.273,2.559s-2.394-.978-3.273-2.559a14.453,14.453,0,0,1-1.573-6.882,14.45,14.45,0,0,1,1.573-6.882" transform="translate(-180.923 -17.504)" fill="#fff" fill-rule="evenodd"/>
          <path id="Trazado_1278675" data-name="Trazado 1278675" d="M309.511,39.561a.94.94,0,0,0-1.88,0V60.327a.94.94,0,1,0,1.88,0Z" transform="translate(-185.708 -17.505)" fill="#fff" fill-rule="evenodd"/>
          <path id="Trazado_1278676" data-name="Trazado 1278676" d="M289.581,57.613a.939.939,0,1,0,0,1.879h20.767a.939.939,0,1,0,0-1.879Z" transform="translate(-177.101 -26.113)" fill="#fff" fill-rule="evenodd"/>
          <path id="Trazado_1278677" data-name="Trazado 1278677" d="M292.007,49.331a.94.94,0,1,0,0,1.879H310.12a.94.94,0,0,0,0-1.879Z" transform="translate(-178.2 -22.359)" fill="#fff" fill-rule="evenodd"/>
          <path id="Trazado_1278678" data-name="Trazado 1278678" d="M292.007,65.895a.94.94,0,1,0,0,1.879H310.12a.94.94,0,0,0,0-1.879Z" transform="translate(-178.2 -29.867)" fill="#fff" fill-rule="evenodd"/>
          <path id="Trazado_1278679" data-name="Trazado 1278679" d="M409.416,209.577c-.411,2.716.6,7.78,10.242,16.027,9.769,8.359,6.018,21.878-2.962,25.3-3.857,1.467-1.689,3.19-.723,5.55,1.325,3.241,2.344,7.949-4.957,11.443-12.622,6.041-52.09,2.171-52.09,2.171-1.846-2.426-11.939-8.947-5.2-16.912,6.5-7.685-5.078-4.967-3.987-16.3,1.04-10.811,9.437-10.774,11.886-27.355,9.024-2.968,31.3-16.988,47.8.081" transform="translate(-324.604 -91.223)" fill="#3c191e" fill-rule="evenodd"/>
          <path id="Trazado_1278680" data-name="Trazado 1278680" d="M378.39,241.922c1.789.084,5.15.638,5.7,5.781.381,3.58-2.741,7.673-6.31,7.215-9.665-1.241-3.6-13.193.61-13" transform="translate(-295.845 -109.65)" fill="#e7baa8" fill-rule="evenodd"/>
          <path id="Trazado_1278681" data-name="Trazado 1278681" d="M377.063,254.579a1.209,1.209,0,0,0-.553-2.2c.083-3.062.5-4.538,1.8-4.968a2.257,2.257,0,0,1,2.627,1.191c.816,1.428.04,6.611-3.876,5.973" transform="translate(-295.087 -112.103)" fill="#d68982" fill-rule="evenodd"/>
          <path id="Trazado_1278682" data-name="Trazado 1278682" d="M380.718,248.458a.444.444,0,1,0,.771-.438,2.924,2.924,0,0,0-1.332-1.264,2.638,2.638,0,0,0-1.82-.13A2.549,2.549,0,0,0,376.7,248.4a12.7,12.7,0,0,0-.465,3.605.445.445,0,0,0,.337.441,1.134,1.134,0,0,1,.588.336.6.6,0,0,1,.131.275.729.729,0,0,1-.018.317l-.007.03a1,1,0,0,1-.319.466.443.443,0,1,0,.566.681,1.891,1.891,0,0,0,.6-.9l.014-.043a1.585,1.585,0,0,0,.032-.709,1.479,1.479,0,0,0-.322-.682,1.856,1.856,0,0,0-.71-.511,11,11,0,0,1,.409-3.015,1.731,1.731,0,0,1,1.078-1.22,1.709,1.709,0,0,1,1.177.095,2.053,2.053,0,0,1,.926.893" transform="translate(-295.251 -111.736)" fill="#3c191e" fill-rule="evenodd"/>
          <path id="Trazado_1278683" data-name="Trazado 1278683" d="M307.243,333.534l17.664-26.9c4.635.481,9.2,2.1,12.311,6.912-5.295,12.726-15.188,48.082-31.621,44.145-9.868-2.365-29.416-17.532-29.416-17.532l-9.2-34.388c9.07.547,13.709,2.62,15.659,4.156.507.4,24.59,23.582,24.6,23.605" transform="translate(-191.191 -138.592)" fill="#344866" fill-rule="evenodd"/>
          <path id="Trazado_1278684" data-name="Trazado 1278684" d="M414.087,305.949c8.95,15.818,14.843,24.82,5.311,43.524-.507,20.039,1.925,20.087,5.074,33.991-12.865,9.009-53.88,12.69-62.391-1.828,3.482-11.556,5.324-20.131,5.569-30.238.045-1.843-2.224-4.8-2.831-9.189-.706-5.1,2.108-13.073,2.043-14.343-.764-14.7-2.427-15.464,1.653-23.65,13.634-3.63,32.024-3.159,45.571,1.733" transform="translate(-330.44 -136.806)" fill="#344866" fill-rule="evenodd"/>
          <path id="Trazado_1278685" data-name="Trazado 1278685" d="M442.647,440.969c.612.1,20.741,14.955,22.465,17.276,2.355,3.171-1.231,2.52-3.108,1.167-1.015-.732-4.194-3.576-5.329-4.6-.08.074-.162.149-.247.223a31.055,31.055,0,0,1,5.308,8.44c1.854,4.1-1.979,2.507-3.74.548-1.074-1.194-4.548-6.026-5.108-6.806l-.194.086a28.807,28.807,0,0,1,3.657,8.156c1.186,3.978-2.121,2.047-3.489.036-.885-1.3-3.734-6.686-3.877-6.957l-.227.054a25.543,25.543,0,0,1,2.58,6.934c.844,3.542-1.958,1.688-3.057-.14-.588-.978-2.314-4.828-2.961-6.281-8.7-5.825-9.536-5.192-11.7-10.413Z" transform="translate(-410.969 -199.869)" fill="#e7baa8" fill-rule="evenodd"/>
          <path id="Trazado_1278686" data-name="Trazado 1278686" d="M463.1,479.407a.444.444,0,0,0,.879-.125c0-.019-.93-6.638-4.055-10.4a.443.443,0,0,0-.681.566c2.96,3.566,3.854,9.943,3.857,9.961" transform="translate(-423.019 -212.448)" fill="#3c191e" fill-rule="evenodd"/>
          <path id="Trazado_1278687" data-name="Trazado 1278687" d="M455.058,478.618a.445.445,0,0,0,.869-.188,39.8,39.8,0,0,0-1.921-6.575,13.921,13.921,0,0,0-3.476-5.253.445.445,0,1,0-.588.667,13.064,13.064,0,0,1,3.244,4.923,38.86,38.86,0,0,1,1.872,6.427" transform="translate(-409.861 -211.437)" fill="#3c191e" fill-rule="evenodd"/>
          <path id="Trazado_1278688" data-name="Trazado 1278688" d="M444.729,477.048a.444.444,0,1,0,.838-.295,34.87,34.87,0,0,0-2.338-5.252,25.771,25.771,0,0,0-2.945-4.316.443.443,0,0,0-.674.577,24.892,24.892,0,0,1,2.84,4.167,34.037,34.037,0,0,1,2.279,5.118" transform="translate(-393.89 -211.682)" fill="#3c191e" fill-rule="evenodd"/>
          <path id="Trazado_1278689" data-name="Trazado 1278689" d="M461.317,358.5c.6,5.783,14.431,25.615,19.126,31.035a25.172,25.172,0,0,0,14.446-9.1c-6.7-8.2-7.64-18.508-13.616-26.278,0,0,10.794-10.671,17.464-23.8,3.715-7.315,1.8-16.4,1.961-23.659a22.555,22.555,0,0,0-14.357,6.985c-9.709,10.059-26.544,30.183-25.024,44.817" transform="translate(-461.221 -139.013)" fill="#344866" fill-rule="evenodd"/>
          <path id="Trazado_1278690" data-name="Trazado 1278690" d="M412.724,251.584h0a8.62,8.62,0,0,1,9.06,8.179l.893,18.542a8.743,8.743,0,0,1-8.227,9.113h0a8.62,8.62,0,0,1-9.059-8.18L404.5,260.7a8.744,8.744,0,0,1,8.227-9.113" transform="translate(-351.839 -114.025)" fill="#e7baa8" fill-rule="evenodd"/>
          <path id="Trazado_1278691" data-name="Trazado 1278691" d="M412.687,251.5h0a8.79,8.79,0,0,0-8.27,9.16l.9,18.593a8.667,8.667,0,0,0,9.054,8.174l.051,0a8.788,8.788,0,0,0,8.27-9.16l-.894-18.593a8.666,8.666,0,0,0-9.054-8.174Zm0,.09.051,0a8.576,8.576,0,0,1,8.958,8.089l.9,18.593a8.7,8.7,0,0,1-8.183,9.065l-.052,0a8.574,8.574,0,0,1-8.958-8.088l-.9-18.593a8.7,8.7,0,0,1,8.184-9.066" transform="translate(-351.802 -113.988)" fill="#344866" fill-rule="evenodd"/>
          <path id="Trazado_1278692" data-name="Trazado 1278692" d="M422.033,268.53l.674,14c-4.157,3.319-13.448,2.241-17.473-2.939l-.423-8.788Z" transform="translate(-352.037 -121.711)" fill="#d68982" fill-rule="evenodd"/>
          <path id="Trazado_1278693" data-name="Trazado 1278693" d="M408.851,248.287c-12.828,1.033-24.363-9.408-25.383-22.086l-1.131-14.05c-1.777-22.082,38.014-25.7,39.825-3.205l1.107,13.752c.933,11.592-2.407,24.622-14.417,25.589" transform="translate(-340.426 -87.811)" fill="#e7baa8" fill-rule="evenodd"/>
          <path id="Trazado_1278694" data-name="Trazado 1278694" d="M418.876,215.388c0,.02,0,.039.007.058l.67,8.33c-4.54-8.1-15.016-10.867-15.016-10.867a12.074,12.074,0,0,1-8.66,11.19c-8.757,2.822-10.9,4.573-12.066,6.714s0-11.384,2.043-13.135,15.568-9.147,18.585-9.536c2.223-.286,10.737.168,14.436,7.246" transform="translate(-337.147 -94.313)" fill="#d68982" fill-rule="evenodd"/>
          <path id="Trazado_1278695" data-name="Trazado 1278695" d="M432.35,227.222a.837.837,0,1,1-.566,1.575,5.48,5.48,0,0,0-4.9.713.84.84,0,1,1-1.005-1.346,7.244,7.244,0,0,1,6.47-.942" transform="translate(-373.569 -102.817)" fill="#3c191e" fill-rule="evenodd"/>
          <path id="Trazado_1278696" data-name="Trazado 1278696" d="M396.509,224.823a.837.837,0,1,1-.694,1.523,5.482,5.482,0,0,0-4.94.313.84.84,0,0,1-.893-1.423,7.243,7.243,0,0,1,6.527-.413" transform="translate(-318.006 -101.63)" fill="#3c191e" fill-rule="evenodd"/>
          <path id="Trazado_1278697" data-name="Trazado 1278697" d="M409.279,252.206a17.226,17.226,0,0,1,1.217,3.061c-.043.434-2.215,1.007-2.84.491-.417-.344-.071-2.028.259-3.17.448-1.555.756-1.7,1.365-.382" transform="translate(-341.276 -113.907)" fill="#f0d3c8" fill-rule="evenodd"/>
          <path id="Trazado_1278698" data-name="Trazado 1278698" d="M391.891,244.2a2.378,2.378,0,0,0,2.18-2.561,2.424,2.424,0,0,0-.1-.516l.263-.118a2.393,2.393,0,0,0,.792-.593.3.3,0,0,0-.446-.395,1.845,1.845,0,0,1-.781.524l0,0a1.93,1.93,0,0,0,.676-.828.3.3,0,0,0-.547-.234,1.381,1.381,0,0,1-.569.646l-.025-.023a1.292,1.292,0,0,0,.382-.685.3.3,0,0,0-.584-.116.74.74,0,0,1-.286.447,2.378,2.378,0,1,0-.95,4.457" transform="translate(-315.964 -108.354)" fill="#3c191e" fill-rule="evenodd"/>
          <path id="Trazado_1278699" data-name="Trazado 1278699" d="M429.931,247.269a2.378,2.378,0,0,1-2.546-2.7l-.279-.074a2.384,2.384,0,0,1-.878-.459.3.3,0,1,1,.377-.461,1.857,1.857,0,0,0,.855.392l0,0a1.935,1.935,0,0,1-.8-.709.3.3,0,1,1,.5-.318,1.385,1.385,0,0,0,.665.547l.021-.027a1.286,1.286,0,0,1-.486-.615.3.3,0,1,1,.558-.208.734.734,0,0,0,.354.394,2.378,2.378,0,1,1,1.651,4.248" transform="translate(-373.099 -109.883)" fill="#3c191e" fill-rule="evenodd"/>
          <path id="Trazado_1278700" data-name="Trazado 1278700" d="M411.014,266.539a4.2,4.2,0,1,1-8.369.674.775.775,0,0,1,.708-.832l6.828-.549a.775.775,0,0,1,.832.708" transform="translate(-339.172 -120.487)" fill="#3c191e" fill-rule="evenodd"/>
          <path id="Trazado_1278701" data-name="Trazado 1278701" d="M404.854,266.378l5.985-.482.056.707a.674.674,0,0,1-.616.724l-4.644.375a.675.675,0,0,1-.725-.617Z" transform="translate(-340.251 -120.517)" fill="#fff" fill-rule="evenodd"/>
          <path id="Trazado_1278702" data-name="Trazado 1278702" d="M410.416,271.684a4.2,4.2,0,0,1-6.064.488,4.195,4.195,0,0,1,6.064-.488" transform="translate(-339.495 -122.655)" fill="#cd5e6c" fill-rule="evenodd"/>
          <path id="Trazado_1278703" data-name="Trazado 1278703" d="M406.928,200.424c-3.114,21.146-16.9,6.8-19.831,24.7-.776-1.574-5.137-4.215-7.057-4.131-8.2-1.689-7.8-27.577,6.781-25.9.618.071.611-4.138,6.721-7.054,21.632-10.321,43.64,20.315,29.934,31.314-.455-13.44-11.8-17.939-16.548-18.927" transform="translate(-340.577 -84.279)" fill="#3c191e" fill-rule="evenodd"/>
          <path id="Trazado_1278704" data-name="Trazado 1278704" d="M449.861,248.234c-1.753.369-4.983,1.453-4.7,6.617.2,3.595,3.932,7.136,7.382,6.113,9.342-2.77,1.443-13.6-2.68-12.73" transform="translate(-408.297 -112.49)" fill="#e7baa8" fill-rule="evenodd"/>
          <path id="Trazado_1278705" data-name="Trazado 1278705" d="M457.785,260.819c-.814-.48-1.2-3.635.625-3.314-.57-3.01-1.646-3.342-3-3.557a2.257,2.257,0,0,0-2.4,1.6c-.577,1.54,1.019,6.533,4.782,5.276" transform="translate(-414.027 -115.094)" fill="#d68982" fill-rule="evenodd"/>
          <path id="Trazado_1278706" data-name="Trazado 1278706" d="M452.032,254.97a.443.443,0,1,0,.83.309,2.149,2.149,0,0,1,.954-1.189,1.694,1.694,0,0,1,1.075-.174,2.442,2.442,0,0,1,1.166.552,4.167,4.167,0,0,1,1.3,2.178,1.706,1.706,0,0,0-.672.41,2.08,2.08,0,0,0-.566,1.216,3.316,3.316,0,0,0,.09,1.283,2.048,2.048,0,0,0,.791,1.229.444.444,0,1,0,.451-.765,1.209,1.209,0,0,1-.383-.693,2.419,2.419,0,0,1-.069-.935,1.207,1.207,0,0,1,.309-.7.955.955,0,0,1,.618-.254l.047-.007a.444.444,0,0,0,.355-.518,5.239,5.239,0,0,0-1.71-3.126,3.328,3.328,0,0,0-1.594-.743,2.579,2.579,0,0,0-1.631.268,3.018,3.018,0,0,0-1.364,1.663" transform="translate(-413.471 -114.676)" fill="#3c191e" fill-rule="evenodd"/>
          <path id="Trazado_1278707" data-name="Trazado 1278707" d="M429.154,255.441a3.8,3.8,0,1,0,4.158,3.408,3.8,3.8,0,0,0-4.158-3.408" transform="translate(-374.097 -115.77)" fill="#d68982" fill-rule="evenodd"/>
          <path id="Trazado_1278708" data-name="Trazado 1278708" d="M387.431,251.274a3.8,3.8,0,1,0,4.159,3.408,3.8,3.8,0,0,0-4.159-3.408" transform="translate(-309.562 -113.882)" fill="#d68982" fill-rule="evenodd"/>
          <path id="Trazado_1278709" data-name="Trazado 1278709" d="M407.139,258.354a.443.443,0,1,0,.021.886,3.755,3.755,0,0,0,2.581-1.017.445.445,0,0,0-.713-.532c-.478.641-1.886.663-1.89.663" transform="translate(-340.195 -116.718)" fill="#3c191e" fill-rule="evenodd"/>
          <path id="Trazado_1278710" data-name="Trazado 1278710" d="M403.879,299.1a19.8,19.8,0,0,1-7.29,9.628c9.091,14.919,15.434-6.475,7.29-9.628" transform="translate(-332.466 -135.568)" fill="#344866" fill-rule="evenodd"/>
          <path id="Trazado_1278711" data-name="Trazado 1278711" d="M420.048,296.977c2.038,4.586,5.736,8.14,10.888,10.789-8.293,17.876-19.885-6.916-10.888-10.789" transform="translate(-366.814 -134.605)" fill="#344866" fill-rule="evenodd"/>
          <path id="Trazado_1278712" data-name="Trazado 1278712" d="M508.166,392.507a.444.444,0,0,0,.261-.848c-.021-.006-7.337-2.328-11.1-.289a.445.445,0,1,0,.424.782c3.429-1.859,10.392.349,10.412.355" transform="translate(-488.528 -177.009)" fill="#3c191e" fill-rule="evenodd"/>
          <path id="Trazado_1278713" data-name="Trazado 1278713" d="M506.662,388.2a.445.445,0,0,0,.667-.588c-.012-.013-4.027-4.611-8.5-5.282a.444.444,0,1,0-.129.879c4.15.622,7.955,4.979,7.966,4.991" transform="translate(-487.894 -173.289)" fill="#3c191e" fill-rule="evenodd"/>
          <path id="Trazado_1278714" data-name="Trazado 1278714" d="M418.133,390.769a.444.444,0,1,0,.407-.788c-.028-.015-9.565-5.1-28.556-.467a.443.443,0,0,0,.208.862c18.667-4.553,27.914.379,27.942.393" transform="translate(-339.818 -175.665)" fill="#3c191e" fill-rule="evenodd"/>
          <path id="Trazado_1278715" data-name="Trazado 1278715" d="M394.844,308.009a.443.443,0,1,0-.7.542c3.581,4.623,6.395,6.448,8.458,6.547a3.539,3.539,0,0,0,3.4-2.154h0a10.253,10.253,0,0,0,.915-4.92c-.124-4.033-1.932-8.593-5.267-9.884a.443.443,0,1,0-.32.827c2.971,1.15,4.586,5.347,4.7,9.08a9.38,9.38,0,0,1-.817,4.486h0a2.712,2.712,0,0,1-2.574,1.677c-1.823-.087-4.4-1.815-7.8-6.2" transform="translate(-330.37 -135.119)" fill="#3c191e" fill-rule="evenodd"/>
          <path id="Trazado_1278716" data-name="Trazado 1278716" d="M430.8,307.507a.443.443,0,1,0-.785-.41c-2.488,4.77-4.827,6.787-6.815,7.058a4.086,4.086,0,0,1-3.7-1.781,12.48,12.48,0,0,1-2.289-5.2c-.843-3.986-.245-8.486,2.541-10.189a.444.444,0,0,0-.462-.758c-3.145,1.923-3.858,6.825-2.947,11.131a13.364,13.364,0,0,0,2.469,5.573,4.924,4.924,0,0,0,4.508,2.1c2.256-.308,4.84-2.463,7.482-7.528" transform="translate(-366.286 -134.237)" fill="#3c191e" fill-rule="evenodd"/>
          <path id="Trazado_1278717" data-name="Trazado 1278717" d="M241.936,301.9s-2.8-5.99-1.782-9.255a36.822,36.822,0,0,1,3.282-8.065c2.4-3.6,3.6-3.235,4.269-2.868s-.967,7.137-.967,7.137,1.6-.749,3.919-1.689c1.227-.76,8.006-5.545,9.371-4.275.206.191.008.8-.967,1.68-1.772,1.593-2.762,1.948-4.153,3.345,1.523-.952,8.207-5.509,9.712-4.211.924.8-2.635,2.329-5.9,5.388a30.82,30.82,0,0,1,5.315-2.85c2.538-1.277,5.344-.751,2.105,1.224a17.661,17.661,0,0,0-4.6,3.789c4.429-2.638,6.356-3.112,6.735-2.451.4.7-1.675,1.872-4.908,4.164A110.985,110.985,0,0,0,249.26,304.6Z" transform="translate(-107.511 -127.584)" fill="#e7baa8" fill-rule="evenodd"/>
          <path id="Trazado_1278718" data-name="Trazado 1278718" d="M262.79,297.217a.444.444,0,0,0,.647-.608,14.115,14.115,0,0,0-4.464-3.189,19.391,19.391,0,0,0-7.446-1.623.443.443,0,1,0-.031.886,18.523,18.523,0,0,1,7.109,1.542,13.225,13.225,0,0,1,4.185,2.991" transform="translate(-108.828 -132.257)" fill="#3c191e" fill-rule="evenodd"/>
          <path id="Trazado_1278719" data-name="Trazado 1278719" d="M275.545,294.251a.444.444,0,0,0-.6.657,6.347,6.347,0,0,1,1.493,6.845.444.444,0,1,0,.831.313,7.259,7.259,0,0,0-1.726-7.815" transform="translate(-136.02 -133.317)" fill="#3c191e" fill-rule="evenodd"/>
          <path id="Trazado_1278720" data-name="Trazado 1278720" d="M260.122,284.715a.444.444,0,1,0-.577-.674c-.008.007-3.17,2.714-5.18,4.657a.444.444,0,0,0,.615.639c1.991-1.923,5.133-4.614,5.143-4.622" transform="translate(-107.276 -128.693)" fill="#3c191e" fill-rule="evenodd"/>
          <path id="Trazado_1278721" data-name="Trazado 1278721" d="M252.984,286.34a.443.443,0,1,0-.514-.723c-.013.009-4.516,3.238-6.631,5.137a.443.443,0,1,0,.59.66c2.073-1.861,6.542-5.065,6.555-5.074" transform="translate(-95.501 -129.419)" fill="#3c191e" fill-rule="evenodd"/>
          <path id="Trazado_1278722" data-name="Trazado 1278722" d="M247.171,290.582a.444.444,0,0,0-.48-.747,38.89,38.89,0,0,0-6.171,4.872.443.443,0,0,0,.664.587,38.072,38.072,0,0,1,5.986-4.712" transform="translate(-86.818 -131.336)" fill="#3c191e" fill-rule="evenodd"/>
          <path id="Trazado_1278723" data-name="Trazado 1278723" d="M387.73,230.2a6.582,6.582,0,1,1-4.653,1.927,6.564,6.564,0,0,1,4.653-1.927m5.913.67a8.361,8.361,0,1,0,2.449,5.912,8.336,8.336,0,0,0-2.449-5.912" transform="translate(-311.512 -103.533)" fill="#ffb851" fill-rule="evenodd"/>
          <path id="Trazado_1278724" data-name="Trazado 1278724" d="M410.7,278.526a2.3,2.3,0,1,1-4.595.37.425.425,0,0,1,.389-.457l3.749-.3a.425.425,0,0,1,.458.388" transform="translate(-340.739 -126.065)" fill="#d68982" fill-rule="evenodd"/>
          <path id="Trazado_1278725" data-name="Trazado 1278725" d="M366.5,352.076a.443.443,0,1,0,.851.246c1.991-6.881.124-14.3-1.3-19.971-.288-1.143-.558-2.214-.762-3.137a16.07,16.07,0,0,1,.294-4.326,23.84,23.84,0,0,0,.306-2.785A.443.443,0,0,0,365,322.1a23.953,23.953,0,0,1-.3,2.667,16.182,16.182,0,0,0-.28,4.643c.225,1.014.487,2.053.765,3.16,1.4,5.574,3.238,12.862,1.314,19.51" transform="translate(-275.412 -145.791)" fill="#3c191e" fill-rule="evenodd"/>
          <path id="Trazado_1278726" data-name="Trazado 1278726" d="M326.211,353.433a.443.443,0,1,0-.706-.535c-2.425,3.194-6.05,10.745-6.06,10.767a.443.443,0,0,0,.8.382c.01-.021,3.6-7.493,5.967-10.614" transform="translate(-208.934 -159.871)" fill="#3c191e" fill-rule="evenodd"/>
          <path id="Trazado_1278727" data-name="Trazado 1278727" d="M329.277,358.091a.445.445,0,0,0-.077-.886c-2.771.244-6.856,2.806-6.867,2.814a.443.443,0,0,0,.472.751c.011-.007,3.908-2.453,6.472-2.679" transform="translate(-213.805 -161.903)" fill="#3c191e" fill-rule="evenodd"/>
          <path id="Trazado_1278728" data-name="Trazado 1278728" d="M424.665,231.774a6.583,6.583,0,1,1-4.654,1.928,6.559,6.559,0,0,1,4.654-1.928m5.912.67a8.363,8.363,0,1,0,2.448,5.913,8.334,8.334,0,0,0-2.448-5.913" transform="translate(-368.64 -104.245)" fill="#ffb851" fill-rule="evenodd"/>
          <path id="Trazado_1278729" data-name="Trazado 1278729" d="M464.508,349.678a.443.443,0,0,0,.886-.017,38.7,38.7,0,0,1,1.749-11.2,45.523,45.523,0,0,0,1.388-6.472,28.536,28.536,0,0,0,.088-5.741,20.436,20.436,0,0,0-1.055-5.136.443.443,0,0,0-.831.309,19.513,19.513,0,0,1,1,4.9,27.632,27.632,0,0,1-.084,5.564,44.9,44.9,0,0,1-1.364,6.347,39.411,39.411,0,0,0-1.777,11.445" transform="translate(-430.689 -145.413)" fill="#3c191e" fill-rule="evenodd"/>
          <path id="Trazado_1278730" data-name="Trazado 1278730" d="M414.058,316.037a.444.444,0,0,0-.879.122,160.918,160.918,0,0,1,1.252,21.122.443.443,0,0,0,.886.007,162.015,162.015,0,0,0-1.259-21.251" transform="translate(-349.225 -143.07)" fill="#3c191e" fill-rule="evenodd"/>
          <path id="Trazado_1278731" data-name="Trazado 1278731" d="M412.464,244.816a.888.888,0,0,0,.528-1.7,7.482,7.482,0,0,0-2.95-.231,5.72,5.72,0,0,0-2.615.907.887.887,0,1,0,1.028,1.445,3.967,3.967,0,0,1,1.789-.586,5.615,5.615,0,0,1,2.219.162" transform="translate(-344.173 -110.066)" fill="#ffb851" fill-rule="evenodd"/>
          <path id="Trazado_1278732" data-name="Trazado 1278732" d="M449.2,246.251a.888.888,0,0,0,.528-1.7,7.45,7.45,0,0,0-2.95-.231,5.717,5.717,0,0,0-2.615.906.887.887,0,0,0,1.029,1.446,3.96,3.96,0,0,1,1.788-.586,5.63,5.63,0,0,1,2.22.162" transform="translate(-400.999 -110.716)" fill="#ffb851" fill-rule="evenodd"/>
          <path id="Trazado_1278733" data-name="Trazado 1278733" d="M434.305,194.539c-6.616,5.755-17.287,10.972-26.731,13.009a41.679,41.679,0,0,1-4.9.772l-1.209.11q-.834.075-1.6.142a22.132,22.132,0,0,1,.465-3.387q1-.184,2.036-.4c1.856-.389,3.78-.859,5.69-1.428,5.422-1.615,10.735-4.019,14.082-7.592q.16-.171.316-.34a53.218,53.218,0,0,0,4.193-5.109,36.063,36.063,0,0,0,2.651-4.264,23.311,23.311,0,0,1,9.8,3.114,19.494,19.494,0,0,1-2,2.64,30.982,30.982,0,0,1-2.788,2.732" transform="translate(-365.719 -84.329)" fill="#582e32" fill-rule="evenodd"/>
          <path id="Trazado_1278734" data-name="Trazado 1278734" d="M315.335,370.73H264.482c-7.159,0-7.553.177-10.242,6.8l-16.366,40.286h64.14q7.925-19.507,15.85-39.014c2.285-5.625,3.05-8.068-2.527-8.068" transform="translate(-157.642 -168.034)" fill="#fff" fill-rule="evenodd"/>
          <path id="Trazado_1278735" data-name="Trazado 1278735" d="M371.166,456.844H271.592a1.579,1.579,0,1,0,0,3.158h99.574a1.579,1.579,0,0,0,0-3.158" transform="translate(-228.374 -207.065)" fill="#ebedee" fill-rule="evenodd"/>
          <path id="Trazado_1278736" data-name="Trazado 1278736" d="M317.573,374.585a.445.445,0,0,0,0-.89H266.719c-3.668,0-5.606.048-7.042.989s-2.233,2.689-3.613,6.086l-14.618,35.984a.444.444,0,1,0,.823.333L256.888,381.1c1.309-3.224,2.055-4.875,3.277-5.676s3.062-.842,6.554-.842Z" transform="translate(-158.01 -169.377)" fill="#3c191e" fill-rule="evenodd"/>
          <path id="Trazado_1278737" data-name="Trazado 1278737" d="M301.3,411c-2.026.795-2.836,1.014-3.3,1.428s-.581,1.03-1.22,2.62-1.013,2.208-.883,2.623.765.632,2.153,1.427,1.819,1.194,2.412,1.194,1.348-.4,3.371-1.194,2.835-1.011,3.3-1.427.582-1.031,1.22-2.623,1.014-2.205.884-2.62-.766-.633-2.152-1.428-1.819-1.194-2.414-1.194-1.346.4-3.369,1.194" transform="translate(-179.03 -185.745)" fill="#ebedee" fill-rule="evenodd"/>
          <path id="Trazado_1278738" data-name="Trazado 1278738" d="M295.987,419.344a.444.444,0,1,0-.848.264,7.235,7.235,0,0,0,2.291,1.711,10.014,10.014,0,0,0,2.7,1.223,21.286,21.286,0,0,0,3.545-1.179,21.912,21.912,0,0,0,3.422-1.556h0a12.393,12.393,0,0,0,1.4-2.81,8.732,8.732,0,0,0,.827-2.895.444.444,0,1,0-.847.264,14.107,14.107,0,0,1-.8,2.3,13.651,13.651,0,0,1-1.171,2.48h0a24.441,24.441,0,0,1-3.151,1.389,24.087,24.087,0,0,1-3.221,1.117,11.228,11.228,0,0,1-2.256-1.1,12.375,12.375,0,0,1-1.885-1.2" transform="translate(-178.695 -187.55)" fill="#3c191e" fill-rule="evenodd"/>
          <path id="Trazado_1278739" data-name="Trazado 1278739" d="M368.032,462.621H173.966v5.385H368.032a2.7,2.7,0,1,0,0-5.385" transform="translate(-173.966 -209.683)" fill="#944f4e" fill-rule="evenodd"/>
          <rect id="Rectángulo_462582" data-name="Rectángulo 462582" width="192.02" height="15.916" transform="translate(0 258.323)" fill="#582e32"/>
          <path id="Trazado_1278740" data-name="Trazado 1278740" d="M461.719,57.326c6.66,0,7.236-9.078-1.126-8.529,2.3-6.588-8.656-10.975-11.63-4.226A4.549,4.549,0,0,0,440.436,47c-2.839-3.955-9.81-.615-7.619,4.269-5.8,0-5.731,6.06-.4,6.06Z" transform="translate(-409.041 -18.671)" fill="#cfe8ff" fill-rule="evenodd"/>
        </g>
      </g>
      <g id="Grupo_1213009" data-name="Grupo 1213009" transform="translate(196.286 175.347)">
        <g id="Grupo_1213008" data-name="Grupo 1213008" clip-path="url(#clip-path-4)">
          <path id="Trazado_1278741" data-name="Trazado 1278741" d="M88.757,368.858s-1.015-5.248-.593-8.185c.417-2.9,2.808-2.856,3.144-.141.218,1.762-.786,4.848-2.551,8.326" transform="translate(-33.923 -331.836)" fill="#69d7e5" fill-rule="evenodd"/>
          <path id="Trazado_1278742" data-name="Trazado 1278742" d="M88.594,367.055a26.877,26.877,0,0,1-.359-6.687,2.4,2.4,0,0,1,.774-1.651.709.709,0,0,1,.41-.144.679.679,0,0,1,.4.141,2.144,2.144,0,0,1,.683,1.5,8.461,8.461,0,0,1-.488,3.251,28.121,28.121,0,0,1-1.416,3.586m-1.238-6.812c-.433,3.012.593,8.314.6,8.329a.444.444,0,0,0,.833.118,32.012,32.012,0,0,0,2.073-4.963,9.277,9.277,0,0,0,.523-3.617A2.985,2.985,0,0,0,90.335,358a1.55,1.55,0,0,0-.917-.311,1.579,1.579,0,0,0-.924.307,3.241,3.241,0,0,0-1.139,2.248" transform="translate(-33.555 -331.469)" fill="#69d7e5" fill-rule="evenodd"/>
          <path id="Trazado_1278743" data-name="Trazado 1278743" d="M80.036,376.441s-.386-5.287.386-8.193c.762-2.865,3.139-2.7,3.149.028.007,1.769-1.361,4.792-3.535,8.165" transform="translate(-21.717 -335.311)" fill="#69d7e5" fill-rule="evenodd"/>
          <path id="Trazado_1278744" data-name="Trazado 1278744" d="M80.043,374.636a26.81,26.81,0,0,1,.441-6.643,2.577,2.577,0,0,1,1.021-1.646.734.734,0,0,1,.43-.1.623.623,0,0,1,.36.172,2.032,2.032,0,0,1,.466,1.493,8.819,8.819,0,0,1-.877,3.221,30.4,30.4,0,0,1-1.841,3.505m-.417-6.869c-.791,2.979-.4,8.321-.4,8.336a.444.444,0,0,0,.817.21,34.572,34.572,0,0,0,2.654-4.831,9.624,9.624,0,0,0,.95-3.573,2.868,2.868,0,0,0-.752-2.142,1.491,1.491,0,0,0-.874-.405,1.6,1.6,0,0,0-.946.21,3.415,3.415,0,0,0-1.448,2.2" transform="translate(-21.35 -334.943)" fill="#69d7e5" fill-rule="evenodd"/>
          <path id="Trazado_1278745" data-name="Trazado 1278745" d="M105.24,376.993s-3.4-4.057-4.411-6.8c-1-2.7,1.165-3.8,2.752-1.61,1.031,1.422,1.592,4.565,1.658,8.409" transform="translate(-54.669 -335.879)" fill="#69d7e5" fill-rule="evenodd"/>
          <path id="Trazado_1278746" data-name="Trazado 1278746" d="M104.385,375.3a25.91,25.91,0,0,1-3.506-5.63,2.315,2.315,0,0,1-.094-1.773.684.684,0,0,1,.74-.4,2.117,2.117,0,0,1,1.33.974,8.06,8.06,0,0,1,1.1,3.035,26.82,26.82,0,0,1,.432,3.792m-4.34-5.324c1.04,2.816,4.475,6.917,4.485,6.93h0a.443.443,0,0,0,.784-.289,30.694,30.694,0,0,0-.491-5.278,8.881,8.881,0,0,0-1.251-3.385,2.967,2.967,0,0,0-1.945-1.336,1.567,1.567,0,0,0-1.639.888,3.143,3.143,0,0,0,.055,2.471" transform="translate(-54.301 -335.511)" fill="#69d7e5" fill-rule="evenodd"/>
          <path id="Trazado_1278747" data-name="Trazado 1278747" d="M76.213,393.939s-.5-5.273.207-8.194c.7-2.879,3.081-2.761,3.151-.039.045,1.767-1.258,4.817-3.359,8.234" transform="translate(-15.587 -343.224)" fill="#69d7e5" fill-rule="evenodd"/>
          <path id="Trazado_1278748" data-name="Trazado 1278748" d="M76.187,392.126a26.7,26.7,0,0,1,.3-6.645,2.567,2.567,0,0,1,.987-1.668.728.728,0,0,1,.425-.111.628.628,0,0,1,.366.165,2.028,2.028,0,0,1,.5,1.481,8.8,8.8,0,0,1-.809,3.236,30.285,30.285,0,0,1-1.766,3.542m-.565-6.854c-.693,2.856-.262,7.842-.22,8.3a.444.444,0,0,0,.823.227,34.436,34.436,0,0,0,2.552-4.886,9.571,9.571,0,0,0,.871-3.59,2.868,2.868,0,0,0-.8-2.124,1.5,1.5,0,0,0-.883-.387,1.611,1.611,0,0,0-.944.232,3.407,3.407,0,0,0-1.4,2.223" transform="translate(-15.219 -342.856)" fill="#69d7e5" fill-rule="evenodd"/>
          <path id="Trazado_1278749" data-name="Trazado 1278749" d="M105.309,397.711s-4.336-3.042-6.013-5.418c-1.654-2.342.183-3.938,2.283-2.236,1.364,1.106,2.7,3.981,3.73,7.654" transform="translate(-53.688 -345.818)" fill="#69d7e5" fill-rule="evenodd"/>
          <path id="Trazado_1278750" data-name="Trazado 1278750" d="M104.137,396.2a25.838,25.838,0,0,1-4.847-4.531,2.262,2.262,0,0,1-.537-1.659.72.72,0,0,1,.209-.393.744.744,0,0,1,.409-.184,2.143,2.143,0,0,1,1.559.6,7.95,7.95,0,0,1,1.833,2.636,26.412,26.412,0,0,1,1.374,3.531m-5.574-4.021c1.723,2.441,6.109,5.518,6.122,5.527a.444.444,0,0,0,.682-.483,29.976,29.976,0,0,0-1.805-4.943,8.758,8.758,0,0,0-2.073-2.935,3,3,0,0,0-2.243-.792,1.623,1.623,0,0,0-.889.414,1.6,1.6,0,0,0-.473.866,3.1,3.1,0,0,0,.679,2.347" transform="translate(-53.319 -345.45)" fill="#69d7e5" fill-rule="evenodd"/>
          <path id="Trazado_1278751" data-name="Trazado 1278751" d="M74.563,410.59s-1.335-5.1-1.1-8.079c.237-2.938,2.621-3.2,3.121-.539.326,1.728-.483,4.93-2.026,8.618" transform="translate(-11.252 -350.706)" fill="#69d7e5" fill-rule="evenodd"/>
          <path id="Trazado_1278752" data-name="Trazado 1278752" d="M74.3,408.757a26.292,26.292,0,0,1-.761-6.58,2.544,2.544,0,0,1,.71-1.789.755.755,0,0,1,.41-.179.644.644,0,0,1,.395.106,2,2,0,0,1,.728,1.371,8.651,8.651,0,0,1-.288,3.3,30.027,30.027,0,0,1-1.194,3.768m-1.647-6.65c-.235,2.923.994,7.779,1.1,8.194a.444.444,0,0,0,.846.091,34.1,34.1,0,0,0,1.758-5.2,9.45,9.45,0,0,0,.3-3.668,2.845,2.845,0,0,0-1.128-1.959,1.521,1.521,0,0,0-.937-.241,1.62,1.62,0,0,0-.9.378,3.389,3.389,0,0,0-1.037,2.407" transform="translate(-10.885 -350.337)" fill="#69d7e5" fill-rule="evenodd"/>
          <path id="Trazado_1278753" data-name="Trazado 1278753" d="M101.036,417.877s-4.787-2.3-6.83-4.367c-2.013-2.038-.443-3.9,1.911-2.557,1.529.869,3.314,3.482,4.919,6.925" transform="translate(-46.477 -355.405)" fill="#69d7e5" fill-rule="evenodd"/>
          <path id="Trazado_1278754" data-name="Trazado 1278754" d="M99.689,416.515a25.959,25.959,0,0,1-5.535-3.684,2.243,2.243,0,0,1-.8-1.535.719.719,0,0,1,.142-.42.746.746,0,0,1,.374-.247,2.173,2.173,0,0,1,1.656.342,7.936,7.936,0,0,1,2.238,2.3,26.1,26.1,0,0,1,1.921,3.247m-6.168-3.062c2.015,2.04,6.558,4.265,6.928,4.444a.445.445,0,0,0,.621-.576,29.714,29.714,0,0,0-2.58-4.568,8.736,8.736,0,0,0-2.523-2.554,3.023,3.023,0,0,0-2.358-.418,1.625,1.625,0,0,0-.812.553,1.6,1.6,0,0,0-.326.93,3.079,3.079,0,0,0,1.049,2.189" transform="translate(-46.109 -355.038)" fill="#69d7e5" fill-rule="evenodd"/>
          <path id="Trazado_1278755" data-name="Trazado 1278755" d="M71.358,423.6s-1.985-4.864-2.128-7.838c-.141-2.931,2.2-3.5,3.04-.932.547,1.665.152,4.93-.911,8.769" transform="translate(-4.801 -356.63)" fill="#69d7e5" fill-rule="evenodd"/>
          <path id="Trazado_1278756" data-name="Trazado 1278756" d="M70.912,421.78a25.963,25.963,0,0,1-1.607-6.4,2.525,2.525,0,0,1,.477-1.855.761.761,0,0,1,.386-.232.658.658,0,0,1,.412.054,2,2,0,0,1,.9,1.26,8.573,8.573,0,0,1,.138,3.3,29.867,29.867,0,0,1-.706,3.88m-2.493-6.361c.148,3.053,2.154,7.969,2.16,7.984a.444.444,0,0,0,.839-.048A33.85,33.85,0,0,0,72.5,417.99a9.328,9.328,0,0,0-.177-3.661,2.842,2.842,0,0,0-1.376-1.792,1.532,1.532,0,0,0-.961-.116,1.637,1.637,0,0,0-.849.49,3.366,3.366,0,0,0-.72,2.508" transform="translate(-4.434 -356.262)" fill="#69d7e5" fill-rule="evenodd"/>
          <path id="Trazado_1278757" data-name="Trazado 1278757" d="M95.2,433.58s-5.064-1.657-7.364-3.436c-2.266-1.754-.942-3.791,1.576-2.771,1.635.663,3.748,3.014,5.788,6.207" transform="translate(-37.033 -362.929)" fill="#69d7e5" fill-rule="evenodd"/>
          <path id="Trazado_1278758" data-name="Trazado 1278758" d="M93.738,432.355a26.183,26.183,0,0,1-5.995-2.931,2.23,2.23,0,0,1-.986-1.406.714.714,0,0,1,.085-.431.75.75,0,0,1,.338-.293h0a2.2,2.2,0,0,1,1.7.124,7.932,7.932,0,0,1,2.525,1.981,25.987,25.987,0,0,1,2.332,2.957M87.2,430.126c2.328,1.8,7.342,3.455,7.492,3.5a.443.443,0,0,0,.517-.657,29.674,29.674,0,0,0-3.155-4.181,8.762,8.762,0,0,0-2.841-2.2,3.042,3.042,0,0,0-2.408-.106,1.632,1.632,0,0,0-.732.652v0a1.582,1.582,0,0,0-.2.962,3.071,3.071,0,0,0,1.327,2.023" transform="translate(-36.665 -362.561)" fill="#69d7e5" fill-rule="evenodd"/>
          <path id="Trazado_1278759" data-name="Trazado 1278759" d="M61.362,439.513s-2.072-5.149-2.008-8.147c.062-2.955,3.019-3.192,3.856-.507.543,1.744-.213,4.958-1.847,8.654" transform="translate(9.727 -363.785)" fill="#69d7e5" fill-rule="evenodd"/>
          <path id="Trazado_1278760" data-name="Trazado 1278760" d="M61.019,437.951a23.623,23.623,0,0,1-1.589-6.945,2.19,2.19,0,0,1,.624-1.663,1.135,1.135,0,0,1,.593-.271,1.212,1.212,0,0,1,.661.108,2.23,2.23,0,0,1,1.109,1.443,6.911,6.911,0,0,1-.1,3.282,24.579,24.579,0,0,1-1.3,4.047m-2.476-6.963c-.063,2.983,1.89,7.946,2.031,8.3a.444.444,0,0,0,.827.034,27.675,27.675,0,0,0,1.787-5.235,7.729,7.729,0,0,0,.078-3.73,3.1,3.1,0,0,0-1.589-1.988,2.09,2.09,0,0,0-1.144-.178,2.018,2.018,0,0,0-1.059.479,3.044,3.044,0,0,0-.931,2.315" transform="translate(10.095 -363.417)" fill="#69d7e5" fill-rule="evenodd"/>
          <path id="Trazado_1278761" data-name="Trazado 1278761" d="M92.838,446.6s-6.16-2.37-8.874-4.475c-2.675-2.075-.862-3.928,2.184-2.553,1.978.893,4.414,3.544,6.691,7.029" transform="translate(-32.473 -368.367)" fill="#69d7e5" fill-rule="evenodd"/>
          <path id="Trazado_1278762" data-name="Trazado 1278762" d="M91.283,445.275a38.675,38.675,0,0,1-7.417-3.868,2.562,2.562,0,0,1-1.121-1.483.546.546,0,0,1,.08-.38.774.774,0,0,1,.384-.271,3.364,3.364,0,0,1,2.388.337,10.508,10.508,0,0,1,3.026,2.371,29.132,29.132,0,0,1,2.661,3.294m-7.959-3.166c2.662,2.065,8.507,4.352,8.957,4.527a.444.444,0,0,0,.56-.646,32.891,32.891,0,0,0-3.576-4.621,11.392,11.392,0,0,0-3.3-2.569,4.209,4.209,0,0,0-3.056-.36,1.642,1.642,0,0,0-.814.6,1.406,1.406,0,0,0-.23.984,3.37,3.37,0,0,0,1.462,2.082" transform="translate(-32.104 -368.001)" fill="#69d7e5" fill-rule="evenodd"/>
          <path id="Trazado_1278763" data-name="Trazado 1278763" d="M62.845,366.718a.445.445,0,0,0-.886-.069c-.132,1.6-.313,3.045-.484,4.417-.75,5.987-1.334,10.642,2.832,22.748a114.856,114.856,0,0,0,7.457,16.559c2.934,5.619,5.445,10.427,6.255,16.039a.444.444,0,0,0,.879-.125c-.832-5.759-3.376-10.63-6.349-16.324a113.994,113.994,0,0,1-7.4-16.437c-4.1-11.91-3.526-16.477-2.79-22.351.172-1.373.353-2.817.488-4.455" transform="translate(-6.66 -335.344)" fill="#69d7e5" fill-rule="evenodd"/>
          <path id="Trazado_1278764" data-name="Trazado 1278764" d="M95.729,373.309a.445.445,0,0,0-.887-.069c-.356,4.338-3.179,9.759-4.144,11.5-1.253-1.63-5.09-6.966-6.523-12.941a.443.443,0,0,0-.863.205c1.773,7.384,7.089,13.793,7.1,13.812a.473.473,0,0,0,.118.1.444.444,0,0,0,.607-.159c.011-.02,4.14-7.011,4.588-12.45" transform="translate(-35.714 -337.712)" fill="#69d7e5" fill-rule="evenodd"/>
          <path id="Trazado_1278765" data-name="Trazado 1278765" d="M93.889,387.043a.444.444,0,0,0-.873-.163c-.956,5.047-3.814,12.2-4.624,14.172-1.549-1.179-6.745-5.381-9.689-10.837a.444.444,0,0,0-.782.42c3.583,6.64,10.386,11.459,10.406,11.474a.576.576,0,0,0,.085.046.444.444,0,0,0,.581-.237c.011-.025,3.763-8.89,4.9-14.875" transform="translate(-30.91 -344.536)" fill="#69d7e5" fill-rule="evenodd"/>
          <path id="Trazado_1278766" data-name="Trazado 1278766" d="M90.759,403.463a.443.443,0,0,0-.886-.025c-.148,5.1-1.851,12.589-2.342,14.653-1.72-.909-7.551-4.212-11.344-9.108a.443.443,0,1,0-.7.541c4.457,5.753,11.63,9.358,12.124,9.6a.415.415,0,0,0,.116.047.445.445,0,0,0,.537-.325c.006-.027,2.322-9.32,2.5-15.385" transform="translate(-26.418 -352.01)" fill="#69d7e5" fill-rule="evenodd"/>
          <path id="Trazado_1278767" data-name="Trazado 1278767" d="M85.681,416.43a.443.443,0,1,0-.882.086c.507,5.059-.227,12.665-.452,14.768-1.827-.675-8.066-3.191-12.474-7.541a.444.444,0,1,0-.622.633c5.227,5.158,12.926,7.8,13.317,7.93a.444.444,0,0,0,.6-.364c0-.028,1.116-9.5.512-15.511" transform="translate(-19.183 -357.912)" fill="#69d7e5" fill-rule="evenodd"/>
          <path id="Trazado_1278768" data-name="Trazado 1278768" d="M80.592,432.317a.443.443,0,1,0-.886.035c.222,5.159-1.329,12.722-1.768,14.74-2-.834-9.831-4.285-15.1-9.4a.444.444,0,0,0-.619.636c6.211,6.027,15.848,9.775,15.875,9.786s.043.014.065.019a.443.443,0,0,0,.531-.333c.007-.027,2.164-9.371,1.9-15.483" transform="translate(-8.998 -365.101)" fill="#69d7e5" fill-rule="evenodd"/>
          <path id="Trazado_1278769" data-name="Trazado 1278769" d="M17.206,340.017c-.69,8.543-.27,11.295,5.723,14.764s9.361,6.774,6.773,14.568-6.02,11.638,7.479,21.846S26.873,425.67,26.873,425.67s-18.98-16.2-19.24-26.661S14,383,3.715,373.88s4.208-15.108,2.788-21.1c-.784-3.312-2.467-5.816-3.431-8.251-5.051-12.756,14.824-13.051,14.134-4.507" transform="translate(64.237 -320.814)" fill="#ffd453" fill-rule="evenodd"/>
          <path id="Trazado_1278770" data-name="Trazado 1278770" d="M28.773,342.148A.444.444,0,0,0,27.9,342a17.16,17.16,0,0,0,.195,5.751,56.094,56.094,0,0,0,1.667,6.538l.006.019c3.517,11.478,7.778,28.2,10.638,42.954,2.27,11.709,3.656,22.164,3.081,27.745a.444.444,0,0,0,.883.091c.584-5.677-.808-16.221-3.091-28-2.865-14.778-7.136-31.533-10.663-43.045l-.006-.022a55.247,55.247,0,0,1-1.64-6.429,16.335,16.335,0,0,1-.194-5.452" transform="translate(45.897 -324.191)" fill="#ffb851" fill-rule="evenodd"/>
          <path id="Trazado_1278771" data-name="Trazado 1278771" d="M162.675,426.426s-4.057-3.1-5.526-5.508c-1.45-2.372.506-3.96,2.451-2.227,1.263,1.125,2.355,4.031,3.075,7.735" transform="translate(-142.759 -358.787)" fill="#69d7e5" fill-rule="evenodd"/>
          <path id="Trazado_1278772" data-name="Trazado 1278772" d="M161.616,424.934a23.211,23.211,0,0,1-4.458-4.616,2.171,2.171,0,0,1-.39-1.669.853.853,0,0,1,.263-.424.834.834,0,0,1,.453-.185,1.976,1.976,0,0,1,1.453.613,7.227,7.227,0,0,1,1.593,2.653,25.136,25.136,0,0,1,1.087,3.628m-5.216-4.153c1.461,2.391,5.338,5.4,5.618,5.615a.445.445,0,0,0,.724-.422,28.644,28.644,0,0,0-1.389-4.995,8.04,8.04,0,0,0-1.827-2.989,2.828,2.828,0,0,0-2.137-.833,1.691,1.691,0,0,0-1.477,1.249,3.02,3.02,0,0,0,.488,2.375" transform="translate(-142.39 -358.418)" fill="#69d7e5" fill-rule="evenodd"/>
          <path id="Trazado_1278773" data-name="Trazado 1278773" d="M151.941,426.947s-3.572-3.556-4.742-6.177c-1.152-2.582.873-4.067,2.561-2.107,1.1,1.272,1.856,4.379,2.181,8.283" transform="translate(-126.676 -358.698)" fill="#69d7e5" fill-rule="evenodd"/>
          <path id="Trazado_1278774" data-name="Trazado 1278774" d="M151,425.341a23.018,23.018,0,0,1-3.77-5.119,2.4,2.4,0,0,1-.188-1.858.885.885,0,0,1,.314-.4.761.761,0,0,1,.447-.127,1.823,1.823,0,0,1,1.248.747,7.588,7.588,0,0,1,1.264,2.893,27.793,27.793,0,0,1,.685,3.862m-4.58-4.757c1.205,2.7,4.822,6.3,4.832,6.31a.445.445,0,0,0,.758-.35,31.665,31.665,0,0,0-.837-5.29,8.413,8.413,0,0,0-1.451-3.248,2.674,2.674,0,0,0-1.9-1.053,1.631,1.631,0,0,0-.962.276,1.776,1.776,0,0,0-.634.792,3.245,3.245,0,0,0,.195,2.564" transform="translate(-126.305 -358.33)" fill="#69d7e5" fill-rule="evenodd"/>
          <path id="Trazado_1278775" data-name="Trazado 1278775" d="M167.474,439.955s-5.247-.632-7.755-1.926c-2.472-1.276-1.4-3.53,1.229-3.023,1.709.33,4.1,2.219,6.526,4.949" transform="translate(-148.477 -366.48)" fill="#69d7e5" fill-rule="evenodd"/>
          <path id="Trazado_1278776" data-name="Trazado 1278776" d="M165.939,438.971a25.017,25.017,0,0,1-6.384-1.7,2.025,2.025,0,0,1-1.124-1.116.735.735,0,0,1,.013-.457.853.853,0,0,1,.306-.384,2.25,2.25,0,0,1,1.749-.236,7.221,7.221,0,0,1,2.744,1.44,23.212,23.212,0,0,1,2.7,2.458m-6.791-.916c2.583,1.333,7.89,1.972,7.9,1.973v0a.442.442,0,0,0,.385-.733,26.423,26.423,0,0,0-3.662-3.486,8.081,8.081,0,0,0-3.113-1.607,3.111,3.111,0,0,0-2.44.393,1.73,1.73,0,0,0-.611.791,1.607,1.607,0,0,0-.037,1,2.865,2.865,0,0,0,1.572,1.673" transform="translate(-148.109 -366.112)" fill="#69d7e5" fill-rule="evenodd"/>
          <path id="Trazado_1278777" data-name="Trazado 1278777" d="M137.9,436.837s-3.657-3.468-4.887-6.055c-1.21-2.55.786-4.076,2.522-2.159,1.126,1.245,1.955,4.328,2.365,8.214" transform="translate(-104.86 -363.229)" fill="#69d7e5" fill-rule="evenodd"/>
          <path id="Trazado_1278778" data-name="Trazado 1278778" d="M136.936,435.25a22.983,22.983,0,0,1-3.891-5.026,2.379,2.379,0,0,1-.23-1.844.884.884,0,0,1,.3-.408.757.757,0,0,1,.444-.137,1.827,1.827,0,0,1,1.272.716,7.567,7.567,0,0,1,1.329,2.857,27.538,27.538,0,0,1,.772,3.841m-4.694-4.647c1.264,2.66,4.964,6.171,4.981,6.187a.444.444,0,0,0,.748-.366,31.413,31.413,0,0,0-.952-5.259,8.367,8.367,0,0,0-1.527-3.207,2.673,2.673,0,0,0-1.929-1.009,1.643,1.643,0,0,0-.958.3,1.768,1.768,0,0,0-.617.8,3.229,3.229,0,0,0,.254,2.55" transform="translate(-104.491 -362.861)" fill="#69d7e5" fill-rule="evenodd"/>
          <path id="Trazado_1278779" data-name="Trazado 1278779" d="M154.667,454.555s-5.378.735-8.2.153c-2.78-.574-2.28-2.967.465-3.157,1.784-.124,4.638,1.049,7.734,3" transform="translate(-128.173 -374.008)" fill="#69d7e5" fill-rule="evenodd"/>
          <path id="Trazado_1278780" data-name="Trazado 1278780" d="M152.963,453.9a26.9,26.9,0,0,1-6.773.011,2.064,2.064,0,0,1-1.4-.76.653.653,0,0,1-.1-.405v-.009a.794.794,0,0,1,.19-.414,2.4,2.4,0,0,1,1.713-.691,7.732,7.732,0,0,1,3.106.662,23.727,23.727,0,0,1,3.261,1.607m-6.951.88c2.9.6,8.331-.146,8.347-.148a.444.444,0,0,0,.177-.815,27.024,27.024,0,0,0-4.515-2.35,8.527,8.527,0,0,0-3.484-.721,3.26,3.26,0,0,0-2.339,1.014,1.676,1.676,0,0,0-.387.885l0,.013a1.523,1.523,0,0,0,.226.955,2.9,2.9,0,0,0,1.977,1.167" transform="translate(-127.805 -373.64)" fill="#69d7e5" fill-rule="evenodd"/>
          <path id="Trazado_1278781" data-name="Trazado 1278781" d="M124.832,446.36s-4.224-2.778-5.868-5.092c-1.621-2.28.142-4.082,2.189-2.5,1.33,1.027,2.65,3.886,3.679,7.591" transform="translate(-83.968 -367.947)" fill="#69d7e5" fill-rule="evenodd"/>
          <path id="Trazado_1278782" data-name="Trazado 1278782" d="M123.685,444.911a22.881,22.881,0,0,1-4.727-4.268,2.282,2.282,0,0,1-.526-1.713.887.887,0,0,1,.233-.452.8.8,0,0,1,.428-.218,1.881,1.881,0,0,1,1.422.492,7.352,7.352,0,0,1,1.786,2.555,26.483,26.483,0,0,1,1.384,3.6m-5.449-3.753c1.693,2.382,5.972,5.2,5.985,5.206a.444.444,0,0,0,.672-.488,30.045,30.045,0,0,0-1.792-4.954,8.171,8.171,0,0,0-2.044-2.872,2.73,2.73,0,0,0-2.119-.661,1.681,1.681,0,0,0-.9.46,1.759,1.759,0,0,0-.476.9,3.135,3.135,0,0,0,.671,2.408" transform="translate(-83.6 -367.579)" fill="#69d7e5" fill-rule="evenodd"/>
          <path id="Trazado_1278783" data-name="Trazado 1278783" d="M138.671,465.9s-5.285,1.577-8.21,1.465c-2.882-.11-2.761-2.513-.034-3.138,1.771-.406,4.824.273,8.244,1.674" transform="translate(-103.28 -379.706)" fill="#69d7e5" fill-rule="evenodd"/>
          <path id="Trazado_1278784" data-name="Trazado 1278784" d="M136.9,465.463a28.3,28.3,0,0,1-6.785,1.094,2.131,2.131,0,0,1-1.534-.519.6.6,0,0,1-.158-.361.744.744,0,0,1,.118-.428,2.482,2.482,0,0,1,1.622-.955,8.1,8.1,0,0,1,3.233.144,24.418,24.418,0,0,1,3.5,1.025m-6.817,1.979c3,.114,8.335-1.477,8.35-1.482a.444.444,0,0,0,.044-.836,27.993,27.993,0,0,0-4.907-1.556,8.938,8.938,0,0,0-3.6-.141,3.333,3.333,0,0,0-2.185,1.365,1.62,1.62,0,0,0-.244.934,1.488,1.488,0,0,0,.377.894,2.958,2.958,0,0,0,2.169.821" transform="translate(-102.914 -379.338)" fill="#69d7e5" fill-rule="evenodd"/>
          <path id="Trazado_1278785" data-name="Trazado 1278785" d="M112.963,452.4s-4.6-2.17-6.553-4.22c-1.922-2.02-.38-4.01,1.881-2.728,1.468.832,3.163,3.457,4.673,6.948" transform="translate(-65.105 -371.065)" fill="#69d7e5" fill-rule="evenodd"/>
          <path id="Trazado_1278786" data-name="Trazado 1278786" d="M111.68,451.077a23.148,23.148,0,0,1-5.314-3.569,2.218,2.218,0,0,1-.746-1.578.858.858,0,0,1,.167-.473.812.812,0,0,1,.4-.274,1.932,1.932,0,0,1,1.519.289,7.277,7.277,0,0,1,2.124,2.267,25.5,25.5,0,0,1,1.851,3.338m-5.957-2.957c2.008,2.11,6.672,4.308,6.685,4.315a.45.45,0,0,0,.366,0,.443.443,0,0,0,.231-.582,29.243,29.243,0,0,0-2.438-4.613,8.1,8.1,0,0,0-2.423-2.544,2.788,2.788,0,0,0-2.236-.363,1.7,1.7,0,0,0-.827.58,1.753,1.753,0,0,0-.348.957,3.069,3.069,0,0,0,.99,2.246" transform="translate(-64.739 -370.696)" fill="#69d7e5" fill-rule="evenodd"/>
          <path id="Trazado_1278787" data-name="Trazado 1278787" d="M124.161,472.966s-5.111,2.227-8.066,2.5c-2.913.267-3.1-2.1-.437-3.064,1.729-.627,4.885-.359,8.5.568" transform="translate(-80.808 -383.307)" fill="#69d7e5" fill-rule="evenodd"/>
          <path id="Trazado_1278788" data-name="Trazado 1278788" d="M122.353,472.712a29.254,29.254,0,0,1-6.665,1.942,2.193,2.193,0,0,1-1.623-.314.573.573,0,0,1-.2-.326.711.711,0,0,1,.065-.421,2.52,2.52,0,0,1,1.512-1.145,8.47,8.47,0,0,1,3.275-.278,25.4,25.4,0,0,1,3.635.543m-6.585,2.824c3.028-.277,8.189-2.525,8.2-2.531a.444.444,0,0,0-.068-.836,28.93,28.93,0,0,0-5.127-.886,9.291,9.291,0,0,0-3.636.33,3.375,3.375,0,0,0-2.02,1.618,1.583,1.583,0,0,0-.127.949,1.451,1.451,0,0,0,.486.828,3.025,3.025,0,0,0,2.288.529" transform="translate(-80.441 -382.939)" fill="#69d7e5" fill-rule="evenodd"/>
          <path id="Trazado_1278789" data-name="Trazado 1278789" d="M96.254,457.881s-4.849-2.317-6.647-4.524c-1.772-2.176.469-4.345,2.8-2.972,1.515.892,2.886,3.723,3.846,7.5" transform="translate(-39.336 -373.289)" fill="#69d7e5" fill-rule="evenodd"/>
          <path id="Trazado_1278790" data-name="Trazado 1278790" d="M95.2,456.667c-1.46-.767-4.346-2.4-5.615-3.958a1.959,1.959,0,0,1-.521-1.527,1.285,1.285,0,0,1,.313-.655,1.468,1.468,0,0,1,.646-.412,2.208,2.208,0,0,1,1.8.284,5.871,5.871,0,0,1,1.921,2.41,21.608,21.608,0,0,1,1.46,3.858m-6.3-3.4c1.79,2.2,6.4,4.453,6.774,4.632a.445.445,0,0,0,.648-.5,24.352,24.352,0,0,0-1.791-5,6.683,6.683,0,0,0-2.262-2.771,3.073,3.073,0,0,0-2.515-.364,2.356,2.356,0,0,0-1.035.665,2.17,2.17,0,0,0-.528,1.107,2.81,2.81,0,0,0,.709,2.226" transform="translate(-38.966 -372.921)" fill="#69d7e5" fill-rule="evenodd"/>
          <path id="Trazado_1278791" data-name="Trazado 1278791" d="M114.352,480.239s-6.436,2.454-9.927,2.769c-3.44.311-3.119-2.253.189-3.319,2.148-.692,5.75-.426,9.738.551" transform="translate(-64.551 -386.59)" fill="#69d7e5" fill-rule="evenodd"/>
          <path id="Trazado_1278792" data-name="Trazado 1278792" d="M112.41,479.971a43.2,43.2,0,0,1-8.393,2.227,2.574,2.574,0,0,1-1.785-.283.431.431,0,0,1-.168-.284.744.744,0,0,1,.115-.436,3.843,3.843,0,0,1,2.2-1.453,11.229,11.229,0,0,1,3.919-.336,28.79,28.79,0,0,1,4.109.565M104.1,483.08c3.554-.32,10.025-2.788,10.044-2.794a.444.444,0,0,0-.052-.846,32.333,32.333,0,0,0-5.739-.92,12.067,12.067,0,0,0-4.239.378,4.7,4.7,0,0,0-2.706,1.863,1.606,1.606,0,0,0-.222.972,1.292,1.292,0,0,0,.487.867,3.356,3.356,0,0,0,2.428.481" transform="translate(-64.183 -386.222)" fill="#69d7e5" fill-rule="evenodd"/>
          <path id="Trazado_1278793" data-name="Trazado 1278793" d="M70.684,424.2a.443.443,0,1,0-.723.511c.881,1.245,1.624,2.408,2.331,3.513,3.093,4.838,5.5,8.6,16.34,14.529a105.3,105.3,0,0,0,16.241,6.917c5.835,2.073,10.827,3.845,14.931,7.34a.443.443,0,0,0,.574-.675c-4.235-3.6-9.3-5.4-15.211-7.5a104.744,104.744,0,0,1-16.111-6.858c-10.643-5.821-12.994-9.5-16.017-14.227-.708-1.107-1.453-2.272-2.355-3.548" transform="translate(-53.179 -361.529)" fill="#69d7e5" fill-rule="evenodd"/>
          <path id="Trazado_1278794" data-name="Trazado 1278794" d="M154.309,425.038a.443.443,0,0,0-.723.511c2.4,3.391,3.459,9.272,3.745,11.13-1.948-.314-8.411-1.563-13.3-4.937a.444.444,0,1,0-.5.73c5.99,4.136,14.244,5.169,14.267,5.172a.491.491,0,0,0,.113,0,.443.443,0,0,0,.384-.5c0-.022-.981-7.868-3.984-12.111" transform="translate(-131.104 -361.911)" fill="#69d7e5" fill-rule="evenodd"/>
          <path id="Trazado_1278795" data-name="Trazado 1278795" d="M139.787,430.468a.443.443,0,1,0-.778.424c2.345,4.3,4.455,11.43,5.008,13.371-1.9.192-8.769.7-14.569-1.267a.444.444,0,1,0-.285.841c6.811,2.311,15.023,1.306,15.458,1.25a.418.418,0,0,0,.081-.014.443.443,0,0,0,.31-.546c-.007-.026-2.444-8.961-5.225-14.058" transform="translate(-109.922 -364.351)" fill="#69d7e5" fill-rule="evenodd"/>
          <path id="Trazado_1278796" data-name="Trazado 1278796" d="M121.506,440.634a.443.443,0,0,0-.692.553c3.029,3.785,6.271,10.344,7.142,12.154-1.883.493-8.7,2.089-14.844,1.108a.444.444,0,0,0-.139.876c7.217,1.151,15.316-1.151,15.715-1.266a.464.464,0,0,0,.083-.029.444.444,0,0,0,.214-.589c-.011-.024-3.877-8.306-7.479-12.807" transform="translate(-85.029 -368.989)" fill="#69d7e5" fill-rule="evenodd"/>
          <path id="Trazado_1278797" data-name="Trazado 1278797" d="M105.436,447.317a.444.444,0,1,0-.608.646c3.524,3.3,7.612,9.273,8.73,10.946-1.835.728-8.487,3.172-14.784,3.01a.443.443,0,0,0-.021.886c7.58.194,15.624-3.272,15.647-3.282a.473.473,0,0,0,.068-.036.444.444,0,0,0,.131-.613c-.015-.022-4.967-7.626-9.164-11.558" transform="translate(-62.866 -372.038)" fill="#69d7e5" fill-rule="evenodd"/>
          <path id="Trazado_1278798" data-name="Trazado 1278798" d="M94.6,452.485a.444.444,0,0,0-.647.608c3.357,3.571,6.767,10.073,7.654,11.821-2.058.729-10.582,3.572-18.054,3.442a.443.443,0,1,0-.014.886c8.522.149,18.346-3.481,18.822-3.658a.391.391,0,0,0,.061-.025.444.444,0,0,0,.2-.594c-.013-.024-4.038-8.238-8.026-12.48" transform="translate(-42.549 -374.372)" fill="#69d7e5" fill-rule="evenodd"/>
          <path id="Trazado_1278799" data-name="Trazado 1278799" d="M87.953,461.4c.477-14.371-4.958-39.176-16.944-44.346s-10.8-.525-20.506-11.4-20.024.822-7.735,13.458,2.421,15.93,13.7,28.676S87.953,461.4,87.953,461.4" transform="translate(-2.733 -351.264)" fill="#ffb851" fill-rule="evenodd"/>
          <path id="Trazado_1278800" data-name="Trazado 1278800" d="M79.514,467.3a.444.444,0,0,0,.761-.459c-.423-.7-.987-1.718-1.7-3-3.984-7.189-12.458-22.481-23.5-31.874C42.177,421,37.718,412.556,37.7,412.531a.443.443,0,1,0-.782.418c.013.025,4.553,8.617,17.582,19.7,10.92,9.289,19.34,24.483,23.3,31.627.727,1.311,1.305,2.355,1.71,3.026" transform="translate(5.064 -356.22)" fill="#ffd453" fill-rule="evenodd"/>
        </g>
      </g>
      <g id="Grupo_1213011" data-name="Grupo 1213011" transform="translate(0 0)">
        <g id="Grupo_1213010" data-name="Grupo 1213010" clip-path="url(#clip-path-3)">
          <path id="Trazado_1278801" data-name="Trazado 1278801" d="M342.712,82.462c-9.575,0-10.4-12.984,1.619-12.194-3.3-9.472,12.444-15.779,16.721-6.076,3.032-5.64,12.142-4.09,12.259,3.488,4.082-5.686,14.105-.884,10.955,6.137,8.338,0,8.239,8.645.578,8.645Z" transform="translate(-281.947 -26.895)" fill="#cfe8ff" fill-rule="evenodd"/>
          <path id="Trazado_1278802" data-name="Trazado 1278802" d="M355.988,71.266a.444.444,0,0,0-.428-.779,5.028,5.028,0,0,0-2.466,3.73,6.652,6.652,0,0,0,.015,2.121,6.272,6.272,0,0,0,.68,1.98,4.4,4.4,0,0,0,3.172,2.334,4.306,4.306,0,0,0,4.067-1.544,4.07,4.07,0,0,0,.758-1.441,3.171,3.171,0,0,0,.061-1.56,3,3,0,0,0-2.259-2.2.444.444,0,1,0-.254.852,2.155,2.155,0,0,1,1.648,1.543,2.32,2.32,0,0,1-.05,1.129,3.173,3.173,0,0,1-.592,1.121,3.433,3.433,0,0,1-3.243,1.228,3.531,3.531,0,0,1-2.53-1.886,5.37,5.37,0,0,1-.582-1.7,5.767,5.767,0,0,1-.015-1.839,4.152,4.152,0,0,1,2.018-3.087" transform="translate(-262.93 -31.924)" fill="#f0f1f9" fill-rule="evenodd"/>
          <path id="Trazado_1278803" data-name="Trazado 1278803" d="M397.138,63.874a.443.443,0,0,0-.736.494,8.948,8.948,0,0,1,1.731,6.3,6.064,6.064,0,0,1-.868,2.353,5.785,5.785,0,0,1-1.661,1.707,6.122,6.122,0,0,1-4.356.933,4.962,4.962,0,0,1-3.937-3.1,4.62,4.62,0,0,1-.332-1.815,3.383,3.383,0,0,1,.431-1.6,3.178,3.178,0,0,1,3-1.454.443.443,0,1,0,.011-.886,4.016,4.016,0,0,0-3.775,1.9,4.271,4.271,0,0,0-.549,2.023,5.5,5.5,0,0,0,.391,2.162,5.838,5.838,0,0,0,4.632,3.657,7,7,0,0,0,4.983-1.075,6.672,6.672,0,0,0,1.917-1.968,6.953,6.953,0,0,0,1-2.7,9.82,9.82,0,0,0-1.874-6.927" transform="translate(-318.191 -28.862)" fill="#f0f1f9" fill-rule="evenodd"/>
          <path id="Trazado_1278804" data-name="Trazado 1278804" d="M99.22,96.117a4.254,4.254,0,0,0-5.969-.566c-4.763,3.449,1.085,10.057,5.414,6.344,1.922-1.649,1.8-3.765.554-5.778" transform="translate(141.848 -42.871)" fill="#9ed1ff" fill-rule="evenodd"/>
          <path id="Trazado_1278805" data-name="Trazado 1278805" d="M341.69,188.462a5.636,5.636,0,0,0-7.908-.75c-6.309,4.569,1.438,13.323,7.173,8.4,2.546-2.184,2.389-4.988.734-7.654" transform="translate(-232.115 -84.501)" fill="#9ed1ff" fill-rule="evenodd"/>
          <path id="Trazado_1278806" data-name="Trazado 1278806" d="M157.658,283.875a1.982,1.982,0,0,0-2.782-.264c-2.221,1.608.506,4.688,2.524,2.957a1.919,1.919,0,0,0,.258-2.693" transform="translate(49.689 -128.343)" fill="#9ed1ff" fill-rule="evenodd"/>
          <path id="Trazado_1278807" data-name="Trazado 1278807" d="M75.075,214.006a4.31,4.31,0,0,0-2.689-1.361,4.265,4.265,0,0,0-2.939.872,3.7,3.7,0,0,0-1.6,4.03,4.207,4.207,0,0,0,.825,1.632,4.477,4.477,0,0,0,1.411,1.153,3.966,3.966,0,0,0,4.57-.577,3.83,3.83,0,0,0,1.412-2.586,4.711,4.711,0,0,0-.794-2.926,1.176,1.176,0,0,0-.192-.236M72.163,215a1.955,1.955,0,0,1,1.155.6,2.332,2.332,0,0,1,.388,1.35,1.537,1.537,0,0,1-.6,1.01,1.691,1.691,0,0,1-1.947.272,2.1,2.1,0,0,1-.661-.541,1.846,1.846,0,0,1-.361-.7,1.454,1.454,0,0,1,.7-1.547A1.969,1.969,0,0,1,72.163,215" transform="translate(178.892 -96.374)" fill="#9ed1ff" fill-rule="evenodd"/>
          <path id="Trazado_1278808" data-name="Trazado 1278808" d="M337.353,214.5a3.08,3.08,0,0,0-1.919-.969,3.05,3.05,0,0,0-2.1.622,2.648,2.648,0,0,0-1.147,2.886,3.015,3.015,0,0,0,.589,1.167,3.194,3.194,0,0,0,1.008.823,2.837,2.837,0,0,0,3.268-.412,2.74,2.74,0,0,0,1.009-1.851,3.364,3.364,0,0,0-.564-2.087.88.88,0,0,0-.145-.177m-2.086.8a1.31,1.31,0,0,1,.769.4,1.569,1.569,0,0,1,.26.9,1.019,1.019,0,0,1-.4.669,1.129,1.129,0,0,1-1.3.184,1.42,1.42,0,0,1-.444-.365,1.228,1.228,0,0,1-.242-.471.964.964,0,0,1,.465-1.023,1.321,1.321,0,0,1,.891-.3" transform="translate(-227.651 -96.775)" fill="#9ed1ff" fill-rule="evenodd"/>
          <path id="Trazado_1278809" data-name="Trazado 1278809" d="M251.8,34.735a1.984,1.984,0,0,0-2.782-.264c-2.22,1.609.506,4.688,2.524,2.958a1.919,1.919,0,0,0,.258-2.694" transform="translate(-95.929 -15.42)" fill="#9ed1ff" fill-rule="evenodd"/>
          <path id="Trazado_1278810" data-name="Trazado 1278810" d="M269.281,27.379A4.33,4.33,0,0,0,263.2,26.8c-4.85,3.512,1.1,10.24,5.513,6.459,1.957-1.679,1.836-3.833.564-5.882" transform="translate(-121.133 -11.703)" fill="#9ed1ff" fill-rule="evenodd"/>
          <path id="Trazado_1278811" data-name="Trazado 1278811" d="M166.96,295.888a4.254,4.254,0,0,0-5.969-.566c-4.763,3.449,1.085,10.056,5.414,6.343,1.923-1.648,1.8-3.765.554-5.778" transform="translate(37.072 -133.417)" fill="#9ed1ff" fill-rule="evenodd"/>
          <path id="Trazado_1278812" data-name="Trazado 1278812" d="M132.455,295.743a2.2,2.2,0,1,1,2.2-2.2,2.2,2.2,0,0,1-2.2,2.2" transform="translate(86.13 -132.054)" fill="#fff" fill-rule="evenodd"/>
          <path id="Trazado_1278813" data-name="Trazado 1278813" d="M327.059,117.786a2.2,2.2,0,1,1,2.2-2.2,2.2,2.2,0,0,1-2.2,2.2" transform="translate(-214.874 -51.395)" fill="#fff" fill-rule="evenodd"/>
          <path id="Trazado_1278814" data-name="Trazado 1278814" d="M457.645,179.819a3.388,3.388,0,1,1,3.388-3.388,3.394,3.394,0,0,1-3.388,3.388" transform="translate(-417.397 -78.432)" fill="#fff" fill-rule="evenodd"/>
          <path id="Trazado_1278815" data-name="Trazado 1278815" d="M473.429,188.867a1.9,1.9,0,1,1,1.9-1.9,1.9,1.9,0,0,1-1.9,1.9" transform="translate(-441.136 -83.884)" fill="#fff" fill-rule="evenodd"/>
          <path id="Trazado_1278816" data-name="Trazado 1278816" d="M75.092,96.008A3.388,3.388,0,1,1,78.48,92.62a3.395,3.395,0,0,1-3.388,3.388" transform="translate(174.316 -40.444)" fill="#fff" fill-rule="evenodd"/>
          <path id="Trazado_1278817" data-name="Trazado 1278817" d="M75.557,113.092a1.9,1.9,0,1,1,1.9-1.9,1.9,1.9,0,0,1-1.9,1.9" transform="translate(174.273 -49.539)" fill="#fff" fill-rule="evenodd"/>
        </g>
      </g>
      <g id="Grupo_1213013" data-name="Grupo 1213013" transform="translate(0 0)">
        <g id="Grupo_1213012" data-name="Grupo 1213012" clip-path="url(#clip-path-3)">
          <path id="Trazado_1278818" data-name="Trazado 1278818" d="M168.815,119.044h44.7a1.315,1.315,0,0,1,1.292,1.291v9.933a1.316,1.316,0,0,1-1.292,1.291h-3.675v1.291h3.675a1.315,1.315,0,0,1,1.292,1.291v9.933a1.232,1.232,0,0,1-1.292,1.192h-3.675v1.291h3.675a1.315,1.315,0,0,1,1.292,1.291v9.933a1.315,1.315,0,0,1-1.292,1.291h-3.675v.894h3.675a1.315,1.315,0,0,1,1.292,1.291v9.933a1.315,1.315,0,0,1-1.292,1.291h-3.675v2.384a1.3,1.3,0,0,1-1.191,1.291H203.68a1.315,1.315,0,0,1-1.291-1.291v-2.483H180.039v2.483a1.3,1.3,0,0,1-1.192,1.291h-4.967a1.314,1.314,0,0,1-1.291-1.291v-2.483h-3.775a1.315,1.315,0,0,1-1.292-1.291V161.16a1.315,1.315,0,0,1,1.292-1.291h3.775v-1.192h-3.775a1.315,1.315,0,0,1-1.292-1.291v-9.933a1.315,1.315,0,0,1,1.292-1.291h3.775v-1.093h-3.775a1.3,1.3,0,0,1-1.292-1.192v-9.933a1.316,1.316,0,0,1,1.292-1.291h3.775v-1.291h-3.775a1.315,1.315,0,0,1-1.292-1.291v-9.834a1.232,1.232,0,0,1,1.292-1.191m38.441,12.416h-2.483v1.291h2.483Zm-27.316,1.291H202.29v-1.291H179.94Zm27.316,12.317h-2.483v1.291h2.483ZM179.94,146.36H202.29v-1.291H179.94Zm27.316,12.417h-2.483v1.192h2.483Zm-27.316,1.192H202.29v-1.192H179.94Zm24.833,13.708h2.483v-1.291h-2.483Zm-29.8,0h2.483v-1.291h-2.483Zm-4.966-3.775h42.216v-7.45H170.007Zm4.966-9.933h2.483v-1.192h-2.483Zm-4.966-3.675h42.216v-7.45H170.007Zm4.966-9.934h2.483v-1.291h-2.483Zm-4.966-3.774h42.216v-7.45H170.007Zm4.966-9.933h2.483v-1.291h-2.483Zm-4.966-3.675h42.216v-7.45H170.007Z" transform="translate(-14.399 -53.957)" fill="#344866"/>
          <rect id="Rectángulo_462586" data-name="Rectángulo 462586" width="2.483" height="2.483" transform="translate(192.956 70.053)" fill="#344866"/>
          <rect id="Rectángulo_462587" data-name="Rectángulo 462587" width="2.483" height="2.483" transform="translate(158.091 70.053)" fill="#344866"/>
          <rect id="Rectángulo_462588" data-name="Rectángulo 462588" width="2.483" height="2.483" transform="translate(161.866 70.053)" fill="#344866"/>
          <rect id="Rectángulo_462589" data-name="Rectángulo 462589" width="2.483" height="2.483" transform="translate(165.541 70.053)" fill="#344866"/>
          <rect id="Rectángulo_462590" data-name="Rectángulo 462590" width="2.483" height="2.483" transform="translate(169.316 70.053)" fill="#344866"/>
          <rect id="Rectángulo_462591" data-name="Rectángulo 462591" width="2.483" height="2.483" transform="translate(192.956 83.662)" fill="#344866"/>
          <rect id="Rectángulo_462592" data-name="Rectángulo 462592" width="2.483" height="2.483" transform="translate(158.091 83.662)" fill="#344866"/>
          <rect id="Rectángulo_462593" data-name="Rectángulo 462593" width="2.483" height="2.483" transform="translate(161.866 83.662)" fill="#344866"/>
          <rect id="Rectángulo_462594" data-name="Rectángulo 462594" width="2.483" height="2.483" transform="translate(165.541 83.662)" fill="#344866"/>
          <rect id="Rectángulo_462595" data-name="Rectángulo 462595" width="2.483" height="2.483" transform="translate(169.316 83.662)" fill="#344866"/>
          <rect id="Rectángulo_462596" data-name="Rectángulo 462596" width="2.483" height="2.483" transform="translate(192.956 97.37)" fill="#344866"/>
          <rect id="Rectángulo_462597" data-name="Rectángulo 462597" width="2.483" height="2.483" transform="translate(158.091 97.37)" fill="#344866"/>
          <rect id="Rectángulo_462598" data-name="Rectángulo 462598" width="2.483" height="2.483" transform="translate(161.866 97.37)" fill="#344866"/>
          <rect id="Rectángulo_462599" data-name="Rectángulo 462599" width="2.483" height="2.483" transform="translate(165.541 97.37)" fill="#344866"/>
          <rect id="Rectángulo_462600" data-name="Rectángulo 462600" width="2.483" height="2.483" transform="translate(169.316 97.37)" fill="#344866"/>
          <path id="Trazado_1278819" data-name="Trazado 1278819" d="M257.473,212.062a1.291,1.291,0,1,1-1.291,1.291,1.474,1.474,0,0,1,1.291-1.291" transform="translate(-106.832 -96.117)" fill="#344866"/>
          <path id="Trazado_1278820" data-name="Trazado 1278820" d="M162.094,148.475a1.291,1.291,0,1,1-1.291,1.291,1.388,1.388,0,0,1,1.291-1.291" transform="translate(40.696 -67.296)" fill="#344866"/>
          <path id="Trazado_1278821" data-name="Trazado 1278821" d="M259.553,134.85a1.315,1.315,0,0,1,1.292,1.291,1.233,1.233,0,0,1-1.292,1.192,1.208,1.208,0,0,1-1.192-1.192,1.231,1.231,0,0,1,1.192-1.291" transform="translate(-110.103 -61.121)" fill="#344866"/>
          <path id="Trazado_1278822" data-name="Trazado 1278822" d="M159.731,191.714a1.3,1.3,0,0,1,1.292,1.192,1.291,1.291,0,1,1-2.583,0,1.231,1.231,0,0,1,1.291-1.192" transform="translate(44.35 -86.894)" fill="#344866"/>
          <path id="Trazado_1278823" data-name="Trazado 1278823" d="M257.473,166.643a1.291,1.291,0,1,1-1.291,1.291,1.474,1.474,0,0,1,1.291-1.291" transform="translate(-106.832 -75.531)" fill="#344866"/>
          <rect id="Rectángulo_462601" data-name="Rectángulo 462601" width="2.483" height="2.483" transform="translate(192.956 110.978)" fill="#344866"/>
          <rect id="Rectángulo_462602" data-name="Rectángulo 462602" width="2.483" height="2.483" transform="translate(158.091 110.978)" fill="#344866"/>
          <rect id="Rectángulo_462603" data-name="Rectángulo 462603" width="2.483" height="2.483" transform="translate(161.866 110.978)" fill="#344866"/>
          <rect id="Rectángulo_462604" data-name="Rectángulo 462604" width="2.483" height="2.483" transform="translate(165.541 110.978)" fill="#344866"/>
          <rect id="Rectángulo_462605" data-name="Rectángulo 462605" width="2.483" height="2.483" transform="translate(169.316 110.978)" fill="#344866"/>
        </g>
      </g>
    </g>
  </g>
</svg>
