<svg xmlns="http://www.w3.org/2000/svg" xmlns:xlink="http://www.w3.org/1999/xlink" width="96" height="96" viewBox="0 0 96 96">
  <defs>
    <clipPath id="clip-path">
      <rect id="Rectángulo_454829" data-name="Rectángulo 454829" width="96" height="96" fill="#1e535a"/>
    </clipPath>
    <clipPath id="clip-path-2">
      <rect id="Rectángulo_462635" data-name="Rectángulo 462635" width="36.02" height="36.019" fill="#1e535a"/>
    </clipPath>
  </defs>
  <g id="Grupo_1210232" data-name="Grupo 1210232" transform="translate(-1481 -8562.5)">
    <g id="Grupo_1177591" data-name="Grupo 1177591" transform="translate(1481 8562.5)">
      <g id="Grupo_1177589" data-name="Grupo 1177589" transform="translate(0 0)">
        <g id="Grupo_1177587" data-name="Grupo 1177587" clip-path="url(#clip-path)">
          <path id="Trazado_997422" data-name="Trazado 997422" d="M92.081,42.491a44.136,44.136,0,0,0-9.97-22.967,5.076,5.076,0,0,0-7.142-6.838A44.071,44.071,0,0,0,52.151,3.77a5.077,5.077,0,0,0-9.861.2A44.132,44.132,0,0,0,20.4,13.329a5.079,5.079,0,0,0-7.048,7.1A44.1,44.1,0,0,0,4.112,42.448,5.08,5.08,0,0,0,3.99,52.4a44.082,44.082,0,0,0,8.949,22.468,5.078,5.078,0,0,0,6.9,7.17,44.128,44.128,0,0,0,22.412,9.8,5.078,5.078,0,0,0,9.949.2,44.091,44.091,0,0,0,22.985-9.08,5.077,5.077,0,0,0,7.107-6.874A44.147,44.147,0,0,0,92.2,52.349a5.078,5.078,0,0,0-.119-9.858M77.74,22.024a5.05,5.05,0,0,0,2.812-.851,41.913,41.913,0,0,1,9.25,21.3,5.086,5.086,0,0,0-3.246,2.351l-12.98-4.867c.01-.142.02-.286.02-.433a5.079,5.079,0,0,0-2.151-4.15l5.678-13.4a5.5,5.5,0,0,0,.616.041M75,21.216,69.354,34.523a5.026,5.026,0,0,0-5.594,3.23L40.279,32.344a4.941,4.941,0,0,0-.106-1.011l33.322-11.6A5.1,5.1,0,0,0,75,21.216M47.246,10.165a5.083,5.083,0,0,0,4.989-4.122,41.844,41.844,0,0,1,21.158,8.275,5.054,5.054,0,0,0-.735,2.625,5.335,5.335,0,0,0,.048.671L39.217,29.273a5.1,5.1,0,0,0-.92-.92l8.784-18.2c.056,0,.109.008.165.008M42.3,6.243A5.083,5.083,0,0,0,44.86,9.569L36.248,27.4a5.1,5.1,0,0,0-1.049-.109,5.045,5.045,0,0,0-2.9.91L22.1,19.678A5.052,5.052,0,0,0,21.923,15,41.877,41.877,0,0,1,42.3,6.243M10.041,46.332,31.153,35.442a5.064,5.064,0,0,0,4.006,2.014l7.236,23.129a5.166,5.166,0,0,0-1.12,1.239l-31.3-13.04a5.048,5.048,0,0,0,.187-1.348,5.107,5.107,0,0,0-.124-1.1m4.986-24.391a5.079,5.079,0,0,0,5.673-.484l10.079,8.417a5.068,5.068,0,0,0-.56,3.512L9.07,44.29A5.081,5.081,0,0,0,6.38,42.526a41.859,41.859,0,0,1,8.647-20.585m2.1,50.717a5.067,5.067,0,0,0-2.523.674A41.822,41.822,0,0,1,6.263,52.374,5.087,5.087,0,0,0,8.9,50.783l31.609,13.17a5.45,5.45,0,0,0-.041.611,5.081,5.081,0,0,0,.3,1.718L21.657,75.44a5.081,5.081,0,0,0-4.528-2.782M42.349,89.575a41.919,41.919,0,0,1-20.912-9.149,5.029,5.029,0,0,0,.775-2.686l0-.058L42,68.2A5.082,5.082,0,0,0,43.8,69.329l1.186,17.043a5.082,5.082,0,0,0-2.632,3.2m2.105-29.97-7.081-22.64a5.089,5.089,0,0,0,2.415-2.415L63.459,40a5.052,5.052,0,0,0,.808,2.311L48.032,60.13a5.019,5.019,0,0,0-3.577-.524m7.74,30.167a5.081,5.081,0,0,0-4.948-3.937l-.038,0L46.081,69.62a5.073,5.073,0,0,0,3.106-1.507L72.853,78.551c0,.046-.008.086-.008.132a5.057,5.057,0,0,0,.752,2.65,41.841,41.841,0,0,1-21.4,8.439M73.423,76.334,50.373,66.165a5.052,5.052,0,0,0-.666-4.52L65.893,43.877a5.052,5.052,0,0,0,2.622.735,5.594,5.594,0,0,0,.623-.041l6.05,29.836a5.071,5.071,0,0,0-1.766,1.928m7.292-1.9a5.051,5.051,0,0,0-3.377-.8L71.285,43.788a5.1,5.1,0,0,0,1.6-1.672L85.858,46.98a4.506,4.506,0,0,0-.023.456,5.08,5.08,0,0,0,4.084,4.981,41.876,41.876,0,0,1-9.2,22.017" transform="translate(0 0.001)" fill="#1e535a"/>
        </g>
      </g>
    </g>
    <g id="Elipse_13614" data-name="Elipse 13614" transform="translate(1497.457 8579.027)" fill="#d5f4f8" stroke="#1e535a" stroke-width="3">
      <ellipse cx="31.232" cy="31.233" rx="31.232" ry="31.233" stroke="none"/>
      <ellipse cx="31.232" cy="31.233" rx="29.732" ry="29.733" fill="none"/>
    </g>
    <g id="Grupo_1213071" data-name="Grupo 1213071" transform="translate(1510.457 8592.027)">
      <g id="Grupo_1213070" data-name="Grupo 1213070" clip-path="url(#clip-path-2)">
        <path id="Trazado_1279073" data-name="Trazado 1279073" d="M228.468,204.869l6.28,0-1.678,1.363.775.956,3.712-2.961-3.716-2.975-.763.965,1.673,1.384-6.2.012-.072-5.606a9.407,9.407,0,0,0,3.546-5.589l8.878,0v16.158H228.488Zm6.842-11.2h-2.461v1.27h2.461Zm3.736,0h-2.475v1.27h2.475Zm0,2.466-6.2.018,0,1.265,6.2-.018Zm0,2.506h-4.961v1.251h4.961Z" transform="translate(-204.89 -172.563)" fill="#1e535a"/>
        <path id="Trazado_1279074" data-name="Trazado 1279074" d="M153.174,300.871l-.088,1.252h-8.675l.012-1.255Z" transform="translate(-129.508 -269.817)" fill="#1e535a"/>
        <path id="Trazado_1279075" data-name="Trazado 1279075" d="M12.421,3.669,6.158,3.7,7.839,2.334l-.776-.955L3.356,4.341l3.717,2.97.761-.967L6.158,4.968l6.261-.057.006,5.65a9.4,9.4,0,0,0-3.547,5.588L0,16.147V0H12.422ZM4.338,8.695H1.863V9.932H4.338Zm4.981,0H5.6V9.932H9.318ZM8.06,11.162l-6.2.005V12.42l6.2-.005Zm-1.237,2.48H1.863V14.9H6.824Z" fill="#1e535a"/>
        <path id="Trazado_1279076" data-name="Trazado 1279076" d="M120.338,36.8l0-1.241,8.695.051v1.232Z" transform="translate(-107.919 -31.885)" fill="#1e535a"/>
        <path id="Trazado_1279077" data-name="Trazado 1279077" d="M150.137,150.629H144.9a10.241,10.241,0,0,1-.007-6.231h5.248a10.24,10.24,0,0,1-.007,6.231" transform="translate(-129.511 -129.496)" fill="#1e535a"/>
        <path id="Trazado_1279078" data-name="Trazado 1279078" d="M215.972,150.6l-3.539-.007a11.424,11.424,0,0,0,0-6.219l3.536-.006a8.149,8.149,0,0,1,0,6.231" transform="translate(-190.509 -129.471)" fill="#1e535a"/>
        <path id="Trazado_1279079" data-name="Trazado 1279079" d="M100.447,150.579l-3.519.039a8.1,8.1,0,0,1-.008-6.235l3.535,0a11.459,11.459,0,0,0-.008,6.193" transform="translate(-86.362 -129.481)" fill="#1e535a"/>
        <path id="Trazado_1279080" data-name="Trazado 1279080" d="M244.458,25.908a1.861,1.861,0,1,1-1.861-1.861,1.861,1.861,0,0,1,1.861,1.861m-1.242,0a.617.617,0,1,0-.617.617.617.617,0,0,0,.617-.617" transform="translate(-215.892 -21.565)" fill="#1e535a"/>
        <path id="Trazado_1279081" data-name="Trazado 1279081" d="M75.927,290.666a1.862,1.862,0,1,1-1.862-1.862,1.862,1.862,0,0,1,1.862,1.862m-1.246,0a.618.618,0,1,0-.618.618.618.618,0,0,0,.618-.618" transform="translate(-64.751 -258.999)" fill="#1e535a"/>
        <path id="Trazado_1279082" data-name="Trazado 1279082" d="M193.021,216.742a7.832,7.832,0,0,1-5.38,3.559,14.333,14.333,0,0,0,2.133-3.581Z" transform="translate(-168.276 -194.354)" fill="#1e535a"/>
        <path id="Trazado_1279083" data-name="Trazado 1279083" d="M112.134,101.06l-3.3.008a8,8,0,0,1,5.423-3.579,13.615,13.615,0,0,0-2.119,3.571" transform="translate(-97.599 -87.428)" fill="#1e535a"/>
        <path id="Trazado_1279084" data-name="Trazado 1279084" d="M193.029,101.049l-3.255.023a15.12,15.12,0,0,0-2.158-3.591,7.967,7.967,0,0,1,5.413,3.568" transform="translate(-168.254 -87.421)" fill="#1e535a"/>
        <path id="Trazado_1279085" data-name="Trazado 1279085" d="M112.117,216.522a16.046,16.046,0,0,0,2.181,3.6,7.984,7.984,0,0,1-5.422-3.567Z" transform="translate(-97.64 -194.176)" fill="#1e535a"/>
        <path id="Trazado_1279086" data-name="Trazado 1279086" d="M157.953,103.77h-4.3a15.255,15.255,0,0,1,2.158-3.269,15.7,15.7,0,0,1,2.146,3.27" transform="translate(-137.792 -90.128)" fill="#1e535a"/>
        <path id="Trazado_1279087" data-name="Trazado 1279087" d="M157.942,216.685a14.707,14.707,0,0,1-2.126,3.273,15.365,15.365,0,0,1-2.159-3.274Z" transform="translate(-137.799 -194.321)" fill="#1e535a"/>
        <rect id="Rectángulo_462631" data-name="Rectángulo 462631" width="1.23" height="1.247" transform="translate(22.366 3.71)" fill="#1e535a"/>
        <rect id="Rectángulo_462632" data-name="Rectángulo 462632" width="1.251" height="1.246" transform="translate(29.807 3.71)" fill="#1e535a"/>
        <rect id="Rectángulo_462633" data-name="Rectángulo 462633" width="1.251" height="1.255" transform="translate(4.962 31.051)" fill="#1e535a"/>
        <rect id="Rectángulo_462634" data-name="Rectángulo 462634" width="1.231" height="1.268" transform="translate(12.423 31.038)" fill="#1e535a"/>
      </g>
    </g>
  </g>
</svg>
