<svg xmlns="http://www.w3.org/2000/svg" xmlns:xlink="http://www.w3.org/1999/xlink" width="84" height="84" viewBox="0 0 84 84">
  <defs>
    <clipPath id="clip-path">
      <rect id="Rectángulo_462814" data-name="Rectángulo 462814" width="69.007" height="69" fill="#344866"/>
    </clipPath>
  </defs>
  <g id="Grupo_1211903" data-name="Grupo 1211903" transform="translate(0.289 0.137)">
    <g id="Grupo_1119665" data-name="Grupo 1119665" transform="translate(-0.289 -0.137)">
      <rect id="Rectángulo_402006" data-name="Rectángulo 402006" width="84" height="84" rx="5" fill="#a4e7f0"/>
    </g>
    <g id="Grupo_1213192" data-name="Grupo 1213192" transform="translate(6.711 7.863)">
      <g id="Grupo_1213191" data-name="Grupo 1213191" clip-path="url(#clip-path)">
        <path id="Trazado_1279599" data-name="Trazado 1279599" d="M104.293,163.764l.011,23.755a4.2,4.2,0,0,1-4.063,3.964l-11.723.043c1.157,2.45,3.613,3.574,2.682,5.036a1.7,1.7,0,0,1-1.253.689h-17.2a1.593,1.593,0,0,1-1.261-.676c-.865-1.554,1.483-2.593,2.693-5.052L62.633,191.5a4.245,4.245,0,0,1-4.247-3.962l0-23.68a4.18,4.18,0,0,1,4.043-3.964l5.986-.038a1.459,1.459,0,0,1,1.432,1.318,1.417,1.417,0,0,1-1.437,1.562l-5.683.01a1.419,1.419,0,0,0-1.5,1.316l-.007,18.806h40.252V164.25a1.443,1.443,0,0,0-1.509-1.507l-5.68,0a1.441,1.441,0,1,1,0-2.881l5.987.038a4.144,4.144,0,0,1,4.024,3.866m-4.211,24.85c.8-.107,1.37-.613,1.357-1.238l-.035-1.613H61.282v1.8c0,.585.744,1.053,1.406,1.053Zm-13.262,5.749-1.577-2.856-7.856.013-1.518,2.845Z" transform="translate(-46.839 -128.252)" fill="#344866"/>
        <path id="Trazado_1279600" data-name="Trazado 1279600" d="M51.378,13.526a18.678,18.678,0,0,0-35.342,5.261,1.484,1.484,0,0,1-1.582,1.341A11.627,11.627,0,0,0,4.242,26.208,11.33,11.33,0,0,0,5.267,38.582a1.532,1.532,0,0,1,.017,2.2A1.463,1.463,0,0,1,3.1,40.54,14.343,14.343,0,0,1,1.416,25.4a14.561,14.561,0,0,1,11.951-8.126A21.6,21.6,0,0,1,53.693,11.63,17.227,17.227,0,0,1,65.87,38.663a1.5,1.5,0,0,1-1.884.42,1.409,1.409,0,0,1-.593-1.864,14.352,14.352,0,0,0-10.8-22.781,1.525,1.525,0,0,1-1.215-.911" transform="translate(0 0)" fill="#344866"/>
        <path id="Trazado_1279601" data-name="Trazado 1279601" d="M130.638,161.979a1.566,1.566,0,0,1-2.394.088l-4.134-4.146a1.42,1.42,0,1,1,1.9-2.108l1.893,1.8.03-10.9a1.575,1.575,0,0,1,1.255-1.359c.587-.1,1.574.369,1.577,1.126l.038,11.137,1.873-1.8a1.442,1.442,0,0,1,2.124,1.94Z" transform="translate(-99.183 -116.607)" fill="#344866"/>
        <path id="Trazado_1279602" data-name="Trazado 1279602" d="M174.487,117.428a1.433,1.433,0,0,1-1.412,1.511,1.415,1.415,0,0,1-1.438-1.389l-.02-10.929-1.962,1.9a1.411,1.411,0,0,1-1.983-2l4.355-4.384c.372-.375,1.331-.689,1.783-.241l4.473,4.432a1.49,1.49,0,0,1,.206,2,1.424,1.424,0,0,1-2.028.214l-1.95-1.792Z" transform="translate(-134.226 -81.57)" fill="#344866"/>
      </g>
    </g>
  </g>
</svg>
