<svg xmlns="http://www.w3.org/2000/svg" xmlns:xlink="http://www.w3.org/1999/xlink" width="84" height="84" viewBox="0 0 84 84">
  <defs>
    <clipPath id="clip-path">
      <rect id="Rectángulo_462805" data-name="Rectángulo 462805" width="65.546" height="61.594" fill="#344866"/>
    </clipPath>
  </defs>
  <g id="Grupo_1213525" data-name="Grupo 1213525" transform="translate(-706.711 -3843.394)">
    <g id="Grupo_1208936" data-name="Grupo 1208936" transform="translate(707 3843.137)">
      <g id="Grupo_1119665" data-name="Grupo 1119665" transform="translate(-0.289 0.257)">
        <rect id="Rectángulo_402006" data-name="Rectángulo 402006" width="84" height="84" rx="5" fill="#69d7e5"/>
      </g>
    </g>
    <g id="Grupo_1213180" data-name="Grupo 1213180" transform="translate(715.711 3854.394)">
      <g id="Grupo_1213179" data-name="Grupo 1213179" clip-path="url(#clip-path)">
        <path id="Trazado_1279541" data-name="Trazado 1279541" d="M60.19.025a5.374,5.374,0,0,1,5.355,5.443V52.2A5.392,5.392,0,0,1,61.066,57.5a15.792,15.792,0,0,1-2.841.142,5.527,5.527,0,0,1-5.252,3.95l-3.952-.031a4.71,4.71,0,0,1-2.935-1.113l-2.908-2.8-37.7-.021A5.442,5.442,0,0,1,0,52.2L0,5.466A5.366,5.366,0,0,1,5.241.039L12.414,0a1.1,1.1,0,0,1,.943.857c.045.359-.337,1.031-.742,1.032l-7.352.016a3.518,3.518,0,0,0-3.337,3.38L1.9,11.915H63.646l-.032-6.626A3.505,3.505,0,0,0,60.246,1.9h-43.5a.968.968,0,0,1-.847-.866A.97.97,0,0,1,16.768.013Zm-6.83,59.6A3.391,3.391,0,0,0,56.5,56.174L56.527,52A2.23,2.23,0,0,0,54.6,49.7l-2.1-.066-.047,1.137a1.067,1.067,0,0,1-1.054.878,1.184,1.184,0,0,1-.865-.9l-.017-6.228c0-.555-.723-.934-1.2-.826a1.206,1.206,0,0,0-.847,1.178l-.1,1.5c-.023.361-.989.612-1.289.416a1.638,1.638,0,0,1-.563-1.318,3.165,3.165,0,0,1,2.811-3.7,3.015,3.015,0,0,1,3.151,3.112L52.451,47.7l1.841.022a4.226,4.226,0,0,1,4.152,4.29l-.007,3.635,1.529.039a3.53,3.53,0,0,0,3.662-3.331l.024-34.494-3.224-.02c-.338,0-.794-.541-.852-.881-.052-.31.353-1,.674-1l3.412-.032-.042-2.047H1.9V19.9H48.2l3.453-3.393a2.736,2.736,0,0,1,1.638-.584l2.926.019a1.055,1.055,0,0,1,.812.986A1.061,1.061,0,0,1,56,17.851l-2.973.016-3.322,3.317a2.9,2.9,0,0,1-2.039.634l-45.773,0,.027,30.541A3.473,3.473,0,0,0,5.463,55.68l36.348,0a3.048,3.048,0,0,1,1.268-3.153,2.976,2.976,0,0,1,3.452.129l.054-2.527c.008-.394.832-.827,1.169-.694a1.246,1.246,0,0,1,.722,1.056l-.012,4.591a1.24,1.24,0,0,1-.717.866,1.463,1.463,0,0,1-.971-.325l-1.363-1.349a1.139,1.139,0,0,0-1.318-.105,1.064,1.064,0,0,0-.2,1.463l3.029,3.031A3.651,3.651,0,0,0,49.4,59.682Z" transform="translate(0 -0.001)" fill="#344866"/>
        <path id="Trazado_1279542" data-name="Trazado 1279542" d="M36.977,27.056l-13.925,0a1.884,1.884,0,0,1-1.876-1.807L21.168,23a1.909,1.909,0,0,1,1.863-1.853H37.082a2,2,0,0,1,1.933,2.011l-.007,1.918a1.964,1.964,0,0,1-2.031,1.976m.115-4-14.019,0v2.064l14.019,0Z" transform="translate(-17.192 -17.177)" fill="#344866"/>
        <path id="Trazado_1279543" data-name="Trazado 1279543" d="M259.952,24.142A2.948,2.948,0,1,1,257,21.194a2.948,2.948,0,0,1,2.948,2.948m-1.918,0a1.024,1.024,0,1,0-1.024,1.024,1.024,1.024,0,0,0,1.024-1.024" transform="translate(-206.337 -17.213)" fill="#344866"/>
        <path id="Trazado_1279544" data-name="Trazado 1279544" d="M302.3,24.13a2.947,2.947,0,1,1-2.947-2.947A2.947,2.947,0,0,1,302.3,24.13m-1.925,0a1.02,1.02,0,1,0-1.02,1.02,1.02,1.02,0,0,0,1.02-1.02" transform="translate(-240.736 -17.204)" fill="#344866"/>
        <path id="Trazado_1279545" data-name="Trazado 1279545" d="M217.64,24.144a2.947,2.947,0,1,1-2.947-2.947,2.947,2.947,0,0,1,2.947,2.947m-1.93-.014a1.023,1.023,0,1,0-1.023,1.023,1.023,1.023,0,0,0,1.023-1.023" transform="translate(-171.974 -17.216)" fill="#344866"/>
        <path id="Trazado_1279546" data-name="Trazado 1279546" d="M98.207,86.779l-33.921,0a1.076,1.076,0,0,1-.913-1.035,1.028,1.028,0,0,1,1.069-.873H98.383a1.064,1.064,0,0,1,.742,1.021,1.085,1.085,0,0,1-.918.89" transform="translate(-51.467 -68.927)" fill="#344866"/>
        <path id="Trazado_1279547" data-name="Trazado 1279547" d="M192.5,177.248l-.01,5a1.1,1.1,0,0,1-.8.969.969.969,0,0,1-1.1-.953V170.233a1.132,1.132,0,0,1,.849-.865l3.139.022a3.919,3.919,0,0,1,3.881,3.681,3.809,3.809,0,0,1-3.463,4.131Zm2.033-1.925a1.981,1.981,0,0,0,2-1.993,1.9,1.9,0,0,0-1.728-1.988l-2.31-.06v4.055Z" transform="translate(-154.79 -137.556)" fill="#344866"/>
        <path id="Trazado_1279548" data-name="Trazado 1279548" d="M37.674,150.772l-.015-4.245c0-.319-.449-.949-.782-.948l-3.255,0,.007,4.967a1,1,0,0,1-.838.978.986.986,0,0,1-1.093-.993l0-11.85a1,1,0,0,1,.891-.986.956.956,0,0,1,1.04.984l0,4.952,3.17.032a2.807,2.807,0,0,1,2.783,2.734l.018,4.33c0,.322-.521.751-.812.808-.335.066-1.107-.353-1.109-.766" transform="translate(-25.742 -111.832)" fill="#344866"/>
        <path id="Trazado_1279549" data-name="Trazado 1279549" d="M91.579,158.2a1.224,1.224,0,0,1,.912.861c.136,1.222-1.754,1.213-3.718.961a2.769,2.769,0,0,1-2.18-2.578l-.025-3.248-1.172-.049a1.2,1.2,0,0,1-.834-.939,1.085,1.085,0,0,1,1.016-.967l1.006-.036-.017-2.875a1,1,0,0,1,.989-1.061,1.017,1.017,0,0,1,.958,1.1l0,2.867,3.059.012a1.143,1.143,0,0,1,.916.807c.074.389-.336,1.074-.773,1.081l-3.2.047-.011,3.112c0,.335.462.894.777.9Z" transform="translate(-68.679 -120.423)" fill="#344866"/>
        <path id="Trazado_1279550" data-name="Trazado 1279550" d="M144.419,158.179a1.1,1.1,0,0,1,1.088.869c.04.393-.4,1.062-.821,1.054l-2.7-.052a2.682,2.682,0,0,1-2.35-2.621l-.027-3.237-1.166-.057a1.123,1.123,0,0,1-.826-.933,1.048,1.048,0,0,1,1.011-.966l1-.034-.017-2.883a1.05,1.05,0,0,1,.837-1.051.959.959,0,0,1,1.077,1.055l0,2.915,2.908-.01a.97.97,0,1,1,0,1.93l-2.916-.006.013,3.2c0,.4.616.862.973.856Z" transform="translate(-111.766 -120.415)" fill="#344866"/>
        <path id="Trazado_1279551" data-name="Trazado 1279551" d="M287.808,159.054c-.142.715-.476,1.064-1.1,1.035a.948.948,0,0,1-.837-1.173l2.011-10.038a.975.975,0,1,1,1.815.714Z" transform="translate(-232.156 -120.403)" fill="#344866"/>
        <path id="Trazado_1279552" data-name="Trazado 1279552" d="M266.655,159.373a.955.955,0,0,1-1.173.729,1.018,1.018,0,0,1-.666-1.326l1.914-9.565a1.027,1.027,0,0,1,1.133-.909.989.989,0,0,1,.763,1.3Z" transform="translate(-215.047 -120.441)" fill="#344866"/>
        <path id="Trazado_1279553" data-name="Trazado 1279553" d="M44.248,85.719a.96.96,0,1,1-.96-.959.96.96,0,0,1,.96.959" transform="translate(-34.378 -68.84)" fill="#344866"/>
        <path id="Trazado_1279554" data-name="Trazado 1279554" d="M23.088,85.695a.958.958,0,1,1-.958-.958.958.958,0,0,1,.958.958" transform="translate(-17.196 -68.821)" fill="#344866"/>
        <path id="Trazado_1279555" data-name="Trazado 1279555" d="M245.43,191.561a.957.957,0,1,1-.958-.958.958.958,0,0,1,.958.958" transform="translate(-197.776 -154.803)" fill="#344866"/>
        <path id="Trazado_1279556" data-name="Trazado 1279556" d="M245.427,170.351a.958.958,0,1,1-.958-.958.958.958,0,0,1,.958.958" transform="translate(-197.773 -137.576)" fill="#344866"/>
      </g>
    </g>
  </g>
</svg>
