<svg xmlns="http://www.w3.org/2000/svg" xmlns:xlink="http://www.w3.org/1999/xlink" width="96" height="96" viewBox="0 0 96 96">
  <defs>
    <clipPath id="clip-path">
      <rect id="Rectángulo_454829" data-name="Rectángulo 454829" width="96" height="96" fill="#1e535a"/>
    </clipPath>
    <clipPath id="clip-path-2">
      <rect id="Rectángulo_462636" data-name="Rectángulo 462636" width="35" height="33.847" fill="#1e535a"/>
    </clipPath>
  </defs>
  <g id="Grupo_1210231" data-name="Grupo 1210231" transform="translate(-1481 -8562.5)">
    <g id="Grupo_1177591" data-name="Grupo 1177591" transform="translate(1481 8562.5)">
      <g id="Grupo_1177589" data-name="Grupo 1177589" transform="translate(0 0)">
        <g id="Grupo_1177587" data-name="Grupo 1177587" clip-path="url(#clip-path)">
          <path id="Trazado_997422" data-name="Trazado 997422" d="M92.081,42.491a44.136,44.136,0,0,0-9.97-22.967,5.076,5.076,0,0,0-7.142-6.838A44.071,44.071,0,0,0,52.151,3.77a5.077,5.077,0,0,0-9.861.2A44.132,44.132,0,0,0,20.4,13.329a5.079,5.079,0,0,0-7.048,7.1A44.1,44.1,0,0,0,4.112,42.448,5.08,5.08,0,0,0,3.99,52.4a44.082,44.082,0,0,0,8.949,22.468,5.078,5.078,0,0,0,6.9,7.17,44.128,44.128,0,0,0,22.412,9.8,5.078,5.078,0,0,0,9.949.2,44.091,44.091,0,0,0,22.985-9.08,5.077,5.077,0,0,0,7.107-6.874A44.147,44.147,0,0,0,92.2,52.349a5.078,5.078,0,0,0-.119-9.858M77.74,22.024a5.05,5.05,0,0,0,2.812-.851,41.913,41.913,0,0,1,9.25,21.3,5.086,5.086,0,0,0-3.246,2.351l-12.98-4.867c.01-.142.02-.286.02-.433a5.079,5.079,0,0,0-2.151-4.15l5.678-13.4a5.5,5.5,0,0,0,.616.041M75,21.216,69.354,34.523a5.026,5.026,0,0,0-5.594,3.23L40.279,32.344a4.941,4.941,0,0,0-.106-1.011l33.322-11.6A5.1,5.1,0,0,0,75,21.216M47.246,10.165a5.083,5.083,0,0,0,4.989-4.122,41.844,41.844,0,0,1,21.158,8.275,5.054,5.054,0,0,0-.735,2.625,5.335,5.335,0,0,0,.048.671L39.217,29.273a5.1,5.1,0,0,0-.92-.92l8.784-18.2c.056,0,.109.008.165.008M42.3,6.243A5.083,5.083,0,0,0,44.86,9.569L36.248,27.4a5.1,5.1,0,0,0-1.049-.109,5.045,5.045,0,0,0-2.9.91L22.1,19.678A5.052,5.052,0,0,0,21.923,15,41.877,41.877,0,0,1,42.3,6.243M10.041,46.332,31.153,35.442a5.064,5.064,0,0,0,4.006,2.014l7.236,23.129a5.166,5.166,0,0,0-1.12,1.239l-31.3-13.04a5.048,5.048,0,0,0,.187-1.348,5.107,5.107,0,0,0-.124-1.1m4.986-24.391a5.079,5.079,0,0,0,5.673-.484l10.079,8.417a5.068,5.068,0,0,0-.56,3.512L9.07,44.29A5.081,5.081,0,0,0,6.38,42.526a41.859,41.859,0,0,1,8.647-20.585m2.1,50.717a5.067,5.067,0,0,0-2.523.674A41.822,41.822,0,0,1,6.263,52.374,5.087,5.087,0,0,0,8.9,50.783l31.609,13.17a5.45,5.45,0,0,0-.041.611,5.081,5.081,0,0,0,.3,1.718L21.657,75.44a5.081,5.081,0,0,0-4.528-2.782M42.349,89.575a41.919,41.919,0,0,1-20.912-9.149,5.029,5.029,0,0,0,.775-2.686l0-.058L42,68.2A5.082,5.082,0,0,0,43.8,69.329l1.186,17.043a5.082,5.082,0,0,0-2.632,3.2m2.105-29.97-7.081-22.64a5.089,5.089,0,0,0,2.415-2.415L63.459,40a5.052,5.052,0,0,0,.808,2.311L48.032,60.13a5.019,5.019,0,0,0-3.577-.524m7.74,30.167a5.081,5.081,0,0,0-4.948-3.937l-.038,0L46.081,69.62a5.073,5.073,0,0,0,3.106-1.507L72.853,78.551c0,.046-.008.086-.008.132a5.057,5.057,0,0,0,.752,2.65,41.841,41.841,0,0,1-21.4,8.439M73.423,76.334,50.373,66.165a5.052,5.052,0,0,0-.666-4.52L65.893,43.877a5.052,5.052,0,0,0,2.622.735,5.594,5.594,0,0,0,.623-.041l6.05,29.836a5.071,5.071,0,0,0-1.766,1.928m7.292-1.9a5.051,5.051,0,0,0-3.377-.8L71.285,43.788a5.1,5.1,0,0,0,1.6-1.672L85.858,46.98a4.506,4.506,0,0,0-.023.456,5.08,5.08,0,0,0,4.084,4.981,41.876,41.876,0,0,1-9.2,22.017" transform="translate(0 0.001)" fill="#1e535a"/>
        </g>
      </g>
    </g>
    <g id="Elipse_13614" data-name="Elipse 13614" transform="translate(1497.457 8579.025)" fill="#d5f4f8" stroke="#1e535a" stroke-width="3">
      <ellipse cx="31.232" cy="31.233" rx="31.232" ry="31.233" stroke="none"/>
      <ellipse cx="31.232" cy="31.233" rx="29.732" ry="29.733" fill="none"/>
    </g>
    <g id="Grupo_1213073" data-name="Grupo 1213073" transform="translate(1511.457 8593.025)">
      <g id="Grupo_1213072" data-name="Grupo 1213072" clip-path="url(#clip-path-2)">
        <path id="Trazado_1279088" data-name="Trazado 1279088" d="M35,67.806a5.421,5.421,0,0,1-5.373,5.3H5.445A5.421,5.421,0,0,1,.076,67.849L.042,47.561l3.818,0a1.9,1.9,0,0,0,1.9-2.114,1.315,1.315,0,0,1,1.175-1.533l3.475-.018a1.481,1.481,0,0,1,.789.332L13.93,46.8a2.142,2.142,0,0,0,1.355.761l19.746,0ZM26.93,60.2a9.391,9.391,0,1,0-9.391,9.391A9.391,9.391,0,0,0,26.93,60.2" transform="translate(-0.038 -39.256)" fill="#1e535a"/>
        <path id="Trazado_1279089" data-name="Trazado 1279089" d="M10.638,3.545l-3.957.049A2.344,2.344,0,0,0,4.627,6.183a1.185,1.185,0,0,1-.155.715,1,1,0,0,1-.747.3L.011,7.19A20.315,20.315,0,0,1,.059,4.8,5.454,5.454,0,0,1,5.309,0h24.38a5.454,5.454,0,0,1,5.251,4.806,18.01,18.01,0,0,1,.038,2.388H15.14L12.1,4.357a2.907,2.907,0,0,0-1.462-.812m21.714.046a1.815,1.815,0,1,0-1.815,1.815,1.815,1.815,0,0,0,1.815-1.815m-4.622.156a1.816,1.816,0,1,0-1.816,1.816,1.816,1.816,0,0,0,1.816-1.816m-4.617.162A1.817,1.817,0,1,0,21.3,5.726a1.817,1.817,0,0,0,1.816-1.817" transform="translate(0 0)" fill="#1e535a"/>
        <path id="Trazado_1279090" data-name="Trazado 1279090" d="M212.463,206.016l-3.053,0,.268-2.67,3.378,0a9.559,9.559,0,0,1-.593,2.67" transform="translate(-187.288 -181.864)" fill="#1e535a"/>
        <path id="Trazado_1279091" data-name="Trazado 1279091" d="M90.689,170.445l-3.394,0a8.853,8.853,0,0,1,.624-2.651l3.034-.005Z" transform="translate(-78.073 -150.068)" fill="#1e535a"/>
        <path id="Trazado_1279092" data-name="Trazado 1279092" d="M173.8,206.02h-2.974l0-2.672,3.265,0Z" transform="translate(-152.776 -181.867)" fill="#1e535a"/>
        <path id="Trazado_1279093" data-name="Trazado 1279093" d="M132.875,170.462l-3.265.006.29-2.65,2.965-.007Z" transform="translate(-115.917 -150.083)" fill="#1e535a"/>
        <path id="Trazado_1279094" data-name="Trazado 1279094" d="M214.577,170.5l-3.4,0-.084-1.1a2.187,2.187,0,0,0,1.507-1.557l1.356-.006a9.665,9.665,0,0,1,.617,2.658" transform="translate(-188.797 -150.113)" fill="#1e535a"/>
        <path id="Trazado_1279095" data-name="Trazado 1279095" d="M172.277,241.814a3.672,3.672,0,0,1-1.463,1.2l-.009-3.9,2.675,0a10.667,10.667,0,0,1-1.2,2.69" transform="translate(-152.761 -213.86)" fill="#1e535a"/>
        <path id="Trazado_1279096" data-name="Trazado 1279096" d="M135.208,124.4c.438-1.545,1.178-3.259,2.66-3.919l.014,3.91Z" transform="translate(-120.924 -107.751)" fill="#1e535a"/>
        <path id="Trazado_1279097" data-name="Trazado 1279097" d="M90.661,204.045a2.349,2.349,0,0,0-1.445,1.977l-1.353,0a10.327,10.327,0,0,1-.611-2.667l3.309-.007a1.1,1.1,0,0,1,.1.693" transform="translate(-78.035 -181.87)" fill="#1e535a"/>
        <path id="Trazado_1279098" data-name="Trazado 1279098" d="M173.914,169.341l.077,1.04h-3.237l0-2.65,1.428-.016a2.288,2.288,0,0,0,1.735,1.625" transform="translate(-152.714 -149.998)" fill="#1e535a"/>
        <path id="Trazado_1279099" data-name="Trazado 1279099" d="M196.605,239.128a8.144,8.144,0,0,1-4.244,3.467,11.925,11.925,0,0,0,1.524-3.468Z" transform="translate(-172.04 -213.865)" fill="#1e535a"/>
        <path id="Trazado_1279100" data-name="Trazado 1279100" d="M101.34,127.956l-2.732-.012a8.272,8.272,0,0,1,4.267-3.489,11.654,11.654,0,0,0-1.535,3.5" transform="translate(-88.191 -111.307)" fill="#1e535a"/>
        <path id="Trazado_1279101" data-name="Trazado 1279101" d="M173.076,123.378a3.138,3.138,0,0,0-.837,1.256l-1.4,0,0-3.889a4.592,4.592,0,0,1,2.233,2.636" transform="translate(-152.791 -107.987)" fill="#1e535a"/>
        <path id="Trazado_1279102" data-name="Trazado 1279102" d="M141.382,242.958a4.573,4.573,0,0,1-2.247-2.723,2.716,2.716,0,0,0,1.04-1.146l1.214-.013Z" transform="translate(-124.437 -213.82)" fill="#1e535a"/>
        <path id="Trazado_1279103" data-name="Trazado 1279103" d="M118.6,219.642a1.281,1.281,0,1,1-1.281-1.281,1.281,1.281,0,0,1,1.281,1.281" transform="translate(-103.777 -195.293)" fill="#1e535a"/>
        <path id="Trazado_1279104" data-name="Trazado 1279104" d="M133.178,206.008l-1.039.018a2.379,2.379,0,0,0-2.154-2.145l-.033-.534h3.223Z" transform="translate(-116.224 -181.865)" fill="#1e535a"/>
        <path id="Trazado_1279105" data-name="Trazado 1279105" d="M196.434,152.87a1.14,1.14,0,1,1-1.14-1.14,1.14,1.14,0,0,1,1.14,1.14" transform="translate(-173.643 -135.701)" fill="#1e535a"/>
        <path id="Trazado_1279106" data-name="Trazado 1279106" d="M102.149,240.6l1.1,2.035a8.308,8.308,0,0,1-4.231-3.451l.909-.035a2.253,2.253,0,0,0,2.219,1.451" transform="translate(-88.56 -213.885)" fill="#1e535a"/>
        <path id="Trazado_1279107" data-name="Trazado 1279107" d="M195.719,127.857a2.242,2.242,0,0,0-2.493-1.7l-1.023-1.83a8.427,8.427,0,0,1,4.253,3.466Z" transform="translate(-171.899 -111.197)" fill="#1e535a"/>
        <path id="Trazado_1279108" data-name="Trazado 1279108" d="M196.186,30.877a.723.723,0,1,1-.723-.723.723.723,0,0,1,.723.723" transform="translate(-174.168 -26.969)" fill="#1e535a"/>
        <path id="Trazado_1279109" data-name="Trazado 1279109" d="M239.852,29.444a.724.724,0,1,1-.724-.724.724.724,0,0,1,.724.724" transform="translate(-213.219 -25.686)" fill="#1e535a"/>
        <path id="Trazado_1279110" data-name="Trazado 1279110" d="M283.615,27.807a.726.726,0,1,1-.726-.726.726.726,0,0,1,.726.726" transform="translate(-252.355 -24.22)" fill="#1e535a"/>
      </g>
    </g>
  </g>
</svg>
