<svg xmlns="http://www.w3.org/2000/svg" xmlns:xlink="http://www.w3.org/1999/xlink" width="96" height="96" viewBox="0 0 96 96">
  <defs>
    <clipPath id="clip-path">
      <rect id="Rectángulo_454829" data-name="Rectángulo 454829" width="96" height="96" fill="#1e535a"/>
    </clipPath>
    <clipPath id="clip-path-2">
      <rect id="Rectángulo_462809" data-name="Rectángulo 462809" width="36" height="36.024" fill="#1e535a"/>
    </clipPath>
  </defs>
  <g id="Grupo_1212260" data-name="Grupo 1212260" transform="translate(-1481 -8562.5)">
    <g id="Grupo_1177591" data-name="Grupo 1177591" transform="translate(1481 8562.5)">
      <g id="Grupo_1177589" data-name="Grupo 1177589" transform="translate(0 0)">
        <g id="Grupo_1177587" data-name="Grupo 1177587" clip-path="url(#clip-path)">
          <path id="Trazado_997422" data-name="Trazado 997422" d="M92.081,42.491a44.136,44.136,0,0,0-9.97-22.967,5.076,5.076,0,0,0-7.142-6.838A44.071,44.071,0,0,0,52.151,3.77a5.077,5.077,0,0,0-9.861.2A44.132,44.132,0,0,0,20.4,13.329a5.079,5.079,0,0,0-7.048,7.1A44.1,44.1,0,0,0,4.112,42.448,5.08,5.08,0,0,0,3.99,52.4a44.082,44.082,0,0,0,8.949,22.468,5.078,5.078,0,0,0,6.9,7.17,44.128,44.128,0,0,0,22.412,9.8,5.078,5.078,0,0,0,9.949.2,44.091,44.091,0,0,0,22.985-9.08,5.077,5.077,0,0,0,7.107-6.874A44.147,44.147,0,0,0,92.2,52.349a5.078,5.078,0,0,0-.119-9.858M77.74,22.024a5.05,5.05,0,0,0,2.812-.851,41.913,41.913,0,0,1,9.25,21.3,5.086,5.086,0,0,0-3.246,2.351l-12.98-4.867c.01-.142.02-.286.02-.433a5.079,5.079,0,0,0-2.151-4.15l5.678-13.4a5.5,5.5,0,0,0,.616.041M75,21.216,69.354,34.523a5.026,5.026,0,0,0-5.594,3.23L40.279,32.344a4.941,4.941,0,0,0-.106-1.011l33.322-11.6A5.1,5.1,0,0,0,75,21.216M47.246,10.165a5.083,5.083,0,0,0,4.989-4.122,41.844,41.844,0,0,1,21.158,8.275,5.054,5.054,0,0,0-.735,2.625,5.335,5.335,0,0,0,.048.671L39.217,29.273a5.1,5.1,0,0,0-.92-.92l8.784-18.2c.056,0,.109.008.165.008M42.3,6.243A5.083,5.083,0,0,0,44.86,9.569L36.248,27.4a5.1,5.1,0,0,0-1.049-.109,5.045,5.045,0,0,0-2.9.91L22.1,19.678A5.052,5.052,0,0,0,21.923,15,41.877,41.877,0,0,1,42.3,6.243M10.041,46.332,31.153,35.442a5.064,5.064,0,0,0,4.006,2.014l7.236,23.129a5.166,5.166,0,0,0-1.12,1.239l-31.3-13.04a5.048,5.048,0,0,0,.187-1.348,5.107,5.107,0,0,0-.124-1.1m4.986-24.391a5.079,5.079,0,0,0,5.673-.484l10.079,8.417a5.068,5.068,0,0,0-.56,3.512L9.07,44.29A5.081,5.081,0,0,0,6.38,42.526a41.859,41.859,0,0,1,8.647-20.585m2.1,50.717a5.067,5.067,0,0,0-2.523.674A41.822,41.822,0,0,1,6.263,52.374,5.087,5.087,0,0,0,8.9,50.783l31.609,13.17a5.45,5.45,0,0,0-.041.611,5.081,5.081,0,0,0,.3,1.718L21.657,75.44a5.081,5.081,0,0,0-4.528-2.782M42.349,89.575a41.919,41.919,0,0,1-20.912-9.149,5.029,5.029,0,0,0,.775-2.686l0-.058L42,68.2A5.082,5.082,0,0,0,43.8,69.329l1.186,17.043a5.082,5.082,0,0,0-2.632,3.2m2.105-29.97-7.081-22.64a5.089,5.089,0,0,0,2.415-2.415L63.459,40a5.052,5.052,0,0,0,.808,2.311L48.032,60.13a5.019,5.019,0,0,0-3.577-.524m7.74,30.167a5.081,5.081,0,0,0-4.948-3.937l-.038,0L46.081,69.62a5.073,5.073,0,0,0,3.106-1.507L72.853,78.551c0,.046-.008.086-.008.132a5.057,5.057,0,0,0,.752,2.65,41.841,41.841,0,0,1-21.4,8.439M73.423,76.334,50.373,66.165a5.052,5.052,0,0,0-.666-4.52L65.893,43.877a5.052,5.052,0,0,0,2.622.735,5.594,5.594,0,0,0,.623-.041l6.05,29.836a5.071,5.071,0,0,0-1.766,1.928m7.292-1.9a5.051,5.051,0,0,0-3.377-.8L71.285,43.788a5.1,5.1,0,0,0,1.6-1.672L85.858,46.98a4.506,4.506,0,0,0-.023.456,5.08,5.08,0,0,0,4.084,4.981,41.876,41.876,0,0,1-9.2,22.017" transform="translate(0 0.001)" fill="#1e535a"/>
        </g>
      </g>
    </g>
    <g id="Elipse_13614" data-name="Elipse 13614" transform="translate(1498 8579.5)" fill="#d5f4f8" stroke="#1e535a" stroke-width="3">
      <ellipse cx="31.232" cy="31.233" rx="31.232" ry="31.233" stroke="none"/>
      <ellipse cx="31.232" cy="31.233" rx="29.732" ry="29.733" fill="none"/>
    </g>
    <g id="Grupo_1213188" data-name="Grupo 1213188" transform="translate(1511 8592.5)">
      <g id="Grupo_1213187" data-name="Grupo 1213187" clip-path="url(#clip-path-2)">
        <path id="Trazado_1279576" data-name="Trazado 1279576" d="M30.044,54.064l-.821-1.5,5.151,0A1.893,1.893,0,0,1,36,54.271l0,22.264a1.916,1.916,0,0,1-2.083,1.746L2,78.279A1.894,1.894,0,0,1,0,76.536V54.271a1.865,1.865,0,0,1,1.831-1.708l4.94.007-.806,1.505-4.112-.005c-.133.012-.372.2-.372.359v17.82H34.514l0-17.82c0-.158-.24-.355-.369-.371ZM19.265,75.252A1.265,1.265,0,1,0,18,76.516a1.265,1.265,0,0,0,1.265-1.265" transform="translate(0 -47.137)" fill="#1e535a"/>
        <path id="Trazado_1279577" data-name="Trazado 1279577" d="M60.492,114.167l-26.29,0a1.413,1.413,0,0,1-1.356-1.223l-.005-5.373a1.435,1.435,0,0,1,1.568-1.319H60.492a1.431,1.431,0,0,1,1.562,1.321l0,5.255a1.444,1.444,0,0,1-1.566,1.343m-16.706-5.429c.058-.185-.227-.472-.358-.445a.638.638,0,0,0-.368.29l-.678,2.033-.991-2.1a.546.546,0,0,0-.337-.218.539.539,0,0,0-.327.225l-1.007,2.165-.779-2.121a.528.528,0,0,0-.451-.261.542.542,0,0,0-.273.465l1.143,3.114a1.068,1.068,0,0,0,.349.21c.093.016.289-.14.332-.234l1.029-2.254,1.056,2.288a.507.507,0,0,0,.36.195.571.571,0,0,0,.327-.276Zm6.465-.018c.044-.141-.215-.417-.346-.418a.564.564,0,0,0-.411.325l-.65,2.03L47.9,108.6a.635.635,0,0,0-.352-.294.545.545,0,0,0-.382.256l-.981,2.13-.832-2.228c-.049-.132-.426-.2-.523-.1a.673.673,0,0,0-.1.5l1.073,2.971a.493.493,0,0,0,.4.251.658.658,0,0,0,.318-.269l1.014-2.222,1.032,2.261a.485.485,0,0,0,.412.233.655.655,0,0,0,.309-.31Zm6.45.024c.045-.143-.173-.428-.288-.442a.527.527,0,0,0-.419.216l-.695,2.155-.96-2.112a.58.58,0,0,0-.372-.255.556.556,0,0,0-.334.233l-1,2.158-.783-2.128a.436.436,0,0,0-.518-.225.447.447,0,0,0-.162.5l1.094,3.021a.53.53,0,0,0,.346.234.569.569,0,0,0,.335-.233l1.037-2.263,1.029,2.243a.552.552,0,0,0,.38.255.5.5,0,0,0,.327-.259Z" transform="translate(-29.452 -95.283)" fill="#1e535a"/>
        <path id="Trazado_1279578" data-name="Trazado 1279578" d="M109.914,312.943l-14.68,0a1.056,1.056,0,0,1-.835-.371,1.011,1.011,0,0,1-.116-.889,2.137,2.137,0,0,1,1.861-1.33l1.955-.027.014-1.541h8.776l.009,1.543,2.057.035c.955.016,2.138,1.172,1.728,2.072a.93.93,0,0,1-.769.5" transform="translate(-84.503 -276.923)" fill="#1e535a"/>
        <path id="Trazado_1279579" data-name="Trazado 1279579" d="M179.628.137c1.954,1.382,2.969,3.664,3.651,6.016a22.453,22.453,0,0,1-5.133.67V0Z" transform="translate(-159.761 -0.004)" fill="#1e535a"/>
        <path id="Trazado_1279580" data-name="Trazado 1279580" d="M121.03,6.159A10.685,10.685,0,0,1,124.667.124L126.158,0V6.814a23.094,23.094,0,0,1-5.129-.656" transform="translate(-108.54)" fill="#1e535a"/>
        <path id="Trazado_1279581" data-name="Trazado 1279581" d="M242.708,54.524h-5.28a35.58,35.58,0,0,0-.551-3.566,17.129,17.129,0,0,0,3.613-1.569,12.271,12.271,0,0,1,2.219,5.135" transform="translate(-212.43 -44.292)" fill="#1e535a"/>
        <path id="Trazado_1279582" data-name="Trazado 1279582" d="M60.707,54.541l-5.281,0a12.275,12.275,0,0,1,2.219-5.134,15.932,15.932,0,0,0,3.615,1.556,33.518,33.518,0,0,0-.553,3.576" transform="translate(-49.706 -44.31)" fill="#1e535a"/>
        <path id="Trazado_1279583" data-name="Trazado 1279583" d="M119.787,70.03l-5.863,0a29.345,29.345,0,0,1,.529-3.352,24.982,24.982,0,0,0,5.332.693Z" transform="translate(-102.167 -59.799)" fill="#1e535a"/>
        <path id="Trazado_1279584" data-name="Trazado 1279584" d="M184,70.038l-5.859.008v-2.66a25.417,25.417,0,0,0,5.326-.692A30.635,30.635,0,0,1,184,70.038" transform="translate(-159.756 -59.81)" fill="#1e535a"/>
        <path id="Trazado_1279585" data-name="Trazado 1279585" d="M214.383,8.909a14.988,14.988,0,0,1-3.358,1.469,13.886,13.886,0,0,0-2.743-5.444,12.391,12.391,0,0,1,6.1,3.975" transform="translate(-186.786 -4.425)" fill="#1e535a"/>
        <path id="Trazado_1279586" data-name="Trazado 1279586" d="M84.717,10.374A14.157,14.157,0,0,1,81.35,8.951a12.327,12.327,0,0,1,6.1-3.993,13.558,13.558,0,0,0-2.736,5.416" transform="translate(-72.955 -4.446)" fill="#1e535a"/>
        <path id="Trazado_1279587" data-name="Trazado 1279587" d="M170.5,267.993a.508.508,0,1,1-.508-.508.508.508,0,0,1,.508.508" transform="translate(-151.995 -239.88)" fill="#1e535a"/>
      </g>
    </g>
  </g>
</svg>
