<svg id="Grupo_1211864" data-name="Grupo 1211864" xmlns="http://www.w3.org/2000/svg" xmlns:xlink="http://www.w3.org/1999/xlink" width="128" height="128" viewBox="0 0 128 128">
  <defs>
    <clipPath id="clip-path">
      <rect id="Rectángulo_454829" data-name="Rectángulo 454829" width="128" height="128" fill="#1e535a"/>
    </clipPath>
    <clipPath id="clip-path-2">
      <rect id="Rectángulo_462984" data-name="Rectángulo 462984" width="43.52" height="43.525" fill="#1e535a"/>
    </clipPath>
  </defs>
  <g id="Grupo_1177591" data-name="Grupo 1177591">
    <g id="Grupo_1177589" data-name="Grupo 1177589" transform="translate(0 0)">
      <g id="Grupo_1177587" data-name="Grupo 1177587" clip-path="url(#clip-path)">
        <path id="Trazado_997422" data-name="Trazado 997422" d="M122.774,56.654a58.848,58.848,0,0,0-13.293-30.623,6.768,6.768,0,0,0-9.523-9.118A58.761,58.761,0,0,0,69.535,5.027a6.769,6.769,0,0,0-13.148.267A58.842,58.842,0,0,0,27.2,17.772a6.771,6.771,0,0,0-9.4,9.462A58.794,58.794,0,0,0,5.483,56.6a6.774,6.774,0,0,0-.162,13.266A58.776,58.776,0,0,0,17.252,99.82a6.771,6.771,0,0,0,9.2,9.56,58.838,58.838,0,0,0,29.883,13.07,6.771,6.771,0,0,0,13.266.267,58.788,58.788,0,0,0,30.646-12.107,6.769,6.769,0,0,0,9.476-9.165A58.863,58.863,0,0,0,122.933,69.8a6.771,6.771,0,0,0-.159-13.144m-19.12-27.288a6.733,6.733,0,0,0,3.75-1.135,55.884,55.884,0,0,1,12.333,28.407,6.781,6.781,0,0,0-4.327,3.135L98.1,53.283c.013-.189.027-.382.027-.578a6.772,6.772,0,0,0-2.868-5.533l7.57-17.86a7.335,7.335,0,0,0,.821.054M100,28.288,92.472,46.03a6.7,6.7,0,0,0-7.459,4.307L53.705,43.125a6.588,6.588,0,0,0-.142-1.348L97.992,26.305a6.793,6.793,0,0,0,2,1.983M63,13.553a6.777,6.777,0,0,0,6.651-5.5A55.792,55.792,0,0,1,97.857,19.09a6.739,6.739,0,0,0-.98,3.5,7.114,7.114,0,0,0,.064.9L52.29,39.031A6.8,6.8,0,0,0,51.064,37.8L62.775,13.543c.074,0,.145.01.22.01M56.4,8.324a6.778,6.778,0,0,0,3.409,4.435L48.331,36.538a6.8,6.8,0,0,0-1.4-.145,6.727,6.727,0,0,0-3.861,1.213L29.461,26.238A6.736,6.736,0,0,0,29.231,20,55.836,55.836,0,0,1,56.4,8.324M13.387,61.776l28.15-14.519a6.751,6.751,0,0,0,5.341,2.686l9.648,30.839a6.887,6.887,0,0,0-1.493,1.652L13.3,65.046a6.731,6.731,0,0,0,.25-1.8,6.81,6.81,0,0,0-.166-1.473m6.648-32.521a6.771,6.771,0,0,0,7.564-.645L41.037,39.831a6.758,6.758,0,0,0-.747,4.682l-28.2,14.539A6.774,6.774,0,0,0,8.506,56.7,55.812,55.812,0,0,1,20.036,29.254m2.8,67.623a6.756,6.756,0,0,0-3.365.9A55.762,55.762,0,0,1,8.351,69.832a6.783,6.783,0,0,0,3.517-2.121L54.013,85.27a7.266,7.266,0,0,0-.054.814,6.775,6.775,0,0,0,.405,2.29L28.876,100.587a6.775,6.775,0,0,0-6.037-3.709m33.626,22.556a55.892,55.892,0,0,1-27.883-12.2,6.705,6.705,0,0,0,1.034-3.581l0-.078L56,90.929a6.776,6.776,0,0,0,2.392,1.51l1.581,22.725a6.776,6.776,0,0,0-3.51,4.27m2.807-39.96L49.831,49.287a6.786,6.786,0,0,0,3.219-3.219l31.562,7.266a6.736,6.736,0,0,0,1.078,3.081L64.042,80.173a6.692,6.692,0,0,0-4.77-.7M69.592,119.7a6.774,6.774,0,0,0-6.6-5.25l-.051,0-1.5-21.623a6.764,6.764,0,0,0,4.142-2.01l31.555,13.918c0,.061-.01.115-.01.176a6.743,6.743,0,0,0,1,3.534A55.789,55.789,0,0,1,69.592,119.7M97.9,101.779,67.164,88.22a6.736,6.736,0,0,0-.888-6.027L87.858,58.5a6.736,6.736,0,0,0,3.5.98,7.46,7.46,0,0,0,.831-.054l8.067,39.781a6.761,6.761,0,0,0-2.355,2.571m9.722-2.534a6.735,6.735,0,0,0-4.5-1.064l-8.07-39.8a6.8,6.8,0,0,0,2.135-2.23l17.3,6.486a6.009,6.009,0,0,0-.03.608,6.774,6.774,0,0,0,5.445,6.641A55.835,55.835,0,0,1,107.62,99.246" transform="translate(0 0.001)" fill="#1e535a"/>
      </g>
    </g>
  </g>
  <g id="Elipse_13614" data-name="Elipse 13614" transform="translate(23.707 24.598)" fill="#fff" stroke="#1e535a" stroke-width="3">
    <ellipse cx="39.732" cy="39.733" rx="39.732" ry="39.733" stroke="none"/>
    <ellipse cx="39.732" cy="39.733" rx="38.232" ry="38.233" fill="none"/>
  </g>
  <g id="Grupo_1213452" data-name="Grupo 1213452" transform="translate(41.707 42.598)">
    <g id="Grupo_1213451" data-name="Grupo 1213451" clip-path="url(#clip-path-2)">
      <path id="Trazado_1279857" data-name="Trazado 1279857" d="M213.531,191.7a2.881,2.881,0,0,1-2.805,2.993l-11.58.005a2.877,2.877,0,0,1-3-2.706l-.033-14.849a2.936,2.936,0,0,1,2.918-2.764l6.16,0v7.242a1.128,1.128,0,0,0,1.156,1.1l7.185,0Z" transform="translate(-170.012 -151.17)" fill="#1e535a"/>
      <path id="Trazado_1279858" data-name="Trazado 1279858" d="M17.395,17.488a2.938,2.938,0,0,1-3.02,2.851L2.8,20.32A2.864,2.864,0,0,1,.027,17.7L0,2.922A2.79,2.79,0,0,1,2.663.027L9.05,0V7.183a1.178,1.178,0,0,0,1.213,1.178l7.162,0Z" transform="translate(0)" fill="#1e535a"/>
      <path id="Trazado_1279859" data-name="Trazado 1279859" d="M69.92,196.751a1.07,1.07,0,0,1,1.024,1.079,1.135,1.135,0,0,1-1.047,1.109l-5.977-.014a3.905,3.905,0,0,1-3.837-3.82l-.041-3.354-.989,1.007a1.092,1.092,0,1,1-1.6-1.483l2.994-3a1.145,1.145,0,0,1,1.371-.02l3.07,3.072a1.089,1.089,0,0,1-1.666,1.4l-.977-.938,0,3.266a1.773,1.773,0,0,0,1.8,1.682Z" transform="translate(-49.548 -163.019)" fill="#1e535a"/>
      <path id="Trazado_1279860" data-name="Trazado 1279860" d="M175.2,67.661l-2.867-2.872a1.129,1.129,0,0,1-.038-1.495,1.107,1.107,0,0,1,1.567-.039l1.055,1,0-3.292a1.717,1.717,0,0,0-1.415-1.6l-6.2-.04a1.133,1.133,0,0,1-1.091-1.1,1.12,1.12,0,0,1,1.046-1.1l6.1.029a3.851,3.851,0,0,1,3.717,3.793l.042,3.355.99-1.008a1.092,1.092,0,1,1,1.6,1.485l-2.984,2.981a1.1,1.1,0,0,1-1.518-.1" transform="translate(-144.09 -49.523)" fill="#1e535a"/>
      <path id="Trazado_1279861" data-name="Trazado 1279861" d="M285.921,187.727l-5.1.024.017-5.106Z" transform="translate(-243.453 -158.34)" fill="#1e535a"/>
      <path id="Trazado_1279862" data-name="Trazado 1279862" d="M89.4,13.2l-5.055.043.026-5.072Z" transform="translate(-73.117 -7.086)" fill="#1e535a"/>
    </g>
  </g>
</svg>
