<svg xmlns="http://www.w3.org/2000/svg" xmlns:xlink="http://www.w3.org/1999/xlink" width="69" height="69" viewBox="0 0 69 69">
  <defs>
    <clipPath id="clip-path">
      <rect id="Rectángulo_462837" data-name="Rectángulo 462837" width="39.039" height="39.049" fill="#fff"/>
    </clipPath>
  </defs>
  <g id="Grupo_1212961" data-name="Grupo 1212961" transform="translate(-273.711 -1369.867)">
    <circle id="Elipse_13700" data-name="Elipse 13700" cx="34.5" cy="34.5" r="34.5" transform="translate(273.711 1369.867)" fill="#1e535a"/>
    <g id="Grupo_1213215" data-name="Grupo 1213215" transform="translate(288.711 1384.867)">
      <g id="Grupo_1213214" data-name="Grupo 1213214" clip-path="url(#clip-path)">
        <path id="Trazado_1279715" data-name="Trazado 1279715" d="M176.971,10.426H161.4a9.966,9.966,0,0,0-3.736-.826V.729A.743.743,0,0,1,158.367,0l17.857,0a.756.756,0,0,1,.747.809Z" transform="translate(-137.953)" fill="#fff"/>
        <path id="Trazado_1279716" data-name="Trazado 1279716" d="M19.3,183.007l-19.3,0v-9.668a.693.693,0,0,1,.782-.73l9.012,0a9.955,9.955,0,0,0,9.5,7.863Z" transform="translate(0 -151.031)" fill="#fff"/>
        <path id="Trazado_1279717" data-name="Trazado 1279717" d="M28.718,28.2c-3.038.151-5.141,2.522-6.441,5.129a6.707,6.707,0,0,1,5.107-7.743.716.716,0,0,0,.4-.3,1.369,1.369,0,0,0-.031-.505l-.7-1.5,5.462,1.9-3.014,4.909-.17-1.306a.614.614,0,0,0-.619-.578" transform="translate(-19.434 -20.366)" fill="#fff"/>
        <path id="Trazado_1279718" data-name="Trazado 1279718" d="M207.358,217.16l3-4.9.2,1.411a.709.709,0,0,0,.64.48c3.017-.231,5.072-2.513,6.368-5.087a6.651,6.651,0,0,1-5,7.654,1.115,1.115,0,0,0-.457.271.787.787,0,0,0,.018.549l.648,1.5Z" transform="translate(-181.437 -182.929)" fill="#fff"/>
        <path id="Trazado_1279719" data-name="Trazado 1279719" d="M18.866,265.264H.725c-.159,0-.592-.186-.6-.334l-.059-1.02H19.334c.1.577.07,1.04-.468,1.353" transform="translate(-0.058 -230.921)" fill="#fff"/>
        <path id="Trazado_1279720" data-name="Trazado 1279720" d="M216.091,92.877l-11.709.03-1.465-1.36h13.609c.136.3.088,1.328-.434,1.329" transform="translate(-177.55 -80.103)" fill="#fff"/>
        <path id="Trazado_1279721" data-name="Trazado 1279721" d="M198.509,117.01l-3.476.031a25.9,25.9,0,0,0-.618-4.194l2.152-.843a8.694,8.694,0,0,1,1.943,5.006" transform="translate(-170.111 -98.003)" fill="#fff"/>
        <path id="Trazado_1279722" data-name="Trazado 1279722" d="M88.536,117.133l-3.48.028a8.54,8.54,0,0,1,1.892-5.021l2.171.846a22.157,22.157,0,0,0-.583,4.147" transform="translate(-74.424 -98.122)" fill="#fff"/>
        <path id="Trazado_1279723" data-name="Trazado 1279723" d="M89.126,164.478l-2.183.865a8.628,8.628,0,0,1-1.909-4.99l3.487,0a18.864,18.864,0,0,0,.606,4.129" transform="translate(-74.403 -140.305)" fill="#fff"/>
        <path id="Trazado_1279724" data-name="Trazado 1279724" d="M196.576,165.336l-2.173-.867a25.544,25.544,0,0,0,.618-4.127l3.471-.005a8.927,8.927,0,0,1-1.916,5" transform="translate(-170.102 -140.294)" fill="#fff"/>
        <path id="Trazado_1279725" data-name="Trazado 1279725" d="M124.83,124.987l-3.89.017a22.5,22.5,0,0,1,.57-3.9c1.135.17,2.13.3,3.312.365Z" transform="translate(-105.822 -105.97)" fill="#fff"/>
        <path id="Trazado_1279726" data-name="Trazado 1279726" d="M160.1,124.786l-.012-3.538a21.548,21.548,0,0,0,3.277-.4,19.115,19.115,0,0,1,.594,3.906Z" transform="translate(-140.079 -105.744)" fill="#fff"/>
        <path id="Trazado_1279727" data-name="Trazado 1279727" d="M124.8,163.818l-3.313.414a23.521,23.521,0,0,1-.577-3.865h3.891Z" transform="translate(-105.799 -140.32)" fill="#fff"/>
        <path id="Trazado_1279728" data-name="Trazado 1279728" d="M163.423,164.2l-3.29-.391v-3.468h3.874a21.965,21.965,0,0,1-.583,3.858" transform="translate(-140.115 -140.302)" fill="#fff"/>
        <rect id="Rectángulo_462836" data-name="Rectángulo 462836" width="9.997" height="0.937" transform="translate(4.645 38.112)" fill="#fff"/>
        <path id="Trazado_1279729" data-name="Trazado 1279729" d="M59.86,284.585l-5.74,0,.569-1.741h4.628Z" transform="translate(-47.354 -247.492)" fill="#fff"/>
        <path id="Trazado_1279730" data-name="Trazado 1279730" d="M131.34,89.048a12.537,12.537,0,0,1-2.961-.335,10.788,10.788,0,0,1,1.364-2.42,4.465,4.465,0,0,1,1.589-1.034Z" transform="translate(-112.331 -74.601)" fill="#fff"/>
        <path id="Trazado_1279731" data-name="Trazado 1279731" d="M131.426,200.123a4.274,4.274,0,0,1-1.358-.8,7.867,7.867,0,0,1-1.58-2.669c1.08-.174,1.952-.283,2.947-.361Z" transform="translate(-112.426 -171.758)" fill="#fff"/>
        <path id="Trazado_1279732" data-name="Trazado 1279732" d="M163.044,88.564a13.81,13.81,0,0,1-2.937.361l.009-3.829a9.171,9.171,0,0,1,1.359.816,9.407,9.407,0,0,1,1.569,2.653" transform="translate(-140.093 -74.459)" fill="#fff"/>
        <path id="Trazado_1279733" data-name="Trazado 1279733" d="M161.679,199.079a4.584,4.584,0,0,1-1.558,1.016l-.009-3.84,2.934.358a9.3,9.3,0,0,1-1.367,2.466" transform="translate(-140.097 -171.722)" fill="#fff"/>
        <path id="Trazado_1279734" data-name="Trazado 1279734" d="M225.842,112.334l-3.634,0-.929-1.705h4.02Z" transform="translate(-193.619 -96.796)" fill="#fff"/>
        <path id="Trazado_1279735" data-name="Trazado 1279735" d="M237.4,133.344l-5.13.013-.241-.922,5.12.008a1.212,1.212,0,0,1,.251.9" transform="translate(-203.022 -115.881)" fill="#fff"/>
        <path id="Trazado_1279736" data-name="Trazado 1279736" d="M109.136,203.855a8.055,8.055,0,0,1-3.182-2l1.764-.692c.449.973.826,1.656,1.418,2.691" transform="translate(-92.709 -176.017)" fill="#fff"/>
        <path id="Trazado_1279737" data-name="Trazado 1279737" d="M107.858,91.931l-1.77-.683a8.417,8.417,0,0,1,3.237-2.043,17.241,17.241,0,0,0-1.467,2.726" transform="translate(-92.826 -78.054)" fill="#fff"/>
        <path id="Trazado_1279738" data-name="Trazado 1279738" d="M183.263,91.206l-1.731.7a22.26,22.26,0,0,0-1.5-2.744,8.475,8.475,0,0,1,3.231,2.045" transform="translate(-157.527 -78.015)" fill="#fff"/>
        <path id="Trazado_1279739" data-name="Trazado 1279739" d="M183.58,201.847a7.485,7.485,0,0,1-3.17,2.025,18.008,18.008,0,0,0,1.418-2.7Z" transform="translate(-157.858 -176.021)" fill="#fff"/>
      </g>
    </g>
  </g>
</svg>
