<svg xmlns="http://www.w3.org/2000/svg" xmlns:xlink="http://www.w3.org/1999/xlink" width="69" height="69" viewBox="0 0 69 69">
  <defs>
    <clipPath id="clip-path">
      <rect id="Rectángulo_462832" data-name="Rectángulo 462832" width="38.812" height="37.089" fill="#fff"/>
    </clipPath>
  </defs>
  <g id="Grupo_1212957" data-name="Grupo 1212957" transform="translate(-616.566 -749.729)">
    <circle id="Elipse_13676" data-name="Elipse 13676" cx="34.5" cy="34.5" r="34.5" transform="translate(616.566 749.729)" fill="#1e535a"/>
    <g id="Grupo_1213209" data-name="Grupo 1213209" transform="translate(631.754 766.042)">
      <g id="Grupo_1213208" data-name="Grupo 1213208" clip-path="url(#clip-path)">
        <path id="Trazado_1279670" data-name="Trazado 1279670" d="M23.688,213.684l-20.9,0L.021,202.2a.622.622,0,0,1,.588-.791h25.2a.615.615,0,0,1,.646.749Z" transform="translate(0 -178.911)" fill="#fff"/>
        <path id="Trazado_1279671" data-name="Trazado 1279671" d="M223.53,21.113c-.348.446-1.775.272-1.6,1.248a1.58,1.58,0,0,0,1,1.084c1.19.512,1.888-.742,2.991-.413a7.1,7.1,0,0,1-.794,4.019c-.256.153-.9.141-1.013-.154-.264-.68.155-1.569-.392-1.822a.681.681,0,0,0-.728.253l-.433.7c-.867,1.41-2.158.389-3.141,1.156-.83.648-.091,1.908-1.317,1.9a2.128,2.128,0,0,0-1.96,1.861,7.478,7.478,0,0,1-5.114-5.06,7.587,7.587,0,0,1,2.714-8.41,2,2,0,0,1,.456,2.542,2.03,2.03,0,0,0,.586,2.56,2.436,2.436,0,0,1,.988,2.145l-.109,1.472a.945.945,0,0,0,.268.688,1.358,1.358,0,0,0,.824.071,2.592,2.592,0,0,0,1.121-3.473l.011-.453c.006-.236,2.027-.155,2.151-2.3.107-1.857,1.267-2.506,2.957-3.208l1.069,1.018a2.135,2.135,0,0,0-1.016,1.029c-.167.613.092,1.007.488,1.55" transform="translate(-187.138 -15.522)" fill="#fff"/>
        <path id="Trazado_1279672" data-name="Trazado 1279672" d="M71.589,51.112c-2.849-2.267-2.686-6.648-.83-6.833a3.293,3.293,0,0,0,2.752-1.59,6.3,6.3,0,0,0,4.743,1.934,2.14,2.14,0,0,1,2.068,2.589,5.584,5.584,0,0,1-3.037,4.477,5.334,5.334,0,0,1-5.7-.577" transform="translate(-61.649 -37.921)" fill="#fff"/>
        <path id="Trazado_1279673" data-name="Trazado 1279673" d="M45.619,151.772a4.174,4.174,0,0,1,2.5,3.124H27.871a4.225,4.225,0,0,1,2.656-3.193l4.858-1.649a4.341,4.341,0,0,0,5.193,0Z" transform="translate(-24.758 -133.293)" fill="#fff"/>
        <path id="Trazado_1279674" data-name="Trazado 1279674" d="M72.064,5.618C70.4,5.16,69.4,3.578,68.971,3.588c-.533.012-.622,1.665-2.09,1.77a2.729,2.729,0,0,0-2.207,1.236,5.072,5.072,0,0,1-.088-2.5A3.589,3.589,0,0,1,68.226,1.26,5.12,5.12,0,0,1,73.157.28a5.408,5.408,0,0,1,3.087,6.692,2.85,2.85,0,0,0-1.9-1.065Z" transform="translate(-57.269 0)" fill="#fff"/>
        <rect id="Rectángulo_462830" data-name="Rectángulo 462830" width="24.843" height="1.432" transform="translate(0.799 35.65)" fill="#fff"/>
        <path id="Trazado_1279675" data-name="Trazado 1279675" d="M247.339,13.748l.018-1.758a2.87,2.87,0,0,0-1.217-2.225,1.283,1.283,0,0,1-.372-1.679,2.549,2.549,0,0,0,.109-2.3l-.6-1.04a7.608,7.608,0,0,1,7.521-.015c-1.748.874-2.794,1.7-2.885,3.72-.072,1.589-1.584,1.131-2,1.873-.628,1.109.927,2.244-.57,3.427" transform="translate(-217.88 -3.324)" fill="#fff"/>
        <path id="Trazado_1279676" data-name="Trazado 1279676" d="M281.731,272.161l-2.761,0a.755.755,0,0,1-.653-.672l.008-5.517,4.026,0V271.5c-.017.264-.314.665-.621.665" transform="translate(-247.229 -236.267)" fill="#fff"/>
        <path id="Trazado_1279677" data-name="Trazado 1279677" d="M268.738,104.02a1.491,1.491,0,0,0,1.457-1.538.915.915,0,0,1,.209-.53c.431-.359,1.853.338,3.132-1.078a1.749,1.749,0,0,0,1.408,1.285,7.768,7.768,0,0,1-7.509,3.108,1.262,1.262,0,0,1,1.3-1.247" transform="translate(-237.562 -89.606)" fill="#fff"/>
        <path id="Trazado_1279678" data-name="Trazado 1279678" d="M104.979,136.065a4.014,4.014,0,0,1-3.917.043l.256-1.143a7.544,7.544,0,0,0,3.421-.007Z" transform="translate(-89.773 -119.884)" fill="#fff"/>
        <path id="Trazado_1279679" data-name="Trazado 1279679" d="M322.916,37.068c-1.521-.039-2.14,1.167-2.9.3.562-.152,1.179-.329,1.422-.811.29-.578-.169-1.049-.4-1.559-.137-.3.483-.736.75-.618a6.622,6.622,0,0,1,1.133,2.687" transform="translate(-284.267 -30.523)" fill="#fff"/>
        <rect id="Rectángulo_462831" data-name="Rectángulo 462831" width="0.912" height="2.976" transform="translate(35.981 31.058)" fill="#fff"/>
      </g>
    </g>
  </g>
</svg>
