<svg xmlns="http://www.w3.org/2000/svg" xmlns:xlink="http://www.w3.org/1999/xlink" width="96" height="96" viewBox="0 0 96 96">
  <defs>
    <clipPath id="clip-path">
      <rect id="Rectángulo_454829" data-name="Rectángulo 454829" width="96" height="96" fill="#1e535a"/>
    </clipPath>
    <clipPath id="clip-path-2">
      <rect id="Rectángulo_462813" data-name="Rectángulo 462813" width="36.355" height="36.342" fill="#1e535a"/>
    </clipPath>
  </defs>
  <g id="Grupo_1212261" data-name="Grupo 1212261" transform="translate(-1481 -8562.5)">
    <g id="Grupo_1177591" data-name="Grupo 1177591" transform="translate(1481 8562.5)">
      <g id="Grupo_1177589" data-name="Grupo 1177589" transform="translate(0 0)">
        <g id="Grupo_1177587" data-name="Grupo 1177587" clip-path="url(#clip-path)">
          <path id="Trazado_997422" data-name="Trazado 997422" d="M92.081,42.491a44.136,44.136,0,0,0-9.97-22.967,5.076,5.076,0,0,0-7.142-6.838A44.071,44.071,0,0,0,52.151,3.77a5.077,5.077,0,0,0-9.861.2A44.132,44.132,0,0,0,20.4,13.329a5.079,5.079,0,0,0-7.048,7.1A44.1,44.1,0,0,0,4.112,42.448,5.08,5.08,0,0,0,3.99,52.4a44.082,44.082,0,0,0,8.949,22.468,5.078,5.078,0,0,0,6.9,7.17,44.128,44.128,0,0,0,22.412,9.8,5.078,5.078,0,0,0,9.949.2,44.091,44.091,0,0,0,22.985-9.08,5.077,5.077,0,0,0,7.107-6.874A44.147,44.147,0,0,0,92.2,52.349a5.078,5.078,0,0,0-.119-9.858M77.74,22.024a5.05,5.05,0,0,0,2.812-.851,41.913,41.913,0,0,1,9.25,21.3,5.086,5.086,0,0,0-3.246,2.351l-12.98-4.867c.01-.142.02-.286.02-.433a5.079,5.079,0,0,0-2.151-4.15l5.678-13.4a5.5,5.5,0,0,0,.616.041M75,21.216,69.354,34.523a5.026,5.026,0,0,0-5.594,3.23L40.279,32.344a4.941,4.941,0,0,0-.106-1.011l33.322-11.6A5.1,5.1,0,0,0,75,21.216M47.246,10.165a5.083,5.083,0,0,0,4.989-4.122,41.844,41.844,0,0,1,21.158,8.275,5.054,5.054,0,0,0-.735,2.625,5.335,5.335,0,0,0,.048.671L39.217,29.273a5.1,5.1,0,0,0-.92-.92l8.784-18.2c.056,0,.109.008.165.008M42.3,6.243A5.083,5.083,0,0,0,44.86,9.569L36.248,27.4a5.1,5.1,0,0,0-1.049-.109,5.045,5.045,0,0,0-2.9.91L22.1,19.678A5.052,5.052,0,0,0,21.923,15,41.877,41.877,0,0,1,42.3,6.243M10.041,46.332,31.153,35.442a5.064,5.064,0,0,0,4.006,2.014l7.236,23.129a5.166,5.166,0,0,0-1.12,1.239l-31.3-13.04a5.048,5.048,0,0,0,.187-1.348,5.107,5.107,0,0,0-.124-1.1m4.986-24.391a5.079,5.079,0,0,0,5.673-.484l10.079,8.417a5.068,5.068,0,0,0-.56,3.512L9.07,44.29A5.081,5.081,0,0,0,6.38,42.526a41.859,41.859,0,0,1,8.647-20.585m2.1,50.717a5.067,5.067,0,0,0-2.523.674A41.822,41.822,0,0,1,6.263,52.374,5.087,5.087,0,0,0,8.9,50.783l31.609,13.17a5.45,5.45,0,0,0-.041.611,5.081,5.081,0,0,0,.3,1.718L21.657,75.44a5.081,5.081,0,0,0-4.528-2.782M42.349,89.575a41.919,41.919,0,0,1-20.912-9.149,5.029,5.029,0,0,0,.775-2.686l0-.058L42,68.2A5.082,5.082,0,0,0,43.8,69.329l1.186,17.043a5.082,5.082,0,0,0-2.632,3.2m2.105-29.97-7.081-22.64a5.089,5.089,0,0,0,2.415-2.415L63.459,40a5.052,5.052,0,0,0,.808,2.311L48.032,60.13a5.019,5.019,0,0,0-3.577-.524m7.74,30.167a5.081,5.081,0,0,0-4.948-3.937l-.038,0L46.081,69.62a5.073,5.073,0,0,0,3.106-1.507L72.853,78.551c0,.046-.008.086-.008.132a5.057,5.057,0,0,0,.752,2.65,41.841,41.841,0,0,1-21.4,8.439M73.423,76.334,50.373,66.165a5.052,5.052,0,0,0-.666-4.52L65.893,43.877a5.052,5.052,0,0,0,2.622.735,5.594,5.594,0,0,0,.623-.041l6.05,29.836a5.071,5.071,0,0,0-1.766,1.928m7.292-1.9a5.051,5.051,0,0,0-3.377-.8L71.285,43.788a5.1,5.1,0,0,0,1.6-1.672L85.858,46.98a4.506,4.506,0,0,0-.023.456,5.08,5.08,0,0,0,4.084,4.981,41.876,41.876,0,0,1-9.2,22.017" transform="translate(0 0.001)" fill="#1e535a"/>
        </g>
      </g>
    </g>
    <g id="Elipse_13614" data-name="Elipse 13614" transform="translate(1498 8579.268)" fill="#d5f4f8" stroke="#1e535a" stroke-width="3">
      <ellipse cx="31.232" cy="31.233" rx="31.232" ry="31.233" stroke="none"/>
      <ellipse cx="31.232" cy="31.233" rx="29.732" ry="29.733" fill="none"/>
    </g>
    <g id="Grupo_1213190" data-name="Grupo 1213190" transform="translate(1511 8595.5)">
      <g id="Grupo_1213189" data-name="Grupo 1213189" clip-path="url(#clip-path-2)">
        <path id="Trazado_1279588" data-name="Trazado 1279588" d="M14.242,57.529,1.25,57.546l0,6.141A.864.864,0,0,1,0,63.319V43.759H36.358L36.347,58.31a12.657,12.657,0,0,0-10.7-7.024,12.459,12.459,0,0,0-11.405,6.243M12.534,45.016l-11.285,0,0,11.266,11.285,0Zm2.5,0H13.783V46.28h1.248Zm1.251,0V46.28l7.54,0V45.02Zm8.783,5.032H35.1V45.02H25.065Zm-1.243-2.513H13.783v1.256H23.822Zm-2.5,2.513H13.783v1.218h7.543Z" transform="translate(-0.003 -38.731)" fill="#1e535a"/>
        <path id="Trazado_1279589" data-name="Trazado 1279589" d="M100.3,182.959a1.9,1.9,0,0,1-1.747,1.793H76.5v-10l22.175,0a1.853,1.853,0,0,1,1.623,1.837ZM84,179.746a1.878,1.878,0,1,0-1.878,1.878A1.878,1.878,0,0,0,84,179.746m6.263,0a1.877,1.877,0,1,0-1.877,1.877,1.877,1.877,0,0,0,1.877-1.877m6.265,0a1.878,1.878,0,1,0-1.878,1.878,1.878,1.878,0,0,0,1.878-1.878" transform="translate(-67.707 -154.679)" fill="#1e535a"/>
        <path id="Trazado_1279590" data-name="Trazado 1279590" d="M36.351,3.766H0V0H36.351ZM2.494,1.252H1.249V2.5H2.494ZM3.755,2.5H5.021V1.253H3.755Zm2.526,0H7.54V1.252H6.281Z" fill="#1e535a"/>
        <path id="Trazado_1279591" data-name="Trazado 1279591" d="M252.064,138.427l-.013-6.484a3.159,3.159,0,0,0-3.347-3.116,12.913,12.913,0,0,0-2.17-4.515,11.26,11.26,0,0,1,0,21.57,13.091,13.091,0,0,0,2.179-4.519,3.2,3.2,0,0,0,3.352-2.937" transform="translate(-218.211 -110.031)" fill="#1e535a"/>
        <rect id="Rectángulo_462810" data-name="Rectángulo 462810" width="5.046" height="10.003" transform="translate(2.494 20.071)" fill="#1e535a"/>
        <path id="Trazado_1279592" data-name="Trazado 1279592" d="M190.46,125.019h-8.275c.651-2.1,1.9-4.79,4.09-5.027,2.233.131,3.525,2.9,4.185,5.028" transform="translate(-161.255 -106.206)" fill="#1e535a"/>
        <path id="Trazado_1279593" data-name="Trazado 1279593" d="M190.477,272.753c-.591,2.1-2.244,5.262-4.376,4.991-1.947-.247-3.321-3.034-3.893-4.99Z" transform="translate(-161.276 -241.419)" fill="#1e535a"/>
        <path id="Trazado_1279594" data-name="Trazado 1279594" d="M140.531,272.687a13.554,13.554,0,0,0,2.175,4.495,11.1,11.1,0,0,1-6.1-4.479Z" transform="translate(-120.916 -241.36)" fill="#1e535a"/>
        <path id="Trazado_1279595" data-name="Trazado 1279595" d="M140.488,128.978h-3.954a11.193,11.193,0,0,1,6.092-4.511,13.293,13.293,0,0,0-2.137,4.51" transform="translate(-120.849 -110.169)" fill="#1e535a"/>
        <rect id="Rectángulo_462811" data-name="Rectángulo 462811" width="8.794" height="8.747" transform="translate(2.494 7.541)" fill="#1e535a"/>
        <rect id="Rectángulo_462812" data-name="Rectángulo 462812" width="7.547" height="2.52" transform="translate(26.311 7.544)" fill="#1e535a"/>
        <path id="Trazado_1279596" data-name="Trazado 1279596" d="M175.886,213.41a.621.621,0,1,1-.622-.621.622.622,0,0,1,.622.621" transform="translate(-154.58 -188.343)" fill="#1e535a"/>
        <path id="Trazado_1279597" data-name="Trazado 1279597" d="M121.268,213.368a.624.624,0,1,1-.624-.624.624.624,0,0,1,.624.624" transform="translate(-106.232 -188.304)" fill="#1e535a"/>
        <path id="Trazado_1279598" data-name="Trazado 1279598" d="M230.314,213.373a.625.625,0,1,1-.625-.625.625.625,0,0,1,.625.625" transform="translate(-202.749 -188.307)" fill="#1e535a"/>
      </g>
    </g>
  </g>
</svg>
