<svg xmlns="http://www.w3.org/2000/svg" xmlns:xlink="http://www.w3.org/1999/xlink" width="69" height="69" viewBox="0 0 69 69">
  <defs>
    <clipPath id="clip-path">
      <rect id="Rectángulo_462993" data-name="Rectángulo 462993" width="34.657" height="40.824" fill="#fff"/>
    </clipPath>
  </defs>
  <g id="Grupo_1212956" data-name="Grupo 1212956" transform="translate(-1033 -4465.867)">
    <g id="Grupo_1212373" data-name="Grupo 1212373" transform="translate(415.433 3716.005)">
      <circle id="Elipse_13676" data-name="Elipse 13676" cx="34.5" cy="34.5" r="34.5" transform="translate(617.567 749.862)" fill="#1e535a"/>
    </g>
    <g id="Grupo_1213466" data-name="Grupo 1213466" transform="translate(1050 4479.867)">
      <g id="Grupo_1213465" data-name="Grupo 1213465" clip-path="url(#clip-path)">
        <path id="Trazado_1279885" data-name="Trazado 1279885" d="M15.149,122.687a9.995,9.995,0,0,1,1.439-4.612l4.626-.008a34.313,34.313,0,0,0,.028,10.313l-4.62,0a9.615,9.615,0,0,1-1.482-4.753l-4.434.011c-.2,0-.514-.2-.514-.409l-.009-5.88a1.82,1.82,0,0,1-.01-3.515l.02-5-8.485.006c-.773,0-1.669-.406-1.677-1.3L0,104.364l4.219-.011a4.712,4.712,0,0,0,.129,1.481l12.7-.005a6.675,6.675,0,0,0,.1-1.47l4.217,0-.033,3.346c-.006.656-.783,1.128-1.385,1.128l-8.792.006.011,4.943a2,2,0,0,1,1.388,1.718,1.855,1.855,0,0,1-1.393,1.857l0,5.331Z" transform="translate(0 -92.145)" fill="#fff"/>
        <path id="Trazado_1279886" data-name="Trazado 1279886" d="M21.4,7.606l-4.2.006,0-.954a1.048,1.048,0,0,0-.109-.42.741.741,0,0,0-.487-.161L4.377,6.086A4.652,4.652,0,0,0,4.251,7.6L.038,7.614l0-6.207A1.356,1.356,0,0,1,1.28.011L7.57,0l.652.7L15.307.73a2.585,2.585,0,0,1,2.438,2.34l2.1.013a1.507,1.507,0,0,1,1.568,1.59ZM16.759,3.063A1.681,1.681,0,0,0,15.052,1.68l-5.918.014c.436.548.755.912,1.171,1.38Z" transform="translate(-0.029)" fill="#fff"/>
        <path id="Trazado_1279887" data-name="Trazado 1279887" d="M192.361,231.914l-5.3,0a37.55,37.55,0,0,1-.049-10.313l5.369,0a38.225,38.225,0,0,1-.023,10.306" transform="translate(-164.844 -195.682)" fill="#fff"/>
        <path id="Trazado_1279888" data-name="Trazado 1279888" d="M248.146,231.884l-4.768.023a35.611,35.611,0,0,0,.051-10.317l4.685-.007a9.967,9.967,0,0,1,.032,10.3" transform="translate(-214.907 -195.661)" fill="#fff"/>
        <path id="Trazado_1279889" data-name="Trazado 1279889" d="M156.87,89.783h-5.032a11.916,11.916,0,0,1,1.021-3.061,1,1,0,0,1,1.083-.569l0-3.932a1.982,1.982,0,0,1-1.356-1.768,1.844,1.844,0,0,1,1.348-1.854l.009-3.372-3.036-.007-.047.88-4.183.006-.017-2.674h4.216l.005.808,3.512-.006c.206,0,.534.212.534.434v3.9a1.912,1.912,0,0,1,1.293,1.778,1.955,1.955,0,0,1-1.3,1.876l.007,3.908c1.154-.018,1.609,2.246,1.938,3.651" transform="translate(-129.505 -64.843)" fill="#fff"/>
        <path id="Trazado_1279890" data-name="Trazado 1279890" d="M55.453,65.811h-11V60.1h11ZM47.71,63.345c.16-.027.249-.584.117-.689a1.615,1.615,0,0,0-.642-.207l-.373-.062c-.079-.013-.011-.316.069-.314l.333.008a1.075,1.075,0,0,0,.621-.227c.118-.123.051-.63-.124-.68a3.273,3.273,0,0,0-1.881.06L45.8,64.6a.994.994,0,0,0,.58.289.665.665,0,0,0,.418-.475l.018-.921Zm2.552,1.066.006-2.346a1.754,1.754,0,0,0,.662-.138.645.645,0,0,0,.108-.577.706.706,0,0,0-.507-.271l-1.568,0a.576.576,0,0,0-.47.568c.058.3.33.427.76.426l.06,2.519c0,.178.447.365.591.294a.837.837,0,0,0,.359-.477m2.336.008.013-.727a1.3,1.3,0,0,0,1.556-1.313,1.362,1.362,0,0,0-1.513-1.317c-.274,0-.958.036-.987.328l-.037,3.04c0,.193.338.475.519.47a.659.659,0,0,0,.45-.481" transform="translate(-39.255 -53.073)" fill="#fff"/>
        <path id="Trazado_1279891" data-name="Trazado 1279891" d="M195.067,321.381a7.663,7.663,0,0,1-2.859-.012,18.145,18.145,0,0,1-1.063-3.5l4.986,0a16.075,16.075,0,0,1-1.063,3.508" transform="translate(-168.784 -280.685)" fill="#fff"/>
        <rect id="Rectángulo_462991" data-name="Rectángulo 462991" width="4.209" height="2.676" transform="translate(0.006 8.586)" fill="#fff"/>
        <path id="Trazado_1279892" data-name="Trazado 1279892" d="M238.693,317.87a9.428,9.428,0,0,1-5.154,3.313,24.986,24.986,0,0,0,.979-3.329Z" transform="translate(-206.219 -280.67)" fill="#fff"/>
        <path id="Trazado_1279893" data-name="Trazado 1279893" d="M237.968,187.841l-4.084.037a18.725,18.725,0,0,0-1.143-3.355,9.344,9.344,0,0,1,5.227,3.318" transform="translate(-205.514 -162.937)" fill="#fff"/>
        <path id="Trazado_1279894" data-name="Trazado 1279894" d="M152.253,317.85a17.154,17.154,0,0,0,.977,3.329,9.493,9.493,0,0,1-5.083-3.32Z" transform="translate(-130.815 -280.666)" fill="#fff"/>
        <path id="Trazado_1279895" data-name="Trazado 1279895" d="M151.969,187.861l-4.087-.006a9.806,9.806,0,0,1,5.162-3.348,16.743,16.743,0,0,0-1.075,3.355" transform="translate(-130.582 -162.922)" fill="#fff"/>
        <rect id="Rectángulo_462992" data-name="Rectángulo 462992" width="0.571" height="0.636" transform="translate(13.343 9)" fill="#fff"/>
      </g>
    </g>
  </g>
</svg>
