<svg xmlns="http://www.w3.org/2000/svg" xmlns:xlink="http://www.w3.org/1999/xlink" width="69" height="69" viewBox="0 0 69 69">
  <defs>
    <clipPath id="clip-path">
      <rect id="Rectángulo_462994" data-name="Rectángulo 462994" width="41.651" height="47.367" fill="#fff"/>
    </clipPath>
  </defs>
  <g id="Grupo_1212955" data-name="Grupo 1212955" transform="translate(-273.711 -1370)">
    <circle id="Elipse_13700" data-name="Elipse 13700" cx="34.5" cy="34.5" r="34.5" transform="translate(273.711 1370)" fill="#1e535a"/>
    <g id="Grupo_1213468" data-name="Grupo 1213468" transform="translate(287.711 1377.5)">
      <g id="Grupo_1213467" data-name="Grupo 1213467" clip-path="url(#clip-path)">
        <path id="Trazado_1279896" data-name="Trazado 1279896" d="M69.9,109.675l-.031,15.488c0,.756-1.1,1.4-1.807,1.4H41.488c-.7,0-1.81-.648-1.81-1.4l-.014-19.6c0-.884,1.028-1.519,1.795-1.521l5.621-.015a2.13,2.13,0,0,1,1.64.713l1.641,2.883a1.346,1.346,0,0,0,1.045.675l16.542.006a1.948,1.948,0,0,1,1.948,1.37" transform="translate(-33.947 -89.035)" fill="#fff"/>
        <path id="Trazado_1279897" data-name="Trazado 1279897" d="M87.1,70.239l-16.048,0-1.2-2.151a3.654,3.654,0,0,0-3.138-2.077L62.455,66l.025-4.745,4.448-.035a8.117,8.117,0,0,0,15.67.026l4.475.027Z" transform="translate(-53.453 -52.393)" fill="#fff"/>
        <path id="Trazado_1279898" data-name="Trazado 1279898" d="M114.66,6.731A6.732,6.732,0,1,1,107.929,0a6.732,6.732,0,0,1,6.732,6.731m-8.278,3.738,1.729-2.336c.145-.2-.08-.81-.3-.9a.93.93,0,0,0-.8.111l-.51.575L106.5,3.4a.8.8,0,0,0-.654-.721.777.777,0,0,0-.723.633l-.031,4.6a2.868,2.868,0,0,0-.743-.715.823.823,0,0,0-.818.279,1.1,1.1,0,0,0,.135.914l1.57,2.079a.99.99,0,0,0,.6.314,1.074,1.074,0,0,0,.545-.313m4.359-.31.017-4.428c.411.49.783.7,1.2.471a.727.727,0,0,0,.169-1.055l-1.486-2.14a1.014,1.014,0,0,0-.6-.336.909.909,0,0,0-.538.3l-1.53,2.2a.714.714,0,0,0,.271,1.077c.352.178.768-.114,1.1-.551l.04,4.624c0,.238.576.489.8.451.193-.033.566-.356.567-.613" transform="translate(-86.611)" fill="#fff"/>
        <path id="Trazado_1279899" data-name="Trazado 1279899" d="M27.548,278.288H14.108l-.032-1.728-13.347,0A.749.749,0,0,1,0,275.907a.737.737,0,0,1,.634-.714l13.445-.006.085-1.657,5.977-.035.012-3.684H21.5l.012,3.687,5.906.024a4.891,4.891,0,0,1,.14,1.665l13.465,0a.737.737,0,0,1,.629.715.747.747,0,0,1-.727.655H27.576Z" transform="translate(0 -230.922)" fill="#fff"/>
      </g>
    </g>
  </g>
</svg>
