<svg id="Grupo_1212931" data-name="Grupo 1212931" xmlns="http://www.w3.org/2000/svg" xmlns:xlink="http://www.w3.org/1999/xlink" width="128" height="128" viewBox="0 0 128 128">
  <defs>
    <clipPath id="clip-path">
      <rect id="Rectángulo_454829" data-name="Rectángulo 454829" width="128" height="128" fill="#1e535a"/>
    </clipPath>
    <clipPath id="clip-path-2">
      <rect id="Rectángulo_462990" data-name="Rectángulo 462990" width="49.685" height="49.695" fill="#1e535a"/>
    </clipPath>
  </defs>
  <g id="Grupo_1177591" data-name="Grupo 1177591">
    <g id="Grupo_1177589" data-name="Grupo 1177589" transform="translate(0 0)">
      <g id="Grupo_1177587" data-name="Grupo 1177587" clip-path="url(#clip-path)">
        <path id="Trazado_997422" data-name="Trazado 997422" d="M122.774,56.654a58.848,58.848,0,0,0-13.293-30.623,6.768,6.768,0,0,0-9.523-9.118A58.761,58.761,0,0,0,69.535,5.027a6.769,6.769,0,0,0-13.148.267A58.842,58.842,0,0,0,27.2,17.772a6.771,6.771,0,0,0-9.4,9.462A58.794,58.794,0,0,0,5.483,56.6a6.774,6.774,0,0,0-.162,13.266A58.776,58.776,0,0,0,17.252,99.82a6.771,6.771,0,0,0,9.2,9.56,58.838,58.838,0,0,0,29.883,13.07,6.771,6.771,0,0,0,13.266.267,58.788,58.788,0,0,0,30.646-12.107,6.769,6.769,0,0,0,9.476-9.165A58.863,58.863,0,0,0,122.933,69.8a6.771,6.771,0,0,0-.159-13.144m-19.12-27.288a6.733,6.733,0,0,0,3.75-1.135,55.884,55.884,0,0,1,12.333,28.407,6.781,6.781,0,0,0-4.327,3.135L98.1,53.283c.013-.189.027-.382.027-.578a6.772,6.772,0,0,0-2.868-5.533l7.57-17.86a7.335,7.335,0,0,0,.821.054M100,28.288,92.472,46.03a6.7,6.7,0,0,0-7.459,4.307L53.705,43.125a6.588,6.588,0,0,0-.142-1.348L97.992,26.305a6.793,6.793,0,0,0,2,1.983M63,13.553a6.777,6.777,0,0,0,6.651-5.5A55.792,55.792,0,0,1,97.857,19.09a6.739,6.739,0,0,0-.98,3.5,7.114,7.114,0,0,0,.064.9L52.29,39.031A6.8,6.8,0,0,0,51.064,37.8L62.775,13.543c.074,0,.145.01.22.01M56.4,8.324a6.778,6.778,0,0,0,3.409,4.435L48.331,36.538a6.8,6.8,0,0,0-1.4-.145,6.727,6.727,0,0,0-3.861,1.213L29.461,26.238A6.736,6.736,0,0,0,29.231,20,55.836,55.836,0,0,1,56.4,8.324M13.387,61.776l28.15-14.519a6.751,6.751,0,0,0,5.341,2.686l9.648,30.839a6.887,6.887,0,0,0-1.493,1.652L13.3,65.046a6.731,6.731,0,0,0,.25-1.8,6.81,6.81,0,0,0-.166-1.473m6.648-32.521a6.771,6.771,0,0,0,7.564-.645L41.037,39.831a6.758,6.758,0,0,0-.747,4.682l-28.2,14.539A6.774,6.774,0,0,0,8.506,56.7,55.812,55.812,0,0,1,20.036,29.254m2.8,67.623a6.756,6.756,0,0,0-3.365.9A55.762,55.762,0,0,1,8.351,69.832a6.783,6.783,0,0,0,3.517-2.121L54.013,85.27a7.266,7.266,0,0,0-.054.814,6.775,6.775,0,0,0,.405,2.29L28.876,100.587a6.775,6.775,0,0,0-6.037-3.709m33.626,22.556a55.892,55.892,0,0,1-27.883-12.2,6.705,6.705,0,0,0,1.034-3.581l0-.078L56,90.929a6.776,6.776,0,0,0,2.392,1.51l1.581,22.725a6.776,6.776,0,0,0-3.51,4.27m2.807-39.96L49.831,49.287a6.786,6.786,0,0,0,3.219-3.219l31.562,7.266a6.736,6.736,0,0,0,1.078,3.081L64.042,80.173a6.692,6.692,0,0,0-4.77-.7M69.592,119.7a6.774,6.774,0,0,0-6.6-5.25l-.051,0-1.5-21.623a6.764,6.764,0,0,0,4.142-2.01l31.555,13.918c0,.061-.01.115-.01.176a6.743,6.743,0,0,0,1,3.534A55.789,55.789,0,0,1,69.592,119.7M97.9,101.779,67.164,88.22a6.736,6.736,0,0,0-.888-6.027L87.858,58.5a6.736,6.736,0,0,0,3.5.98,7.46,7.46,0,0,0,.831-.054l8.067,39.781a6.761,6.761,0,0,0-2.355,2.571m9.722-2.534a6.735,6.735,0,0,0-4.5-1.064l-8.07-39.8a6.8,6.8,0,0,0,2.135-2.23l17.3,6.486a6.009,6.009,0,0,0-.03.608,6.774,6.774,0,0,0,5.445,6.641A55.835,55.835,0,0,1,107.62,99.246" transform="translate(0 0.001)" fill="#1e535a"/>
      </g>
    </g>
  </g>
  <g id="Elipse_13614" data-name="Elipse 13614" transform="translate(24.626 24.598)" fill="#fff" stroke="#1e535a" stroke-width="3">
    <ellipse cx="39.732" cy="39.733" rx="39.732" ry="39.733" stroke="none"/>
    <ellipse cx="39.732" cy="39.733" rx="38.232" ry="38.233" fill="none"/>
  </g>
  <g id="Grupo_1213458" data-name="Grupo 1213458" transform="translate(38.626 39.598)">
    <g id="Grupo_1213457" data-name="Grupo 1213457" clip-path="url(#clip-path-2)">
      <path id="Trazado_1279873" data-name="Trazado 1279873" d="M24.226,134.326l-21.952-.011A2.4,2.4,0,0,1,0,132.01V116.823a2.477,2.477,0,0,1,2.585-2.379l21.508.012a2.441,2.441,0,0,1,2.387,2.514L26.466,132a2.482,2.482,0,0,1-2.24,2.321M9.1,129.4l0-9.991,3.312,0-.007,4.11a.916.916,0,0,0,.936.9l4.746-.009a1.062,1.062,0,0,0,.889-.566,1.153,1.153,0,0,0-.276-.975l-5.118-5.107-5.244-.019a.9.9,0,0,0-.909.9V130.18a.851.851,0,0,0,.751.838l10.044,0a.874.874,0,0,0,.8-.8l-.047-3.695c0-.349-.806-.556-1.1-.423a1.035,1.035,0,0,0-.521.881l-.014,2.426Z" transform="translate(0 -97.058)" fill="#1e535a"/>
      <path id="Trazado_1279874" data-name="Trazado 1279874" d="M196.013,120.066H215.9V138.3h-19.89Zm5.811,14.095v-9.982l3.307,0v4.1a.95.95,0,0,0,.889.912l4.89-.011a1.215,1.215,0,0,0,.747-.4,1.432,1.432,0,0,0,.048-.853l-5.416-5.4-5.278,0a.9.9,0,0,0-.837.976l0,11.526a.9.9,0,0,0,.827.764l9.9,0a.879.879,0,0,0,.9-.831v-3.367a.922.922,0,0,0-.831-.783c-.306-.005-.818.3-.821.631l-.023,2.736Z" transform="translate(-166.236 -101.826)" fill="#1e535a"/>
      <path id="Trazado_1279875" data-name="Trazado 1279875" d="M215.769,90.659l-19.783,0c-.321-1.485.6-3.3,2.24-3.3l15.29-.006c1.651,0,2.61,1.625,2.254,3.3" transform="translate(-166.159 -74.085)" fill="#1e535a"/>
      <path id="Trazado_1279876" data-name="Trazado 1279876" d="M213.476,254.316l-15.045.01a2.63,2.63,0,0,1-2.395-3.3h19.773a2.586,2.586,0,0,1-2.333,3.287" transform="translate(-166.194 -212.894)" fill="#1e535a"/>
      <path id="Trazado_1279877" data-name="Trazado 1279877" d="M108.157,284.285a.944.944,0,0,1,.724-.9c.276-.053.91.226.914.546l.038,3.5a2.493,2.493,0,0,1-2.608,2.59H84.308a2.4,2.4,0,0,1-2.579-2.141l-.053-3.667a.9.9,0,0,1,.745-.834.908.908,0,0,1,.9.738l.017,3.486a.778.778,0,0,0,.821.753h23.2a.809.809,0,0,0,.8-.754Z" transform="translate(-69.268 -240.328)" fill="#1e535a"/>
      <path id="Trazado_1279878" data-name="Trazado 1279878" d="M51.8,258.717l-13.179,0a.981.981,0,0,1-.793-.682c-.065-.33.227-.963.563-.967l2.184-.028.369-.86,8.705,0,.383.852,2.273.055c.275.007.521.674.453.962a.984.984,0,0,1-.958.673" transform="translate(-32.071 -217.26)" fill="#1e535a"/>
      <path id="Trazado_1279879" data-name="Trazado 1279879" d="M120.424,4.826A10.759,10.759,0,0,0,105.2,4.8a.973.973,0,0,1-1.117.134.886.886,0,0,1-.216-1.153,12.434,12.434,0,0,1,17.864,0c.245.253.07.88-.147,1.061a.915.915,0,0,1-1.155-.021" transform="translate(-87.968 0)" fill="#1e535a"/>
      <path id="Trazado_1279880" data-name="Trazado 1279880" d="M131.026,25.616a7.54,7.54,0,0,0-10.776.222c-.177.185-.774.042-.952-.116-.2-.178-.417-.773-.187-1.021a9.089,9.089,0,0,1,13.081-.25.836.836,0,0,1,.074,1.15.812.812,0,0,1-1.239.015" transform="translate(-100.933 -18.486)" fill="#1e535a"/>
      <path id="Trazado_1279881" data-name="Trazado 1279881" d="M152.062,67.931a2.483,2.483,0,1,1-2.483-2.483,2.483,2.483,0,0,1,2.483,2.483" transform="translate(-124.75 -55.506)" fill="#1e535a"/>
      <path id="Trazado_1279882" data-name="Trazado 1279882" d="M142.381,46.717a4.293,4.293,0,0,0-6.244-.019c-.272.274-.945.061-1.115-.234a.926.926,0,0,1,.207-1.162,5.848,5.848,0,0,1,8.018,0,1.009,1.009,0,0,1,.264,1.061c-.1.3-.805.674-1.129.356" transform="translate(-114.407 -37.071)" fill="#1e535a"/>
      <path id="Trazado_1279883" data-name="Trazado 1279883" d="M94.61,157.48l-2.12.046.059-2.092Z" transform="translate(-78.439 -131.822)" fill="#1e535a"/>
      <path id="Trazado_1279884" data-name="Trazado 1279884" d="M269.056,156.964l-2.182.035.033-2.183Z" transform="translate(-226.333 -131.297)" fill="#1e535a"/>
    </g>
  </g>
</svg>
