<svg xmlns="http://www.w3.org/2000/svg" xmlns:xlink="http://www.w3.org/1999/xlink" width="603.422" height="296.25" viewBox="0 0 603.422 296.25">
  <defs>
    <clipPath id="clip-path">
      <rect id="Rectángulo_463037" data-name="Rectángulo 463037" width="494.306" height="296.251" fill="none"/>
    </clipPath>
  </defs>
  <g id="Grupo_1213003" data-name="Grupo 1213003" transform="translate(-1017.555 -1842.81)">
    <path id="Trazado_1272217" data-name="Trazado 1272217" d="M301.711,1.81C489.137-93.886,603.422,60.365,603.422,132.6S580.565,261.963,301.711,263.38,0,204.826,0,132.6,114.284,97.507,301.711,1.81Z" transform="translate(1017.555 1873.414)" fill="#ffe79e"/>
    <g id="Grupo_1213499" data-name="Grupo 1213499" transform="translate(1071.555 1842.81)">
      <g id="Grupo_1213496" data-name="Grupo 1213496">
        <g id="Grupo_1213495" data-name="Grupo 1213495" clip-path="url(#clip-path)">
          <path id="Trazado_1280108" data-name="Trazado 1280108" d="M479.144,216.81a59.008,59.008,0,0,1-9.081,17.2H34.275a71.279,71.279,0,0,1,8.529-32.8c8.369-15.71,32.381-25.842,32.716-43.168.439-22.6-21.906-38.1-26.711-58.771C43.586,76.786,52.777,50.341,67.66,33.984c15.574-17.117,38.5-25.074,60.982-22.632,25.7,2.786,46.03,19.789,71.172,24.988C260.134,48.8,309.692,8.315,368.471,12.687c20.908,1.659,41.566,15.294,53.074,33.152,14.5,22.51,7.378,48.611,15.078,72.744,5.5,17.226,22.645,25.95,33,39.556a64.382,64.382,0,0,1,9.527,58.671" transform="translate(-9.883 -3.149)" fill="#bed8fa"/>
        </g>
      </g>
      <g id="Grupo_1213498" data-name="Grupo 1213498">
        <g id="Grupo_1213497" data-name="Grupo 1213497" clip-path="url(#clip-path)">
          <path id="Trazado_1280109" data-name="Trazado 1280109" d="M655.7,96.269a3.529,3.529,0,1,1-3.529-3.529A3.529,3.529,0,0,1,655.7,96.269Z" transform="translate(-187.036 -26.741)" fill="none" stroke="#fff" stroke-linecap="round" stroke-linejoin="round" stroke-width="1"/>
          <path id="Trazado_1280110" data-name="Trazado 1280110" d="M221.153,28.832a3.529,3.529,0,1,1-3.529-3.529A3.529,3.529,0,0,1,221.153,28.832Z" transform="translate(-61.734 -7.296)" fill="none" stroke="#fff" stroke-linecap="round" stroke-linejoin="round" stroke-width="1"/>
          <path id="Trazado_1280111" data-name="Trazado 1280111" d="M36.136,210.643a3.529,3.529,0,1,1-3.529-3.529A3.529,3.529,0,0,1,36.136,210.643Z" transform="translate(-8.384 -59.721)" fill="none" stroke="#fff" stroke-linecap="round" stroke-linejoin="round" stroke-width="1"/>
          <path id="Trazado_1280112" data-name="Trazado 1280112" d="M48.975,42.81a3.529,3.529,0,1,1-3.529-3.529A3.529,3.529,0,0,1,48.975,42.81Z" transform="translate(-12.086 -11.327)" fill="none" stroke="#fff" stroke-linecap="round" stroke-linejoin="round" stroke-width="1"/>
          <path id="Trazado_1280113" data-name="Trazado 1280113" d="M593.49,4.029A3.529,3.529,0,1,1,589.961.5,3.529,3.529,0,0,1,593.49,4.029Z" transform="translate(-169.097 -0.144)" fill="none" stroke="#fff" stroke-linecap="round" stroke-linejoin="round" stroke-width="1"/>
          <path id="Trazado_1280114" data-name="Trazado 1280114" d="M666.042,226.259a3.529,3.529,0,1,1-3.529-3.529A3.529,3.529,0,0,1,666.042,226.259Z" transform="translate(-190.017 -64.224)" fill="none" stroke="#fff" stroke-linecap="round" stroke-linejoin="round" stroke-width="1"/>
          <path id="Trazado_1280115" data-name="Trazado 1280115" d="M318.7,32.29a3.529,3.529,0,1,1-3.529-3.529A3.529,3.529,0,0,1,318.7,32.29Z" transform="translate(-89.862 -8.293)" fill="none" stroke="#fff" stroke-linecap="round" stroke-linejoin="round" stroke-width="1"/>
          <path id="Trazado_1280116" data-name="Trazado 1280116" d="M643.739,27.46l-7.519,6.959,8.575,3.232Z" transform="translate(-183.453 -7.918)" fill="none" stroke="#fff" stroke-linecap="round" stroke-linejoin="round" stroke-width="1"/>
          <path id="Trazado_1280117" data-name="Trazado 1280117" d="M373.285,3.23l8.512,5.7-7.966,4.529Z" transform="translate(-107.636 -0.932)" fill="none" stroke="#fff" stroke-linecap="round" stroke-linejoin="round" stroke-width="1"/>
          <path id="Trazado_1280118" data-name="Trazado 1280118" d="M659.533,149.242l8.512,5.7-7.966,4.529Z" transform="translate(-190.175 -43.034)" fill="none" stroke="#fff" stroke-linecap="round" stroke-linejoin="round" stroke-width="1"/>
          <path id="Trazado_1280119" data-name="Trazado 1280119" d="M32.061,98.543l8.512,5.7-7.966,4.529Z" transform="translate(-9.245 -28.415)" fill="none" stroke="#fff" stroke-linecap="round" stroke-linejoin="round" stroke-width="1"/>
          <path id="Trazado_1280120" data-name="Trazado 1280120" d="M459.412,19.789l-2.506,9.934-6.945-5.978Z" transform="translate(-129.746 -5.706)" fill="none" stroke="#fff" stroke-linecap="round" stroke-linejoin="round" stroke-width="1"/>
          <path id="Trazado_1280121" data-name="Trazado 1280121" d="M106.864,10.428l.751,10.218-8.475-3.486Z" transform="translate(-28.587 -3.007)" fill="none" stroke="#fff" stroke-linecap="round" stroke-linejoin="round" stroke-width="1"/>
          <line id="Línea_3449" data-name="Línea 3449" x2="493.238" transform="translate(0.534 230.858)" fill="none" stroke="#153e5f" stroke-linecap="round" stroke-linejoin="round" stroke-width="1.5"/>
          <path id="Trazado_1280122" data-name="Trazado 1280122" d="M590.3,290.546c10.621-3.527,17.448-13.484,17.643-13.6a120.212,120.212,0,0,0-15.278-2.854c16.594-3.086,23.724-13.652,24.063-13.916a103.73,103.73,0,0,0-14.893-4.15c10.265-9.629,16.273-24.2,16.3-24.206.2-.157-17.136,2.047-28.218,12.457-.71-4.915-1.419-9.661-2.3-14.084-.07.034-13.841,7.936-16.491,24.886-.836-5.023-1.6-9.906-2.451-14.479-.084,0-11.36,9.338-13.686,21.249-1.751,8.646.554,13.689.548,13.653-2.685-3.45-5.214-6.951-7.588-10.442.016-.065-6.208,11.828-6.847,25.33-.833,16.078,5.574,25.67,5.558,25.5-.057.23,10.679.411,23.516-5.556a95.447,95.447,0,0,0,19.71-12.413c-4.249-1.937-8.524-3.872-12.76-5.825-.013.057,5.527,1.028,13.177-1.55" transform="translate(-156.004 -66.376)" fill="#a1c7f7"/>
          <path id="Trazado_1280123" data-name="Trazado 1280123" d="M615.938,238.086a228.273,228.273,0,0,0-63.888,75.755" transform="translate(-159.183 -68.652)" fill="none" stroke="#87b1e6" stroke-linecap="round" stroke-linejoin="round" stroke-width="0.75"/>
          <path id="Trazado_1280124" data-name="Trazado 1280124" d="M617.785,269.07c-.008-.047-9.006,2.693-17.871-.768-4.386-8.156-1.082-17.365-1.053-17.332" transform="translate(-172.329 -72.367)" fill="none" stroke="#87b1e6" stroke-linecap="round" stroke-linejoin="round" stroke-width="0.75"/>
          <path id="Trazado_1280125" data-name="Trazado 1280125" d="M595.266,293.962a26.768,26.768,0,0,1-15.858-1.445,22.5,22.5,0,0,1-4.231-15.34" transform="translate(-165.82 -79.924)" fill="none" stroke="#87b1e6" stroke-linecap="round" stroke-linejoin="round" stroke-width="0.75"/>
          <path id="Trazado_1280126" data-name="Trazado 1280126" d="M577.033,318.432a25.032,25.032,0,0,1-15.548-.46,23.325,23.325,0,0,1-5.529-15.086" transform="translate(-160.308 -87.336)" fill="none" stroke="#87b1e6" stroke-linecap="round" stroke-linejoin="round" stroke-width="0.75"/>
          <path id="Trazado_1280127" data-name="Trazado 1280127" d="M73.044,290.546c-10.621-3.527-17.448-13.484-17.643-13.6a120.217,120.217,0,0,1,15.278-2.854c-16.594-3.086-23.724-13.652-24.063-13.916a103.73,103.73,0,0,1,14.893-4.15c-10.265-9.629-16.273-24.2-16.3-24.206-.2-.157,17.136,2.047,28.218,12.457.71-4.915,1.419-9.661,2.3-14.084.07.034,13.841,7.936,16.491,24.886.836-5.023,1.6-9.906,2.451-14.479.084,0,11.36,9.338,13.686,21.249,1.751,8.646-.554,13.689-.548,13.653,2.685-3.45,5.214-6.951,7.588-10.442-.016-.065,6.208,11.828,6.848,25.33.833,16.078-5.574,25.67-5.558,25.5.057.23-10.679.411-23.517-5.556a95.4,95.4,0,0,1-19.709-12.413c4.249-1.937,8.523-3.872,12.759-5.825.014.057-5.527,1.028-13.177-1.55" transform="translate(-13.036 -66.376)" fill="#a1c7f7"/>
          <path id="Trazado_1280128" data-name="Trazado 1280128" d="M52.766,238.086a228.273,228.273,0,0,1,63.889,75.755" transform="translate(-15.215 -68.652)" fill="none" stroke="#87b1e6" stroke-linecap="round" stroke-linejoin="round" stroke-width="0.75"/>
          <path id="Trazado_1280129" data-name="Trazado 1280129" d="M68.643,269.07c.008-.047,9.006,2.693,17.871-.768,4.386-8.156,1.082-17.365,1.053-17.332" transform="translate(-19.793 -72.367)" fill="none" stroke="#87b1e6" stroke-linecap="round" stroke-linejoin="round" stroke-width="0.75"/>
          <path id="Trazado_1280130" data-name="Trazado 1280130" d="M91.14,293.962A26.768,26.768,0,0,0,107,292.517a22.492,22.492,0,0,0,4.231-15.34" transform="translate(-26.28 -79.924)" fill="none" stroke="#87b1e6" stroke-linecap="round" stroke-linejoin="round" stroke-width="0.75"/>
          <path id="Trazado_1280131" data-name="Trazado 1280131" d="M109.016,318.432a25.031,25.031,0,0,0,15.548-.46,23.325,23.325,0,0,0,5.529-15.086" transform="translate(-31.435 -87.336)" fill="none" stroke="#87b1e6" stroke-linecap="round" stroke-linejoin="round" stroke-width="0.75"/>
          <path id="Trazado_1280132" data-name="Trazado 1280132" d="M628.344,306.906a24.479,24.479,0,0,1-7.209,17.273c.006-.09.931-8.775,1.032-18.226.343-9.427-.154-17.878-.153-17.965a32.056,32.056,0,0,1,6.33,18.919" transform="translate(-179.103 -83.04)" fill="#87b1e6"/>
          <path id="Trazado_1280133" data-name="Trazado 1280133" d="M621.136,324.533c5.145-10.794,5.394-23.524,1.195-35.321" transform="translate(-179.104 -83.394)" fill="none" stroke="#a1c7f7" stroke-linecap="round" stroke-linejoin="round" stroke-width="0.5"/>
          <path id="Trazado_1280134" data-name="Trazado 1280134" d="M604.511,330.617a23.624,23.624,0,0,1-9.306,15.935c.018-.087,1.958-8.417,3.136-17.577,1.423-9.111,1.872-17.36,1.883-17.445a30.4,30.4,0,0,1,4.286,19.086" transform="translate(-171.626 -89.829)" fill="#87b1e6"/>
          <path id="Trazado_1280135" data-name="Trazado 1280135" d="M595.207,346.91c6.476-9.892,8.173-22.213,5.241-34.141" transform="translate(-171.627 -90.187)" fill="none" stroke="#a1c7f7" stroke-linecap="round" stroke-linejoin="round" stroke-width="0.5"/>
          <path id="Trazado_1280136" data-name="Trazado 1280136" d="M577.587,351.073a23.267,23.267,0,0,1-11.335,14.418c.029-.082,2.983-7.957,5.243-16.722,2.5-8.688,3.906-16.648,3.927-16.728-.125-.181,4.844,8.712,2.165,19.032" transform="translate(-163.277 -95.743)" fill="#87b1e6"/>
          <path id="Trazado_1280137" data-name="Trazado 1280137" d="M566.254,365.849c7.763-8.874,10.909-20.649,9.295-32.569" transform="translate(-163.279 -96.101)" fill="none" stroke="#a1c7f7" stroke-linecap="round" stroke-linejoin="round" stroke-width="0.5"/>
          <path id="Trazado_1280138" data-name="Trazado 1280138" d="M648.021,314.075a32.635,32.635,0,0,0-16.23,9.542,182.2,182.2,0,0,0,18.035-3.153,179.93,179.93,0,0,0,17.784-5.426,34.124,34.124,0,0,0-19.59-.962" transform="translate(-182.176 -90.278)" fill="#87b1e6"/>
          <path id="Trazado_1280139" data-name="Trazado 1280139" d="M631.791,324.408a78.619,78.619,0,0,1,34.9-8.578" transform="translate(-182.176 -91.069)" fill="none" stroke="#a1c7f7" stroke-linecap="round" stroke-linejoin="round" stroke-width="0.5"/>
          <path id="Trazado_1280140" data-name="Trazado 1280140" d="M624.874,340.873a33.643,33.643,0,0,0-17.575,7.37c.091,0,8.913.039,18.686-.965,9.74-1.128,18.583-3.151,18.672-3.175a36.392,36.392,0,0,0-19.783-3.229" transform="translate(-175.114 -98.217)" fill="#87b1e6"/>
          <path id="Trazado_1280141" data-name="Trazado 1280141" d="M607.3,349.423a83.2,83.2,0,0,1,36.424-4.246" transform="translate(-175.114 -99.397)" fill="none" stroke="#a1c7f7" stroke-linecap="round" stroke-linejoin="round" stroke-width="0.5"/>
          <path id="Trazado_1280142" data-name="Trazado 1280142" d="M598.415,364.066a35.408,35.408,0,0,0-18.739,5.137c.093.01,9.076,1.06,19.133,1.211,10.039.026,19.256-.911,19.35-.924a38.609,38.609,0,0,0-19.745-5.423" transform="translate(-167.149 -104.978)" fill="#87b1e6"/>
          <path id="Trazado_1280143" data-name="Trazado 1280143" d="M579.677,370.487a88.815,88.815,0,0,1,37.546.075" transform="translate(-167.149 -106.262)" fill="none" stroke="#a1c7f7" stroke-linecap="round" stroke-linejoin="round" stroke-width="0.5"/>
          <path id="Trazado_1280144" data-name="Trazado 1280144" d="M541.461,365.683a176.614,176.614,0,0,0,78.063-62" transform="translate(-156.13 -87.567)" fill="none" stroke="#a1c7f7" stroke-linecap="round" stroke-linejoin="round" stroke-width="0.5"/>
          <path id="Trazado_1280145" data-name="Trazado 1280145" d="M657.568,275.423a66.136,66.136,0,0,0-6.415,16.231,36.452,36.452,0,0,0,11.793-12.469,42.3,42.3,0,0,0,5.13-17.226,61.8,61.8,0,0,0-10.508,13.464" transform="translate(-187.759 -75.535)" fill="#87b1e6"/>
          <path id="Trazado_1280146" data-name="Trazado 1280146" d="M651.153,291.961a181.731,181.731,0,0,0,16.577-28.936" transform="translate(-187.759 -75.843)" fill="none" stroke="#a1c7f7" stroke-linecap="round" stroke-linejoin="round" stroke-width="0.5"/>
          <path id="Trazado_1280147" data-name="Trazado 1280147" d="M63.323,306.906a24.479,24.479,0,0,0,7.209,17.273c-.006-.09-.931-8.775-1.032-18.226-.343-9.427.154-17.878.153-17.965a32.051,32.051,0,0,0-6.33,18.919" transform="translate(-18.258 -83.04)" fill="#87b1e6"/>
          <path id="Trazado_1280148" data-name="Trazado 1280148" d="M71.784,324.533c-5.145-10.794-5.394-23.524-1.195-35.321" transform="translate(-19.51 -83.394)" fill="none" stroke="#a1c7f7" stroke-linecap="round" stroke-linejoin="round" stroke-width="0.5"/>
          <path id="Trazado_1280149" data-name="Trazado 1280149" d="M86.219,330.617a23.624,23.624,0,0,0,9.306,15.935c-.018-.087-1.958-8.417-3.136-17.577-1.423-9.111-1.872-17.36-1.883-17.445a30.4,30.4,0,0,0-4.286,19.086" transform="translate(-24.798 -89.829)" fill="#87b1e6"/>
          <path id="Trazado_1280150" data-name="Trazado 1280150" d="M96.7,346.91c-6.476-9.892-8.173-22.213-5.241-34.141" transform="translate(-25.971 -90.187)" fill="none" stroke="#a1c7f7" stroke-linecap="round" stroke-linejoin="round" stroke-width="0.5"/>
          <path id="Trazado_1280151" data-name="Trazado 1280151" d="M112.087,351.073a23.267,23.267,0,0,0,11.335,14.418c-.028-.082-2.983-7.957-5.243-16.722-2.5-8.688-3.906-16.648-3.927-16.728.125-.181-4.844,8.712-2.165,19.032" transform="translate(-32.091 -95.743)" fill="#87b1e6"/>
          <path id="Trazado_1280152" data-name="Trazado 1280152" d="M124.4,365.849c-7.764-8.874-10.91-20.649-9.3-32.569" transform="translate(-33.073 -96.101)" fill="none" stroke="#a1c7f7" stroke-linecap="round" stroke-linejoin="round" stroke-width="0.5"/>
          <path id="Trazado_1280153" data-name="Trazado 1280153" d="M32.055,314.075a32.634,32.634,0,0,1,16.23,9.542,182.2,182.2,0,0,1-18.035-3.153,179.921,179.921,0,0,1-17.784-5.426,34.124,34.124,0,0,1,19.59-.962" transform="translate(-3.594 -90.278)" fill="#87b1e6"/>
          <path id="Trazado_1280154" data-name="Trazado 1280154" d="M48.659,324.408a78.619,78.619,0,0,0-34.9-8.578" transform="translate(-3.968 -91.069)" fill="none" stroke="#a1c7f7" stroke-linecap="round" stroke-linejoin="round" stroke-width="0.5"/>
          <path id="Trazado_1280155" data-name="Trazado 1280155" d="M54.578,340.873a33.644,33.644,0,0,1,17.575,7.37c-.091,0-8.913.039-18.686-.965-9.74-1.128-18.583-3.151-18.672-3.175a36.392,36.392,0,0,1,19.783-3.229" transform="translate(-10.033 -98.217)" fill="#87b1e6"/>
          <path id="Trazado_1280156" data-name="Trazado 1280156" d="M72.533,349.423a83.2,83.2,0,0,0-36.424-4.246" transform="translate(-10.412 -99.397)" fill="none" stroke="#a1c7f7" stroke-linecap="round" stroke-linejoin="round" stroke-width="0.5"/>
          <path id="Trazado_1280157" data-name="Trazado 1280157" d="M80.581,364.066A35.408,35.408,0,0,1,99.319,369.2c-.093.01-9.076,1.06-19.133,1.211-10.039.026-19.256-.911-19.35-.924a38.609,38.609,0,0,1,19.745-5.423" transform="translate(-17.541 -104.978)" fill="#87b1e6"/>
          <path id="Trazado_1280158" data-name="Trazado 1280158" d="M99.7,370.487a88.815,88.815,0,0,0-37.546.075" transform="translate(-17.922 -106.262)" fill="none" stroke="#a1c7f7" stroke-linecap="round" stroke-linejoin="round" stroke-width="0.5"/>
          <path id="Trazado_1280159" data-name="Trazado 1280159" d="M121.5,365.683a176.614,176.614,0,0,1-78.062-62" transform="translate(-12.525 -87.567)" fill="none" stroke="#a1c7f7" stroke-linecap="round" stroke-linejoin="round" stroke-width="0.5"/>
          <path id="Trazado_1280160" data-name="Trazado 1280160" d="M30.166,275.423a66.135,66.135,0,0,1,6.415,16.231,36.452,36.452,0,0,1-11.793-12.469,42.3,42.3,0,0,1-5.13-17.226,61.8,61.8,0,0,1,10.508,13.464" transform="translate(-5.668 -75.535)" fill="#87b1e6"/>
          <path id="Trazado_1280161" data-name="Trazado 1280161" d="M36.72,291.961a181.729,181.729,0,0,1-16.577-28.936" transform="translate(-5.808 -75.843)" fill="none" stroke="#a1c7f7" stroke-linecap="round" stroke-linejoin="round" stroke-width="0.5"/>
          <path id="Trazado_1280162" data-name="Trazado 1280162" d="M611.879,152.989a18.639,18.639,0,1,0,18.639,18.639,18.631,18.631,0,0,0-18.639-18.639m0,31.055a12.416,12.416,0,1,1,12.415-12.416,12.408,12.408,0,0,1-12.415,12.416" transform="translate(-171.069 -44.114)" fill="#87b1e6"/>
          <rect id="Rectángulo_463038" data-name="Rectángulo 463038" width="9.19" height="6.769" transform="translate(436.226 104.342)" fill="#87b1e6"/>
          <rect id="Rectángulo_463039" data-name="Rectángulo 463039" width="9.19" height="6.769" transform="matrix(0.707, -0.707, 0.707, 0.707, 421.186, 114.377)" fill="#87b1e6"/>
          <rect id="Rectángulo_463040" data-name="Rectángulo 463040" width="6.769" height="9.19" transform="translate(417.649 122.919)" fill="#87b1e6"/>
          <rect id="Rectángulo_463041" data-name="Rectángulo 463041" width="6.769" height="9.19" transform="matrix(0.707, -0.707, 0.707, 0.707, 421.186, 140.65)" fill="#87b1e6"/>
          <rect id="Rectángulo_463042" data-name="Rectángulo 463042" width="9.19" height="6.769" transform="translate(436.226 143.917)" fill="#87b1e6"/>
          <rect id="Rectángulo_463043" data-name="Rectángulo 463043" width="9.19" height="6.769" transform="matrix(0.707, -0.707, 0.707, 0.707, 449.17, 142.361)" fill="#87b1e6"/>
          <rect id="Rectángulo_463044" data-name="Rectángulo 463044" width="6.769" height="9.19" transform="translate(457.224 122.919)" fill="#87b1e6"/>
          <rect id="Rectángulo_463045" data-name="Rectángulo 463045" width="6.769" height="9.19" transform="translate(449.17 112.665) rotate(-45)" fill="#87b1e6"/>
          <path id="Trazado_1280163" data-name="Trazado 1280163" d="M65.1,152.906a16.775,16.775,0,1,0,16.775,16.775A16.768,16.768,0,0,0,65.1,152.906m0,27.949a11.174,11.174,0,1,1,11.174-11.174A11.167,11.167,0,0,1,65.1,180.855" transform="translate(-13.943 -44.09)" fill="#87b1e6"/>
          <rect id="Rectángulo_463046" data-name="Rectángulo 463046" width="8.271" height="6.092" transform="translate(47.033 104.735)" fill="#87b1e6"/>
          <rect id="Rectángulo_463047" data-name="Rectángulo 463047" width="8.271" height="6.092" transform="translate(33.498 113.768) rotate(-45)" fill="#87b1e6"/>
          <rect id="Rectángulo_463048" data-name="Rectángulo 463048" width="6.092" height="8.271" transform="translate(30.313 121.455)" fill="#87b1e6"/>
          <rect id="Rectángulo_463049" data-name="Rectángulo 463049" width="6.092" height="8.271" transform="translate(33.497 137.412) rotate(-45)" fill="#87b1e6"/>
          <rect id="Rectángulo_463050" data-name="Rectángulo 463050" width="8.271" height="6.092" transform="translate(47.033 140.353)" fill="#87b1e6"/>
          <rect id="Rectángulo_463051" data-name="Rectángulo 463051" width="8.271" height="6.092" transform="translate(58.683 138.953) rotate(-45)" fill="#87b1e6"/>
          <rect id="Rectángulo_463052" data-name="Rectángulo 463052" width="6.092" height="8.271" transform="translate(65.931 121.455)" fill="#87b1e6"/>
          <rect id="Rectángulo_463053" data-name="Rectángulo 463053" width="6.092" height="8.271" transform="translate(58.683 112.227) rotate(-45)" fill="#87b1e6"/>
          <path id="Trazado_1280164" data-name="Trazado 1280164" d="M380.712,30.62a20.5,20.5,0,1,0,20.5,20.5,20.5,20.5,0,0,0-20.5-20.5m0,34.161A13.657,13.657,0,1,1,394.37,51.123a13.649,13.649,0,0,1-13.657,13.657" transform="translate(-103.876 -8.829)" fill="#87b1e6"/>
          <rect id="Rectángulo_463054" data-name="Rectángulo 463054" width="10.109" height="7.446" transform="translate(271.794 16.804)" fill="#87b1e6"/>
          <rect id="Rectángulo_463055" data-name="Rectángulo 463055" width="10.109" height="7.446" transform="translate(255.251 27.844) rotate(-45)" fill="#87b1e6"/>
          <rect id="Rectángulo_463056" data-name="Rectángulo 463056" width="7.446" height="10.109" transform="translate(251.359 37.239)" fill="#87b1e6"/>
          <rect id="Rectángulo_463057" data-name="Rectángulo 463057" width="7.446" height="10.109" transform="matrix(0.707, -0.707, 0.707, 0.707, 255.251, 56.743)" fill="#87b1e6"/>
          <rect id="Rectángulo_463058" data-name="Rectángulo 463058" width="10.109" height="7.445" transform="translate(271.794 60.337)" fill="#87b1e6"/>
          <rect id="Rectángulo_463059" data-name="Rectángulo 463059" width="10.109" height="7.446" transform="translate(286.033 58.626) rotate(-45)" fill="#87b1e6"/>
          <rect id="Rectángulo_463060" data-name="Rectángulo 463060" width="7.446" height="10.109" transform="translate(294.892 37.239)" fill="#87b1e6"/>
          <rect id="Rectángulo_463061" data-name="Rectángulo 463061" width="7.446" height="10.109" transform="matrix(0.707, -0.707, 0.707, 0.707, 286.033, 25.961)" fill="#87b1e6"/>
          <path id="Trazado_1280165" data-name="Trazado 1280165" d="M429.657,249.459H152.726V87.035a8.44,8.44,0,0,1,8.439-8.439H421.218a8.439,8.439,0,0,1,8.439,8.439Z" transform="translate(-44.038 -22.663)" fill="#326290"/>
          <path id="Trazado_1280166" data-name="Trazado 1280166" d="M341.614,89.8H325.051a1.19,1.19,0,0,0,0,2.38h16.563a1.19,1.19,0,0,0,0-2.38" transform="translate(-93.385 -25.893)" fill="#153e5f"/>
          <path id="Trazado_1280167" data-name="Trazado 1280167" d="M366.362,88.745a5.387,5.387,0,1,1-5.387-5.387,5.387,5.387,0,0,1,5.387,5.387" transform="translate(-102.533 -24.036)" fill="#153e5f"/>
          <path id="Trazado_1280168" data-name="Trazado 1280168" d="M364.331,90.129a1.972,1.972,0,1,1-1.972-1.972,1.972,1.972,0,0,1,1.972,1.972" transform="translate(-103.917 -25.42)" fill="#fff"/>
          <path id="Trazado_1280169" data-name="Trazado 1280169" d="M424.756,106.58V245.016a3.321,3.321,0,0,1-3.321,3.321H167.607a3.321,3.321,0,0,1-3.321-3.321V106.58a3.321,3.321,0,0,1,3.321-3.321H421.435a3.321,3.321,0,0,1,3.321,3.321" transform="translate(-47.372 -29.775)" fill="#a1c7f7"/>
          <path id="Trazado_1280170" data-name="Trazado 1280170" d="M273.258,176.675a4.063,4.063,0,1,0-4.063,4.063,4.063,4.063,0,0,0,4.063-4.063" transform="translate(-76.45 -49.772)" fill="#d6e9fc"/>
          <path id="Trazado_1280171" data-name="Trazado 1280171" d="M255.825,200.027a4.063,4.063,0,1,0-4.063,4.063,4.063,4.063,0,0,0,4.063-4.063" transform="translate(-71.424 -56.506)" fill="#d6e9fc"/>
          <path id="Trazado_1280172" data-name="Trazado 1280172" d="M265.815,167.569V141.035H253.409" transform="translate(-73.07 -40.667)" fill="none" stroke="#d6e9fc" stroke-miterlimit="10" stroke-width="0.98"/>
          <path id="Trazado_1280173" data-name="Trazado 1280173" d="M230.266,217.108a4.063,4.063,0,1,1,4.063,4.063,4.063,4.063,0,0,1-4.063-4.063" transform="translate(-66.397 -61.431)" fill="#d6e9fc"/>
          <path id="Trazado_1280174" data-name="Trazado 1280174" d="M235.975,208V181.468h12.406" transform="translate(-68.043 -52.326)" fill="none" stroke="#d6e9fc" stroke-miterlimit="10" stroke-width="0.98"/>
          <path id="Trazado_1280175" data-name="Trazado 1280175" d="M230.266,159.182a4.063,4.063,0,1,1,4.063,4.063,4.063,4.063,0,0,1-4.063-4.063" transform="translate(-66.397 -44.728)" fill="#d6e9fc"/>
          <path id="Trazado_1280176" data-name="Trazado 1280176" d="M235.975,150.076V123.542h12.406" transform="translate(-68.043 -35.623)" fill="none" stroke="#d6e9fc" stroke-miterlimit="10" stroke-width="0.98"/>
          <path id="Trazado_1280177" data-name="Trazado 1280177" d="M212.832,177.824a4.063,4.063,0,1,1,4.063,4.063,4.063,4.063,0,0,1-4.063-4.063" transform="translate(-61.37 -50.104)" fill="#d6e9fc"/>
          <path id="Trazado_1280178" data-name="Trazado 1280178" d="M218.542,168.719V142.184h12.406" transform="translate(-63.016 -40.999)" fill="none" stroke="#d6e9fc" stroke-miterlimit="10" stroke-width="0.98"/>
          <line id="Línea_3450" data-name="Línea 3450" y2="70.036" transform="translate(180.338 73.485)" fill="none" stroke="#d6e9fc" stroke-miterlimit="10" stroke-width="0.98"/>
          <path id="Trazado_1280179" data-name="Trazado 1280179" d="M482.387,235.488a4.063,4.063,0,1,1-4.063-4.063,4.063,4.063,0,0,1,4.063,4.063" transform="translate(-136.753 -66.731)" fill="#d6e9fc"/>
          <path id="Trazado_1280180" data-name="Trazado 1280180" d="M464.954,212.136a4.063,4.063,0,1,1-4.063-4.063,4.063,4.063,0,0,1,4.063,4.063" transform="translate(-131.726 -59.998)" fill="#d6e9fc"/>
          <path id="Trazado_1280181" data-name="Trazado 1280181" d="M474.944,237.134v26.535H462.538" transform="translate(-133.372 -68.377)" fill="none" stroke="#d6e9fc" stroke-miterlimit="10" stroke-width="0.98"/>
          <path id="Trazado_1280182" data-name="Trazado 1280182" d="M499.821,218.762a4.063,4.063,0,1,1-4.063-4.063,4.063,4.063,0,0,1,4.063,4.063" transform="translate(-141.78 -61.908)" fill="#d6e9fc"/>
          <path id="Trazado_1280183" data-name="Trazado 1280183" d="M492.378,220.408v26.535H479.971" transform="translate(-138.399 -63.554)" fill="none" stroke="#d6e9fc" stroke-miterlimit="10" stroke-width="0.98"/>
          <path id="Trazado_1280184" data-name="Trazado 1280184" d="M439.4,195.054a4.063,4.063,0,1,0,4.063-4.063,4.063,4.063,0,0,0-4.063,4.063" transform="translate(-126.699 -55.072)" fill="#d6e9fc"/>
          <path id="Trazado_1280185" data-name="Trazado 1280185" d="M445.1,196.7v26.535h12.406" transform="translate(-128.345 -56.718)" fill="none" stroke="#d6e9fc" stroke-miterlimit="10" stroke-width="0.98"/>
          <path id="Trazado_1280186" data-name="Trazado 1280186" d="M439.4,252.981a4.063,4.063,0,1,0,4.063-4.063,4.063,4.063,0,0,0-4.063,4.063" transform="translate(-126.699 -71.775)" fill="#d6e9fc"/>
          <path id="Trazado_1280187" data-name="Trazado 1280187" d="M445.1,254.627v26.535h12.406" transform="translate(-128.345 -73.421)" fill="none" stroke="#d6e9fc" stroke-miterlimit="10" stroke-width="0.98"/>
          <line id="Línea_3451" data-name="Línea 3451" y1="66.426" transform="translate(329.166 152.138)" fill="none" stroke="#d6e9fc" stroke-miterlimit="10" stroke-width="0.98"/>
          <path id="Trazado_1280188" data-name="Trazado 1280188" d="M364.607,172.118a29.1,29.1,0,1,1-29.1-29.1,29.1,29.1,0,0,1,29.1,29.1" transform="translate(-88.35 -41.238)" fill="#fff"/>
          <path id="Trazado_1280189" data-name="Trazado 1280189" d="M360.1,195.868a29.1,29.1,0,0,1-43.045,0,21.773,21.773,0,0,1,14.837-17.536,11.519,11.519,0,1,1,13.364,0A21.77,21.77,0,0,1,360.1,195.868" transform="translate(-91.422 -45.401)" fill="#4192f2"/>
          <rect id="Rectángulo_463062" data-name="Rectángulo 463062" width="61.529" height="14.878" transform="translate(223.827 177.392)" fill="#fff"/>
          <path id="Trazado_1280190" data-name="Trazado 1280190" d="M367.411,262.538a.658.658,0,0,1-.658-.658v-8.154a.658.658,0,1,1,1.317,0v8.154a.658.658,0,0,1-.658.658" transform="translate(-105.753 -72.972)" fill="#153e5f"/>
          <path id="Trazado_1280191" data-name="Trazado 1280191" d="M363.361,261.827a.658.658,0,0,1-.465-1.124l5.765-5.767a.658.658,0,0,1,.931.932l-5.765,5.766a.654.654,0,0,1-.465.193" transform="translate(-104.585 -73.455)" fill="#153e5f"/>
          <path id="Trazado_1280192" data-name="Trazado 1280192" d="M369.126,261.827a.655.655,0,0,1-.465-.193l-5.765-5.766a.658.658,0,0,1,.931-.932l5.765,5.767a.658.658,0,0,1-.465,1.124" transform="translate(-104.585 -73.455)" fill="#153e5f"/>
          <path id="Trazado_1280193" data-name="Trazado 1280193" d="M369.837,260.114h-8.153a.658.658,0,1,1,0-1.317h8.153a.658.658,0,0,1,0,1.317" transform="translate(-104.101 -74.624)" fill="#153e5f"/>
          <path id="Trazado_1280194" data-name="Trazado 1280194" d="M347.551,262.538a.658.658,0,0,1-.658-.658v-8.154a.658.658,0,1,1,1.317,0v8.154a.658.658,0,0,1-.658.658" transform="translate(-100.026 -72.972)" fill="#153e5f"/>
          <path id="Trazado_1280195" data-name="Trazado 1280195" d="M343.5,261.827a.658.658,0,0,1-.465-1.124l5.765-5.767a.658.658,0,1,1,.931.932l-5.765,5.766a.655.655,0,0,1-.465.193" transform="translate(-98.858 -73.455)" fill="#153e5f"/>
          <path id="Trazado_1280196" data-name="Trazado 1280196" d="M349.266,261.827a.655.655,0,0,1-.465-.193l-5.765-5.766a.658.658,0,0,1,.931-.932l5.765,5.767a.658.658,0,0,1-.465,1.124" transform="translate(-98.858 -73.455)" fill="#153e5f"/>
          <path id="Trazado_1280197" data-name="Trazado 1280197" d="M349.977,260.114h-8.153a.658.658,0,0,1,0-1.317h8.153a.658.658,0,1,1,0,1.317" transform="translate(-98.374 -74.624)" fill="#153e5f"/>
          <path id="Trazado_1280198" data-name="Trazado 1280198" d="M327.691,262.538a.658.658,0,0,1-.658-.658v-8.154a.658.658,0,1,1,1.317,0v8.154a.658.658,0,0,1-.658.658" transform="translate(-94.3 -72.972)" fill="#153e5f"/>
          <path id="Trazado_1280199" data-name="Trazado 1280199" d="M323.641,261.827a.658.658,0,0,1-.465-1.124l5.765-5.767a.658.658,0,1,1,.931.932l-5.765,5.766a.655.655,0,0,1-.465.193" transform="translate(-93.132 -73.455)" fill="#153e5f"/>
          <path id="Trazado_1280200" data-name="Trazado 1280200" d="M329.406,261.827a.654.654,0,0,1-.465-.193l-5.765-5.766a.658.658,0,0,1,.931-.932l5.765,5.767a.658.658,0,0,1-.465,1.124" transform="translate(-93.132 -73.455)" fill="#153e5f"/>
          <path id="Trazado_1280201" data-name="Trazado 1280201" d="M330.117,260.114h-8.153a.658.658,0,1,1,0-1.317h8.153a.658.658,0,0,1,0,1.317" transform="translate(-92.648 -74.624)" fill="#153e5f"/>
          <path id="Trazado_1280202" data-name="Trazado 1280202" d="M387.271,262.538a.658.658,0,0,1-.658-.658v-8.154a.658.658,0,1,1,1.317,0v8.154a.658.658,0,0,1-.658.658" transform="translate(-111.479 -72.972)" fill="#153e5f"/>
          <path id="Trazado_1280203" data-name="Trazado 1280203" d="M383.22,261.827a.658.658,0,0,1-.465-1.124l5.765-5.767a.658.658,0,0,1,.931.932l-5.765,5.766a.654.654,0,0,1-.465.193" transform="translate(-110.311 -73.455)" fill="#153e5f"/>
          <path id="Trazado_1280204" data-name="Trazado 1280204" d="M388.986,261.827a.654.654,0,0,1-.465-.193l-5.765-5.766a.658.658,0,0,1,.931-.932l5.765,5.767a.658.658,0,0,1-.465,1.124" transform="translate(-110.311 -73.455)" fill="#153e5f"/>
          <path id="Trazado_1280205" data-name="Trazado 1280205" d="M389.7,260.114h-8.153a.658.658,0,1,1,0-1.317H389.7a.658.658,0,1,1,0,1.317" transform="translate(-109.828 -74.624)" fill="#153e5f"/>
          <rect id="Rectángulo_463063" data-name="Rectángulo 463063" width="14.878" height="14.878" transform="translate(208.949 177.392)" fill="#f2a941"/>
          <path id="Trazado_1280206" data-name="Trazado 1280206" d="M305.816,258.529a2.943,2.943,0,1,1-2.943-2.943,2.943,2.943,0,0,1,2.943,2.943" transform="translate(-86.484 -73.698)" fill="#fdc563"/>
          <rect id="Rectángulo_463064" data-name="Rectángulo 463064" width="30.639" height="2.207" transform="translate(208.949 171.121)" fill="#153e5f"/>
          <path id="Trazado_1280207" data-name="Trazado 1280207" d="M101.119,400.441l3.695,5.3a13.256,13.256,0,0,0,10.8,5.975H437a13.254,13.254,0,0,0,10.8-5.975l3.695-5.3Z" transform="translate(-29.158 -115.467)" fill="#153e5f"/>
          <path id="Trazado_1280208" data-name="Trazado 1280208" d="M414.433,318.69H137.5l-36.94,53.961c-1.805,2.637.468,5.923,4.1,5.923H447.277c3.629,0,5.9-3.286,4.1-5.923Z" transform="translate(-28.815 -91.894)" fill="#326290"/>
          <line id="Línea_3452" data-name="Línea 3452" x1="276.931" transform="translate(108.688 226.796)" fill="none" stroke="#153e5f" stroke-linecap="round" stroke-linejoin="round" stroke-width="0.75"/>
          <path id="Trazado_1280209" data-name="Trazado 1280209" d="M188.61,339.916H170.717c-.971,0-1.586-.286-1.374-.638l2.864-4.773a2.9,2.9,0,0,1,2.07-.606h17.384c.943,0,1.572.27,1.406.606l-2.381,4.773c-.176.352-1.105.638-2.075.638" transform="translate(-48.818 -96.28)" fill="#153e5f"/>
          <path id="Trazado_1280210" data-name="Trazado 1280210" d="M189.287,338.666H171.47c-.966,0-1.579-.283-1.37-.633l2.839-4.732a2.891,2.891,0,0,1,2.06-.6h17.312c.939,0,1.566.268,1.4.6l-2.361,4.732c-.174.349-1.1.633-2.065.633" transform="translate(-49.036 -95.934)" fill="#8ab5eb"/>
          <path id="Trazado_1280211" data-name="Trazado 1280211" d="M224.9,339.916H207.01c-.971,0-1.62-.286-1.452-.638l2.281-4.773c.16-.335,1.054-.606,2-.606h17.384c.943,0,1.6.27,1.479.606l-1.8,4.773c-.132.352-1.027.638-2,.638" transform="translate(-59.265 -96.28)" fill="#153e5f"/>
          <path id="Trazado_1280212" data-name="Trazado 1280212" d="M225.424,338.666H207.608c-.966,0-1.613-.283-1.447-.633l2.262-4.732c.159-.332,1.048-.6,1.987-.6h17.312c.939,0,1.6.268,1.474.6l-1.783,4.732c-.132.349-1.021.633-1.988.633" transform="translate(-59.439 -95.934)" fill="#8ab5eb"/>
          <path id="Trazado_1280213" data-name="Trazado 1280213" d="M261.194,339.916H243.3c-.971,0-1.655-.286-1.53-.638l1.7-4.773c.12-.335.98-.606,1.923-.606h17.384c.943,0,1.638.27,1.553.606l-1.216,4.773c-.09.352-.949.638-1.919.638" transform="translate(-69.71 -96.28)" fill="#153e5f"/>
          <path id="Trazado_1280214" data-name="Trazado 1280214" d="M261.562,338.666H243.745c-.966,0-1.648-.283-1.524-.633L243.9,333.3c.118-.332.975-.6,1.914-.6H263.13c.939,0,1.632.268,1.547.6l-1.2,4.732c-.089.349-.944.633-1.911.633" transform="translate(-69.84 -95.934)" fill="#8ab5eb"/>
          <path id="Trazado_1280215" data-name="Trazado 1280215" d="M297.484,339.916H279.592c-.971,0-1.69-.286-1.608-.638l1.115-4.773c.078-.335.906-.606,1.848-.606h17.384c.943,0,1.671.27,1.627.606l-.633,4.773c-.047.352-.872.638-1.842.638" transform="translate(-80.155 -96.28)" fill="#153e5f"/>
          <path id="Trazado_1280216" data-name="Trazado 1280216" d="M297.7,338.666H279.881c-.966,0-1.683-.283-1.6-.633l1.106-4.732c.078-.332.9-.6,1.84-.6h17.312c.939,0,1.665.268,1.62.6l-.628,4.732c-.046.349-.867.633-1.833.633" transform="translate(-80.24 -95.934)" fill="#8ab5eb"/>
          <path id="Trazado_1280217" data-name="Trazado 1280217" d="M333.774,339.916H315.881c-.971,0-1.725-.286-1.686-.638l.533-4.773c.037-.335.831-.606,1.774-.606h17.384c.942,0,1.7.27,1.7.606l-.05,4.773c0,.352-.793.638-1.763.638" transform="translate(-90.597 -96.28)" fill="#153e5f"/>
          <path id="Trazado_1280218" data-name="Trazado 1280218" d="M333.831,338.666H316.015c-.966,0-1.718-.283-1.679-.633l.528-4.732c.037-.332.828-.6,1.767-.6h17.312c.939,0,1.7.268,1.693.6l-.05,4.732c0,.349-.789.633-1.756.633" transform="translate(-90.638 -95.934)" fill="#8ab5eb"/>
          <path id="Trazado_1280219" data-name="Trazado 1280219" d="M370.041,339.916H352.148c-.97,0-1.76-.286-1.763-.638l-.05-4.773c0-.335.758-.606,1.7-.606h17.384c.943,0,1.738.27,1.775.606l.533,4.773c.038.352-.717.638-1.686.638" transform="translate(-101.019 -96.28)" fill="#153e5f"/>
          <path id="Trazado_1280220" data-name="Trazado 1280220" d="M369.944,338.666H352.127c-.966,0-1.752-.283-1.756-.633l-.05-4.732c0-.332.755-.6,1.694-.6h17.312c.939,0,1.73.268,1.767.6l.528,4.732c.039.349-.712.633-1.679.633" transform="translate(-101.015 -95.934)" fill="#8ab5eb"/>
          <path id="Trazado_1280221" data-name="Trazado 1280221" d="M406.091,339.916H388.2c-.971,0-1.795-.286-1.842-.638l-.633-4.773c-.044-.335.684-.606,1.627-.606h17.384c.942,0,1.77.27,1.848.606l1.115,4.773c.083.352-.638.638-1.608.638" transform="translate(-111.223 -96.28)" fill="#153e5f"/>
          <path id="Trazado_1280222" data-name="Trazado 1280222" d="M405.842,338.666H388.025c-.966,0-1.787-.283-1.833-.633l-.627-4.732c-.044-.332.681-.6,1.62-.6H404.5c.939,0,1.762.268,1.84.6l1.107,4.732c.081.349-.635.633-1.6.633" transform="translate(-111.177 -95.934)" fill="#8ab5eb"/>
          <path id="Trazado_1280223" data-name="Trazado 1280223" d="M442.14,339.916H424.248c-.971,0-1.83-.286-1.919-.638l-1.216-4.773c-.085-.335.61-.606,1.553-.606h17.384c.943,0,1.8.27,1.923.606l1.7,4.773c.125.352-.56.638-1.53.638" transform="translate(-121.425 -96.28)" fill="#153e5f"/>
          <path id="Trazado_1280224" data-name="Trazado 1280224" d="M441.737,338.666H423.921c-.966,0-1.821-.283-1.91-.633l-1.206-4.732c-.085-.332.608-.6,1.547-.6h17.312c.939,0,1.8.268,1.914.6l1.684,4.732c.124.349-.558.633-1.524.633" transform="translate(-121.337 -95.934)" fill="#8ab5eb"/>
          <path id="Trazado_1280225" data-name="Trazado 1280225" d="M478.187,339.916H460.295c-.971,0-1.865-.286-2-.638l-1.8-4.773c-.127-.335.536-.606,1.479-.606h17.384c.943,0,1.837.27,2,.606l2.28,4.773c.169.352-.482.638-1.452.638" transform="translate(-131.627 -96.28)" fill="#153e5f"/>
          <path id="Trazado_1280226" data-name="Trazado 1280226" d="M477.631,338.666H459.815c-.966,0-1.856-.283-1.988-.633l-1.783-4.732c-.125-.332.534-.6,1.473-.6H474.83c.939,0,1.828.268,1.986.6l2.262,4.732c.167.349-.481.633-1.447.633" transform="translate(-131.495 -95.934)" fill="#8ab5eb"/>
          <path id="Trazado_1280227" data-name="Trazado 1280227" d="M514.234,339.916H496.342c-.971,0-1.9-.286-2.075-.638l-2.381-4.773c-.167-.335.463-.606,1.4-.606h17.384a2.9,2.9,0,0,1,2.07.606l2.864,4.773c.211.352-.4.638-1.374.638" transform="translate(-141.827 -96.28)" fill="#153e5f"/>
          <path id="Trazado_1280228" data-name="Trazado 1280228" d="M513.525,338.666H495.709c-.966,0-1.891-.283-2.065-.633l-2.361-4.732c-.166-.332.462-.6,1.4-.6H510a2.89,2.89,0,0,1,2.06.6l2.84,4.732c.209.349-.4.633-1.37.633" transform="translate(-141.653 -95.934)" fill="#8ab5eb"/>
          <path id="Trazado_1280229" data-name="Trazado 1280229" d="M182.341,351.482h-18.6c-1.008,0-1.641-.309-1.413-.689l3.091-5.152a3,3,0,0,1,2.164-.653h18.051c.979,0,1.627.292,1.447.653l-2.57,5.152c-.189.38-1.161.689-2.17.689" transform="translate(-46.794 -99.477)" fill="#153e5f"/>
          <path id="Trazado_1280230" data-name="Trazado 1280230" d="M183.073,350.132H164.556c-1,0-1.635-.306-1.408-.683l3.064-5.107a2.985,2.985,0,0,1,2.153-.648h17.973c.975,0,1.621.29,1.442.648l-2.547,5.107c-.188.377-1.155.683-2.159.683" transform="translate(-47.03 -99.104)" fill="#8ab5eb"/>
          <path id="Trazado_1280231" data-name="Trazado 1280231" d="M220.068,351.482h-18.6c-1.008,0-1.679-.309-1.5-.689l2.462-5.152c.173-.361,1.106-.653,2.084-.653h18.051c.979,0,1.662.292,1.527.653l-1.941,5.152c-.143.38-1.077.689-2.086.689" transform="translate(-57.653 -99.477)" fill="#153e5f"/>
          <path id="Trazado_1280232" data-name="Trazado 1280232" d="M220.633,350.132H202.116c-1,0-1.672-.306-1.492-.683l2.44-5.107c.171-.358,1.1-.648,2.074-.648h17.973c.975,0,1.656.29,1.521.648l-1.924,5.107c-.142.377-1.072.683-2.076.683" transform="translate(-57.841 -99.104)" fill="#8ab5eb"/>
          <path id="Trazado_1280233" data-name="Trazado 1280233" d="M257.794,351.482h-18.6c-1.008,0-1.717-.309-1.581-.689l1.833-5.152c.128-.361,1.025-.653,2-.653H259.5c.979,0,1.7.292,1.605.653l-1.312,5.152c-.1.38-.993.689-2,.689" transform="translate(-68.511 -99.477)" fill="#153e5f"/>
          <path id="Trazado_1280234" data-name="Trazado 1280234" d="M258.191,350.132H239.674c-1,0-1.709-.306-1.575-.683l1.817-5.107c.127-.358,1.021-.648,1.995-.648h17.973c.974,0,1.691.29,1.6.648l-1.3,5.107c-.1.377-.988.683-1.992.683" transform="translate(-68.651 -99.104)" fill="#8ab5eb"/>
          <path id="Trazado_1280235" data-name="Trazado 1280235" d="M295.518,351.482h-18.6c-1.008,0-1.754-.309-1.665-.689l1.2-5.152c.084-.361.946-.653,1.925-.653h18.05c.979,0,1.734.292,1.686.653l-.682,5.152c-.05.38-.909.689-1.918.689" transform="translate(-79.367 -99.477)" fill="#153e5f"/>
          <path id="Trazado_1280236" data-name="Trazado 1280236" d="M295.747,350.132H277.23c-1,0-1.746-.306-1.659-.683l1.193-5.107c.084-.358.941-.648,1.916-.648h17.973c.975,0,1.727.29,1.679.648l-.677,5.107c-.05.377-.9.683-1.909.683" transform="translate(-79.459 -99.104)" fill="#8ab5eb"/>
          <path id="Trazado_1280237" data-name="Trazado 1280237" d="M333.24,351.482h-18.6c-1.008,0-1.792-.309-1.749-.689l.575-5.152c.04-.361.866-.653,1.845-.653h18.05c.979,0,1.77.292,1.766.653l-.053,5.152c0,.38-.825.689-1.834.689" transform="translate(-90.221 -99.477)" fill="#153e5f"/>
          <path id="Trazado_1280238" data-name="Trazado 1280238" d="M333.3,350.132H314.785c-1,0-1.784-.306-1.742-.683l.57-5.107c.04-.358.863-.648,1.837-.648h17.973c.974,0,1.761.29,1.758.648l-.053,5.107c0,.377-.821.683-1.825.683" transform="translate(-90.265 -99.104)" fill="#8ab5eb"/>
          <path id="Trazado_1280239" data-name="Trazado 1280239" d="M370.939,351.482h-18.6c-1.008,0-1.83-.309-1.833-.689l-.054-5.152c0-.361.786-.653,1.766-.653h18.05c.979,0,1.805.292,1.845.653l.575,5.152c.043.38-.741.689-1.749.689" transform="translate(-101.052 -99.477)" fill="#153e5f"/>
          <path id="Trazado_1280240" data-name="Trazado 1280240" d="M370.834,350.132H352.317c-1,0-1.821-.306-1.825-.683l-.053-5.107c0-.358.784-.648,1.758-.648h17.973c.974,0,1.8.29,1.837.648l.57,5.107c.042.377-.738.683-1.742.683" transform="translate(-101.048 -99.104)" fill="#8ab5eb"/>
          <path id="Trazado_1280241" data-name="Trazado 1280241" d="M408.4,351.482H389.8c-1.008,0-1.867-.309-1.918-.689l-.682-5.152c-.048-.361.707-.653,1.686-.653h18.05c.979,0,1.841.292,1.925.653l1.2,5.152c.089.38-.657.689-1.665.689" transform="translate(-111.649 -99.477)" fill="#153e5f"/>
          <path id="Trazado_1280242" data-name="Trazado 1280242" d="M408.133,350.132H389.616c-1,0-1.859-.306-1.909-.683l-.677-5.107c-.047-.358.7-.648,1.68-.648h17.973c.975,0,1.833.29,1.916.648l1.193,5.107c.088.377-.655.683-1.659.683" transform="translate(-111.599 -99.104)" fill="#8ab5eb"/>
          <path id="Trazado_1280243" data-name="Trazado 1280243" d="M445.867,351.482h-18.6c-1.008,0-1.905-.309-2-.689l-1.312-5.152c-.092-.361.628-.653,1.606-.653H443.61c.979,0,1.877.292,2,.653l1.833,5.152c.135.38-.573.689-1.581.689" transform="translate(-122.244 -99.477)" fill="#153e5f"/>
          <path id="Trazado_1280244" data-name="Trazado 1280244" d="M445.432,350.132H426.915c-1,0-1.9-.306-1.992-.683l-1.3-5.107c-.091-.358.626-.648,1.6-.648H443.2c.974,0,1.867.29,1.995.648l1.817,5.107c.134.377-.571.683-1.575.683" transform="translate(-122.148 -99.104)" fill="#8ab5eb"/>
          <path id="Trazado_1280245" data-name="Trazado 1280245" d="M483.328,351.482h-18.6c-1.008,0-1.943-.309-2.086-.689l-1.941-5.152c-.136-.361.548-.653,1.526-.653h18.051c.979,0,1.912.292,2.084.653l2.462,5.152c.181.38-.489.689-1.5.689" transform="translate(-132.838 -99.477)" fill="#153e5f"/>
          <path id="Trazado_1280246" data-name="Trazado 1280246" d="M482.728,350.132H464.211c-1,0-1.934-.306-2.076-.683l-1.924-5.107c-.135-.358.546-.648,1.521-.648H479.7c.975,0,1.9.29,2.074.648l2.44,5.107c.18.377-.487.683-1.492.683" transform="translate(-132.696 -99.104)" fill="#8ab5eb"/>
          <path id="Trazado_1280247" data-name="Trazado 1280247" d="M520.788,351.482h-18.6c-1.008,0-1.981-.309-2.17-.689l-2.57-5.152c-.18-.361.468-.653,1.447-.653h18.051a3,3,0,0,1,2.164.653l3.091,5.152c.229.38-.4.689-1.413.689" transform="translate(-143.43 -99.477)" fill="#153e5f"/>
          <path id="Trazado_1280248" data-name="Trazado 1280248" d="M520.023,350.132H501.506c-1,0-1.971-.306-2.159-.683l-2.548-5.107c-.179-.358.468-.648,1.442-.648h17.973a2.986,2.986,0,0,1,2.153.648l3.064,5.107c.226.377-.4.683-1.408.683" transform="translate(-143.243 -99.104)" fill="#8ab5eb"/>
          <path id="Trazado_1280249" data-name="Trazado 1280249" d="M194.418,329.191H177.181c-.935,0-1.534-.265-1.337-.592l2.66-4.434a2.818,2.818,0,0,1,1.984-.563h16.764c.909,0,1.521.252,1.366.563l-2.213,4.434c-.163.327-1.053.592-1.988.592" transform="translate(-50.694 -93.31)" fill="#153e5f"/>
          <path id="Trazado_1280250" data-name="Trazado 1280250" d="M195.047,328.031H177.881c-.932,0-1.528-.263-1.334-.587l2.639-4.4a2.808,2.808,0,0,1,1.975-.559h16.7c.905,0,1.515.25,1.361.559l-2.194,4.4c-.162.324-1.048.587-1.978.587" transform="translate(-50.897 -92.989)" fill="#8ab5eb"/>
          <path id="Trazado_1280251" data-name="Trazado 1280251" d="M229.382,329.191H212.145c-.935,0-1.566-.265-1.41-.592l2.119-4.434c.149-.311,1.006-.563,1.915-.563h16.764c.909,0,1.551.252,1.434.563L231.3,328.6c-.123.327-.981.592-1.916.592" transform="translate(-60.758 -93.31)" fill="#153e5f"/>
          <path id="Trazado_1280252" data-name="Trazado 1280252" d="M229.868,328.031H212.7c-.932,0-1.56-.263-1.406-.587l2.1-4.4c.147-.309,1-.559,1.907-.559H232c.9,0,1.544.25,1.429.559l-1.658,4.4c-.121.324-.975.587-1.906.587" transform="translate(-60.92 -92.989)" fill="#8ab5eb"/>
          <path id="Trazado_1280253" data-name="Trazado 1280253" d="M264.345,329.191H247.108c-.935,0-1.6-.265-1.482-.592l1.577-4.434c.111-.311.938-.563,1.847-.563h16.764c.91,0,1.582.252,1.5.563l-1.129,4.434c-.083.327-.908.592-1.843.592" transform="translate(-70.822 -93.31)" fill="#153e5f"/>
          <path id="Trazado_1280254" data-name="Trazado 1280254" d="M264.687,328.031H247.521c-.931,0-1.591-.263-1.476-.587l1.564-4.4c.11-.309.933-.559,1.839-.559h16.7c.905,0,1.576.25,1.5.559l-1.119,4.4c-.083.324-.9.587-1.835.587" transform="translate(-70.943 -92.989)" fill="#8ab5eb"/>
          <path id="Trazado_1280255" data-name="Trazado 1280255" d="M299.307,329.191H282.07c-.935,0-1.63-.265-1.554-.592l1.036-4.434c.073-.311.869-.563,1.778-.563h16.765c.909,0,1.613.252,1.571.563l-.588,4.434c-.043.327-.836.592-1.771.592" transform="translate(-80.885 -93.31)" fill="#153e5f"/>
          <path id="Trazado_1280256" data-name="Trazado 1280256" d="M299.505,328.031H282.339c-.932,0-1.625-.263-1.549-.587l1.028-4.4c.073-.309.865-.559,1.771-.559h16.7c.905,0,1.606.25,1.565.559l-.583,4.4c-.043.324-.833.587-1.763.587" transform="translate(-80.964 -92.989)" fill="#8ab5eb"/>
          <path id="Trazado_1280257" data-name="Trazado 1280257" d="M334.268,329.191H317.031c-.935,0-1.663-.265-1.627-.592l.5-4.434c.035-.311.8-.563,1.709-.563h16.765c.909,0,1.643.252,1.64.563l-.046,4.434c0,.327-.764.592-1.7.592" transform="translate(-90.946 -93.31)" fill="#153e5f"/>
          <path id="Trazado_1280258" data-name="Trazado 1280258" d="M334.322,328.031H317.155c-.931,0-1.656-.263-1.62-.587l.491-4.4c.034-.309.8-.559,1.7-.559h16.7c.906,0,1.637.25,1.634.559l-.046,4.4c0,.324-.761.587-1.692.587" transform="translate(-90.984 -92.989)" fill="#8ab5eb"/>
          <path id="Trazado_1280259" data-name="Trazado 1280259" d="M369.209,329.191H351.972c-.935,0-1.7-.265-1.7-.592l-.046-4.434c0-.311.731-.563,1.64-.563h16.765c.909,0,1.674.252,1.709.563l.5,4.434c.036.327-.692.592-1.627.592" transform="translate(-100.988 -93.31)" fill="#153e5f"/>
          <path id="Trazado_1280260" data-name="Trazado 1280260" d="M369.119,328.031H351.953c-.932,0-1.689-.263-1.692-.587l-.046-4.4c0-.309.728-.559,1.633-.559h16.7c.905,0,1.667.25,1.7.559l.49,4.4c.036.324-.689.587-1.62.587" transform="translate(-100.984 -92.989)" fill="#8ab5eb"/>
          <path id="Trazado_1280261" data-name="Trazado 1280261" d="M403.947,329.191H386.71c-.935,0-1.728-.265-1.771-.592l-.588-4.434c-.041-.311.663-.563,1.571-.563h16.765c.909,0,1.705.252,1.778.563L405.5,328.6c.076.327-.619.592-1.554.592" transform="translate(-110.827 -93.31)" fill="#153e5f"/>
          <path id="Trazado_1280262" data-name="Trazado 1280262" d="M403.715,328.031H386.549c-.931,0-1.72-.263-1.763-.587l-.584-4.4c-.041-.309.66-.559,1.566-.559h16.7c.905,0,1.7.25,1.77.559l1.028,4.4c.075.324-.618.587-1.549.587" transform="translate(-110.784 -92.989)" fill="#8ab5eb"/>
          <path id="Trazado_1280263" data-name="Trazado 1280263" d="M438.685,329.191H421.448c-.935,0-1.76-.265-1.843-.592l-1.129-4.434c-.079-.311.594-.563,1.5-.563h16.764c.909,0,1.736.252,1.847.563l1.577,4.434c.117.327-.547.592-1.482.592" transform="translate(-120.665 -93.31)" fill="#153e5f"/>
          <path id="Trazado_1280264" data-name="Trazado 1280264" d="M438.311,328.031H421.145c-.932,0-1.753-.263-1.835-.587l-1.12-4.4c-.079-.309.591-.559,1.5-.559h16.7c.905,0,1.729.25,1.838.559l1.565,4.4c.115.324-.546.587-1.477.587" transform="translate(-120.583 -92.989)" fill="#8ab5eb"/>
          <path id="Trazado_1280265" data-name="Trazado 1280265" d="M473.421,329.191H456.184c-.935,0-1.793-.265-1.916-.592l-1.67-4.434c-.117-.311.524-.563,1.434-.563H470.8c.909,0,1.766.252,1.915.563l2.119,4.434c.156.327-.475.592-1.41.592" transform="translate(-130.502 -93.31)" fill="#153e5f"/>
          <path id="Trazado_1280266" data-name="Trazado 1280266" d="M472.905,328.031H455.739c-.931,0-1.785-.263-1.907-.587l-1.657-4.4c-.117-.309.523-.559,1.429-.559h16.7c.905,0,1.758.25,1.907.559l2.1,4.4c.155.324-.474.587-1.4.587" transform="translate(-130.38 -92.989)" fill="#8ab5eb"/>
          <path id="Trazado_1280267" data-name="Trazado 1280267" d="M508.156,329.191H490.919c-.935,0-1.825-.265-1.988-.592l-2.213-4.434c-.155-.311.456-.563,1.366-.563h16.764a2.82,2.82,0,0,1,1.984.563l2.66,4.434c.2.327-.4.592-1.337.592" transform="translate(-140.338 -93.31)" fill="#153e5f"/>
          <path id="Trazado_1280268" data-name="Trazado 1280268" d="M507.5,328.031H490.333c-.931,0-1.817-.263-1.978-.587l-2.194-4.4c-.154-.309.455-.559,1.361-.559h16.7a2.809,2.809,0,0,1,1.975.559l2.639,4.4c.194.324-.4.587-1.334.587" transform="translate(-140.177 -92.989)" fill="#8ab5eb"/>
          <path id="Trazado_1280269" data-name="Trazado 1280269" d="M175.558,363.99H156.193c-1.05,0-1.7-.335-1.453-.747l3.347-5.577a3.1,3.1,0,0,1,2.267-.707h18.771c1.018,0,1.685.316,1.49.707l-2.782,5.577c-.206.412-1.224.747-2.274.747" transform="translate(-44.604 -102.929)" fill="#153e5f"/>
          <path id="Trazado_1280270" data-name="Trazado 1280270" d="M176.351,362.528H157.075c-1.045,0-1.694-.332-1.448-.74l3.316-5.527a3.09,3.09,0,0,1,2.255-.7h18.687c1.013,0,1.679.312,1.486.7l-2.758,5.527c-.2.409-1.216.74-2.262.74" transform="translate(-44.86 -102.526)" fill="#8ab5eb"/>
          <path id="Trazado_1280271" data-name="Trazado 1280271" d="M214.837,363.99H195.472c-1.05,0-1.741-.335-1.544-.747l2.665-5.577c.187-.391,1.163-.707,2.181-.707h18.771c1.018,0,1.724.316,1.577.707l-2.1,5.577c-.155.412-1.132.747-2.183.747" transform="translate(-55.909 -102.929)" fill="#153e5f"/>
          <path id="Trazado_1280272" data-name="Trazado 1280272" d="M215.449,362.528H196.173c-1.045,0-1.734-.332-1.539-.74l2.642-5.527c.185-.387,1.156-.7,2.169-.7h18.687c1.013,0,1.717.312,1.571.7l-2.083,5.527c-.154.409-1.126.74-2.171.74" transform="translate(-56.113 -102.526)" fill="#8ab5eb"/>
          <path id="Trazado_1280273" data-name="Trazado 1280273" d="M254.114,363.99H234.749c-1.05,0-1.782-.335-1.635-.747l1.984-5.577c.139-.391,1.077-.707,2.094-.707h18.771c1.018,0,1.763.316,1.663.707l-1.42,5.577c-.1.412-1.041.747-2.092.747" transform="translate(-67.213 -102.929)" fill="#153e5f"/>
          <path id="Trazado_1280274" data-name="Trazado 1280274" d="M254.544,362.528H235.269c-1.045,0-1.774-.332-1.629-.74l1.966-5.527c.137-.387,1.07-.7,2.084-.7h18.687c1.014,0,1.756.312,1.657.7l-1.408,5.527c-.1.409-1.036.74-2.081.74" transform="translate(-67.364 -102.526)" fill="#8ab5eb"/>
          <path id="Trazado_1280275" data-name="Trazado 1280275" d="M293.39,363.99H274.024c-1.05,0-1.823-.335-1.726-.747l1.3-5.577c.092-.391.991-.707,2.008-.707H294.38c1.018,0,1.8.316,1.749.707l-.739,5.577c-.055.412-.95.747-2,.747" transform="translate(-78.514 -102.929)" fill="#153e5f"/>
          <path id="Trazado_1280276" data-name="Trazado 1280276" d="M293.638,362.528H274.362c-1.045,0-1.815-.332-1.72-.74l1.292-5.527c.09-.387.985-.7,2-.7h18.687c1.013,0,1.793.312,1.742.7l-.732,5.527c-.055.409-.946.74-1.991.74" transform="translate(-78.614 -102.526)" fill="#8ab5eb"/>
          <path id="Trazado_1280277" data-name="Trazado 1280277" d="M332.663,363.99H313.3c-1.05,0-1.864-.335-1.818-.747l.622-5.577c.044-.391.9-.707,1.922-.707H332.8c1.018,0,1.84.316,1.835.707l-.058,5.577c0,.412-.859.747-1.909.747" transform="translate(-89.814 -102.929)" fill="#153e5f"/>
          <path id="Trazado_1280278" data-name="Trazado 1280278" d="M332.73,362.528H313.455c-1.045,0-1.856-.332-1.81-.74l.617-5.527c.043-.387.9-.7,1.913-.7h18.687c1.013,0,1.832.312,1.828.7l-.058,5.527c-.005.409-.855.74-1.9.74" transform="translate(-89.862 -102.526)" fill="#8ab5eb"/>
          <path id="Trazado_1280279" data-name="Trazado 1280279" d="M371.911,363.99H352.546c-1.05,0-1.905-.335-1.909-.747l-.058-5.577c0-.391.818-.707,1.836-.707h18.771c1.018,0,1.879.316,1.922.707l.623,5.577c.046.412-.768.747-1.818.747" transform="translate(-101.089 -102.929)" fill="#153e5f"/>
          <path id="Trazado_1280280" data-name="Trazado 1280280" d="M371.8,362.528H352.521c-1.045,0-1.9-.332-1.9-.74l-.058-5.527c0-.387.814-.7,1.828-.7h18.687c1.013,0,1.87.312,1.913.7l.617,5.527c.046.409-.765.74-1.81.74" transform="translate(-101.084 -102.526)" fill="#8ab5eb"/>
          <path id="Trazado_1280281" data-name="Trazado 1280281" d="M410.905,363.99H391.54c-1.05,0-1.946-.335-2-.747l-.739-5.577c-.052-.391.732-.707,1.749-.707H409.32c1.018,0,1.917.316,2.008.707l1.3,5.577c.1.412-.677.747-1.727.747" transform="translate(-112.109 -102.929)" fill="#153e5f"/>
          <path id="Trazado_1280282" data-name="Trazado 1280282" d="M410.613,362.528H391.338c-1.045,0-1.936-.332-1.99-.74l-.733-5.527c-.051-.387.729-.7,1.742-.7h18.687c1.013,0,1.908.312,2,.7l1.292,5.527c.1.409-.675.74-1.72.74" transform="translate(-112.056 -102.526)" fill="#8ab5eb"/>
          <path id="Trazado_1280283" data-name="Trazado 1280283" d="M449.9,363.99H430.532c-1.05,0-1.987-.335-2.092-.747l-1.42-5.577c-.1-.391.645-.707,1.663-.707h18.771c1.018,0,1.956.316,2.094.707l1.984,5.577c.147.412-.585.747-1.635.747" transform="translate(-123.128 -102.929)" fill="#153e5f"/>
          <path id="Trazado_1280284" data-name="Trazado 1280284" d="M449.427,362.528H430.151c-1.045,0-1.977-.332-2.081-.74l-1.408-5.527c-.1-.387.643-.7,1.657-.7h18.687c1.013,0,1.946.312,2.084.7l1.967,5.527c.145.409-.584.74-1.63.74" transform="translate(-123.025 -102.526)" fill="#8ab5eb"/>
          <path id="Trazado_1280285" data-name="Trazado 1280285" d="M488.889,363.99H469.523c-1.05,0-2.027-.335-2.183-.747l-2.1-5.577c-.147-.391.559-.707,1.577-.707h18.771c1.018,0,1.994.316,2.18.707l2.665,5.577c.2.412-.494.747-1.544.747" transform="translate(-134.146 -102.929)" fill="#153e5f"/>
          <path id="Trazado_1280286" data-name="Trazado 1280286" d="M488.238,362.528H468.963c-1.045,0-2.018-.332-2.171-.74l-2.083-5.527c-.145-.387.558-.7,1.571-.7h18.687c1.013,0,1.984.312,2.169.7l2.642,5.527c.2.409-.494.74-1.539.74" transform="translate(-133.993 -102.526)" fill="#8ab5eb"/>
          <path id="Trazado_1280287" data-name="Trazado 1280287" d="M527.878,363.99H508.513c-1.05,0-2.068-.335-2.274-.747l-2.783-5.577c-.2-.391.472-.707,1.491-.707h18.771a3.1,3.1,0,0,1,2.267.707l3.346,5.577c.247.412-.4.747-1.453.747" transform="translate(-145.161 -102.929)" fill="#153e5f"/>
          <path id="Trazado_1280288" data-name="Trazado 1280288" d="M527.049,362.528H507.774c-1.045,0-2.058-.332-2.262-.74l-2.758-5.527c-.193-.387.473-.7,1.486-.7h18.687a3.088,3.088,0,0,1,2.255.7l3.316,5.527c.245.409-.4.74-1.449.74" transform="translate(-144.959 -102.526)" fill="#8ab5eb"/>
          <path id="Trazado_1280289" data-name="Trazado 1280289" d="M369.626,389.614H290.1c-1.94,0-3.4-.676-3.253-1.506l2.708-15.682c.125-.724,1.682-1.307,3.479-1.307h73.659c1.8,0,3.355.583,3.479,1.307l2.708,15.682c.143.83-1.313,1.506-3.253,1.506" transform="translate(-82.709 -107.012)" fill="#8ab5eb"/>
          <path id="Trazado_1280290" data-name="Trazado 1280290" d="M492.044,124.313l-19.458,18.416q-6.5-5.154-12.872-10.275c-11.317-9.086-16.869-20.378-15.957-31.931,1.637-21.559,3.078-43.118,3.558-64.709l4.746-3.566Z" transform="translate(-127.929 -9.299)" fill="#f2a941"/>
          <path id="Trazado_1280291" data-name="Trazado 1280291" d="M520.894,201.061l-4.747,3.558c-10.942-8.133-21.518-16.381-31.841-24.588l19.459-18.416Z" transform="translate(-139.649 -46.601)" fill="#153e5f"/>
          <path id="Trazado_1280292" data-name="Trazado 1280292" d="M511.094,11.756c-18.988,4.863-37.948,9.729-57.11,14.585-.475,21.594-1.917,43.156-3.558,64.711-.907,11.555,4.646,22.85,15.961,31.936,14.4,11.552,29.178,23.312,44.708,34.863,15.526-11.551,30.3-23.311,44.7-34.863,11.315-9.086,16.868-20.382,15.961-31.936-1.641-21.555-3.084-43.117-3.558-64.711-19.159-4.856-38.117-9.722-57.1-14.585" transform="translate(-129.852 -3.39)" fill="#fdc563"/>
          <path id="Trazado_1280293" data-name="Trazado 1280293" d="M567.858,94.305C566.408,75.264,565,54.9,564.41,34.248,549.33,30.417,513.763,21.3,513.763,21.3s-35.789,9.168-50.657,12.944c-.591,20.645-2,41.015-3.449,60.073-.735,9.362,4.066,18.7,13.517,26.286,12.766,10.24,26.355,21.075,40.589,31.779,14.217-10.694,27.809-21.533,40.577-31.776,9.454-7.591,14.255-16.927,13.519-26.3" transform="translate(-132.52 -6.143)" fill="#4192f2"/>
          <path id="Trazado_1280294" data-name="Trazado 1280294" d="M478.68,125.851c12.766,10.24,26.355,21.075,40.589,31.779,14.217-10.694,27.809-21.534,40.577-31.776,9.453-7.591,14.255-16.928,13.519-26.3-1.45-19.042-2.857-39.406-3.448-60.057Z" transform="translate(-138.027 -11.388)" fill="#307ad1"/>
          <path id="Trazado_1280295" data-name="Trazado 1280295" d="M461.3,78.539C462.3,64.19,463.168,49.3,463.6,34.25,478.466,30.47,514.255,21.3,514.255,21.3S549.827,30.414,564.9,34.25c.433,15.045,1.3,29.94,2.294,44.289" transform="translate(-133.014 -6.142)" fill="none" stroke="#153e5f" stroke-linecap="round" stroke-linejoin="round" stroke-width="0.75"/>
          <path id="Trazado_1280296" data-name="Trazado 1280296" d="M547.76,84.61h-5.208V66.952a15.055,15.055,0,0,0-30.109,0V84.61h-5.207V66.952a20.262,20.262,0,0,1,40.524,0Z" transform="translate(-146.261 -13.463)" fill="#326290"/>
          <path id="Trazado_1280297" data-name="Trazado 1280297" d="M562.8,89.8v41.553a2.336,2.336,0,0,1-2.341,2.341H535.713V87.461h24.749A2.342,2.342,0,0,1,562.8,89.8" transform="translate(-154.472 -25.219)" fill="#f2a941"/>
          <path id="Trazado_1280298" data-name="Trazado 1280298" d="M524.733,87.461V133.7H499.974a2.335,2.335,0,0,1-2.341-2.341V89.8a2.341,2.341,0,0,1,2.341-2.341Z" transform="translate(-143.492 -25.219)" fill="#fdc563"/>
          <path id="Trazado_1280299" data-name="Trazado 1280299" d="M540.375,127.793l-5.423-12.755a6.88,6.88,0,1,0-4.846,0l-5.423,12.755Z" transform="translate(-151.291 -29.333)" fill="#153e5f"/>
          <path id="Trazado_1280300" data-name="Trazado 1280300" d="M182.475,86.554a54.306,54.306,0,1,1-54.306-54.306,54.306,54.306,0,0,1,54.306,54.306" transform="translate(-21.298 -9.299)" fill="#4192f2"/>
          <path id="Trazado_1280301" data-name="Trazado 1280301" d="M190.985,163.627l22.065,7.8-7.8-22.065Z" transform="translate(-55.07 -43.069)" fill="#4192f2"/>
          <circle id="Elipse_13701" data-name="Elipse 13701" cx="41.866" cy="41.866" r="41.866" transform="translate(65.005 35.39)" fill="none" stroke="#fff" stroke-miterlimit="10" stroke-width="1.96"/>
          <path id="Trazado_1280302" data-name="Trazado 1280302" d="M164.1,91.595c0,23.122-10.483,41.866-23.414,41.866s-23.413-18.744-23.413-41.866,10.483-41.866,23.413-41.866S164.1,68.473,164.1,91.595Z" transform="translate(-33.815 -14.339)" fill="none" stroke="#fff" stroke-miterlimit="10" stroke-width="1.96"/>
          <path id="Trazado_1280303" data-name="Trazado 1280303" d="M112.833,63.1a41.9,41.9,0,0,0,53.152,0" transform="translate(-32.535 -18.193)" fill="none" stroke="#fff" stroke-miterlimit="10" stroke-width="1.96"/>
          <path id="Trazado_1280304" data-name="Trazado 1280304" d="M165.985,150.169a41.9,41.9,0,0,0-53.152,0" transform="translate(-32.535 -40.56)" fill="none" stroke="#fff" stroke-miterlimit="10" stroke-width="1.96"/>
          <line id="Línea_3453" data-name="Línea 3453" x2="83.731" transform="translate(65.005 77.255)" fill="none" stroke="#fff" stroke-miterlimit="10" stroke-width="1.96"/>
          <line id="Línea_3454" data-name="Línea 3454" y1="83.731" transform="translate(106.874 35.389)" fill="none" stroke="#fff" stroke-miterlimit="10" stroke-width="1.96"/>
          <path id="Trazado_1280305" data-name="Trazado 1280305" d="M291.707,61.054a27.674,27.674,0,1,1-27.675-27.675,27.675,27.675,0,0,1,27.675,27.675" transform="translate(-68.154 -9.625)" fill="#fff"/>
          <path id="Trazado_1280306" data-name="Trazado 1280306" d="M278.138,86.287a4.864,4.864,0,1,1-4.863-4.863,4.863,4.863,0,0,1,4.863,4.863" transform="translate(-77.396 -23.479)" fill="#326290"/>
          <path id="Trazado_1280307" data-name="Trazado 1280307" d="M286.032,59.721l-2.353,2.324c-3.23-4.548-9.274-7.371-15.782-7.371s-12.551,2.822-15.781,7.371l-2.353-2.324c3.9-5.142,10.787-8.319,18.134-8.319s14.238,3.177,18.134,8.319" transform="translate(-72.019 -14.822)" fill="#326290"/>
          <path id="Trazado_1280308" data-name="Trazado 1280308" d="M283.2,67.454l-2.214,2.19a15.748,15.748,0,0,0-22.313,0l-2.214-2.19a18.87,18.87,0,0,1,26.741,0" transform="translate(-73.949 -17.849)" fill="#326290"/>
          <path id="Trazado_1280309" data-name="Trazado 1280309" d="M280.281,75.321l-2.109,2.08a10.878,10.878,0,0,0-12.729,0l-2.118-2.094a13.242,13.242,0,0,1,8.482-2.909,13.386,13.386,0,0,1,8.473,2.923" transform="translate(-75.93 -20.876)" fill="#326290"/>
          <path id="Trazado_1280310" data-name="Trazado 1280310" d="M567.673,249.684a24.907,24.907,0,1,1-24.907-24.907,24.907,24.907,0,0,1,24.907,24.907" transform="translate(-149.324 -64.814)" fill="#fff"/>
          <path id="Trazado_1280311" data-name="Trazado 1280311" d="M543.136,241.19v26.454l20.779-13.227Z" transform="translate(-156.613 -69.547)" fill="#4192f2"/>
          <path id="Trazado_1280312" data-name="Trazado 1280312" d="M153.421,232.633a30.442,30.442,0,1,1-30.442-30.442,30.442,30.442,0,0,1,30.442,30.442" transform="translate(-26.683 -58.302)" fill="#fff"/>
          <path id="Trazado_1280313" data-name="Trazado 1280313" d="M121.22,242.509a6.067,6.067,0,1,1-6.067-6.067,6.067,6.067,0,0,1,6.067,6.067" transform="translate(-31.455 -68.178)" fill="#fdc563"/>
          <path id="Trazado_1280314" data-name="Trazado 1280314" d="M150.156,224.769a6.067,6.067,0,1,1-6.067-6.067,6.068,6.068,0,0,1,6.067,6.067" transform="translate(-39.798 -63.062)" fill="#fdc563"/>
          <path id="Trazado_1280315" data-name="Trazado 1280315" d="M150.156,260.249a6.067,6.067,0,1,1-6.067-6.067,6.067,6.067,0,0,1,6.067,6.067" transform="translate(-39.798 -73.293)" fill="#fdc563"/>
          <path id="Trazado_1280316" data-name="Trazado 1280316" d="M138.2,227.227l-20.592,12.625L138.2,252.476" transform="translate(-33.913 -65.521)" fill="none" stroke="#fdc563" stroke-miterlimit="10" stroke-width="2.698"/>
        </g>
      </g>
    </g>
  </g>
</svg>
