<svg xmlns="http://www.w3.org/2000/svg" xmlns:xlink="http://www.w3.org/1999/xlink" width="96" height="96" viewBox="0 0 96 96">
  <defs>
    <clipPath id="clip-path">
      <rect id="Rectángulo_454829" data-name="Rectángulo 454829" width="96" height="96" fill="#1e535a"/>
    </clipPath>
    <clipPath id="clip-path-2">
      <rect id="Rectángulo_463126" data-name="Rectángulo 463126" width="30.029" height="29.464" fill="#1e535a"/>
    </clipPath>
  </defs>
  <g id="Grupo_1212998" data-name="Grupo 1212998" transform="translate(-1481 -8562.5)">
    <g id="Grupo_1177591" data-name="Grupo 1177591" transform="translate(1481 8562.5)">
      <g id="Grupo_1177589" data-name="Grupo 1177589" transform="translate(0 0)">
        <g id="Grupo_1177587" data-name="Grupo 1177587" clip-path="url(#clip-path)">
          <path id="Trazado_997422" data-name="Trazado 997422" d="M92.081,42.491a44.136,44.136,0,0,0-9.97-22.967,5.076,5.076,0,0,0-7.142-6.838A44.071,44.071,0,0,0,52.151,3.77a5.077,5.077,0,0,0-9.861.2A44.132,44.132,0,0,0,20.4,13.329a5.079,5.079,0,0,0-7.048,7.1A44.1,44.1,0,0,0,4.112,42.448,5.08,5.08,0,0,0,3.99,52.4a44.082,44.082,0,0,0,8.949,22.468,5.078,5.078,0,0,0,6.9,7.17,44.128,44.128,0,0,0,22.412,9.8,5.078,5.078,0,0,0,9.949.2,44.091,44.091,0,0,0,22.985-9.08,5.077,5.077,0,0,0,7.107-6.874A44.147,44.147,0,0,0,92.2,52.349a5.078,5.078,0,0,0-.119-9.858M77.74,22.024a5.05,5.05,0,0,0,2.812-.851,41.913,41.913,0,0,1,9.25,21.3,5.086,5.086,0,0,0-3.246,2.351l-12.98-4.867c.01-.142.02-.286.02-.433a5.079,5.079,0,0,0-2.151-4.15l5.678-13.4a5.5,5.5,0,0,0,.616.041M75,21.216,69.354,34.523a5.026,5.026,0,0,0-5.594,3.23L40.279,32.344a4.941,4.941,0,0,0-.106-1.011l33.322-11.6A5.1,5.1,0,0,0,75,21.216M47.246,10.165a5.083,5.083,0,0,0,4.989-4.122,41.844,41.844,0,0,1,21.158,8.275,5.054,5.054,0,0,0-.735,2.625,5.335,5.335,0,0,0,.048.671L39.217,29.273a5.1,5.1,0,0,0-.92-.92l8.784-18.2c.056,0,.109.008.165.008M42.3,6.243A5.083,5.083,0,0,0,44.86,9.569L36.248,27.4a5.1,5.1,0,0,0-1.049-.109,5.045,5.045,0,0,0-2.9.91L22.1,19.678A5.052,5.052,0,0,0,21.923,15,41.877,41.877,0,0,1,42.3,6.243M10.041,46.332,31.153,35.442a5.064,5.064,0,0,0,4.006,2.014l7.236,23.129a5.166,5.166,0,0,0-1.12,1.239l-31.3-13.04a5.048,5.048,0,0,0,.187-1.348,5.107,5.107,0,0,0-.124-1.1m4.986-24.391a5.079,5.079,0,0,0,5.673-.484l10.079,8.417a5.068,5.068,0,0,0-.56,3.512L9.07,44.29A5.081,5.081,0,0,0,6.38,42.526a41.859,41.859,0,0,1,8.647-20.585m2.1,50.717a5.067,5.067,0,0,0-2.523.674A41.822,41.822,0,0,1,6.263,52.374,5.087,5.087,0,0,0,8.9,50.783l31.609,13.17a5.45,5.45,0,0,0-.041.611,5.081,5.081,0,0,0,.3,1.718L21.657,75.44a5.081,5.081,0,0,0-4.528-2.782M42.349,89.575a41.919,41.919,0,0,1-20.912-9.149,5.029,5.029,0,0,0,.775-2.686l0-.058L42,68.2A5.082,5.082,0,0,0,43.8,69.329l1.186,17.043a5.082,5.082,0,0,0-2.632,3.2m2.105-29.97-7.081-22.64a5.089,5.089,0,0,0,2.415-2.415L63.459,40a5.052,5.052,0,0,0,.808,2.311L48.032,60.13a5.019,5.019,0,0,0-3.577-.524m7.74,30.167a5.081,5.081,0,0,0-4.948-3.937l-.038,0L46.081,69.62a5.073,5.073,0,0,0,3.106-1.507L72.853,78.551c0,.046-.008.086-.008.132a5.057,5.057,0,0,0,.752,2.65,41.841,41.841,0,0,1-21.4,8.439M73.423,76.334,50.373,66.165a5.052,5.052,0,0,0-.666-4.52L65.893,43.877a5.052,5.052,0,0,0,2.622.735,5.594,5.594,0,0,0,.623-.041l6.05,29.836a5.071,5.071,0,0,0-1.766,1.928m7.292-1.9a5.051,5.051,0,0,0-3.377-.8L71.285,43.788a5.1,5.1,0,0,0,1.6-1.672L85.858,46.98a4.506,4.506,0,0,0-.023.456,5.08,5.08,0,0,0,4.084,4.981,41.876,41.876,0,0,1-9.2,22.017" transform="translate(0 0.001)" fill="#1e535a"/>
        </g>
      </g>
    </g>
    <g id="Elipse_13614" data-name="Elipse 13614" transform="translate(1497.965 8578.883)" fill="#d5f4f8" stroke="#1e535a" stroke-width="3">
      <ellipse cx="31.232" cy="31.233" rx="31.232" ry="31.233" stroke="none"/>
      <ellipse cx="31.232" cy="31.233" rx="29.732" ry="29.733" fill="none"/>
    </g>
    <g id="Grupo_1213530" data-name="Grupo 1213530" transform="translate(1513.985 8596.442)">
      <g id="Grupo_1213529" data-name="Grupo 1213529" clip-path="url(#clip-path-2)">
        <path id="Trazado_1280487" data-name="Trazado 1280487" d="M30.052,16.42H.027L.025,2.2A2.16,2.16,0,0,1,2.066,0h26.41a1.568,1.568,0,0,1,1.571,1.472ZM25.2,4.082,12.6,4.076l6.271,5.486Zm-8.7,4.561L11.85,4.6l-.018,8.118Zm9.381,3.927,0-7.89L21.292,8.623Zm-16.4-5.9A.53.53,0,0,0,9.854,6.2.509.509,0,0,0,9.4,5.8l-4.68,0a.473.473,0,0,0-.433.468.5.5,0,0,0,.43.4ZM9.444,9.108a.464.464,0,0,0,.409-.439c0-.151-.177-.42-.361-.42H2.869a.443.443,0,0,0-.378.508.521.521,0,0,0,.467.352Zm7.705.115-4.536,4H25.261L20.634,9.2l-1.243,1.071a.976.976,0,0,1-1.3-.24Zm-7.7,2.336a.5.5,0,0,0,.408-.489c-.021-.138-.247-.4-.39-.4H6.381c-.205,0-.42.307-.406.474a.484.484,0,0,0,.47.417Z" transform="translate(-0.023)" fill="#1e535a"/>
        <path id="Trazado_1280488" data-name="Trazado 1280488" d="M28.045,192.5H2.127a2.115,2.115,0,0,1-2.1-1.937c-.045-.8-.024-1.583-.019-2.36H30.026l-.009,2.271a2.109,2.109,0,0,1-1.971,2.025M15.7,190.345a.685.685,0,1,0-.685.685.685.685,0,0,0,.685-.685" transform="translate(0 -170.924)" fill="#1e535a"/>
        <path id="Trazado_1280489" data-name="Trazado 1280489" d="M88.181,294.806l-13.892,0a1.33,1.33,0,0,1-1.4-1.243,1.286,1.286,0,0,1,1.222-1.391h14.2a1.281,1.281,0,0,1,1.224,1.3,1.312,1.312,0,0,1-1.353,1.327" transform="translate(-66.193 -265.344)" fill="#1e535a"/>
        <path id="Trazado_1280490" data-name="Trazado 1280490" d="M122.986,247.915h-9.105a14.106,14.106,0,0,0,.663-3.5h7.739a13.42,13.42,0,0,0,.7,3.5" transform="translate(-103.424 -221.968)" fill="#1e535a"/>
      </g>
    </g>
  </g>
</svg>
