<svg xmlns="http://www.w3.org/2000/svg" xmlns:xlink="http://www.w3.org/1999/xlink" width="84" height="84" viewBox="0 0 84 84">
  <defs>
    <clipPath id="clip-path">
      <rect id="Rectángulo_461858" data-name="Rectángulo 461858" width="74.353" height="74.333" fill="#344866"/>
    </clipPath>
  </defs>
  <g id="Grupo_1213531" data-name="Grupo 1213531" transform="translate(-289.711 -4602)">
    <g id="Grupo_1212935" data-name="Grupo 1212935" transform="translate(290.289 4601.712)">
      <g id="Grupo_1119665" data-name="Grupo 1119665" transform="translate(-0.578 0.288)">
        <rect id="Rectángulo_402006" data-name="Rectángulo 402006" width="84" height="84" rx="5" fill="#a4e7f0"/>
      </g>
      <g id="Grupo_1212202" data-name="Grupo 1212202" transform="translate(4.422 5.288)">
        <g id="Grupo_1212201" data-name="Grupo 1212201" clip-path="url(#clip-path)">
          <path id="Trazado_1277195" data-name="Trazado 1277195" d="M.009,56.315,0,44.717A1.634,1.634,0,0,1,1.7,43l8.963,0,.011-8.323a3.938,3.938,0,0,1,3.861-3.913l12.083-.029.005-3.652a7.864,7.864,0,0,1-7.911-3.042,6.133,6.133,0,0,1-7.3.024,6.242,6.242,0,0,1,3.117-11.31c-.069-2.544.559-5.746,2.361-5.333A1.082,1.082,0,0,1,17.479,8.9c-1.528,2.924-.147,4.361-.741,5.361a1.628,1.628,0,0,1-1.37.635,4.081,4.081,0,0,0-4.083,2.485,4.154,4.154,0,0,0,1.32,4.852,3.974,3.974,0,0,0,5.032-.153,2.161,2.161,0,0,1,1.408-.6,1.915,1.915,0,0,1,1.267,1,5.626,5.626,0,0,0,6.309,2.37l.006-7.442c0-.457.568-.921.981-.975.351-.046,1.148.421,1.151.792l.053,6.385a4.014,4.014,0,0,1,1.4-.993c1.283-.356,2.338,3.563,7.163,3.442a7.064,7.064,0,0,0,5.6-2.954c.211-.283,1.06-.667,1.335-.457l1.255.957-.006-7.245L42.624,19.2a1.294,1.294,0,0,1-1.556-.106,1.257,1.257,0,0,1,.112-1.58L45.56,13.37a1.188,1.188,0,0,1,1.72.029l4.859,4.127a1.21,1.21,0,0,1,.276,1.332,1.161,1.161,0,0,1-1.582.406l-3.094-2.558-.01,8.153a5.673,5.673,0,0,0,6.315-2.375,2.167,2.167,0,0,1,1.08-.973,2.07,2.07,0,0,1,1.592.569,3.979,3.979,0,0,0,5.036.15,4.1,4.1,0,0,0-3-7.33,1.558,1.558,0,0,1-1.138-.644,2.154,2.154,0,0,1-.115-1.3,5.622,5.622,0,0,0-3-6.282,5.71,5.71,0,0,0-7.009,1.577,1.706,1.706,0,0,1-1.264.59,1.735,1.735,0,0,1-1.118-.9,8.069,8.069,0,0,0-6.718-5.685,8.2,8.2,0,0,0-9.123,5.675,1.684,1.684,0,0,1-1.118.906,1.786,1.786,0,0,1-1.26-.569,5.709,5.709,0,0,0-6.1-1.949,1.143,1.143,0,0,1-1.454-.707c-.555-2.233,5.429-2.493,8.337.339a10.581,10.581,0,0,1,19.028-.007,7.789,7.789,0,0,1,9.008-1.1,7.994,7.994,0,0,1,4.093,7.9,6.248,6.248,0,0,1,3.146,11.317,6.133,6.133,0,0,1-7.3-.024,7.873,7.873,0,0,1-7.912,3.039V30.74l7.969.012a4.227,4.227,0,0,1,4.372-4.1l9.814,0a4.234,4.234,0,0,1,4.466,4.23l-.008,16.182a4.21,4.21,0,0,1-4.23,4.115l-6.428,0,0,10.806a6.153,6.153,0,0,1-.379,1.7h2.569c1,0,2.319.751,2.324,1.9l.018,4.734a4.148,4.148,0,0,1-4.085,3.985l-9.4.04a1.372,1.372,0,0,1-1.189-.807c-.145-.477.177-1.357.757-1.359l9.8-.041a2.083,2.083,0,0,0,1.928-1.833l.022-4.4H44.839l-.151,2.224c-.075,1.109-1.431,1.912-2.5,1.912H32.173c-1.076,0-2.435-.8-2.508-1.914l-.146-2.222H8.309l.035,4.374a2.117,2.117,0,0,0,2.337,1.884l38.506-.006c.81,0,1.269.31,1.313,1.009a1.114,1.114,0,0,1-1.112,1.168l-38.923,0a4.178,4.178,0,0,1-4.323-4.025l.016-4.716c0-1.157,1.325-1.9,2.323-1.9h2.566a6.452,6.452,0,0,1-.373-1.668l-.01-4.066-8.961,0A1.653,1.653,0,0,1,.009,56.315M45.57,30.741l-.01-4.471L44,25.3a9.411,9.411,0,0,1-13.7-.033L28.787,26.3l.032,4.455ZM57.884,47.01a2.02,2.02,0,0,0,1.774,1.961l10.438.016a2.1,2.1,0,0,0,2.1-2.153l-.006-15.94a2.04,2.04,0,0,0-2.089-2.046l-10.249.009a1.926,1.926,0,0,0-1.963,1.794l-.023,7.865a2,2,0,0,1-.583,1.24l-3.025,1.952,2.33.553a1.622,1.622,0,0,1,1.285,1.6ZM15.043,36.469A1.456,1.456,0,0,1,16.4,35.112l10.215,0-.005-2.153-12.342.032c-.8,0-1.41,1.041-1.411,1.732l0,8.284,2.175-.04Zm30.523-3.535H28.79V35.12H45.566Zm10.137,0H47.73V35.12H55.7Zm-7.96,4.319L47.7,42.608c0,.432-.977.766-1.349.648a1.265,1.265,0,0,1-.794-1.287l.01-4.714H28.786l.017,6.032,3.039-2.775a1.156,1.156,0,0,1,1.51.178,1.289,1.289,0,0,1-.234,1.538l-4.371,4.211a1.25,1.25,0,0,1-1.37.141l-5.1-4.339a1.171,1.171,0,0,1-.215-1.588,1.222,1.222,0,0,1,1.5-.159l3.061,2.547.01-5.789-9.422,0-.017,5.608c1.434.137,3.007.186,3,1.688l-.019,11.837c0,1.337-1.537,1.828-2.8,1.462a4.458,4.458,0,0,0-.145,1.515l39.922,0V50.222a4.75,4.75,0,0,1-1.44-3.245L55.683,44.3l-3.605-.826c-.461-.106-.914-.982-.908-1.439a1.9,1.9,0,0,1,.891-1.516l3.377-2.153a1.171,1.171,0,0,0,.156-1.107Zm-29.727,7.9-15.864,0,0,10.628,15.864,0ZM12.847,57.939l.027,4.01a1.751,1.751,0,0,0,1.654,1.733h45.3a1.76,1.76,0,0,0,1.662-1.75L61.5,51.194l-2.174-.016-.012,8.877A1.5,1.5,0,0,1,57.7,61.538H16.653a1.474,1.474,0,0,1-1.594-1.485L15,57.929Zm18.891,9.845H42.619v-1.87H31.737Z" transform="translate(0 0)" fill="#344866"/>
          <path id="Trazado_1277196" data-name="Trazado 1277196" d="M66.74,320.81l-2.32.105a1.258,1.258,0,0,1-1.179-.993,1.23,1.23,0,0,1,.947-1.168l2.073-.039a1.467,1.467,0,0,1,1.1.841c.121.337-.258,1.237-.626,1.254" transform="translate(-49.767 -250.818)" fill="#344866"/>
          <path id="Trazado_1277197" data-name="Trazado 1277197" d="M94.882,319.658c.162,1.269-1.6,1.359-3.573,1.073-.261-.038-.545-.636-.567-.889-.026-.3.27-1.022.587-1.064,1.844-.249,3.4-.295,3.554.88" transform="translate(-71.409 -250.754)" fill="#344866"/>
          <path id="Trazado_1277198" data-name="Trazado 1277198" d="M180.205,256.679l-13.953.007a1.162,1.162,0,0,1-1.272-.958c-.091-.8.454-1.24,1.278-1.24h13.85c.72,0,1.259.382,1.287,1.027a1.115,1.115,0,0,1-1.189,1.165" transform="translate(-129.825 -200.271)" fill="#344866"/>
          <path id="Trazado_1277199" data-name="Trazado 1277199" d="M180.431,238.76l-14.153.015a1.137,1.137,0,0,1-1.276-.969c-.05-.792.454-1.231,1.274-1.231l13.858,0a1.2,1.2,0,0,1,1.255.844,1.081,1.081,0,0,1-.959,1.342" transform="translate(-129.848 -186.175)" fill="#344866"/>
          <path id="Trazado_1277200" data-name="Trazado 1277200" d="M169.637,220.957l-3.653.009a1.116,1.116,0,0,1-1.038-1.179,1.133,1.133,0,0,1,1.285-.99l3.627.062c.338.006.717.795.687,1.124s-.571.974-.908.975" transform="translate(-129.803 -172.185)" fill="#344866"/>
          <path id="Trazado_1277201" data-name="Trazado 1277201" d="M292.788,195.446l-5.811.011a1.279,1.279,0,0,1-1.116-1.119,1.161,1.161,0,0,1,1.111-1.1l5.748-.007a1.152,1.152,0,0,1,1.175.955,1.176,1.176,0,0,1-1.109,1.256" transform="translate(-224.962 -152.069)" fill="#344866"/>
          <path id="Trazado_1277202" data-name="Trazado 1277202" d="M293.043,178.98l-6.5-.02c-.411,0-.773-.837-.721-1.167a1.306,1.306,0,0,1,1.065-.971l6.053,0c.389,0,.87.622.917.968s-.373,1.189-.812,1.188" transform="translate(-224.925 -139.152)" fill="#344866"/>
          <path id="Trazado_1277203" data-name="Trazado 1277203" d="M289.795,162.7l-2.864.007a1.5,1.5,0,0,1-1-.79c-.143-.37.18-1.291.608-1.324a21.872,21.872,0,0,1,3.88.013c.374.033.656.955.54,1.3a1.434,1.434,0,0,1-1.169.8" transform="translate(-224.993 -126.315)" fill="#344866"/>
          <path id="Trazado_1277204" data-name="Trazado 1277204" d="M30.431,242.079l-7.629.01a1.1,1.1,0,0,1-1.1-.984,1.049,1.049,0,0,1,1.125-1.161l7.485-.009a1.075,1.075,0,1,1,.119,2.144" transform="translate(-17.077 -188.82)" fill="#344866"/>
          <path id="Trazado_1277205" data-name="Trazado 1277205" d="M26.815,225.854l-4.045.047a1.4,1.4,0,0,1-1.053-.785c-.124-.4.2-1.367.653-1.369l4.526-.026c.351,0,.773.68.792,1,.022.354-.5,1.133-.874,1.137" transform="translate(-17.069 -176.061)" fill="#344866"/>
        </g>
      </g>
    </g>
  </g>
</svg>
