<svg xmlns="http://www.w3.org/2000/svg" xmlns:xlink="http://www.w3.org/1999/xlink" width="69" height="69" viewBox="0 0 69 69">
  <defs>
    <clipPath id="clip-path">
      <rect id="Rectángulo_463025" data-name="Rectángulo 463025" width="42.823" height="42.817" fill="#fff"/>
    </clipPath>
  </defs>
  <g id="Grupo_1213533" data-name="Grupo 1213533" transform="translate(-519.711 -6073)">
    <g id="Grupo_1212947" data-name="Grupo 1212947" transform="translate(-96.855 5323.138)">
      <circle id="Elipse_13676" data-name="Elipse 13676" cx="34.5" cy="34.5" r="34.5" transform="translate(616.566 749.862)" fill="#1e535a"/>
    </g>
    <g id="Grupo_1213488" data-name="Grupo 1213488" transform="translate(532.711 6086)">
      <g id="Grupo_1213487" data-name="Grupo 1213487" clip-path="url(#clip-path)">
        <path id="Trazado_1280074" data-name="Trazado 1280074" d="M30.937,90.389l1.628,1.536a2.844,2.844,0,0,0-.731.951c-.139.407.385.83.678,1.237l-31.78,0A.74.74,0,0,1,0,93.334l0-28.1H39.478l0,24.974-2.263-2.191c-.566-.186-.99.162-1.4.714L34.233,87.1a9.913,9.913,0,1,0-3.3,3.286M6.06,69.816H33.426l0,3.775a.824.824,0,0,0,.776.787c.256,0,.736-.371.736-.67l.007-4.731a.829.829,0,0,0-.7-.691l-29.034,0c-.42,0-.665.486-.665.808l0,6.025a.873.873,0,0,0,.91.8l10.524-.005a.84.84,0,0,0,.727-.859c-.095-.509-.454-.665-.953-.665l-9.7.005ZM13.732,79.7c.368,0,.693-.527.693-.781s-.287-.741-.626-.742l-6.278,0a.814.814,0,0,0-.7.764.88.88,0,0,0,.72.766Zm-.02,3.038c.369,0,.7-.493.714-.742.008-.222-.253-.762-.483-.763l-6.555,0c-.371,0-.617.577-.552.895a.913.913,0,0,0,.831.63Zm-.031,3.017a.812.812,0,0,0,.735-.691c.031-.3-.238-.793-.594-.793l-6.446.005c-.383,0-.612.609-.53.9a.838.838,0,0,0,.81.583Z" transform="translate(0 -56.147)" fill="#fff"/>
        <path id="Trazado_1280075" data-name="Trazado 1280075" d="M39.489,7.575H.01V0H39.489ZM6.063,3.781A2.273,2.273,0,1,0,3.791,6.054,2.273,2.273,0,0,0,6.063,3.781m5.326,0A2.275,2.275,0,1,0,9.114,6.056,2.275,2.275,0,0,0,11.389,3.78m5.314,0a2.277,2.277,0,1,0-2.277,2.277A2.277,2.277,0,0,0,16.7,3.779m20.561,2.28a.8.8,0,0,0,.711-.73V2.206a.743.743,0,0,0-.632-.674H18.838a.712.712,0,0,0-.6.679l0,3.114a.75.75,0,0,0,.738.732Z" transform="translate(-0.009)" fill="#fff"/>
        <path id="Trazado_1280076" data-name="Trazado 1280076" d="M246.926,250.1l-5.4-5.353,3.246-3.246,5.328,5.356a2.273,2.273,0,0,1-3.176,3.243" transform="translate(-207.879 -207.859)" fill="#fff"/>
        <path id="Trazado_1280077" data-name="Trazado 1280077" d="M142.019,133.656a8.354,8.354,0,1,1-8.354-8.354,8.355,8.355,0,0,1,8.354,8.354m-.759,0a7.594,7.594,0,1,0-7.594,7.594,7.594,7.594,0,0,0,7.594-7.594" transform="translate(-107.852 -107.845)" fill="#fff"/>
        <rect id="Rectángulo_463023" data-name="Rectángulo 463023" width="1.499" height="1.986" transform="translate(32.25 33.304) rotate(-44.903)" fill="#fff"/>
        <rect id="Rectángulo_463024" data-name="Rectángulo 463024" width="1.549" height="16.716" transform="translate(19.74 4.579) rotate(-89.911)" fill="#fff"/>
        <path id="Trazado_1280078" data-name="Trazado 1280078" d="M99.566,22.48a.759.759,0,1,1-.759-.759.759.759,0,0,1,.759.759" transform="translate(-84.389 -18.695)" fill="#fff"/>
        <path id="Trazado_1280079" data-name="Trazado 1280079" d="M61.373,22.484a.759.759,0,1,1-.759-.759.759.759,0,0,1,.759.759" transform="translate(-51.515 -18.698)" fill="#fff"/>
        <path id="Trazado_1280080" data-name="Trazado 1280080" d="M23.2,22.434a.76.76,0,1,1-.76-.76.76.76,0,0,1,.76.76" transform="translate(-18.66 -18.654)" fill="#fff"/>
        <path id="Trazado_1280081" data-name="Trazado 1280081" d="M153.808,147.743a6.077,6.077,0,1,1-6.077-6.077,6.077,6.077,0,0,1,6.077,6.077" transform="translate(-121.919 -121.929)" fill="#fff"/>
      </g>
    </g>
  </g>
</svg>
