<svg xmlns="http://www.w3.org/2000/svg" xmlns:xlink="http://www.w3.org/1999/xlink" width="69" height="69" viewBox="0 0 69 69">
  <defs>
    <clipPath id="clip-path">
      <rect id="Rectángulo_462446" data-name="Rectángulo 462446" width="42.438" height="43.197" fill="#fff"/>
    </clipPath>
  </defs>
  <g id="Grupo_1213484" data-name="Grupo 1213484" transform="translate(-1033 -4466)">
    <g id="Grupo_1212373" data-name="Grupo 1212373" transform="translate(415.433 3716.138)">
      <circle id="Elipse_13676" data-name="Elipse 13676" cx="34.5" cy="34.5" r="34.5" transform="translate(617.567 749.862)" fill="#1e535a"/>
    </g>
    <g id="Grupo_1212839" data-name="Grupo 1212839" transform="translate(1046 4479)">
      <g id="Grupo_1212838" data-name="Grupo 1212838" clip-path="url(#clip-path)">
        <path id="Trazado_1278332" data-name="Trazado 1278332" d="M0,204.327ZM25.872,222.9l2.484-2.483a1.572,1.572,0,0,0,.078-2.2l-3.289-3.362a4,4,0,0,0,1.35-1.812c.1-.422-.435-1.477-.879-1.567L16.85,209.7a2.044,2.044,0,0,0-1.407.511,2.279,2.279,0,0,0-.291,1.282l1.637,8.221a2.142,2.142,0,0,0,.936,1.247,2.067,2.067,0,0,0,1.564-.269l1.11-1.014,3.119,3.166a1.573,1.573,0,0,0,2.354.05" transform="translate(-9.554 -185.797)" fill="#fff"/>
        <path id="Trazado_1278333" data-name="Trazado 1278333" d="M171.8,174.482a.834.834,0,0,1-.889-.618c-.062-.306.174-.856.562-.857l8.124-.021a4.579,4.579,0,0,0,4.56-4.588l.009-8a.8.8,0,0,1,.776-.7.816.816,0,0,1,.7.722l-.017,8.09a6.1,6.1,0,0,1-5.4,5.958Z" transform="translate(-147.75 -136.065)" fill="#fff"/>
        <path id="Trazado_1278334" data-name="Trazado 1278334" d="M35.215,67.4,35.14,75.95c0,.351-.537.652-.8.619a.806.806,0,0,1-.659-.8l.024-8.147a5.91,5.91,0,0,1,5.838-5.8l8.013-.024a.77.77,0,0,1,.85.615.754.754,0,0,1-.726.874l-8.282.039A4.328,4.328,0,0,0,35.215,67.4" transform="translate(-29.118 -56.428)" fill="#fff"/>
        <path id="Trazado_1278337" data-name="Trazado 1278337" d="M137.3,116.618a13.333,13.333,0,0,0-13.4-13.465,1.185,1.185,0,0,1-1-1.074,1.133,1.133,0,0,1,1.205-1.069A15.412,15.412,0,0,1,139.415,116.5a1.238,1.238,0,0,1-.852,1.024c-.36.1-1.267-.225-1.267-.905" transform="translate(-101.518 -96.381)" fill="#fff"/>
        <path id="Trazado_1278340" data-name="Trazado 1278340" d="M132.75,134.882a8.817,8.817,0,0,0-8.851-8.766,1.2,1.2,0,0,1-1.025-1.076,1.181,1.181,0,0,1,1.018-1.066,10.9,10.9,0,0,1,10.991,11,1.172,1.172,0,0,1-1.039.994,1.111,1.111,0,0,1-1.093-1.087" transform="translate(-101.499 -114.816)" fill="#fff"/>
        <path id="Trazado_1278346" data-name="Trazado 1278346" d="M128.236,153.307a4.246,4.246,0,0,0-4.151-4.241,1.276,1.276,0,0,1-1.18-.905,1.142,1.142,0,0,1,1-1.257,6.407,6.407,0,0,1,6.465,6.291,1.188,1.188,0,0,1-.885,1.16,1.076,1.076,0,0,1-1.253-1.047" transform="translate(-101.511 -133.224)" fill="#fff"/>
        <path id="Trazado_1278347" data-name="Trazado 1278347" d="M123.695,173.036a1.534,1.534,0,1,1-1.534-1.534,1.535,1.535,0,0,1,1.534,1.534" transform="translate(-99.694 -152.972)" fill="#fff"/>
      </g>
    </g>
  </g>
</svg>
