<svg id="Grupo_1212946" data-name="Grupo 1212946" xmlns="http://www.w3.org/2000/svg" xmlns:xlink="http://www.w3.org/1999/xlink" width="128" height="128" viewBox="0 0 128 128">
  <defs>
    <clipPath id="clip-path">
      <rect id="Rectángulo_454829" data-name="Rectángulo 454829" width="128" height="128" fill="#1e535a"/>
    </clipPath>
    <clipPath id="clip-path-2">
      <rect id="Rectángulo_463018" data-name="Rectángulo 463018" width="46.289" height="46.201" fill="#1e535a"/>
    </clipPath>
  </defs>
  <g id="Grupo_1177591" data-name="Grupo 1177591">
    <g id="Grupo_1177589" data-name="Grupo 1177589" transform="translate(0 0)">
      <g id="Grupo_1177587" data-name="Grupo 1177587" clip-path="url(#clip-path)">
        <path id="Trazado_997422" data-name="Trazado 997422" d="M122.774,56.654a58.848,58.848,0,0,0-13.293-30.623,6.768,6.768,0,0,0-9.523-9.118A58.761,58.761,0,0,0,69.535,5.027a6.769,6.769,0,0,0-13.148.267A58.842,58.842,0,0,0,27.2,17.772a6.771,6.771,0,0,0-9.4,9.462A58.794,58.794,0,0,0,5.483,56.6a6.774,6.774,0,0,0-.162,13.266A58.776,58.776,0,0,0,17.252,99.82a6.771,6.771,0,0,0,9.2,9.56,58.838,58.838,0,0,0,29.883,13.07,6.771,6.771,0,0,0,13.266.267,58.788,58.788,0,0,0,30.646-12.107,6.769,6.769,0,0,0,9.476-9.165A58.863,58.863,0,0,0,122.933,69.8a6.771,6.771,0,0,0-.159-13.144m-19.12-27.288a6.733,6.733,0,0,0,3.75-1.135,55.884,55.884,0,0,1,12.333,28.407,6.781,6.781,0,0,0-4.327,3.135L98.1,53.283c.013-.189.027-.382.027-.578a6.772,6.772,0,0,0-2.868-5.533l7.57-17.86a7.335,7.335,0,0,0,.821.054M100,28.288,92.472,46.03a6.7,6.7,0,0,0-7.459,4.307L53.705,43.125a6.588,6.588,0,0,0-.142-1.348L97.992,26.305a6.793,6.793,0,0,0,2,1.983M63,13.553a6.777,6.777,0,0,0,6.651-5.5A55.792,55.792,0,0,1,97.857,19.09a6.739,6.739,0,0,0-.98,3.5,7.114,7.114,0,0,0,.064.9L52.29,39.031A6.8,6.8,0,0,0,51.064,37.8L62.775,13.543c.074,0,.145.01.22.01M56.4,8.324a6.778,6.778,0,0,0,3.409,4.435L48.331,36.538a6.8,6.8,0,0,0-1.4-.145,6.727,6.727,0,0,0-3.861,1.213L29.461,26.238A6.736,6.736,0,0,0,29.231,20,55.836,55.836,0,0,1,56.4,8.324M13.387,61.776l28.15-14.519a6.751,6.751,0,0,0,5.341,2.686l9.648,30.839a6.887,6.887,0,0,0-1.493,1.652L13.3,65.046a6.731,6.731,0,0,0,.25-1.8,6.81,6.81,0,0,0-.166-1.473m6.648-32.521a6.771,6.771,0,0,0,7.564-.645L41.037,39.831a6.758,6.758,0,0,0-.747,4.682l-28.2,14.539A6.774,6.774,0,0,0,8.506,56.7,55.812,55.812,0,0,1,20.036,29.254m2.8,67.623a6.756,6.756,0,0,0-3.365.9A55.762,55.762,0,0,1,8.351,69.832a6.783,6.783,0,0,0,3.517-2.121L54.013,85.27a7.266,7.266,0,0,0-.054.814,6.775,6.775,0,0,0,.405,2.29L28.876,100.587a6.775,6.775,0,0,0-6.037-3.709m33.626,22.556a55.892,55.892,0,0,1-27.883-12.2,6.705,6.705,0,0,0,1.034-3.581l0-.078L56,90.929a6.776,6.776,0,0,0,2.392,1.51l1.581,22.725a6.776,6.776,0,0,0-3.51,4.27m2.807-39.96L49.831,49.287a6.786,6.786,0,0,0,3.219-3.219l31.562,7.266a6.736,6.736,0,0,0,1.078,3.081L64.042,80.173a6.692,6.692,0,0,0-4.77-.7M69.592,119.7a6.774,6.774,0,0,0-6.6-5.25l-.051,0-1.5-21.623a6.764,6.764,0,0,0,4.142-2.01l31.555,13.918c0,.061-.01.115-.01.176a6.743,6.743,0,0,0,1,3.534A55.789,55.789,0,0,1,69.592,119.7M97.9,101.779,67.164,88.22a6.736,6.736,0,0,0-.888-6.027L87.858,58.5a6.736,6.736,0,0,0,3.5.98,7.46,7.46,0,0,0,.831-.054l8.067,39.781a6.761,6.761,0,0,0-2.355,2.571m9.722-2.534a6.735,6.735,0,0,0-4.5-1.064l-8.07-39.8a6.8,6.8,0,0,0,2.135-2.23l17.3,6.486a6.009,6.009,0,0,0-.03.608,6.774,6.774,0,0,0,5.445,6.641A55.835,55.835,0,0,1,107.62,99.246" transform="translate(0 0.001)" fill="#1e535a"/>
      </g>
    </g>
  </g>
  <g id="Elipse_13614" data-name="Elipse 13614" transform="translate(23.707 24.697)" fill="#fff" stroke="#1e535a" stroke-width="3">
    <ellipse cx="39.732" cy="39.733" rx="39.732" ry="39.733" stroke="none"/>
    <ellipse cx="39.732" cy="39.733" rx="38.232" ry="38.233" fill="none"/>
  </g>
  <g id="Grupo_1213472" data-name="Grupo 1213472" transform="translate(40.707 40.693)">
    <g id="Grupo_1213471" data-name="Grupo 1213471" clip-path="url(#clip-path-2)">
      <path id="Trazado_1280040" data-name="Trazado 1280040" d="M35.475,10.963H.037l0-9.6A1.307,1.307,0,0,1,1.276,0H34.21a1.313,1.313,0,0,1,1.264,1.361ZM8.349,6.869A1.354,1.354,0,1,0,6.995,8.224,1.354,1.354,0,0,0,8.349,6.869m5.428,0a1.359,1.359,0,1,0-1.359,1.359,1.36,1.36,0,0,0,1.359-1.359m5.425,0a1.355,1.355,0,1,0-1.355,1.355A1.355,1.355,0,0,0,19.2,6.87" transform="translate(-0.032)" fill="#1e535a"/>
      <path id="Trazado_1280041" data-name="Trazado 1280041" d="M125.629,136.127a6.788,6.788,0,0,1-10.466,6.591l4.751-4.774a1.3,1.3,0,0,0-.034-1.826,1.358,1.358,0,0,0-1.882-.076l-4.765,4.741a6.87,6.87,0,0,1-.055-7.339,6.753,6.753,0,0,1,6.656-3.081l7.737-7.734a6.652,6.652,0,0,1,3.913-7.088,6.834,6.834,0,0,1,6.483.506l-4.8,4.835a1.42,1.42,0,0,0,.123,1.787c.32.338,1.218.659,1.7.185l4.925-4.885a6.775,6.775,0,0,1-6.569,10.456Z" transform="translate(-96.272 -98.684)" fill="#1e535a"/>
      <path id="Trazado_1280042" data-name="Trazado 1280042" d="M19.047,99.925a1.484,1.484,0,0,0-1.5-.663,1.384,1.384,0,0,0-1.062,1.066,1.425,1.425,0,0,0,.664,1.484l-1.32,1.359a4.125,4.125,0,0,0-.7,1.49L0,104.665l.032-8.13,35.569.03c-3.073,1.217-5.3,2.94-6.418,5.826l-3.776-3.782a4.063,4.063,0,0,0-4.87-.094,14.993,14.993,0,0,0-1.491,1.41m-10.729.669a1.355,1.355,0,1,0-1.355,1.355,1.355,1.355,0,0,0,1.355-1.355m5.428,0a1.354,1.354,0,1,0-1.354,1.354,1.354,1.354,0,0,0,1.354-1.354" transform="translate(0 -82.873)" fill="#1e535a"/>
      <path id="Trazado_1280043" data-name="Trazado 1280043" d="M18.257,178.635a9.346,9.346,0,0,0-4.545,5.383l-12.359.006a1.379,1.379,0,0,1-1.31-1.452v-9.394l15.305,0,.467.72,1.951,1.981a1.348,1.348,0,0,0-1.259,1.511c.1.821.778,1.268,1.748,1.244m-9.9-1.4A1.355,1.355,0,1,0,7,178.593a1.355,1.355,0,0,0,1.355-1.355m5.428.007A1.353,1.353,0,1,0,12.43,178.6a1.353,1.353,0,0,0,1.353-1.353" transform="translate(-0.038 -148.669)" fill="#1e535a"/>
      <path id="Trazado_1280044" data-name="Trazado 1280044" d="M252.6,254.019a1.461,1.461,0,0,1-1.4.215L246.14,251.2a1.317,1.317,0,0,1-.349-1.807l1.153-1.2-3.828-3.829,1.917-1.917,3.831,3.83,1.109-1.079a1.321,1.321,0,0,1,1.9.276l2.872,4.774a1.4,1.4,0,0,1-.043,1.657Z" transform="translate(-208.709 -208.13)" fill="#1e535a"/>
      <path id="Trazado_1280045" data-name="Trazado 1280045" d="M130.178,135.352l-4.911-4.928a1.359,1.359,0,0,1,.182-1.852l3.689-3.685a1.377,1.377,0,0,1,2.072.012l4.7,4.7Z" transform="translate(-107.29 -106.815)" fill="#1e535a"/>
    </g>
  </g>
</svg>
