<svg xmlns="http://www.w3.org/2000/svg" xmlns:xlink="http://www.w3.org/1999/xlink" width="69" height="69" viewBox="0 0 69 69">
  <defs>
    <clipPath id="clip-path">
      <rect id="Rectángulo_463035" data-name="Rectángulo 463035" width="39.789" height="38.453" fill="#fff"/>
    </clipPath>
  </defs>
  <g id="Grupo_1212950" data-name="Grupo 1212950" transform="translate(-273.711 -1370)">
    <circle id="Elipse_13700" data-name="Elipse 13700" cx="34.5" cy="34.5" r="34.5" transform="translate(273.711 1370)" fill="#1e535a"/>
    <g id="Grupo_1213492" data-name="Grupo 1213492" transform="translate(288.711 1385)">
      <g id="Grupo_1213491" data-name="Grupo 1213491" clip-path="url(#clip-path)">
        <path id="Trazado_1280101" data-name="Trazado 1280101" d="M35.01,34.745H66.816V54.624H35.01ZM60.882,53.071l1.86-1.864a.7.7,0,0,0-.041-.9l-1.589-1.594.912-.937a.935.935,0,0,0,.116-.7.884.884,0,0,0-.488-.387l-2.138-.641V36.718a.642.642,0,0,0-.618-.646H40.309a.657.657,0,0,0-.657.645V49.36a.644.644,0,0,0,.61.633H55.59l.642,2.112a.949.949,0,0,0,.434.525.874.874,0,0,0,.629-.125l1.015-.98,1.583,1.582a.7.7,0,0,0,.988-.036" transform="translate(-31.019 -30.784)" fill="#fff"/>
        <path id="Trazado_1280102" data-name="Trazado 1280102" d="M28.741,234.218l-17.475-.01A1.968,1.968,0,0,1,9.375,232.2a1.99,1.99,0,0,1,2-1.969l1.7-.047c1.933-.053,2.85-2.037,2.861-3.949l-13.115,0A2.6,2.6,0,0,1,.1,223.687l-.01-2.734H39.858l-.01,2.734a2.6,2.6,0,0,1-2.722,2.552l-13.118,0c0,1.846.944,3.883,2.757,3.939l1.8.056a2,2,0,0,1,.171,3.987m-6.768-10.636a.663.663,0,0,0,.647-.719.686.686,0,0,0-.753-.569l-4.019.016c-.32,0-.574.454-.523.731a.726.726,0,0,0,.646.54Zm1.995,6.637a6.885,6.885,0,0,1-1.312-3.977l-5.357-.007a6.766,6.766,0,0,1-1.351,3.992Z" transform="translate(-0.079 -195.765)" fill="#fff"/>
        <path id="Trazado_1280103" data-name="Trazado 1280103" d="M36.345,2.621H3.444a.73.73,0,0,0-.8.722l0,20.488L0,23.837.006,2.626A2.592,2.592,0,0,1,2.418.008L37.262,0a2.605,2.605,0,0,1,2.521,2.63l.006,21.207-2.641,0,0-20.488a.726.726,0,0,0-.8-.723" transform="translate(0 0)" fill="#fff"/>
        <path id="Trazado_1280104" data-name="Trazado 1280104" d="M101.323,91.078a1.138,1.138,0,0,0-.655.108.911.911,0,0,0-.2.737l.918,3.109H87.144V87.059l17.264,0,0,4.946ZM94.49,93.694a.742.742,0,0,0,.629-.7l-.006-2.651a.707.707,0,0,0-.61-.633l-5.4,0a.663.663,0,0,0-.6.627L88.5,93a.683.683,0,0,0,.673.7Z" transform="translate(-77.21 -77.134)" fill="#fff"/>
        <rect id="Rectángulo_463033" data-name="Rectángulo 463033" width="17.266" height="1.993" transform="translate(9.933 6.611)" fill="#fff"/>
        <path id="Trazado_1280105" data-name="Trazado 1280105" d="M223.612,140.9l-.921.982-1.677-1.646c-.593-.2-1.027.1-1.487.664l-1.3-4.388,4.364,1.32c-.413.371-.933.846-.65,1.279a13.285,13.285,0,0,0,1.674,1.788" transform="translate(-193.346 -120.95)" fill="#fff"/>
        <rect id="Rectángulo_463034" data-name="Rectángulo 463034" width="3.982" height="1.372" transform="translate(12.592 13.891)" fill="#fff"/>
      </g>
    </g>
  </g>
</svg>
